<svg preserveAspectRatio="none" width="100%" height="100%" overflow="visible" style="display: block;" viewBox="0 0 147.25 16.974" fill="none" xmlns="http://www.w3.org/2000/svg">
<path id="Vector" d="M6.84 2.106C7.008 2.334 7.194 2.61 7.398 2.934C7.602 3.246 7.8 3.57 7.992 3.906C8.184 4.23 8.346 4.536 8.478 4.824L7.218 5.382C7.062 5.034 6.9 4.71 6.732 4.41C6.564 4.098 6.39 3.792 6.21 3.492C6.03 3.192 5.838 2.904 5.634 2.628L6.84 2.106ZM9.108 1.17C9.276 1.386 9.462 1.65 9.666 1.962C9.87 2.274 10.074 2.598 10.278 2.934C10.482 3.258 10.656 3.552 10.8 3.816L9.558 4.428C9.39 4.08 9.216 3.756 9.036 3.456C8.868 3.156 8.688 2.862 8.496 2.574C8.304 2.286 8.106 2.004 7.902 1.728L9.108 1.17ZM0.161999 13.842C0.161999 13.65 0.161999 13.296 0.161999 12.78C0.161999 12.264 0.161999 11.658 0.161999 10.962C0.161999 10.266 0.161999 9.534 0.161999 8.766C0.161999 7.998 0.161999 7.26 0.161999 6.552C0.161999 5.832 0.161999 5.196 0.161999 4.644C0.161999 4.092 0.161999 3.69 0.161999 3.438C0.161999 3.15 0.144 2.82 0.108 2.448C0.0839998 2.064 0.048 1.722 0 1.422H2.214C2.19 1.71 2.16 2.04 2.124 2.412C2.088 2.772 2.07 3.114 2.07 3.438C2.07 3.834 2.07 4.344 2.07 4.968C2.07 5.592 2.07 6.264 2.07 6.984C2.07 7.704 2.07 8.43 2.07 9.162C2.082 9.882 2.088 10.566 2.088 11.214C2.088 11.862 2.088 12.42 2.088 12.888C2.088 13.356 2.088 13.674 2.088 13.842C2.088 14.022 2.088 14.25 2.088 14.526C2.1 14.802 2.118 15.084 2.142 15.372C2.178 15.66 2.202 15.918 2.214 16.146H0.0179996C0.0539996 15.822 0.0839998 15.444 0.108 15.012C0.144 14.58 0.161999 14.19 0.161999 13.842ZM1.674 6.12C2.262 6.288 2.916 6.498 3.636 6.75C4.368 6.99 5.106 7.248 5.85 7.524C6.606 7.8 7.314 8.082 7.974 8.37C8.646 8.646 9.216 8.898 9.684 9.126L8.892 11.07C8.388 10.806 7.818 10.536 7.182 10.26C6.558 9.972 5.916 9.696 5.256 9.432C4.596 9.168 3.954 8.928 3.33 8.712C2.718 8.496 2.166 8.31 1.674 8.154V6.12ZM17.658 1.674C17.898 1.698 18.168 1.722 18.468 1.746C18.78 1.758 19.086 1.764 19.386 1.764C19.578 1.764 19.908 1.764 20.376 1.764C20.856 1.764 21.39 1.764 21.978 1.764C22.578 1.764 23.172 1.764 23.76 1.764C24.36 1.764 24.894 1.764 25.362 1.764C25.842 1.764 26.184 1.764 26.388 1.764C26.676 1.764 26.982 1.758 27.306 1.746C27.642 1.722 27.924 1.698 28.152 1.674V3.528C27.924 3.504 27.648 3.492 27.324 3.492C27 3.48 26.682 3.474 26.37 3.474C26.166 3.474 25.83 3.474 25.362 3.474C24.894 3.474 24.36 3.474 23.76 3.474C23.172 3.474 22.578 3.474 21.978 3.474C21.39 3.474 20.862 3.474 20.394 3.474C19.926 3.474 19.59 3.474 19.386 3.474C19.098 3.474 18.798 3.48 18.486 3.492C18.186 3.492 17.91 3.504 17.658 3.528V1.674ZM29.574 6.624C29.514 6.72 29.454 6.828 29.394 6.948C29.346 7.068 29.31 7.17 29.286 7.254C29.034 8.13 28.698 9.006 28.278 9.882C27.858 10.758 27.312 11.562 26.64 12.294C25.716 13.326 24.696 14.142 23.58 14.742C22.476 15.342 21.348 15.804 20.196 16.128L18.792 14.508C20.1 14.232 21.294 13.818 22.374 13.266C23.454 12.702 24.36 12.036 25.092 11.268C25.608 10.728 26.028 10.14 26.352 9.504C26.688 8.868 26.934 8.256 27.09 7.668C26.97 7.668 26.736 7.668 26.388 7.668C26.04 7.668 25.614 7.668 25.11 7.668C24.618 7.668 24.09 7.668 23.526 7.668C22.962 7.668 22.386 7.668 21.798 7.668C21.222 7.668 20.676 7.668 20.16 7.668C19.644 7.668 19.188 7.668 18.792 7.668C18.408 7.668 18.12 7.668 17.928 7.668C17.712 7.668 17.424 7.674 17.064 7.686C16.716 7.698 16.368 7.716 16.02 7.74V5.868C16.38 5.904 16.722 5.934 17.046 5.958C17.37 5.982 17.664 5.994 17.928 5.994C18.072 5.994 18.33 5.994 18.702 5.994C19.074 5.994 19.512 5.994 20.016 5.994C20.52 5.994 21.06 5.994 21.636 5.994C22.224 5.994 22.812 5.994 23.4 5.994C23.988 5.994 24.534 5.994 25.038 5.994C25.554 5.994 25.998 5.994 26.37 5.994C26.742 5.994 27 5.994 27.144 5.994C27.396 5.994 27.618 5.982 27.81 5.958C28.014 5.922 28.176 5.88 28.296 5.832L29.574 6.624ZM41.3771 1.764C41.2811 2.004 41.1731 2.268 41.0531 2.556C40.9451 2.844 40.8251 3.186 40.6931 3.582C40.5971 3.894 40.4651 4.314 40.2971 4.842C40.1291 5.37 39.9371 5.958 39.7211 6.606C39.5171 7.242 39.3011 7.902 39.0731 8.586C38.8451 9.258 38.6231 9.912 38.4071 10.548C38.1911 11.184 37.9871 11.76 37.7951 12.276C37.6151 12.792 37.4591 13.2 37.3271 13.5L35.2391 13.572C35.3951 13.212 35.5751 12.756 35.7791 12.204C35.9951 11.64 36.2171 11.028 36.4451 10.368C36.6731 9.696 36.9011 9.012 37.1291 8.316C37.3691 7.608 37.5911 6.93 37.7951 6.282C37.9991 5.622 38.1851 5.022 38.3531 4.482C38.5211 3.942 38.6471 3.504 38.7311 3.168C38.8511 2.736 38.9351 2.382 38.9831 2.106C39.0431 1.83 39.0911 1.56 39.1271 1.296L41.3771 1.764ZM44.7251 7.686C45.0371 8.166 45.3791 8.73 45.7511 9.378C46.1351 10.014 46.5131 10.68 46.8851 11.376C47.2571 12.072 47.5991 12.744 47.9111 13.392C48.2351 14.04 48.4931 14.604 48.6851 15.084L46.7771 15.948C46.5851 15.432 46.3391 14.838 46.0391 14.166C45.7511 13.482 45.4271 12.78 45.0671 12.06C44.7191 11.34 44.3651 10.662 44.0051 10.026C43.6451 9.39 43.3031 8.862 42.9791 8.442L44.7251 7.686ZM34.7711 12.978C35.1911 12.966 35.7011 12.936 36.3011 12.888C36.9131 12.84 37.5671 12.78 38.2631 12.708C38.9591 12.636 39.6731 12.564 40.4051 12.492C41.1371 12.42 41.8451 12.342 42.5291 12.258C43.2251 12.174 43.8671 12.096 44.4551 12.024C45.0431 11.952 45.5351 11.886 45.9311 11.826L46.3991 13.626C45.9671 13.674 45.4391 13.734 44.8151 13.806C44.2031 13.878 43.5371 13.956 42.8171 14.04C42.0971 14.124 41.3591 14.208 40.6031 14.292C39.8471 14.376 39.1091 14.46 38.3891 14.544C37.6811 14.616 37.0211 14.682 36.4091 14.742C35.8091 14.802 35.2991 14.85 34.8791 14.886C34.6511 14.91 34.3991 14.946 34.1231 14.994C33.8471 15.03 33.5711 15.066 33.2951 15.102L32.9711 13.014C33.2591 13.014 33.5651 13.014 33.8891 13.014C34.2131 13.002 34.5071 12.99 34.7711 12.978ZM63.2471 1.062L64.3811 0.108C64.6811 0.312 64.9871 0.54 65.2991 0.792C65.6231 1.044 65.9291 1.296 66.2171 1.548C66.5051 1.788 66.7331 2.01 66.9011 2.214L65.7131 3.276C65.5451 3.06 65.3231 2.82 65.0471 2.556C64.7831 2.292 64.4891 2.028 64.1651 1.764C63.8531 1.5 63.5471 1.266 63.2471 1.062ZM51.4031 3.276H67.5311V4.95H51.4031V3.276ZM52.0511 7.362H59.9351V9.018H52.0511V7.362ZM55.0751 8.28H56.7671V14.562H55.0751V8.28ZM51.4571 14.544C52.1771 14.412 53.0231 14.256 53.9951 14.076C54.9791 13.884 56.0231 13.68 57.1271 13.464C58.2311 13.248 59.3291 13.032 60.4211 12.816L60.5471 14.328C59.5511 14.568 58.5371 14.802 57.5051 15.03C56.4731 15.246 55.4831 15.456 54.5351 15.66C53.5871 15.876 52.7231 16.068 51.9431 16.236L51.4571 14.544ZM60.4391 0.126H62.2751C62.2511 1.71 62.2871 3.24 62.3831 4.716C62.4791 6.18 62.6291 7.536 62.8331 8.784C63.0371 10.032 63.2831 11.124 63.5711 12.06C63.8591 12.984 64.1831 13.704 64.5431 14.22C64.9031 14.736 65.2811 14.994 65.6771 14.994C65.9051 14.994 66.0731 14.73 66.1811 14.202C66.3011 13.674 66.3851 12.828 66.4331 11.664C66.6251 11.856 66.8651 12.042 67.1531 12.222C67.4411 12.402 67.7051 12.54 67.9451 12.636C67.8491 13.716 67.7111 14.556 67.5311 15.156C67.3511 15.756 67.0991 16.176 66.7751 16.416C66.4511 16.656 66.0371 16.776 65.5331 16.776C64.9091 16.776 64.3511 16.566 63.8591 16.146C63.3671 15.726 62.9351 15.132 62.5631 14.364C62.1911 13.596 61.8671 12.696 61.5911 11.664C61.3271 10.62 61.1111 9.48 60.9431 8.244C60.7751 7.008 60.6491 5.706 60.5651 4.338C60.4931 2.958 60.4511 1.554 60.4391 0.126ZM76.981 0.54H78.907C78.883 1.032 78.841 1.668 78.781 2.448C78.721 3.228 78.607 4.104 78.439 5.076C78.283 6.036 78.043 7.038 77.719 8.082C77.395 9.126 76.951 10.17 76.387 11.214C75.823 12.246 75.109 13.23 74.245 14.166C73.381 15.09 72.331 15.906 71.0951 16.614C70.9391 16.386 70.7351 16.152 70.4831 15.912C70.2311 15.672 69.9611 15.456 69.6731 15.264C70.8971 14.616 71.923 13.866 72.751 13.014C73.579 12.15 74.257 11.238 74.785 10.278C75.313 9.306 75.721 8.334 76.009 7.362C76.309 6.378 76.525 5.442 76.657 4.554C76.789 3.666 76.873 2.874 76.909 2.178C76.945 1.482 76.969 0.936 76.981 0.54ZM78.835 0.954C78.847 1.17 78.871 1.53 78.907 2.034C78.955 2.526 79.033 3.12 79.141 3.816C79.261 4.512 79.435 5.268 79.663 6.084C79.891 6.9 80.191 7.74 80.563 8.604C80.935 9.456 81.403 10.296 81.967 11.124C82.531 11.94 83.203 12.696 83.983 13.392C84.775 14.076 85.705 14.664 86.773 15.156C86.509 15.36 86.257 15.594 86.017 15.858C85.789 16.122 85.603 16.368 85.459 16.596C84.367 16.068 83.407 15.426 82.579 14.67C81.763 13.914 81.061 13.092 80.473 12.204C79.897 11.316 79.411 10.41 79.015 9.486C78.631 8.562 78.319 7.656 78.079 6.768C77.851 5.88 77.677 5.058 77.557 4.302C77.437 3.534 77.353 2.874 77.305 2.322C77.257 1.77 77.221 1.368 77.197 1.116L78.835 0.954ZM92.281 1.89H104.593V3.312H92.281V1.89ZM92.479 4.5H102.919V5.886H92.479V4.5ZM90.391 7.092H101.029V8.55H90.391V7.092ZM92.317 0L94.117 0.378C93.673 1.794 93.091 3.108 92.371 4.32C91.663 5.532 90.877 6.54 90.013 7.344C89.905 7.236 89.755 7.116 89.563 6.984C89.371 6.84 89.173 6.702 88.969 6.57C88.777 6.438 88.603 6.33 88.447 6.246C89.335 5.538 90.109 4.638 90.769 3.546C91.441 2.442 91.957 1.26 92.317 0ZM96.997 8.766L98.635 9.306C98.011 10.434 97.261 11.478 96.385 12.438C95.509 13.398 94.549 14.256 93.505 15.012C92.461 15.768 91.381 16.422 90.265 16.974C90.169 16.854 90.049 16.71 89.905 16.542C89.761 16.374 89.605 16.206 89.437 16.038C89.269 15.882 89.119 15.75 88.987 15.642C90.127 15.174 91.201 14.598 92.209 13.914C93.217 13.23 94.129 12.456 94.945 11.592C95.773 10.716 96.457 9.774 96.997 8.766ZM100.435 7.092H102.181C102.181 8.232 102.199 9.288 102.235 10.26C102.271 11.22 102.343 12.066 102.451 12.798C102.559 13.518 102.709 14.082 102.901 14.49C103.093 14.898 103.345 15.102 103.657 15.102C103.813 15.09 103.915 14.856 103.963 14.4C104.023 13.944 104.059 13.338 104.071 12.582C104.239 12.774 104.431 12.966 104.647 13.158C104.863 13.35 105.055 13.506 105.223 13.626C105.187 14.37 105.109 14.976 104.989 15.444C104.881 15.912 104.713 16.248 104.485 16.452C104.257 16.668 103.939 16.776 103.531 16.776C102.847 16.776 102.301 16.53 101.893 16.038C101.485 15.558 101.179 14.886 100.975 14.022C100.771 13.146 100.633 12.12 100.561 10.944C100.489 9.768 100.447 8.484 100.435 7.092ZM90.643 10.548L91.867 9.432C92.539 9.792 93.241 10.194 93.973 10.638C94.705 11.082 95.419 11.55 96.115 12.042C96.811 12.534 97.459 13.02 98.059 13.5C98.671 13.98 99.175 14.436 99.571 14.868L98.221 16.146C97.837 15.726 97.357 15.27 96.781 14.778C96.205 14.286 95.575 13.788 94.891 13.284C94.207 12.78 93.499 12.294 92.767 11.826C92.035 11.346 91.327 10.92 90.643 10.548ZM108.355 15.246V1.98H110.497L114.889 9.774L116.275 12.564H116.365C116.305 11.892 116.239 11.172 116.167 10.404C116.107 9.636 116.077 8.892 116.077 8.172V1.98H118.075V15.246H115.933L111.541 7.434L110.155 4.662H110.083C110.131 5.346 110.185 6.06 110.245 6.804C110.305 7.548 110.335 8.286 110.335 9.018V15.246H108.355ZM126.092 15.498C125.276 15.498 124.508 15.294 123.788 14.886C123.08 14.466 122.504 13.872 122.06 13.104C121.628 12.324 121.412 11.388 121.412 10.296C121.412 9.192 121.628 8.256 122.06 7.488C122.504 6.708 123.08 6.114 123.788 5.706C124.508 5.298 125.276 5.094 126.092 5.094C126.692 5.094 127.274 5.214 127.838 5.454C128.402 5.682 128.9 6.018 129.332 6.462C129.764 6.906 130.106 7.452 130.358 8.1C130.61 8.736 130.736 9.468 130.736 10.296C130.736 11.388 130.514 12.324 130.07 13.104C129.638 13.872 129.068 14.466 128.36 14.886C127.664 15.294 126.908 15.498 126.092 15.498ZM126.092 13.77C126.608 13.77 127.052 13.626 127.424 13.338C127.808 13.05 128.102 12.648 128.306 12.132C128.51 11.604 128.612 10.992 128.612 10.296C128.612 9.6 128.51 8.994 128.306 8.478C128.102 7.95 127.808 7.542 127.424 7.254C127.052 6.954 126.608 6.804 126.092 6.804C125.564 6.804 125.108 6.954 124.724 7.254C124.352 7.542 124.064 7.95 123.86 8.478C123.656 8.994 123.554 9.6 123.554 10.296C123.554 10.992 123.656 11.604 123.86 12.132C124.064 12.648 124.352 13.05 124.724 13.338C125.108 13.626 125.564 13.77 126.092 13.77ZM134.743 15.498C134.359 15.498 134.029 15.36 133.753 15.084C133.489 14.796 133.357 14.442 133.357 14.022C133.357 13.59 133.489 13.242 133.753 12.978C134.029 12.702 134.359 12.564 134.743 12.564C135.139 12.564 135.469 12.702 135.733 12.978C136.009 13.242 136.147 13.59 136.147 14.022C136.147 14.442 136.009 14.796 135.733 15.084C135.469 15.36 135.139 15.498 134.743 15.498ZM139.672 15.246V13.536H142.588V4.68H140.212V3.366C140.836 3.246 141.376 3.108 141.832 2.952C142.3 2.784 142.726 2.586 143.11 2.358H144.676V13.536H147.25V15.246H139.672Z" fill="var(--fill-0, #462B27)"/>
</svg>
