<svg preserveAspectRatio="none" width="100%" height="100%" overflow="visible" style="display: block;" viewBox="0 0 177.34 286.95" fill="none" xmlns="http://www.w3.org/2000/svg">
<g id="Group" style="mix-blend-mode:screen" opacity="0.2">
<path id="Vector" opacity="0" d="M170.756 285.075C129.292 310.767 25.8221 64.5935 7.66448 23.1905C1.20636 8.52987 -1.88232 2.27404 1.20635 0.363862C4.24822 -1.54631 8.31965 4.08871 18.1004 16.6959C45.7581 52.2251 212.172 259.384 170.756 285.075Z" fill="var(--fill-0, #190000)"/>
<path id="Vector_2" opacity="0.02" d="M167.011 278.772C126.531 303.843 25.5407 63.5905 7.71071 23.047C1.34618 8.62517 -1.74248 2.41711 1.29939 0.554688C4.24766 -1.30773 8.3191 4.27954 17.9595 16.6957C45.0087 51.5086 207.398 253.701 167.011 278.772Z" fill="var(--fill-0, #1F0505)"/>
<path id="Vector_3" opacity="0.05" d="M163.221 272.516C123.724 296.966 25.167 62.6357 7.75816 22.9996C1.48723 8.81652 -1.55464 2.6562 1.39363 0.841536C4.29511 -0.973131 8.36652 4.56638 17.8197 16.7915C44.2606 50.8404 202.672 248.114 163.221 272.516Z" fill="var(--fill-0, #240B0A)"/>
<path id="Vector_4" opacity="0.07" d="M159.477 266.26C121.009 290.138 24.8856 61.6806 7.80437 22.9041C1.62704 8.9598 -1.41482 2.84724 1.48665 1.08033C4.34133 -0.686585 8.36594 4.80517 17.6319 16.8393C43.4644 50.1241 197.851 242.431 159.43 266.26H159.477Z" fill="var(--fill-0, #2A100F)"/>
<path id="Vector_5" opacity="0.1" d="M155.733 260.004C118.248 283.26 24.6051 60.7251 7.8982 22.8558C1.81446 9.15033 -1.18062 3.08551 1.67406 1.3186C4.48194 -0.400557 8.45977 4.9957 17.5854 16.8865C42.8563 49.455 193.171 236.795 155.78 260.004H155.733Z" fill="var(--fill-0, #2F1614)"/>
<path id="Vector_6" opacity="0.12" d="M151.989 253.701C115.487 276.337 24.2775 59.7229 7.99178 22.7133C2.00164 9.24655 -0.993429 3.22951 1.81445 1.51035C4.57553 -0.208809 8.50656 5.18744 17.445 16.8873C42.1075 48.6917 188.445 231.113 151.989 253.701Z" fill="var(--fill-0, #351B19)"/>
<path id="Vector_7" opacity="0.15" d="M148.198 247.445C112.679 269.459 23.9495 58.7672 7.9914 22.6649C2.04805 9.43691 -0.853427 3.46762 1.86086 1.79621C4.52834 0.124811 8.45938 5.47329 17.2574 16.9343C41.3116 47.9747 183.624 225.478 148.198 247.445Z" fill="var(--fill-0, #3B201D)"/>
<path id="Vector_8" opacity="0.17" d="M144.455 241.189C109.965 262.583 23.669 57.8124 8.0853 22.6174C2.23555 9.62826 -0.665941 3.70673 2.00155 2.03532C4.62223 0.411673 8.50648 5.7124 17.1641 16.9824C40.6099 47.3065 178.898 219.795 144.455 241.189Z" fill="var(--fill-0, #402622)"/>
<path id="Vector_9" opacity="0.2" d="M140.711 234.933C107.203 255.707 23.3414 56.8574 8.13204 22.522C2.37589 9.77159 -0.478787 3.89779 2.1419 2.27414C4.71579 0.698248 8.60003 5.90348 17.0237 17.0302C39.8611 46.5902 174.171 214.16 140.711 234.933Z" fill="var(--fill-0, #462B27)"/>
<path id="Vector_10" opacity="0.22" d="M136.967 228.63C104.442 248.782 23.0605 55.8545 8.22554 22.4264C2.56298 9.91477 -0.291702 4.04097 2.28219 2.51283C4.80928 0.936939 8.64672 6.14216 16.93 17.0779C39.159 45.9216 169.445 208.525 136.967 228.678V228.63Z" fill="var(--fill-0, #4B312C)"/>
<path id="Vector_11" opacity="0.24" d="M133.176 222.374C101.635 241.905 22.7332 54.899 8.27258 22.3306C2.70362 10.0577 -0.104254 4.23164 2.37604 2.7035C4.80954 1.17536 8.64697 6.33282 16.743 17.0776C38.3637 45.1571 164.625 202.842 133.176 222.326V222.374Z" fill="var(--fill-0, #513631)"/>
<path id="Vector_12" opacity="0.27" d="M129.433 216.118C98.9205 235.029 22.4058 53.9445 8.31956 22.2833C2.84419 10.2492 0.0363143 4.47097 2.46981 2.99059C4.85651 1.5102 8.64715 6.61991 16.6028 17.1736C37.6151 44.4891 159.898 197.255 129.433 216.118Z" fill="var(--fill-0, #573C36)"/>
<path id="Vector_13" opacity="0.29" d="M125.689 209.814C96.1592 228.104 22.1248 52.9411 8.41295 22.1873C2.98439 10.3442 0.270104 4.66148 2.6568 3.22884C4.9967 1.79621 8.74053 6.81041 16.5558 17.1731C36.9597 43.7723 155.218 191.524 125.736 209.814H125.689Z" fill="var(--fill-0, #5C413B)"/>
<path id="Vector_14" opacity="0.32" d="M121.944 203.559C93.3977 221.228 21.7967 51.9865 8.45931 22.0922C3.12434 10.4879 0.410065 4.8529 2.74996 3.42027C5.04307 1.98763 8.74011 7.00183 16.3682 17.1735C36.1637 43.0086 150.398 185.842 121.944 203.511V203.559Z" fill="var(--fill-0, #624640)"/>
<path id="Vector_15" opacity="0.34" d="M118.155 197.303C90.5906 214.399 21.47 51.0314 8.50695 22.0445C3.26557 10.679 0.598073 5.0917 2.84438 3.70683C5.09068 2.32195 8.78772 7.28841 16.2286 17.2691C35.4626 42.3401 145.672 180.255 118.155 197.303Z" fill="var(--fill-0, #684C45)"/>
<path id="Vector_16" opacity="0.37" d="M114.41 191.047C87.8757 207.522 21.1885 50.0284 8.55308 21.9489C3.4053 10.8221 0.737808 5.28258 2.93731 3.94546C5.09002 2.60834 8.78706 7.52705 16.0408 17.3167C34.6664 41.6714 140.851 174.62 114.363 191.047H114.41Z" fill="var(--fill-0, #6D514A)"/>
<path id="Vector_17" opacity="0.39" d="M110.666 184.744C85.1147 200.598 20.8611 49.0257 8.64678 21.8535C3.5926 10.9655 0.97192 5.47374 3.07783 4.18437C5.18374 2.895 8.83398 7.71819 15.9473 17.3646C33.9645 40.9552 136.125 168.937 110.62 184.791L110.666 184.744Z" fill="var(--fill-0, #73574E)"/>
<path id="Vector_18" opacity="0.41" d="M106.923 178.488C82.3542 193.722 20.5808 48.0707 8.74095 21.758C3.78036 11.1088 1.15966 5.66476 3.26557 4.37539C5.32468 3.08602 8.92813 7.90922 15.901 17.3646C33.3099 40.1912 131.492 163.254 106.97 178.488H106.923Z" fill="var(--fill-0, #785C53)"/>
<path id="Vector_19" opacity="0.44" d="M103.132 172.232C79.5462 186.845 20.2531 47.1154 8.74084 21.7101C3.82705 11.2996 1.29996 5.90341 3.31227 4.66179C5.32458 3.42018 8.88123 8.19562 15.6669 17.46C32.4674 39.5702 126.625 157.667 103.086 172.28L103.132 172.232Z" fill="var(--fill-0, #7E6158)"/>
<path id="Vector_20" opacity="0.46" d="M99.3881 165.928C76.8315 179.92 19.9251 46.1121 8.83402 21.6141C4.01383 11.4424 1.48673 6.09392 3.45225 4.90007C5.37096 3.70621 8.92761 8.4339 15.5729 17.4595C31.765 38.8057 121.898 151.984 99.3881 165.928Z" fill="var(--fill-0, #84675D)"/>
<path id="Vector_21" opacity="0.49" d="M95.6444 159.672C74.0705 173.044 19.6444 45.1574 8.88089 21.519C4.15429 11.5861 1.674 6.28537 3.54592 5.09151C5.41784 3.94541 8.97448 8.62534 15.3858 17.4599C30.9695 38.0898 117.125 146.301 95.5976 159.625L95.6444 159.672Z" fill="var(--fill-0, #896C62)"/>
<path id="Vector_22" opacity="0.51" d="M91.9008 153.417C71.3097 166.167 19.3639 44.2027 8.97477 21.4716C4.34176 11.7775 1.86148 6.5245 3.7334 5.37839C5.55852 4.28004 9.06837 8.86446 15.3393 17.5558C30.3147 37.4216 112.445 140.667 91.9008 153.417Z" fill="var(--fill-0, #8F7267)"/>
<path id="Vector_23" opacity="0.54" d="M88.1105 147.161C68.5021 159.291 18.9899 43.2474 9.02188 21.3759C4.48248 11.9206 2.049 6.71535 3.82732 5.617C5.60565 4.51865 9.0687 9.10306 15.1992 17.6033C29.5662 36.7051 107.672 135.031 88.1573 147.161H88.1105Z" fill="var(--fill-0, #94776C)"/>
<path id="Vector_24" opacity="0.56" d="M84.3663 140.857C65.7875 152.366 18.7087 42.2441 9.06833 21.2799C4.57572 12.0633 2.18903 6.90585 3.92056 5.8075C5.60529 4.7569 9.06833 9.29356 15.0117 17.6028C28.8171 35.9883 102.898 129.348 84.3195 140.857H84.3663Z" fill="var(--fill-0, #9A7D71)"/>
<path id="Vector_25" opacity="0.59" d="M80.6224 134.601C63.0263 145.489 18.4278 41.2891 9.16182 21.1845C4.76281 12.2067 2.37611 7.09694 4.06084 6.04635C5.69877 5.0435 9.11502 9.53242 14.918 17.6507C28.115 35.272 98.1716 123.713 80.6224 134.601Z" fill="var(--fill-0, #A08276)"/>
<path id="Vector_26" opacity="0.61" d="M76.8782 128.345C60.2649 138.66 18.0999 40.3341 9.20828 21.1368C4.90286 12.3978 2.56297 7.33582 4.2009 6.33298C5.79203 5.37789 9.16149 9.7713 14.7773 17.6985C27.3659 34.5558 93.3979 118.078 76.8314 128.345H76.8782Z" fill="var(--fill-0, #A5877B)"/>
<path id="Vector_27" opacity="0.63" d="M73.0873 122.042C57.4568 131.736 17.7721 39.3312 9.25487 21.0413C5.04305 12.541 2.70314 7.52676 4.29427 6.52392C5.83861 5.56883 9.20806 9.96224 14.6366 17.6984C26.6169 33.8394 88.6711 112.348 73.0873 122.042Z" fill="var(--fill-0, #AB8D7F)"/>
<path id="Vector_28" opacity="0.66" d="M69.344 115.786C54.743 124.86 17.4918 38.3764 9.34892 20.946C5.23069 12.6845 2.93758 7.71805 4.43511 6.76297C5.93265 5.85563 9.25531 10.2013 14.5435 17.7465C25.9154 33.1234 83.9449 106.713 69.3907 115.738L69.344 115.786Z" fill="var(--fill-0, #B09284)"/>
<path id="Vector_29" opacity="0.68" d="M65.5998 109.53C51.9816 117.983 17.1639 37.4211 9.39546 20.8981C5.37084 12.8754 3.07773 7.95666 4.52847 7.04933C5.93241 6.18975 9.25508 10.4876 14.3561 17.8418C25.1196 32.5024 79.1245 101.125 65.5531 109.53H65.5998Z" fill="var(--fill-0, #B69889)"/>
<path id="Vector_30" opacity="0.71" d="M61.8564 103.275C49.2209 111.106 16.8835 36.4663 9.48942 20.8028C5.51159 13.0189 3.31209 8.14793 4.71603 7.28835C6.07317 6.47652 9.34902 10.6789 14.3096 17.8898C24.4648 31.7864 74.4918 95.4907 61.9032 103.275H61.8564Z" fill="var(--fill-0, #BC9D8E)"/>
<path id="Vector_31" opacity="0.73" d="M58.0655 96.971C46.4128 104.182 16.5557 35.4634 9.48916 20.7073C5.60493 13.1621 3.40541 8.2912 4.76255 7.47937C6.0729 6.66755 9.30197 10.8699 14.0754 17.8898C23.6222 31.0223 69.6246 89.7601 58.0187 96.971H58.0655Z" fill="var(--fill-0, #C1A293)"/>
<path id="Vector_32" opacity="0.76" d="M54.3222 90.7152C43.6991 97.3053 16.2287 34.5082 9.58337 20.6595C5.79273 13.353 3.64002 8.52987 4.90357 7.7658C6.16712 7.00173 9.34937 11.1564 13.9824 17.9852C22.9208 30.4014 64.8986 84.1728 54.3222 90.7629V90.7152Z" fill="var(--fill-0, #C7A898)"/>
<path id="Vector_33" opacity="0.78" d="M50.5776 84.4595C40.9372 90.4288 15.9471 33.5533 9.67612 20.5641C5.97908 13.4965 3.82636 8.72107 5.04311 8.00476C6.21306 7.28844 9.44212 11.3953 13.8879 17.9854C22.218 29.6375 60.218 78.4902 50.5776 84.4595Z" fill="var(--fill-0, #CDAD9D)"/>
<path id="Vector_34" opacity="0.8" d="M46.8345 78.2036C38.1769 83.5521 15.667 32.5982 9.72369 20.5163C6.12024 13.6874 4.01432 8.95975 5.18427 8.24344C6.30743 7.57487 9.4897 11.634 13.7483 18.0331C21.5168 28.9211 55.4453 72.8551 46.8345 78.2036Z" fill="var(--fill-0, #D2B3A2)"/>
<path id="Vector_35" opacity="0.83" d="M43.0905 71.9C35.4156 76.6277 15.3393 31.5953 9.8171 20.373C6.30725 13.7829 4.20134 9.10298 5.3245 8.43442C6.40085 7.76586 9.53631 11.7772 13.6545 18.033C20.8146 28.2047 50.7186 67.1723 43.1373 71.9H43.0905Z" fill="var(--fill-0, #D8B8A7)"/>
<path id="Vector_36" opacity="0.85" d="M39.2993 65.644C32.654 69.7509 15.0111 30.6401 9.81657 20.3251C6.35352 13.9738 4.3412 9.34161 5.37076 8.7208C6.40031 8.1 9.48899 12.0636 13.42 18.1284C19.9717 27.536 45.8978 61.5372 39.2525 65.6918L39.2993 65.644Z" fill="var(--fill-0, #DDBEAC)"/>
<path id="Vector_37" opacity="0.88" d="M35.5557 59.3882C29.8932 62.922 14.7306 29.6372 9.91042 20.2296C6.54096 14.117 4.52864 9.53262 5.5114 8.91181C6.49415 8.33876 9.53603 12.2546 13.3267 18.1284C19.27 26.8197 41.1715 55.8544 35.5557 59.3404V59.3882Z" fill="var(--fill-0, #E3C3B0)"/>
<path id="Vector_38" opacity="0.9" d="M31.812 53.085C27.1322 55.9981 14.4032 28.6348 10.0041 20.1345C6.72828 14.2607 4.76276 9.72404 5.69872 9.15099C6.58788 8.62569 9.62976 12.4938 13.28 18.1766C18.615 26.1038 36.4918 50.2198 31.8588 53.085H31.812Z" fill="var(--fill-0, #E9C8B5)"/>
<path id="Vector_39" opacity="0.93" d="M28.0679 46.8288C24.4177 49.121 14.1221 27.6793 10.0507 20.0864C6.86839 14.4513 4.90288 9.96243 5.79204 9.43713C6.6344 8.95959 9.67628 12.7322 13.0925 18.2239C17.8191 25.3871 31.7181 44.5843 28.0679 46.8288Z" fill="var(--fill-0, #EECEBA)"/>
<path id="Vector_40" opacity="0.95" d="M24.2776 40.5729C21.6101 42.2443 13.7948 26.7241 10.0978 19.9908C7.00912 14.5945 5.09039 10.1534 5.88596 9.67583C6.68152 9.19828 9.67659 12.9709 12.9524 18.2716C17.0707 24.7185 26.9451 38.9015 24.2776 40.5729Z" fill="var(--fill-0, #F4D3BF)"/>
<path id="Vector_41" opacity="0.98" d="M20.5335 34.317C18.8488 35.3676 13.467 25.769 10.1443 19.943C7.14927 14.7855 5.23056 10.3921 5.97933 9.91453C6.7281 9.48474 9.67637 13.2096 12.765 18.3193C16.2749 24.0021 22.1246 33.2664 20.4867 34.317H20.5335Z" fill="var(--fill-0, #F9D9C4)"/>
<path id="Vector_42" d="M16.7895 28.0138C16.0875 28.4436 13.186 24.7665 10.2378 19.8C7.28948 14.8813 5.46435 10.5357 6.11952 10.1059C6.7747 9.72386 9.72298 13.401 12.6713 18.3197C15.5727 23.2384 17.4447 27.584 16.7895 28.0138Z" fill="var(--fill-0, #FFDEC9)"/>
</g>
</svg>
