<svg preserveAspectRatio="none" width="100%" height="100%" overflow="visible" style="display: block;" viewBox="0 0 326.51 29.3369" fill="none" xmlns="http://www.w3.org/2000/svg">
<g id="Group" style="mix-blend-mode:screen" opacity="0.2">
<path id="Vector" opacity="0" d="M326.51 13.8514C326.697 38.6836 66.6871 27.4614 22.5098 22.2084C6.83251 20.2982 0 18.006 0 16.1913C0 14.3767 6.78571 11.9412 22.4162 9.83999C66.5 3.91845 326.322 -10.9332 326.463 13.8514H326.51Z" fill="var(--fill-0, #190000)"/>
<path id="Vector_2" opacity="0.02" d="M319.35 13.9474C319.537 38.1589 65.7518 27.2709 22.5573 22.1134C7.16074 20.251 0.328244 18.0065 0.328244 16.1919C0.328244 14.3772 7.06716 12.0372 22.4637 9.98379C65.6114 4.20551 319.21 -10.2641 319.35 13.9474Z" fill="var(--fill-0, #1F0505)"/>
<path id="Vector_3" opacity="0.05" d="M312.143 13.995C312.283 37.6334 64.7687 27.0319 22.5101 22.0177C7.3476 20.203 0.608686 18.0063 0.608686 16.2394C0.608686 14.4725 7.30081 12.1326 22.4634 10.1269C64.6752 4.49186 312.049 -9.59569 312.19 14.0427L312.143 13.995Z" fill="var(--fill-0, #240B0A)"/>
<path id="Vector_4" opacity="0.07" d="M304.936 14.042C305.076 37.1074 63.7859 26.7925 22.4633 21.8738C7.53472 20.1068 0.842597 17.9579 0.842597 16.191C0.842597 14.4241 7.48792 12.1796 22.3697 10.2217C63.6455 4.72994 304.796 -8.97557 304.936 14.042Z" fill="var(--fill-0, #2A100F)"/>
<path id="Vector_5" opacity="0.1" d="M297.729 14.0903C297.87 36.5826 62.8035 26.5542 22.4169 21.7788C7.7223 20.0596 1.12378 17.9584 1.07698 16.1915C1.07698 14.4723 7.6755 12.2279 22.3233 10.3177C62.6631 4.96923 297.589 -8.35425 297.729 14.0903Z" fill="var(--fill-0, #2F1614)"/>
<path id="Vector_6" opacity="0.12" d="M290.522 14.1856C290.662 36.0571 61.8203 26.3152 22.3696 21.683C7.90901 20.0116 1.35728 17.9582 1.35728 16.239C1.35728 14.5199 7.8622 12.3232 22.3228 10.4607C61.7267 5.25551 290.429 -7.68593 290.569 14.1856H290.522Z" fill="var(--fill-0, #351B19)"/>
<path id="Vector_7" opacity="0.15" d="M283.315 14.2332C283.456 35.5317 60.8376 26.0763 22.3228 21.5874C8.14303 19.9638 1.59131 17.9103 1.59131 16.2389C1.59131 14.5675 8.04943 12.4186 22.2292 10.6039C60.6972 5.54192 283.175 -7.01747 283.315 14.2332Z" fill="var(--fill-0, #3B201D)"/>
<path id="Vector_8" opacity="0.17" d="M276.155 14.2815C276.295 35.0069 59.901 25.8381 22.3222 21.4447C8.37643 19.8688 1.9183 17.8631 1.9183 16.2394C1.9183 14.568 8.32964 12.4668 22.2754 10.6999C59.8074 5.78123 276.061 -6.44389 276.201 14.2815H276.155Z" fill="var(--fill-0, #402622)"/>
<path id="Vector_9" opacity="0.2" d="M268.948 14.3766C269.088 34.5289 58.9185 25.6466 22.2757 21.3965C8.56387 19.8683 2.15254 17.9104 2.15254 16.2867C2.15254 14.6631 8.51707 12.5619 22.1821 10.8905C58.7781 6.11505 268.808 -5.72802 268.901 14.4243L268.948 14.3766Z" fill="var(--fill-0, #462B27)"/>
<path id="Vector_10" opacity="0.22" d="M261.741 14.4246C261.882 33.9562 57.9362 25.4081 22.2294 21.2535C8.75154 19.7731 2.43383 17.8629 2.38703 16.2393C2.38703 14.6156 8.70474 12.6099 22.1358 10.9385C57.7958 6.30637 261.601 -5.15468 261.695 14.3769L261.741 14.4246Z" fill="var(--fill-0, #4B312C)"/>
<path id="Vector_11" opacity="0.24" d="M254.534 14.4721C254.675 33.4305 56.9533 25.1213 22.1824 21.1577C8.93855 19.725 2.66761 17.8626 2.66761 16.2867C2.66761 14.7108 8.93854 12.7051 22.1356 11.1292C56.8597 6.64034 254.441 -4.43868 254.534 14.5198V14.4721Z" fill="var(--fill-0, #513631)"/>
<path id="Vector_12" opacity="0.27" d="M247.327 14.5201C247.467 32.9056 55.9701 24.8828 22.1351 21.0147C9.17206 19.6299 2.90114 17.8152 2.90114 16.2393C2.90114 14.6634 9.07848 12.7532 22.0415 11.1774C55.8297 6.83171 247.187 -3.86529 247.28 14.5201H247.327Z" fill="var(--fill-0, #573C36)"/>
<path id="Vector_13" opacity="0.29" d="M240.121 14.6161C240.261 32.4284 54.9879 24.6922 22.0889 20.9674C9.35987 19.6303 3.18253 17.8634 3.13574 16.2875C3.13574 14.7593 9.26627 12.8491 21.9953 11.3688C54.8475 7.16638 239.934 -3.14857 240.074 14.6161H240.121Z" fill="var(--fill-0, #5C413B)"/>
<path id="Vector_14" opacity="0.32" d="M232.914 14.6637C233.008 31.8552 54.0053 24.4533 22.089 20.824C9.59396 19.5346 3.46342 17.7677 3.46342 16.2873C3.46342 14.7592 9.54717 12.8967 22.0422 11.4641C53.9585 7.40499 232.82 -2.52791 232.961 14.6637H232.914Z" fill="var(--fill-0, #624640)"/>
<path id="Vector_15" opacity="0.34" d="M225.753 14.711C225.847 31.3296 53.0688 24.2142 22.0886 20.7281C9.82748 19.4865 3.74374 17.7673 3.74374 16.2869C3.74374 14.8065 9.78068 12.9919 21.995 11.5592C52.9752 7.64338 225.613 -1.9075 225.753 14.711Z" fill="var(--fill-0, #684C45)"/>
<path id="Vector_16" opacity="0.37" d="M218.547 14.8065C218.64 30.852 52.0862 24.0231 22.0419 20.6803C10.0148 19.4864 4.02469 17.815 4.02469 16.3346C4.02469 14.8542 10.0148 13.0873 21.9951 11.7502C52.0394 7.97762 218.453 -1.19123 218.593 14.8065H218.547Z" fill="var(--fill-0, #6D514A)"/>
<path id="Vector_17" opacity="0.39" d="M211.34 14.8544C211.433 30.3268 51.1032 23.7367 21.9948 20.5371C10.2485 19.391 4.25837 17.7674 4.25837 16.3348C4.25837 14.9021 10.2017 13.183 21.948 11.8458C51.0564 8.21652 211.246 -0.570302 211.34 14.8544Z" fill="var(--fill-0, #73574E)"/>
<path id="Vector_18" opacity="0.41" d="M204.133 14.9021C204.227 29.7537 50.121 23.4979 21.9486 20.4416C10.4363 19.3433 4.53972 17.7674 4.49292 16.3348C4.49292 14.9021 10.3427 13.2307 21.855 11.9891C50.0274 8.50304 203.993 0.0982658 204.086 14.9499L204.133 14.9021Z" fill="var(--fill-0, #785C53)"/>
<path id="Vector_19" opacity="0.44" d="M196.926 14.9497C197.02 29.2283 49.1847 23.259 21.9015 20.2982C10.6231 19.2476 4.77338 17.7195 4.77338 16.2868C4.77338 14.902 10.5763 13.2306 21.8547 12.0367C49.0911 8.69391 196.832 0.62341 196.926 14.902V14.9497Z" fill="var(--fill-0, #7E6158)"/>
<path id="Vector_20" opacity="0.46" d="M189.719 15.0454C189.812 28.7509 48.2017 23.0682 21.8545 20.2507C10.8101 19.2478 5.00718 17.7197 5.00718 16.3826C5.00718 14.9977 10.7633 13.4218 21.8077 12.2757C48.1081 9.07615 189.625 1.3877 189.719 15.0932V15.0454Z" fill="var(--fill-0, #84675D)"/>
<path id="Vector_21" opacity="0.49" d="M182.56 15.0931C182.653 28.2255 47.2665 22.8293 21.8552 20.1073C11.0448 19.1522 5.33547 17.6718 5.33547 16.3347C5.33547 14.9976 11.0448 13.4217 21.8084 12.3233C47.1729 9.26703 182.466 1.96062 182.56 15.0931Z" fill="var(--fill-0, #896C62)"/>
<path id="Vector_22" opacity="0.51" d="M175.353 15.1411C175.446 27.6528 46.2838 22.5908 21.8084 20.0121C11.2789 19.1047 5.56952 17.6721 5.56952 16.335C5.56952 14.9979 11.2321 13.5175 21.7616 12.4191C46.1902 9.50612 175.259 2.58174 175.353 15.0934V15.1411Z" fill="var(--fill-0, #8F7267)"/>
<path id="Vector_23" opacity="0.54" d="M168.145 15.2364C168.239 27.175 45.3007 22.3518 21.7613 19.9163C11.4658 19.0567 5.85 17.6719 5.8032 16.3825C5.8032 15.0931 11.4189 13.6127 21.7145 12.6099C45.2071 9.84013 168.052 3.29777 168.145 15.2364Z" fill="var(--fill-0, #94776C)"/>
<path id="Vector_24" opacity="0.56" d="M160.939 15.2841C161.032 26.6497 44.3181 22.113 21.7146 19.8208C11.6531 19.009 6.08412 17.6719 6.08412 16.3825C6.08412 15.0931 11.6531 13.6605 21.6678 12.7054C44.2245 10.0789 160.845 3.91859 160.939 15.2841Z" fill="var(--fill-0, #9A7D71)"/>
<path id="Vector_25" opacity="0.59" d="M153.732 15.3321C153.825 26.1246 43.3354 21.8745 21.6679 19.6778C11.8403 18.9137 6.31816 17.6244 6.31816 16.3827C6.31816 15.1411 11.7935 13.7562 21.6211 12.8489C43.2418 10.3657 153.638 4.58741 153.732 15.3321Z" fill="var(--fill-0, #A08276)"/>
<path id="Vector_26" opacity="0.61" d="M146.524 15.3794C146.571 25.5511 42.352 21.6352 21.6673 19.5818C12.1205 18.8655 6.64516 17.5761 6.64516 16.3822C6.64516 15.1884 12.0737 13.8035 21.6673 12.9439C42.352 10.6039 146.524 5.20769 146.571 15.3794H146.524Z" fill="var(--fill-0, #A5877B)"/>
<path id="Vector_27" opacity="0.63" d="M139.318 15.4747C139.364 25.0733 41.3695 21.444 21.6207 19.4861C12.3079 18.8175 6.87932 17.5759 6.87932 16.3821C6.87932 15.1882 12.2611 13.8988 21.5739 13.087C41.3226 10.8903 139.271 5.87608 139.318 15.4747Z" fill="var(--fill-0, #AB8D7F)"/>
<path id="Vector_28" opacity="0.66" d="M132.158 15.5229C132.204 24.5484 40.4335 21.1579 21.6207 19.391C12.5419 18.7702 7.16015 17.5763 7.16015 16.4302C7.16015 15.2841 12.4951 13.9947 21.5739 13.2307C40.3399 11.1772 132.111 6.54505 132.158 15.5229Z" fill="var(--fill-0, #B09284)"/>
<path id="Vector_29" opacity="0.68" d="M124.951 15.5706C124.998 24.0231 39.4508 20.9191 21.574 19.2954C12.7291 18.7224 7.44096 17.5763 7.44096 16.4302C7.44096 15.2841 12.7291 14.0425 21.5272 13.3739C39.3572 11.4637 124.904 7.2136 124.951 15.6184V15.5706Z" fill="var(--fill-0, #B69889)"/>
<path id="Vector_30" opacity="0.71" d="M117.744 15.666C117.791 23.4977 38.4684 20.7279 21.5275 19.1998C12.9167 18.6745 7.6753 17.5761 7.6753 16.43C7.6753 15.3317 12.9167 14.1378 21.4807 13.4693C38.3748 11.7023 117.697 7.83424 117.744 15.666Z" fill="var(--fill-0, #BC9D8E)"/>
<path id="Vector_31" opacity="0.73" d="M110.537 15.7139C110.537 22.9726 37.4853 20.4893 21.4804 19.1045C13.1503 18.6269 7.95577 17.5763 7.95577 16.478C7.95577 15.3796 13.1035 14.2335 21.4804 13.6127C37.4385 11.9891 110.537 8.45523 110.584 15.7139H110.537Z" fill="var(--fill-0, #C1A293)"/>
<path id="Vector_32" opacity="0.76" d="M103.33 15.7617C103.33 22.4473 36.5029 20.2506 21.434 18.9612C13.3379 18.5315 8.19014 17.4809 8.19014 16.4303C8.19014 15.3797 13.2911 14.2336 21.3872 13.7083C36.4093 12.2279 103.284 9.07609 103.33 15.7617Z" fill="var(--fill-0, #C7A898)"/>
<path id="Vector_33" opacity="0.78" d="M96.1233 15.8091C96.1233 21.9217 35.5198 20.0115 21.3869 18.8654C13.5248 18.4834 8.42382 17.4806 8.42382 16.43C8.42382 15.3794 13.478 14.3288 21.3401 13.8035C35.4263 12.4664 96.0765 9.69659 96.1233 15.8091Z" fill="var(--fill-0, #CDAD9D)"/>
<path id="Vector_34" opacity="0.8" d="M88.9627 15.9047C88.9627 21.3964 34.5834 19.7728 21.3864 18.7699C13.7583 18.4357 8.75095 17.4806 8.75095 16.4777C8.75095 15.4749 13.7583 14.4243 21.3864 13.9945C34.5366 12.8007 88.9159 10.4129 88.9627 15.9047Z" fill="var(--fill-0, #D2B3A2)"/>
<path id="Vector_35" opacity="0.83" d="M81.7559 15.9526C81.7559 20.8713 33.6007 19.5342 21.3397 18.6746C13.9456 18.3881 8.98499 17.4807 8.98499 16.4779C8.98499 15.475 13.9456 14.5199 21.2929 14.0902C33.5071 13.0396 81.6623 11.0339 81.7091 15.9526H81.7559Z" fill="var(--fill-0, #D8B8A7)"/>
<path id="Vector_36" opacity="0.85" d="M74.5488 16C74.5488 20.3457 32.6178 19.295 21.2927 18.531C14.1794 18.2922 9.26562 17.4326 9.26562 16.4298C9.26562 15.4747 14.1794 14.5196 21.2927 14.1853C32.571 13.278 74.502 11.6544 74.5488 16Z" fill="var(--fill-0, #DDBEAC)"/>
<path id="Vector_37" opacity="0.88" d="M67.3421 16.0959C67.3421 19.8685 31.6353 19.1044 21.2461 18.4836C14.3668 18.2926 9.49981 17.4807 9.49981 16.5256C9.49981 15.5706 14.3668 14.6632 21.2461 14.3767C31.5885 13.6126 67.2953 12.371 67.3421 16.0959Z" fill="var(--fill-0, #E3C3B0)"/>
<path id="Vector_38" opacity="0.9" d="M60.1353 16.1431C60.1353 19.2949 30.6525 18.8651 21.1993 18.3398C14.554 18.1966 9.73382 17.3847 9.73382 16.4774C9.73382 15.5701 14.5072 14.7105 21.1525 14.424C30.5589 13.8032 60.0417 12.9436 60.0885 16.0954L60.1353 16.1431Z" fill="var(--fill-0, #E9C8B5)"/>
<path id="Vector_39" opacity="0.93" d="M52.9289 16.1912C52.9289 18.77 29.6703 18.579 21.1999 18.2447C14.7886 18.1492 10.062 17.3851 10.062 16.5255C10.062 15.6182 14.7886 14.8064 21.1999 14.6153C29.6703 14.1378 52.9289 13.6603 52.9757 16.239L52.9289 16.1912Z" fill="var(--fill-0, #EECEBA)"/>
<path id="Vector_40" opacity="0.95" d="M45.7219 16.239C45.7219 18.2447 28.6875 18.3402 21.153 18.1014C14.9757 18.1014 10.2959 17.3374 10.2959 16.4778C10.2959 15.6182 14.9757 14.8542 21.153 14.6631C28.6875 14.3289 45.722 14.2333 45.7688 16.1913L45.7219 16.239Z" fill="var(--fill-0, #F4D3BF)"/>
<path id="Vector_41" opacity="0.98" d="M38.5617 16.3346C38.5617 17.7195 27.7514 18.1493 21.1529 18.0538C15.2563 18.0538 10.5765 17.3852 10.5765 16.5257C10.5765 15.6661 15.2095 14.9497 21.1061 14.8542C27.7046 14.6632 38.5149 14.9498 38.5617 16.3346Z" fill="var(--fill-0, #F9D9C4)"/>
<path id="Vector_42" d="M31.3544 16.3823C31.3544 17.1942 26.7682 17.9105 21.1057 17.9582C15.4431 18.006 10.8569 17.3852 10.8569 16.5733C10.8569 15.7615 15.4431 15.0452 21.1057 14.9975C26.7682 14.9975 31.3544 15.5705 31.3544 16.4301V16.3823Z" fill="var(--fill-0, #FFDEC9)"/>
</g>
</svg>
