<svg preserveAspectRatio="none" width="100%" height="100%" overflow="visible" style="display: block;" viewBox="0 0 18.9595 1.69504" fill="none" xmlns="http://www.w3.org/2000/svg">
<g id="Group" style="mix-blend-mode:screen" opacity="0.2">
<path id="Vector" opacity="0" d="M18.9594 0.799737C18.9702 2.23348 3.87231 1.58651 1.3071 1.28338C0.396773 1.17315 4.04864e-05 1.04083 4.69704e-05 0.936056C5.34544e-05 0.831283 0.394086 0.69064 1.30171 0.569265C3.86152 0.227208 18.9486 -0.631249 18.9567 0.799737L18.9594 0.799737Z" fill="var(--fill-0, #190000)"/>
<path id="Vector_2" opacity="0.02" d="M18.543 0.805592C18.5538 2.20349 3.8173 1.5758 1.30916 1.27818C0.415135 1.1707 0.0184022 1.04114 0.0184087 0.936369C0.0184152 0.831595 0.40973 0.696467 1.30376 0.577851C3.80923 0.244069 18.5349 -0.592308 18.543 0.805592Z" fill="var(--fill-0, #1F0505)"/>
<path id="Vector_3" opacity="0.05" d="M18.1244 0.808805C18.1324 2.17362 3.76011 1.56245 1.30631 1.2731C0.425878 1.16838 0.0345797 1.04158 0.0345861 0.939561C0.0345924 0.837545 0.42319 0.702417 1.30364 0.586558C3.75475 0.261051 18.119 -0.55325 18.1271 0.811561L18.1244 0.808805Z" fill="var(--fill-0, #240B0A)"/>
<path id="Vector_4" opacity="0.07" d="M17.7064 0.811512C17.7145 2.14324 3.70357 1.54858 1.30411 1.26474C0.437267 1.16278 0.0486849 1.03873 0.0486912 0.936717C0.0486975 0.8347 0.434578 0.705087 1.29872 0.591987C3.69549 0.274755 17.6983 -0.517459 17.7064 0.811512Z" fill="var(--fill-0, #2A100F)"/>
<path id="Vector_5" opacity="0.1" d="M17.2887 0.814111C17.2968 2.11275 3.64725 1.53461 1.30215 1.25904C0.448885 1.15983 0.0657375 1.03854 0.0630264 0.936523C0.0630325 0.837264 0.446195 0.707651 1.29675 0.597309C3.63918 0.288353 17.2806 -0.481775 17.2887 0.814111Z" fill="var(--fill-0, #2F1614)"/>
<path id="Vector_6" opacity="0.12" d="M16.8701 0.820087C16.8781 2.08289 3.59006 1.52127 1.2993 1.25396C0.459628 1.15752 0.0791978 1.03898 0.0792039 0.939721C0.07921 0.840462 0.456937 0.713607 1.29662 0.606022C3.5847 0.305341 16.8647 -0.442711 16.8728 0.820087L16.8701 0.820087Z" fill="var(--fill-0, #351B19)"/>
<path id="Vector_7" opacity="0.15" d="M16.4526 0.823052C16.4607 2.05276 3.53403 1.50767 1.29762 1.24863C0.474253 1.15494 0.093823 1.03641 0.093829 0.939904C0.093835 0.843402 0.468845 0.719304 1.29222 0.614478C3.52595 0.322071 16.4445 -0.403902 16.4526 0.823052Z" fill="var(--fill-0, #3B201D)"/>
<path id="Vector_8" opacity="0.17" d="M16.0363 0.826156C16.0444 2.02278 3.47914 1.4942 1.29707 1.24067C0.487291 1.14973 0.112296 1.03396 0.112301 0.940211C0.112307 0.843709 0.4846 0.722368 1.29439 0.6203C3.47377 0.33617 16.031 -0.370472 16.039 0.826156L16.0363 0.826156Z" fill="var(--fill-0, #402622)"/>
<path id="Vector_9" opacity="0.2" d="M15.6183 0.831682C15.6264 1.99522 3.42254 1.48316 1.29482 1.23791C0.498627 1.14973 0.12635 1.03671 0.126355 0.942961C0.126361 0.849216 0.495936 0.727875 1.28942 0.631322C3.41445 0.355466 15.6102 -0.329099 15.6156 0.83444L15.6183 0.831682Z" fill="var(--fill-0, #462B27)"/>
<path id="Vector_10" opacity="0.22" d="M15.2003 0.834982C15.2084 1.96268 3.36594 1.46988 1.29257 1.23013C0.509956 1.14471 0.143112 1.03444 0.140401 0.940697C0.140406 0.846952 0.507264 0.731125 1.28717 0.634574C3.35785 0.366995 15.1922 -0.295476 15.1976 0.832224L15.2003 0.834982Z" fill="var(--fill-0, #4B312C)"/>
<path id="Vector_11" opacity="0.24" d="M14.7817 0.837605C14.7898 1.93221 3.30879 1.4532 1.28978 1.22449C0.520758 1.14182 0.156632 1.03431 0.156637 0.943325C0.156643 0.852338 0.520782 0.736511 1.2871 0.645474C3.30343 0.386168 14.7763 -0.254244 14.7817 0.840362L14.7817 0.837605Z" fill="var(--fill-0, #513631)"/>
<path id="Vector_12" opacity="0.27" d="M14.3631 0.841299C14.3712 1.90282 3.25157 1.44031 1.28689 1.2171C0.534172 1.13719 0.170046 1.03244 0.170052 0.941453C0.170057 0.850465 0.528762 0.740155 1.28149 0.649119C3.24348 0.39809 14.355 -0.220226 14.3604 0.841299L14.3631 0.841299Z" fill="var(--fill-0, #573C36)"/>
<path id="Vector_13" opacity="0.29" d="M13.9448 0.846932C13.9529 1.87537 3.19474 1.42939 1.28441 1.21444C0.545279 1.13729 0.186587 1.0353 0.183875 0.944308C0.183881 0.856077 0.539868 0.745766 1.27901 0.660245C3.18664 0.41749 13.934 -0.178748 13.9421 0.846933L13.9448 0.846932Z" fill="var(--fill-0, #5C413B)"/>
<path id="Vector_14" opacity="0.32" d="M13.5263 0.849724C13.5317 1.84232 3.13758 1.41561 1.28432 1.20618C0.558777 1.13178 0.202803 1.02979 0.202808 0.944313C0.202813 0.856082 0.556084 0.748528 1.28164 0.665766C3.13493 0.431286 13.5209 -0.14287 13.529 0.849724L13.5263 0.849724Z" fill="var(--fill-0, #624640)"/>
<path id="Vector_15" opacity="0.34" d="M13.111 0.852652C13.1164 1.81216 3.08368 1.40197 1.28477 1.2008C0.57281 1.12916 0.219552 1.02992 0.219557 0.944447C0.219562 0.858973 0.570115 0.754177 1.27936 0.671416C3.07831 0.445212 13.1029 -0.106858 13.111 0.852652Z" fill="var(--fill-0, #684C45)"/>
<path id="Vector_16" opacity="0.37" d="M12.6933 0.858106C12.6987 1.78453 3.02741 1.39086 1.28285 1.19796C0.584475 1.12907 0.236651 1.03259 0.236657 0.947121C0.236662 0.861647 0.584497 0.759609 1.28016 0.682363C3.02475 0.464434 12.6879 -0.0655587 12.696 0.858106L12.6933 0.858106Z" fill="var(--fill-0, #6D514A)"/>
<path id="Vector_17" opacity="0.39" d="M12.2756 0.860732C12.2809 1.75407 2.9711 1.37416 1.28088 1.18953C0.59881 1.1234 0.250986 1.02968 0.250991 0.94696C0.250996 0.864244 0.596115 0.764963 1.27819 0.687718C2.96843 0.478064 12.2702 -0.0298475 12.2756 0.860732Z" fill="var(--fill-0, #73574E)"/>
<path id="Vector_18" opacity="0.41" d="M11.8572 0.863677C11.8626 1.72117 2.9142 1.36055 1.27833 1.18419C0.609854 1.12082 0.267467 1.02985 0.264755 0.947136C0.26476 0.86442 0.604441 0.767897 1.27293 0.696166C2.90882 0.494786 11.8491 0.00894514 11.8545 0.866434L11.8572 0.863677Z" fill="var(--fill-0, #785C53)"/>
<path id="Vector_19" opacity="0.44" d="M11.4391 0.866703C11.4445 1.69111 2.8602 1.34698 1.27595 1.17613C0.621053 1.11551 0.28138 1.0273 0.281385 0.944585C0.28139 0.864625 0.618356 0.768102 1.27326 0.699131C2.85481 0.506029 11.4337 0.0395352 11.4391 0.863946L11.4391 0.866703Z" fill="var(--fill-0, #7E6158)"/>
<path id="Vector_20" opacity="0.46" d="M11.0196 0.873068C11.025 1.66439 2.80215 1.3368 1.27226 1.17422C0.630955 1.11636 0.294001 1.02815 0.294006 0.950948C0.29401 0.870989 0.628258 0.77998 1.26957 0.713767C2.79677 0.528937 11.0142 0.0845074 11.0196 0.875826L11.0196 0.873068Z" fill="var(--fill-0, #84675D)"/>
<path id="Vector_21" opacity="0.49" d="M10.6055 0.87553C10.6109 1.63377 2.74939 1.32268 1.27384 1.1656C0.646119 1.1105 0.314598 1.02504 0.314602 0.947842C0.314607 0.870639 0.646138 0.77963 1.27115 0.716176C2.744 0.539624 10.6001 0.117292 10.6055 0.87553Z" fill="var(--fill-0, #896C62)"/>
<path id="Vector_22" opacity="0.51" d="M10.1867 0.878745C10.1921 1.60114 2.69199 1.30932 1.27078 1.16052C0.659362 1.10817 0.327841 1.02547 0.327846 0.948267C0.32785 0.871064 0.656663 0.78557 1.26809 0.722117C2.6866 0.553841 10.1813 0.153592 10.1867 0.875988L10.1867 0.878745Z" fill="var(--fill-0, #8F7267)"/>
<path id="Vector_23" opacity="0.54" d="M9.76863 0.884327C9.77403 1.57363 2.63538 1.29559 1.26853 1.15506C0.670698 1.10546 0.344612 1.02553 0.341899 0.951081C0.341903 0.876636 0.667998 0.791142 1.26583 0.733203C2.62999 0.573201 9.76324 0.195022 9.76863 0.884327Z" fill="var(--fill-0, #94776C)"/>
<path id="Vector_24" opacity="0.56" d="M9.34975 0.887801C9.35515 1.54402 2.5779 1.28249 1.26539 1.15023C0.681151 1.10339 0.357783 1.02621 0.357787 0.951761C0.357791 0.877315 0.681169 0.794579 1.2627 0.739399C2.57251 0.587672 9.34436 0.23158 9.34975 0.887801Z" fill="var(--fill-0, #9A7D71)"/>
<path id="Vector_25" opacity="0.59" d="M8.93207 0.890384C8.93746 1.51352 2.52164 1.26851 1.26348 1.14176C0.692829 1.09768 0.372177 1.02325 0.372182 0.951565C0.372186 0.879877 0.690129 0.799898 1.26079 0.747475C2.51625 0.604023 8.92667 0.270008 8.93207 0.890384Z" fill="var(--fill-0, #A08276)"/>
<path id="Vector_26" opacity="0.61" d="M8.51351 0.893269C8.51619 1.48056 2.46449 1.25483 1.2634 1.13634C0.709045 1.09502 0.39111 1.02059 0.391114 0.951661C0.391118 0.88273 0.706344 0.802751 1.26342 0.753087C2.46453 0.61791 8.51354 0.305978 8.51622 0.893269L8.51351 0.893269Z" fill="var(--fill-0, #A5877B)"/>
<path id="Vector_27" opacity="0.63" d="M8.09522 0.899091C8.09791 1.4533 2.40761 1.24408 1.26086 1.1311C0.720094 1.09253 0.404875 1.02086 0.404879 0.951931C0.404883 0.883 0.717392 0.808536 1.25816 0.761631C2.40493 0.63473 8.09254 0.344885 8.09522 0.899091Z" fill="var(--fill-0, #AB8D7F)"/>
<path id="Vector_28" opacity="0.66" d="M7.67822 0.902975C7.6809 1.42409 2.35204 1.22865 1.25964 1.1267C0.732461 1.09088 0.41996 1.02197 0.419964 0.955798C0.419968 0.889624 0.729758 0.815161 1.25694 0.771013C2.34664 0.652387 7.67553 0.384614 7.67822 0.902975Z" fill="var(--fill-0, #B09284)"/>
<path id="Vector_29" opacity="0.68" d="M7.26218 0.904911C7.26487 1.39294 2.29743 1.21402 1.25938 1.12034C0.745788 1.08728 0.438722 1.02113 0.438726 0.954955C0.43873 0.888782 0.745804 0.817075 1.25668 0.778443C2.29203 0.668091 7.25949 0.422397 7.26218 0.907669L7.26218 0.904911Z" fill="var(--fill-0, #B69889)"/>
<path id="Vector_30" opacity="0.71" d="M6.8434 0.910552C6.84609 1.36274 2.24003 1.20309 1.25632 1.11491C0.756317 1.08461 0.451966 1.02121 0.45197 0.955035C0.451974 0.891618 0.756331 0.822669 1.25363 0.784039C2.23463 0.681964 6.8407 0.458362 6.8434 0.910552Z" fill="var(--fill-0, #BC9D8E)"/>
<path id="Vector_31" opacity="0.73" d="M6.42497 0.913809C6.42494 1.33291 2.18302 1.18978 1.25365 1.10987C0.769948 1.08232 0.468315 1.02168 0.468318 0.95826C0.468322 0.894843 0.767245 0.828652 1.25367 0.79278C2.18032 0.698981 6.42499 0.494704 6.42768 0.913809L6.42497 0.913809Z" fill="var(--fill-0, #C1A293)"/>
<path id="Vector_32" opacity="0.76" d="M6.00726 0.916697C6.00724 1.30272 2.12671 1.17609 1.25169 1.10169C0.781569 1.0769 0.482651 1.01626 0.482654 0.955595C0.482657 0.894935 0.778864 0.828744 1.24899 0.798388C2.1213 0.712865 6.00456 0.530676 6.00726 0.916697Z" fill="var(--fill-0, #C7A898)"/>
<path id="Vector_33" opacity="0.78" d="M5.58846 0.919717C5.58844 1.27265 2.06931 1.16254 1.24863 1.0964C0.792096 1.07437 0.495895 1.01648 0.495897 0.955818C0.4959 0.895157 0.789391 0.834481 1.24593 0.804128C2.06389 0.726882 5.58576 0.56678 5.58846 0.919717Z" fill="var(--fill-0, #CDAD9D)"/>
<path id="Vector_34" opacity="0.8" d="M5.17292 0.925324C5.17291 1.24241 2.01521 1.14883 1.24889 1.09097C0.805943 1.07169 0.515177 1.01656 0.51518 0.958654C0.515183 0.900751 0.805954 0.840076 1.2489 0.815237C2.01252 0.746265 5.17022 0.608234 5.17292 0.925324Z" fill="var(--fill-0, #D2B3A2)"/>
<path id="Vector_35" opacity="0.83" d="M4.75436 0.92897C4.75435 1.21298 1.95805 1.1359 1.24607 1.0863C0.816703 1.06978 0.528651 1.0174 0.528654 0.9595C0.528657 0.901595 0.816714 0.846435 1.24336 0.821599C1.95263 0.760903 4.74894 0.644964 4.75164 0.92897L4.75436 0.92897Z" fill="var(--fill-0, #D8B8A7)"/>
<path id="Vector_36" opacity="0.85" d="M4.33676 0.931282C4.33675 1.18221 1.90185 1.12164 1.24421 1.07755C0.831142 1.06378 0.545802 1.01416 0.545805 0.956254C0.545807 0.901106 0.83115 0.845946 1.24422 0.826627C1.89914 0.774209 4.33405 0.680358 4.33676 0.931282Z" fill="var(--fill-0, #DDBEAC)"/>
<path id="Vector_37" opacity="0.88" d="M3.91916 0.936787C3.91915 1.15462 1.84566 1.11058 1.24236 1.07476C0.842881 1.06374 0.560258 1.01687 0.56026 0.961726C0.560262 0.906577 0.842888 0.854175 1.24237 0.837616C1.84295 0.793475 3.91645 0.721706 3.91916 0.936787Z" fill="var(--fill-0, #E3C3B0)"/>
<path id="Vector_38" opacity="0.9" d="M3.50051 0.939719C3.50051 1.12172 1.7884 1.09694 1.23943 1.06661C0.85353 1.05835 0.573614 1.01148 0.573615 0.959081C0.573616 0.906687 0.850816 0.857046 1.23672 0.840493C1.78297 0.804633 3.49508 0.754962 3.49779 0.936962L3.50051 0.939719Z" fill="var(--fill-0, #E9C8B5)"/>
<path id="Vector_39" opacity="0.93" d="M3.08183 0.943134C3.08182 1.09205 1.73114 1.08103 1.23924 1.06174C0.866921 1.05623 0.592436 1.01211 0.592437 0.962472C0.592438 0.910076 0.866924 0.863192 1.23924 0.852157C1.73114 0.824573 3.08183 0.796978 3.08454 0.945891L3.08183 0.943134Z" fill="var(--fill-0, #EECEBA)"/>
<path id="Vector_40" opacity="0.95" d="M2.66405 0.945925C2.66405 1.06176 1.67473 1.06725 1.23715 1.05345C0.878388 1.05344 0.606597 1.0093 0.606595 0.959655C0.606594 0.910011 0.878383 0.865891 1.23715 0.85487C1.67473 0.835576 2.66405 0.830089 2.66677 0.943168L2.66405 0.945925Z" fill="var(--fill-0, #F4D3BF)"/>
<path id="Vector_41" opacity="0.98" d="M2.24905 0.951444C2.24906 1.03144 1.62114 1.05621 1.23786 1.05066C0.895356 1.05062 0.623524 1.01197 0.62352 0.962318C0.623515 0.912662 0.892622 0.871309 1.23513 0.865825C1.6184 0.854828 2.24633 0.871443 2.24905 0.951444Z" fill="var(--fill-0, #F9D9C4)"/>
<path id="Vector_42" d="M1.8308 0.954354C1.83081 1.00128 1.56434 1.04261 1.23533 1.04529C0.906308 1.04796 0.639821 1.01202 0.639809 0.965096C0.639798 0.918175 0.906266 0.876842 1.23528 0.874164C1.5643 0.874246 1.83079 0.907433 1.8308 0.957114L1.8308 0.954354Z" fill="var(--fill-0, #FFDEC9)"/>
</g>
</svg>
