<svg preserveAspectRatio="none" width="100%" height="100%" overflow="visible" style="display: block;" viewBox="0 0 175.523 259.148" fill="none" xmlns="http://www.w3.org/2000/svg">
<g id="Group" style="mix-blend-mode:screen" opacity="0.2">
<path id="Vector" opacity="0" d="M5.25624 257.29C-30.0294 233.174 122.766 41.4406 153.512 12.1672C164.416 1.80446 171.296 -1.29958 173.869 0.467331C176.49 2.23424 176.303 9.92269 171.062 24.1535C156.273 64.3627 40.4483 281.359 5.25624 257.29Z" fill="var(--fill-0, #190000)"/>
<path id="Vector_2" opacity="0.02" d="M8.39181 252.515C-26.0515 228.972 123.187 41.6318 153.419 12.7404C164.276 2.28216 171.155 -1.0129 173.729 0.706262C176.303 2.42542 175.975 10.2094 170.594 24.4402C155.946 63.9808 42.7415 276.01 8.39181 252.467V252.515Z" fill="var(--fill-0, #1F0505)"/>
<path id="Vector_3" opacity="0.05" d="M11.527 247.74C-22.074 224.77 123.608 41.8227 153.325 13.3133C164.135 2.75958 171.061 -0.774237 173.588 0.992675C176.116 2.71183 175.601 10.5913 170.125 24.8221C155.618 63.7419 45.0343 270.709 11.527 247.787V247.74Z" fill="var(--fill-0, #240B0A)"/>
<path id="Vector_4" opacity="0.07" d="M14.6626 242.916C-18.096 220.519 124.03 41.9659 153.231 13.7908C163.995 3.14155 170.968 -0.583297 173.448 1.13586C175.929 2.80726 175.227 10.7822 169.704 25.0131C155.291 63.3121 47.3744 265.265 14.7094 242.916H14.6626Z" fill="var(--fill-0, #2A100F)"/>
<path id="Vector_5" opacity="0.1" d="M17.7979 238.141C-14.1184 216.317 124.451 42.1569 153.138 14.3638C163.901 3.61909 170.874 -0.296775 173.261 1.37463C175.694 2.99828 174.852 11.1165 169.189 25.3473C154.916 63.0255 49.6205 259.965 17.7979 238.141Z" fill="var(--fill-0, #2F1614)"/>
<path id="Vector_6" opacity="0.12" d="M20.9338 233.366C-10.1401 212.115 124.872 42.3481 153.045 14.8893C163.761 4.04905 170.781 -0.0578213 173.121 1.61358C175.508 3.23723 174.478 11.4032 168.722 25.634C154.589 62.6437 51.914 254.569 20.9338 233.366Z" fill="var(--fill-0, #351B19)"/>
<path id="Vector_7" opacity="0.15" d="M24.069 228.542C-6.16252 207.913 125.293 42.4914 152.904 15.4147C163.574 4.47893 170.594 0.18103 172.933 1.80468C175.273 3.38057 174.103 11.6899 168.254 25.9207C154.261 62.3095 54.2069 249.22 24.069 228.542Z" fill="var(--fill-0, #3B201D)"/>
<path id="Vector_8" opacity="0.17" d="M27.2048 223.767C-2.18434 203.71 125.715 42.6826 152.811 15.9879C163.434 4.95661 170.5 0.467708 172.793 2.0436C175.086 3.57174 173.729 11.9765 167.786 26.2073C153.934 61.9753 56.5004 243.824 27.2048 223.767Z" fill="var(--fill-0, #402622)"/>
<path id="Vector_9" opacity="0.2" d="M30.3395 218.944C1.83953 199.46 126.182 42.8255 152.716 16.4651C163.293 5.33835 170.406 0.65843 172.652 2.18657C174.899 3.71471 173.401 12.215 167.317 26.4458C153.605 61.5453 58.7927 238.428 30.3395 218.944Z" fill="var(--fill-0, #462B27)"/>
<path id="Vector_10" opacity="0.22" d="M33.4749 214.168C5.81729 195.258 126.603 43.0166 152.623 17.0382C163.152 5.81596 170.312 0.945021 172.465 2.47316C174.664 3.95355 172.98 12.5493 166.849 26.7801C153.278 61.2588 61.0857 233.079 33.4749 214.168Z" fill="var(--fill-0, #4B312C)"/>
<path id="Vector_11" opacity="0.24" d="M36.6107 209.393C9.79546 191.055 127.024 43.2072 152.529 17.6109C163.059 6.29308 170.219 1.23112 172.325 2.71151C174.478 4.14414 172.606 12.8832 166.382 27.0662C152.904 60.9241 63.3792 227.73 36.6107 209.393Z" fill="var(--fill-0, #513631)"/>
<path id="Vector_12" opacity="0.27" d="M39.7457 204.569C13.7728 186.804 127.445 43.3503 152.435 18.0882C162.918 6.67494 170.125 1.42196 172.184 2.8546C174.29 4.28723 172.278 13.074 165.913 27.3048C152.576 60.4941 65.6718 222.286 39.7457 204.521V204.569Z" fill="var(--fill-0, #573C36)"/>
<path id="Vector_13" opacity="0.29" d="M42.8816 199.794C17.751 182.602 127.867 43.5416 152.342 18.6615C162.778 7.20048 169.985 1.70873 172.044 3.14136C174.103 4.52623 171.904 13.4563 165.445 27.6393C152.248 60.2078 67.9653 216.985 42.8816 199.794Z" fill="var(--fill-0, #5C413B)"/>
<path id="Vector_14" opacity="0.32" d="M46.0169 195.018C21.7287 178.4 128.288 43.6847 152.248 19.2344C162.637 7.67786 169.891 1.99509 171.904 3.37997C173.916 4.71709 171.576 13.7427 165.024 27.9735C151.968 59.9211 70.3051 211.637 46.0637 195.066L46.0169 195.018Z" fill="var(--fill-0, #624640)"/>
<path id="Vector_15" opacity="0.34" d="M49.153 190.196C25.7072 174.15 128.71 43.8284 152.155 19.7124C162.498 8.06034 169.798 2.18656 171.717 3.52368C173.682 4.8608 171.155 13.9819 164.51 28.1649C151.594 59.4918 72.552 206.193 49.153 190.148V190.196Z" fill="var(--fill-0, #684C45)"/>
<path id="Vector_16" opacity="0.37" d="M52.2882 185.42C29.6847 169.947 129.13 44.0191 152.015 20.2851C162.31 8.53755 169.658 2.47273 171.529 3.76209C173.448 5.05146 170.781 14.2681 163.995 28.4989C151.219 59.1572 74.798 200.892 52.2414 185.42H52.2882Z" fill="var(--fill-0, #6D514A)"/>
<path id="Vector_17" opacity="0.39" d="M55.4234 180.597C33.6624 165.697 129.551 44.1625 151.921 20.8106C162.216 8.96753 169.564 2.71172 171.389 4.00109C173.261 5.24271 170.406 14.5548 163.574 28.7856C150.891 58.8231 77.1377 195.496 55.4234 180.645V180.597Z" fill="var(--fill-0, #73574E)"/>
<path id="Vector_18" opacity="0.41" d="M58.5591 175.821C37.6404 161.495 129.973 44.3536 151.827 21.336C162.076 9.39736 169.424 2.95051 171.249 4.19213C173.074 5.43374 170.032 14.8414 163.106 29.0722C150.564 58.4889 79.431 190.148 58.5591 175.821Z" fill="var(--fill-0, #785C53)"/>
<path id="Vector_19" opacity="0.44" d="M61.7409 171.046C41.6646 157.293 130.44 44.5448 151.78 21.9092C161.982 9.8751 169.376 3.23725 171.155 4.4311C172.933 5.62496 169.751 15.1281 162.684 29.3589C150.283 58.107 81.7705 184.752 61.7409 171.046Z" fill="var(--fill-0, #7E6158)"/>
<path id="Vector_20" opacity="0.46" d="M64.8769 166.223C45.6429 153.043 130.862 44.6879 151.687 22.4343C161.842 10.3047 169.283 3.47587 170.968 4.66973C172.699 5.81583 169.33 15.4622 162.217 29.693C149.956 57.8203 84.064 179.451 64.8769 166.271V166.223Z" fill="var(--fill-0, #84675D)"/>
<path id="Vector_21" opacity="0.49" d="M68.012 161.447C49.6204 148.888 131.283 44.8787 151.593 22.9594C161.702 10.7343 169.189 3.7144 170.827 4.8605C172.465 6.00661 169.002 15.7007 161.748 29.9316C149.628 57.4381 86.3568 174.007 68.012 161.447Z" fill="var(--fill-0, #896C62)"/>
<path id="Vector_22" opacity="0.51" d="M71.1475 156.672C53.5982 144.685 131.704 45.0696 151.5 23.5324C161.561 11.2118 169.096 4.00085 170.687 5.0992C172.278 6.19755 168.628 16.0349 161.28 30.218C149.3 57.1037 88.65 168.658 71.1475 156.672Z" fill="var(--fill-0, #8F7267)"/>
<path id="Vector_23" opacity="0.54" d="M74.283 151.849C57.5762 140.436 132.125 45.2133 151.406 24.0104C161.468 11.5942 168.955 4.1923 170.547 5.24289C172.091 6.29349 168.253 16.2264 160.859 30.4572C149.019 56.6743 90.9899 163.214 74.3298 151.801L74.283 151.849Z" fill="var(--fill-0, #94776C)"/>
<path id="Vector_24" opacity="0.56" d="M77.4183 147.073C61.5538 136.233 132.546 45.4042 151.312 24.5833C161.327 12.0716 168.862 4.43091 170.406 5.52926C171.903 6.57986 167.926 16.6083 160.391 30.7913C148.645 56.3877 93.2828 157.914 77.4651 147.073H77.4183Z" fill="var(--fill-0, #9A7D71)"/>
<path id="Vector_25" opacity="0.59" d="M80.5537 142.298C65.5316 132.031 132.968 45.5953 151.219 25.1564C161.187 12.5493 168.768 4.71753 170.219 5.76812C171.669 6.77097 167.504 16.8949 159.876 31.1257C148.27 56.1013 95.5291 152.565 80.5537 142.346V142.298Z" fill="var(--fill-0, #A08276)"/>
<path id="Vector_26" opacity="0.61" d="M83.6894 137.474C69.5096 127.78 133.389 45.7382 151.078 25.6336C161 12.9309 168.628 4.90818 170.032 5.91102C171.436 6.86611 167.13 17.1333 159.362 31.3164C147.896 55.6233 97.7756 147.121 83.6426 137.427L83.6894 137.474Z" fill="var(--fill-0, #A5877B)"/>
<path id="Vector_27" opacity="0.63" d="M86.8245 132.699C73.4871 123.578 133.81 45.9296 150.985 26.207C160.859 13.4088 168.534 5.19509 169.891 6.19793C171.248 7.15302 166.756 17.468 158.94 31.6988C147.615 55.3849 100.115 141.82 86.8245 132.747V132.699Z" fill="var(--fill-0, #AB8D7F)"/>
<path id="Vector_28" opacity="0.66" d="M89.9606 127.876C77.4656 119.328 134.232 46.0728 150.892 26.7323C160.719 13.8386 168.441 5.43385 169.751 6.38894C171.062 7.29627 166.429 17.7545 158.473 31.9375C147.288 55.0029 102.409 136.424 89.9606 127.876Z" fill="var(--fill-0, #B09284)"/>
<path id="Vector_29" opacity="0.68" d="M93.096 123.101C81.4433 115.126 134.653 46.2637 150.798 27.2575C160.625 14.2683 168.3 5.67249 169.611 6.57983C170.874 7.43941 166.054 17.9931 158.005 32.2239C146.96 54.6685 104.702 131.075 93.096 123.101Z" fill="var(--fill-0, #B69889)"/>
<path id="Vector_30" opacity="0.71" d="M96.2312 118.326C85.4209 110.924 135.074 46.4553 150.704 27.8311C160.485 14.7464 168.207 5.9596 169.423 6.81918C170.64 7.67876 165.633 18.328 157.537 32.511C146.586 54.287 106.995 125.68 96.2312 118.326Z" fill="var(--fill-0, #BC9D8E)"/>
<path id="Vector_31" opacity="0.73" d="M99.3668 113.502C89.3988 106.673 135.542 46.5981 150.611 28.3559C160.345 15.2234 168.113 6.19786 169.283 7.05744C170.453 7.86926 165.305 18.614 157.069 32.8448C146.258 54 109.288 120.379 99.3668 113.55V113.502Z" fill="var(--fill-0, #C1A293)"/>
<path id="Vector_32" opacity="0.76" d="M102.502 108.727C93.3769 102.471 135.963 46.7891 150.517 28.8813C160.204 15.6533 168.02 6.4367 169.143 7.24853C170.266 8.0126 164.931 18.8528 156.601 33.0836C145.931 53.618 111.581 114.935 102.502 108.727Z" fill="var(--fill-0, #C7A898)"/>
<path id="Vector_33" opacity="0.78" d="M105.638 103.951C97.4016 98.2685 136.384 46.9803 150.424 29.4544C160.064 16.1309 167.926 6.72333 169.003 7.4874C170.079 8.25147 164.603 19.1872 156.18 33.3703C145.65 53.2361 113.921 109.586 105.685 103.903L105.638 103.951Z" fill="var(--fill-0, #CDAD9D)"/>
<path id="Vector_34" opacity="0.8" d="M108.773 99.1279C101.379 94.0182 136.805 47.1234 150.33 29.9796C159.923 16.5606 167.785 6.96195 168.862 7.72602C169.891 8.44234 164.229 19.4736 155.711 33.7044C145.322 52.9494 116.214 104.238 108.82 99.1757L108.773 99.1279Z" fill="var(--fill-0, #D2B3A2)"/>
<path id="Vector_35" opacity="0.83" d="M111.909 94.3527C105.357 89.8637 137.226 47.2668 150.189 30.5051C159.783 16.9906 167.645 7.20091 168.628 7.91723C169.611 8.58579 163.761 19.7603 155.15 33.9434C144.901 52.5676 118.414 98.8416 111.862 94.3527H111.909Z" fill="var(--fill-0, #D8B8A7)"/>
<path id="Vector_36" opacity="0.85" d="M115.044 89.529C109.335 85.6131 137.647 47.4097 150.096 31.0299C159.642 17.4199 167.551 7.43924 168.487 8.1078C169.423 8.77636 163.433 19.9986 154.682 34.2294C144.574 52.2328 120.707 93.4449 114.997 89.529H115.044Z" fill="var(--fill-0, #DDBEAC)"/>
<path id="Vector_37" opacity="0.88" d="M118.18 84.7534C113.313 81.4105 138.069 47.6004 150.002 31.555C159.502 17.8495 167.458 7.67779 168.347 8.29859C169.236 8.9194 163.059 20.2849 154.261 34.468C144.246 51.8028 123.047 88.0484 118.18 84.7056V84.7534Z" fill="var(--fill-0, #E3C3B0)"/>
<path id="Vector_38" opacity="0.9" d="M121.315 79.9782C117.29 77.2085 138.49 47.7918 149.908 32.1283C159.362 18.3273 167.364 7.96462 168.206 8.58542C169.049 9.15848 162.731 20.6195 153.793 34.8503C143.918 51.5644 125.339 82.748 121.315 80.026V79.9782Z" fill="var(--fill-0, #E9C8B5)"/>
<path id="Vector_39" opacity="0.93" d="M124.45 75.1552C121.268 72.9585 138.911 47.9352 149.815 32.6538C159.221 18.7573 167.223 8.2036 168.066 8.77666C168.861 9.34971 162.356 20.9063 153.324 35.0893C143.59 51.1825 127.632 77.352 124.45 75.1552Z" fill="var(--fill-0, #EECEBA)"/>
<path id="Vector_40" opacity="0.95" d="M127.586 70.3799C125.246 68.7562 139.333 48.1263 149.722 33.1792C159.081 19.1872 167.131 8.44244 167.879 8.96774C168.628 9.49303 161.983 21.1451 152.857 35.3759C143.264 50.8006 129.926 71.9558 127.586 70.3799Z" fill="var(--fill-0, #F4D3BF)"/>
<path id="Vector_41" opacity="0.98" d="M130.722 65.6037C129.224 64.5531 139.754 48.3166 149.628 33.7516C158.988 19.664 167.037 8.72826 167.739 9.25355C168.441 9.7311 161.608 21.5264 152.389 35.7095C142.936 50.5133 132.219 66.6543 130.722 65.6037Z" fill="var(--fill-0, #F9D9C4)"/>
<path id="Vector_42" d="M133.857 60.7809C133.202 60.3034 140.175 48.4603 149.534 34.2772C158.847 20.0942 166.943 8.96741 167.598 9.44495C168.253 9.9225 161.234 21.7656 151.921 35.9964C142.608 50.1794 134.512 61.3062 133.857 60.8287V60.7809Z" fill="var(--fill-0, #FFDEC9)"/>
</g>
</svg>
