<svg preserveAspectRatio="none" width="100%" height="100%" overflow="visible" style="display: block;" viewBox="0 0 10.2844 15.0995" fill="none" xmlns="http://www.w3.org/2000/svg">
<g id="Group" style="mix-blend-mode:screen" opacity="0.2">
<path id="Vector" opacity="0" d="M0.308493 14.9909C-1.75894 13.5857 7.19291 2.41479 8.99427 0.709258C9.6331 0.105504 10.0362 -0.0753358 10.187 0.0276181C10.3405 0.130572 10.3296 0.578536 10.0225 1.40768C9.15615 3.75041 2.37044 16.3933 0.308493 14.9909Z" fill="var(--fill-0, #190000)"/>
<path id="Vector_2" opacity="0.02" d="M0.491533 14.7117C-1.52655 13.3399 7.21694 2.42491 8.98813 0.741627C9.62423 0.132308 10.0273 -0.0596613 10.1781 0.0405103C10.3289 0.140682 10.3097 0.594211 9.99443 1.42335C9.1363 3.72713 2.50413 16.0807 0.491533 14.7089L0.491533 14.7117Z" fill="var(--fill-0, #1F0505)"/>
<path id="Vector_3" opacity="0.05" d="M0.674779 14.4323C-1.29395 13.0939 7.24119 2.43483 8.98223 0.773807C9.61559 0.158921 10.0214 -0.04696 10.1694 0.0559941C10.3175 0.156166 10.2874 0.615259 9.96659 1.4444C9.11669 3.71202 2.63802 15.7707 0.67478 14.4351L0.674779 14.4323Z" fill="var(--fill-0, #240B0A)"/>
<path id="Vector_4" opacity="0.07" d="M0.857859 14.1501C-1.06152 12.8451 7.26526 2.44203 8.97615 0.800477C9.60676 0.180026 10.0153 -0.0369862 10.1606 0.0631856C10.3059 0.160575 10.2648 0.625234 9.94132 1.45438C9.09689 3.68583 2.77449 15.4524 0.8606 14.1501L0.857859 14.1501Z" fill="var(--fill-0, #2A100F)"/>
<path id="Vector_5" opacity="0.1" d="M1.04087 13.8708C-0.829153 12.5992 7.28927 2.45206 8.97 0.832762C9.60062 0.206744 10.0092 -0.0213985 10.149 0.0759909C10.2916 0.170598 10.2422 0.643605 9.9105 1.47275C9.07429 3.66804 2.90541 15.1424 1.04087 13.8708Z" fill="var(--fill-0, #2F1614)"/>
<path id="Vector_6" opacity="0.12" d="M1.22405 13.5915C-0.596619 12.3532 7.31344 2.46206 8.96402 0.862239C9.59189 0.230655 10.0032 -0.00861614 10.1403 0.0887732C10.2801 0.18338 10.2198 0.65917 9.88258 1.48831C9.0546 3.64465 3.03924 14.8269 1.22405 13.5915Z" fill="var(--fill-0, #351B19)"/>
<path id="Vector_7" opacity="0.15" d="M1.4066 13.3096C-0.364717 12.1076 7.33699 2.46958 8.95467 0.892007C9.5798 0.254857 9.99108 0.0044539 10.1282 0.099061C10.2653 0.190886 10.1967 0.675024 9.85404 1.50417C9.03428 3.62434 3.17244 14.5145 1.4066 13.3096Z" fill="var(--fill-0, #3B201D)"/>
<path id="Vector_8" opacity="0.17" d="M1.59023 13.03C-0.131736 11.8613 7.36161 2.4793 8.94912 0.923981C9.57152 0.281265 9.98554 0.0197335 10.1199 0.111558C10.2543 0.200601 10.1748 0.690303 9.82656 1.51945C9.01502 3.60345 3.30672 14.1987 1.59023 13.03Z" fill="var(--fill-0, #402622)"/>
<path id="Vector_9" opacity="0.2" d="M1.7735 12.7477C0.103624 11.6125 7.38861 2.48636 8.94323 0.950519C9.56288 0.302236 9.97965 0.0295742 10.1113 0.118617C10.2429 0.207659 10.1552 0.702927 9.79873 1.53208C8.99542 3.57713 3.44063 13.883 1.7735 12.7477Z" fill="var(--fill-0, #462B27)"/>
<path id="Vector_10" opacity="0.22" d="M1.95616 12.4687C0.335636 11.3668 7.41226 2.49671 8.93672 0.98312C9.55363 0.329271 9.97314 0.0454785 10.0993 0.134521C10.2281 0.220781 10.1295 0.721614 9.77029 1.55076C8.9752 3.55965 3.57394 13.5706 1.95616 12.4687Z" fill="var(--fill-0, #4B312C)"/>
<path id="Vector_11" opacity="0.24" d="M2.13956 12.1889C0.568397 11.1204 7.43665 2.50623 8.93096 1.0149C9.54787 0.355486 9.96738 0.0605632 10.0908 0.146823C10.2169 0.230301 10.1072 0.739482 9.74259 1.56585C8.95298 3.53857 3.70799 13.2574 2.13956 12.1889Z" fill="var(--fill-0, #513631)"/>
<path id="Vector_12" opacity="0.27" d="M2.32261 11.907C0.800798 10.8719 7.46068 2.51366 8.92483 1.0418C9.539 0.376823 9.96125 0.0707709 10.0819 0.154248C10.2053 0.237726 10.0874 0.74969 9.71453 1.57884C8.93314 3.51261 3.84168 12.9393 2.32261 11.9042L2.32261 11.907Z" fill="var(--fill-0, #573C36)"/>
<path id="Vector_13" opacity="0.29" d="M2.50604 11.6275C1.03358 10.6257 7.4851 2.5235 8.91908 1.0739C9.53051 0.406136 9.95276 0.0861707 10.0734 0.169648C10.1941 0.250343 10.0652 0.770654 9.68685 1.59703C8.91368 3.49462 3.97575 12.6292 2.50604 11.6275Z" fill="var(--fill-0, #5C413B)"/>
<path id="Vector_14" opacity="0.32" d="M2.68867 11.3483C1.26556 10.38 7.50872 2.53091 8.91255 1.10635C9.52124 0.433018 9.94623 0.101922 10.0641 0.182617C10.182 0.26053 10.045 0.786406 9.66112 1.61556C8.89618 3.47699 4.11178 12.3166 2.69141 11.3511L2.68867 11.3483Z" fill="var(--fill-0, #624640)"/>
<path id="Vector_15" opacity="0.34" d="M2.87231 11.0659C1.49856 10.131 7.53335 2.53786 8.90702 1.13277C9.51297 0.453875 9.9407 0.111649 10.0531 0.189562C10.1683 0.267474 10.0202 0.798917 9.63091 1.62529C8.8742 3.45055 4.24332 11.9981 2.87231 11.0631L2.87231 11.0659Z" fill="var(--fill-0, #684C45)"/>
<path id="Vector_16" opacity="0.37" d="M3.05495 10.7868C1.73055 9.88526 7.55698 2.54811 8.89776 1.16528C9.50097 0.480812 9.93144 0.127454 10.0411 0.202584C10.1535 0.277715 9.99727 0.814724 9.59972 1.64388C8.85122 3.4302 4.37387 11.6884 3.05221 10.7868L3.05495 10.7868Z" fill="var(--fill-0, #6D514A)"/>
<path id="Vector_17" opacity="0.39" d="M3.23793 10.5047C1.96288 9.63654 7.58094 2.55537 8.89156 1.19479C9.49477 0.504761 9.92525 0.140275 10.0322 0.215405C10.1419 0.287753 9.97462 0.830327 9.57432 1.65949C8.83131 3.40963 4.51023 11.3729 3.23793 10.5075L3.23793 10.5047Z" fill="var(--fill-0, #73574E)"/>
<path id="Vector_18" opacity="0.41" d="M3.42117 10.2254C2.19547 9.39059 7.60516 2.56538 8.88562 1.22428C9.48609 0.528684 9.91657 0.153066 10.0235 0.225414C10.1304 0.297762 9.95224 0.845903 9.54645 1.67506C8.81166 3.38904 4.64411 11.0602 3.42117 10.2254Z" fill="var(--fill-0, #785C53)"/>
<path id="Vector_19" opacity="0.44" d="M3.60687 9.94606C2.43054 9.14467 7.63185 2.57544 8.88215 1.25659C9.47987 0.555429 9.91309 0.168681 10.0173 0.238247C10.1215 0.307812 9.93505 0.861516 9.52104 1.69068C8.79447 3.3657 4.78046 10.7447 3.60687 9.94606Z" fill="var(--fill-0, #7E6158)"/>
<path id="Vector_20" opacity="0.46" d="M3.78981 9.664C2.66283 8.896 7.65578 2.58273 8.87592 1.28613C9.47091 0.579403 9.90687 0.181525 10.0056 0.25109C10.107 0.317873 9.90964 0.879926 9.49288 1.70909C8.77453 3.34795 4.91405 10.4348 3.78981 9.66678L3.78981 9.664Z" fill="var(--fill-0, #84675D)"/>
<path id="Vector_21" opacity="0.49" d="M3.97285 9.38474C2.89523 8.65291 7.6798 2.59282 8.86978 1.3157C9.46203 0.603405 9.90074 0.194395 9.99671 0.261178C10.0927 0.327961 9.88979 0.892798 9.46481 1.72196C8.75469 3.32465 5.04774 10.1166 3.97285 9.38474Z" fill="var(--fill-0, #896C62)"/>
<path id="Vector_22" opacity="0.51" d="M4.15615 9.10517C3.12788 8.40673 7.70408 2.60262 8.8639 1.34776C9.45341 0.629899 9.89485 0.209758 9.98808 0.273759C10.0813 0.337759 9.86746 0.910944 9.43699 1.73733C8.73509 3.30384 5.18168 9.80361 4.15615 9.10517Z" fill="var(--fill-0, #8F7267)"/>
<path id="Vector_23" opacity="0.54" d="M4.33966 8.8228C3.36075 8.15775 7.72857 2.60962 8.85824 1.37423C9.44774 0.650803 9.88645 0.219532 9.97968 0.28075C10.0702 0.341967 9.84534 0.920717 9.41213 1.74988C8.71846 3.27745 5.31858 9.48507 4.34241 8.82002L4.33966 8.8228Z" fill="var(--fill-0, #94776C)"/>
<path id="Vector_24" opacity="0.56" d="M4.52202 8.544C3.59246 7.91234 7.75191 2.62017 8.85142 1.40704C9.43818 0.67805 9.87963 0.232866 9.97012 0.296867C10.0579 0.358085 9.82481 0.9424 9.38338 1.76879C8.69518 3.26018 5.45158 9.17565 4.52476 8.544L4.52202 8.544Z" fill="var(--fill-0, #9A7D71)"/>
<path id="Vector_25" opacity="0.59" d="M4.7053 8.2646C3.82509 7.66633 7.77618 2.63012 8.84553 1.43924C9.42956 0.704682 9.87375 0.248366 9.95875 0.309584C10.0438 0.368019 9.79974 0.957903 9.35281 1.78708C8.67284 3.2423 5.58276 8.86287 4.7053 8.26738L4.7053 8.2646Z" fill="var(--fill-0, #A08276)"/>
<path id="Vector_26" opacity="0.61" d="M4.88863 7.98198C4.05778 7.4171 7.80049 2.63687 8.83694 1.46546C9.41823 0.725334 9.86516 0.257886 9.94743 0.316322C10.0297 0.371975 9.77744 0.970207 9.32229 1.7966C8.65054 3.21288 5.714 8.54407 4.88589 7.9792L4.88863 7.98198Z" fill="var(--fill-0, #A5877B)"/>
<path id="Vector_27" opacity="0.63" d="M5.07121 7.70302C4.28971 7.17153 7.82405 2.64727 8.83035 1.49812C9.40889 0.75242 9.85857 0.273841 9.93809 0.332276C10.0176 0.38793 9.7544 0.988946 9.2965 1.81812C8.63297 3.19823 5.84996 8.23451 5.07121 7.7058L5.07121 7.70302Z" fill="var(--fill-0, #AB8D7F)"/>
<path id="Vector_28" opacity="0.66" d="M5.25499 7.42042C4.52285 6.92233 7.84881 2.65405 8.82494 1.52716C9.40074 0.775895 9.85316 0.286186 9.92994 0.341839C10.0067 0.39471 9.73527 1.00407 9.26915 1.83047C8.61385 3.1744 5.98439 7.91852 5.25499 7.42042Z" fill="var(--fill-0, #B09284)"/>
<path id="Vector_29" opacity="0.68" d="M5.438 7.14132C4.75521 6.67661 7.87279 2.6643 8.81877 1.55688C9.39457 0.800054 9.84425 0.299212 9.92103 0.352083C9.99507 0.402171 9.71265 1.0171 9.24105 1.84628C8.59397 3.15405 6.11804 7.60602 5.438 7.14132Z" fill="var(--fill-0, #B69889)"/>
<path id="Vector_30" opacity="0.71" d="M5.62109 6.86177C4.98766 6.43045 7.89687 2.67411 8.81268 1.58895C9.38575 0.82655 9.83817 0.314577 9.90947 0.364665C9.98076 0.414753 9.68738 1.03525 9.21303 1.86165C8.57143 3.13047 6.25177 7.2903 5.62109 6.86177Z" fill="var(--fill-0, #BC9D8E)"/>
<path id="Vector_31" opacity="0.73" d="M5.80396 6.57971C5.21988 6.18178 7.92346 2.68142 8.80637 1.61851C9.3767 0.853328 9.83186 0.327441 9.90042 0.377529C9.96897 0.424834 9.66736 1.0509 9.18478 1.88008C8.5514 3.11273 6.38529 6.98041 5.80396 6.58249L5.80396 6.57971Z" fill="var(--fill-0, #C1A293)"/>
<path id="Vector_32" opacity="0.76" d="M5.98712 6.30031C5.45241 5.93578 7.9476 2.6914 8.80035 1.64797C9.36794 0.877219 9.82584 0.3402 9.89166 0.387506C9.95747 0.432029 9.64489 1.06366 9.15683 1.89285C8.53167 3.08932 6.5191 6.66206 5.98712 6.30031Z" fill="var(--fill-0, #C7A898)"/>
<path id="Vector_33" opacity="0.78" d="M6.16973 6.0212C5.68712 5.69006 7.97118 2.70166 8.79377 1.68049C9.35861 0.904171 9.81927 0.356021 9.88234 0.400544C9.9454 0.445067 9.6246 1.08226 9.13105 1.90867C8.51412 3.06619 6.65509 6.34956 6.17247 6.01842L6.16973 6.0212Z" fill="var(--fill-0, #CDAD9D)"/>
<path id="Vector_34" opacity="0.8" d="M6.35273 5.73893C5.91947 5.44118 7.99515 2.70875 8.78759 1.70983C9.34969 0.927949 9.81035 0.368666 9.87342 0.413189C9.93375 0.45493 9.60197 1.09769 9.10294 1.92688C8.49422 3.04824 6.78873 6.03667 6.35547 5.74171L6.35273 5.73893Z" fill="var(--fill-0, #D2B3A2)"/>
<path id="Vector_35" opacity="0.83" d="M6.5365 5.45918C6.15259 5.19761 8.01991 2.71558 8.77944 1.73891C9.34156 0.951453 9.80222 0.381034 9.8598 0.422774C9.91739 0.461733 9.57464 1.11285 9.07012 1.93927C8.46962 3.02446 6.91766 5.72076 6.53375 5.45918L6.5365 5.45918Z" fill="var(--fill-0, #D8B8A7)"/>
<path id="Vector_36" opacity="0.85" d="M6.71936 5.17732C6.38482 4.94914 8.04375 2.7231 8.77313 1.76869C9.3325 0.97566 9.7959 0.394107 9.85075 0.433065C9.90559 0.472023 9.55462 1.12593 9.04186 1.95513C8.44959 3.00416 7.05117 5.40551 6.71662 5.17732L6.71936 5.17732Z" fill="var(--fill-0, #DDBEAC)"/>
<path id="Vector_37" opacity="0.88" d="M6.90245 4.898C6.61726 4.70321 8.0678 2.73316 8.76702 1.79822C9.32366 0.99962 9.7898 0.406935 9.84191 0.443111C9.89401 0.479286 9.53206 1.14154 9.01656 1.96796C8.42977 2.97804 7.18764 5.09001 6.90245 4.89522L6.90245 4.898Z" fill="var(--fill-0, #E3C3B0)"/>
<path id="Vector_38" opacity="0.9" d="M7.08599 4.61856C6.85016 4.45716 8.09232 2.74309 8.76138 1.8304C9.31528 1.02624 9.78417 0.422417 9.83353 0.458593C9.88289 0.491986 9.51272 1.15981 8.98899 1.98902C8.41042 2.96293 7.32183 4.77996 7.08599 4.62135L7.08599 4.61856Z" fill="var(--fill-0, #E9C8B5)"/>
<path id="Vector_39" opacity="0.93" d="M7.26888 4.33614C7.08241 4.20813 8.11617 2.75005 8.75508 1.85962C9.30623 1.04989 9.77513 0.434936 9.82449 0.468329C9.8711 0.501723 9.48996 1.17511 8.96074 2.00154C8.3904 2.93928 7.45536 4.46415 7.26888 4.33614Z" fill="var(--fill-0, #EECEBA)"/>
<path id="Vector_40" opacity="0.95" d="M7.45216 4.05698C7.31505 3.96237 8.14042 2.76027 8.74917 1.8893C9.2976 1.07399 9.76924 0.447901 9.81312 0.478512C9.85699 0.509122 9.46762 1.18809 8.9329 2.01731C8.37077 2.91611 7.58927 4.14881 7.45216 4.05698Z" fill="var(--fill-0, #F4D3BF)"/>
<path id="Vector_41" opacity="0.98" d="M7.63519 3.77759C7.54744 3.71637 8.16441 2.77027 8.743 1.92156C9.29143 1.10068 9.76307 0.463456 9.80421 0.494066C9.84534 0.521894 9.44499 1.20921 8.9048 2.03566C8.35089 2.89828 7.72294 3.83881 7.63519 3.77759Z" fill="var(--fill-0, #F9D9C4)"/>
<path id="Vector_42" d="M7.81836 3.4954C7.77997 3.46757 8.18855 2.77747 8.73698 1.95101C9.28267 1.12456 9.75707 0.476194 9.79546 0.504022C9.83385 0.53185 9.42253 1.22195 8.87684 2.05119C8.33115 2.87765 7.85676 3.52601 7.81836 3.49818L7.81836 3.4954Z" fill="var(--fill-0, #FFDEC9)"/>
</g>
</svg>
