<svg preserveAspectRatio="none" width="100%" height="100%" overflow="visible" style="display: block;" viewBox="0 0 10.395 16.726" fill="none" xmlns="http://www.w3.org/2000/svg">
<g id="Group" style="mix-blend-mode:screen" opacity="0.2">
<path id="Vector" opacity="0" d="M10.0091 16.6167C7.57882 18.1141 1.51363 3.76505 0.449281 1.35173C0.0707225 0.497189 -0.110326 0.132545 0.070708 0.0212116C0.248999 -0.0901224 0.48765 0.238337 1.06096 0.973196C2.68213 3.04416 12.4366 15.1192 10.0091 16.6167Z" fill="var(--fill-0, #190000)"/>
<path id="Vector_2" opacity="0.02" d="M9.79085 16.2484C7.4182 17.7097 1.49841 3.70577 0.453258 1.34256C0.0801855 0.501936 -0.100862 0.140077 0.0774288 0.0315268C0.250234 -0.0770238 0.488885 0.248652 1.05396 0.972376C2.63947 3.00159 12.158 14.7872 9.79085 16.2484Z" fill="var(--fill-0, #1F0505)"/>
<path id="Vector_3" opacity="0.05" d="M9.57061 15.883C7.25557 17.308 1.47842 3.64929 0.45796 1.33897C0.0903742 0.512261 -0.0879311 0.153186 0.0848742 0.0474187C0.254936 -0.0583485 0.493586 0.264543 1.04769 0.977133C2.59754 2.96181 11.8829 14.4607 9.57061 15.883Z" fill="var(--fill-0, #240B0A)"/>
<path id="Vector_4" opacity="0.07" d="M9.35259 15.5171C7.09789 16.9088 1.46338 3.59243 0.462121 1.33221C0.100022 0.519416 -0.0782829 0.163124 0.0917796 0.0601403C0.259099 -0.0428436 0.495005 0.277265 1.03814 0.97872C2.55233 2.91886 11.6018 14.1282 9.34984 15.5171L9.35259 15.5171Z" fill="var(--fill-0, #2A100F)"/>
<path id="Vector_5" opacity="0.1" d="M9.13499 15.1516C6.93789 16.5071 1.44878 3.5359 0.469467 1.32857C0.112854 0.529695 -0.0627082 0.176186 0.104611 0.0732025C0.269188 -0.0269979 0.502352 0.287544 1.03726 0.980649C2.51853 2.87903 11.3293 13.7989 9.13773 15.1516L9.13499 15.1516Z" fill="var(--fill-0, #2F1614)"/>
<path id="Vector_6" opacity="0.12" d="M8.9171 14.7834C6.7776 16.1027 1.43113 3.47659 0.476501 1.31935C0.125374 0.5344 -0.0501882 0.183675 0.114389 0.0834741C0.276222 -0.0167265 0.506644 0.297815 1.03058 0.979787C2.47619 2.83364 11.0539 13.4668 8.9171 14.7834Z" fill="var(--fill-0, #351B19)"/>
<path id="Vector_7" opacity="0.15" d="M8.69668 14.4176C6.61478 15.7008 1.4137 3.41985 0.478278 1.31551C0.129895 0.54447 -0.040181 0.196529 0.11891 0.0991114C0.275257 0.0016942 0.505678 0.313452 1.02138 0.981505C2.43133 2.79082 10.7731 13.1373 8.69668 14.4176Z" fill="var(--fill-0, #3B201D)"/>
<path id="Vector_8" opacity="0.17" d="M8.4785 14.0523C6.45696 15.2993 1.39852 3.3635 0.485042 1.31204C0.142145 0.554917 -0.0279318 0.20976 0.128416 0.112343C0.282021 0.0177088 0.509699 0.326682 1.01717 0.983601C2.39146 2.75116 10.4973 12.8054 8.4785 14.0523Z" fill="var(--fill-0, #402622)"/>
<path id="Vector_9" opacity="0.2" d="M8.26072 13.6869C6.29677 14.8977 1.38098 3.30705 0.489449 1.3057C0.152038 0.562494 -0.0152945 0.220119 0.13831 0.125485C0.289173 0.0336347 0.51685 0.337042 1.01061 0.98561C2.34924 2.70863 10.2219 12.4761 8.26072 13.6869Z" fill="var(--fill-0, #462B27)"/>
<path id="Vector_10" opacity="0.22" d="M8.04272 13.3186C6.13638 14.4931 1.36598 3.24771 0.496388 1.29924C0.164464 0.569951 -0.00286884 0.227577 0.147993 0.13851C0.296112 0.046659 0.521047 0.350066 1.00658 0.9875C2.30955 2.66877 9.94633 12.1468 8.04272 13.3214L8.04272 13.3186Z" fill="var(--fill-0, #4B312C)"/>
<path id="Vector_11" opacity="0.24" d="M7.82216 12.953C5.97341 14.0914 1.34839 3.19113 0.500742 1.29276C0.174304 0.577391 0.00971427 0.237799 0.155091 0.148732C0.297724 0.0596641 0.522659 0.360288 0.997217 0.986589C2.26453 2.62332 9.66542 11.8147 7.82216 12.9503L7.82216 12.953Z" fill="var(--fill-0, #513631)"/>
<path id="Vector_12" opacity="0.27" d="M7.60427 12.5874C5.81587 13.6896 1.33076 3.13447 0.50506 1.28899C0.184109 0.587543 0.0195188 0.250736 0.162152 0.164452C0.302042 0.0781686 0.524234 0.376008 0.990562 0.991174C2.22221 2.58337 9.38993 11.488 7.60427 12.5874Z" fill="var(--fill-0, #573C36)"/>
<path id="Vector_13" opacity="0.29" d="M7.38651 12.2192C5.65571 13.2852 1.31599 3.07521 0.512243 1.28262C0.194035 0.592306 0.0349321 0.261067 0.174822 0.177567C0.311969 0.0940664 0.531417 0.386339 0.989515 0.99037C2.18551 2.54081 9.11731 11.1531 7.38925 12.2192L7.38651 12.2192Z" fill="var(--fill-0, #5C413B)"/>
<path id="Vector_14" opacity="0.32" d="M7.16877 11.8535C5.49557 12.8833 1.29848 3.01847 0.516676 1.27598C0.203954 0.599577 0.0448514 0.27112 0.181999 0.187619C0.316404 0.104119 0.533109 0.396391 0.980236 0.989289C2.14057 2.4952 8.83648 10.8208 7.16876 11.8507L7.16877 11.8535Z" fill="var(--fill-0, #624640)"/>
<path id="Vector_15" opacity="0.34" d="M6.94756 11.4882C5.33196 12.4846 1.28027 2.96216 0.52041 1.27256C0.213175 0.610076 0.0568132 0.284402 0.188475 0.203685C0.320136 0.122968 0.536842 0.412458 0.972996 0.994222C2.10041 2.45559 8.56042 10.4945 6.94756 11.4882Z" fill="var(--fill-0, #684C45)"/>
<path id="Vector_16" opacity="0.37" d="M6.72981 11.1228C5.17455 12.083 1.2655 2.90295 0.524843 1.26623C0.223094 0.617663 0.0667327 0.294772 0.195652 0.216838C0.321827 0.138904 0.538533 0.425612 0.963715 0.996242C2.05547 2.41586 8.27958 10.1653 6.72706 11.1228L6.72981 11.1228Z" fill="var(--fill-0, #6D514A)"/>
<path id="Vector_17" opacity="0.39" d="M6.51225 10.7542C5.0146 11.6783 1.24819 2.84335 0.532224 1.25951C0.235961 0.624868 0.0823432 0.304762 0.205776 0.229612C0.329209 0.154461 0.543172 0.4356 0.960125 0.99788C2.01622 2.37296 8.00442 9.83292 6.50951 10.757L6.51225 10.7542Z" fill="var(--fill-0, #73574E)"/>
<path id="Vector_18" opacity="0.41" d="M6.29428 10.3887C4.85423 11.2765 1.23321 2.78677 0.53919 1.25305C0.248414 0.632317 0.0947958 0.314994 0.218229 0.239843C0.338919 0.164693 0.550138 0.445832 0.958862 0.996977C1.9793 2.32752 7.73433 9.50076 6.29702 10.3887L6.29428 10.3887Z" fill="var(--fill-0, #785C53)"/>
<path id="Vector_19" opacity="0.44" d="M6.07365 10.0232C4.6912 10.8749 1.21558 2.73025 0.540752 1.2494C0.252718 0.642591 0.104587 0.328051 0.222534 0.255684C0.340481 0.183316 0.548958 0.461673 0.94671 1.00168C1.93149 2.29047 7.45062 9.17424 6.07091 10.0259L6.07365 10.0232Z" fill="var(--fill-0, #7E6158)"/>
<path id="Vector_20" opacity="0.46" d="M5.85565 9.65491C4.53355 10.4704 1.19783 2.67097 0.547697 1.24302C0.26515 0.650125 0.117018 0.338368 0.232222 0.268785C0.344683 0.199201 0.55316 0.474773 0.942682 1.00087C1.8918 2.24512 7.17501 8.84217 5.85565 9.65491Z" fill="var(--fill-0, #84675D)"/>
<path id="Vector_21" opacity="0.49" d="M5.63759 9.28959C4.37308 10.0689 1.18274 2.61461 0.551811 1.23676C0.27475 0.657781 0.129361 0.348809 0.23908 0.279224C0.348798 0.212424 0.557275 0.485213 0.933082 1.00017C1.84654 2.20267 6.89661 8.51025 5.63484 9.28681L5.63759 9.28959Z" fill="var(--fill-0, #896C62)"/>
<path id="Vector_22" opacity="0.51" d="M5.41952 8.92408C4.21261 9.66724 1.16767 2.55809 0.558682 1.23312C0.287108 0.668065 0.14172 0.361876 0.251438 0.295075C0.358413 0.231058 0.564146 0.49828 0.931724 1.00489C1.80952 2.16285 6.62367 8.18092 5.41952 8.92408Z" fill="var(--fill-0, #8F7267)"/>
<path id="Vector_23" opacity="0.54" d="M5.19963 8.55832C4.05033 9.26529 1.14803 2.50129 0.563728 1.22643C0.29764 0.675292 0.154996 0.371886 0.259228 0.307869C0.363461 0.243852 0.566451 0.511073 0.925799 1.00655C1.76794 2.11997 6.34618 7.85134 5.20237 8.55832L5.19963 8.55832Z" fill="var(--fill-0, #94776C)"/>
<path id="Vector_24" opacity="0.56" d="M4.98169 8.18985C3.89274 8.86064 1.13308 2.44179 0.567979 1.21981C0.304634 0.682588 0.164732 0.381966 0.266222 0.317948C0.364969 0.256714 0.567959 0.521152 0.916336 1.00549C1.72556 2.07717 6.06791 7.51906 4.97895 8.18985L4.98169 8.18985Z" fill="var(--fill-0, #9A7D71)"/>
<path id="Vector_25" opacity="0.59" d="M4.76349 7.8246C3.73213 8.45921 1.11787 2.38552 0.574716 1.21365C0.316858 0.690345 0.176955 0.392507 0.275702 0.331273C0.371706 0.272822 0.571953 0.534477 0.9121 1.00768C1.68566 2.03482 5.7921 7.19 4.76349 7.8246Z" fill="var(--fill-0, #A08276)"/>
<path id="Vector_26" opacity="0.61" d="M4.54576 7.45867C3.57201 8.05988 1.10039 2.32856 0.579181 1.20957C0.326808 0.700181 0.189649 0.405124 0.285653 0.346674C0.378914 0.291006 0.576419 0.547095 0.905595 1.00917C1.64349 1.99177 5.51403 6.86024 4.54302 7.45867L4.54576 7.45867Z" fill="var(--fill-0, #A5877B)"/>
<path id="Vector_27" opacity="0.63" d="M4.32487 7.09099C3.40872 7.65602 1.08249 2.26986 0.583228 1.20376C0.336342 0.708293 0.199183 0.41602 0.292443 0.357569C0.382961 0.301902 0.580466 0.557991 0.898668 1.00893C1.60091 1.94978 5.23828 6.52597 4.32487 7.09099Z" fill="var(--fill-0, #AB8D7F)"/>
<path id="Vector_28" opacity="0.66" d="M4.10752 6.72496C3.25171 7.2538 1.06812 2.2128 0.590809 1.1968C0.34941 0.715249 0.214993 0.42576 0.302768 0.370092C0.390543 0.317208 0.585304 0.570514 0.895278 1.01032C1.56186 1.90663 4.96332 6.19612 4.11026 6.72217L4.10752 6.72496Z" fill="var(--fill-0, #B09284)"/>
<path id="Vector_29" opacity="0.68" d="M3.88921 6.35965C3.09101 6.8523 1.05007 2.15645 0.594696 1.19334C0.358783 0.725707 0.224366 0.439 0.309398 0.386116C0.391688 0.336015 0.58645 0.586537 0.885452 1.01521C1.51637 1.86976 4.68194 5.86977 3.88647 6.35965L3.88921 6.35965Z" fill="var(--fill-0, #B69889)"/>
<path id="Vector_30" opacity="0.71" d="M3.67102 5.99422C2.93042 6.4507 1.03487 2.10002 0.601446 1.18701C0.368277 0.733294 0.239347 0.449372 0.321636 0.399271C0.401182 0.351954 0.5932 0.596909 0.883972 1.01723C1.47923 1.82725 4.41162 5.54053 3.67376 5.99422L3.67102 5.99422Z" fill="var(--fill-0, #BC9D8E)"/>
<path id="Vector_31" opacity="0.73" d="M3.45125 5.62553C2.76825 6.04582 1.01808 2.04028 0.603856 1.18016C0.376172 0.740357 0.247241 0.456433 0.326787 0.409116C0.403591 0.361798 0.592868 0.606754 0.872669 1.01594C1.43227 1.78143 4.12877 5.20524 3.44851 5.62553L3.45125 5.62553Z" fill="var(--fill-0, #C1A293)"/>
<path id="Vector_32" opacity="0.76" d="M3.23254 5.26032C2.60989 5.64443 0.999626 1.98405 0.610093 1.17682C0.387896 0.750936 0.261708 0.469797 0.335769 0.425263C0.409829 0.380729 0.596362 0.622901 0.867933 1.02095C1.39187 1.74468 3.85246 4.879 3.23254 5.26311L3.23254 5.26032Z" fill="var(--fill-0, #C7A898)"/>
<path id="Vector_33" opacity="0.78" d="M3.01538 4.89463C2.45033 5.24255 0.985455 1.92733 0.617867 1.1702C0.401156 0.758234 0.274968 0.479879 0.346286 0.438128C0.41486 0.396378 0.604136 0.635766 0.864735 1.0199C1.35301 1.69909 3.58044 4.5467 3.01538 4.89463Z" fill="var(--fill-0, #CDAD9D)"/>
<path id="Vector_34" opacity="0.8" d="M2.79743 4.52907C2.28998 4.84081 0.970494 1.87075 0.622108 1.1665C0.410883 0.768453 0.287438 0.49288 0.356013 0.451129C0.421845 0.412161 0.608379 0.648767 0.858006 1.02177C1.31337 1.65642 3.30214 4.21733 2.79743 4.52907Z" fill="var(--fill-0, #D2B3A2)"/>
<path id="Vector_35" opacity="0.83" d="M2.57964 4.16066C2.12979 4.43622 0.952951 1.81132 0.629254 1.15718C0.423515 0.773046 0.300071 0.500257 0.365903 0.461289C0.428992 0.422322 0.612782 0.656143 0.854179 1.02079C1.27388 1.6137 3.02675 3.88511 2.58238 4.16066L2.57964 4.16066Z" fill="var(--fill-0, #D8B8A7)"/>
<path id="Vector_36" opacity="0.85" d="M2.35839 3.79548C1.96888 4.03485 0.934684 1.7551 0.630189 1.15385C0.427192 0.78363 0.309233 0.513623 0.36958 0.477438C0.429926 0.441254 0.610974 0.672294 0.841401 1.02581C1.22544 1.57418 2.74515 3.55611 2.35564 3.79826L2.35839 3.79548Z" fill="var(--fill-0, #DDBEAC)"/>
<path id="Vector_37" opacity="0.88" d="M2.14077 3.42987C1.80887 3.63584 0.920061 1.69568 0.63751 1.14731C0.44 0.791006 0.32204 0.523782 0.379643 0.487598C0.437247 0.454197 0.615553 0.682453 0.837751 1.02484C1.18613 1.53145 2.46994 3.22389 2.14077 3.42708L2.14077 3.42987Z" fill="var(--fill-0, #E3C3B0)"/>
<path id="Vector_38" opacity="0.9" d="M1.9227 3.06167C1.6484 3.23146 0.90224 1.63646 0.644378 1.14098C0.452354 0.798598 0.337137 0.534156 0.391998 0.500755C0.444115 0.470138 0.622422 0.69561 0.83639 1.02686C1.14911 1.48894 2.197 2.89467 1.92544 3.06167L1.9227 3.06167Z" fill="var(--fill-0, #E9C8B5)"/>
<path id="Vector_39" opacity="0.93" d="M1.70436 2.69644C1.4904 2.83004 0.886892 1.58021 0.648233 1.13762C0.461695 0.809151 0.346479 0.547493 0.398596 0.516876C0.447971 0.489041 0.626277 0.708947 0.82653 1.02906C1.10359 1.4466 1.91831 2.56562 1.70436 2.69644Z" fill="var(--fill-0, #EECEBA)"/>
<path id="Vector_40" opacity="0.95" d="M1.48398 2.3309C1.32763 2.42832 0.869505 1.52364 0.652789 1.13115C0.471736 0.816595 0.359261 0.557718 0.405893 0.529883C0.452525 0.502048 0.62809 0.721956 0.820115 1.03094C1.06152 1.40673 1.64034 2.23347 1.48398 2.3309Z" fill="var(--fill-0, #F4D3BF)"/>
<path id="Vector_41" opacity="0.98" d="M1.26652 1.96498C1.16777 2.02622 0.852289 1.4667 0.657516 1.1271C0.481947 0.826458 0.369472 0.57036 0.413361 0.542525C0.457252 0.517473 0.630076 0.734602 0.811132 1.03246C1.01688 1.36371 1.35978 1.90375 1.26377 1.96498L1.26652 1.96498Z" fill="var(--fill-0, #F9D9C4)"/>
<path id="Vector_42" d="M1.04832 1.59686C1.00717 1.62191 0.837086 1.40756 0.664259 1.11806C0.491431 0.831338 0.38444 0.578022 0.422845 0.55297C0.461249 0.530702 0.634075 0.745048 0.806903 1.03177C0.976987 1.31849 1.08672 1.57181 1.04832 1.59686Z" fill="var(--fill-0, #FFDEC9)"/>
</g>
</svg>
