<svg preserveAspectRatio="none" width="100%" height="100%" overflow="visible" style="display: block;" viewBox="0 0 152.69 300.931" fill="none" xmlns="http://www.w3.org/2000/svg">
<g id="Group" style="mix-blend-mode:screen" opacity="0.2">
<path id="Vector" opacity="0" d="M8.00307 1.31146C51.6188 -20.4168 132.486 234.448 146.853 277.38C151.954 292.613 154.481 299.108 151.252 300.684C148.069 302.26 144.466 296.29 135.855 282.824C111.52 244.859 -35.5191 23.0397 8.00307 1.31146Z" fill="var(--fill-0, #190000)"/>
<path id="Vector_2" opacity="0.02" d="M11.1856 7.94937C53.7718 -13.2536 132.72 235.451 146.806 277.523C151.814 292.47 154.341 298.965 151.158 300.54C148.023 302.116 144.466 296.195 135.996 282.871C112.222 245.671 -31.307 29.1046 11.1856 7.94937Z" fill="var(--fill-0, #1F0505)"/>
<path id="Vector_3" opacity="0.05" d="M14.3681 14.5394C55.8779 -6.13822 132.954 236.454 146.713 277.571C151.673 292.279 154.154 298.726 151.065 300.254C147.976 301.782 144.467 295.908 136.137 282.824C112.878 246.435 -27.0481 35.1693 14.3681 14.5394Z" fill="var(--fill-0, #240B0A)"/>
<path id="Vector_4" opacity="0.07" d="M17.55 21.1293C58.0302 0.976988 133.141 237.457 146.666 277.618C151.579 292.088 154.013 298.487 150.971 299.967C147.976 301.448 144.466 295.622 136.276 282.776C113.533 247.199 -22.8367 41.2339 17.55 21.1293Z" fill="var(--fill-0, #2A100F)"/>
<path id="Vector_5" opacity="0.1" d="M20.7319 27.7192C60.1826 8.09212 133.375 238.459 146.618 277.713C151.439 291.944 153.872 298.248 150.924 299.728C147.976 301.208 144.513 295.43 136.463 282.728C114.187 247.962 -18.6252 47.2985 20.7319 27.7192Z" fill="var(--fill-0, #2F1614)"/>
<path id="Vector_6" opacity="0.12" d="M23.8676 34.3098C62.242 15.208 133.562 239.415 146.478 277.809C151.252 291.801 153.639 298.057 150.737 299.49C147.836 300.922 144.372 295.192 136.51 282.728C114.89 248.727 -14.4131 53.4115 23.8676 34.3098Z" fill="var(--fill-0, #351B19)"/>
<path id="Vector_7" opacity="0.15" d="M27.0505 40.9C64.3953 22.3236 133.797 240.418 146.432 277.857C151.159 291.61 153.499 297.819 150.644 299.251C147.789 300.636 144.373 295.001 136.651 282.728C115.546 249.491 -10.2007 59.4765 27.0505 40.9Z" fill="var(--fill-0, #3B201D)"/>
<path id="Vector_8" opacity="0.17" d="M30.2326 47.4896C66.5478 29.4384 134.031 241.42 146.385 277.952C151.018 291.467 153.358 297.627 150.597 299.012C147.836 300.397 144.42 294.762 136.838 282.68C116.201 250.302 -5.98907 65.5407 30.2326 47.4896Z" fill="var(--fill-0, #402622)"/>
<path id="Vector_9" opacity="0.2" d="M33.4148 54.0801C68.6537 36.5543 134.264 242.423 146.292 278C150.878 291.276 153.171 297.389 150.457 298.726C147.742 300.063 144.373 294.476 136.932 282.633C116.902 251.067 -1.73052 71.606 33.4148 54.0801Z" fill="var(--fill-0, #462B27)"/>
<path id="Vector_10" opacity="0.22" d="M36.5968 60.6701C70.8061 43.6218 134.498 243.426 146.244 278.096C150.737 291.085 153.077 297.198 150.363 298.487C147.695 299.824 144.373 294.284 137.072 282.632C117.557 251.831 2.48103 77.6706 36.5968 60.6701Z" fill="var(--fill-0, #4B312C)"/>
<path id="Vector_11" opacity="0.24" d="M39.7793 67.2602C72.9591 50.7372 134.686 244.381 146.198 278.144C150.644 290.894 152.937 296.911 150.316 298.2C147.742 299.49 144.373 293.998 137.259 282.537C118.213 252.595 6.69309 83.7833 39.7793 67.2602Z" fill="var(--fill-0, #513631)"/>
<path id="Vector_12" opacity="0.27" d="M42.9614 73.85C75.0648 57.8523 134.919 245.384 146.104 278.239C150.503 290.75 152.75 296.72 150.176 298.009C147.649 299.251 144.326 293.854 137.353 282.584C118.868 253.406 10.9048 89.8477 42.9146 73.8977L42.9614 73.85Z" fill="var(--fill-0, #573C36)"/>
<path id="Vector_13" opacity="0.29" d="M46.0969 80.4882C77.1708 65.0158 135.107 246.435 146.011 278.335C150.316 290.608 152.562 296.529 150.082 297.771C147.602 299.012 144.326 293.616 137.493 282.537C119.57 254.171 15.1166 95.9129 46.0969 80.4882Z" fill="var(--fill-0, #5C413B)"/>
<path id="Vector_14" opacity="0.32" d="M49.2794 87.0782C79.3237 72.1311 135.341 247.437 145.917 278.382C150.176 290.416 152.375 296.29 149.942 297.484C147.508 298.678 144.279 293.329 137.587 282.489C120.178 254.887 19.2819 101.978 49.2326 87.0305L49.2794 87.0782Z" fill="var(--fill-0, #624640)"/>
<path id="Vector_15" opacity="0.34" d="M52.461 93.6678C81.429 79.246 135.574 248.392 145.87 278.477C150.082 290.273 152.234 296.099 149.848 297.245C147.508 298.391 144.279 293.138 137.727 282.489C120.833 255.698 23.5399 108.09 52.4142 93.6678H52.461Z" fill="var(--fill-0, #684C45)"/>
<path id="Vector_16" opacity="0.37" d="M55.6436 100.258C83.582 86.3619 135.809 249.395 145.823 278.525C149.942 290.082 152.094 295.86 149.801 297.006C147.508 298.153 144.279 292.9 137.915 282.441C121.582 256.463 27.7988 114.107 55.6436 100.258Z" fill="var(--fill-0, #6D514A)"/>
<path id="Vector_17" opacity="0.39" d="M58.8261 106.848C85.6882 93.4772 136.043 250.398 145.73 278.621C149.801 289.939 151.907 295.669 149.661 296.768C147.415 297.866 144.232 292.709 138.008 282.441C122.191 257.275 31.9641 120.22 58.7793 106.848H58.8261Z" fill="var(--fill-0, #73574E)"/>
<path id="Vector_18" opacity="0.41" d="M62.0086 113.439C87.8411 100.593 136.23 251.401 145.683 278.669C149.708 289.7 151.767 295.383 149.614 296.481C147.462 297.532 144.28 292.422 138.196 282.394C122.94 257.991 36.2697 126.285 62.0086 113.439Z" fill="var(--fill-0, #785C53)"/>
<path id="Vector_19" opacity="0.44" d="M65.1434 120.029C89.9464 107.708 136.417 252.356 145.589 278.764C149.52 289.557 151.579 295.192 149.473 296.243C147.367 297.293 144.232 292.183 138.289 282.346C123.547 258.755 40.4341 132.349 65.1434 120.029Z" fill="var(--fill-0, #7E6158)"/>
<path id="Vector_20" opacity="0.46" d="M68.326 126.619C92.0526 114.776 136.651 253.359 145.496 278.812C149.38 289.366 151.392 294.953 149.333 295.956C147.274 296.959 144.186 291.944 138.383 282.298C124.156 259.519 44.5995 138.366 68.2792 126.571L68.326 126.619Z" fill="var(--fill-0, #84675D)"/>
<path id="Vector_21" opacity="0.49" d="M71.5084 133.209C94.2054 121.891 136.885 254.362 145.449 278.907C149.24 289.222 151.252 294.762 149.287 295.765C147.321 296.768 144.186 291.753 138.57 282.346C124.905 260.379 48.8582 144.527 71.5084 133.257L71.5084 133.209Z" fill="var(--fill-0, #896C62)"/>
<path id="Vector_22" opacity="0.51" d="M74.6901 139.799C96.3576 129.007 137.119 255.365 145.402 278.955C149.146 289.031 151.111 294.523 149.193 295.478C147.274 296.433 144.185 291.515 138.71 282.25C125.56 261.047 53.1163 150.544 74.6901 139.799Z" fill="var(--fill-0, #8F7267)"/>
<path id="Vector_23" opacity="0.54" d="M77.8725 146.389C98.4636 136.122 137.353 256.319 145.308 279.05C149.005 288.888 150.971 294.332 149.052 295.239C147.18 296.147 144.138 291.276 138.804 282.25C126.215 261.859 57.2814 156.656 77.8257 146.389H77.8725Z" fill="var(--fill-0, #94776C)"/>
<path id="Vector_24" opacity="0.56" d="M81.0554 153.027C100.617 143.285 137.541 257.37 145.262 279.146C148.866 288.745 150.831 294.094 149.006 295.001C147.181 295.908 144.186 291.037 138.991 282.251C126.917 262.671 61.5406 162.721 81.0554 153.027Z" fill="var(--fill-0, #9A7D71)"/>
<path id="Vector_25" opacity="0.59" d="M84.2373 159.617C102.769 150.401 137.774 258.373 145.215 279.242C148.772 288.602 150.69 293.903 148.912 294.762C147.181 295.622 144.186 290.846 139.131 282.203C127.572 263.435 65.7989 168.786 84.2373 159.617Z" fill="var(--fill-0, #A08276)"/>
<path id="Vector_26" opacity="0.61" d="M87.3728 166.207C104.828 157.516 137.961 259.376 145.075 279.289C148.585 288.363 150.456 293.663 148.772 294.523C147.087 295.335 144.139 290.607 139.225 282.202C128.227 264.199 69.9639 174.898 87.3728 166.207Z" fill="var(--fill-0, #A5877B)"/>
<path id="Vector_27" opacity="0.63" d="M90.5548 172.797C106.981 164.631 138.195 260.331 145.028 279.385C148.444 288.22 150.316 293.473 148.678 294.284C147.04 295.096 144.092 290.416 139.365 282.203C128.882 265.011 74.1755 181.011 90.5548 172.845L90.5548 172.797Z" fill="var(--fill-0, #AB8D7F)"/>
<path id="Vector_28" opacity="0.66" d="M93.737 179.387C109.134 171.747 138.429 261.334 144.981 279.433C148.35 288.028 150.175 293.234 148.584 293.998C147.04 294.762 144.092 290.13 139.505 282.107C129.584 265.727 78.3873 186.98 93.737 179.387Z" fill="var(--fill-0, #B09284)"/>
<path id="Vector_29" opacity="0.68" d="M96.9195 185.977C111.24 178.862 138.663 262.337 144.887 279.528C148.21 287.885 149.988 293.043 148.491 293.759C146.993 294.475 144.092 289.891 139.646 282.107C130.24 266.539 82.6461 193.093 96.9195 185.977Z" fill="var(--fill-0, #B69889)"/>
<path id="Vector_30" opacity="0.71" d="M100.102 192.567C113.393 185.977 138.851 263.339 144.841 279.576C148.07 287.694 149.848 292.804 148.397 293.52C146.947 294.236 144.092 289.7 139.787 282.059C130.895 267.255 86.8581 199.157 100.102 192.567Z" fill="var(--fill-0, #BC9D8E)"/>
<path id="Vector_31" opacity="0.73" d="M103.284 199.158C115.498 193.045 139.084 264.295 144.794 279.671C147.976 287.551 149.708 292.565 148.304 293.281C146.9 293.95 144.092 289.461 139.927 282.059C131.597 268.067 91.0697 205.27 103.284 199.205L103.284 199.158Z" fill="var(--fill-0, #C1A293)"/>
<path id="Vector_32" opacity="0.76" d="M106.467 205.748C117.651 200.161 139.319 265.298 144.701 279.719C147.789 287.36 149.521 292.327 148.21 292.995C146.9 293.616 144.045 289.223 140.068 282.012C132.252 268.831 95.3287 211.335 106.467 205.748Z" fill="var(--fill-0, #C7A898)"/>
<path id="Vector_33" opacity="0.78" d="M109.602 212.338C119.757 207.276 139.506 266.3 144.607 279.815C147.649 287.217 149.333 292.136 148.07 292.756C146.806 293.377 143.998 288.984 140.161 281.964C132.907 269.596 99.4935 217.352 109.602 212.338Z" fill="var(--fill-0, #CDAD9D)"/>
<path id="Vector_34" opacity="0.8" d="M112.784 218.928C121.863 214.391 139.74 267.303 144.513 279.862C147.508 286.978 149.146 291.897 147.976 292.47C146.759 293.043 143.998 288.697 140.301 281.916C133.562 270.312 103.705 223.417 112.784 218.928Z" fill="var(--fill-0, #D2B3A2)"/>
<path id="Vector_35" opacity="0.83" d="M115.966 225.566C124.015 221.555 139.974 268.306 144.466 280.006C147.368 286.883 149.006 291.754 147.882 292.327C146.759 292.9 143.998 288.602 140.442 282.012C134.217 271.219 107.917 229.625 115.966 225.614L115.966 225.566Z" fill="var(--fill-0, #D8B8A7)"/>
<path id="Vector_36" opacity="0.85" d="M119.149 232.156C126.169 228.67 140.208 269.309 144.42 280.054C147.275 286.692 148.866 291.515 147.789 292.04C146.713 292.565 143.999 288.315 140.582 281.916C134.92 271.936 112.176 235.642 119.149 232.156Z" fill="var(--fill-0, #DDBEAC)"/>
<path id="Vector_37" opacity="0.88" d="M122.33 238.746C128.274 235.785 140.394 270.312 144.325 280.101C147.133 286.5 148.724 291.276 147.695 291.753C146.665 292.231 143.951 288.076 140.722 281.868C135.574 272.699 116.387 241.659 122.33 238.746Z" fill="var(--fill-0, #E3C3B0)"/>
<path id="Vector_38" opacity="0.9" d="M125.513 245.337C130.427 242.901 140.629 271.315 144.279 280.197C146.993 286.358 148.585 291.038 147.602 291.515C146.666 291.993 143.952 287.838 140.863 281.869C136.277 273.464 120.599 247.772 125.513 245.337Z" fill="var(--fill-0, #E9C8B5)"/>
<path id="Vector_39" opacity="0.93" d="M128.649 251.926C132.533 250.016 140.816 272.27 144.186 280.245C146.853 286.166 148.398 290.798 147.508 291.228C146.619 291.658 143.952 287.551 141.003 281.773C136.932 274.18 124.858 253.789 128.649 251.879L128.649 251.926Z" fill="var(--fill-0, #EECEBA)"/>
<path id="Vector_40" opacity="0.95" d="M131.831 258.516C134.639 257.131 141.05 273.272 144.092 280.34C146.713 286.023 148.21 290.607 147.368 291.037C146.526 291.419 143.905 287.408 141.097 281.82C137.54 275.039 129.023 259.949 131.784 258.564L131.831 258.516Z" fill="var(--fill-0, #F4D3BF)"/>
<path id="Vector_41" opacity="0.98" d="M135.013 265.106C136.792 264.199 141.284 274.275 144.045 280.388C146.572 285.832 148.07 290.368 147.274 290.751C146.479 291.133 143.905 287.121 141.237 281.773C138.242 275.803 133.235 265.966 134.966 265.106H135.013Z" fill="var(--fill-0, #F9D9C4)"/>
<path id="Vector_42" d="M138.195 271.696C138.944 271.314 141.518 275.278 143.998 280.483C146.478 285.641 147.929 290.177 147.227 290.512C146.525 290.846 143.905 286.93 141.424 281.725C138.944 276.52 137.493 272.031 138.195 271.696Z" fill="var(--fill-0, #FFDEC9)"/>
</g>
</svg>
