<svg preserveAspectRatio="none" width="100%" height="100%" overflow="visible" style="display: block;" viewBox="0 0 8.95744 17.555" fill="none" xmlns="http://www.w3.org/2000/svg">
<g id="Group" style="mix-blend-mode:screen" opacity="0.2">
<path id="Vector" opacity="0" d="M0.469481 0.07651C3.02808 -1.19098 7.77214 13.6767 8.61498 16.1811C8.91423 17.0698 9.06248 17.4486 8.87305 17.5406C8.68637 17.6325 8.47498 17.2843 7.96984 16.4987C6.54226 14.284 -2.08362 1.344 0.469481 0.07651Z" fill="var(--fill-0, #190000)"/>
<path id="Vector_2" opacity="0.02" d="M0.654523 0.464673C3.15273 -0.772172 7.78423 13.7361 8.61059 16.1904C8.90435 17.0624 9.0526 17.4412 8.86592 17.5332C8.68199 17.6251 8.47334 17.2796 7.97644 16.5024C6.5818 14.3323 -1.83819 1.69873 0.654523 0.464673Z" fill="var(--fill-0, #1F0505)"/>
<path id="Vector_3" opacity="0.05" d="M0.840081 0.849802C3.27514 -0.356402 7.79683 13.7953 8.60398 16.1939C8.89499 17.0519 9.0405 17.428 8.85931 17.5171C8.67812 17.6063 8.47222 17.2636 7.98355 16.5003C6.61911 14.3776 -1.58949 2.05322 0.840081 0.849802Z" fill="var(--fill-0, #240B0A)"/>
<path id="Vector_4" opacity="0.07" d="M1.02558 1.23493C3.40024 0.0593678 7.80662 13.8545 8.60004 16.1974C8.88831 17.0415 9.03107 17.4147 8.85263 17.5011C8.67693 17.5875 8.47103 17.2476 7.99059 16.4982C6.65635 14.4228 -1.34359 2.4077 1.02558 1.23493Z" fill="var(--fill-0, #2A100F)"/>
<path id="Vector_5" opacity="0.1" d="M1.21027 1.62038C3.52453 0.475463 7.81835 13.914 8.5953 16.2039C8.87807 17.0341 9.02083 17.4018 8.84788 17.4882C8.67493 17.5745 8.47177 17.2375 7.99957 16.4964C6.69279 14.4684 -1.09851 2.76251 1.21027 1.62038Z" fill="var(--fill-0, #2F1614)"/>
<path id="Vector_6" opacity="0.12" d="M1.3925 2.0058C3.64363 0.891527 7.82763 13.9708 8.58536 16.2105C8.86539 17.0268 9.00541 17.3917 8.8352 17.4753C8.66499 17.5588 8.46184 17.2245 8.00062 16.4975C6.73227 14.514 -0.85314 3.12008 1.3925 2.0058Z" fill="var(--fill-0, #351B19)"/>
<path id="Vector_7" opacity="0.15" d="M1.57789 2.39101C3.76863 1.30738 7.84007 14.03 8.58133 16.2141C8.85861 17.0164 8.99588 17.3785 8.82842 17.4621C8.66096 17.5429 8.46055 17.2142 8.00756 16.4982C6.76941 14.5593 -0.607352 3.47464 1.57789 2.39101Z" fill="var(--fill-0, #3B201D)"/>
<path id="Vector_8" opacity="0.17" d="M1.76343 2.77595C3.89377 1.72296 7.85265 14.089 8.57744 16.2201C8.84923 17.0085 8.9865 17.3679 8.82453 17.4487C8.66256 17.5295 8.46215 17.2007 8.0174 16.4959C6.8067 14.6072 -0.361412 3.82894 1.76343 2.77595Z" fill="var(--fill-0, #402622)"/>
<path id="Vector_9" opacity="0.2" d="M1.94828 3.16155C4.01548 2.1392 7.86455 14.1487 8.57012 16.2241C8.83916 16.9986 8.97369 17.3551 8.81446 17.4331C8.65524 17.5111 8.45757 17.1852 8.02106 16.4943C6.84605 14.6529 -0.113426 4.1839 1.94828 3.16155Z" fill="var(--fill-0, #462B27)"/>
<path id="Vector_10" opacity="0.22" d="M2.13354 3.54678C4.14034 2.55228 7.87685 14.208 8.56594 16.2305C8.8295 16.9882 8.96677 17.3448 8.80754 17.42C8.65106 17.498 8.45614 17.1748 8.02787 16.4951C6.88305 14.6983 0.132228 4.53848 2.13354 3.54678Z" fill="var(--fill-0, #4B312C)"/>
<path id="Vector_11" opacity="0.24" d="M2.31919 3.93197C4.26559 2.96812 7.88678 14.2644 8.56215 16.234C8.82297 16.9778 8.95749 17.3288 8.80375 17.404C8.65276 17.4792 8.4551 17.1589 8.0378 16.4903C6.92045 14.7436 0.378277 4.89582 2.31919 3.93197Z" fill="var(--fill-0, #513631)"/>
<path id="Vector_12" opacity="0.27" d="M2.50416 4.3169C4.38742 3.3837 7.8988 14.3235 8.55495 16.2401C8.81302 16.9699 8.9448 17.3182 8.79381 17.3934C8.64557 17.4658 8.45064 17.151 8.04159 16.4936C6.95717 14.7914 0.623642 5.25011 2.50141 4.31969L2.50416 4.3169Z" fill="var(--fill-0, #573C36)"/>
<path id="Vector_13" opacity="0.29" d="M2.68628 4.70522C4.50915 3.80266 7.90797 14.3858 8.54765 16.2467C8.80022 16.9627 8.932 17.3081 8.7865 17.3806C8.641 17.453 8.44883 17.1382 8.04801 16.4919C6.99653 14.8371 0.868901 5.605 2.68628 4.70522Z" fill="var(--fill-0, #5C413B)"/>
<path id="Vector_14" opacity="0.32" d="M2.87131 5.09064C4.63378 4.21872 7.92003 14.4453 8.54049 16.2505C8.79032 16.9525 8.91936 17.2952 8.7766 17.3648C8.63385 17.4345 8.44442 17.1224 8.05183 16.4901C7.03056 14.8799 1.11158 5.95978 2.86856 5.08786L2.87131 5.09064Z" fill="var(--fill-0, #624640)"/>
<path id="Vector_15" opacity="0.34" d="M3.05701 5.476C4.75634 4.63472 7.93278 14.502 8.53677 16.257C8.78386 16.9451 8.91014 17.285 8.77013 17.3518C8.63287 17.4187 8.44344 17.1122 8.05909 16.491C7.06802 14.9282 1.36043 6.31728 3.05427 5.476L3.05701 5.476Z" fill="var(--fill-0, #684C45)"/>
<path id="Vector_16" opacity="0.37" d="M3.24193 5.86116C4.88087 5.05052 7.94475 14.5612 8.53226 16.2605C8.77386 16.9347 8.90015 17.2718 8.76563 17.3386C8.63111 17.4055 8.44168 17.099 8.06831 16.4889C7.11018 14.9735 1.60848 6.66901 3.24193 5.86116Z" fill="var(--fill-0, #6D514A)"/>
<path id="Vector_17" opacity="0.39" d="M3.4272 6.24642C5.003 5.46643 7.95706 14.6205 8.52536 16.2669C8.76421 16.9271 8.88775 17.2614 8.75598 17.3255C8.6242 17.3896 8.43752 17.0887 8.07238 16.4898C7.14445 15.0217 1.8514 7.02642 3.42445 6.24642L3.4272 6.24642Z" fill="var(--fill-0, #73574E)"/>
<path id="Vector_18" opacity="0.41" d="M3.61249 6.63165C5.12789 5.8823 7.96665 14.6798 8.52122 16.2705C8.75732 16.914 8.87812 17.2455 8.75184 17.3096C8.62555 17.3709 8.43887 17.0728 8.08197 16.4878C7.18699 15.0642 2.10258 7.381 3.61249 6.63165Z" fill="var(--fill-0, #785C53)"/>
<path id="Vector_19" opacity="0.44" d="M3.79469 7.01715C5.24969 6.29843 7.97589 14.7366 8.51399 16.2771C8.7446 16.9067 8.8654 17.2354 8.74186 17.2967C8.61832 17.358 8.43438 17.0599 8.08572 16.4861C7.22093 15.1099 2.34517 7.73586 3.79469 7.01715Z" fill="var(--fill-0, #7E6158)"/>
<path id="Vector_20" opacity="0.46" d="M3.98028 7.40219C5.37214 6.71133 7.98852 14.7957 8.5074 16.2805C8.73527 16.8962 8.85332 17.2221 8.73253 17.2806C8.61174 17.3391 8.43054 17.0466 8.09012 16.4839C7.25553 15.155 2.58842 8.08747 3.97753 7.3994L3.98028 7.40219Z" fill="var(--fill-0, #84675D)"/>
<path id="Vector_21" opacity="0.49" d="M4.16545 7.78752C5.49692 7.12731 8.00074 14.8551 8.50315 16.287C8.72553 16.8887 8.84358 17.2119 8.72828 17.2704C8.61298 17.3289 8.42904 17.0364 8.09959 16.4876C7.29795 15.2061 2.83672 8.44774 4.16545 7.79031L4.16545 7.78752Z" fill="var(--fill-0, #896C62)"/>
<path id="Vector_22" opacity="0.51" d="M4.3503 8.17289C5.62137 7.54332 8.01263 14.9145 8.49857 16.2907C8.7182 16.8785 8.83351 17.1989 8.72095 17.2546C8.60839 17.3103 8.4272 17.0234 8.10599 16.4829C7.33454 15.246 3.08471 8.79967 4.3503 8.17289Z" fill="var(--fill-0, #8F7267)"/>
<path id="Vector_23" opacity="0.54" d="M4.5361 8.55789C5.74403 7.95896 8.02547 14.9708 8.49219 16.2968C8.70907 16.8707 8.82438 17.1883 8.71182 17.2412C8.60201 17.2941 8.42356 17.01 8.11059 16.4835C7.37209 15.2939 3.32817 9.15682 4.53335 8.55789L4.5361 8.55789Z" fill="var(--fill-0, #94776C)"/>
<path id="Vector_24" opacity="0.56" d="M4.72066 8.94635C5.8682 8.37806 8.03433 15.0333 8.48733 16.3036C8.69872 16.8636 8.81403 17.1756 8.70696 17.2285C8.59989 17.2815 8.42419 16.9973 8.11945 16.4847C7.41115 15.3425 3.57587 9.51185 4.72066 8.94635Z" fill="var(--fill-0, #9A7D71)"/>
<path id="Vector_25" opacity="0.59" d="M4.90631 9.33115C5.99345 8.7935 8.04702 15.0922 8.48354 16.3096C8.69219 16.8556 8.80476 17.1648 8.70043 17.215C8.59886 17.2651 8.42315 16.9865 8.12665 16.4823C7.44855 15.3875 3.82466 9.866 4.90631 9.33115Z" fill="var(--fill-0, #A08276)"/>
<path id="Vector_26" opacity="0.61" d="M5.08848 9.71657C6.11248 9.20957 8.05623 15.1517 8.47354 16.3134C8.67944 16.8427 8.78926 17.1519 8.69043 17.202C8.5916 17.2494 8.41864 16.9736 8.13037 16.4833C7.48521 15.433 4.06722 10.2236 5.08848 9.71657Z" fill="var(--fill-0, #A5877B)"/>
<path id="Vector_27" opacity="0.63" d="M5.27384 10.102C6.23745 9.62562 8.06864 15.2084 8.46947 16.3199C8.66989 16.8353 8.77971 17.1417 8.68362 17.1891C8.58753 17.2364 8.41457 16.9634 8.13729 16.4843C7.52233 15.4814 4.31298 10.5811 5.27384 10.1048L5.27384 10.102Z" fill="var(--fill-0, #AB8D7F)"/>
<path id="Vector_28" opacity="0.66" d="M5.45945 10.487C6.36266 10.0413 8.08129 15.2674 8.46565 16.3233C8.66332 16.8247 8.77039 17.1283 8.67705 17.1729C8.58645 17.2175 8.41349 16.9473 8.14445 16.4793C7.56243 15.5237 4.55899 10.9299 5.45945 10.487Z" fill="var(--fill-0, #B09284)"/>
<path id="Vector_29" opacity="0.68" d="M5.64421 10.8724C6.48428 10.4573 8.0931 15.3269 8.45824 16.3298C8.65316 16.8173 8.75749 17.1182 8.66964 17.16C8.58179 17.2018 8.41158 16.9343 8.15076 16.4802C7.59894 15.5721 4.80689 11.2875 5.64421 10.8724Z" fill="var(--fill-0, #B69889)"/>
<path id="Vector_30" opacity="0.71" d="M5.82893 11.258C6.60861 10.8736 8.10212 15.3866 8.45353 16.3338C8.64297 16.8073 8.74729 17.1054 8.66219 17.1472C8.57708 17.189 8.40961 16.9243 8.15704 16.4786C7.63541 15.615 5.05201 11.6424 5.82893 11.258Z" fill="var(--fill-0, #BC9D8E)"/>
<path id="Vector_31" opacity="0.73" d="M6.01418 11.6432C6.73071 11.2866 8.1144 15.443 8.44934 16.3401C8.63603 16.7997 8.73761 17.0922 8.65525 17.134C8.57289 17.173 8.40817 16.9112 8.16383 16.4794C7.67515 15.6631 5.29765 11.9998 6.01418 11.646L6.01418 11.6432Z" fill="var(--fill-0, #C1A293)"/>
<path id="Vector_32" opacity="0.76" d="M6.19994 12.0283C6.85607 11.7024 8.12721 15.5022 8.44293 16.3436C8.62413 16.7893 8.72571 17.079 8.64884 17.118C8.57197 17.1542 8.4045 16.8979 8.17114 16.4773C7.71266 15.7084 5.54655 12.3542 6.19994 12.0283Z" fill="var(--fill-0, #C7A898)"/>
<path id="Vector_33" opacity="0.78" d="M6.38231 12.4135C6.97805 12.1182 8.13663 15.5615 8.43588 16.3499C8.61433 16.7817 8.71317 17.0686 8.63904 17.1049C8.56492 17.1411 8.4002 16.8848 8.17507 16.4753C7.74954 15.7537 5.78932 12.706 6.38231 12.4135Z" fill="var(--fill-0, #CDAD9D)"/>
<path id="Vector_34" opacity="0.8" d="M6.56763 12.7988C7.10023 12.5342 8.14899 15.6209 8.42902 16.3536C8.60473 16.7687 8.70082 17.0556 8.63218 17.089C8.5608 17.1225 8.39882 16.8689 8.18194 16.4734C7.7866 15.7964 6.03503 13.0607 6.56763 12.7988Z" fill="var(--fill-0, #D2B3A2)"/>
<path id="Vector_35" opacity="0.83" d="M6.75249 13.1869C7.2247 12.9529 8.1609 15.6802 8.42446 16.3627C8.59468 16.7639 8.69077 17.048 8.62488 17.0815C8.55899 17.1149 8.39701 16.8642 8.18836 16.4797C7.82322 15.8501 6.28029 13.4237 6.75249 13.1896L6.75249 13.1869Z" fill="var(--fill-0, #D8B8A7)"/>
<path id="Vector_36" opacity="0.85" d="M6.93811 13.5722C7.34991 13.3688 8.17355 15.7396 8.42064 16.3664C8.58811 16.7536 8.68145 17.035 8.61831 17.0656C8.55517 17.0963 8.39593 16.8483 8.19552 16.475C7.86332 15.8928 6.52905 13.7755 6.93811 13.5722Z" fill="var(--fill-0, #DDBEAC)"/>
<path id="Vector_37" opacity="0.88" d="M7.12282 13.9575C7.47148 13.7848 8.18256 15.799 8.41317 16.3701C8.5779 16.7434 8.67124 17.022 8.61085 17.0498C8.55045 17.0777 8.39121 16.8353 8.20178 16.4732C7.89978 15.9383 6.77416 14.1275 7.12282 13.9575Z" fill="var(--fill-0, #E3C3B0)"/>
<path id="Vector_38" opacity="0.9" d="M7.30824 14.3427C7.59651 14.2007 8.19502 15.8582 8.40916 16.3764C8.5684 16.7358 8.66174 17.0088 8.60409 17.0367C8.54918 17.0645 8.38995 16.8221 8.20875 16.4739C7.93969 15.9836 7.01997 14.4848 7.30824 14.3427Z" fill="var(--fill-0, #E9C8B5)"/>
<path id="Vector_39" opacity="0.93" d="M7.49082 14.7281C7.71869 14.6166 8.20463 15.9148 8.40231 16.3801C8.5588 16.7255 8.6494 16.9957 8.59723 17.0208C8.54507 17.0459 8.38858 16.8063 8.21562 16.4692C7.97677 16.0263 7.26844 14.8367 7.49082 14.7253L7.49082 14.7281Z" fill="var(--fill-0, #EECEBA)"/>
<path id="Vector_40" opacity="0.95" d="M7.67606 15.1132C7.84079 15.0324 8.21692 15.974 8.39537 16.3864C8.54912 16.7179 8.63698 16.9853 8.58756 17.0104C8.53814 17.0327 8.38439 16.7987 8.21967 16.4727C8.01101 16.0771 7.51133 15.1968 7.67332 15.116L7.67606 15.1132Z" fill="var(--fill-0, #F4D3BF)"/>
<path id="Vector_41" opacity="0.98" d="M7.86131 15.4985C7.96564 15.4456 8.22921 16.0334 8.39119 16.39C8.53945 16.7076 8.6273 16.9723 8.58063 16.9946C8.53396 17.0169 8.38296 16.7828 8.22646 16.4708C8.05075 16.1226 7.75698 15.5487 7.85857 15.4985L7.86131 15.4985Z" fill="var(--fill-0, #F9D9C4)"/>
<path id="Vector_42" d="M8.04676 15.8836C8.09069 15.8613 8.24169 16.0926 8.38721 16.3962C8.53272 16.6971 8.61783 16.9618 8.57665 16.9813C8.53547 17.0008 8.38171 16.7723 8.2362 16.4687C8.09069 16.165 8.00558 15.9031 8.04676 15.8836Z" fill="var(--fill-0, #FFDEC9)"/>
</g>
</svg>
