<svg preserveAspectRatio="none" width="100%" height="100%" overflow="visible" style="display: block;" viewBox="0 0 65 65" fill="none" xmlns="http://www.w3.org/2000/svg">
<path id="Polygon 3" d="M35.7412 1.6709L38.9414 2.17773L42.0811 3.01953L45.1045 4.17969L47.9932 5.65137L50.7168 7.41992L53.2461 9.46777L55.5312 11.7529L57.5791 14.2822L59.3477 17.0059L60.8193 19.8945L61.9795 22.918L62.8213 26.0576L63.3281 29.2578L63.4971 32.5L63.3281 35.7412L62.8213 38.9414L61.9795 42.0811L60.8193 45.1045L59.3477 47.9932L57.5791 50.7168L55.5312 53.2461L53.2461 55.5312L50.7168 57.5791L47.9932 59.3477L45.1045 60.8193L42.0811 61.9795L38.9414 62.8213L35.7412 63.3281L32.5 63.4971L29.2578 63.3281L26.0576 62.8213L22.918 61.9795L19.8945 60.8193L17.0059 59.3477L14.2822 57.5791L11.7529 55.5312L9.46777 53.2461L7.41992 50.7168L5.65137 47.9932L4.17969 45.1045L3.01953 42.0811L2.17773 38.9414L1.6709 35.7412L1.50195 32.5L1.6709 29.2578L2.17773 26.0576L3.01953 22.918L4.17969 19.8945L5.65137 17.0059L7.41992 14.2822L9.46777 11.7529L11.7529 9.46777L14.2822 7.41992L17.0059 5.65137L19.8945 4.17969L22.918 3.01953L26.0576 2.17773L29.2578 1.6709L32.5 1.50195L35.7412 1.6709Z" fill="url(#paint0_linear_126_2492)" stroke="var(--stroke-0, #D1AE3B)" stroke-width="3"/>
<defs>
<linearGradient id="paint0_linear_126_2492" x1="32.5" y1="0" x2="32.5" y2="65" gradientUnits="userSpaceOnUse">
<stop stop-color="#FFFDDE"/>
<stop offset="0.501795" stop-color="white"/>
<stop offset="1" stop-color="#FFFDF0"/>
</linearGradient>
</defs>
</svg>
