<svg width="177" height="63" viewBox="0 0 177 63" fill="none" xmlns="http://www.w3.org/2000/svg">
<path d="M87.7589 62.7424C88.0479 62.8926 88.392 62.8926 88.6811 62.7424L127.889 42.3693C128.818 41.8867 128.475 40.482 127.428 40.482H49.012C47.9652 40.482 47.622 41.8867 48.5509 42.3694L87.7589 62.7424Z" fill="#FFF4D1"/>
<g filter="url(#filter0_d_124_1674)">
<path d="M9.11997 11.682C9.43997 11.6953 9.7533 11.7087 10.06 11.722C10.3666 11.7353 10.6866 11.742 11.02 11.742C11.2066 11.742 11.48 11.7353 11.84 11.722C12.2 11.7087 12.6133 11.6953 13.08 11.682C13.56 11.6553 14.04 11.6287 14.52 11.602C15.0133 11.5753 15.46 11.5487 15.86 11.522C16.2733 11.4953 16.6066 11.4687 16.86 11.442C17.1933 11.402 17.4733 11.362 17.7 11.322C17.9266 11.282 18.1066 11.2353 18.24 11.182L19.82 13.022C19.6066 13.1553 19.34 13.3353 19.02 13.562C18.7133 13.7753 18.4533 13.962 18.24 14.122C17.96 14.3487 17.66 14.5953 17.34 14.862C17.02 15.1287 16.6866 15.402 16.34 15.682C16.0066 15.9487 15.6733 16.222 15.34 16.502C15.0066 16.7687 14.68 17.0353 14.36 17.302C14.0533 17.5553 13.76 17.782 13.48 17.982C14.3733 17.8887 15.3133 17.8087 16.3 17.742C17.3 17.662 18.28 17.602 19.24 17.562C20.2133 17.522 21.1066 17.502 21.92 17.502V19.862C20.9733 19.8087 20.0333 19.782 19.1 19.782C18.1666 19.782 17.3933 19.8287 16.78 19.922C16.3133 19.9753 15.88 20.0953 15.48 20.282C15.08 20.4687 14.72 20.7087 14.4 21.002C14.0933 21.282 13.8533 21.602 13.68 21.962C13.5066 22.3087 13.42 22.6887 13.42 23.102C13.42 23.622 13.5466 24.0487 13.8 24.382C14.0533 24.7153 14.4066 24.9687 14.86 25.142C15.3266 25.3153 15.8533 25.4353 16.44 25.502C17.0133 25.5687 17.5733 25.602 18.12 25.602C18.6666 25.602 19.1266 25.5887 19.5 25.562L18.96 28.182C16.4 28.2887 14.4066 27.9553 12.98 27.182C11.5666 26.4087 10.86 25.1887 10.86 23.522C10.86 23.1087 10.9266 22.7087 11.06 22.322C11.2066 21.922 11.3866 21.5553 11.6 21.222C11.8266 20.8887 12.0666 20.602 12.32 20.362C11.4 20.4287 10.4066 20.5353 9.33997 20.682C8.28664 20.8287 7.2533 20.9887 6.23997 21.162L5.99997 18.742C6.5333 18.6887 7.11997 18.622 7.75997 18.542C8.39997 18.462 8.98664 18.3953 9.51997 18.342C9.95997 18.0487 10.44 17.702 10.96 17.302C11.48 16.902 12 16.4887 12.52 16.062C13.04 15.622 13.5266 15.2087 13.98 14.822C14.4466 14.422 14.8333 14.082 15.14 13.802C14.98 13.8153 14.76 13.8287 14.48 13.842C14.2133 13.8553 13.9133 13.8753 13.58 13.902C13.26 13.9153 12.9333 13.9353 12.6 13.962C12.2666 13.9753 11.96 13.9953 11.68 14.022C11.4133 14.0353 11.2 14.0487 11.04 14.062C10.7866 14.0753 10.5 14.102 10.18 14.142C9.8733 14.1687 9.55997 14.202 9.23997 14.242L9.11997 11.682ZM36.04 13.282C35.9066 14.2953 35.7333 15.3753 35.52 16.522C35.3066 17.6687 35.02 18.8287 34.66 20.002C34.2733 21.3487 33.82 22.5087 33.3 23.482C32.78 24.4553 32.2066 25.2087 31.58 25.742C30.9666 26.262 30.2933 26.522 29.56 26.522C28.8266 26.522 28.1466 26.2753 27.52 25.782C26.9066 25.2753 26.4133 24.582 26.04 23.702C25.68 22.822 25.5 21.822 25.5 20.702C25.5 19.542 25.7333 18.4487 26.2 17.422C26.6666 16.3953 27.3133 15.4887 28.14 14.702C28.98 13.902 29.9533 13.2753 31.06 12.822C32.18 12.3687 33.3866 12.142 34.68 12.142C35.92 12.142 37.0333 12.342 38.02 12.742C39.02 13.142 39.8733 13.6953 40.58 14.402C41.2866 15.1087 41.8266 15.9353 42.2 16.882C42.5733 17.8287 42.76 18.8487 42.76 19.942C42.76 21.342 42.4733 22.5953 41.9 23.702C41.3266 24.8087 40.4733 25.722 39.34 26.442C38.22 27.162 36.82 27.6553 35.14 27.922L33.64 25.542C34.0266 25.502 34.3666 25.4553 34.66 25.402C34.9533 25.3487 35.2333 25.2887 35.5 25.222C36.14 25.062 36.7333 24.8353 37.28 24.542C37.84 24.2353 38.3266 23.862 38.74 23.422C39.1533 22.9687 39.4733 22.442 39.7 21.842C39.94 21.242 40.06 20.582 40.06 19.862C40.06 19.0753 39.94 18.3553 39.7 17.702C39.46 17.0487 39.1066 16.482 38.64 16.002C38.1733 15.5087 37.6066 15.1353 36.94 14.882C36.2733 14.6153 35.5066 14.482 34.64 14.482C33.5733 14.482 32.6333 14.6753 31.82 15.062C31.0066 15.4353 30.32 15.922 29.76 16.522C29.2 17.122 28.7733 17.7687 28.48 18.462C28.2 19.1553 28.06 19.8153 28.06 20.442C28.06 21.1087 28.14 21.6687 28.3 22.122C28.46 22.562 28.6533 22.8953 28.88 23.122C29.12 23.3353 29.3733 23.442 29.64 23.442C29.92 23.442 30.1933 23.302 30.46 23.022C30.74 22.7287 31.0133 22.2887 31.28 21.702C31.5466 21.1153 31.8133 20.3753 32.08 19.482C32.3866 18.522 32.6466 17.4953 32.86 16.402C33.0733 15.3087 33.2266 14.242 33.32 13.202L36.04 13.282Z" fill="white"/>
<path d="M104.04 14.702C104.613 14.7553 105.187 14.802 105.76 14.842C106.347 14.8687 106.94 14.882 107.54 14.882C108.767 14.882 109.987 14.8287 111.2 14.722C112.413 14.6153 113.533 14.4487 114.56 14.222V16.722C113.52 16.8687 112.393 16.9887 111.18 17.082C109.967 17.162 108.753 17.202 107.54 17.202C106.953 17.202 106.367 17.1953 105.78 17.182C105.207 17.1553 104.627 17.122 104.04 17.082V14.702ZM111.64 11.322C111.613 11.5087 111.587 11.7153 111.56 11.942C111.547 12.1687 111.533 12.3953 111.52 12.622C111.507 12.8353 111.493 13.122 111.48 13.482C111.467 13.842 111.46 14.2487 111.46 14.702C111.46 15.142 111.46 15.6087 111.46 16.102C111.46 17.0087 111.473 17.862 111.5 18.662C111.527 19.4487 111.56 20.182 111.6 20.862C111.64 21.5287 111.673 22.142 111.7 22.702C111.74 23.262 111.76 23.782 111.76 24.262C111.76 24.782 111.687 25.262 111.54 25.702C111.407 26.142 111.187 26.5287 110.88 26.862C110.573 27.1953 110.167 27.4487 109.66 27.622C109.167 27.8087 108.56 27.902 107.84 27.902C106.453 27.902 105.36 27.622 104.56 27.062C103.76 26.502 103.36 25.6953 103.36 24.642C103.36 23.962 103.54 23.3687 103.9 22.862C104.26 22.342 104.773 21.942 105.44 21.662C106.107 21.3687 106.893 21.222 107.8 21.222C108.747 21.222 109.607 21.322 110.38 21.522C111.153 21.722 111.86 21.9887 112.5 22.322C113.14 22.6553 113.707 23.022 114.2 23.422C114.707 23.8087 115.16 24.182 115.56 24.542L114.18 26.642C113.42 25.922 112.68 25.302 111.96 24.782C111.24 24.262 110.52 23.862 109.8 23.582C109.093 23.302 108.36 23.162 107.6 23.162C107.04 23.162 106.58 23.2687 106.22 23.482C105.873 23.6953 105.7 23.9953 105.7 24.382C105.7 24.782 105.88 25.0753 106.24 25.262C106.6 25.4487 107.04 25.542 107.56 25.542C107.973 25.542 108.3 25.4753 108.54 25.342C108.78 25.1953 108.947 24.9887 109.04 24.722C109.147 24.442 109.2 24.1087 109.2 23.722C109.2 23.3753 109.187 22.922 109.16 22.362C109.133 21.802 109.1 21.1753 109.06 20.482C109.033 19.7887 109.007 19.0687 108.98 18.322C108.953 17.562 108.94 16.822 108.94 16.102C108.94 15.342 108.933 14.6553 108.92 14.042C108.92 13.4153 108.92 12.9487 108.92 12.642C108.92 12.4953 108.907 12.2887 108.88 12.022C108.853 11.7553 108.82 11.522 108.78 11.322H111.64ZM101.88 11.542C101.84 11.6753 101.78 11.862 101.7 12.102C101.633 12.342 101.573 12.5753 101.52 12.802C101.48 13.0287 101.447 13.202 101.42 13.322C101.353 13.602 101.28 13.982 101.2 14.462C101.12 14.9287 101.033 15.462 100.94 16.062C100.86 16.6487 100.78 17.2553 100.7 17.882C100.62 18.4953 100.56 19.082 100.52 19.642C100.48 20.1887 100.46 20.662 100.46 21.062C100.46 21.262 100.46 21.482 100.46 21.722C100.473 21.9487 100.5 22.162 100.54 22.362C100.633 22.122 100.727 21.8887 100.82 21.662C100.927 21.4353 101.033 21.2087 101.14 20.982C101.247 20.7553 101.347 20.5287 101.44 20.302L102.66 21.302C102.473 21.8487 102.28 22.422 102.08 23.022C101.893 23.622 101.72 24.1887 101.56 24.722C101.413 25.2553 101.3 25.702 101.22 26.062C101.193 26.1953 101.167 26.3553 101.14 26.542C101.127 26.7287 101.12 26.882 101.12 27.002C101.12 27.1087 101.12 27.2353 101.12 27.382C101.133 27.542 101.147 27.6887 101.16 27.822L98.9 28.002C98.6866 27.2953 98.5 26.3953 98.34 25.302C98.18 24.1953 98.1 22.962 98.1 21.602C98.1 20.8553 98.1333 20.0753 98.2 19.262C98.2666 18.4353 98.34 17.642 98.42 16.882C98.5133 16.122 98.6066 15.4287 98.7 14.802C98.7933 14.162 98.8666 13.6487 98.92 13.262C98.96 12.982 99 12.6687 99.04 12.322C99.08 11.962 99.1066 11.622 99.12 11.302L101.88 11.542ZM126.22 16.822C126.7 16.822 127.127 16.942 127.5 17.182C127.887 17.4087 128.193 17.7153 128.42 18.102C128.66 18.4753 128.78 18.902 128.78 19.382C128.78 19.8487 128.66 20.2753 128.42 20.662C128.193 21.0487 127.887 21.362 127.5 21.602C127.127 21.8287 126.7 21.942 126.22 21.942C125.753 21.942 125.327 21.8287 124.94 21.602C124.553 21.362 124.24 21.0487 124 20.662C123.773 20.2753 123.66 19.8487 123.66 19.382C123.66 18.902 123.773 18.4753 124 18.102C124.24 17.7153 124.553 17.4087 124.94 17.182C125.327 16.942 125.753 16.822 126.22 16.822ZM146.22 16.822C146.7 16.822 147.127 16.942 147.5 17.182C147.887 17.4087 148.193 17.7153 148.42 18.102C148.66 18.4753 148.78 18.902 148.78 19.382C148.78 19.8487 148.66 20.2753 148.42 20.662C148.193 21.0487 147.887 21.362 147.5 21.602C147.127 21.8287 146.7 21.942 146.22 21.942C145.753 21.942 145.327 21.8287 144.94 21.602C144.553 21.362 144.24 21.0487 144 20.662C143.773 20.2753 143.66 19.8487 143.66 19.382C143.66 18.902 143.773 18.4753 144 18.102C144.24 17.7153 144.553 17.4087 144.94 17.182C145.327 16.942 145.753 16.822 146.22 16.822ZM166.22 16.822C166.7 16.822 167.127 16.942 167.5 17.182C167.887 17.4087 168.193 17.7153 168.42 18.102C168.66 18.4753 168.78 18.902 168.78 19.382C168.78 19.8487 168.66 20.2753 168.42 20.662C168.193 21.0487 167.887 21.362 167.5 21.602C167.127 21.8287 166.7 21.942 166.22 21.942C165.753 21.942 165.327 21.8287 164.94 21.602C164.553 21.362 164.24 21.0487 164 20.662C163.773 20.2753 163.66 19.8487 163.66 19.382C163.66 18.902 163.773 18.4753 164 18.102C164.24 17.7153 164.553 17.4087 164.94 17.182C165.327 16.942 165.753 16.822 166.22 16.822Z" fill="white"/>
<path d="M48.952 6.05199H68.946V8.85999H48.952V6.05199ZM47.106 6.05199H50.174V13.774C50.174 14.9007 50.1393 16.1313 50.07 17.466C50.018 18.8007 49.8966 20.17 49.706 21.574C49.5326 22.978 49.264 24.3473 48.9 25.682C48.5533 26.9993 48.094 28.1953 47.522 29.27C47.3313 29.0793 47.0626 28.88 46.716 28.672C46.3866 28.4813 46.04 28.2907 45.676 28.1C45.3293 27.9267 45.026 27.7967 44.766 27.71C45.3206 26.722 45.754 25.6387 46.066 24.46C46.378 23.264 46.6033 22.042 46.742 20.794C46.898 19.5287 46.9933 18.298 47.028 17.102C47.08 15.906 47.106 14.7967 47.106 13.774V6.05199ZM54.958 16.66V18.168H63.824V16.66H54.958ZM54.958 13.02V14.502H63.824V13.02H54.958ZM51.916 10.68H67.048V20.508H51.916V10.68ZM57.896 19.208H60.912V26.28C60.912 26.9733 60.8253 27.528 60.652 27.944C60.496 28.36 60.1753 28.672 59.69 28.88C59.2046 29.088 58.6153 29.2093 57.922 29.244C57.2286 29.296 56.4226 29.322 55.504 29.322C55.4346 28.9233 55.3133 28.464 55.14 27.944C54.984 27.424 54.8106 26.9647 54.62 26.566C55.192 26.5833 55.7553 26.6007 56.31 26.618C56.8646 26.618 57.2286 26.6093 57.402 26.592C57.5926 26.592 57.7226 26.566 57.792 26.514C57.8613 26.462 57.896 26.358 57.896 26.202V19.208ZM57.376 8.62599L61.12 8.88599C60.9293 9.54466 60.7386 10.16 60.548 10.732C60.3746 11.2867 60.2273 11.7633 60.106 12.162L56.882 11.824C56.9513 11.512 57.012 11.1653 57.064 10.784C57.1333 10.4027 57.194 10.03 57.246 9.66599C57.3153 9.28466 57.3586 8.93799 57.376 8.62599ZM62.186 22.692L64.578 21.21C65.15 21.6953 65.748 22.2413 66.372 22.848C66.996 23.4547 67.5766 24.0613 68.114 24.668C68.6686 25.2573 69.102 25.812 69.414 26.332L66.84 27.97C66.5626 27.4673 66.164 26.9127 65.644 26.306C65.124 25.682 64.5606 25.058 63.954 24.434C63.3646 23.7927 62.7753 23.212 62.186 22.692ZM53.502 21.34L56.518 22.172C55.9113 23.316 55.1486 24.4253 54.23 25.5C53.3286 26.5573 52.4186 27.4413 51.5 28.152C51.292 27.9787 51.032 27.7707 50.72 27.528C50.4253 27.3027 50.1133 27.086 49.784 26.878C49.4546 26.6527 49.1686 26.4707 48.926 26.332C49.862 25.76 50.7373 25.032 51.552 24.148C52.3666 23.2467 53.0166 22.3107 53.502 21.34ZM76.2 12.968H90.24V15.75H76.2V12.968ZM81.66 9.58799H84.572C84.52 11.46 84.4073 13.176 84.234 14.736C84.078 16.2787 83.766 17.674 83.298 18.922C82.8473 20.1527 82.154 21.2447 81.218 22.198C80.2993 23.134 79.0513 23.9313 77.474 24.59C77.318 24.2087 77.0666 23.784 76.72 23.316C76.3733 22.848 76.0353 22.4753 75.706 22.198C77.0926 21.6607 78.176 21.0107 78.956 20.248C79.7533 19.468 80.334 18.5667 80.698 17.544C81.0793 16.504 81.322 15.334 81.426 14.034C81.5473 12.7167 81.6253 11.2347 81.66 9.58799ZM84.65 14.684C85.0313 16.4693 85.6813 18.0033 86.6 19.286C87.536 20.5513 88.8446 21.47 90.526 22.042C90.3353 22.2327 90.11 22.4753 89.85 22.77C89.6073 23.0647 89.382 23.3767 89.174 23.706C88.966 24.018 88.8013 24.304 88.68 24.564C87.4146 24.044 86.3573 23.3333 85.508 22.432C84.6586 21.5307 83.9653 20.4647 83.428 19.234C82.908 17.986 82.4833 16.5907 82.154 15.048L84.65 14.684ZM72.092 5.99999H94.426V29.27H91.15V8.98999H75.212V29.27H72.092V5.99999ZM73.938 25.24H92.398V28.23H73.938V25.24Z" fill="white"/>
</g>
<defs>
<filter id="filter0_d_124_1674" x="0" y="0" width="174.78" height="35.322" filterUnits="userSpaceOnUse" color-interpolation-filters="sRGB">
<feFlood flood-opacity="0" result="BackgroundImageFix"/>
<feColorMatrix in="SourceAlpha" type="matrix" values="0 0 0 0 0 0 0 0 0 0 0 0 0 0 0 0 0 0 127 0" result="hardAlpha"/>
<feOffset/>
<feGaussianBlur stdDeviation="3"/>
<feComposite in2="hardAlpha" operator="out"/>
<feColorMatrix type="matrix" values="0 0 0 0 0 0 0 0 0 0 0 0 0 0 0 0 0 0 0.6 0"/>
<feBlend mode="normal" in2="BackgroundImageFix" result="effect1_dropShadow_124_1674"/>
<feBlend mode="normal" in="SourceGraphic" in2="effect1_dropShadow_124_1674" result="shape"/>
</filter>
</defs>
</svg>
