<svg width="302" height="36" viewBox="0 0 302 36" fill="none" xmlns="http://www.w3.org/2000/svg">
<rect x="1" y="1" width="300" height="34" rx="3" fill="url(#paint0_linear_128_2524)"/>
<rect x="1" y="1" width="300" height="34" rx="3" stroke="#D1D1D1" stroke-width="2"/>
<path d="M27.13 15.714V16.452H34.798V15.714H27.13ZM27.13 13.68V14.4H34.798V13.68H27.13ZM25.06 12.276H36.958V17.856H25.06V12.276ZM22.936 18.504H39.028V20.214H22.936V18.504ZM31.198 20.88H37.084V22.536H31.198V20.88ZM25.708 20.934H29.794V22.428H25.708V20.934ZM25.708 23.202H29.794V24.696H25.708V23.202ZM33.394 22.374C33.898 23.478 34.666 24.426 35.698 25.218C36.742 26.01 37.984 26.574 39.424 26.91C39.292 27.042 39.142 27.204 38.974 27.396C38.806 27.6 38.65 27.81 38.506 28.026C38.362 28.242 38.242 28.434 38.146 28.602C36.598 28.134 35.284 27.414 34.204 26.442C33.136 25.47 32.29 24.276 31.666 22.86L33.394 22.374ZM36.436 20.88H36.832L37.192 20.826L38.524 21.33C38.164 22.578 37.654 23.676 36.994 24.624C36.334 25.56 35.554 26.352 34.654 27C33.766 27.66 32.782 28.194 31.702 28.602C31.582 28.338 31.408 28.038 31.18 27.702C30.952 27.378 30.736 27.114 30.532 26.91C31.228 26.694 31.888 26.406 32.512 26.046C33.148 25.686 33.724 25.26 34.24 24.768C34.756 24.276 35.2 23.73 35.572 23.13C35.956 22.53 36.244 21.888 36.436 21.204V20.88ZM22.774 25.812C23.386 25.776 24.07 25.734 24.826 25.686C25.582 25.626 26.38 25.566 27.22 25.506C28.06 25.434 28.906 25.362 29.758 25.29V27.054C28.546 27.162 27.34 27.27 26.14 27.378C24.952 27.498 23.884 27.6 22.936 27.684L22.774 25.812ZM28.696 19.062H30.748V28.62H28.696V19.062ZM24.358 19.098H26.32V26.46H24.358V19.098ZM47.92 12.438H57.19V14.436H47.92V12.438ZM47.11 26.298H57.46V28.296H47.11V26.298ZM49.018 22.572L50.854 22.14C51.01 22.5 51.148 22.89 51.268 23.31C51.388 23.718 51.49 24.12 51.574 24.516C51.67 24.912 51.736 25.266 51.772 25.578L49.828 26.082C49.804 25.77 49.75 25.41 49.666 25.002C49.594 24.594 49.504 24.18 49.396 23.76C49.288 23.328 49.162 22.932 49.018 22.572ZM54.094 22.032L56.2 22.482C56.044 22.926 55.882 23.37 55.714 23.814C55.558 24.258 55.402 24.684 55.246 25.092C55.09 25.488 54.94 25.836 54.796 26.136L52.978 25.704C53.122 25.38 53.26 25.002 53.392 24.57C53.536 24.138 53.668 23.7 53.788 23.256C53.92 22.812 54.022 22.404 54.094 22.032ZM50.584 17.712V19.89H54.508V17.712H50.584ZM48.604 15.822H56.614V21.78H48.604V15.822ZM43.78 14.904H45.832V18.306C45.832 19.062 45.784 19.896 45.688 20.808C45.592 21.708 45.412 22.626 45.148 23.562C44.884 24.498 44.5 25.404 43.996 26.28C43.504 27.156 42.856 27.936 42.052 28.62C41.956 28.464 41.812 28.284 41.62 28.08C41.44 27.876 41.254 27.684 41.062 27.504C40.87 27.324 40.702 27.186 40.558 27.09C41.29 26.466 41.866 25.788 42.286 25.056C42.718 24.312 43.042 23.544 43.258 22.752C43.474 21.96 43.612 21.186 43.672 20.43C43.744 19.662 43.78 18.948 43.78 18.288V14.904ZM42.412 13.878H47.848V15.84H42.412V13.878ZM40.702 18.612H48.064V20.61H40.702V18.612ZM45.436 21.114C45.556 21.222 45.718 21.39 45.922 21.618C46.126 21.834 46.348 22.08 46.588 22.356C46.84 22.632 47.08 22.914 47.308 23.202C47.536 23.478 47.746 23.73 47.938 23.958C48.13 24.174 48.268 24.33 48.352 24.426L46.966 26.208C46.81 25.92 46.606 25.602 46.354 25.254C46.114 24.894 45.862 24.528 45.598 24.156C45.334 23.784 45.076 23.436 44.824 23.112C44.572 22.776 44.356 22.494 44.176 22.266L45.436 21.114ZM42.268 11.718L44.302 12.114C44.17 12.87 43.99 13.626 43.762 14.382C43.546 15.126 43.3 15.828 43.024 16.488C42.76 17.136 42.478 17.7 42.178 18.18C42.034 18.084 41.848 17.97 41.62 17.838C41.404 17.706 41.176 17.586 40.936 17.478C40.708 17.358 40.51 17.262 40.342 17.19C40.81 16.53 41.206 15.714 41.53 14.742C41.866 13.758 42.112 12.75 42.268 11.718Z" fill="#001F66"/>
<path d="M67.5586 30.36C66.0386 30.36 64.8086 30.08 63.8686 29.52C62.9486 28.94 62.2786 28.13 61.8586 27.09C61.4386 26.03 61.2286 24.8 61.2286 23.4V22.56H65.3386C65.3386 22.62 65.3386 22.72 65.3386 22.86C65.3386 23 65.3386 23.14 65.3386 23.28C65.3586 24.04 65.4286 24.69 65.5486 25.23C65.6686 25.77 65.8886 26.18 66.2086 26.46C66.5486 26.74 67.0086 26.88 67.5886 26.88C68.2086 26.88 68.6686 26.73 68.9686 26.43C69.2886 26.13 69.4986 25.69 69.5986 25.11C69.7186 24.53 69.7786 23.84 69.7786 23.04C69.7786 21.8 69.5786 20.83 69.1786 20.13C68.7986 19.41 68.0486 19.02 66.9286 18.96C66.8886 18.96 66.7886 18.96 66.6286 18.96C66.4886 18.96 66.3586 18.96 66.2386 18.96V15.63C66.3386 15.63 66.4386 15.63 66.5386 15.63C66.6586 15.63 66.7686 15.63 66.8686 15.63C67.9686 15.61 68.7286 15.32 69.1486 14.76C69.5686 14.18 69.7786 13.26 69.7786 12C69.7786 10.98 69.6186 10.18 69.2986 9.6C68.9986 9.02 68.4086 8.73 67.5286 8.73C66.6686 8.73 66.0886 9.05 65.7886 9.69C65.5086 10.33 65.3586 11.16 65.3386 12.18C65.3386 12.32 65.3386 12.47 65.3386 12.63C65.3386 12.77 65.3386 12.92 65.3386 13.08H61.2286V11.91C61.2286 10.53 61.4686 9.36 61.9486 8.4C62.4486 7.42 63.1686 6.68 64.1086 6.18C65.0486 5.66 66.1886 5.4 67.5286 5.4C68.9086 5.4 70.0686 5.65 71.0086 6.15C71.9486 6.65 72.6586 7.38 73.1386 8.34C73.6386 9.28 73.8886 10.44 73.8886 11.82C73.8886 13.26 73.5886 14.44 72.9886 15.36C72.3886 16.28 71.6186 16.88 70.6786 17.16C71.3186 17.36 71.8786 17.71 72.3586 18.21C72.8386 18.69 73.2086 19.33 73.4686 20.13C73.7486 20.91 73.8886 21.86 73.8886 22.98C73.8886 24.44 73.6786 25.73 73.2586 26.85C72.8586 27.95 72.1886 28.81 71.2486 29.43C70.3286 30.05 69.0986 30.36 67.5586 30.36Z" fill="#FF568F"/>
<path d="M79.772 12.798H92.336V28.368H90.014V14.976H81.986V28.404H79.772V12.798ZM81.284 18.846H90.968V20.97H81.284V18.846ZM81.284 25.038H90.986V27.216H81.284V25.038ZM103.802 15.714H112.406V17.784H103.802V15.714ZM95.828 14.49H104.396V16.488H95.828V14.49ZM108.338 11.7H110.48V25.92C110.48 26.532 110.414 27.006 110.282 27.342C110.15 27.69 109.91 27.954 109.562 28.134C109.214 28.326 108.77 28.452 108.23 28.512C107.69 28.572 107.042 28.602 106.286 28.602C106.274 28.386 106.232 28.14 106.16 27.864C106.088 27.588 106.004 27.306 105.908 27.018C105.812 26.742 105.716 26.496 105.62 26.28C106.124 26.304 106.592 26.316 107.024 26.316C107.456 26.316 107.75 26.316 107.906 26.316C108.062 26.316 108.17 26.292 108.23 26.244C108.302 26.184 108.338 26.076 108.338 25.92V11.7ZM103.622 20.052L105.35 19.224C105.638 19.62 105.914 20.046 106.178 20.502C106.454 20.958 106.694 21.408 106.898 21.852C107.102 22.284 107.252 22.686 107.348 23.058L105.476 23.994C105.392 23.646 105.254 23.244 105.062 22.788C104.882 22.332 104.666 21.864 104.414 21.384C104.162 20.904 103.898 20.46 103.622 20.052ZM96.17 19.026L97.7 17.784C98.228 18.36 98.774 18.972 99.338 19.62C99.902 20.268 100.448 20.928 100.976 21.6C101.516 22.272 101.996 22.926 102.416 23.562C102.836 24.186 103.178 24.768 103.442 25.308L101.732 26.784C101.492 26.244 101.168 25.65 100.76 25.002C100.352 24.354 99.89 23.682 99.374 22.986C98.87 22.29 98.342 21.606 97.79 20.934C97.25 20.25 96.71 19.614 96.17 19.026ZM98.978 11.718H101.048V15.714H98.978V11.718ZM100.94 16.848L103.046 17.136C102.746 18.876 102.326 20.46 101.786 21.888C101.246 23.304 100.568 24.564 99.752 25.668C98.936 26.76 97.946 27.696 96.782 28.476C96.698 28.332 96.566 28.152 96.386 27.936C96.218 27.72 96.038 27.504 95.846 27.288C95.654 27.084 95.48 26.916 95.324 26.784C96.428 26.148 97.352 25.35 98.096 24.39C98.84 23.418 99.44 22.302 99.896 21.042C100.364 19.782 100.712 18.384 100.94 16.848ZM120.704 19.332H122.846V25.596C122.846 25.932 122.882 26.142 122.954 26.226C123.038 26.31 123.2 26.352 123.44 26.352C123.512 26.352 123.608 26.352 123.728 26.352C123.86 26.352 124.004 26.352 124.16 26.352C124.316 26.352 124.46 26.352 124.592 26.352C124.724 26.352 124.826 26.352 124.898 26.352C125.078 26.352 125.216 26.286 125.312 26.154C125.408 26.01 125.474 25.728 125.51 25.308C125.558 24.888 125.594 24.264 125.618 23.436C125.774 23.556 125.96 23.676 126.176 23.796C126.404 23.916 126.638 24.018 126.878 24.102C127.118 24.186 127.328 24.258 127.508 24.318C127.448 25.338 127.334 26.136 127.166 26.712C127.01 27.288 126.77 27.69 126.446 27.918C126.122 28.158 125.672 28.278 125.096 28.278C125.012 28.278 124.874 28.278 124.682 28.278C124.502 28.278 124.304 28.278 124.088 28.278C123.884 28.278 123.692 28.278 123.512 28.278C123.332 28.278 123.194 28.278 123.098 28.278C122.462 28.278 121.97 28.194 121.622 28.026C121.286 27.87 121.046 27.594 120.902 27.198C120.77 26.802 120.704 26.274 120.704 25.614V19.332ZM118.148 20.718L120.092 21.132C120.032 21.816 119.948 22.524 119.84 23.256C119.732 23.988 119.588 24.684 119.408 25.344C119.24 25.992 119.018 26.562 118.742 27.054L116.834 26.19C117.086 25.722 117.296 25.194 117.464 24.606C117.644 24.018 117.788 23.388 117.896 22.716C118.004 22.044 118.088 21.378 118.148 20.718ZM120.83 17.316L122.288 15.894C122.768 16.122 123.284 16.386 123.836 16.686C124.388 16.986 124.916 17.298 125.42 17.622C125.924 17.946 126.338 18.246 126.662 18.522L125.114 20.142C124.826 19.854 124.436 19.542 123.944 19.206C123.464 18.858 122.948 18.522 122.396 18.198C121.856 17.862 121.334 17.568 120.83 17.316ZM126.338 20.97L128.264 20.232C128.624 20.844 128.972 21.51 129.308 22.23C129.644 22.938 129.932 23.634 130.172 24.318C130.424 24.99 130.592 25.602 130.676 26.154L128.552 27.036C128.492 26.496 128.348 25.878 128.12 25.182C127.904 24.474 127.64 23.76 127.328 23.04C127.016 22.308 126.686 21.618 126.338 20.97ZM121.442 11.7H123.692V14.994H121.442V11.7ZM116.006 13.824H130.226V15.876H116.006V13.824ZM114.998 13.824H117.158V18.36C117.158 19.092 117.128 19.902 117.068 20.79C117.02 21.666 116.93 22.572 116.798 23.508C116.666 24.432 116.474 25.332 116.222 26.208C115.982 27.084 115.658 27.876 115.25 28.584C115.118 28.464 114.932 28.32 114.692 28.152C114.464 27.996 114.23 27.84 113.99 27.684C113.75 27.54 113.546 27.432 113.378 27.36C113.75 26.712 114.044 26.004 114.26 25.236C114.476 24.468 114.632 23.682 114.728 22.878C114.836 22.074 114.908 21.288 114.944 20.52C114.98 19.74 114.998 19.02 114.998 18.36V13.824Z" fill="#001F66"/>
<path d="M141 7V29" stroke="#001F66"/>
<path d="M162.34 11.736H164.572V15.678H162.34V11.736ZM165.724 18.936H167.884C167.884 18.936 167.884 18.99 167.884 19.098C167.884 19.206 167.884 19.332 167.884 19.476C167.884 19.62 167.878 19.734 167.866 19.818C167.806 21.114 167.746 22.224 167.686 23.148C167.638 24.072 167.578 24.84 167.506 25.452C167.446 26.064 167.362 26.55 167.254 26.91C167.158 27.27 167.044 27.534 166.912 27.702C166.696 27.966 166.468 28.152 166.228 28.26C166 28.368 165.736 28.446 165.436 28.494C165.172 28.542 164.83 28.566 164.41 28.566C163.99 28.578 163.552 28.572 163.096 28.548C163.084 28.248 163.018 27.9 162.898 27.504C162.778 27.12 162.628 26.784 162.448 26.496C162.856 26.532 163.228 26.556 163.564 26.568C163.912 26.58 164.182 26.586 164.374 26.586C164.518 26.586 164.638 26.568 164.734 26.532C164.83 26.496 164.926 26.43 165.022 26.334C165.142 26.19 165.244 25.872 165.328 25.38C165.412 24.876 165.484 24.138 165.544 23.166C165.616 22.182 165.676 20.898 165.724 19.314V18.936ZM161.062 16.182H163.294C163.258 17.322 163.186 18.474 163.078 19.638C162.982 20.802 162.802 21.93 162.538 23.022C162.274 24.114 161.884 25.14 161.368 26.1C160.864 27.048 160.186 27.894 159.334 28.638C159.166 28.35 158.926 28.05 158.614 27.738C158.314 27.426 158.02 27.168 157.732 26.964C158.512 26.34 159.118 25.614 159.55 24.786C159.994 23.946 160.318 23.052 160.522 22.104C160.726 21.144 160.858 20.16 160.918 19.152C160.978 18.144 161.026 17.154 161.062 16.182ZM158.668 14.742H168.532V16.776H158.668V14.742ZM162.196 18.936H166.588V20.934H162.196V18.936ZM152.404 17.226H157.984V18.864H152.404V17.226ZM152.476 12.276H157.948V13.896H152.476V12.276ZM152.404 19.692H157.984V21.312H152.404V19.692ZM151.54 14.688H158.398V16.398H151.54V14.688ZM153.394 22.176H157.948V27.666H153.394V25.956H156.094V23.886H153.394V22.176ZM152.35 22.176H154.186V28.368H152.35V22.176ZM175.372 20.376H181.456V26.064H175.372V24.3H179.422V22.158H175.372V20.376ZM174.436 20.376H176.434V27.09H174.436V20.376ZM171.502 15.012H176.002V16.47H171.502V15.012ZM179.854 15.012H184.39V16.47H179.854V15.012ZM183.49 12.402H185.686V26.028C185.686 26.628 185.614 27.096 185.47 27.432C185.326 27.768 185.068 28.026 184.696 28.206C184.312 28.386 183.832 28.5 183.256 28.548C182.68 28.596 181.972 28.62 181.132 28.62C181.12 28.404 181.072 28.164 180.988 27.9C180.904 27.636 180.814 27.366 180.718 27.09C180.622 26.826 180.514 26.598 180.394 26.406C180.754 26.43 181.114 26.448 181.474 26.46C181.834 26.46 182.152 26.46 182.428 26.46C182.716 26.448 182.92 26.442 183.04 26.442C183.208 26.442 183.322 26.412 183.382 26.352C183.454 26.28 183.49 26.16 183.49 25.992V12.402ZM171.664 12.402H177.37V19.134H171.664V17.496H175.336V14.04H171.664V12.402ZM184.66 12.402V14.04H180.628V17.532H184.66V19.152H178.576V12.402H184.66ZM170.44 12.402H172.582V28.62H170.44V12.402ZM196 17.856C196.432 17.856 196.816 17.964 197.152 18.18C197.5 18.384 197.776 18.66 197.98 19.008C198.196 19.344 198.304 19.728 198.304 20.16C198.304 20.58 198.196 20.964 197.98 21.312C197.776 21.66 197.5 21.942 197.152 22.158C196.816 22.362 196.432 22.464 196 22.464C195.58 22.464 195.196 22.362 194.848 22.158C194.5 21.942 194.218 21.66 194.002 21.312C193.798 20.964 193.696 20.58 193.696 20.16C193.696 19.728 193.798 19.344 194.002 19.008C194.218 18.66 194.5 18.384 194.848 18.18C195.196 17.964 195.58 17.856 196 17.856ZM208.51 18.324H218.248V20.412H208.51V18.324ZM217.528 18.324H219.796C219.796 18.324 219.796 18.384 219.796 18.504C219.796 18.612 219.796 18.744 219.796 18.9C219.796 19.044 219.79 19.164 219.778 19.26C219.73 20.616 219.676 21.786 219.616 22.77C219.556 23.742 219.484 24.552 219.4 25.2C219.328 25.848 219.238 26.364 219.13 26.748C219.022 27.132 218.89 27.42 218.734 27.612C218.494 27.9 218.242 28.104 217.978 28.224C217.726 28.344 217.426 28.428 217.078 28.476C216.778 28.524 216.382 28.548 215.89 28.548C215.398 28.56 214.882 28.554 214.342 28.53C214.33 28.206 214.258 27.834 214.126 27.414C213.994 27.006 213.832 26.652 213.64 26.352C214.144 26.388 214.612 26.412 215.044 26.424C215.476 26.436 215.8 26.442 216.016 26.442C216.184 26.442 216.322 26.43 216.43 26.406C216.538 26.37 216.646 26.298 216.754 26.19C216.898 26.034 217.012 25.692 217.096 25.164C217.192 24.624 217.276 23.832 217.348 22.788C217.42 21.732 217.48 20.37 217.528 18.702V18.324ZM210.526 11.934L212.866 12.618C212.422 13.662 211.888 14.67 211.264 15.642C210.652 16.614 209.986 17.508 209.266 18.324C208.558 19.14 207.82 19.848 207.052 20.448C206.92 20.292 206.74 20.106 206.512 19.89C206.284 19.662 206.05 19.44 205.81 19.224C205.582 19.008 205.378 18.834 205.198 18.702C205.942 18.198 206.65 17.598 207.322 16.902C208.006 16.194 208.624 15.42 209.176 14.58C209.728 13.728 210.178 12.846 210.526 11.934ZM217.384 11.898C217.672 12.474 218.02 13.062 218.428 13.662C218.836 14.262 219.28 14.85 219.76 15.426C220.252 15.99 220.75 16.524 221.254 17.028C221.77 17.532 222.274 17.97 222.766 18.342C222.574 18.486 222.358 18.678 222.118 18.918C221.89 19.146 221.668 19.38 221.452 19.62C221.248 19.86 221.074 20.082 220.93 20.286C220.426 19.818 219.916 19.296 219.4 18.72C218.884 18.132 218.374 17.514 217.87 16.866C217.378 16.206 216.91 15.528 216.466 14.832C216.022 14.124 215.62 13.428 215.26 12.744L217.384 11.898ZM211.714 18.936H214.072C213.988 19.944 213.85 20.928 213.658 21.888C213.466 22.848 213.148 23.754 212.704 24.606C212.272 25.458 211.642 26.238 210.814 26.946C209.998 27.642 208.918 28.236 207.574 28.728C207.49 28.524 207.37 28.302 207.214 28.062C207.058 27.822 206.89 27.582 206.71 27.342C206.53 27.114 206.35 26.916 206.17 26.748C207.382 26.364 208.342 25.89 209.05 25.326C209.758 24.75 210.292 24.126 210.652 23.454C211.012 22.77 211.258 22.044 211.39 21.276C211.534 20.508 211.642 19.728 211.714 18.936ZM225.556 16.344H230.56V17.928H225.556V16.344ZM225.556 19.278H230.56V20.808H225.556V19.278ZM225.556 22.302H230.56V23.886H225.556V22.302ZM233.368 20.25H240.136V22.068H233.368V20.25ZM226.456 13.374H229.3V15.012H226.456V13.374ZM232 12.618H238.696V14.4H232V12.618ZM232.018 23.706H240.496V25.56H232.018V23.706ZM235.366 18.63H237.418V28.548H235.366V18.63ZM227.518 17.172H228.94V22.896H227.518V17.172ZM238.12 12.618H240.028C240.028 12.618 240.022 12.708 240.01 12.888C240.01 13.056 240.004 13.2 239.992 13.32C239.968 14.268 239.932 15.054 239.884 15.678C239.836 16.302 239.77 16.794 239.686 17.154C239.602 17.514 239.494 17.772 239.362 17.928C239.218 18.108 239.056 18.24 238.876 18.324C238.696 18.408 238.492 18.474 238.264 18.522C238.06 18.546 237.796 18.564 237.472 18.576C237.148 18.576 236.8 18.57 236.428 18.558C236.416 18.282 236.368 17.982 236.284 17.658C236.2 17.322 236.086 17.04 235.942 16.812C236.23 16.836 236.488 16.854 236.716 16.866C236.944 16.878 237.118 16.884 237.238 16.884C237.346 16.884 237.436 16.878 237.508 16.866C237.592 16.842 237.664 16.788 237.724 16.704C237.796 16.62 237.856 16.446 237.904 16.182C237.952 15.906 237.994 15.504 238.03 14.976C238.066 14.448 238.096 13.752 238.12 12.888V12.618ZM232.99 18.756L234.754 19.116C234.598 19.932 234.376 20.73 234.088 21.51C233.812 22.29 233.5 22.944 233.152 23.472C233.032 23.388 232.876 23.292 232.684 23.184C232.492 23.076 232.294 22.974 232.09 22.878C231.886 22.782 231.712 22.704 231.568 22.644C231.916 22.164 232.21 21.576 232.45 20.88C232.69 20.184 232.87 19.476 232.99 18.756ZM226.024 11.682L227.95 12.114C227.722 12.93 227.452 13.734 227.14 14.526C226.828 15.318 226.48 16.056 226.096 16.74C225.724 17.424 225.322 18.024 224.89 18.54C224.782 18.432 224.632 18.3 224.44 18.144C224.248 17.976 224.056 17.814 223.864 17.658C223.672 17.49 223.498 17.364 223.342 17.28C223.954 16.608 224.494 15.78 224.962 14.796C225.43 13.8 225.784 12.762 226.024 11.682ZM224.764 16.344H226.492V21.114C226.492 21.69 226.468 22.308 226.42 22.968C226.384 23.628 226.312 24.3 226.204 24.984C226.108 25.656 225.958 26.31 225.754 26.946C225.55 27.57 225.28 28.14 224.944 28.656C224.848 28.548 224.704 28.428 224.512 28.296C224.332 28.176 224.14 28.056 223.936 27.936C223.744 27.828 223.576 27.744 223.432 27.684C223.84 27.06 224.14 26.37 224.332 25.614C224.524 24.846 224.644 24.072 224.692 23.292C224.74 22.5 224.764 21.768 224.764 21.096V16.344ZM229.966 16.344H231.748V26.532C231.748 26.964 231.7 27.318 231.604 27.594C231.508 27.87 231.322 28.086 231.046 28.242C230.77 28.398 230.44 28.494 230.056 28.53C229.672 28.578 229.198 28.602 228.634 28.602C228.61 28.338 228.532 28.026 228.4 27.666C228.28 27.306 228.154 27.006 228.022 26.766C228.382 26.778 228.718 26.79 229.03 26.802C229.342 26.802 229.558 26.802 229.678 26.802C229.786 26.802 229.858 26.784 229.894 26.748C229.942 26.7 229.966 26.616 229.966 26.496V16.344ZM234.178 13.212H236.104C236.032 14.088 235.888 14.898 235.672 15.642C235.468 16.374 235.126 17.028 234.646 17.604C234.166 18.18 233.482 18.666 232.594 19.062C232.486 18.834 232.318 18.57 232.09 18.27C231.874 17.97 231.664 17.742 231.46 17.586C232.18 17.286 232.72 16.92 233.08 16.488C233.452 16.056 233.71 15.564 233.854 15.012C234.01 14.46 234.118 13.86 234.178 13.212ZM228.778 13.374H229.192L229.462 13.302L230.704 14.058C230.5 14.634 230.242 15.246 229.93 15.894C229.618 16.53 229.324 17.076 229.048 17.532C228.868 17.4 228.646 17.256 228.382 17.1C228.13 16.944 227.908 16.818 227.716 16.722C227.86 16.434 227.998 16.116 228.13 15.768C228.274 15.408 228.4 15.048 228.508 14.688C228.628 14.316 228.718 13.992 228.778 13.716V13.374Z" fill="#001F66"/>
<path d="M251.497 30.36C250.077 30.36 248.897 30.06 247.957 29.46C247.037 28.86 246.337 28.03 245.857 26.97C245.397 25.91 245.167 24.69 245.167 23.31V12.54C245.167 11.12 245.387 9.88 245.827 8.82C246.287 7.74 246.977 6.9 247.897 6.3C248.837 5.7 250.037 5.4 251.497 5.4C252.957 5.4 254.147 5.7 255.067 6.3C256.007 6.9 256.697 7.74 257.137 8.82C257.597 9.88 257.827 11.12 257.827 12.54V23.31C257.827 24.69 257.587 25.91 257.107 26.97C256.647 28.03 255.947 28.86 255.007 29.46C254.087 30.06 252.917 30.36 251.497 30.36ZM251.497 26.79C252.117 26.79 252.577 26.6 252.877 26.22C253.177 25.84 253.377 25.38 253.477 24.84C253.577 24.3 253.627 23.77 253.627 23.25V12.6C253.627 12.04 253.577 11.49 253.477 10.95C253.397 10.39 253.207 9.92 252.907 9.54C252.607 9.16 252.137 8.97 251.497 8.97C250.857 8.97 250.387 9.16 250.087 9.54C249.787 9.92 249.587 10.39 249.487 10.95C249.407 11.49 249.367 12.04 249.367 12.6V23.25C249.367 23.77 249.417 24.3 249.517 24.84C249.637 25.38 249.847 25.84 250.147 26.22C250.447 26.6 250.897 26.79 251.497 26.79Z" fill="#FF568F"/>
<path d="M263.44 12.852H277.552V14.994H265.6V28.602H263.44V12.852ZM276.526 12.852H278.704V26.082C278.704 26.658 278.632 27.108 278.488 27.432C278.344 27.768 278.086 28.026 277.714 28.206C277.342 28.386 276.874 28.494 276.31 28.53C275.758 28.578 275.08 28.602 274.276 28.602C274.24 28.398 274.18 28.164 274.096 27.9C274.012 27.636 273.916 27.372 273.808 27.108C273.7 26.856 273.592 26.634 273.484 26.442C273.832 26.466 274.18 26.484 274.528 26.496C274.888 26.496 275.206 26.496 275.482 26.496C275.758 26.496 275.95 26.496 276.058 26.496C276.226 26.484 276.346 26.448 276.418 26.388C276.49 26.316 276.526 26.202 276.526 26.046V12.852ZM264.61 19.548H277.588V21.672H264.61V19.548ZM269.866 14.022H272.026V20.61H269.866V14.022Z" fill="#001F66"/>
<defs>
<linearGradient id="paint0_linear_128_2524" x1="0" y1="18" x2="302" y2="18" gradientUnits="userSpaceOnUse">
<stop stop-color="#D8D8D8"/>
<stop offset="0.495192" stop-color="white"/>
<stop offset="1" stop-color="#D8D8D8"/>
</linearGradient>
</defs>
</svg>
