<svg width="336" height="113" viewBox="0 0 336 113" fill="none" xmlns="http://www.w3.org/2000/svg">
<rect width="336" height="113" fill="url(#paint0_linear_128_2506)"/>
<g filter="url(#filter0_d_128_2506)">
<path d="M13.6709 41.2588L14.1777 38.0586L15.0195 34.9189L16.1797 31.8955L17.6514 29.0068L19.4199 26.2832L21.4678 23.7539L23.7529 21.4688L26.2822 19.4209L29.0059 17.6523L31.8945 16.1807L34.918 15.0205L38.0576 14.1787L41.2578 13.6719L44.5 13.5029L47.7412 13.6719L50.9414 14.1787L54.0811 15.0205L57.1045 16.1807L59.9932 17.6523L62.7168 19.4209L65.2461 21.4688L67.5312 23.7539L69.5791 26.2832L71.3477 29.0068L72.8193 31.8955L73.9795 34.9189L74.8213 38.0586L75.3281 41.2588L75.4971 44.5L75.3281 47.7422L74.8213 50.9424L73.9795 54.082L72.8193 57.1055L71.3477 59.9941L69.5791 62.7178L67.5312 65.2471L65.2461 67.5322L62.7168 69.5801L59.9932 71.3486L57.1045 72.8203L54.0811 73.9805L50.9414 74.8223L47.7412 75.3291L44.5 75.498L41.2578 75.3291L38.0576 74.8223L34.918 73.9805L31.8945 72.8203L29.0059 71.3486L26.2822 69.5801L23.7529 67.5322L21.4678 65.2471L19.4199 62.7178L17.6514 59.9941L16.1797 57.1055L15.0195 54.082L14.1777 50.9424L13.6709 47.7422L13.502 44.5L13.6709 41.2588Z" fill="url(#paint1_linear_128_2506)" stroke="#D1AE3B" stroke-width="3"/>
<path d="M30.616 30.886H41.088L41.928 29.906C41.928 29.906 42.0167 29.9667 42.194 30.088C42.3713 30.2093 42.5767 30.3633 42.81 30.55C43.0527 30.7273 43.2767 30.9 43.482 31.068C43.4447 31.208 43.3093 31.278 43.076 31.278H30.742L30.616 30.886ZM30.728 36.668H40.864L41.732 35.604C41.732 35.604 41.7833 35.646 41.886 35.73C41.998 35.8047 42.138 35.9073 42.306 36.038C42.474 36.1593 42.6467 36.2947 42.824 36.444C43.0013 36.584 43.1693 36.7193 43.328 36.85C43.3093 36.9247 43.2627 36.9807 43.188 37.018C43.1227 37.0553 43.0387 37.074 42.936 37.074H30.84L30.728 36.668ZM31.386 33.266H40.374L41.228 32.244C41.228 32.244 41.3167 32.3093 41.494 32.44C41.6713 32.5707 41.8767 32.7293 42.11 32.916C42.3527 33.0933 42.572 33.266 42.768 33.434C42.74 33.5833 42.614 33.658 42.39 33.658H31.498L31.386 33.266ZM32.086 34.918H39.912L40.71 33.952C40.71 33.952 40.794 34.0127 40.962 34.134C41.13 34.2553 41.3307 34.4047 41.564 34.582C41.7973 34.7593 42.0073 34.9273 42.194 35.086C42.1567 35.2353 42.0307 35.31 41.816 35.31H32.198L32.086 34.918ZM32.212 28.506C32.7907 28.5993 33.2433 28.744 33.57 28.94C33.906 29.1267 34.1347 29.332 34.256 29.556C34.3867 29.78 34.438 29.9947 34.41 30.2C34.382 30.396 34.298 30.564 34.158 30.704C34.0273 30.8347 33.8593 30.9047 33.654 30.914C33.458 30.914 33.248 30.83 33.024 30.662C33.024 30.41 32.9773 30.158 32.884 29.906C32.7907 29.654 32.674 29.4113 32.534 29.178C32.394 28.9447 32.2447 28.7487 32.086 28.59L32.212 28.506ZM34.004 31.096C34.564 31.1893 34.998 31.3293 35.306 31.516C35.614 31.7027 35.824 31.9033 35.936 32.118C36.048 32.3233 36.0853 32.524 36.048 32.72C36.0107 32.9067 35.9173 33.0607 35.768 33.182C35.628 33.3033 35.4553 33.364 35.25 33.364C35.054 33.3547 34.8487 33.2613 34.634 33.084C34.6247 32.86 34.5827 32.6313 34.508 32.398C34.4333 32.1647 34.34 31.9407 34.228 31.726C34.1253 31.5113 34.0087 31.3247 33.878 31.166L34.004 31.096ZM40.262 28.408L42.236 29.024C42.208 29.108 42.1473 29.1733 42.054 29.22C41.97 29.2573 41.8487 29.2713 41.69 29.262C41.4287 29.5327 41.0973 29.8313 40.696 30.158C40.304 30.4753 39.9027 30.76 39.492 31.012H39.282C39.4033 30.7693 39.5247 30.4987 39.646 30.2C39.7673 29.892 39.8793 29.584 39.982 29.276C40.094 28.9587 40.1873 28.6693 40.262 28.408ZM38.568 31.068L40.584 31.614C40.528 31.8007 40.3507 31.8847 40.052 31.866C39.8 32.1273 39.4733 32.4073 39.072 32.706C38.68 32.9953 38.2927 33.252 37.91 33.476H37.7C37.868 33.14 38.0313 32.7433 38.19 32.286C38.3487 31.8287 38.4747 31.4227 38.568 31.068ZM35.082 28.114L36.958 28.268C36.9487 28.3613 36.9113 28.4407 36.846 28.506C36.7807 28.562 36.6733 28.5993 36.524 28.618V31.012H35.082V28.114ZM37.49 28.114L39.38 28.268C39.3707 28.3613 39.3333 28.4407 39.268 28.506C39.212 28.562 39.1047 28.604 38.946 28.632V31.012H37.49V28.114ZM35.278 36.682H37.238V36.906C36.5753 37.802 35.67 38.586 34.522 39.258C33.374 39.9207 32.0907 40.4527 30.672 40.854L30.574 40.672C31.246 40.3453 31.876 39.9673 32.464 39.538C33.0613 39.1087 33.598 38.6467 34.074 38.152C34.5593 37.6573 34.9607 37.1673 35.278 36.682ZM37.91 36.682C38.1993 37.0087 38.5587 37.3167 38.988 37.606C39.4267 37.8953 39.9027 38.1613 40.416 38.404C40.9293 38.6373 41.4567 38.838 41.998 39.006C42.5487 39.1647 43.0853 39.2953 43.608 39.398L43.594 39.552C43.3047 39.6173 43.0527 39.7667 42.838 40C42.6327 40.2333 42.488 40.532 42.404 40.896C41.7227 40.6253 41.088 40.294 40.5 39.902C39.9213 39.5007 39.3987 39.0387 38.932 38.516C38.4653 37.9933 38.0687 37.4147 37.742 36.78L37.91 36.682ZM36.132 33.462H37.77V40.868C37.77 40.9147 37.6533 40.9893 37.42 41.092C37.1867 41.204 36.8553 41.26 36.426 41.26H36.132V33.462ZM50.174 29.052H51.77V33.742H50.174V29.052ZM54.178 28.982H54.038L54.794 28.142L56.39 29.346C56.3527 29.402 56.2827 29.4627 56.18 29.528C56.0867 29.584 55.97 29.626 55.83 29.654V34.204C55.83 34.2413 55.7507 34.2927 55.592 34.358C55.4333 34.4233 55.2467 34.484 55.032 34.54C54.8267 34.5867 54.6353 34.61 54.458 34.61H54.178V28.982ZM47.178 31.25H55.158V31.656H47.178V31.25ZM47.178 33.616H55.158V34.022H47.178V33.616ZM46.268 28.982V28.296L48.004 28.982H54.976V29.374H47.892V34.246C47.892 34.302 47.822 34.372 47.682 34.456C47.5513 34.54 47.3787 34.6147 47.164 34.68C46.9587 34.7453 46.744 34.778 46.52 34.778H46.268V28.982ZM49.026 33.672H50.944V33.896C50.3373 34.8107 49.4833 35.562 48.382 36.15C47.2807 36.738 45.988 37.1953 44.504 37.522L44.406 37.326C45.4793 36.9247 46.408 36.4113 47.192 35.786C47.9853 35.1513 48.5967 34.4467 49.026 33.672ZM52.12 33.658C52.4653 34.106 52.932 34.484 53.52 34.792C54.1173 35.1 54.7707 35.3473 55.48 35.534C56.1893 35.7207 56.8893 35.856 57.58 35.94L57.566 36.094C57.2673 36.178 57.0153 36.3507 56.81 36.612C56.614 36.864 56.4787 37.1907 56.404 37.592C55.732 37.34 55.1113 37.0413 54.542 36.696C53.9727 36.3413 53.4687 35.926 53.03 35.45C52.5913 34.9647 52.2367 34.4 51.966 33.756L52.12 33.658ZM52.176 35.52L54.122 35.688C54.1127 35.7533 54.0847 35.8093 54.038 35.856C53.9913 35.9027 53.912 35.9353 53.8 35.954V40.812C53.8 40.8493 53.73 40.9007 53.59 40.966C53.45 41.0407 53.2773 41.106 53.072 41.162C52.876 41.218 52.6847 41.246 52.498 41.246H52.176V35.52ZM48.242 35.548L50.314 35.744C50.3047 35.8373 50.2673 35.9167 50.202 35.982C50.1367 36.0473 50.02 36.0893 49.852 36.108V37.256C49.8427 37.6573 49.7727 38.0587 49.642 38.46C49.5207 38.852 49.2827 39.23 48.928 39.594C48.5827 39.9487 48.088 40.2707 47.444 40.56C46.8 40.8493 45.9647 41.0873 44.938 41.274L44.84 41.12C45.5587 40.8773 46.142 40.602 46.59 40.294C47.0473 39.9953 47.3927 39.678 47.626 39.342C47.8687 39.006 48.032 38.6607 48.116 38.306C48.2 37.942 48.242 37.5827 48.242 37.228V35.548ZM26.43 46.564H33.542V46.97H26.43V46.564ZM25.996 51.24H29.132V51.646H25.996V51.24ZM25.996 52.892H29.132V53.298H25.996V52.892ZM26.43 48.16H33.542V48.552H26.43V48.16ZM32.744 45.024H32.604L33.36 44.198L34.956 45.388C34.9187 45.444 34.8533 45.5047 34.76 45.57C34.6667 45.626 34.5453 45.668 34.396 45.696V48.692C34.396 48.72 34.3167 48.7667 34.158 48.832C33.9993 48.888 33.8127 48.9393 33.598 48.986C33.3927 49.0327 33.2013 49.056 33.024 49.056H32.744V45.024ZM25.618 45.024V44.338L27.326 45.024H33.458V45.416H27.228V48.846C27.228 48.8927 27.158 48.958 27.018 49.042C26.878 49.1167 26.7007 49.1867 26.486 49.252C26.2807 49.3173 26.066 49.35 25.842 49.35H25.618V45.024ZM23.462 49.63H34.102L34.998 48.426C34.998 48.426 35.054 48.4727 35.166 48.566C35.278 48.65 35.418 48.762 35.586 48.902C35.754 49.042 35.9267 49.1913 36.104 49.35C36.2907 49.5087 36.4587 49.658 36.608 49.798C36.5707 49.9473 36.44 50.022 36.216 50.022H23.574L23.462 49.63ZM30.252 51.226H35.04V51.618H30.378L30.252 51.226ZM28.446 49.63H30.014V56.896C30.014 56.9333 29.902 57.0033 29.678 57.106C29.454 57.218 29.1367 57.274 28.726 57.274H28.446V49.63ZM25.156 49.63H26.71V55.244L25.156 55.538V49.63ZM23.434 55.02C23.7607 55.0013 24.204 54.964 24.764 54.908C25.3333 54.852 25.9773 54.7867 26.696 54.712C27.4147 54.628 28.1473 54.544 28.894 54.46L28.922 54.642C28.4553 54.8567 27.872 55.1133 27.172 55.412C26.472 55.7013 25.6227 56.0327 24.624 56.406C24.5307 56.5927 24.4 56.7047 24.232 56.742L23.434 55.02ZM33.766 51.226H33.612L34.508 50.33L36.062 51.618C36.0153 51.6927 35.9547 51.744 35.88 51.772C35.8053 51.8 35.6887 51.8233 35.53 51.842C35.1567 52.9433 34.55 53.9513 33.71 54.866C32.8793 55.7807 31.7593 56.4993 30.35 57.022L30.252 56.854C30.9053 56.4153 31.4653 55.8973 31.932 55.3C32.408 54.7027 32.7953 54.054 33.094 53.354C33.402 52.654 33.626 51.9447 33.766 51.226ZM31.218 51.268C31.4233 51.912 31.7033 52.4673 32.058 52.934C32.422 53.4007 32.8467 53.7973 33.332 54.124C33.8267 54.4413 34.3587 54.7073 34.928 54.922C35.5067 55.1273 36.118 55.2953 36.762 55.426L36.748 55.58C36.412 55.6547 36.1273 55.818 35.894 56.07C35.67 56.322 35.5067 56.6487 35.404 57.05C34.62 56.7047 33.9387 56.2987 33.36 55.832C32.7907 55.356 32.31 54.7587 31.918 54.04C31.5353 53.3213 31.2413 52.43 31.036 51.366L31.218 51.268ZM37.532 49.742H47.99L48.886 48.58C48.886 48.58 48.9373 48.6267 49.04 48.72C49.152 48.804 49.292 48.916 49.46 49.056C49.6373 49.1867 49.8147 49.3313 49.992 49.49C50.1787 49.6393 50.3513 49.7793 50.51 49.91C50.4727 50.0593 50.3373 50.134 50.104 50.134H37.658L37.532 49.742ZM45.806 49.742H47.626V49.966C47.43 50.89 47.1733 51.7113 46.856 52.43C46.548 53.1487 46.1467 53.7787 45.652 54.32C45.1667 54.852 44.5553 55.314 43.818 55.706C43.09 56.0887 42.208 56.4013 41.172 56.644C40.136 56.896 38.9087 57.0873 37.49 57.218L37.434 57.008C38.7873 56.7187 39.954 56.378 40.934 55.986C41.914 55.5847 42.7353 55.104 43.398 54.544C44.0607 53.9747 44.5833 53.298 44.966 52.514C45.358 51.73 45.638 50.806 45.806 49.742ZM41.046 52.962C42.53 53.0553 43.7853 53.214 44.812 53.438C45.848 53.662 46.6973 53.9233 47.36 54.222C48.032 54.5207 48.5407 54.8287 48.886 55.146C49.2407 55.4633 49.4647 55.762 49.558 56.042C49.6607 56.3313 49.6653 56.5787 49.572 56.784C49.488 56.9893 49.334 57.1247 49.11 57.19C48.8953 57.2647 48.6433 57.2367 48.354 57.106C47.9807 56.7233 47.4347 56.2893 46.716 55.804C46.0067 55.3187 45.1667 54.8427 44.196 54.376C43.2347 53.9 42.1753 53.4847 41.018 53.13L41.046 52.962ZM42.446 47.068L44.602 47.474C44.5833 47.5673 44.532 47.6467 44.448 47.712C44.364 47.7773 44.2193 47.81 44.014 47.81C43.9113 48.09 43.776 48.44 43.608 48.86C43.4493 49.28 43.2673 49.7373 43.062 50.232C42.866 50.7173 42.656 51.212 42.432 51.716C42.2173 52.2107 42.0073 52.6867 41.802 53.144C41.5967 53.592 41.41 53.984 41.242 54.32C41.046 54.404 40.7847 54.4413 40.458 54.432C40.1407 54.4227 39.814 54.348 39.478 54.208C39.6647 53.8627 39.87 53.4473 40.094 52.962C40.3273 52.4767 40.5607 51.9587 40.794 51.408C41.0367 50.8573 41.2653 50.3113 41.48 49.77C41.704 49.2193 41.9 48.7153 42.068 48.258C42.236 47.7913 42.362 47.3947 42.446 47.068ZM39.282 46.312H49.082V46.718H39.282V46.312ZM43.132 44.1L45.33 44.268C45.3207 44.3613 45.2787 44.4453 45.204 44.52C45.1387 44.5853 45.0127 44.6367 44.826 44.674V46.466H43.132V44.1ZM39.212 45.276H39.394C39.646 45.8453 39.7813 46.3587 39.8 46.816C39.8187 47.2733 39.758 47.6607 39.618 47.978C39.4873 48.286 39.31 48.5193 39.086 48.678C38.9367 48.79 38.764 48.8507 38.568 48.86C38.3813 48.8693 38.2087 48.832 38.05 48.748C37.8913 48.6547 37.7747 48.5193 37.7 48.342C37.6067 48.09 37.6207 47.8613 37.742 47.656C37.8633 47.4507 38.036 47.292 38.26 47.18C38.4187 47.0773 38.5727 46.9327 38.722 46.746C38.8807 46.55 39.0067 46.326 39.1 46.074C39.2027 45.822 39.24 45.556 39.212 45.276ZM48.34 46.312H48.172L49.04 45.458L50.524 46.872C50.4307 46.9747 50.2487 47.0307 49.978 47.04C49.7913 47.208 49.5673 47.3947 49.306 47.6C49.054 47.8053 48.788 48.0013 48.508 48.188C48.228 48.3747 47.962 48.5333 47.71 48.664L47.584 48.566C47.6773 48.3607 47.7753 48.1227 47.878 47.852C47.9807 47.572 48.074 47.2967 48.158 47.026C48.242 46.746 48.3027 46.508 48.34 46.312ZM56.446 45.052H61.752V45.444H56.572L56.446 45.052ZM60.842 48.902H62.956V49.294H60.744L60.842 48.902ZM57.692 45.052H59.274C59.2647 45.9947 59.246 46.9187 59.218 47.824C59.1993 48.72 59.134 49.5973 59.022 50.456C58.9193 51.3053 58.7467 52.122 58.504 52.906C58.2707 53.69 57.9393 54.432 57.51 55.132C57.09 55.832 56.544 56.4853 55.872 57.092L55.676 56.896C56.2173 56.0467 56.628 55.1553 56.908 54.222C57.1973 53.2887 57.3933 52.3227 57.496 51.324C57.608 50.316 57.6687 49.2893 57.678 48.244C57.6873 47.1893 57.692 46.1253 57.692 45.052ZM61.038 45.052H60.898L61.542 44.268L63.082 45.458C63.0353 45.514 62.9607 45.5653 62.858 45.612C62.7647 45.6587 62.6433 45.6913 62.494 45.71C62.4287 46.0367 62.3447 46.438 62.242 46.914C62.1393 47.39 62.032 47.8753 61.92 48.37C61.808 48.8647 61.7007 49.3127 61.598 49.714C61.234 49.9007 60.73 49.924 60.086 49.784C60.2167 49.2707 60.338 48.7247 60.45 48.146C60.5713 47.5673 60.6833 47.0073 60.786 46.466C60.898 45.9153 60.982 45.444 61.038 45.052ZM62.452 48.902H62.284L63.11 48.062L64.538 49.322C64.482 49.3967 64.412 49.448 64.328 49.476C64.2533 49.504 64.132 49.5273 63.964 49.546C63.768 50.3767 63.5067 51.1793 63.18 51.954C62.8533 52.7193 62.4333 53.4333 61.92 54.096C61.416 54.7587 60.7907 55.3607 60.044 55.902C59.2973 56.434 58.4013 56.882 57.356 57.246L57.244 57.078C58.308 56.49 59.19 55.776 59.89 54.936C60.5993 54.0867 61.1593 53.1533 61.57 52.136C61.9807 51.1093 62.2747 50.0313 62.452 48.902ZM59.106 46.382C59.2087 47.754 59.4 48.9533 59.68 49.98C59.9693 50.9973 60.352 51.8747 60.828 52.612C61.3133 53.3493 61.892 53.9793 62.564 54.502C63.236 55.0247 64.0013 55.4727 64.86 55.846L64.818 56C64.454 56.028 64.1273 56.1493 63.838 56.364C63.5487 56.588 63.32 56.8913 63.152 57.274C62.4147 56.7793 61.7847 56.224 61.262 55.608C60.7393 54.9827 60.31 54.2547 59.974 53.424C59.6473 52.5933 59.3953 51.6087 59.218 50.47C59.0407 49.3313 58.924 47.9967 58.868 46.466L59.106 46.382ZM53.548 50.568L55.046 50.442V56.84C55.046 56.8773 54.934 56.9567 54.71 57.078C54.4953 57.1993 54.1967 57.26 53.814 57.26H53.548V50.568ZM53.366 44.1L55.41 44.772C55.382 44.856 55.3213 44.926 55.228 44.982C55.1347 45.038 55.0133 45.066 54.864 45.066C54.5467 45.486 54.2013 45.9013 53.828 46.312C53.4547 46.7133 53.0907 47.0587 52.736 47.348L52.54 47.236C52.6707 46.8533 52.8107 46.3727 52.96 45.794C53.1093 45.2153 53.2447 44.6507 53.366 44.1ZM54.962 45.822L56.908 46.522C56.8707 46.606 56.8053 46.6713 56.712 46.718C56.628 46.7553 56.5067 46.7693 56.348 46.76C56.0867 47.1427 55.7647 47.5767 55.382 48.062C54.9993 48.5473 54.5933 49.0373 54.164 49.532C53.7347 50.0173 53.31 50.47 52.89 50.89H52.666C52.9367 50.4047 53.212 49.8633 53.492 49.266C53.772 48.6687 54.038 48.0713 54.29 47.474C54.5513 46.8673 54.7753 46.3167 54.962 45.822ZM51.406 50.26C51.686 50.2507 52.064 50.2367 52.54 50.218C53.0253 50.1993 53.5713 50.176 54.178 50.148C54.794 50.1107 55.424 50.078 56.068 50.05V50.246C55.6573 50.3953 55.144 50.5727 54.528 50.778C53.9213 50.9833 53.1933 51.212 52.344 51.464C52.3067 51.5573 52.2507 51.632 52.176 51.688C52.1013 51.7347 52.0313 51.7673 51.966 51.786L51.406 50.26ZM51.518 46.48C52.0687 46.5827 52.498 46.7273 52.806 46.914C53.1233 47.0913 53.3473 47.2873 53.478 47.502C53.6087 47.7073 53.6647 47.908 53.646 48.104C53.6367 48.3 53.5713 48.4633 53.45 48.594C53.3287 48.7153 53.1747 48.7853 52.988 48.804C52.8107 48.8133 52.624 48.7433 52.428 48.594C52.372 48.2393 52.2367 47.8753 52.022 47.502C51.8167 47.1287 51.602 46.816 51.378 46.564L51.518 46.48ZM55.13 48.958C55.6527 49.1727 56.054 49.406 56.334 49.658C56.6233 49.9007 56.8147 50.148 56.908 50.4C57.0107 50.6427 57.0387 50.8667 56.992 51.072C56.9453 51.268 56.852 51.4267 56.712 51.548C56.5813 51.6693 56.418 51.7253 56.222 51.716C56.0353 51.6973 55.844 51.5993 55.648 51.422C55.648 51.1513 55.6153 50.876 55.55 50.596C55.4847 50.3067 55.4007 50.0267 55.298 49.756C55.1953 49.4853 55.088 49.2427 54.976 49.028L55.13 48.958ZM55.312 52.038C55.788 52.262 56.1473 52.5 56.39 52.752C56.642 53.004 56.81 53.2513 56.894 53.494C56.978 53.7367 56.992 53.956 56.936 54.152C56.88 54.3387 56.7867 54.488 56.656 54.6C56.5253 54.7027 56.3667 54.7493 56.18 54.74C56.0027 54.7213 55.83 54.6233 55.662 54.446C55.6713 54.1847 55.648 53.914 55.592 53.634C55.5453 53.354 55.48 53.0833 55.396 52.822C55.3213 52.5513 55.242 52.3087 55.158 52.094L55.312 52.038ZM52.064 52.234L53.842 52.598C53.8233 52.6913 53.772 52.7707 53.688 52.836C53.6133 52.892 53.5013 52.92 53.352 52.92C53.156 53.5827 52.9087 54.1987 52.61 54.768C52.3207 55.328 51.98 55.7993 51.588 56.182L51.378 56.07C51.5647 55.5567 51.7187 54.9593 51.84 54.278C51.9613 53.5967 52.036 52.9153 52.064 52.234Z" fill="#82631A"/>
</g>
<path d="M93.7 39.634L97.236 41.012C97.1667 41.168 97.0453 41.2893 96.872 41.376C96.716 41.4627 96.4907 41.4887 96.196 41.454C95.4507 42.702 94.61 43.8373 93.674 44.86C92.738 45.8653 91.7673 46.706 90.762 47.382L90.424 47.174C91.0133 46.2553 91.6027 45.12 92.192 43.768C92.7987 42.416 93.3013 41.038 93.7 39.634ZM94.064 44.73L97.574 45.9C97.522 46.056 97.4093 46.186 97.236 46.29C97.0627 46.3767 96.8373 46.4113 96.56 46.394C95.8147 48.0407 94.9393 49.5313 93.934 50.866C92.9287 52.1833 91.8367 53.2753 90.658 54.142L90.32 53.934C90.8227 53.1887 91.308 52.322 91.776 51.334C92.244 50.346 92.6687 49.2887 93.05 48.162C93.4487 47.018 93.7867 45.874 94.064 44.73ZM97.34 39.868C98.3453 40.3013 99.1253 40.7867 99.68 41.324C100.235 41.844 100.607 42.364 100.798 42.884C100.989 43.404 101.041 43.872 100.954 44.288C100.885 44.704 100.72 45.0333 100.46 45.276C100.2 45.5187 99.8793 45.64 99.498 45.64C99.134 45.6227 98.77 45.432 98.406 45.068C98.4233 44.5133 98.3627 43.9327 98.224 43.326C98.1027 42.7193 97.938 42.13 97.73 41.558C97.522 40.9687 97.2967 40.4487 97.054 39.998L97.34 39.868ZM92.686 50.736L94.038 48.942L96.04 49.696C95.988 49.8173 95.9013 49.9213 95.78 50.008C95.6587 50.0773 95.4767 50.138 95.234 50.19V62.54C95.234 62.6267 95.1473 62.774 94.974 62.982C94.8007 63.2073 94.5493 63.398 94.22 63.554C93.908 63.7273 93.5527 63.814 93.154 63.814H92.686V50.736ZM96.378 46.42H103.684L105.01 44.418C105.01 44.418 105.149 44.548 105.426 44.808C105.703 45.068 106.024 45.38 106.388 45.744C106.769 46.0907 107.099 46.4287 107.376 46.758C107.324 47.018 107.099 47.148 106.7 47.148H96.586L96.378 46.42ZM102.124 52.686H103.788L105.01 50.71C105.01 50.71 105.14 50.84 105.4 51.1C105.66 51.36 105.963 51.672 106.31 52.036C106.657 52.3827 106.951 52.712 107.194 53.024C107.125 53.3013 106.899 53.44 106.518 53.44H102.124V52.686ZM98.666 54.844C99.03 56.3693 99.472 57.548 99.992 58.38C100.512 59.1947 101.145 59.758 101.89 60.07C102.635 60.382 103.511 60.538 104.516 60.538C104.759 60.538 105.062 60.538 105.426 60.538C105.807 60.538 106.197 60.538 106.596 60.538C106.995 60.5207 107.333 60.512 107.61 60.512V60.85C107.246 60.902 106.977 61.162 106.804 61.63C106.648 62.098 106.579 62.6353 106.596 63.242C106.423 63.242 106.189 63.242 105.894 63.242C105.617 63.242 105.339 63.242 105.062 63.242C104.785 63.242 104.551 63.242 104.36 63.242C103.233 63.242 102.254 63.008 101.422 62.54C100.607 62.072 99.94 61.24 99.42 60.044C98.9173 58.8307 98.5793 57.132 98.406 54.948L98.666 54.844ZM86.03 51.204L88.708 50.996V63.034C88.708 63.1207 88.5087 63.268 88.11 63.476C87.7113 63.7013 87.174 63.814 86.498 63.814H86.03V51.204ZM86.108 39.4L89.592 40.544C89.5227 40.7 89.41 40.83 89.254 40.934C89.098 41.038 88.8813 41.09 88.604 41.09C88.1013 41.6967 87.5467 42.3033 86.94 42.91C86.3507 43.5167 85.7787 44.0367 85.224 44.47L84.86 44.288C85.068 43.6813 85.2847 42.936 85.51 42.052C85.7353 41.1507 85.9347 40.2667 86.108 39.4ZM88.552 42.806L91.854 44.028C91.802 44.1667 91.6893 44.2793 91.516 44.366C91.3427 44.4353 91.1173 44.4613 90.84 44.444C90.4067 45.12 89.8867 45.8653 89.28 46.68C88.6733 47.4947 88.006 48.3007 87.278 49.098C86.5673 49.878 85.8393 50.606 85.094 51.282H84.626C85.1287 50.4847 85.6227 49.592 86.108 48.604C86.6107 47.616 87.07 46.6193 87.486 45.614C87.902 44.5913 88.2573 43.6553 88.552 42.806ZM82.65 50.502C83.1007 50.4847 83.7333 50.4673 84.548 50.45C85.3627 50.4153 86.2813 50.372 87.304 50.32C88.3267 50.268 89.3667 50.2073 90.424 50.138V50.502C89.748 50.7793 88.8987 51.1087 87.876 51.49C86.8707 51.8713 85.6747 52.3047 84.288 52.79C84.2013 52.9633 84.0887 53.0933 83.95 53.18C83.8287 53.2493 83.6987 53.3013 83.56 53.336L82.65 50.502ZM83.118 43.17C84.0887 43.43 84.8427 43.7507 85.38 44.132C85.9173 44.496 86.29 44.8773 86.498 45.276C86.706 45.6747 86.784 46.056 86.732 46.42C86.68 46.7667 86.5413 47.0527 86.316 47.278C86.0907 47.486 85.8133 47.5987 85.484 47.616C85.1547 47.616 84.8167 47.4687 84.47 47.174C84.4353 46.498 84.2533 45.8133 83.924 45.12C83.5947 44.4093 83.2393 43.8113 82.858 43.326L83.118 43.17ZM88.708 47.876C89.7653 48.292 90.5367 48.7687 91.022 49.306C91.5073 49.826 91.7847 50.3287 91.854 50.814C91.9233 51.282 91.8453 51.6807 91.62 52.01C91.412 52.3393 91.126 52.53 90.762 52.582C90.398 52.634 90.0167 52.4693 89.618 52.088C89.618 51.412 89.488 50.7013 89.228 49.956C88.9853 49.1933 88.7167 48.5433 88.422 48.006L88.708 47.876ZM89.15 53.778C90.1207 54.3847 90.8227 55.0087 91.256 55.65C91.6893 56.2913 91.9233 56.8893 91.958 57.444C91.9927 57.9813 91.8973 58.4233 91.672 58.77C91.4467 59.1167 91.152 59.3073 90.788 59.342C90.424 59.3767 90.06 59.2033 89.696 58.822C89.7307 58.2673 89.7047 57.704 89.618 57.132C89.5313 56.5427 89.4187 55.9707 89.28 55.416C89.1413 54.844 88.9853 54.3327 88.812 53.882L89.15 53.778ZM83.768 53.96L86.94 54.584C86.888 54.7573 86.784 54.9047 86.628 55.026C86.4893 55.13 86.2813 55.1907 86.004 55.208C85.6747 56.456 85.2673 57.6433 84.782 58.77C84.2967 59.8793 83.7073 60.824 83.014 61.604L82.598 61.396C82.9273 60.3907 83.196 59.2293 83.404 57.912C83.612 56.5773 83.7333 55.26 83.768 53.96ZM103.086 39.66L106.778 40.7C106.726 40.856 106.622 40.986 106.466 41.09C106.31 41.1767 106.085 41.2113 105.79 41.194C105.357 42.026 104.785 42.962 104.074 44.002C103.381 45.042 102.635 45.9867 101.838 46.836H101.448C101.691 46.1427 101.916 45.38 102.124 44.548C102.332 43.6987 102.514 42.8493 102.67 42C102.843 41.1507 102.982 40.3707 103.086 39.66ZM96.82 50.684L100.07 50.97C100.053 51.126 99.9747 51.2647 99.836 51.386C99.7147 51.5073 99.524 51.5853 99.264 51.62C99.2293 52.7987 99.1773 53.9513 99.108 55.078C99.0387 56.1873 98.8913 57.262 98.666 58.302C98.458 59.342 98.12 60.3213 97.652 61.24C97.2013 62.1587 96.5513 62.9993 95.702 63.762L95.39 63.398C95.7887 62.5487 96.092 61.6387 96.3 60.668C96.508 59.6973 96.638 58.6747 96.69 57.6C96.7593 56.5253 96.794 55.4073 96.794 54.246C96.8113 53.0847 96.82 51.8973 96.82 50.684ZM100.538 46.472H103.268V62.306L100.538 60.798V46.472ZM109.378 41.428H118.764L120.246 39.582C120.246 39.582 120.402 39.7033 120.714 39.946C121.026 40.1713 121.399 40.4487 121.832 40.778C122.265 41.1073 122.647 41.428 122.976 41.74C122.907 42.0173 122.673 42.156 122.274 42.156H109.586L109.378 41.428ZM108.832 46.472H119.57L121 44.444C121 44.444 121.147 44.574 121.442 44.834C121.754 45.094 122.109 45.406 122.508 45.77C122.924 46.134 123.279 46.472 123.574 46.784C123.522 47.0613 123.297 47.2 122.898 47.2H109.04L108.832 46.472ZM123.548 41.012L127.188 41.35C127.171 41.506 127.101 41.6447 126.98 41.766C126.859 41.87 126.642 41.948 126.33 42V50.138C126.33 50.2073 126.209 50.3027 125.966 50.424C125.741 50.528 125.446 50.6233 125.082 50.71C124.735 50.7793 124.389 50.814 124.042 50.814H123.548V41.012ZM116.71 41.428H119.57V53.518C119.553 53.5873 119.336 53.7173 118.92 53.908C118.504 54.0813 117.941 54.168 117.23 54.168H116.71V41.428ZM128.982 39.868L132.752 40.206C132.735 40.3967 132.657 40.5527 132.518 40.674C132.379 40.778 132.163 40.856 131.868 40.908V51.282C131.868 51.958 131.79 52.53 131.634 52.998C131.478 53.4487 131.149 53.8127 130.646 54.09C130.143 54.3673 129.363 54.558 128.306 54.662C128.271 54.2113 128.219 53.83 128.15 53.518C128.081 53.1887 127.968 52.9113 127.812 52.686C127.639 52.478 127.413 52.296 127.136 52.14C126.859 51.984 126.451 51.854 125.914 51.75V51.386C125.914 51.386 126.018 51.3947 126.226 51.412C126.451 51.4293 126.72 51.4467 127.032 51.464C127.344 51.4813 127.639 51.4987 127.916 51.516C128.211 51.5333 128.419 51.542 128.54 51.542C128.713 51.542 128.826 51.516 128.878 51.464C128.947 51.3947 128.982 51.2907 128.982 51.152V39.868ZM119.388 52.92L123.444 53.258C123.427 53.4487 123.349 53.6047 123.21 53.726C123.089 53.8473 122.855 53.934 122.508 53.986V62.696H119.388V52.92ZM111.172 56.768H126.434L128.02 54.688C128.02 54.688 128.124 54.766 128.332 54.922C128.54 55.078 128.791 55.2773 129.086 55.52C129.381 55.7627 129.693 56.0227 130.022 56.3C130.369 56.5773 130.689 56.8373 130.984 57.08C130.915 57.3573 130.663 57.496 130.23 57.496H111.38L111.172 56.768ZM108.806 62.28H128.514L130.152 60.148C130.152 60.148 130.256 60.226 130.464 60.382C130.672 60.538 130.932 60.746 131.244 61.006C131.573 61.2487 131.903 61.5087 132.232 61.786C132.579 62.0633 132.899 62.332 133.194 62.592C133.125 62.8693 132.873 63.008 132.44 63.008H109.04L108.806 62.28ZM111.9 41.428H114.682V45.666C114.682 46.4113 114.621 47.2 114.5 48.032C114.379 48.864 114.127 49.6873 113.746 50.502C113.365 51.3167 112.784 52.0967 112.004 52.842C111.241 53.57 110.201 54.22 108.884 54.792L108.65 54.532C109.638 53.6653 110.357 52.738 110.808 51.75C111.259 50.762 111.553 49.7567 111.692 48.734C111.831 47.694 111.9 46.6713 111.9 45.666V41.428Z" fill="white"/>
<path d="M274.704 41.792V40.44L278.006 41.792H293.762V42.52H277.772V62.592C277.772 62.7307 277.651 62.8867 277.408 63.06C277.165 63.2333 276.845 63.3893 276.446 63.528C276.065 63.6667 275.657 63.736 275.224 63.736H274.704V41.792ZM292.306 41.792H292.046L293.45 40.128L296.466 42.494C296.397 42.598 296.267 42.702 296.076 42.806C295.903 42.91 295.686 42.988 295.426 43.04V60.07C295.426 60.746 295.322 61.3267 295.114 61.812C294.923 62.3147 294.516 62.7133 293.892 63.008C293.268 63.3027 292.315 63.5107 291.032 63.632C290.963 63.164 290.867 62.7567 290.746 62.41C290.642 62.0633 290.46 61.786 290.2 61.578C289.923 61.3527 289.567 61.1533 289.134 60.98C288.718 60.8067 288.094 60.6593 287.262 60.538V60.2C287.262 60.2 287.444 60.2087 287.808 60.226C288.189 60.2433 288.64 60.2693 289.16 60.304C289.697 60.3387 290.2 60.3647 290.668 60.382C291.136 60.3993 291.457 60.408 291.63 60.408C291.89 60.408 292.063 60.356 292.15 60.252C292.254 60.148 292.306 59.992 292.306 59.784V41.792ZM276.316 51.204H293.632V51.932H276.316V51.204ZM283.388 41.792H286.43V51.776H283.388V41.792ZM305.02 50.814C304.067 50.814 303.139 51.0047 302.238 51.386C301.337 51.75 300.496 52.3307 299.716 53.128L299.274 52.738C299.95 51.7673 300.661 50.996 301.406 50.424C302.169 49.8347 302.949 49.4187 303.746 49.176C304.543 48.916 305.341 48.786 306.138 48.786C306.953 48.786 307.811 48.942 308.712 49.254C309.631 49.5487 310.584 49.9733 311.572 50.528C312.248 50.892 312.881 51.2127 313.47 51.49C314.077 51.7673 314.666 51.984 315.238 52.14C315.81 52.296 316.391 52.374 316.98 52.374C317.951 52.374 318.878 52.1833 319.762 51.802C320.663 51.4033 321.513 50.8053 322.31 50.008L322.726 50.398C322.067 51.3687 321.357 52.1487 320.594 52.738C319.849 53.3273 319.077 53.752 318.28 54.012C317.483 54.272 316.677 54.402 315.862 54.402C315.047 54.402 314.181 54.2547 313.262 53.96C312.361 53.648 311.416 53.2147 310.428 52.66C309.769 52.296 309.137 51.9753 308.53 51.698C307.923 51.4207 307.334 51.204 306.762 51.048C306.19 50.892 305.609 50.814 305.02 50.814Z" fill="white"/>
<g filter="url(#filter1_d_128_2506)">
<path d="M152.023 64.22V53.756V52.748V31.34H151.159L152.839 30.908L146.599 40.556L139.447 51.596L139.975 49.484V50.396H164.119V55.388H137.623V51.356L153.511 27.02H158.887V64.22H152.023ZM169.174 72.572L168.646 71.228C170.406 70.364 171.782 69.404 172.774 68.348C173.798 67.324 174.518 65.884 174.934 64.028L175.558 65.852L172.102 64.076C171.046 63.532 170.294 62.908 169.846 62.204C169.43 61.5 169.222 60.796 169.222 60.092C169.222 58.876 169.638 57.852 170.47 57.02C171.334 56.156 172.39 55.724 173.638 55.724C174.374 55.724 175.03 55.82 175.606 56.012C176.182 56.204 176.742 56.556 177.286 57.068C177.542 57.772 177.718 58.412 177.814 58.988C177.942 59.564 178.006 60.236 178.006 61.004C178.006 63.916 177.206 66.38 175.606 68.396C174.038 70.444 171.894 71.836 169.174 72.572ZM195.71 64.316C191.838 64.316 188.958 63.532 187.07 61.964C185.214 60.364 184.286 58.364 184.286 55.964C184.286 53.756 185.054 51.884 186.59 50.348C188.158 48.812 190.414 47.596 193.358 46.7V46.412L193.934 46.988C192.75 48.204 191.902 49.436 191.39 50.684C190.878 51.9 190.622 53.356 190.622 55.052C190.622 57.644 191.118 59.564 192.11 60.812C193.134 62.028 194.542 62.636 196.334 62.636C198.094 62.636 199.422 62.14 200.318 61.148C201.246 60.124 201.71 58.716 201.71 56.924C201.71 55.74 201.454 54.62 200.942 53.564C200.462 52.508 199.614 51.484 198.398 50.492C197.214 49.5 195.534 48.54 193.358 47.612C190.574 46.428 188.478 44.908 187.07 43.052C185.694 41.164 185.006 39.02 185.006 36.62C185.006 34.636 185.518 32.908 186.542 31.436C187.566 29.964 188.958 28.828 190.718 28.028C192.478 27.228 194.478 26.828 196.718 26.828C199.182 26.828 201.198 27.212 202.766 27.98C204.366 28.748 205.55 29.772 206.318 31.052C207.086 32.3 207.47 33.66 207.47 35.132C207.47 36.828 206.814 38.428 205.502 39.932C204.222 41.404 202.062 42.7 199.022 43.82V43.964L198.638 43.58C199.63 42.268 200.334 40.94 200.75 39.596C201.166 38.22 201.374 36.652 201.374 34.892C201.374 33.004 200.942 31.468 200.078 30.284C199.246 29.1 198.062 28.508 196.526 28.508C195.662 28.508 194.846 28.732 194.078 29.18C193.31 29.628 192.686 30.268 192.206 31.1C191.726 31.9 191.486 32.86 191.486 33.98C191.486 34.972 191.678 35.98 192.062 37.004C192.478 37.996 193.246 38.988 194.366 39.98C195.518 40.972 197.182 41.948 199.358 42.908C202.558 44.316 204.91 45.932 206.414 47.756C207.918 49.548 208.67 51.644 208.67 54.044C208.67 56.092 208.174 57.9 207.182 59.468C206.19 61.004 204.734 62.204 202.814 63.068C200.894 63.9 198.526 64.316 195.71 64.316ZM225.868 64.316C223.66 64.316 221.596 63.66 219.676 62.348C217.756 61.036 216.204 58.988 215.02 56.204C213.836 53.42 213.244 49.852 213.244 45.5C213.244 41.148 213.836 37.612 215.02 34.892C216.204 32.14 217.756 30.108 219.676 28.796C221.596 27.484 223.66 26.828 225.868 26.828C228.076 26.828 230.14 27.484 232.06 28.796C234.012 30.108 235.58 32.14 236.764 34.892C237.948 37.612 238.54 41.148 238.54 45.5C238.54 49.852 237.948 53.42 236.764 56.204C235.58 58.988 234.012 61.036 232.06 62.348C230.14 63.66 228.076 64.316 225.868 64.316ZM225.868 62.636C226.572 62.636 227.244 62.38 227.884 61.868C228.524 61.324 229.084 60.412 229.564 59.132C230.076 57.82 230.476 56.06 230.764 53.852C231.052 51.644 231.196 48.86 231.196 45.5C231.196 42.172 231.052 39.404 230.764 37.196C230.476 34.988 230.076 33.26 229.564 32.012C229.084 30.732 228.524 29.836 227.884 29.324C227.244 28.78 226.572 28.508 225.868 28.508C225.164 28.508 224.492 28.78 223.852 29.324C223.212 29.836 222.636 30.732 222.124 32.012C221.644 33.26 221.26 34.988 220.972 37.196C220.716 39.372 220.588 42.14 220.588 45.5C220.588 48.86 220.716 51.66 220.972 53.9C221.26 56.108 221.644 57.852 222.124 59.132C222.636 60.412 223.212 61.324 223.852 61.868C224.492 62.38 225.164 62.636 225.868 62.636ZM255.258 64.316C253.05 64.316 250.986 63.66 249.066 62.348C247.146 61.036 245.594 58.988 244.41 56.204C243.226 53.42 242.634 49.852 242.634 45.5C242.634 41.148 243.226 37.612 244.41 34.892C245.594 32.14 247.146 30.108 249.066 28.796C250.986 27.484 253.05 26.828 255.258 26.828C257.466 26.828 259.53 27.484 261.45 28.796C263.402 30.108 264.97 32.14 266.154 34.892C267.338 37.612 267.93 41.148 267.93 45.5C267.93 49.852 267.338 53.42 266.154 56.204C264.97 58.988 263.402 61.036 261.45 62.348C259.53 63.66 257.466 64.316 255.258 64.316ZM255.258 62.636C255.962 62.636 256.634 62.38 257.274 61.868C257.914 61.324 258.474 60.412 258.954 59.132C259.466 57.82 259.866 56.06 260.154 53.852C260.442 51.644 260.586 48.86 260.586 45.5C260.586 42.172 260.442 39.404 260.154 37.196C259.866 34.988 259.466 33.26 258.954 32.012C258.474 30.732 257.914 29.836 257.274 29.324C256.634 28.78 255.962 28.508 255.258 28.508C254.554 28.508 253.882 28.78 253.242 29.324C252.602 29.836 252.026 30.732 251.514 32.012C251.034 33.26 250.65 34.988 250.362 37.196C250.106 39.372 249.978 42.14 249.978 45.5C249.978 48.86 250.106 51.66 250.362 53.9C250.65 56.108 251.034 57.852 251.514 59.132C252.026 60.412 252.602 61.324 253.242 61.868C253.882 62.38 254.554 62.636 255.258 62.636Z" fill="#FFE600"/>
</g>
<path d="M14.535 90.234H21.568V91.742H14.535V90.234ZM21.048 90.234H22.686C22.686 90.234 22.686 90.2773 22.686 90.364C22.686 90.442 22.686 90.5373 22.686 90.65C22.686 90.754 22.6817 90.8407 22.673 90.91C22.6383 91.8893 22.5993 92.7343 22.556 93.445C22.5127 94.147 22.4607 94.732 22.4 95.2C22.348 95.668 22.283 96.0407 22.205 96.318C22.127 96.5953 22.0317 96.8033 21.919 96.942C21.7457 97.15 21.5637 97.2973 21.373 97.384C21.191 97.4707 20.9743 97.5313 20.723 97.566C20.5063 97.6007 20.2203 97.618 19.865 97.618C19.5097 97.6267 19.137 97.6223 18.747 97.605C18.7383 97.371 18.6863 97.1023 18.591 96.799C18.4957 96.5043 18.3787 96.2487 18.24 96.032C18.604 96.058 18.942 96.0753 19.254 96.084C19.566 96.0927 19.8 96.097 19.956 96.097C20.0773 96.097 20.177 96.0883 20.255 96.071C20.333 96.045 20.411 95.993 20.489 95.915C20.593 95.8023 20.6753 95.5553 20.736 95.174C20.8053 94.784 20.866 94.212 20.918 93.458C20.97 92.6953 21.0133 91.7117 21.048 90.507V90.234ZM15.991 85.619L17.681 86.113C17.3603 86.867 16.9747 87.595 16.524 88.297C16.082 88.999 15.601 89.6447 15.081 90.234C14.5697 90.8233 14.0367 91.3347 13.482 91.768C13.3867 91.6553 13.2567 91.521 13.092 91.365C12.9273 91.2003 12.7583 91.04 12.585 90.884C12.4203 90.728 12.273 90.6023 12.143 90.507C12.6803 90.143 13.1917 89.7097 13.677 89.207C14.171 88.6957 14.6173 88.1367 15.016 87.53C15.4147 86.9147 15.7397 86.2777 15.991 85.619ZM20.944 85.593C21.152 86.009 21.4033 86.4337 21.698 86.867C21.9927 87.3003 22.3133 87.725 22.66 88.141C23.0153 88.5483 23.375 88.934 23.739 89.298C24.1117 89.662 24.4757 89.9783 24.831 90.247C24.6923 90.351 24.5363 90.4897 24.363 90.663C24.1983 90.8277 24.038 90.9967 23.882 91.17C23.7347 91.3433 23.609 91.5037 23.505 91.651C23.141 91.313 22.7727 90.936 22.4 90.52C22.0273 90.0953 21.659 89.649 21.295 89.181C20.9397 88.7043 20.6017 88.2147 20.281 87.712C19.9603 87.2007 19.67 86.698 19.41 86.204L20.944 85.593ZM16.849 90.676H18.552C18.4913 91.404 18.3917 92.1147 18.253 92.808C18.1143 93.5013 17.8847 94.1557 17.564 94.771C17.252 95.3863 16.797 95.9497 16.199 96.461C15.6097 96.9637 14.8297 97.3927 13.859 97.748C13.7983 97.6007 13.7117 97.4403 13.599 97.267C13.4863 97.0937 13.365 96.9203 13.235 96.747C13.105 96.5823 12.975 96.4393 12.845 96.318C13.7203 96.0407 14.4137 95.6983 14.925 95.291C15.4363 94.875 15.822 94.4243 16.082 93.939C16.342 93.445 16.5197 92.9207 16.615 92.366C16.719 91.8113 16.797 91.248 16.849 90.676ZM26.846 88.804H30.46V89.948H26.846V88.804ZM26.846 90.923H30.46V92.028H26.846V90.923ZM26.846 93.107H30.46V94.251H26.846V93.107ZM32.488 91.625H37.376V92.938H32.488V91.625ZM27.496 86.659H29.55V87.842H27.496V86.659ZM31.5 86.113H36.336V87.4H31.5V86.113ZM31.513 94.121H37.636V95.46H31.513V94.121ZM33.931 90.455H35.413V97.618H33.931V90.455ZM28.263 89.402H29.29V93.536H28.263V89.402ZM35.92 86.113H37.298C37.298 86.113 37.2937 86.178 37.285 86.308C37.285 86.4293 37.2807 86.5333 37.272 86.62C37.2547 87.3047 37.2287 87.8723 37.194 88.323C37.1593 88.7737 37.1117 89.129 37.051 89.389C36.9903 89.649 36.9123 89.8353 36.817 89.948C36.713 90.078 36.596 90.1733 36.466 90.234C36.336 90.2947 36.1887 90.3423 36.024 90.377C35.8767 90.3943 35.686 90.4073 35.452 90.416C35.218 90.416 34.9667 90.4117 34.698 90.403C34.6893 90.2037 34.6547 89.987 34.594 89.753C34.5333 89.5103 34.451 89.3067 34.347 89.142C34.555 89.1593 34.7413 89.1723 34.906 89.181C35.0707 89.1897 35.1963 89.194 35.283 89.194C35.361 89.194 35.426 89.1897 35.478 89.181C35.5387 89.1637 35.5907 89.1247 35.634 89.064C35.686 89.0033 35.7293 88.8777 35.764 88.687C35.7987 88.4877 35.829 88.1973 35.855 87.816C35.881 87.4347 35.9027 86.932 35.92 86.308V86.113ZM32.215 90.546L33.489 90.806C33.3763 91.3953 33.216 91.9717 33.008 92.535C32.8087 93.0983 32.5833 93.5707 32.332 93.952C32.2453 93.8913 32.1327 93.822 31.994 93.744C31.8553 93.666 31.7123 93.5923 31.565 93.523C31.4177 93.4537 31.292 93.3973 31.188 93.354C31.4393 93.0073 31.6517 92.5827 31.825 92.08C31.9983 91.5773 32.1283 91.066 32.215 90.546ZM27.184 85.437L28.575 85.749C28.4103 86.3383 28.2153 86.919 27.99 87.491C27.7647 88.063 27.5133 88.596 27.236 89.09C26.9673 89.584 26.677 90.0173 26.365 90.39C26.287 90.312 26.1787 90.2167 26.04 90.104C25.9013 89.9827 25.7627 89.8657 25.624 89.753C25.4853 89.6317 25.3597 89.5407 25.247 89.48C25.689 88.9947 26.079 88.3967 26.417 87.686C26.755 86.9667 27.0107 86.217 27.184 85.437ZM26.274 88.804H27.522V92.249C27.522 92.665 27.5047 93.1113 27.47 93.588C27.444 94.0647 27.392 94.55 27.314 95.044C27.2447 95.5293 27.1363 96.0017 26.989 96.461C26.8417 96.9117 26.6467 97.3233 26.404 97.696C26.3347 97.618 26.2307 97.5313 26.092 97.436C25.962 97.3493 25.8233 97.2627 25.676 97.176C25.5373 97.098 25.416 97.0373 25.312 96.994C25.6067 96.5433 25.8233 96.045 25.962 95.499C26.1007 94.9443 26.1873 94.3853 26.222 93.822C26.2567 93.25 26.274 92.7213 26.274 92.236V88.804ZM30.031 88.804H31.318V96.162C31.318 96.474 31.2833 96.7297 31.214 96.929C31.1447 97.1283 31.0103 97.2843 30.811 97.397C30.6117 97.5097 30.3733 97.579 30.096 97.605C29.8187 97.6397 29.4763 97.657 29.069 97.657C29.0517 97.4663 28.9953 97.241 28.9 96.981C28.8133 96.721 28.7223 96.5043 28.627 96.331C28.887 96.3397 29.1297 96.3483 29.355 96.357C29.5803 96.357 29.7363 96.357 29.823 96.357C29.901 96.357 29.953 96.344 29.979 96.318C30.0137 96.2833 30.031 96.2227 30.031 96.136V88.804ZM33.073 86.542H34.464C34.412 87.1747 34.308 87.7597 34.152 88.297C34.0047 88.8257 33.7577 89.298 33.411 89.714C33.0643 90.13 32.5703 90.481 31.929 90.767C31.851 90.6023 31.7297 90.4117 31.565 90.195C31.409 89.9783 31.2573 89.8137 31.11 89.701C31.63 89.4843 32.02 89.22 32.28 88.908C32.5487 88.596 32.735 88.2407 32.839 87.842C32.9517 87.4433 33.0297 87.01 33.073 86.542ZM29.173 86.659H29.472L29.667 86.607L30.564 87.153C30.4167 87.569 30.2303 88.011 30.005 88.479C29.7797 88.9383 29.5673 89.3327 29.368 89.662C29.238 89.5667 29.0777 89.4627 28.887 89.35C28.705 89.2373 28.5447 89.1463 28.406 89.077C28.51 88.869 28.6097 88.6393 28.705 88.388C28.809 88.128 28.9 87.868 28.978 87.608C29.0647 87.3393 29.1297 87.1053 29.173 86.906V86.659ZM42.147 90.754H50.61V92.236H42.147V90.754ZM43.681 87.439H50.051V88.908H43.681V87.439ZM45.657 85.45H47.217V91.534H45.657V85.45ZM43.46 85.632L45.02 85.918C44.916 86.5333 44.773 87.14 44.591 87.738C44.4177 88.336 44.2183 88.895 43.993 89.415C43.7677 89.9263 43.5163 90.3727 43.239 90.754C43.135 90.6673 43.0007 90.572 42.836 90.468C42.6713 90.3553 42.5023 90.247 42.329 90.143C42.1643 90.0303 42.0127 89.948 41.874 89.896C42.2727 89.3933 42.602 88.765 42.862 88.011C43.1307 87.2483 43.33 86.4553 43.46 85.632ZM46.788 91.729H48.309V95.668C48.309 95.876 48.322 96.006 48.348 96.058C48.3827 96.11 48.4563 96.136 48.569 96.136C48.595 96.136 48.634 96.136 48.686 96.136C48.738 96.136 48.7943 96.136 48.855 96.136C48.9157 96.136 48.972 96.136 49.024 96.136C49.0847 96.136 49.1323 96.136 49.167 96.136C49.2537 96.136 49.3187 96.0927 49.362 96.006C49.4053 95.9193 49.4357 95.746 49.453 95.486C49.4703 95.2173 49.4833 94.8187 49.492 94.29C49.596 94.368 49.726 94.4503 49.882 94.537C50.0467 94.615 50.2113 94.6843 50.376 94.745C50.5493 94.8057 50.701 94.8577 50.831 94.901C50.7963 95.577 50.7227 96.1057 50.61 96.487C50.506 96.8683 50.35 97.1327 50.142 97.28C49.9427 97.436 49.6697 97.514 49.323 97.514C49.2623 97.514 49.1843 97.514 49.089 97.514C48.9937 97.514 48.894 97.514 48.79 97.514C48.6947 97.514 48.6037 97.514 48.517 97.514C48.4303 97.514 48.3567 97.514 48.296 97.514C47.8887 97.514 47.5723 97.4577 47.347 97.345C47.1303 97.2323 46.983 97.0417 46.905 96.773C46.827 96.5043 46.788 96.1403 46.788 95.681V91.729ZM44.136 92.002H45.696C45.644 92.652 45.566 93.2587 45.462 93.822C45.358 94.3767 45.189 94.8923 44.955 95.369C44.7297 95.8457 44.409 96.2747 43.993 96.656C43.577 97.0373 43.031 97.371 42.355 97.657C42.2943 97.527 42.212 97.384 42.108 97.228C42.0127 97.072 41.9043 96.916 41.783 96.76C41.6617 96.6127 41.5403 96.4913 41.419 96.396C41.9997 96.1793 42.4633 95.9237 42.81 95.629C43.1567 95.3343 43.4167 95.005 43.59 94.641C43.772 94.2683 43.8977 93.861 43.967 93.419C44.045 92.977 44.1013 92.5047 44.136 92.002ZM38.975 86.659L39.898 85.58C40.158 85.71 40.431 85.8617 40.717 86.035C41.0117 86.1997 41.2847 86.373 41.536 86.555C41.796 86.737 42.004 86.9103 42.16 87.075L41.172 88.271C41.0333 88.0977 40.8383 87.9157 40.587 87.725C40.3443 87.5257 40.08 87.335 39.794 87.153C39.508 86.9623 39.235 86.7977 38.975 86.659ZM38.364 90.169L39.222 89.038C39.4907 89.1507 39.7767 89.285 40.08 89.441C40.3833 89.597 40.6693 89.7617 40.938 89.935C41.2153 90.1083 41.4363 90.273 41.601 90.429L40.691 91.677C40.535 91.521 40.327 91.352 40.067 91.17C39.807 90.988 39.5253 90.8103 39.222 90.637C38.9273 90.455 38.6413 90.299 38.364 90.169ZM38.715 96.604C38.923 96.2573 39.144 95.8587 39.378 95.408C39.6207 94.9573 39.8677 94.4763 40.119 93.965C40.3703 93.4537 40.6 92.9423 40.808 92.431L41.965 93.328C41.783 93.796 41.588 94.2727 41.38 94.758C41.172 95.2347 40.9597 95.7113 40.743 96.188C40.5263 96.656 40.3097 97.111 40.093 97.553L38.715 96.604ZM57.305 86.568H60.685V87.894H57.305V86.568ZM55.888 93.328H62.037V94.706H55.888V93.328ZM55.004 91.079H63.688V92.47H55.004V91.079ZM56.057 88.869H62.687V95.187H61.166V90.247H56.057V88.869ZM58.202 89.649H59.723V95.941C59.723 96.331 59.6753 96.6343 59.58 96.851C59.4933 97.0677 59.3157 97.2367 59.047 97.358C58.7957 97.4707 58.4837 97.54 58.111 97.566C57.7383 97.6007 57.2963 97.6137 56.785 97.605C56.7503 97.397 56.6853 97.15 56.59 96.864C56.5033 96.578 56.408 96.3353 56.304 96.136C56.642 96.1447 56.967 96.1533 57.279 96.162C57.5997 96.162 57.8163 96.162 57.929 96.162C58.033 96.1533 58.1023 96.1317 58.137 96.097C58.1803 96.0623 58.202 96.0017 58.202 95.915V89.649ZM57.175 85.437L58.657 85.879C58.4143 86.425 58.124 86.9623 57.786 87.491C57.448 88.0197 57.0883 88.5137 56.707 88.973C56.3343 89.4323 55.9617 89.831 55.589 90.169C55.5023 90.0737 55.381 89.961 55.225 89.831C55.0777 89.701 54.926 89.5753 54.77 89.454C54.614 89.324 54.4797 89.22 54.367 89.142C54.7397 88.8473 55.0993 88.505 55.446 88.115C55.8013 87.7163 56.1263 87.2873 56.421 86.828C56.7243 86.3687 56.9757 85.905 57.175 85.437ZM60.048 86.568H60.399L60.659 86.503L61.712 87.205C61.556 87.4823 61.3783 87.7813 61.179 88.102C60.9797 88.414 60.7673 88.7173 60.542 89.012C60.3253 89.3067 60.1217 89.571 59.931 89.805C59.7923 89.6837 59.6147 89.558 59.398 89.428C59.19 89.2893 59.008 89.1767 58.852 89.09C59.008 88.8733 59.164 88.6307 59.32 88.362C59.476 88.0933 59.619 87.829 59.749 87.569C59.879 87.3003 59.9787 87.062 60.048 86.854V86.568ZM52.157 86.75L52.924 85.593C53.1753 85.697 53.444 85.827 53.73 85.983C54.0247 86.1303 54.2977 86.2863 54.549 86.451C54.809 86.6157 55.0213 86.776 55.186 86.932L54.354 88.206C54.2067 88.05 54.0073 87.8853 53.756 87.712C53.5047 87.53 53.2403 87.3567 52.963 87.192C52.6857 87.0187 52.417 86.8713 52.157 86.75ZM51.455 90.351L52.196 89.168C52.4473 89.2633 52.716 89.3847 53.002 89.532C53.288 89.6793 53.561 89.8353 53.821 90C54.081 90.156 54.2933 90.3077 54.458 90.455L53.665 91.755C53.5177 91.599 53.3183 91.4387 53.067 91.274C52.8157 91.1007 52.547 90.9317 52.261 90.767C51.975 90.6023 51.7063 90.4637 51.455 90.351ZM51.871 96.461C52.079 96.1317 52.313 95.746 52.573 95.304C52.833 94.8533 53.093 94.3767 53.353 93.874C53.6217 93.3627 53.873 92.8557 54.107 92.353L55.147 93.393C54.939 93.8437 54.718 94.3073 54.484 94.784C54.25 95.2607 54.0117 95.7287 53.769 96.188C53.535 96.6473 53.2967 97.0893 53.054 97.514L51.871 96.461ZM65.066 96.5V94.94H67.146V88.869H65.391V87.673C65.8763 87.5863 66.2923 87.4823 66.639 87.361C66.9943 87.231 67.3237 87.0663 67.627 86.867H69.044V94.94H70.851V96.5H65.066ZM75.503 96.682C74.8876 96.682 74.3373 96.5737 73.852 96.357C73.3666 96.1403 72.981 95.837 72.695 95.447C72.4176 95.057 72.279 94.6107 72.279 94.108C72.279 93.692 72.3526 93.328 72.5 93.016C72.656 92.6953 72.8596 92.418 73.111 92.184C73.3623 91.95 73.6353 91.755 73.93 91.599V91.534C73.566 91.274 73.2626 90.9577 73.02 90.585C72.7773 90.2037 72.656 89.7617 72.656 89.259C72.656 88.739 72.7816 88.2883 73.033 87.907C73.2843 87.5257 73.6266 87.231 74.06 87.023C74.502 86.815 75.0003 86.711 75.555 86.711C76.127 86.711 76.621 86.8193 77.037 87.036C77.453 87.244 77.7736 87.5387 77.999 87.92C78.233 88.3013 78.35 88.752 78.35 89.272C78.35 89.584 78.2893 89.8787 78.168 90.156C78.0553 90.4333 77.9036 90.6847 77.713 90.91C77.531 91.1267 77.3316 91.313 77.115 91.469V91.534C77.4183 91.69 77.6913 91.885 77.934 92.119C78.1766 92.353 78.3716 92.6347 78.519 92.964C78.6663 93.2847 78.74 93.666 78.74 94.108C78.74 94.5933 78.6013 95.031 78.324 95.421C78.0553 95.811 77.6783 96.1187 77.193 96.344C76.7076 96.5693 76.1443 96.682 75.503 96.682ZM76.101 91.001C76.335 90.7497 76.5083 90.4897 76.621 90.221C76.7336 89.9523 76.79 89.675 76.79 89.389C76.79 89.129 76.738 88.8993 76.634 88.7C76.5386 88.492 76.3956 88.3317 76.205 88.219C76.0143 88.1063 75.7846 88.05 75.516 88.05C75.1866 88.05 74.9093 88.154 74.684 88.362C74.4586 88.57 74.346 88.869 74.346 89.259C74.346 89.5537 74.4196 89.8093 74.567 90.026C74.723 90.234 74.9353 90.416 75.204 90.572C75.4726 90.7193 75.7716 90.8623 76.101 91.001ZM75.542 95.33C75.8193 95.33 76.062 95.2823 76.27 95.187C76.4866 95.083 76.6556 94.9357 76.777 94.745C76.8983 94.5457 76.959 94.3117 76.959 94.043C76.959 93.7917 76.9026 93.575 76.79 93.393C76.686 93.2023 76.5386 93.0377 76.348 92.899C76.1573 92.7517 75.932 92.6173 75.672 92.496C75.412 92.3747 75.126 92.2447 74.814 92.106C74.554 92.3227 74.3416 92.587 74.177 92.899C74.0123 93.2023 73.93 93.536 73.93 93.9C73.93 94.186 73.9993 94.4373 74.138 94.654C74.2853 94.862 74.4803 95.0267 74.723 95.148C74.9656 95.2693 75.2386 95.33 75.542 95.33ZM80.4279 99.282L80.0249 98.242C80.5276 98.0427 80.9133 97.7827 81.1819 97.462C81.4593 97.1413 81.5979 96.7903 81.5979 96.409L81.5329 95.044L82.2089 96.175C82.1049 96.2703 81.9879 96.3397 81.8579 96.383C81.7366 96.4263 81.6066 96.448 81.4679 96.448C81.1559 96.448 80.8786 96.3527 80.6359 96.162C80.3933 95.9627 80.2719 95.681 80.2719 95.317C80.2719 94.979 80.3933 94.706 80.6359 94.498C80.8786 94.29 81.1733 94.186 81.5199 94.186C81.9533 94.186 82.2869 94.355 82.5209 94.693C82.7636 95.0223 82.8849 95.4817 82.8849 96.071C82.8849 96.8337 82.6726 97.4923 82.2479 98.047C81.8233 98.6017 81.2166 99.0133 80.4279 99.282ZM87.3985 96.682C86.7831 96.682 86.2328 96.5737 85.7475 96.357C85.2621 96.1403 84.8765 95.837 84.5905 95.447C84.3131 95.057 84.1745 94.6107 84.1745 94.108C84.1745 93.692 84.2481 93.328 84.3955 93.016C84.5515 92.6953 84.7551 92.418 85.0065 92.184C85.2578 91.95 85.5308 91.755 85.8255 91.599V91.534C85.4615 91.274 85.1581 90.9577 84.9155 90.585C84.6728 90.2037 84.5515 89.7617 84.5515 89.259C84.5515 88.739 84.6771 88.2883 84.9285 87.907C85.1798 87.5257 85.5221 87.231 85.9555 87.023C86.3975 86.815 86.8958 86.711 87.4505 86.711C88.0225 86.711 88.5165 86.8193 88.9325 87.036C89.3485 87.244 89.6691 87.5387 89.8945 87.92C90.1285 88.3013 90.2455 88.752 90.2455 89.272C90.2455 89.584 90.1848 89.8787 90.0635 90.156C89.9508 90.4333 89.7991 90.6847 89.6085 90.91C89.4265 91.1267 89.2271 91.313 89.0105 91.469V91.534C89.3138 91.69 89.5868 91.885 89.8295 92.119C90.0721 92.353 90.2671 92.6347 90.4145 92.964C90.5618 93.2847 90.6355 93.666 90.6355 94.108C90.6355 94.5933 90.4968 95.031 90.2195 95.421C89.9508 95.811 89.5738 96.1187 89.0885 96.344C88.6031 96.5693 88.0398 96.682 87.3985 96.682ZM87.9965 91.001C88.2305 90.7497 88.4038 90.4897 88.5165 90.221C88.6291 89.9523 88.6855 89.675 88.6855 89.389C88.6855 89.129 88.6335 88.8993 88.5295 88.7C88.4341 88.492 88.2911 88.3317 88.1005 88.219C87.9098 88.1063 87.6801 88.05 87.4115 88.05C87.0821 88.05 86.8048 88.154 86.5795 88.362C86.3541 88.57 86.2415 88.869 86.2415 89.259C86.2415 89.5537 86.3151 89.8093 86.4625 90.026C86.6185 90.234 86.8308 90.416 87.0995 90.572C87.3681 90.7193 87.6671 90.8623 87.9965 91.001ZM87.4375 95.33C87.7148 95.33 87.9575 95.2823 88.1655 95.187C88.3821 95.083 88.5511 94.9357 88.6725 94.745C88.7938 94.5457 88.8545 94.3117 88.8545 94.043C88.8545 93.7917 88.7981 93.575 88.6855 93.393C88.5815 93.2023 88.4341 93.0377 88.2435 92.899C88.0528 92.7517 87.8275 92.6173 87.5675 92.496C87.3075 92.3747 87.0215 92.2447 86.7095 92.106C86.4495 92.3227 86.2371 92.587 86.0725 92.899C85.9078 93.2023 85.8255 93.536 85.8255 93.9C85.8255 94.186 85.8948 94.4373 86.0335 94.654C86.1808 94.862 86.3758 95.0267 86.6185 95.148C86.8611 95.2693 87.1341 95.33 87.4375 95.33ZM95.0664 96.682C94.4164 96.682 93.8444 96.4957 93.3504 96.123C92.8651 95.7417 92.4838 95.1783 92.2064 94.433C91.9378 93.679 91.8034 92.7473 91.8034 91.638C91.8034 90.5373 91.9378 89.623 92.2064 88.895C92.4838 88.1583 92.8651 87.608 93.3504 87.244C93.8444 86.88 94.4164 86.698 95.0664 86.698C95.7251 86.698 96.2971 86.8843 96.7824 87.257C97.2678 87.621 97.6448 88.167 97.9134 88.895C98.1908 89.623 98.3294 90.5373 98.3294 91.638C98.3294 92.7473 98.1908 93.679 97.9134 94.433C97.6448 95.1783 97.2678 95.7417 96.7824 96.123C96.2971 96.4957 95.7251 96.682 95.0664 96.682ZM95.0664 95.187C95.3524 95.187 95.6038 95.0787 95.8204 94.862C96.0371 94.6453 96.2061 94.2813 96.3274 93.77C96.4488 93.25 96.5094 92.5393 96.5094 91.638C96.5094 90.7453 96.4488 90.0477 96.3274 89.545C96.2061 89.0337 96.0371 88.6783 95.8204 88.479C95.6038 88.271 95.3524 88.167 95.0664 88.167C94.7978 88.167 94.5508 88.271 94.3254 88.479C94.1088 88.6783 93.9354 89.0337 93.8054 89.545C93.6754 90.0477 93.6104 90.7453 93.6104 91.638C93.6104 92.5393 93.6754 93.25 93.8054 93.77C93.9354 94.2813 94.1088 94.6453 94.3254 94.862C94.5508 95.0787 94.7978 95.187 95.0664 95.187ZM102.734 96.682C102.084 96.682 101.512 96.4957 101.018 96.123C100.533 95.7417 100.152 95.1783 99.8744 94.433C99.6057 93.679 99.4714 92.7473 99.4714 91.638C99.4714 90.5373 99.6057 89.623 99.8744 88.895C100.152 88.1583 100.533 87.608 101.018 87.244C101.512 86.88 102.084 86.698 102.734 86.698C103.393 86.698 103.965 86.8843 104.45 87.257C104.936 87.621 105.313 88.167 105.581 88.895C105.859 89.623 105.997 90.5373 105.997 91.638C105.997 92.7473 105.859 93.679 105.581 94.433C105.313 95.1783 104.936 95.7417 104.45 96.123C103.965 96.4957 103.393 96.682 102.734 96.682ZM102.734 95.187C103.02 95.187 103.272 95.0787 103.488 94.862C103.705 94.6453 103.874 94.2813 103.995 93.77C104.117 93.25 104.177 92.5393 104.177 91.638C104.177 90.7453 104.117 90.0477 103.995 89.545C103.874 89.0337 103.705 88.6783 103.488 88.479C103.272 88.271 103.02 88.167 102.734 88.167C102.466 88.167 102.219 88.271 101.993 88.479C101.777 88.6783 101.603 89.0337 101.473 89.545C101.343 90.0477 101.278 90.7453 101.278 91.638C101.278 92.5393 101.343 93.25 101.473 93.77C101.603 94.2813 101.777 94.6453 101.993 94.862C102.219 95.0787 102.466 95.187 102.734 95.187ZM107.607 86.282H117.799V87.829H109.167V97.657H107.607V86.282ZM117.058 86.282H118.631V95.837C118.631 96.253 118.579 96.578 118.475 96.812C118.371 97.0547 118.185 97.241 117.916 97.371C117.648 97.501 117.31 97.579 116.902 97.605C116.504 97.6397 116.014 97.657 115.433 97.657C115.407 97.5097 115.364 97.3407 115.303 97.15C115.243 96.9593 115.173 96.7687 115.095 96.578C115.017 96.396 114.939 96.2357 114.861 96.097C115.113 96.1143 115.364 96.1273 115.615 96.136C115.875 96.136 116.105 96.136 116.304 96.136C116.504 96.136 116.642 96.136 116.72 96.136C116.842 96.1273 116.928 96.1013 116.98 96.058C117.032 96.006 117.058 95.9237 117.058 95.811V86.282ZM108.452 91.118H117.825V92.652H108.452V91.118ZM112.248 87.127H113.808V91.885H112.248V87.127ZM125.482 92.119C125.196 91.8243 124.915 91.5947 124.637 91.43C124.36 91.2653 123.996 91.183 123.545 91.183C123.129 91.183 122.739 91.3303 122.375 91.625C122.02 91.911 121.721 92.2837 121.478 92.743L120.048 91.963C120.49 91.157 121.015 90.559 121.621 90.169C122.228 89.7703 122.882 89.571 123.584 89.571C124.208 89.571 124.763 89.688 125.248 89.922C125.742 90.156 126.21 90.5157 126.652 91.001C126.938 91.2957 127.22 91.5253 127.497 91.69C127.783 91.8547 128.147 91.937 128.589 91.937C129.005 91.937 129.391 91.794 129.746 91.508C130.11 91.2133 130.414 90.8363 130.656 90.377L132.086 91.157C131.644 91.963 131.12 92.5653 130.513 92.964C129.907 93.354 129.252 93.549 128.55 93.549C127.935 93.549 127.38 93.432 126.886 93.198C126.392 92.964 125.924 92.6043 125.482 92.119ZM132.749 98.853L135.986 86.022H137.247L134.023 98.853H132.749Z" fill="white"/>
<rect width="54" height="20" transform="translate(142 81)" fill="#FF568F"/>
<path d="M149.576 85.914H151.094C151.079 86.222 151.054 86.618 151.017 87.102C150.98 87.586 150.911 88.125 150.808 88.719C150.713 89.3057 150.566 89.9217 150.368 90.567C150.17 91.2123 149.899 91.8577 149.554 92.503C149.217 93.141 148.784 93.7533 148.256 94.34C147.735 94.9193 147.101 95.4363 146.353 95.891C146.236 95.7223 146.074 95.5427 145.869 95.352C145.671 95.1613 145.462 94.989 145.242 94.835C145.975 94.4243 146.591 93.955 147.09 93.427C147.589 92.899 147.996 92.3453 148.311 91.766C148.626 91.1793 148.868 90.5927 149.037 90.006C149.206 89.412 149.327 88.851 149.4 88.323C149.473 87.795 149.517 87.322 149.532 86.904C149.547 86.486 149.561 86.156 149.576 85.914ZM151.039 86.211C151.046 86.3503 151.061 86.5703 151.083 86.871C151.105 87.1717 151.149 87.531 151.215 87.949C151.281 88.367 151.38 88.8217 151.512 89.313C151.651 89.797 151.835 90.2957 152.062 90.809C152.289 91.3223 152.572 91.8247 152.909 92.316C153.246 92.8073 153.653 93.262 154.13 93.68C154.614 94.098 155.179 94.461 155.824 94.769C155.611 94.923 155.413 95.1027 155.23 95.308C155.054 95.5133 154.911 95.7077 154.801 95.891C154.126 95.5537 153.536 95.154 153.03 94.692C152.531 94.2227 152.102 93.7167 151.743 93.174C151.391 92.624 151.098 92.0667 150.863 91.502C150.628 90.9373 150.438 90.3837 150.291 89.841C150.152 89.291 150.045 88.7813 149.972 88.312C149.899 87.8427 149.847 87.4357 149.818 87.091C149.796 86.7463 149.778 86.497 149.763 86.343L151.039 86.211ZM158.739 86.717H166.241V87.806H158.739V86.717ZM158.86 88.334H165.24V89.401H158.86V88.334ZM157.551 89.951H163.898V91.051H157.551V89.951ZM158.607 85.606L159.993 85.903C159.729 86.7903 159.373 87.6117 158.926 88.367C158.479 89.1223 157.987 89.7457 157.452 90.237C157.371 90.1563 157.254 90.0647 157.1 89.962C156.953 89.852 156.803 89.7457 156.649 89.643C156.495 89.533 156.363 89.4487 156.253 89.39C156.796 88.972 157.269 88.4293 157.672 87.762C158.083 87.0873 158.394 86.3687 158.607 85.606ZM161.324 91.106L162.611 91.524C162.244 92.2133 161.797 92.8513 161.269 93.438C160.748 94.0173 160.176 94.5343 159.553 94.989C158.93 95.4437 158.281 95.8323 157.606 96.155C157.54 96.067 157.448 95.957 157.331 95.825C157.221 95.693 157.1 95.5647 156.968 95.44C156.843 95.3153 156.733 95.2127 156.638 95.132C157.313 94.8607 157.947 94.527 158.541 94.131C159.142 93.735 159.678 93.2803 160.147 92.767C160.624 92.2537 161.016 91.7 161.324 91.106ZM163.469 89.951H164.822C164.822 90.611 164.829 91.2307 164.844 91.81C164.859 92.382 164.892 92.8843 164.943 93.317C165.002 93.7423 165.082 94.0797 165.185 94.329C165.288 94.571 165.42 94.692 165.581 94.692C165.669 94.6847 165.728 94.5453 165.757 94.274C165.786 94.0027 165.805 93.647 165.812 93.207C165.937 93.3537 166.076 93.504 166.23 93.658C166.391 93.8047 166.538 93.9293 166.67 94.032C166.641 94.4867 166.586 94.8607 166.505 95.154C166.432 95.4473 166.314 95.66 166.153 95.792C165.992 95.9313 165.772 96.001 165.493 96.001C165.031 96.001 164.664 95.8433 164.393 95.528C164.129 95.22 163.931 94.791 163.799 94.241C163.667 93.6837 163.579 93.0383 163.535 92.305C163.491 91.5717 163.469 90.787 163.469 89.951ZM157.573 92.327L158.508 91.458C158.911 91.6707 159.329 91.909 159.762 92.173C160.202 92.4297 160.635 92.701 161.06 92.987C161.493 93.273 161.892 93.559 162.259 93.845C162.626 94.1237 162.934 94.3913 163.183 94.648L162.127 95.649C161.9 95.3997 161.61 95.1283 161.258 94.835C160.913 94.5417 160.532 94.2483 160.114 93.955C159.703 93.6543 159.278 93.3647 158.838 93.086C158.398 92.8073 157.976 92.5543 157.573 92.327ZM168.001 95V86.849H169.662L172.027 91.194L172.852 92.954H172.907C172.863 92.5287 172.815 92.063 172.764 91.557C172.713 91.051 172.687 90.567 172.687 90.105V86.849H174.227V95H172.566L170.223 90.644L169.398 88.895H169.343C169.38 89.335 169.424 89.8007 169.475 90.292C169.526 90.7833 169.552 91.2637 169.552 91.733V95H168.001ZM178.682 95.154C178.169 95.154 177.685 95.0257 177.23 94.769C176.783 94.5123 176.42 94.1457 176.141 93.669C175.863 93.185 175.723 92.602 175.723 91.92C175.723 91.238 175.863 90.6587 176.141 90.182C176.42 89.698 176.783 89.3277 177.23 89.071C177.685 88.8143 178.169 88.686 178.682 88.686C179.071 88.686 179.441 88.7593 179.793 88.906C180.145 89.0527 180.461 89.2653 180.739 89.544C181.018 89.8153 181.238 90.1527 181.399 90.556C181.561 90.952 181.641 91.4067 181.641 91.92C181.641 92.602 181.502 93.185 181.223 93.669C180.945 94.1457 180.578 94.5123 180.123 94.769C179.676 95.0257 179.196 95.154 178.682 95.154ZM178.682 93.834C178.961 93.834 179.196 93.757 179.386 93.603C179.584 93.4417 179.731 93.218 179.826 92.932C179.929 92.646 179.98 92.3087 179.98 91.92C179.98 91.5313 179.929 91.194 179.826 90.908C179.731 90.622 179.584 90.402 179.386 90.248C179.196 90.0867 178.961 90.006 178.682 90.006C178.404 90.006 178.165 90.0867 177.967 90.248C177.777 90.402 177.63 90.622 177.527 90.908C177.432 91.194 177.384 91.5313 177.384 91.92C177.384 92.3087 177.432 92.646 177.527 92.932C177.63 93.218 177.777 93.4417 177.967 93.603C178.165 93.757 178.404 93.834 178.682 93.834ZM183.735 95.154C183.442 95.154 183.2 95.0513 183.009 94.846C182.819 94.6407 182.723 94.3913 182.723 94.098C182.723 93.79 182.819 93.537 183.009 93.339C183.2 93.141 183.442 93.042 183.735 93.042C184.021 93.042 184.26 93.141 184.45 93.339C184.641 93.537 184.736 93.79 184.736 94.098C184.736 94.3913 184.641 94.6407 184.45 94.846C184.26 95.0513 184.021 95.154 183.735 95.154ZM186.422 95V93.68H188.182V88.763H186.697V87.751C187.107 87.6703 187.459 87.575 187.753 87.465C188.053 87.355 188.332 87.223 188.589 87.069H189.788V93.68H191.317V95H186.422Z" fill="white"/>
<path d="M208.866 86.828C208.987 87.0013 209.122 87.205 209.269 87.439C209.416 87.673 209.555 87.907 209.685 88.141C209.824 88.375 209.945 88.5917 210.049 88.791L208.918 89.298C208.797 89.0207 208.675 88.7737 208.554 88.557C208.441 88.3403 208.324 88.1323 208.203 87.933C208.082 87.725 207.939 87.5083 207.774 87.283L208.866 86.828ZM210.569 86.113C210.699 86.2863 210.838 86.4857 210.985 86.711C211.141 86.9363 211.288 87.166 211.427 87.4C211.574 87.6253 211.696 87.8377 211.791 88.037L210.699 88.57C210.56 88.2927 210.426 88.05 210.296 87.842C210.175 87.6253 210.049 87.4217 209.919 87.231C209.798 87.0317 209.655 86.828 209.49 86.62L210.569 86.113ZM203.679 95.447C203.679 95.2737 203.679 95.0007 203.679 94.628C203.679 94.2467 203.679 93.809 203.679 93.315C203.679 92.8123 203.679 92.2923 203.679 91.755C203.679 91.209 203.679 90.6847 203.679 90.182C203.679 89.6707 203.679 89.22 203.679 88.83C203.679 88.44 203.679 88.154 203.679 87.972C203.679 87.738 203.666 87.4737 203.64 87.179C203.623 86.8843 203.592 86.6243 203.549 86.399H205.577C205.551 86.6243 205.525 86.8757 205.499 87.153C205.473 87.4303 205.46 87.7033 205.46 87.972C205.46 88.206 205.46 88.531 205.46 88.947C205.46 89.363 205.46 89.8267 205.46 90.338C205.46 90.8407 205.46 91.3563 205.46 91.885C205.46 92.4137 205.46 92.9207 205.46 93.406C205.46 93.8827 205.46 94.303 205.46 94.667C205.46 95.0223 205.46 95.2823 205.46 95.447C205.46 95.5597 205.464 95.7287 205.473 95.954C205.49 96.1707 205.508 96.396 205.525 96.63C205.551 96.864 205.573 97.072 205.59 97.254H203.549C203.592 97.0027 203.623 96.7037 203.64 96.357C203.666 96.0017 203.679 95.6983 203.679 95.447ZM205.083 89.766C205.516 89.8787 205.997 90.026 206.526 90.208C207.063 90.3813 207.605 90.572 208.151 90.78C208.697 90.9793 209.213 91.1787 209.698 91.378C210.183 91.5687 210.582 91.742 210.894 91.898L210.166 93.705C209.793 93.5057 209.386 93.3107 208.944 93.12C208.502 92.9293 208.051 92.743 207.592 92.561C207.141 92.3703 206.699 92.197 206.266 92.041C205.833 91.885 205.438 91.7507 205.083 91.638V89.766ZM215.899 86.529C216.081 86.555 216.298 86.5723 216.549 86.581C216.8 86.5897 217.034 86.594 217.251 86.594C217.416 86.594 217.667 86.594 218.005 86.594C218.352 86.594 218.733 86.594 219.149 86.594C219.574 86.594 219.994 86.594 220.41 86.594C220.826 86.594 221.199 86.594 221.528 86.594C221.857 86.594 222.1 86.594 222.256 86.594C222.455 86.594 222.694 86.5897 222.971 86.581C223.248 86.5723 223.478 86.555 223.66 86.529V88.206C223.487 88.1887 223.261 88.18 222.984 88.18C222.715 88.1713 222.464 88.167 222.23 88.167C222.091 88.167 221.853 88.167 221.515 88.167C221.186 88.167 220.809 88.167 220.384 88.167C219.968 88.167 219.548 88.167 219.123 88.167C218.707 88.167 218.33 88.167 217.992 88.167C217.654 88.167 217.407 88.167 217.251 88.167C217.043 88.167 216.813 88.1713 216.562 88.18C216.319 88.1887 216.098 88.1973 215.899 88.206V86.529ZM224.752 90.299C224.709 90.3857 224.661 90.481 224.609 90.585C224.566 90.689 224.531 90.7757 224.505 90.845C224.306 91.469 224.054 92.093 223.751 92.717C223.456 93.3323 223.066 93.9087 222.581 94.446C221.931 95.174 221.203 95.7677 220.397 96.227C219.591 96.6777 218.772 97.02 217.94 97.254L216.653 95.785C217.632 95.577 218.503 95.2737 219.266 94.875C220.029 94.4763 220.657 94.0213 221.151 93.51C221.498 93.1547 221.775 92.782 221.983 92.392C222.2 91.9933 222.369 91.6163 222.49 91.261C222.395 91.261 222.23 91.261 221.996 91.261C221.762 91.261 221.48 91.261 221.151 91.261C220.83 91.261 220.484 91.261 220.111 91.261C219.738 91.261 219.357 91.261 218.967 91.261C218.577 91.261 218.204 91.261 217.849 91.261C217.494 91.261 217.173 91.261 216.887 91.261C216.61 91.261 216.384 91.261 216.211 91.261C216.055 91.261 215.834 91.2653 215.548 91.274C215.262 91.2827 214.98 91.3 214.703 91.326V89.636C214.98 89.6533 215.249 89.6707 215.509 89.688C215.778 89.7053 216.012 89.714 216.211 89.714C216.341 89.714 216.536 89.714 216.796 89.714C217.065 89.714 217.372 89.714 217.719 89.714C218.066 89.714 218.434 89.714 218.824 89.714C219.223 89.714 219.617 89.714 220.007 89.714C220.406 89.714 220.783 89.714 221.138 89.714C221.493 89.714 221.801 89.714 222.061 89.714C222.321 89.714 222.516 89.714 222.646 89.714C222.854 89.714 223.04 89.701 223.205 89.675C223.378 89.649 223.508 89.6187 223.595 89.584L224.752 90.299ZM232.821 86.698C232.735 86.8887 232.644 87.1053 232.548 87.348C232.453 87.582 232.358 87.8463 232.262 88.141C232.184 88.3837 232.085 88.6957 231.963 89.077C231.842 89.4497 231.708 89.8613 231.56 90.312C231.413 90.754 231.257 91.2133 231.092 91.69C230.936 92.158 230.785 92.613 230.637 93.055C230.49 93.497 230.351 93.9 230.221 94.264C230.091 94.6193 229.979 94.9097 229.883 95.135L227.959 95.2C228.081 94.9227 228.215 94.5847 228.362 94.186C228.51 93.7873 228.666 93.354 228.83 92.886C228.995 92.4093 229.155 91.924 229.311 91.43C229.476 90.936 229.628 90.4593 229.766 90C229.914 89.5407 230.044 89.116 230.156 88.726C230.278 88.336 230.373 88.0197 230.442 87.777C230.529 87.439 230.594 87.1617 230.637 86.945C230.689 86.7197 230.728 86.4943 230.754 86.269L232.821 86.698ZM235.148 90.897C235.382 91.2437 235.634 91.651 235.902 92.119C236.171 92.587 236.435 93.0767 236.695 93.588C236.964 94.0907 237.211 94.576 237.436 95.044C237.662 95.512 237.848 95.9323 237.995 96.305L236.24 97.085C236.093 96.6863 235.911 96.2357 235.694 95.733C235.486 95.2303 235.257 94.719 235.005 94.199C234.763 93.679 234.511 93.1893 234.251 92.73C234 92.262 233.757 91.872 233.523 91.56L235.148 90.897ZM227.842 94.628C228.137 94.6107 228.492 94.589 228.908 94.563C229.333 94.5283 229.788 94.4893 230.273 94.446C230.759 94.394 231.253 94.342 231.755 94.29C232.267 94.238 232.765 94.186 233.25 94.134C233.744 94.0733 234.204 94.017 234.628 93.965C235.053 93.913 235.413 93.8653 235.707 93.822L236.097 95.486C235.777 95.5293 235.391 95.577 234.94 95.629C234.498 95.681 234.022 95.7373 233.51 95.798C232.999 95.85 232.479 95.9063 231.95 95.967C231.422 96.0277 230.906 96.084 230.403 96.136C229.901 96.188 229.437 96.2357 229.012 96.279C228.588 96.3137 228.228 96.3483 227.933 96.383C227.769 96.4003 227.574 96.4263 227.348 96.461C227.132 96.487 226.919 96.513 226.711 96.539L226.412 94.641C226.629 94.641 226.867 94.641 227.127 94.641C227.396 94.641 227.634 94.6367 227.842 94.628ZM247.888 86.308L248.915 85.45C249.115 85.58 249.323 85.7317 249.539 85.905C249.765 86.0783 249.973 86.2517 250.163 86.425C250.363 86.5983 250.523 86.7543 250.644 86.893L249.539 87.842C249.435 87.686 249.288 87.5213 249.097 87.348C248.915 87.166 248.716 86.984 248.499 86.802C248.291 86.62 248.088 86.4553 247.888 86.308ZM239.269 87.673H250.969V89.194H239.269V87.673ZM239.763 90.676H245.392V92.184H239.763V90.676ZM241.726 91.534H243.286V95.941H241.726V91.534ZM239.269 95.733C239.789 95.6463 240.4 95.5467 241.102 95.434C241.813 95.3127 242.563 95.1827 243.351 95.044C244.149 94.9053 244.942 94.7623 245.73 94.615L245.834 96.006C245.124 96.162 244.404 96.318 243.676 96.474C242.948 96.6213 242.246 96.7643 241.57 96.903C240.894 97.0503 240.27 97.1847 239.698 97.306L239.269 95.733ZM245.665 85.502H247.342C247.316 86.5767 247.329 87.6253 247.381 88.648C247.442 89.6707 247.537 90.6283 247.667 91.521C247.797 92.4137 247.953 93.198 248.135 93.874C248.317 94.55 248.517 95.0787 248.733 95.46C248.959 95.8413 249.197 96.032 249.448 96.032C249.596 96.032 249.704 95.8457 249.773 95.473C249.851 95.1003 249.908 94.5023 249.942 93.679C250.124 93.861 250.341 94.0387 250.592 94.212C250.852 94.3853 251.091 94.511 251.307 94.589C251.238 95.4123 251.121 96.0493 250.956 96.5C250.8 96.942 250.588 97.2453 250.319 97.41C250.059 97.5833 249.721 97.67 249.305 97.67C248.837 97.67 248.421 97.5097 248.057 97.189C247.693 96.8683 247.377 96.4263 247.108 95.863C246.84 95.291 246.614 94.6193 246.432 93.848C246.25 93.0767 246.103 92.2403 245.99 91.339C245.878 90.429 245.795 89.48 245.743 88.492C245.691 87.504 245.665 86.5073 245.665 85.502ZM255.111 96.5V95.395C255.986 94.615 256.731 93.8913 257.347 93.224C257.971 92.5567 258.447 91.937 258.777 91.365C259.106 90.7843 259.271 90.247 259.271 89.753C259.271 89.441 259.214 89.168 259.102 88.934C258.989 88.7 258.824 88.5223 258.608 88.401C258.4 88.271 258.14 88.206 257.828 88.206C257.481 88.206 257.16 88.3057 256.866 88.505C256.58 88.6957 256.315 88.9253 256.073 89.194L255.007 88.167C255.457 87.6817 255.917 87.3177 256.385 87.075C256.861 86.8237 257.425 86.698 258.075 86.698C258.681 86.698 259.21 86.8237 259.661 87.075C260.12 87.3177 260.475 87.66 260.727 88.102C260.978 88.544 261.104 89.064 261.104 89.662C261.104 90.2427 260.956 90.8363 260.662 91.443C260.376 92.041 259.99 92.639 259.505 93.237C259.019 93.835 258.482 94.4243 257.893 95.005C258.144 94.9703 258.413 94.9443 258.699 94.927C258.993 94.901 259.253 94.888 259.479 94.888H261.559V96.5H255.111ZM266.055 96.682C265.439 96.682 264.889 96.5737 264.404 96.357C263.918 96.1403 263.533 95.837 263.247 95.447C262.969 95.057 262.831 94.6107 262.831 94.108C262.831 93.692 262.904 93.328 263.052 93.016C263.208 92.6953 263.411 92.418 263.663 92.184C263.914 91.95 264.187 91.755 264.482 91.599V91.534C264.118 91.274 263.814 90.9577 263.572 90.585C263.329 90.2037 263.208 89.7617 263.208 89.259C263.208 88.739 263.333 88.2883 263.585 87.907C263.836 87.5257 264.178 87.231 264.612 87.023C265.054 86.815 265.552 86.711 266.107 86.711C266.679 86.711 267.173 86.8193 267.589 87.036C268.005 87.244 268.325 87.5387 268.551 87.92C268.785 88.3013 268.902 88.752 268.902 89.272C268.902 89.584 268.841 89.8787 268.72 90.156C268.607 90.4333 268.455 90.6847 268.265 90.91C268.083 91.1267 267.883 91.313 267.667 91.469V91.534C267.97 91.69 268.243 91.885 268.486 92.119C268.728 92.353 268.923 92.6347 269.071 92.964C269.218 93.2847 269.292 93.666 269.292 94.108C269.292 94.5933 269.153 95.031 268.876 95.421C268.607 95.811 268.23 96.1187 267.745 96.344C267.259 96.5693 266.696 96.682 266.055 96.682ZM266.653 91.001C266.887 90.7497 267.06 90.4897 267.173 90.221C267.285 89.9523 267.342 89.675 267.342 89.389C267.342 89.129 267.29 88.8993 267.186 88.7C267.09 88.492 266.947 88.3317 266.757 88.219C266.566 88.1063 266.336 88.05 266.068 88.05C265.738 88.05 265.461 88.154 265.236 88.362C265.01 88.57 264.898 88.869 264.898 89.259C264.898 89.5537 264.971 89.8093 265.119 90.026C265.275 90.234 265.487 90.416 265.756 90.572C266.024 90.7193 266.323 90.8623 266.653 91.001ZM266.094 95.33C266.371 95.33 266.614 95.2823 266.822 95.187C267.038 95.083 267.207 94.9357 267.329 94.745C267.45 94.5457 267.511 94.3117 267.511 94.043C267.511 93.7917 267.454 93.575 267.342 93.393C267.238 93.2023 267.09 93.0377 266.9 92.899C266.709 92.7517 266.484 92.6173 266.224 92.496C265.964 92.3747 265.678 92.2447 265.366 92.106C265.106 92.3227 264.893 92.587 264.729 92.899C264.564 93.2023 264.482 93.536 264.482 93.9C264.482 94.186 264.551 94.4373 264.69 94.654C264.837 94.862 265.032 95.0267 265.275 95.148C265.517 95.2693 265.79 95.33 266.094 95.33ZM270.98 99.282L270.577 98.242C271.079 98.0427 271.465 97.7827 271.734 97.462C272.011 97.1413 272.15 96.7903 272.15 96.409L272.085 95.044L272.761 96.175C272.657 96.2703 272.54 96.3397 272.41 96.383C272.288 96.4263 272.158 96.448 272.02 96.448C271.708 96.448 271.43 96.3527 271.188 96.162C270.945 95.9627 270.824 95.681 270.824 95.317C270.824 94.979 270.945 94.706 271.188 94.498C271.43 94.29 271.725 94.186 272.072 94.186C272.505 94.186 272.839 94.355 273.073 94.693C273.315 95.0223 273.437 95.4817 273.437 96.071C273.437 96.8337 273.224 97.4923 272.8 98.047C272.375 98.6017 271.768 99.0133 270.98 99.282ZM277.95 96.682C277.335 96.682 276.785 96.5737 276.299 96.357C275.814 96.1403 275.428 95.837 275.142 95.447C274.865 95.057 274.726 94.6107 274.726 94.108C274.726 93.692 274.8 93.328 274.947 93.016C275.103 92.6953 275.307 92.418 275.558 92.184C275.81 91.95 276.083 91.755 276.377 91.599V91.534C276.013 91.274 275.71 90.9577 275.467 90.585C275.225 90.2037 275.103 89.7617 275.103 89.259C275.103 88.739 275.229 88.2883 275.48 87.907C275.732 87.5257 276.074 87.231 276.507 87.023C276.949 86.815 277.448 86.711 278.002 86.711C278.574 86.711 279.068 86.8193 279.484 87.036C279.9 87.244 280.221 87.5387 280.446 87.92C280.68 88.3013 280.797 88.752 280.797 89.272C280.797 89.584 280.737 89.8787 280.615 90.156C280.503 90.4333 280.351 90.6847 280.16 90.91C279.978 91.1267 279.779 91.313 279.562 91.469V91.534C279.866 91.69 280.139 91.885 280.381 92.119C280.624 92.353 280.819 92.6347 280.966 92.964C281.114 93.2847 281.187 93.666 281.187 94.108C281.187 94.5933 281.049 95.031 280.771 95.421C280.503 95.811 280.126 96.1187 279.64 96.344C279.155 96.5693 278.592 96.682 277.95 96.682ZM278.548 91.001C278.782 90.7497 278.956 90.4897 279.068 90.221C279.181 89.9523 279.237 89.675 279.237 89.389C279.237 89.129 279.185 88.8993 279.081 88.7C278.986 88.492 278.843 88.3317 278.652 88.219C278.462 88.1063 278.232 88.05 277.963 88.05C277.634 88.05 277.357 88.154 277.131 88.362C276.906 88.57 276.793 88.869 276.793 89.259C276.793 89.5537 276.867 89.8093 277.014 90.026C277.17 90.234 277.383 90.416 277.651 90.572C277.92 90.7193 278.219 90.8623 278.548 91.001ZM277.989 95.33C278.267 95.33 278.509 95.2823 278.717 95.187C278.934 95.083 279.103 94.9357 279.224 94.745C279.346 94.5457 279.406 94.3117 279.406 94.043C279.406 93.7917 279.35 93.575 279.237 93.393C279.133 93.2023 278.986 93.0377 278.795 92.899C278.605 92.7517 278.379 92.6173 278.119 92.496C277.859 92.3747 277.573 92.2447 277.261 92.106C277.001 92.3227 276.789 92.587 276.624 92.899C276.46 93.2023 276.377 93.536 276.377 93.9C276.377 94.186 276.447 94.4373 276.585 94.654C276.733 94.862 276.928 95.0267 277.17 95.148C277.413 95.2693 277.686 95.33 277.989 95.33ZM285.618 96.682C284.968 96.682 284.396 96.4957 283.902 96.123C283.417 95.7417 283.036 95.1783 282.758 94.433C282.49 93.679 282.355 92.7473 282.355 91.638C282.355 90.5373 282.49 89.623 282.758 88.895C283.036 88.1583 283.417 87.608 283.902 87.244C284.396 86.88 284.968 86.698 285.618 86.698C286.277 86.698 286.849 86.8843 287.334 87.257C287.82 87.621 288.197 88.167 288.465 88.895C288.743 89.623 288.881 90.5373 288.881 91.638C288.881 92.7473 288.743 93.679 288.465 94.433C288.197 95.1783 287.82 95.7417 287.334 96.123C286.849 96.4957 286.277 96.682 285.618 96.682ZM285.618 95.187C285.904 95.187 286.156 95.0787 286.372 94.862C286.589 94.6453 286.758 94.2813 286.879 93.77C287.001 93.25 287.061 92.5393 287.061 91.638C287.061 90.7453 287.001 90.0477 286.879 89.545C286.758 89.0337 286.589 88.6783 286.372 88.479C286.156 88.271 285.904 88.167 285.618 88.167C285.35 88.167 285.103 88.271 284.877 88.479C284.661 88.6783 284.487 89.0337 284.357 89.545C284.227 90.0477 284.162 90.7453 284.162 91.638C284.162 92.5393 284.227 93.25 284.357 93.77C284.487 94.2813 284.661 94.6453 284.877 94.862C285.103 95.0787 285.35 95.187 285.618 95.187ZM293.286 96.682C292.636 96.682 292.064 96.4957 291.57 96.123C291.085 95.7417 290.704 95.1783 290.426 94.433C290.158 93.679 290.023 92.7473 290.023 91.638C290.023 90.5373 290.158 89.623 290.426 88.895C290.704 88.1583 291.085 87.608 291.57 87.244C292.064 86.88 292.636 86.698 293.286 86.698C293.945 86.698 294.517 86.8843 295.002 87.257C295.488 87.621 295.865 88.167 296.133 88.895C296.411 89.623 296.549 90.5373 296.549 91.638C296.549 92.7473 296.411 93.679 296.133 94.433C295.865 95.1783 295.488 95.7417 295.002 96.123C294.517 96.4957 293.945 96.682 293.286 96.682ZM293.286 95.187C293.572 95.187 293.824 95.0787 294.04 94.862C294.257 94.6453 294.426 94.2813 294.547 93.77C294.669 93.25 294.729 92.5393 294.729 91.638C294.729 90.7453 294.669 90.0477 294.547 89.545C294.426 89.0337 294.257 88.6783 294.04 88.479C293.824 88.271 293.572 88.167 293.286 88.167C293.018 88.167 292.771 88.271 292.545 88.479C292.329 88.6783 292.155 89.0337 292.025 89.545C291.895 90.0477 291.83 90.7453 291.83 91.638C291.83 92.5393 291.895 93.25 292.025 93.77C292.155 94.2813 292.329 94.6453 292.545 94.862C292.771 95.0787 293.018 95.187 293.286 95.187ZM298.159 86.282H308.351V87.829H299.719V97.657H298.159V86.282ZM307.61 86.282H309.183V95.837C309.183 96.253 309.131 96.578 309.027 96.812C308.923 97.0547 308.737 97.241 308.468 97.371C308.199 97.501 307.861 97.579 307.454 97.605C307.055 97.6397 306.566 97.657 305.985 97.657C305.959 97.5097 305.916 97.3407 305.855 97.15C305.794 96.9593 305.725 96.7687 305.647 96.578C305.569 96.396 305.491 96.2357 305.413 96.097C305.664 96.1143 305.916 96.1273 306.167 96.136C306.427 96.136 306.657 96.136 306.856 96.136C307.055 96.136 307.194 96.136 307.272 96.136C307.393 96.1273 307.48 96.1013 307.532 96.058C307.584 96.006 307.61 95.9237 307.61 95.811V86.282ZM299.004 91.118H308.377V92.652H299.004V91.118ZM302.8 87.127H304.36V91.885H302.8V87.127ZM316.034 92.119C315.748 91.8243 315.466 91.5947 315.189 91.43C314.912 91.2653 314.548 91.183 314.097 91.183C313.681 91.183 313.291 91.3303 312.927 91.625C312.572 91.911 312.273 92.2837 312.03 92.743L310.6 91.963C311.042 91.157 311.566 90.559 312.173 90.169C312.78 89.7703 313.434 89.571 314.136 89.571C314.76 89.571 315.315 89.688 315.8 89.922C316.294 90.156 316.762 90.5157 317.204 91.001C317.49 91.2957 317.772 91.5253 318.049 91.69C318.335 91.8547 318.699 91.937 319.141 91.937C319.557 91.937 319.943 91.794 320.298 91.508C320.662 91.2133 320.965 90.8363 321.208 90.377L322.638 91.157C322.196 91.963 321.672 92.5653 321.065 92.964C320.458 93.354 319.804 93.549 319.102 93.549C318.487 93.549 317.932 93.432 317.438 93.198C316.944 92.964 316.476 92.6043 316.034 92.119Z" fill="white"/>
<defs>
<filter id="filter0_d_128_2506" x="4" y="9" width="81" height="81" filterUnits="userSpaceOnUse" color-interpolation-filters="sRGB">
<feFlood flood-opacity="0" result="BackgroundImageFix"/>
<feColorMatrix in="SourceAlpha" type="matrix" values="0 0 0 0 0 0 0 0 0 0 0 0 0 0 0 0 0 0 127 0" result="hardAlpha"/>
<feOffset dy="5"/>
<feGaussianBlur stdDeviation="4"/>
<feComposite in2="hardAlpha" operator="out"/>
<feColorMatrix type="matrix" values="0 0 0 0 0 0 0 0 0 0 0 0 0 0 0 0 0 0 0.6 0"/>
<feBlend mode="normal" in2="BackgroundImageFix" result="effect1_dropShadow_128_2506"/>
<feBlend mode="normal" in="SourceGraphic" in2="effect1_dropShadow_128_2506" result="shape"/>
</filter>
<filter id="filter1_d_128_2506" x="132.623" y="26.828" width="140.307" height="55.744" filterUnits="userSpaceOnUse" color-interpolation-filters="sRGB">
<feFlood flood-opacity="0" result="BackgroundImageFix"/>
<feColorMatrix in="SourceAlpha" type="matrix" values="0 0 0 0 0 0 0 0 0 0 0 0 0 0 0 0 0 0 127 0" result="hardAlpha"/>
<feOffset dy="5"/>
<feGaussianBlur stdDeviation="2.5"/>
<feComposite in2="hardAlpha" operator="out"/>
<feColorMatrix type="matrix" values="0 0 0 0 0 0 0 0 0 0 0 0 0 0 0 0 0 0 0.6 0"/>
<feBlend mode="normal" in2="BackgroundImageFix" result="effect1_dropShadow_128_2506"/>
<feBlend mode="normal" in="SourceGraphic" in2="effect1_dropShadow_128_2506" result="shape"/>
</filter>
<linearGradient id="paint0_linear_128_2506" x1="0" y1="56.5" x2="336" y2="56.5" gradientUnits="userSpaceOnUse">
<stop stop-color="#00B9F5"/>
<stop offset="0.497921" stop-color="#0032C7"/>
<stop offset="1" stop-color="#00B9F5"/>
</linearGradient>
<linearGradient id="paint1_linear_128_2506" x1="12" y1="44.5" x2="77" y2="44.5" gradientUnits="userSpaceOnUse">
<stop stop-color="#FFFDDE"/>
<stop offset="0.501795" stop-color="white"/>
<stop offset="1" stop-color="#FFFDF0"/>
</linearGradient>
</defs>
</svg>
