<svg preserveAspectRatio="none" width="100%" height="100%" overflow="visible" style="display: block;" viewBox="0 0 179.742 53.132" fill="none" xmlns="http://www.w3.org/2000/svg">
<path id="Vector" d="M3.878 5.82401H13.02V7.098H3.878V5.82401ZM5.558 2.296H12.446V3.556H5.558V2.296ZM7.854 0.0699997H9.17V6.496H7.854V0.0699997ZM5.53 0.266003L6.86 0.518002C6.7387 1.162 6.58 1.8013 6.384 2.436C6.1973 3.0613 5.9827 3.6447 5.74 4.186C5.4973 4.718 5.2313 5.1893 4.942 5.6C4.858 5.5253 4.746 5.446 4.606 5.362C4.466 5.2687 4.3213 5.18 4.172 5.096C4.0227 5.0027 3.892 4.928 3.78 4.872C4.2093 4.3307 4.5687 3.6493 4.858 2.828C5.1567 2.0067 5.3807 1.1527 5.53 0.266003ZM9.072 6.636H10.36V11.228C10.36 11.4333 10.3833 11.5687 10.43 11.634C10.4767 11.69 10.5747 11.718 10.724 11.718C10.7613 11.718 10.822 11.718 10.906 11.718C10.99 11.718 11.0787 11.718 11.172 11.718C11.2747 11.718 11.3727 11.718 11.466 11.718C11.5593 11.718 11.6247 11.718 11.662 11.718C11.774 11.718 11.858 11.6713 11.914 11.578C11.97 11.4753 12.0073 11.2793 12.026 10.99C12.054 10.6913 12.0727 10.248 12.082 9.66C12.1753 9.7253 12.2873 9.7953 12.418 9.87C12.558 9.9353 12.7027 9.996 12.852 10.052C13.0013 10.0987 13.132 10.1407 13.244 10.178C13.2067 10.8873 13.1367 11.4427 13.034 11.844C12.9407 12.236 12.796 12.5067 12.6 12.656C12.404 12.8147 12.1333 12.894 11.788 12.894C11.732 12.894 11.6433 12.894 11.522 12.894C11.4007 12.894 11.2747 12.894 11.144 12.894C11.0133 12.894 10.8873 12.894 10.766 12.894C10.654 12.894 10.57 12.894 10.514 12.894C10.122 12.894 9.8233 12.8427 9.618 12.74C9.4127 12.6467 9.268 12.4787 9.184 12.236C9.1093 11.9933 9.072 11.662 9.072 11.242V6.636ZM6.216 6.846H7.546C7.4993 7.5927 7.42 8.2833 7.308 8.918C7.196 9.5433 7.014 10.1173 6.762 10.64C6.5193 11.1533 6.174 11.6107 5.726 12.012C5.2873 12.4227 4.7087 12.7727 3.99 13.062C3.9433 12.9593 3.8733 12.838 3.78 12.698C3.696 12.5673 3.598 12.4367 3.486 12.306C3.3833 12.1847 3.2807 12.0867 3.178 12.012C3.822 11.7787 4.3353 11.494 4.718 11.158C5.1007 10.822 5.3947 10.4393 5.6 10.01C5.8053 9.5807 5.95 9.1047 6.034 8.582C6.118 8.05 6.1787 7.4713 6.216 6.846ZM0.658001 1.12L1.442 0.224003C1.7313 0.354703 2.03 0.513301 2.338 0.700001C2.646 0.886701 2.9353 1.078 3.206 1.274C3.4767 1.47 3.696 1.6567 3.864 1.834L3.024 2.842C2.8653 2.6647 2.6553 2.4733 2.394 2.268C2.1327 2.0627 1.848 1.8573 1.54 1.652C1.232 1.4467 0.938001 1.2693 0.658001 1.12ZM0 4.9L0.728001 3.948C1.0173 4.0787 1.3207 4.2327 1.638 4.41C1.9647 4.578 2.2727 4.7553 2.562 4.942C2.8513 5.1287 3.0847 5.3013 3.262 5.46L2.492 6.524C2.3147 6.356 2.086 6.174 1.806 5.978C1.526 5.782 1.2273 5.5907 0.91 5.404C0.602 5.2173 0.2987 5.0493 0 4.9ZM0.392 12.096C0.6067 11.732 0.844701 11.3027 1.106 10.808C1.3673 10.304 1.6333 9.7767 1.904 9.226C2.1747 8.666 2.422 8.12001 2.646 7.58801L3.626 8.344C3.4207 8.848 3.2013 9.366 2.968 9.898C2.7347 10.4207 2.4967 10.9433 2.254 11.466C2.0207 11.9793 1.7873 12.46 1.554 12.908L0.392 12.096ZM18.354 2.31H21.322V3.22H18.354V2.31ZM18.13 0.616001H21.98V4.956H18.102V4.01801H20.748V1.568H18.13V0.616001ZM22.764 2.31H25.774V3.22H22.764V2.31ZM19.516 8.106H26.152V9.03H19.516V8.106ZM19.516 9.8H26.152V10.738H19.516V9.8ZM19.418 11.55H26.922V12.628H19.418V11.55ZM22.526 0.616001H26.474V4.956H22.512V4.01801H25.228V1.568H22.526V0.616001ZM19.656 4.816L20.916 5.208C20.7013 5.6467 20.4447 6.0993 20.146 6.566C19.8473 7.0327 19.5253 7.476 19.18 7.896C18.8347 8.3067 18.48 8.6753 18.116 9.002C17.9947 8.8807 17.8453 8.7407 17.668 8.582C17.4907 8.4233 17.332 8.2973 17.192 8.204C17.528 7.9147 17.8547 7.5787 18.172 7.196C18.4893 6.8133 18.7787 6.4167 19.04 6.006C19.3013 5.5953 19.5067 5.1987 19.656 4.816ZM19.992 6.272H26.572V7.308H19.992V13.076H18.816V7.084L19.586 6.272H19.992ZM22.806 4.942L24.136 5.306C23.94 5.642 23.744 5.978 23.548 6.314C23.352 6.6407 23.1747 6.9207 23.016 7.154L21.98 6.832C22.1293 6.5707 22.2833 6.2627 22.442 5.908C22.6007 5.544 22.722 5.222 22.806 4.942ZM22.092 6.958H23.324V11.928H22.092V6.958ZM14.7 1.134L15.442 0.154003C15.7127 0.266003 15.9973 0.401301 16.296 0.560001C16.5947 0.718701 16.8793 0.882003 17.15 1.05C17.4207 1.218 17.64 1.3813 17.808 1.54L17.024 2.632C16.8653 2.4733 16.6553 2.3053 16.394 2.128C16.142 1.9413 15.8667 1.7593 15.568 1.582C15.2693 1.4047 14.98 1.2553 14.7 1.134ZM13.986 4.928L14.714 3.934C14.994 4.0273 15.288 4.1487 15.596 4.298C15.904 4.438 16.1933 4.592 16.464 4.76C16.7347 4.9187 16.9587 5.0727 17.136 5.222L16.38 6.314C16.212 6.1647 15.9927 6.00601 15.722 5.83801C15.4513 5.67001 15.1667 5.5067 14.868 5.348C14.5693 5.1893 14.2753 5.0493 13.986 4.928ZM14.322 12.11C14.5367 11.746 14.77 11.3167 15.022 10.822C15.274 10.3273 15.526 9.8047 15.778 9.254C16.0393 8.7033 16.2773 8.162 16.492 7.63L17.542 8.428C17.346 8.9133 17.1313 9.4173 16.898 9.94C16.674 10.4627 16.4453 10.976 16.212 11.48C15.9787 11.9747 15.7453 12.446 15.512 12.894L14.322 12.11ZM35.294 5.82401L36.498 6.188C36.19 6.7387 35.8167 7.266 35.378 7.77C34.9487 8.2647 34.4867 8.722 33.992 9.142C33.4973 9.562 32.9933 9.9307 32.48 10.248C32.424 10.1547 32.34 10.0473 32.228 9.926C32.1253 9.8047 32.018 9.6833 31.906 9.562C31.794 9.4313 31.6913 9.3287 31.598 9.254C32.3447 8.862 33.0493 8.3673 33.712 7.77C34.384 7.1727 34.9113 6.52401 35.294 5.82401ZM35.42 0.0419998L36.582 0.644001C36.2273 1.0733 35.8447 1.5073 35.434 1.946C35.0327 2.3847 34.6593 2.7627 34.314 3.08L33.39 2.548C33.6233 2.324 33.8613 2.0673 34.104 1.778C34.356 1.4887 34.5987 1.1947 34.832 0.896C35.0653 0.588 35.2613 0.3033 35.42 0.0419998ZM38.094 1.106L39.284 1.75C38.7987 2.2633 38.2713 2.7953 37.702 3.346C37.1327 3.8873 36.5587 4.41 35.98 4.914C35.4013 5.418 34.8507 5.8613 34.328 6.244L33.446 5.656C33.8287 5.3667 34.23 5.0353 34.65 4.662C35.07 4.2887 35.49 3.9013 35.91 3.5C36.33 3.0893 36.7267 2.6787 37.1 2.268C37.4733 1.8573 37.8047 1.47 38.094 1.106ZM32.158 2.464L32.956 1.61C33.3107 1.834 33.6793 2.086 34.062 2.366C34.4447 2.6367 34.7993 2.912 35.126 3.192C35.462 3.472 35.7327 3.7287 35.938 3.962L35.084 4.928C34.8973 4.6853 34.6407 4.4193 34.314 4.13C33.9873 3.8313 33.6373 3.5373 33.264 3.248C32.8907 2.9587 32.522 2.6973 32.158 2.464ZM37.926 4.07401L38.948 3.514C39.2467 3.822 39.5407 4.158 39.83 4.522C40.1193 4.886 40.3853 5.2453 40.628 5.6C40.88 5.9547 41.0713 6.2813 41.202 6.58L40.096 7.21C39.9747 6.93 39.7973 6.608 39.564 6.244C39.3307 5.8707 39.0693 5.4973 38.78 5.124C38.5 4.7413 38.2153 4.39131 37.926 4.07401ZM31.766 5.292C32.4473 5.2827 33.2313 5.2733 34.118 5.264C35.0047 5.2547 35.952 5.2407 36.96 5.222C37.968 5.194 38.9713 5.166 39.97 5.138L39.914 6.216C38.9527 6.2533 37.9867 6.2907 37.016 6.328C36.0547 6.356 35.1307 6.384 34.244 6.412C33.3667 6.44 32.578 6.4633 31.878 6.482L31.766 5.292ZM34.58 8.05C34.972 8.7033 35.4947 9.296 36.148 9.828C36.8013 10.3507 37.5573 10.794 38.416 11.158C39.284 11.5127 40.2173 11.7787 41.216 11.956C41.1227 12.0493 41.0247 12.1613 40.922 12.292C40.8193 12.432 40.7213 12.572 40.628 12.712C40.544 12.852 40.4693 12.978 40.404 13.09C39.3773 12.866 38.4253 12.5393 37.548 12.11C36.6707 11.6807 35.8913 11.158 35.21 10.542C34.5287 9.9167 33.9593 9.2027 33.502 8.4L34.58 8.05ZM34.902 7.35H38.906V8.358H34.02L34.902 7.35ZM38.486 7.35H38.724L38.948 7.294L39.788 7.686C39.4707 8.4513 39.0507 9.1327 38.528 9.73C38.0147 10.318 37.422 10.8313 36.75 11.27C36.0873 11.7087 35.3687 12.0773 34.594 12.376C33.8287 12.684 33.04 12.9313 32.228 13.118C32.1627 12.95 32.0647 12.754 31.934 12.53C31.8127 12.306 31.696 12.124 31.584 11.984C32.34 11.844 33.0727 11.648 33.782 11.396C34.4913 11.144 35.154 10.8313 35.77 10.458C36.3953 10.0847 36.9367 9.6553 37.394 9.17C37.8607 8.6847 38.2247 8.13871 38.486 7.53201V7.35ZM31.108 2.996L32.284 3.43C31.9667 3.99 31.6027 4.55 31.192 5.11C30.7813 5.6607 30.3427 6.1833 29.876 6.678C29.4187 7.1633 28.9613 7.5973 28.504 7.98C28.4667 7.8773 28.4013 7.7513 28.308 7.60201C28.224 7.45271 28.1353 7.2987 28.042 7.14C27.9487 6.9813 27.8647 6.86 27.79 6.776C28.2007 6.4587 28.6113 6.0993 29.022 5.698C29.4327 5.2967 29.8153 4.8673 30.17 4.41C30.534 3.9433 30.8467 3.472 31.108 2.996ZM30.814 0.0699997L31.99 0.532001C31.71 0.933302 31.3833 1.3393 31.01 1.75C30.6367 2.1607 30.2493 2.5527 29.848 2.926C29.4467 3.2993 29.0453 3.6307 28.644 3.92C28.588 3.8267 28.518 3.724 28.434 3.612C28.35 3.4907 28.2613 3.3693 28.168 3.248C28.084 3.1267 28.0047 3.0287 27.93 2.954C28.2847 2.702 28.644 2.4173 29.008 2.1C29.372 1.7733 29.7127 1.4327 30.03 1.078C30.3473 0.723303 30.6087 0.3873 30.814 0.0699997ZM29.876 5.78201L30.982 4.676L31.122 4.732V13.104H29.876V5.78201ZM45.234 12.74C44.9447 12.3853 44.6227 12.0213 44.268 11.648C43.9227 11.2747 43.568 10.9153 43.204 10.57C42.8493 10.2247 42.5087 9.9167 42.182 9.646L43.33 8.638C43.666 8.9087 44.0207 9.226 44.394 9.59C44.7673 9.9447 45.1313 10.3133 45.486 10.696C45.85 11.0693 46.1627 11.4147 46.424 11.732L45.234 12.74ZM56.336 1.008H68.74V2.086H56.336V1.008ZM56.322 5.152H68.768V6.118H56.322V5.152ZM57.554 3.346H67.536V4.298H57.554V3.346ZM56.168 11.508H68.88V12.572H56.168V11.508ZM59.43 0.0699997H60.732V2.954H59.43V0.0699997ZM61.824 2.492H63.126V5.544H61.824V2.492ZM64.26 0.0699997H65.576V2.954H64.26V0.0699997ZM57.89 8.946H67.214V12.054H65.912V9.912H64.358V12.054H63.28V9.912H61.726V12.054H60.648V9.912H59.122V12.054H57.89V8.946ZM56.574 7.294C57.1993 7.3033 57.918 7.308 58.73 7.308C59.542 7.2987 60.4053 7.294 61.32 7.294C62.244 7.2847 63.1913 7.2753 64.162 7.266C65.142 7.2567 66.1173 7.2473 67.088 7.238L67.018 8.19C65.7767 8.218 64.526 8.246 63.266 8.274C62.0153 8.302 60.8207 8.33 59.682 8.358C58.5527 8.3767 57.5493 8.3907 56.672 8.4L56.574 7.294ZM60.228 5.46L61.572 5.908C61.2733 6.272 60.956 6.636 60.62 7C60.2933 7.3547 59.9947 7.658 59.724 7.91L58.66 7.49C58.8373 7.3127 59.024 7.1073 59.22 6.874C59.416 6.6313 59.6027 6.3887 59.78 6.146C59.9573 5.894 60.1067 5.6653 60.228 5.46ZM64.092 6.524L65.058 5.81001C65.478 6.01531 65.9167 6.258 66.374 6.538C66.8313 6.818 67.2607 7.1027 67.662 7.392C68.0727 7.672 68.4087 7.9287 68.67 8.162L67.69 8.988C67.4287 8.736 67.0927 8.4607 66.682 8.162C66.2807 7.8633 65.8513 7.5693 65.394 7.28C64.946 6.9907 64.512 6.7387 64.092 6.524ZM76.132 0.742001C76.076 1.0127 75.9967 1.344 75.894 1.736C75.8007 2.1187 75.6607 2.5527 75.474 3.038C75.3153 3.43 75.1193 3.8313 74.886 4.242C74.662 4.6527 74.4287 5.026 74.186 5.362C74.3447 5.2687 74.5267 5.194 74.732 5.138C74.9467 5.0727 75.1613 5.026 75.376 4.998C75.6 4.9607 75.8007 4.942 75.978 4.942C76.538 4.942 77.0093 5.1053 77.392 5.432C77.7747 5.7493 77.966 6.2113 77.966 6.818C77.966 7.0047 77.966 7.2333 77.966 7.504C77.966 7.7747 77.9707 8.0593 77.98 8.358C77.9893 8.6567 77.994 8.9507 77.994 9.24C78.0033 9.5293 78.008 9.7813 78.008 9.996H76.678C76.6873 9.8187 76.6967 9.6133 76.706 9.38C76.7153 9.1373 76.72 8.8853 76.72 8.624C76.7293 8.3627 76.734 8.1107 76.734 7.868C76.734 7.6253 76.734 7.4107 76.734 7.224C76.7247 6.804 76.5987 6.5007 76.356 6.314C76.1133 6.1273 75.8287 6.034 75.502 6.034C75.082 6.034 74.662 6.132 74.242 6.328C73.8313 6.524 73.4767 6.762 73.178 7.042C72.982 7.238 72.7767 7.462 72.562 7.714C72.3567 7.966 72.1373 8.2413 71.904 8.54L70.7 7.644C71.344 7.0373 71.89 6.4587 72.338 5.908C72.786 5.3573 73.1547 4.8347 73.444 4.34C73.7427 3.836 73.976 3.36 74.144 2.912C74.2933 2.5293 74.4147 2.142 74.508 1.75C74.6013 1.3487 74.6573 0.975301 74.676 0.630001L76.132 0.742001ZM71.12 2.156C71.4933 2.212 71.904 2.254 72.352 2.282C72.8 2.3007 73.192 2.31 73.528 2.31C74.1533 2.31 74.83 2.296 75.558 2.268C76.286 2.24 77.0187 2.1933 77.756 2.128C78.5027 2.0627 79.2073 1.9693 79.87 1.848V3.15C79.3753 3.2153 78.848 3.276 78.288 3.332C77.728 3.388 77.1587 3.4347 76.58 3.472C76.0013 3.5 75.446 3.5233 74.914 3.542C74.382 3.5513 73.8967 3.556 73.458 3.556C73.262 3.556 73.0287 3.556 72.758 3.556C72.4967 3.5467 72.2213 3.5327 71.932 3.514C71.652 3.4953 71.3813 3.4813 71.12 3.472V2.156ZM81.998 5.79601C81.8673 5.84271 81.7133 5.894 81.536 5.95C81.368 6.006 81.2 6.0667 81.032 6.132C80.864 6.1973 80.71 6.258 80.57 6.314C80.094 6.5007 79.5387 6.7247 78.904 6.986C78.2787 7.2473 77.6347 7.5507 76.972 7.896C76.524 8.1293 76.1367 8.3627 75.81 8.596C75.4833 8.8293 75.2267 9.07201 75.04 9.32401C74.8627 9.57601 74.774 9.8513 74.774 10.15C74.774 10.3927 74.83 10.5887 74.942 10.738C75.054 10.8873 75.208 11.004 75.404 11.088C75.6093 11.1627 75.852 11.2187 76.132 11.256C76.4213 11.284 76.7433 11.298 77.098 11.298C77.658 11.298 78.2927 11.2653 79.002 11.2C79.7113 11.1347 80.374 11.046 80.99 10.934L80.948 12.348C80.612 12.3853 80.22 12.4227 79.772 12.46C79.324 12.5067 78.862 12.5393 78.386 12.558C77.9193 12.586 77.476 12.6 77.056 12.6C76.356 12.6 75.726 12.5347 75.166 12.404C74.606 12.2733 74.1627 12.0493 73.836 11.732C73.5093 11.4053 73.346 10.9527 73.346 10.374C73.346 9.9167 73.4487 9.506 73.654 9.142C73.8687 8.7687 74.144 8.4327 74.48 8.134C74.8253 7.8353 75.208 7.56 75.628 7.308C76.048 7.056 76.4633 6.8273 76.874 6.622C77.3127 6.3887 77.7187 6.188 78.092 6.02C78.4747 5.8427 78.8293 5.684 79.156 5.544C79.492 5.404 79.8047 5.264 80.094 5.124C80.3367 5.0213 80.5653 4.9233 80.78 4.83C80.9947 4.7273 81.2093 4.62 81.424 4.508L81.998 5.79601ZM92.274 0.0699997H93.59V1.96H92.274V0.0699997ZM92.33 5.516H93.534V13.062H92.33V5.516ZM94.332 2.1L95.662 2.352C95.503 2.7253 95.34 3.094 95.172 3.458C95.004 3.8127 94.85 4.1207 94.71 4.382L93.562 4.13C93.646 3.9433 93.735 3.7287 93.828 3.486C93.931 3.2433 94.024 3.0007 94.108 2.758C94.201 2.5153 94.276 2.296 94.332 2.1ZM90.398 2.436L91.546 2.17C91.695 2.4687 91.826 2.7953 91.938 3.15C92.059 3.5047 92.143 3.81271 92.19 4.07401L90.972 4.396C90.944 4.1347 90.874 3.822 90.762 3.458C90.65 3.0847 90.529 2.744 90.398 2.436ZM89.138 1.288H96.754V2.408H89.138V1.288ZM89.04 4.004H96.922V6.51H95.69V5.096H90.23V6.51H89.04V4.004ZM89.754 6.762H95.592V7.854H90.916V11.746H89.754V6.762ZM95.074 6.762H96.236V10.416C96.236 10.6773 96.208 10.8967 96.152 11.074C96.096 11.2513 95.979 11.3867 95.802 11.48C95.625 11.5827 95.41 11.648 95.158 11.676C94.915 11.6947 94.617 11.704 94.262 11.704C94.253 11.5267 94.211 11.3307 94.136 11.116C94.061 10.9013 93.987 10.7147 93.912 10.556C94.136 10.5653 94.337 10.57 94.514 10.57C94.701 10.57 94.831 10.57 94.906 10.57C95.018 10.5607 95.074 10.5 95.074 10.388V6.762ZM86.17 0.0699997L87.304 0.490002C87.127 0.844702 86.935 1.2087 86.73 1.582C86.534 1.9553 86.338 2.3147 86.142 2.66C85.955 3.0053 85.773 3.3133 85.596 3.584L84.714 3.206C84.882 2.9353 85.055 2.618 85.232 2.254C85.419 1.8807 85.596 1.5027 85.764 1.12C85.932 0.737303 86.067 0.3873 86.17 0.0699997ZM87.668 1.694L88.732 2.184C88.415 2.7067 88.069 3.2573 87.696 3.836C87.323 4.4147 86.945 4.9747 86.562 5.516C86.189 6.048 85.829 6.5147 85.484 6.916L84.714 6.496C84.966 6.188 85.227 5.838 85.498 5.446C85.769 5.0447 86.035 4.6293 86.296 4.2C86.567 3.7613 86.819 3.3273 87.052 2.898C87.285 2.4687 87.491 2.0673 87.668 1.694ZM83.972 3.108L84.63 2.254C84.873 2.478 85.12 2.7253 85.372 2.996C85.633 3.2667 85.867 3.5327 86.072 3.794C86.287 4.0553 86.45 4.2933 86.562 4.508L85.862 5.488C85.75 5.2547 85.591 5.0027 85.386 4.732C85.181 4.452 84.952 4.172 84.7 3.892C84.448 3.6027 84.205 3.3413 83.972 3.108ZM87.178 4.914L88.074 4.564C88.251 4.872 88.419 5.208 88.578 5.572C88.737 5.936 88.877 6.2907 88.998 6.636C89.119 6.9813 89.199 7.28931 89.236 7.56001L88.284 7.966C88.237 7.7047 88.158 7.3967 88.046 7.042C87.934 6.6873 87.803 6.3233 87.654 5.95C87.505 5.5767 87.346 5.2313 87.178 4.914ZM83.874 6.244C84.471 6.216 85.167 6.1787 85.96 6.132C86.763 6.0853 87.584 6.0387 88.424 5.992L88.438 7.084C87.645 7.1493 86.861 7.21 86.086 7.266C85.321 7.3127 84.63 7.3593 84.014 7.406L83.874 6.244ZM87.43 8.386L88.326 8.12C88.494 8.5213 88.643 8.96 88.774 9.436C88.905 9.9027 88.993 10.3133 89.04 10.668L88.074 10.962C88.046 10.6073 87.971 10.192 87.85 9.716C87.729 9.2307 87.589 8.7873 87.43 8.386ZM84.616 8.176L85.666 8.344C85.582 9.0067 85.461 9.66 85.302 10.304C85.153 10.948 84.975 11.494 84.77 11.942C84.705 11.886 84.611 11.83 84.49 11.774C84.369 11.718 84.247 11.662 84.126 11.606C84.005 11.55 83.902 11.508 83.818 11.48C84.033 11.0507 84.201 10.542 84.322 9.954C84.453 9.366 84.551 8.7733 84.616 8.176ZM86.044 6.804H87.164V13.062H86.044V6.804ZM107.072 0.980003C107.044 1.1013 107.011 1.2413 106.974 1.4C106.946 1.5493 106.913 1.6987 106.876 1.848C106.848 1.9973 106.82 2.1233 106.792 2.226C106.661 2.8233 106.503 3.44401 106.316 4.08801C106.129 4.72271 105.919 5.3527 105.686 5.978C105.462 6.594 105.215 7.1727 104.944 7.714C104.673 8.2553 104.389 8.7313 104.09 9.142C103.698 9.6553 103.32 10.094 102.956 10.458C102.601 10.822 102.237 11.102 101.864 11.298C101.5 11.494 101.103 11.592 100.674 11.592C100.31 11.592 99.969 11.494 99.652 11.298C99.335 11.0927 99.078 10.794 98.882 10.402C98.695 10.0007 98.602 9.5153 98.602 8.946C98.602 8.3487 98.714 7.7513 98.938 7.154C99.162 6.5473 99.47 5.9873 99.862 5.474C100.254 4.9607 100.711 4.536 101.234 4.2C101.943 3.724 102.653 3.388 103.362 3.192C104.071 2.9867 104.79 2.884 105.518 2.884C106.451 2.884 107.282 3.0847 108.01 3.486C108.738 3.878 109.307 4.4287 109.718 5.138C110.138 5.838 110.348 6.65471 110.348 7.58801C110.348 8.54001 110.133 9.366 109.704 10.066C109.284 10.766 108.696 11.326 107.94 11.746C107.193 12.1567 106.325 12.4367 105.336 12.586L104.496 11.326C105.243 11.2607 105.891 11.1207 106.442 10.906C107.002 10.6913 107.464 10.416 107.828 10.08C108.201 9.7347 108.477 9.3473 108.654 8.918C108.841 8.4887 108.934 8.02671 108.934 7.53201C108.934 6.86001 108.785 6.2673 108.486 5.754C108.197 5.2407 107.781 4.8393 107.24 4.55C106.708 4.2607 106.087 4.116 105.378 4.116C104.669 4.116 104.015 4.228 103.418 4.452C102.821 4.676 102.261 4.9793 101.738 5.362C101.365 5.642 101.038 5.978 100.758 6.37C100.478 6.7527 100.263 7.16331 100.114 7.60201C99.965 8.03131 99.89 8.4467 99.89 8.848C99.89 9.2493 99.974 9.5713 100.142 9.814C100.31 10.0567 100.534 10.178 100.814 10.178C101.029 10.178 101.239 10.1173 101.444 9.996C101.659 9.8747 101.869 9.7113 102.074 9.506C102.289 9.3007 102.494 9.0673 102.69 8.806C102.886 8.5447 103.073 8.274 103.25 7.994C103.502 7.6113 103.74 7.1773 103.964 6.692C104.197 6.2067 104.407 5.6933 104.594 5.152C104.79 4.6107 104.963 4.074 105.112 3.542C105.261 3.0007 105.373 2.4967 105.448 2.03C105.485 1.862 105.513 1.6613 105.532 1.428C105.551 1.1947 105.555 0.9987 105.546 0.84L107.072 0.980003ZM101.262 1.554C101.309 1.7593 101.355 1.974 101.402 2.198C101.458 2.4127 101.509 2.6227 101.556 2.828C101.659 3.192 101.78 3.58871 101.92 4.01801C102.06 4.44731 102.209 4.8767 102.368 5.306C102.527 5.7353 102.69 6.132 102.858 6.496C103.026 6.86 103.185 7.1727 103.334 7.434C103.577 7.826 103.852 8.232 104.16 8.652C104.477 9.072 104.799 9.4407 105.126 9.758L104.02 10.654C103.74 10.3367 103.474 10.0193 103.222 9.702C102.979 9.3753 102.737 9.0067 102.494 8.596C102.298 8.2973 102.102 7.94731 101.906 7.54601C101.719 7.14471 101.528 6.7107 101.332 6.244C101.145 5.7773 100.963 5.2967 100.786 4.802C100.618 4.3073 100.464 3.8267 100.324 3.36C100.249 3.1173 100.17 2.884 100.086 2.66C100.002 2.436 99.909 2.2167 99.806 2.002L101.262 1.554ZM113.666 6.146C113.871 6.1087 114.095 6.0573 114.338 5.992C114.59 5.9267 114.828 5.86131 115.052 5.79601C115.295 5.71201 115.607 5.6093 115.99 5.488C116.382 5.3667 116.811 5.2453 117.278 5.124C117.745 4.9933 118.211 4.886 118.678 4.802C119.154 4.718 119.602 4.676 120.022 4.676C120.722 4.676 121.338 4.8067 121.87 5.068C122.402 5.3293 122.817 5.7027 123.116 6.188C123.415 6.6733 123.564 7.2473 123.564 7.91C123.564 8.5727 123.415 9.1607 123.116 9.674C122.827 10.1873 122.397 10.6307 121.828 11.004C121.268 11.3773 120.587 11.6713 119.784 11.886C118.991 12.11 118.085 12.2547 117.068 12.32L116.48 10.962C117.255 10.934 117.983 10.8593 118.664 10.738C119.345 10.6167 119.943 10.4347 120.456 10.192C120.979 9.9493 121.385 9.6367 121.674 9.254C121.973 8.8713 122.122 8.4187 122.122 7.896C122.122 7.5133 122.029 7.1773 121.842 6.888C121.655 6.5987 121.399 6.37 121.072 6.202C120.745 6.034 120.358 5.95 119.91 5.95C119.574 5.95 119.196 5.992 118.776 6.076C118.356 6.16 117.922 6.272 117.474 6.412C117.035 6.5427 116.606 6.6873 116.186 6.846C115.775 6.9953 115.402 7.1353 115.066 7.266C114.73 7.3967 114.459 7.50871 114.254 7.60201L113.666 6.146ZM130.704 3.626C131.105 3.6633 131.502 3.696 131.894 3.724C132.286 3.7427 132.687 3.752 133.098 3.752C133.957 3.752 134.806 3.7147 135.646 3.64C136.486 3.5653 137.261 3.458 137.97 3.318V4.676C137.233 4.7973 136.444 4.886 135.604 4.942C134.764 4.998 133.929 5.0307 133.098 5.04C132.697 5.04 132.3 5.0307 131.908 5.012C131.516 4.9933 131.115 4.97 130.704 4.942V3.626ZM135.786 1.176C135.758 1.316 135.735 1.4607 135.716 1.61C135.707 1.7593 135.697 1.904 135.688 2.044C135.679 2.212 135.669 2.4267 135.66 2.688C135.66 2.94 135.655 3.22 135.646 3.528C135.646 3.8267 135.646 4.1253 135.646 4.424C135.646 5.012 135.655 5.5767 135.674 6.118C135.702 6.6593 135.73 7.1727 135.758 7.658C135.786 8.1433 135.809 8.6007 135.828 9.03C135.856 9.45 135.87 9.8327 135.87 10.178C135.87 10.5047 135.823 10.8127 135.73 11.102C135.646 11.382 135.506 11.634 135.31 11.858C135.114 12.082 134.853 12.2547 134.526 12.376C134.199 12.5067 133.793 12.572 133.308 12.572C132.356 12.572 131.614 12.3853 131.082 12.012C130.559 11.6387 130.298 11.116 130.298 10.444C130.298 10.0147 130.415 9.63201 130.648 9.29601C130.891 8.96001 131.231 8.694 131.67 8.498C132.118 8.302 132.655 8.204 133.28 8.204C133.896 8.204 134.465 8.274 134.988 8.414C135.511 8.554 135.987 8.736 136.416 8.96C136.845 9.184 137.237 9.4313 137.592 9.702C137.947 9.9727 138.269 10.234 138.558 10.486L137.802 11.662C137.289 11.1767 136.785 10.7567 136.29 10.402C135.795 10.0473 135.291 9.772 134.778 9.576C134.265 9.38 133.728 9.28201 133.168 9.28201C132.701 9.28201 132.319 9.3753 132.02 9.562C131.731 9.7487 131.586 9.996 131.586 10.304C131.586 10.6213 131.726 10.864 132.006 11.032C132.295 11.1907 132.664 11.27 133.112 11.27C133.457 11.27 133.728 11.214 133.924 11.102C134.12 10.99 134.26 10.8313 134.344 10.626C134.428 10.4113 134.47 10.1547 134.47 9.856C134.47 9.6133 134.461 9.2867 134.442 8.876C134.423 8.456 134.4 7.9987 134.372 7.504C134.353 7 134.335 6.4867 134.316 5.964C134.297 5.432 134.288 4.9233 134.288 4.438C134.288 3.934 134.283 3.472 134.274 3.052C134.274 2.6227 134.274 2.296 134.274 2.072C134.274 1.96 134.265 1.8153 134.246 1.638C134.237 1.4607 134.223 1.3067 134.204 1.176H135.786ZM128.912 1.302C128.884 1.386 128.847 1.498 128.8 1.638C128.763 1.7687 128.725 1.904 128.688 2.044C128.66 2.184 128.637 2.296 128.618 2.38C128.571 2.6133 128.515 2.9027 128.45 3.248C128.394 3.5933 128.333 3.976 128.268 4.396C128.212 4.8067 128.156 5.2267 128.1 5.656C128.053 6.0853 128.016 6.496 127.988 6.888C127.96 7.28 127.946 7.6253 127.946 7.924C127.946 8.1667 127.951 8.414 127.96 8.666C127.979 8.9087 128.007 9.1607 128.044 9.422C128.109 9.226 128.184 9.0253 128.268 8.82C128.352 8.6147 128.436 8.4093 128.52 8.204C128.613 7.9987 128.697 7.8073 128.772 7.63L129.472 8.176C129.351 8.5307 129.22 8.91331 129.08 9.32401C128.949 9.72531 128.823 10.108 128.702 10.472C128.59 10.836 128.511 11.1393 128.464 11.382C128.445 11.4753 128.427 11.5873 128.408 11.718C128.399 11.8393 128.394 11.942 128.394 12.026C128.403 12.0913 128.408 12.1707 128.408 12.264C128.408 12.3667 128.413 12.4647 128.422 12.558L127.19 12.642C127.05 12.1473 126.924 11.522 126.812 10.766C126.7 10.0007 126.644 9.142 126.644 8.19C126.644 7.6767 126.667 7.1353 126.714 6.566C126.761 5.9967 126.817 5.446 126.882 4.914C126.957 4.3727 127.027 3.878 127.092 3.43C127.167 2.9727 127.223 2.604 127.26 2.324C127.288 2.1467 127.311 1.9553 127.33 1.75C127.349 1.5447 127.363 1.3487 127.372 1.162L128.912 1.302ZM136.99 1.484C136.99 1.6987 137.06 1.8807 137.2 2.03C137.349 2.17 137.531 2.24 137.746 2.24C137.961 2.24 138.143 2.17 138.292 2.03C138.451 1.8807 138.53 1.6987 138.53 1.484C138.53 1.26 138.451 1.0733 138.292 0.924C138.143 0.7747 137.961 0.700001 137.746 0.700001C137.531 0.700001 137.349 0.7793 137.2 0.938C137.06 1.0873 136.99 1.2693 136.99 1.484ZM136.276 1.484C136.276 1.064 136.416 0.714002 136.696 0.434002C136.985 0.144702 137.335 0 137.746 0C138.166 0 138.521 0.144702 138.81 0.434002C139.099 0.714002 139.244 1.064 139.244 1.484C139.244 1.8947 139.099 2.2447 138.81 2.534C138.521 2.8233 138.166 2.968 137.746 2.968C137.335 2.968 136.985 2.8233 136.696 2.534C136.416 2.2447 136.276 1.8947 136.276 1.484ZM140.798 2.912C141.078 2.94 141.372 2.9633 141.68 2.982C141.997 2.9913 142.296 2.996 142.576 2.996C143.117 2.996 143.668 2.9727 144.228 2.926C144.797 2.87 145.357 2.7907 145.908 2.688C146.468 2.576 147 2.4407 147.504 2.282L147.546 3.57C147.117 3.6913 146.627 3.8033 146.076 3.906C145.525 4.0087 144.951 4.0927 144.354 4.158C143.757 4.2233 143.164 4.256 142.576 4.256C142.315 4.256 142.039 4.2513 141.75 4.242C141.461 4.2327 141.176 4.2233 140.896 4.214L140.798 2.912ZM145.964 0.700001C145.908 0.933301 145.833 1.2273 145.74 1.582C145.656 1.9367 145.558 2.31 145.446 2.702C145.343 3.094 145.236 3.472 145.124 3.836C144.9 4.508 144.62 5.222 144.284 5.978C143.948 6.7247 143.584 7.4527 143.192 8.162C142.8 8.8713 142.403 9.492 142.002 10.024L140.658 9.33801C140.975 8.95531 141.288 8.5307 141.596 8.064C141.904 7.588 142.193 7.098 142.464 6.594C142.744 6.0807 142.996 5.586 143.22 5.11C143.444 4.6247 143.626 4.1813 143.766 3.78C143.925 3.3133 144.069 2.786 144.2 2.198C144.331 1.61 144.405 1.0593 144.424 0.546001L145.964 0.700001ZM149.254 5.04C149.245 5.3293 149.24 5.6047 149.24 5.866C149.24 6.1273 149.245 6.398 149.254 6.678C149.263 6.8927 149.273 7.17271 149.282 7.51801C149.301 7.85401 149.319 8.2133 149.338 8.596C149.357 8.9787 149.371 9.3427 149.38 9.688C149.399 10.0333 149.408 10.3133 149.408 10.528C149.408 10.92 149.319 11.2793 149.142 11.606C148.974 11.9327 148.703 12.194 148.33 12.39C147.957 12.586 147.462 12.684 146.846 12.684C146.305 12.684 145.81 12.6047 145.362 12.446C144.923 12.2873 144.569 12.0493 144.298 11.732C144.037 11.4147 143.906 11.0133 143.906 10.528C143.906 10.0893 144.027 9.702 144.27 9.366C144.522 9.03 144.867 8.7687 145.306 8.582C145.745 8.386 146.253 8.288 146.832 8.288C147.635 8.288 148.372 8.4047 149.044 8.638C149.716 8.862 150.318 9.1467 150.85 9.492C151.391 9.828 151.858 10.1687 152.25 10.514L151.508 11.704C151.237 11.4613 150.939 11.2093 150.612 10.948C150.285 10.6773 149.921 10.43 149.52 10.206C149.128 9.9727 148.699 9.7813 148.232 9.632C147.775 9.4827 147.285 9.408 146.762 9.408C146.295 9.408 145.917 9.5013 145.628 9.688C145.348 9.8747 145.208 10.1127 145.208 10.402C145.208 10.7007 145.329 10.9433 145.572 11.13C145.824 11.3167 146.188 11.41 146.664 11.41C147.019 11.41 147.299 11.354 147.504 11.242C147.719 11.1207 147.868 10.9573 147.952 10.752C148.036 10.5467 148.078 10.318 148.078 10.066C148.078 9.8233 148.069 9.4967 148.05 9.086C148.041 8.6753 148.022 8.232 147.994 7.756C147.975 7.28 147.952 6.804 147.924 6.328C147.905 5.8427 147.891 5.4133 147.882 5.04H149.254ZM151.886 5.572C151.625 5.3573 151.298 5.1287 150.906 4.886C150.514 4.634 150.113 4.396 149.702 4.172C149.291 3.9387 148.927 3.752 148.61 3.612L149.324 2.534C149.576 2.646 149.861 2.7813 150.178 2.94C150.495 3.0987 150.813 3.2667 151.13 3.444C151.447 3.6213 151.741 3.7987 152.012 3.976C152.283 4.144 152.507 4.2887 152.684 4.41L151.886 5.572ZM158.48 0.896C158.443 1.148 158.41 1.4187 158.382 1.708C158.354 1.988 158.335 2.254 158.326 2.506C158.307 2.8887 158.289 3.3647 158.27 3.934C158.251 4.494 158.233 5.0913 158.214 5.726C158.195 6.3513 158.181 6.97201 158.172 7.58801C158.163 8.19471 158.158 8.7407 158.158 9.226C158.158 9.7207 158.247 10.1127 158.424 10.402C158.611 10.6913 158.867 10.9013 159.194 11.032C159.521 11.1533 159.885 11.214 160.286 11.214C160.902 11.214 161.457 11.1347 161.952 10.976C162.447 10.8173 162.89 10.6027 163.282 10.332C163.683 10.0613 164.043 9.7533 164.36 9.408C164.677 9.0627 164.962 8.7033 165.214 8.33L166.208 9.548C165.975 9.884 165.681 10.234 165.326 10.598C164.971 10.962 164.547 11.3027 164.052 11.62C163.567 11.9373 163.007 12.194 162.372 12.39C161.747 12.586 161.042 12.684 160.258 12.684C159.549 12.684 158.928 12.5767 158.396 12.362C157.864 12.1473 157.449 11.802 157.15 11.326C156.851 10.85 156.702 10.2247 156.702 9.45C156.702 9.0487 156.707 8.596 156.716 8.092C156.725 7.588 156.735 7.07 156.744 6.538C156.763 5.9967 156.777 5.4693 156.786 4.956C156.805 4.4427 156.819 3.9713 156.828 3.542C156.837 3.1127 156.842 2.7673 156.842 2.506C156.842 2.2073 156.828 1.9227 156.8 1.652C156.781 1.372 156.744 1.1153 156.688 0.882L158.48 0.896ZM5.852 22.282C6.2627 22.3473 6.7247 22.394 7.238 22.422C7.7607 22.45 8.2973 22.4593 8.848 22.45C9.3987 22.4407 9.926 22.422 10.43 22.394C10.934 22.366 11.368 22.3287 11.732 22.282V23.71C11.3307 23.7473 10.878 23.78 10.374 23.808C9.87 23.8267 9.3473 23.836 8.806 23.836C8.274 23.836 7.7513 23.8267 7.238 23.808C6.7247 23.78 6.2673 23.7473 5.866 23.71L5.852 22.282ZM6.65 28.106C6.594 28.3487 6.5473 28.568 6.51 28.764C6.482 28.96 6.468 29.156 6.468 29.352C6.468 29.5107 6.5007 29.66 6.566 29.8C6.6407 29.94 6.7573 30.0613 6.916 30.164C7.084 30.2667 7.308 30.3507 7.588 30.416C7.8773 30.472 8.232 30.5 8.652 30.5C9.2867 30.5 9.8793 30.472 10.43 30.416C10.99 30.3507 11.5593 30.2527 12.138 30.122L12.166 31.62C11.7273 31.704 11.214 31.774 10.626 31.83C10.0473 31.8767 9.38 31.9 8.624 31.9C7.4387 31.9 6.5613 31.7087 5.992 31.326C5.432 30.934 5.152 30.3973 5.152 29.716C5.152 29.464 5.1707 29.2027 5.208 28.932C5.2453 28.652 5.306 28.3393 5.39 27.994L6.65 28.106ZM3.416 21.274C3.388 21.358 3.3507 21.47 3.304 21.61C3.2667 21.7407 3.2293 21.876 3.192 22.016C3.164 22.1467 3.1407 22.254 3.122 22.338C3.0753 22.5713 3.0193 22.856 2.954 23.192C2.898 23.5187 2.8373 23.878 2.772 24.27C2.716 24.6527 2.66 25.0447 2.604 25.446C2.5573 25.838 2.5153 26.2207 2.478 26.594C2.45 26.9673 2.436 27.308 2.436 27.616C2.436 27.8587 2.4407 28.106 2.45 28.358C2.4687 28.6007 2.492 28.8527 2.52 29.114C2.604 28.9273 2.688 28.7313 2.772 28.526C2.856 28.3113 2.94 28.1013 3.024 27.896C3.108 27.6907 3.1873 27.504 3.262 27.336L3.962 27.896C3.8407 28.2413 3.71 28.624 3.57 29.044C3.43 29.464 3.304 29.8653 3.192 30.248C3.0893 30.6213 3.0147 30.9247 2.968 31.158C2.9493 31.2513 2.9307 31.3633 2.912 31.494C2.8933 31.6153 2.8887 31.718 2.898 31.802C2.898 31.8673 2.898 31.9467 2.898 32.04C2.9073 32.1427 2.9167 32.236 2.926 32.32L1.652 32.404C1.512 31.9187 1.3907 31.2793 1.288 30.486C1.1853 29.6927 1.134 28.8247 1.134 27.882C1.134 27.3593 1.1573 26.832 1.204 26.3C1.2507 25.7587 1.3067 25.236 1.372 24.732C1.4373 24.228 1.5027 23.766 1.568 23.346C1.6427 22.926 1.6987 22.576 1.736 22.296C1.764 22.1187 1.7873 21.9273 1.806 21.722C1.834 21.5167 1.8527 21.3207 1.862 21.134L3.416 21.274ZM22.6067 20.714C22.5974 20.77 22.5834 20.868 22.5647 21.008C22.5554 21.148 22.5461 21.288 22.5367 21.428C22.5274 21.568 22.5227 21.6707 22.5227 21.736C22.5134 21.9133 22.5041 22.1607 22.4947 22.478C22.4947 22.786 22.4947 23.1267 22.4947 23.5C22.4947 23.8733 22.4947 24.2513 22.4947 24.634C22.5041 25.0073 22.5087 25.362 22.5087 25.698C22.5181 26.0247 22.5227 26.3 22.5227 26.524L21.1647 25.964C21.1647 25.8147 21.1647 25.6047 21.1647 25.334C21.1647 25.054 21.1601 24.7413 21.1507 24.396C21.1507 24.0413 21.1461 23.6913 21.1367 23.346C21.1367 23.0007 21.1321 22.6833 21.1227 22.394C21.1227 22.1047 21.1181 21.8853 21.1087 21.736C21.0901 21.512 21.0667 21.302 21.0387 21.106C21.0201 20.91 21.0061 20.7793 20.9967 20.714H22.6067ZM14.9487 22.576C15.3501 22.5667 15.7981 22.5573 16.2927 22.548C16.7967 22.5387 17.3287 22.5293 17.8887 22.52C18.4487 22.5013 19.0041 22.4873 19.5547 22.478C20.1147 22.4593 20.6467 22.45 21.1507 22.45C21.6547 22.4407 22.1027 22.436 22.4947 22.436C22.8961 22.436 23.3067 22.436 23.7267 22.436C24.1467 22.436 24.5481 22.436 24.9307 22.436C25.3134 22.436 25.6587 22.436 25.9667 22.436C26.2841 22.436 26.5314 22.436 26.7087 22.436L26.6807 23.752C26.2794 23.7333 25.7334 23.7193 25.0427 23.71C24.3614 23.6913 23.5027 23.682 22.4667 23.682C21.8507 23.682 21.2161 23.6867 20.5627 23.696C19.9094 23.7053 19.2514 23.724 18.5887 23.752C17.9354 23.7707 17.3007 23.794 16.6847 23.822C16.0781 23.85 15.5134 23.8827 14.9907 23.92L14.9487 22.576ZM22.3967 26.664C22.3967 27.3547 22.3034 27.9287 22.1167 28.386C21.9394 28.834 21.6827 29.1747 21.3467 29.408C21.0107 29.632 20.6047 29.744 20.1287 29.744C19.8394 29.744 19.5547 29.6927 19.2747 29.59C19.0041 29.4873 18.7521 29.3333 18.5187 29.128C18.2947 28.9133 18.1127 28.6567 17.9727 28.358C17.8421 28.05 17.7767 27.7 17.7767 27.308C17.7767 26.8133 17.8934 26.3793 18.1267 26.006C18.3694 25.6233 18.6867 25.3247 19.0787 25.11C19.4801 24.8953 19.9141 24.788 20.3807 24.788C20.9594 24.788 21.4401 24.9187 21.8227 25.18C22.2147 25.4413 22.5087 25.796 22.7047 26.244C22.9007 26.6827 22.9987 27.182 22.9987 27.742C22.9987 28.1993 22.9287 28.6753 22.7887 29.17C22.6487 29.6553 22.4154 30.1267 22.0887 30.584C21.7621 31.0413 21.3187 31.4613 20.7587 31.844C20.2081 32.2173 19.5174 32.5253 18.6867 32.768L17.4967 31.592C18.1221 31.4613 18.6867 31.2887 19.1907 31.074C19.6947 30.85 20.1287 30.5793 20.4927 30.262C20.8567 29.9353 21.1367 29.5527 21.3327 29.114C21.5381 28.666 21.6407 28.148 21.6407 27.56C21.6407 27 21.5147 26.594 21.2627 26.342C21.0201 26.09 20.7214 25.964 20.3667 25.964C20.1521 25.964 19.9467 26.0153 19.7507 26.118C19.5547 26.2207 19.3961 26.37 19.2747 26.566C19.1534 26.762 19.0927 27 19.0927 27.28C19.0927 27.672 19.2187 27.98 19.4707 28.204C19.7321 28.4187 20.0307 28.526 20.3667 28.526C20.6374 28.526 20.8661 28.4513 21.0527 28.302C21.2487 28.1433 21.3841 27.9007 21.4587 27.574C21.5334 27.238 21.5147 26.8133 21.4027 26.3L22.3967 26.664ZM30.8807 21.414C31.0581 21.4327 31.2447 21.4467 31.4407 21.456C31.6461 21.4653 31.8327 21.47 32.0007 21.47C32.1407 21.47 32.3647 21.47 32.6727 21.47C32.9901 21.4607 33.3447 21.4513 33.7367 21.442C34.1381 21.4327 34.5347 21.4233 34.9267 21.414C35.3187 21.3953 35.6687 21.3767 35.9767 21.358C36.2941 21.3393 36.5274 21.3253 36.6767 21.316C36.9287 21.2973 37.1201 21.2787 37.2507 21.26C37.3907 21.2413 37.4981 21.218 37.5727 21.19L38.3427 22.198C38.2027 22.2913 38.0581 22.3847 37.9087 22.478C37.7594 22.5713 37.6101 22.6787 37.4607 22.8C37.2834 22.9307 37.0501 23.1127 36.7607 23.346C36.4807 23.57 36.1774 23.822 35.8507 24.102C35.5241 24.3727 35.2021 24.6387 34.8847 24.9C34.5674 25.1613 34.2827 25.3947 34.0307 25.6C34.3107 25.5067 34.5907 25.446 34.8707 25.418C35.1507 25.3807 35.4307 25.362 35.7107 25.362C36.4854 25.362 37.1807 25.5113 37.7967 25.81C38.4127 26.1087 38.8981 26.51 39.2527 27.014C39.6074 27.518 39.7847 28.1013 39.7847 28.764C39.7847 29.5013 39.5887 30.1593 39.1967 30.738C38.8141 31.3167 38.2541 31.7693 37.5167 32.096C36.7887 32.4227 35.9021 32.586 34.8567 32.586C34.2127 32.586 33.6481 32.4973 33.1627 32.32C32.6774 32.1427 32.2994 31.8953 32.0287 31.578C31.7674 31.2513 31.6367 30.878 31.6367 30.458C31.6367 30.1127 31.7301 29.7907 31.9167 29.492C32.1127 29.184 32.3834 28.9413 32.7287 28.764C33.0834 28.5773 33.4894 28.484 33.9467 28.484C34.5814 28.484 35.1087 28.6147 35.5287 28.876C35.9581 29.128 36.2847 29.464 36.5087 29.884C36.7421 30.304 36.8681 30.7613 36.8867 31.256L35.6127 31.438C35.5847 30.878 35.4214 30.4207 35.1227 30.066C34.8334 29.7113 34.4414 29.534 33.9467 29.534C33.6481 29.534 33.4007 29.6133 33.2047 29.772C33.0181 29.9307 32.9247 30.1173 32.9247 30.332C32.9247 30.64 33.0787 30.8827 33.3867 31.06C33.7041 31.2373 34.1101 31.326 34.6047 31.326C35.3981 31.326 36.0747 31.228 36.6347 31.032C37.1947 30.8267 37.6194 30.5327 37.9087 30.15C38.1981 29.758 38.3427 29.2867 38.3427 28.736C38.3427 28.2973 38.2121 27.9053 37.9507 27.56C37.6894 27.2147 37.3301 26.9487 36.8727 26.762C36.4154 26.566 35.8927 26.468 35.3047 26.468C34.7447 26.468 34.2314 26.5333 33.7647 26.664C33.3074 26.7853 32.8781 26.9673 32.4767 27.21C32.0754 27.4433 31.6787 27.7373 31.2867 28.092C30.9041 28.4373 30.5074 28.834 30.0967 29.282L29.0747 28.246C29.3547 28.022 29.6627 27.77 29.9987 27.49C30.3347 27.21 30.6707 26.93 31.0067 26.65C31.3521 26.3607 31.6741 26.09 31.9727 25.838C32.2807 25.5767 32.5374 25.362 32.7427 25.194C32.9387 25.0353 33.1767 24.844 33.4567 24.62C33.7367 24.3867 34.0261 24.144 34.3247 23.892C34.6234 23.64 34.9081 23.402 35.1787 23.178C35.4494 22.9447 35.6734 22.7487 35.8507 22.59C35.7014 22.5993 35.4961 22.6087 35.2347 22.618C34.9734 22.6273 34.6841 22.6413 34.3667 22.66C34.0587 22.6693 33.7461 22.6833 33.4287 22.702C33.1114 22.7113 32.8221 22.7253 32.5607 22.744C32.2994 22.7533 32.0987 22.7627 31.9587 22.772C31.7907 22.7813 31.6134 22.7953 31.4267 22.814C31.2494 22.8233 31.0814 22.8373 30.9227 22.856L30.8807 21.414ZM53.1687 23.612C52.9914 23.724 52.8001 23.836 52.5947 23.948C52.3987 24.0507 52.1887 24.158 51.9647 24.27C51.7314 24.3913 51.4514 24.536 51.1247 24.704C50.7981 24.8627 50.4434 25.04 50.0607 25.236C49.6781 25.4227 49.2954 25.6233 48.9127 25.838C48.5394 26.0527 48.1847 26.2673 47.8487 26.482C47.2327 26.8927 46.7427 27.3173 46.3787 27.756C46.0147 28.1947 45.8327 28.6753 45.8327 29.198C45.8327 29.7393 46.0941 30.164 46.6167 30.472C47.1394 30.78 47.9234 30.934 48.9687 30.934C49.4727 30.934 50.0001 30.9153 50.5507 30.878C51.1014 30.8313 51.6334 30.7707 52.1467 30.696C52.6694 30.6213 53.1174 30.5327 53.4907 30.43L53.4767 32.026C53.1127 32.082 52.6974 32.138 52.2307 32.194C51.7641 32.25 51.2601 32.292 50.7187 32.32C50.1867 32.348 49.6221 32.362 49.0247 32.362C48.3527 32.362 47.7274 32.3107 47.1487 32.208C46.5794 32.1053 46.0847 31.9373 45.6647 31.704C45.2447 31.4707 44.9181 31.1627 44.6847 30.78C44.4514 30.388 44.3347 29.912 44.3347 29.352C44.3347 28.8107 44.4514 28.3113 44.6847 27.854C44.9274 27.3967 45.2587 26.9673 45.6787 26.566C46.0987 26.1647 46.5841 25.782 47.1347 25.418C47.4801 25.1847 47.8487 24.956 48.2407 24.732C48.6327 24.508 49.0154 24.2933 49.3887 24.088C49.7714 23.8827 50.1261 23.696 50.4527 23.528C50.7794 23.36 51.0547 23.2107 51.2787 23.08C51.5027 22.9493 51.7034 22.828 51.8807 22.716C52.0674 22.604 52.2401 22.478 52.3987 22.338L53.1687 23.612ZM46.0987 20.882C46.3227 21.4793 46.5607 22.0673 46.8127 22.646C47.0647 23.2153 47.3167 23.7473 47.5687 24.242C47.8301 24.7367 48.0681 25.1753 48.2827 25.558L47.0507 26.286C46.8081 25.8847 46.5561 25.4227 46.2947 24.9C46.0334 24.368 45.7674 23.808 45.4967 23.22C45.2261 22.632 44.9647 22.044 44.7127 21.456L46.0987 20.882ZM58.8102 32.74C58.5208 32.3853 58.1988 32.0213 57.8442 31.648C57.4988 31.2747 57.1442 30.9153 56.7802 30.57C56.4255 30.2247 56.0848 29.9167 55.7582 29.646L56.9062 28.638C57.2422 28.9087 57.5968 29.226 57.9702 29.59C58.3435 29.9447 58.7075 30.3133 59.0622 30.696C59.4262 31.0693 59.7388 31.4147 60.0002 31.732L58.8102 32.74ZM72.9082 23.99V25.18H79.2922V23.99H72.9082ZM72.9082 26.272V27.476H79.2922V26.272H72.9082ZM72.9082 21.708V22.884H79.2922V21.708H72.9082ZM71.6202 20.532H80.6362V28.652H71.6202V20.532ZM76.8842 27.77H78.2422V31.2C78.2422 31.4147 78.2795 31.5547 78.3542 31.62C78.4382 31.676 78.6248 31.704 78.9142 31.704C78.9702 31.704 79.0775 31.704 79.2362 31.704C79.4042 31.704 79.5862 31.704 79.7822 31.704C79.9782 31.704 80.1602 31.704 80.3282 31.704C80.5055 31.704 80.6362 31.704 80.7202 31.704C80.9068 31.704 81.0422 31.662 81.1262 31.578C81.2195 31.4847 81.2848 31.298 81.3222 31.018C81.3595 30.738 81.3875 30.318 81.4062 29.758C81.4995 29.8327 81.6162 29.9073 81.7562 29.982C81.9055 30.0473 82.0595 30.108 82.2182 30.164C82.3768 30.22 82.5168 30.262 82.6382 30.29C82.5915 30.9993 82.5075 31.5453 82.3862 31.928C82.2648 32.3107 82.0828 32.5767 81.8402 32.726C81.5975 32.8753 81.2662 32.95 80.8462 32.95C80.7808 32.95 80.6735 32.95 80.5242 32.95C80.3842 32.95 80.2255 32.95 80.0482 32.95C79.8708 32.95 79.6935 32.95 79.5162 32.95C79.3388 32.95 79.1802 32.95 79.0402 32.95C78.9095 32.95 78.8115 32.95 78.7462 32.95C78.2608 32.95 77.8782 32.8987 77.5982 32.796C77.3275 32.6933 77.1408 32.5113 77.0382 32.25C76.9355 31.998 76.8842 31.6527 76.8842 31.214V27.77ZM73.4962 28.19H74.9242C74.8495 28.8153 74.7328 29.3893 74.5742 29.912C74.4248 30.4253 74.1868 30.8827 73.8602 31.284C73.5335 31.6853 73.0855 32.0353 72.5162 32.334C71.9562 32.642 71.2328 32.894 70.3462 33.09C70.3088 32.978 70.2482 32.8473 70.1642 32.698C70.0802 32.558 69.9868 32.4133 69.8842 32.264C69.7815 32.124 69.6835 32.012 69.5902 31.928C70.3742 31.7693 71.0088 31.578 71.4942 31.354C71.9888 31.13 72.3715 30.8687 72.6422 30.57C72.9128 30.262 73.1088 29.912 73.2302 29.52C73.3515 29.128 73.4402 28.6847 73.4962 28.19ZM87.468 20.714C87.851 20.7887 88.29 20.8633 88.784 20.938C89.288 21.0127 89.802 21.0827 90.324 21.148C90.856 21.2133 91.36 21.2693 91.836 21.316C92.322 21.3627 92.737 21.3953 93.082 21.414L92.9 22.716C92.536 22.688 92.116 22.6507 91.64 22.604C91.174 22.548 90.684 22.4873 90.17 22.422C89.657 22.3567 89.148 22.2867 88.644 22.212C88.14 22.1373 87.674 22.0627 87.244 21.988L87.468 20.714ZM93.446 24.9C93.297 25.012 93.148 25.1287 92.998 25.25C92.849 25.3713 92.723 25.4787 92.62 25.572C92.471 25.7027 92.28 25.8753 92.046 26.09C91.813 26.2953 91.57 26.5193 91.318 26.762C91.066 26.9953 90.833 27.2147 90.618 27.42C90.404 27.616 90.245 27.7747 90.142 27.896C90.208 27.8867 90.292 27.8913 90.394 27.91C90.506 27.9193 90.6 27.938 90.674 27.966C90.917 28.0033 91.113 28.106 91.262 28.274C91.421 28.442 91.547 28.666 91.64 28.946C91.687 29.0673 91.734 29.2167 91.78 29.394C91.836 29.562 91.888 29.7347 91.934 29.912C91.99 30.08 92.042 30.234 92.088 30.374C92.163 30.6167 92.284 30.7987 92.452 30.92C92.63 31.0413 92.877 31.102 93.194 31.102C93.53 31.102 93.862 31.0927 94.188 31.074C94.515 31.046 94.823 31.0087 95.112 30.962C95.402 30.9153 95.658 30.8687 95.882 30.822L95.798 32.292C95.602 32.32 95.341 32.348 95.014 32.376C94.688 32.4133 94.352 32.4413 94.006 32.46C93.661 32.488 93.367 32.502 93.124 32.502C92.518 32.502 92.032 32.4133 91.668 32.236C91.304 32.068 91.043 31.7553 90.884 31.298C90.838 31.158 90.786 30.9947 90.73 30.808C90.674 30.612 90.618 30.4207 90.562 30.234C90.516 30.038 90.474 29.8793 90.436 29.758C90.352 29.506 90.24 29.324 90.1 29.212C89.96 29.0907 89.802 29.03 89.624 29.03C89.456 29.03 89.288 29.0813 89.12 29.184C88.962 29.2773 88.803 29.4033 88.644 29.562C88.542 29.6647 88.411 29.8 88.252 29.968C88.094 30.1267 87.916 30.3133 87.72 30.528C87.534 30.7333 87.338 30.9527 87.132 31.186C86.927 31.41 86.722 31.6433 86.516 31.886C86.311 32.1193 86.124 32.348 85.956 32.572L84.626 31.648C84.729 31.5547 84.85 31.4473 84.99 31.326C85.14 31.2047 85.294 31.0693 85.452 30.92C85.555 30.808 85.728 30.6307 85.97 30.388C86.213 30.1453 86.498 29.8607 86.824 29.534C87.151 29.2073 87.496 28.8573 87.86 28.484C88.234 28.1107 88.602 27.742 88.966 27.378C89.34 27.014 89.685 26.6733 90.002 26.356C90.32 26.0293 90.59 25.7493 90.814 25.516C90.609 25.5253 90.366 25.5393 90.086 25.558C89.806 25.5767 89.512 25.6 89.204 25.628C88.906 25.6467 88.607 25.67 88.308 25.698C88.019 25.726 87.748 25.7493 87.496 25.768C87.254 25.7867 87.044 25.8053 86.866 25.824C86.633 25.8333 86.418 25.852 86.222 25.88C86.036 25.908 85.863 25.936 85.704 25.964L85.578 24.424C85.737 24.4333 85.924 24.4427 86.138 24.452C86.362 24.4613 86.596 24.466 86.838 24.466C86.988 24.4567 87.221 24.4473 87.538 24.438C87.856 24.4193 88.215 24.4007 88.616 24.382C89.027 24.354 89.438 24.326 89.848 24.298C90.268 24.27 90.66 24.242 91.024 24.214C91.388 24.186 91.682 24.158 91.906 24.13C92.028 24.1113 92.158 24.088 92.298 24.06C92.448 24.032 92.555 24.004 92.62 23.976L93.446 24.9ZM98.374 22.912C98.654 22.94 98.948 22.9633 99.256 22.982C99.574 22.9913 99.872 22.996 100.152 22.996C100.694 22.996 101.244 22.9727 101.804 22.926C102.374 22.87 102.934 22.7907 103.484 22.688C104.044 22.576 104.576 22.4407 105.08 22.282L105.122 23.57C104.693 23.6913 104.203 23.8033 103.652 23.906C103.102 24.0087 102.528 24.0927 101.93 24.158C101.333 24.2233 100.74 24.256 100.152 24.256C99.891 24.256 99.616 24.2513 99.326 24.242C99.037 24.2327 98.752 24.2233 98.472 24.214L98.374 22.912ZM103.54 20.7C103.484 20.9333 103.41 21.2273 103.316 21.582C103.232 21.9367 103.134 22.31 103.022 22.702C102.92 23.094 102.812 23.472 102.7 23.836C102.476 24.508 102.196 25.222 101.86 25.978C101.524 26.7247 101.16 27.4527 100.768 28.162C100.376 28.8713 99.98 29.492 99.578 30.024L98.234 29.338C98.552 28.9553 98.864 28.5307 99.172 28.064C99.48 27.588 99.77 27.098 100.04 26.594C100.32 26.0807 100.572 25.586 100.796 25.11C101.02 24.6247 101.202 24.1813 101.342 23.78C101.501 23.3133 101.646 22.786 101.776 22.198C101.907 21.61 101.982 21.0593 102 20.546L103.54 20.7ZM106.83 25.04C106.821 25.3293 106.816 25.6047 106.816 25.866C106.816 26.1273 106.821 26.398 106.83 26.678C106.84 26.8927 106.849 27.1727 106.858 27.518C106.877 27.854 106.896 28.2133 106.914 28.596C106.933 28.9787 106.947 29.3427 106.956 29.688C106.975 30.0333 106.984 30.3133 106.984 30.528C106.984 30.92 106.896 31.2793 106.718 31.606C106.55 31.9327 106.28 32.194 105.906 32.39C105.533 32.586 105.038 32.684 104.422 32.684C103.881 32.684 103.386 32.6047 102.938 32.446C102.5 32.2873 102.145 32.0493 101.874 31.732C101.613 31.4147 101.482 31.0133 101.482 30.528C101.482 30.0893 101.604 29.702 101.846 29.366C102.098 29.03 102.444 28.7687 102.882 28.582C103.321 28.386 103.83 28.288 104.408 28.288C105.211 28.288 105.948 28.4047 106.62 28.638C107.292 28.862 107.894 29.1467 108.426 29.492C108.968 29.828 109.434 30.1687 109.826 30.514L109.084 31.704C108.814 31.4613 108.515 31.2093 108.188 30.948C107.862 30.6773 107.498 30.43 107.096 30.206C106.704 29.9727 106.275 29.7813 105.808 29.632C105.351 29.4827 104.861 29.408 104.338 29.408C103.872 29.408 103.494 29.5013 103.204 29.688C102.924 29.8747 102.784 30.1127 102.784 30.402C102.784 30.7007 102.906 30.9433 103.148 31.13C103.4 31.3167 103.764 31.41 104.24 31.41C104.595 31.41 104.875 31.354 105.08 31.242C105.295 31.1207 105.444 30.9573 105.528 30.752C105.612 30.5467 105.654 30.318 105.654 30.066C105.654 29.8233 105.645 29.4967 105.626 29.086C105.617 28.6753 105.598 28.232 105.57 27.756C105.552 27.28 105.528 26.804 105.5 26.328C105.482 25.8427 105.468 25.4133 105.458 25.04H106.83ZM109.462 25.572C109.201 25.3573 108.874 25.1287 108.482 24.886C108.09 24.634 107.689 24.396 107.278 24.172C106.868 23.9387 106.504 23.752 106.186 23.612L106.9 22.534C107.152 22.646 107.437 22.7813 107.754 22.94C108.072 23.0987 108.389 23.2667 108.706 23.444C109.024 23.6213 109.318 23.7987 109.588 23.976C109.859 24.144 110.083 24.2887 110.26 24.41L109.462 25.572ZM114.446 22.016C114.418 22.1467 114.395 22.3053 114.376 22.492C114.358 22.6787 114.339 22.8653 114.32 23.052C114.311 23.2387 114.306 23.3973 114.306 23.528C114.306 23.8173 114.306 24.1393 114.306 24.494C114.316 24.8487 114.325 25.2127 114.334 25.586C114.344 25.95 114.367 26.314 114.404 26.678C114.479 27.4153 114.591 28.0593 114.74 28.61C114.89 29.1607 115.081 29.59 115.314 29.898C115.548 30.206 115.818 30.36 116.126 30.36C116.304 30.36 116.472 30.276 116.63 30.108C116.789 29.94 116.938 29.716 117.078 29.436C117.218 29.156 117.344 28.8527 117.456 28.526C117.578 28.19 117.68 27.868 117.764 27.56L118.87 28.862C118.572 29.6553 118.273 30.29 117.974 30.766C117.685 31.2327 117.386 31.5687 117.078 31.774C116.77 31.9793 116.444 32.082 116.098 32.082C115.632 32.082 115.184 31.9233 114.754 31.606C114.334 31.2793 113.97 30.7473 113.662 30.01C113.354 29.2727 113.135 28.288 113.004 27.056C112.958 26.6453 112.92 26.202 112.892 25.726C112.874 25.25 112.86 24.7973 112.85 24.368C112.85 23.9387 112.85 23.584 112.85 23.304C112.85 23.1267 112.841 22.912 112.822 22.66C112.813 22.3987 112.785 22.1747 112.738 21.988L114.446 22.016ZM121.614 22.366C121.866 22.6927 122.109 23.0753 122.342 23.514C122.585 23.9433 122.804 24.41 123 24.914C123.196 25.418 123.369 25.9313 123.518 26.454C123.677 26.9767 123.808 27.4947 123.91 28.008C124.013 28.5213 124.083 29.0067 124.12 29.464L122.678 30.024C122.622 29.4173 122.529 28.7827 122.398 28.12C122.268 27.4573 122.1 26.804 121.894 26.16C121.689 25.5067 121.446 24.8953 121.166 24.326C120.896 23.7473 120.583 23.248 120.228 22.828L121.614 22.366ZM129.454 25.824H138.596V27.098H129.454V25.824ZM131.134 22.296H138.022V23.556H131.134V22.296ZM133.43 20.07H134.746V26.496H133.43V20.07ZM131.106 20.266L132.436 20.518C132.315 21.162 132.156 21.8013 131.96 22.436C131.774 23.0613 131.559 23.6447 131.316 24.186C131.074 24.718 130.808 25.1893 130.518 25.6C130.434 25.5253 130.322 25.446 130.182 25.362C130.042 25.2687 129.898 25.18 129.748 25.096C129.599 25.0027 129.468 24.928 129.356 24.872C129.786 24.3307 130.145 23.6493 130.434 22.828C130.733 22.0067 130.957 21.1527 131.106 20.266ZM134.648 26.636H135.936V31.228C135.936 31.4333 135.96 31.5687 136.006 31.634C136.053 31.69 136.151 31.718 136.3 31.718C136.338 31.718 136.398 31.718 136.482 31.718C136.566 31.718 136.655 31.718 136.748 31.718C136.851 31.718 136.949 31.718 137.042 31.718C137.136 31.718 137.201 31.718 137.238 31.718C137.35 31.718 137.434 31.6713 137.49 31.578C137.546 31.4753 137.584 31.2793 137.602 30.99C137.63 30.6913 137.649 30.248 137.658 29.66C137.752 29.7253 137.864 29.7953 137.994 29.87C138.134 29.9353 138.279 29.996 138.428 30.052C138.578 30.0987 138.708 30.1407 138.82 30.178C138.783 30.8873 138.713 31.4427 138.61 31.844C138.517 32.236 138.372 32.5067 138.176 32.656C137.98 32.8147 137.71 32.894 137.364 32.894C137.308 32.894 137.22 32.894 137.098 32.894C136.977 32.894 136.851 32.894 136.72 32.894C136.59 32.894 136.464 32.894 136.342 32.894C136.23 32.894 136.146 32.894 136.09 32.894C135.698 32.894 135.4 32.8427 135.194 32.74C134.989 32.6467 134.844 32.4787 134.76 32.236C134.686 31.9933 134.648 31.662 134.648 31.242V26.636ZM131.792 26.846H133.122C133.076 27.5927 132.996 28.2833 132.884 28.918C132.772 29.5433 132.59 30.1173 132.338 30.64C132.096 31.1533 131.75 31.6107 131.302 32.012C130.864 32.4227 130.285 32.7727 129.566 33.062C129.52 32.9593 129.45 32.838 129.356 32.698C129.272 32.5673 129.174 32.4367 129.062 32.306C128.96 32.1847 128.857 32.0867 128.754 32.012C129.398 31.7787 129.912 31.494 130.294 31.158C130.677 30.822 130.971 30.4393 131.176 30.01C131.382 29.5807 131.526 29.1047 131.61 28.582C131.694 28.05 131.755 27.4713 131.792 26.846ZM126.234 21.12L127.018 20.224C127.308 20.3547 127.606 20.5133 127.914 20.7C128.222 20.8867 128.512 21.078 128.782 21.274C129.053 21.47 129.272 21.6567 129.44 21.834L128.6 22.842C128.442 22.6647 128.232 22.4733 127.97 22.268C127.709 22.0627 127.424 21.8573 127.116 21.652C126.808 21.4467 126.514 21.2693 126.234 21.12ZM125.576 24.9L126.304 23.948C126.594 24.0787 126.897 24.2327 127.214 24.41C127.541 24.578 127.849 24.7553 128.138 24.942C128.428 25.1287 128.661 25.3013 128.838 25.46L128.068 26.524C127.891 26.356 127.662 26.174 127.382 25.978C127.102 25.782 126.804 25.5907 126.486 25.404C126.178 25.2173 125.875 25.0493 125.576 24.9ZM125.968 32.096C126.183 31.732 126.421 31.3027 126.682 30.808C126.944 30.304 127.21 29.7767 127.48 29.226C127.751 28.666 127.998 28.12 128.222 27.588L129.202 28.344C128.997 28.848 128.778 29.366 128.544 29.898C128.311 30.4207 128.073 30.9433 127.83 31.466C127.597 31.9793 127.364 32.46 127.13 32.908L125.968 32.096ZM143.93 22.31H146.898V23.22H143.93V22.31ZM143.706 20.616H147.556V24.956H143.678V24.018H146.324V21.568H143.706V20.616ZM148.34 22.31H151.35V23.22H148.34V22.31ZM145.092 28.106H151.728V29.03H145.092V28.106ZM145.092 29.8H151.728V30.738H145.092V29.8ZM144.994 31.55H152.498V32.628H144.994V31.55ZM148.102 20.616H152.05V24.956H148.088V24.018H150.804V21.568H148.102V20.616ZM145.232 24.816L146.492 25.208C146.278 25.6467 146.021 26.0993 145.722 26.566C145.424 27.0327 145.102 27.476 144.756 27.896C144.411 28.3067 144.056 28.6753 143.692 29.002C143.571 28.8807 143.422 28.7407 143.244 28.582C143.067 28.4233 142.908 28.2973 142.768 28.204C143.104 27.9147 143.431 27.5787 143.748 27.196C144.066 26.8133 144.355 26.4167 144.616 26.006C144.878 25.5953 145.083 25.1987 145.232 24.816ZM145.568 26.272H152.148V27.308H145.568V33.076H144.392V27.084L145.162 26.272H145.568ZM148.382 24.942L149.712 25.306C149.516 25.642 149.32 25.978 149.124 26.314C148.928 26.6407 148.751 26.9207 148.592 27.154L147.556 26.832C147.706 26.5707 147.86 26.2627 148.018 25.908C148.177 25.544 148.298 25.222 148.382 24.942ZM147.668 26.958H148.9V31.928H147.668V26.958ZM140.276 21.134L141.018 20.154C141.289 20.266 141.574 20.4013 141.872 20.56C142.171 20.7187 142.456 20.882 142.726 21.05C142.997 21.218 143.216 21.3813 143.384 21.54L142.6 22.632C142.442 22.4733 142.232 22.3053 141.97 22.128C141.718 21.9413 141.443 21.7593 141.144 21.582C140.846 21.4047 140.556 21.2553 140.276 21.134ZM139.562 24.928L140.29 23.934C140.57 24.0273 140.864 24.1487 141.172 24.298C141.48 24.438 141.77 24.592 142.04 24.76C142.311 24.9187 142.535 25.0727 142.712 25.222L141.956 26.314C141.788 26.1647 141.569 26.006 141.298 25.838C141.028 25.67 140.743 25.5067 140.444 25.348C140.146 25.1893 139.852 25.0493 139.562 24.928ZM139.898 32.11C140.113 31.746 140.346 31.3167 140.598 30.822C140.85 30.3273 141.102 29.8047 141.354 29.254C141.616 28.7033 141.854 28.162 142.068 27.63L143.118 28.428C142.922 28.9133 142.708 29.4173 142.474 29.94C142.25 30.4627 142.022 30.976 141.788 31.48C141.555 31.9747 141.322 32.446 141.088 32.894L139.898 32.11ZM159.722 25.642V26.524H165.084V25.642H159.722ZM159.722 23.892V24.774H165.084V23.892H159.722ZM158.644 22.982H166.204V27.448H158.644V22.982ZM158.154 21.19H166.61V22.24H158.154V21.19ZM159.848 29.856H164.972V30.78H159.848V29.856ZM159.848 31.662H164.944V32.656H159.848V31.662ZM160.674 20.07H161.836V23.444H160.674V20.07ZM160.828 23.416H161.808V27H160.828V23.416ZM162.914 20.07H164.076V23.444H162.914V20.07ZM162.928 23.416H163.908V27H162.928V23.416ZM159.19 27.994H165.658V33.062H164.356V29.002H160.436V33.104H159.19V27.994ZM153.786 23.052H158.21V24.284H153.786V23.052ZM155.55 20.07H156.754V33.048H155.55V20.07ZM155.522 23.836L156.292 24.102C156.19 24.6527 156.064 25.2267 155.914 25.824C155.774 26.4213 155.606 27.0093 155.41 27.588C155.224 28.1667 155.018 28.708 154.794 29.212C154.57 29.7067 154.337 30.1313 154.094 30.486C154.029 30.3087 153.931 30.108 153.8 29.884C153.679 29.66 153.567 29.4687 153.464 29.31C153.688 29.002 153.903 28.6333 154.108 28.204C154.323 27.7747 154.519 27.3173 154.696 26.832C154.883 26.3373 155.046 25.8333 155.186 25.32C155.326 24.8067 155.438 24.312 155.522 23.836ZM156.67 25.082C156.745 25.1753 156.862 25.3433 157.02 25.586C157.179 25.8193 157.347 26.076 157.524 26.356C157.711 26.636 157.879 26.8973 158.028 27.14C158.178 27.3733 158.285 27.5413 158.35 27.644L157.678 28.596C157.604 28.4093 157.496 28.1807 157.356 27.91C157.226 27.63 157.081 27.3407 156.922 27.042C156.764 26.7433 156.614 26.468 156.474 26.216C156.334 25.9547 156.222 25.754 156.138 25.614L156.67 25.082ZM173.428 22.282C173.839 22.3473 174.301 22.394 174.814 22.422C175.337 22.45 175.874 22.4593 176.424 22.45C176.975 22.4407 177.502 22.422 178.006 22.394C178.51 22.366 178.944 22.3287 179.308 22.282V23.71C178.907 23.7473 178.454 23.78 177.95 23.808C177.446 23.8267 176.924 23.836 176.382 23.836C175.85 23.836 175.328 23.8267 174.814 23.808C174.301 23.78 173.844 23.7473 173.442 23.71L173.428 22.282ZM174.226 28.106C174.17 28.3487 174.124 28.568 174.086 28.764C174.058 28.96 174.044 29.156 174.044 29.352C174.044 29.5107 174.077 29.66 174.142 29.8C174.217 29.94 174.334 30.0613 174.492 30.164C174.66 30.2667 174.884 30.3507 175.164 30.416C175.454 30.472 175.808 30.5 176.228 30.5C176.863 30.5 177.456 30.472 178.006 30.416C178.566 30.3507 179.136 30.2527 179.714 30.122L179.742 31.62C179.304 31.704 178.79 31.774 178.202 31.83C177.624 31.8767 176.956 31.9 176.2 31.9C175.015 31.9 174.138 31.7087 173.568 31.326C173.008 30.934 172.728 30.3973 172.728 29.716C172.728 29.464 172.747 29.2027 172.784 28.932C172.822 28.652 172.882 28.3393 172.966 27.994L174.226 28.106ZM170.992 21.274C170.964 21.358 170.927 21.47 170.88 21.61C170.843 21.7407 170.806 21.876 170.768 22.016C170.74 22.1467 170.717 22.254 170.698 22.338C170.652 22.5713 170.596 22.856 170.53 23.192C170.474 23.5187 170.414 23.878 170.348 24.27C170.292 24.6527 170.236 25.0447 170.18 25.446C170.134 25.838 170.092 26.2207 170.054 26.594C170.026 26.9673 170.012 27.308 170.012 27.616C170.012 27.8587 170.017 28.106 170.026 28.358C170.045 28.6007 170.068 28.8527 170.096 29.114C170.18 28.9273 170.264 28.7313 170.348 28.526C170.432 28.3113 170.516 28.1013 170.6 27.896C170.684 27.6907 170.764 27.504 170.838 27.336L171.538 27.896C171.417 28.2413 171.286 28.624 171.146 29.044C171.006 29.464 170.88 29.8653 170.768 30.248C170.666 30.6213 170.591 30.9247 170.544 31.158C170.526 31.2513 170.507 31.3633 170.488 31.494C170.47 31.6153 170.465 31.718 170.474 31.802C170.474 31.8673 170.474 31.9467 170.474 32.04C170.484 32.1427 170.493 32.236 170.502 32.32L169.228 32.404C169.088 31.9187 168.967 31.2793 168.864 30.486C168.762 29.6927 168.71 28.8247 168.71 27.882C168.71 27.3593 168.734 26.832 168.78 26.3C168.827 25.7587 168.883 25.236 168.948 24.732C169.014 24.228 169.079 23.766 169.144 23.346C169.219 22.926 169.275 22.576 169.312 22.296C169.34 22.1187 169.364 21.9273 169.382 21.722C169.41 21.5167 169.429 21.3207 169.438 21.134L170.992 21.274ZM6.776 40.784C6.7667 40.943 6.7527 41.139 6.734 41.372C6.7247 41.596 6.7153 41.792 6.706 41.96C6.6593 43.379 6.5333 44.625 6.328 45.698C6.1227 46.762 5.8333 47.705 5.46 48.526C5.096 49.338 4.6387 50.057 4.088 50.682C3.5467 51.298 2.912 51.863 2.184 52.376L0.896 51.326C1.148 51.195 1.4187 51.027 1.708 50.822C1.9973 50.617 2.2633 50.393 2.506 50.15C2.954 49.73 3.346 49.259 3.682 48.736C4.018 48.213 4.298 47.63 4.522 46.986C4.7553 46.333 4.9327 45.595 5.054 44.774C5.1753 43.943 5.236 43.015 5.236 41.988C5.236 41.885 5.2313 41.759 5.222 41.61C5.222 41.461 5.2127 41.311 5.194 41.162C5.1753 41.013 5.1567 40.887 5.138 40.784H6.776ZM11.606 43.724C11.5873 43.845 11.5687 43.971 11.55 44.102C11.5313 44.233 11.5173 44.345 11.508 44.438C11.4987 44.718 11.4847 45.087 11.466 45.544C11.4473 46.001 11.4147 46.501 11.368 47.042C11.3307 47.583 11.2793 48.12 11.214 48.652C11.1487 49.184 11.074 49.679 10.99 50.136C10.906 50.584 10.7987 50.948 10.668 51.228C10.528 51.555 10.3273 51.793 10.066 51.942C9.814 52.101 9.4733 52.18 9.044 52.18C8.6707 52.18 8.2833 52.171 7.882 52.152C7.49 52.133 7.1167 52.11 6.762 52.082L6.594 50.612C6.958 50.659 7.3127 50.701 7.658 50.738C8.0127 50.766 8.3347 50.78 8.624 50.78C8.8387 50.78 9.0067 50.747 9.128 50.682C9.2493 50.607 9.3473 50.481 9.422 50.304C9.5153 50.108 9.5993 49.837 9.674 49.492C9.7487 49.137 9.8093 48.75 9.856 48.33C9.912 47.901 9.954 47.462 9.982 47.014C10.0193 46.557 10.0427 46.127 10.052 45.726C10.0707 45.315 10.08 44.956 10.08 44.648H2.94C2.6787 44.648 2.394 44.653 2.086 44.662C1.7873 44.671 1.5027 44.685 1.232 44.704V43.248C1.5027 43.267 1.7873 43.285 2.086 43.304C2.3847 43.323 2.6693 43.332 2.94 43.332H9.66C9.8467 43.332 10.0193 43.327 10.178 43.318C10.3367 43.299 10.486 43.276 10.626 43.248L11.606 43.724ZM23.786 40.756C23.9073 40.915 24.0333 41.111 24.164 41.344C24.304 41.577 24.4393 41.811 24.57 42.044C24.7007 42.277 24.8127 42.487 24.906 42.674L23.996 43.066C23.856 42.786 23.6787 42.459 23.464 42.086C23.2587 41.713 23.0627 41.395 22.876 41.134L23.786 40.756ZM25.368 40.168C25.4893 40.336 25.62 40.537 25.76 40.77C25.9093 41.003 26.054 41.237 26.194 41.47C26.334 41.694 26.4413 41.895 26.516 42.072L25.606 42.464C25.466 42.165 25.2887 41.839 25.074 41.484C24.8687 41.12 24.668 40.807 24.472 40.546L25.368 40.168ZM17.598 41.274C17.5793 41.461 17.5607 41.671 17.542 41.904C17.5233 42.137 17.514 42.357 17.514 42.562C17.514 42.683 17.514 42.926 17.514 43.29C17.514 43.645 17.514 44.069 17.514 44.564C17.514 45.049 17.514 45.563 17.514 46.104C17.514 46.636 17.514 47.154 17.514 47.658C17.514 48.153 17.514 48.591 17.514 48.974C17.514 49.357 17.514 49.632 17.514 49.8C17.514 50.136 17.5887 50.369 17.738 50.5C17.8967 50.621 18.1393 50.715 18.466 50.78C18.6807 50.808 18.942 50.831 19.25 50.85C19.5673 50.869 19.8893 50.878 20.216 50.878C20.58 50.878 20.9813 50.869 21.42 50.85C21.8587 50.831 22.2973 50.803 22.736 50.766C23.184 50.729 23.6087 50.682 24.01 50.626C24.4113 50.561 24.7567 50.491 25.046 50.416V52.026C24.626 52.082 24.1267 52.129 23.548 52.166C22.9787 52.213 22.3953 52.245 21.798 52.264C21.2007 52.292 20.6453 52.306 20.132 52.306C19.7027 52.306 19.2873 52.292 18.886 52.264C18.4847 52.245 18.1347 52.213 17.836 52.166C17.276 52.063 16.8373 51.863 16.52 51.564C16.212 51.256 16.058 50.808 16.058 50.22C16.058 49.977 16.058 49.641 16.058 49.212C16.058 48.783 16.058 48.302 16.058 47.77C16.058 47.238 16.058 46.697 16.058 46.146C16.058 45.586 16.058 45.063 16.058 44.578C16.058 44.083 16.058 43.659 16.058 43.304C16.058 42.94 16.058 42.693 16.058 42.562C16.058 42.45 16.0533 42.319 16.044 42.17C16.0347 42.011 16.0253 41.857 16.016 41.708C16.0067 41.549 15.988 41.405 15.96 41.274H17.598ZM16.87 45.642C17.2993 45.549 17.766 45.437 18.27 45.306C18.7833 45.166 19.2967 45.017 19.81 44.858C20.3327 44.699 20.8367 44.536 21.322 44.368C21.8073 44.191 22.2413 44.018 22.624 43.85C22.8573 43.757 23.086 43.654 23.31 43.542C23.534 43.43 23.758 43.304 23.982 43.164L24.598 44.578C24.3647 44.671 24.1173 44.774 23.856 44.886C23.5947 44.989 23.352 45.087 23.128 45.18C22.708 45.348 22.232 45.521 21.7 45.698C21.168 45.875 20.6173 46.053 20.048 46.23C19.4787 46.398 18.9187 46.557 18.368 46.706C17.8267 46.855 17.3273 46.986 16.87 47.098V45.642ZM33.656 40.98C33.6187 41.12 33.5813 41.279 33.544 41.456C33.516 41.633 33.4833 41.797 33.446 41.946C33.418 42.133 33.376 42.366 33.32 42.646C33.264 42.917 33.208 43.201 33.152 43.5C33.1053 43.789 33.0493 44.069 32.984 44.34C32.8907 44.732 32.774 45.185 32.634 45.698C32.494 46.211 32.3307 46.762 32.144 47.35C31.9667 47.929 31.7613 48.521 31.528 49.128C31.304 49.725 31.0567 50.313 30.786 50.892C30.5247 51.461 30.24 51.993 29.932 52.488L28.49 51.914C28.8167 51.485 29.12 50.999 29.4 50.458C29.68 49.917 29.9367 49.361 30.17 48.792C30.4033 48.213 30.6133 47.644 30.8 47.084C30.9867 46.524 31.1453 46.006 31.276 45.53C31.4067 45.045 31.5093 44.629 31.584 44.284C31.7147 43.687 31.8173 43.089 31.892 42.492C31.976 41.895 32.018 41.335 32.018 40.812L33.656 40.98ZM38.472 42.506C38.6867 42.795 38.9153 43.159 39.158 43.598C39.41 44.027 39.6527 44.485 39.886 44.97C40.1193 45.455 40.334 45.927 40.53 46.384C40.726 46.832 40.88 47.219 40.992 47.546L39.606 48.204C39.5033 47.831 39.3633 47.411 39.186 46.944C39.018 46.477 38.822 46.006 38.598 45.53C38.3833 45.045 38.15 44.587 37.898 44.158C37.6553 43.729 37.4127 43.369 37.17 43.08L38.472 42.506ZM28.336 43.962C28.5693 43.971 28.7933 43.976 29.008 43.976C29.2227 43.976 29.4513 43.971 29.694 43.962C29.9087 43.953 30.1793 43.939 30.506 43.92C30.842 43.892 31.1967 43.864 31.57 43.836C31.9527 43.799 32.3307 43.766 32.704 43.738C33.0773 43.701 33.4227 43.673 33.74 43.654C34.0667 43.635 34.328 43.626 34.524 43.626C34.972 43.626 35.3733 43.701 35.728 43.85C36.092 43.99 36.3767 44.242 36.582 44.606C36.7967 44.97 36.904 45.479 36.904 46.132C36.904 46.683 36.876 47.28 36.82 47.924C36.7733 48.559 36.6893 49.17 36.568 49.758C36.456 50.337 36.302 50.822 36.106 51.214C35.882 51.699 35.588 52.026 35.224 52.194C34.86 52.362 34.4353 52.446 33.95 52.446C33.6793 52.446 33.39 52.423 33.082 52.376C32.7833 52.339 32.5173 52.292 32.284 52.236L32.046 50.78C32.242 50.836 32.4473 50.887 32.662 50.934C32.8767 50.971 33.082 51.004 33.278 51.032C33.474 51.051 33.6373 51.06 33.768 51.06C34.0107 51.06 34.23 51.018 34.426 50.934C34.622 50.841 34.7853 50.663 34.916 50.402C35.056 50.103 35.168 49.725 35.252 49.268C35.3453 48.811 35.4153 48.321 35.462 47.798C35.5087 47.275 35.532 46.771 35.532 46.286C35.532 45.875 35.476 45.572 35.364 45.376C35.252 45.18 35.0887 45.049 34.874 44.984C34.6593 44.909 34.4027 44.872 34.104 44.872C33.88 44.872 33.572 44.891 33.18 44.928C32.7973 44.956 32.3867 44.993 31.948 45.04C31.5187 45.087 31.1127 45.133 30.73 45.18C30.3567 45.217 30.0673 45.25 29.862 45.278C29.6847 45.297 29.456 45.325 29.176 45.362C28.9053 45.399 28.672 45.437 28.476 45.474L28.336 43.962ZM38.444 40.504C38.5653 40.672 38.696 40.873 38.836 41.106C38.976 41.339 39.1113 41.573 39.242 41.806C39.3727 42.039 39.4847 42.249 39.578 42.436L38.654 42.828C38.57 42.641 38.4627 42.431 38.332 42.198C38.2013 41.965 38.066 41.731 37.926 41.498C37.7953 41.265 37.6647 41.059 37.534 40.882L38.444 40.504ZM40.04 39.916C40.1613 40.093 40.2967 40.299 40.446 40.532C40.5953 40.765 40.7353 40.999 40.866 41.232C41.006 41.456 41.118 41.652 41.202 41.82L40.292 42.226C40.1427 41.927 39.9607 41.596 39.746 41.232C39.5407 40.868 39.3353 40.555 39.13 40.294L40.04 39.916ZM50.4 40.056L51.576 40.35C51.324 41.05 50.9927 41.722 50.582 42.366C50.1807 43.01 49.742 43.551 49.266 43.99C49.21 43.915 49.126 43.827 49.014 43.724C48.902 43.612 48.79 43.505 48.678 43.402C48.566 43.299 48.4633 43.215 48.37 43.15C48.818 42.767 49.2193 42.305 49.574 41.764C49.9287 41.223 50.204 40.653 50.4 40.056ZM52.836 41.806L54.054 41.932C53.8487 42.847 53.522 43.64 53.074 44.312C52.6353 44.984 52.094 45.553 51.45 46.02C50.806 46.477 50.064 46.865 49.224 47.182C49.1867 47.098 49.1167 46.995 49.014 46.874C48.9207 46.753 48.8227 46.631 48.72 46.51C48.6173 46.389 48.5287 46.295 48.454 46.23C49.6393 45.866 50.6007 45.329 51.338 44.62C52.0847 43.911 52.584 42.973 52.836 41.806ZM50.162 41.414H54.866V42.436H49.644L50.162 41.414ZM43.876 40.028L44.982 40.308C44.758 40.812 44.464 41.302 44.1 41.778C43.7453 42.245 43.3813 42.641 43.008 42.968C42.9427 42.903 42.8493 42.828 42.728 42.744C42.616 42.66 42.4993 42.581 42.378 42.506C42.2567 42.431 42.1493 42.366 42.056 42.31C42.4293 42.021 42.7747 41.68 43.092 41.288C43.4187 40.887 43.68 40.467 43.876 40.028ZM43.778 40.91H48.846V41.778H43.358L43.778 40.91ZM50.568 42.212C50.932 43.211 51.5013 44.065 52.276 44.774C53.06 45.474 54.0353 45.969 55.202 46.258C55.0807 46.379 54.9407 46.547 54.782 46.762C54.6327 46.967 54.516 47.154 54.432 47.322C53.2 46.949 52.1827 46.347 51.38 45.516C50.5773 44.685 49.966 43.663 49.546 42.45L50.568 42.212ZM47.824 50.122H49.14V53.076H47.824V50.122ZM47.446 46.482L48.552 47C48.188 47.299 47.8007 47.588 47.39 47.868C46.9793 48.139 46.606 48.377 46.27 48.582L45.416 48.106C45.64 47.957 45.878 47.789 46.13 47.602C46.382 47.415 46.6247 47.224 46.858 47.028C47.0913 46.823 47.2873 46.641 47.446 46.482ZM50.148 47.014L51.254 47.63C50.778 47.957 50.26 48.288 49.7 48.624C49.14 48.951 48.58 49.263 48.02 49.562C47.46 49.851 46.9327 50.103 46.438 50.318L45.654 49.772C46.1393 49.539 46.6573 49.263 47.208 48.946C47.7587 48.629 48.2907 48.302 48.804 47.966C49.3267 47.621 49.7747 47.303 50.148 47.014ZM43.736 48.204L44.632 47.49C44.968 47.63 45.318 47.798 45.682 47.994C46.0553 48.19 46.41 48.386 46.746 48.582C47.0913 48.778 47.376 48.969 47.6 49.156L46.648 49.926C46.4427 49.758 46.1767 49.571 45.85 49.366C45.5233 49.151 45.1733 48.941 44.8 48.736C44.436 48.531 44.0813 48.353 43.736 48.204ZM50.624 48.862L51.534 48.246C51.9167 48.433 52.3133 48.647 52.724 48.89C53.144 49.133 53.5407 49.385 53.914 49.646C54.2967 49.898 54.6093 50.136 54.852 50.36L53.9 51.046C53.676 50.822 53.382 50.579 53.018 50.318C52.654 50.057 52.262 49.8 51.842 49.548C51.422 49.287 51.016 49.058 50.624 48.862ZM50.316 51.326L51.254 50.64C51.6367 50.761 52.0427 50.911 52.472 51.088C52.9013 51.256 53.312 51.433 53.704 51.62C54.1053 51.797 54.4367 51.97 54.698 52.138L53.69 52.908C53.4473 52.749 53.1347 52.572 52.752 52.376C52.3693 52.189 51.9633 52.003 51.534 51.816C51.1047 51.629 50.6987 51.466 50.316 51.326ZM42.392 49.618C43.064 49.618 43.82 49.613 44.66 49.604C45.5093 49.595 46.4147 49.585 47.376 49.576C48.3373 49.557 49.3267 49.543 50.344 49.534C51.3707 49.515 52.388 49.492 53.396 49.464L53.34 50.402C52.3507 50.43 51.3567 50.458 50.358 50.486C49.3593 50.514 48.384 50.542 47.432 50.57C46.4893 50.589 45.5933 50.607 44.744 50.626C43.8947 50.645 43.134 50.663 42.462 50.682L42.392 49.618ZM45.528 50.696L46.69 51.158C46.382 51.391 46.0227 51.62 45.612 51.844C45.2013 52.059 44.7813 52.259 44.352 52.446C43.9227 52.642 43.5073 52.805 43.106 52.936C43.0407 52.861 42.9473 52.768 42.826 52.656C42.714 52.544 42.5973 52.432 42.476 52.32C42.3547 52.208 42.2473 52.119 42.154 52.054C42.7513 51.895 43.358 51.699 43.974 51.466C44.5993 51.223 45.1173 50.967 45.528 50.696ZM43.344 42.352H44.38C44.324 42.809 44.2493 43.299 44.156 43.822C44.0627 44.335 43.9693 44.835 43.876 45.32C43.792 45.805 43.708 46.235 43.624 46.608L42.588 46.496C42.672 46.123 42.7607 45.698 42.854 45.222C42.9567 44.746 43.05 44.261 43.134 43.766C43.218 43.262 43.288 42.791 43.344 42.352ZM45.36 42.632H46.27C46.2327 42.959 46.1907 43.304 46.144 43.668C46.0973 44.032 46.0507 44.387 46.004 44.732C45.9667 45.068 45.92 45.371 45.864 45.642L44.954 45.614C45.0007 45.343 45.052 45.04 45.108 44.704C45.164 44.359 45.2107 44.009 45.248 43.654C45.2947 43.29 45.332 42.949 45.36 42.632ZM43.722 42.352H47.726V43.08H43.722V42.352ZM42.14 43.766H49.084V44.508H42.14V43.766ZM43.288 45.264H49.07V46.006H43.288V45.264ZM47.39 42.352H48.37C48.37 42.352 48.3653 42.403 48.356 42.506C48.356 42.609 48.3513 42.697 48.342 42.772C48.286 43.668 48.2253 44.396 48.16 44.956C48.0947 45.507 48.02 45.931 47.936 46.23C47.8613 46.529 47.768 46.739 47.656 46.86C47.5533 46.981 47.4367 47.07 47.306 47.126C47.1847 47.173 47.04 47.201 46.872 47.21C46.732 47.219 46.55 47.224 46.326 47.224C46.102 47.224 45.8687 47.215 45.626 47.196C45.6167 47.084 45.5887 46.949 45.542 46.79C45.5047 46.622 45.4533 46.487 45.388 46.384C45.6213 46.412 45.8313 46.431 46.018 46.44C46.214 46.44 46.3587 46.44 46.452 46.44C46.536 46.44 46.606 46.431 46.662 46.412C46.718 46.393 46.774 46.356 46.83 46.3C46.9047 46.207 46.9747 46.029 47.04 45.768C47.1053 45.497 47.166 45.101 47.222 44.578C47.2873 44.055 47.3433 43.365 47.39 42.506V42.352ZM61.642 41.47H68.852V42.618H61.642V41.47ZM61.964 51.2H69.034V52.362H61.964V51.2ZM61.25 44.634H62.44V53.062H61.25V44.634ZM64.484 46.482V47.434H67.074V46.482H64.484ZM64.484 48.372V49.338H67.074V48.372H64.484ZM64.484 44.606V45.544H67.074V44.606H64.484ZM63.322 43.612H68.278V50.318H63.322V43.612ZM64.862 40.07L66.22 40.154C66.1827 40.565 66.1313 41.003 66.066 41.47C66.01 41.927 65.9493 42.371 65.884 42.8C65.8187 43.229 65.758 43.612 65.702 43.948H64.47C64.5353 43.603 64.5913 43.211 64.638 42.772C64.6847 42.324 64.7267 41.867 64.764 41.4C64.8013 40.924 64.834 40.481 64.862 40.07ZM56.28 40.686H61.278V41.904H56.28V40.686ZM58.002 43.71H60.466V44.9H58.002V43.71ZM57.078 47.112L57.736 46.16C57.988 46.3 58.2493 46.463 58.52 46.65C58.7907 46.837 59.0427 47.028 59.276 47.224C59.5187 47.42 59.7053 47.602 59.836 47.77L59.164 48.834C59.024 48.666 58.8373 48.479 58.604 48.274C58.38 48.059 58.1327 47.854 57.862 47.658C57.6007 47.453 57.3393 47.271 57.078 47.112ZM57.932 41.078L59.192 41.274C59.052 42.179 58.8747 43.057 58.66 43.906C58.4453 44.755 58.1887 45.544 57.89 46.272C57.5913 46.991 57.246 47.625 56.854 48.176C56.7887 48.092 56.6953 47.994 56.574 47.882C56.462 47.77 56.3407 47.658 56.21 47.546C56.0887 47.434 55.9813 47.345 55.888 47.28C56.252 46.795 56.5647 46.225 56.826 45.572C57.0967 44.919 57.3207 44.209 57.498 43.444C57.6847 42.679 57.8293 41.89 57.932 41.078ZM60.032 43.71H60.27L60.494 43.668L61.25 43.892C61.0073 46.169 60.5407 48.083 59.85 49.632C59.1593 51.172 58.3007 52.339 57.274 53.132C57.218 53.039 57.134 52.931 57.022 52.81C56.91 52.689 56.7933 52.572 56.672 52.46C56.56 52.348 56.4573 52.264 56.364 52.208C57.3533 51.48 58.1607 50.43 58.786 49.058C59.4113 47.677 59.8267 45.983 60.032 43.976V43.71ZM74.48 40.896C74.4427 41.148 74.41 41.419 74.382 41.708C74.354 41.988 74.3353 42.254 74.326 42.506C74.3073 42.889 74.2887 43.365 74.27 43.934C74.2513 44.494 74.2327 45.091 74.214 45.726C74.1953 46.351 74.1813 46.972 74.172 47.588C74.1627 48.195 74.158 48.741 74.158 49.226C74.158 49.721 74.2467 50.113 74.424 50.402C74.6107 50.691 74.8673 50.901 75.194 51.032C75.5207 51.153 75.8847 51.214 76.286 51.214C76.902 51.214 77.4573 51.135 77.952 50.976C78.4467 50.817 78.89 50.603 79.282 50.332C79.6833 50.061 80.0427 49.753 80.36 49.408C80.6773 49.063 80.962 48.703 81.214 48.33L82.208 49.548C81.9747 49.884 81.6807 50.234 81.326 50.598C80.9713 50.962 80.5467 51.303 80.052 51.62C79.5667 51.937 79.0067 52.194 78.372 52.39C77.7467 52.586 77.042 52.684 76.258 52.684C75.5487 52.684 74.928 52.577 74.396 52.362C73.864 52.147 73.4487 51.802 73.15 51.326C72.8513 50.85 72.702 50.225 72.702 49.45C72.702 49.049 72.7067 48.596 72.716 48.092C72.7253 47.588 72.7347 47.07 72.744 46.538C72.7627 45.997 72.7767 45.469 72.786 44.956C72.8047 44.443 72.8187 43.971 72.828 43.542C72.8373 43.113 72.842 42.767 72.842 42.506C72.842 42.207 72.828 41.923 72.8 41.652C72.7813 41.372 72.744 41.115 72.688 40.882L74.48 40.896ZM84.206 42.436C84.477 42.427 84.729 42.417 84.962 42.408C85.196 42.389 85.378 42.375 85.508 42.366C85.76 42.347 86.096 42.319 86.516 42.282C86.946 42.235 87.431 42.189 87.972 42.142C88.514 42.086 89.092 42.035 89.708 41.988C90.324 41.932 90.954 41.876 91.598 41.82C92.102 41.773 92.588 41.736 93.054 41.708C93.521 41.671 93.96 41.643 94.37 41.624C94.781 41.596 95.145 41.577 95.462 41.568V42.982C95.21 42.982 94.916 42.987 94.58 42.996C94.254 43.005 93.927 43.024 93.6 43.052C93.274 43.08 92.989 43.127 92.746 43.192C92.28 43.332 91.855 43.551 91.472 43.85C91.09 44.149 90.763 44.494 90.492 44.886C90.222 45.278 90.012 45.693 89.862 46.132C89.713 46.561 89.638 46.986 89.638 47.406C89.638 47.91 89.727 48.353 89.904 48.736C90.082 49.119 90.324 49.445 90.632 49.716C90.94 49.977 91.29 50.197 91.682 50.374C92.084 50.542 92.508 50.668 92.956 50.752C93.414 50.836 93.876 50.887 94.342 50.906L93.824 52.39C93.274 52.371 92.728 52.292 92.186 52.152C91.654 52.012 91.146 51.821 90.66 51.578C90.184 51.326 89.76 51.018 89.386 50.654C89.022 50.281 88.733 49.851 88.518 49.366C88.313 48.881 88.21 48.325 88.21 47.7C88.21 47 88.327 46.351 88.56 45.754C88.803 45.157 89.106 44.639 89.47 44.2C89.844 43.752 90.217 43.402 90.59 43.15C90.31 43.187 89.965 43.229 89.554 43.276C89.144 43.313 88.7 43.36 88.224 43.416C87.758 43.463 87.286 43.519 86.81 43.584C86.334 43.64 85.882 43.701 85.452 43.766C85.032 43.831 84.668 43.901 84.36 43.976L84.206 42.436ZM97.842 48.47H110.344V49.604H97.842V48.47ZM103.33 47.238H104.716C104.642 47.863 104.53 48.442 104.38 48.974C104.24 49.506 104.03 49.991 103.75 50.43C103.47 50.859 103.097 51.242 102.63 51.578C102.164 51.914 101.571 52.208 100.852 52.46C100.134 52.712 99.256 52.917 98.22 53.076C98.192 52.964 98.141 52.833 98.066 52.684C97.992 52.544 97.912 52.404 97.828 52.264C97.744 52.133 97.665 52.021 97.59 51.928C98.533 51.797 99.326 51.639 99.97 51.452C100.624 51.256 101.156 51.023 101.566 50.752C101.977 50.481 102.299 50.173 102.532 49.828C102.766 49.483 102.943 49.095 103.064 48.666C103.186 48.237 103.274 47.761 103.33 47.238ZM104.912 48.862C105.332 49.795 106.014 50.5 106.956 50.976C107.908 51.443 109.14 51.737 110.652 51.858C110.559 51.951 110.461 52.073 110.358 52.222C110.256 52.371 110.158 52.521 110.064 52.67C109.98 52.829 109.91 52.969 109.854 53.09C108.762 52.95 107.82 52.721 107.026 52.404C106.233 52.087 105.566 51.657 105.024 51.116C104.483 50.565 104.04 49.879 103.694 49.058L104.912 48.862ZM100.81 43.892V44.788H107.446V43.892H100.81ZM100.81 45.698V46.594H107.446V45.698H100.81ZM100.81 42.086V42.982H107.446V42.086H100.81ZM99.508 41.134H108.804V47.56H99.508V41.134ZM103.47 40.07L104.884 40.21C104.763 40.537 104.642 40.84 104.52 41.12C104.399 41.391 104.287 41.633 104.184 41.848L102.924 41.68C103.027 41.447 103.13 41.181 103.232 40.882C103.344 40.574 103.424 40.303 103.47 40.07ZM114.446 42.016C114.418 42.147 114.395 42.305 114.376 42.492C114.358 42.679 114.339 42.865 114.32 43.052C114.311 43.239 114.306 43.397 114.306 43.528C114.306 43.817 114.306 44.139 114.306 44.494C114.316 44.849 114.325 45.213 114.334 45.586C114.344 45.95 114.367 46.314 114.404 46.678C114.479 47.415 114.591 48.059 114.74 48.61C114.89 49.161 115.081 49.59 115.314 49.898C115.548 50.206 115.818 50.36 116.126 50.36C116.304 50.36 116.472 50.276 116.63 50.108C116.789 49.94 116.938 49.716 117.078 49.436C117.218 49.156 117.344 48.853 117.456 48.526C117.578 48.19 117.68 47.868 117.764 47.56L118.87 48.862C118.572 49.655 118.273 50.29 117.974 50.766C117.685 51.233 117.386 51.569 117.078 51.774C116.77 51.979 116.444 52.082 116.098 52.082C115.632 52.082 115.184 51.923 114.754 51.606C114.334 51.279 113.97 50.747 113.662 50.01C113.354 49.273 113.135 48.288 113.004 47.056C112.958 46.645 112.92 46.202 112.892 45.726C112.874 45.25 112.86 44.797 112.85 44.368C112.85 43.939 112.85 43.584 112.85 43.304C112.85 43.127 112.841 42.912 112.822 42.66C112.813 42.399 112.785 42.175 112.738 41.988L114.446 42.016ZM121.614 42.366C121.866 42.693 122.109 43.075 122.342 43.514C122.585 43.943 122.804 44.41 123 44.914C123.196 45.418 123.369 45.931 123.518 46.454C123.677 46.977 123.808 47.495 123.91 48.008C124.013 48.521 124.083 49.007 124.12 49.464L122.678 50.024C122.622 49.417 122.529 48.783 122.398 48.12C122.268 47.457 122.1 46.804 121.894 46.16C121.689 45.507 121.446 44.895 121.166 44.326C120.896 43.747 120.583 43.248 120.228 42.828L121.614 42.366ZM133.164 42.31C133.071 43.029 132.95 43.789 132.8 44.592C132.66 45.385 132.469 46.174 132.226 46.958C131.946 47.91 131.629 48.717 131.274 49.38C130.929 50.033 130.551 50.533 130.14 50.878C129.73 51.223 129.296 51.396 128.838 51.396C128.372 51.396 127.938 51.237 127.536 50.92C127.135 50.593 126.808 50.141 126.556 49.562C126.304 48.974 126.178 48.293 126.178 47.518C126.178 46.734 126.337 45.992 126.654 45.292C126.981 44.592 127.429 43.971 127.998 43.43C128.568 42.889 129.23 42.464 129.986 42.156C130.742 41.848 131.559 41.694 132.436 41.694C133.276 41.694 134.032 41.829 134.704 42.1C135.386 42.371 135.964 42.749 136.44 43.234C136.926 43.71 137.294 44.27 137.546 44.914C137.798 45.558 137.924 46.244 137.924 46.972C137.924 47.952 137.719 48.825 137.308 49.59C136.907 50.346 136.314 50.967 135.53 51.452C134.746 51.928 133.785 52.25 132.646 52.418L131.82 51.102C132.063 51.074 132.287 51.046 132.492 51.018C132.698 50.981 132.889 50.943 133.066 50.906C133.514 50.803 133.939 50.645 134.34 50.43C134.751 50.215 135.115 49.945 135.432 49.618C135.75 49.282 135.997 48.89 136.174 48.442C136.361 47.994 136.454 47.49 136.454 46.93C136.454 46.37 136.366 45.852 136.188 45.376C136.011 44.891 135.75 44.471 135.404 44.116C135.059 43.761 134.634 43.486 134.13 43.29C133.626 43.085 133.057 42.982 132.422 42.982C131.657 42.982 130.976 43.117 130.378 43.388C129.781 43.659 129.272 44.018 128.852 44.466C128.442 44.905 128.129 45.381 127.914 45.894C127.7 46.407 127.592 46.902 127.592 47.378C127.592 47.91 127.658 48.353 127.788 48.708C127.919 49.053 128.082 49.31 128.278 49.478C128.474 49.646 128.675 49.73 128.88 49.73C129.086 49.73 129.296 49.627 129.51 49.422C129.725 49.207 129.94 48.871 130.154 48.414C130.378 47.957 130.598 47.373 130.812 46.664C131.027 45.992 131.204 45.278 131.344 44.522C131.494 43.757 131.601 43.01 131.666 42.282L133.164 42.31ZM141.592 40.77H152.358V41.988H141.592V40.77ZM140.808 40.77H142.124V44.886C142.124 45.474 142.106 46.118 142.068 46.818C142.04 47.518 141.975 48.237 141.872 48.974C141.77 49.711 141.62 50.43 141.424 51.13C141.238 51.821 140.986 52.455 140.668 53.034C140.584 52.959 140.472 52.88 140.332 52.796C140.192 52.712 140.048 52.628 139.898 52.544C139.749 52.469 139.618 52.413 139.506 52.376C139.805 51.825 140.043 51.233 140.22 50.598C140.398 49.954 140.528 49.301 140.612 48.638C140.696 47.966 140.748 47.308 140.766 46.664C140.794 46.02 140.808 45.423 140.808 44.872V40.77ZM144.532 46.23V47.322H149.908V46.23H144.532ZM144.532 44.2V45.264H149.908V44.2H144.532ZM143.244 43.178H151.266V48.33H143.244V43.178ZM146.562 47.728H147.85V51.718C147.85 52.035 147.808 52.283 147.724 52.46C147.65 52.647 147.496 52.787 147.262 52.88C147.029 52.973 146.73 53.029 146.366 53.048C146.002 53.067 145.564 53.076 145.05 53.076C145.022 52.899 144.966 52.698 144.882 52.474C144.808 52.259 144.733 52.068 144.658 51.9C145.022 51.909 145.358 51.914 145.666 51.914C145.984 51.914 146.194 51.914 146.296 51.914C146.408 51.914 146.478 51.9 146.506 51.872C146.544 51.835 146.562 51.774 146.562 51.69V47.728ZM146.38 41.806L147.948 41.946C147.846 42.301 147.738 42.646 147.626 42.982C147.524 43.318 147.426 43.603 147.332 43.836L146.002 43.682C146.049 43.505 146.096 43.304 146.142 43.08C146.198 42.856 146.245 42.632 146.282 42.408C146.329 42.184 146.362 41.983 146.38 41.806ZM148.83 49.52L149.852 48.876C150.188 49.147 150.529 49.445 150.874 49.772C151.229 50.099 151.56 50.425 151.868 50.752C152.176 51.079 152.419 51.382 152.596 51.662L151.518 52.376C151.35 52.105 151.117 51.802 150.818 51.466C150.52 51.13 150.198 50.789 149.852 50.444C149.507 50.099 149.166 49.791 148.83 49.52ZM144.21 48.932L145.484 49.296C145.139 49.893 144.71 50.477 144.196 51.046C143.692 51.606 143.188 52.077 142.684 52.46C142.61 52.385 142.507 52.297 142.376 52.194C142.246 52.101 142.106 52.003 141.956 51.9C141.816 51.807 141.695 51.732 141.592 51.676C142.106 51.349 142.596 50.943 143.062 50.458C143.529 49.963 143.912 49.455 144.21 48.932ZM156.18 44.48H164.02V45.67H156.18V44.48ZM159.442 42.436H160.688C160.651 43.453 160.586 44.387 160.492 45.236C160.399 46.085 160.222 46.851 159.96 47.532C159.708 48.213 159.326 48.815 158.812 49.338C158.299 49.851 157.608 50.285 156.74 50.64C156.666 50.481 156.549 50.299 156.39 50.094C156.241 49.889 156.101 49.73 155.97 49.618C156.754 49.31 157.375 48.937 157.832 48.498C158.29 48.05 158.626 47.532 158.84 46.944C159.064 46.347 159.214 45.675 159.288 44.928C159.363 44.181 159.414 43.351 159.442 42.436ZM160.744 45.18C160.968 46.253 161.351 47.163 161.892 47.91C162.434 48.657 163.194 49.198 164.174 49.534C164.081 49.609 163.983 49.711 163.88 49.842C163.778 49.963 163.68 50.094 163.586 50.234C163.493 50.365 163.418 50.491 163.362 50.612C162.662 50.313 162.07 49.921 161.584 49.436C161.099 48.941 160.702 48.353 160.394 47.672C160.096 46.991 159.858 46.216 159.68 45.348L160.744 45.18ZM154.192 40.7H166.05V53.048H164.678V41.974H155.508V53.048H154.192V40.7ZM154.976 51.172H165.21V52.446H154.976V51.172ZM173.428 42.282C173.839 42.347 174.301 42.394 174.814 42.422C175.337 42.45 175.874 42.459 176.424 42.45C176.975 42.441 177.502 42.422 178.006 42.394C178.51 42.366 178.944 42.329 179.308 42.282V43.71C178.907 43.747 178.454 43.78 177.95 43.808C177.446 43.827 176.924 43.836 176.382 43.836C175.85 43.836 175.328 43.827 174.814 43.808C174.301 43.78 173.844 43.747 173.442 43.71L173.428 42.282ZM174.226 48.106C174.17 48.349 174.124 48.568 174.086 48.764C174.058 48.96 174.044 49.156 174.044 49.352C174.044 49.511 174.077 49.66 174.142 49.8C174.217 49.94 174.334 50.061 174.492 50.164C174.66 50.267 174.884 50.351 175.164 50.416C175.454 50.472 175.808 50.5 176.228 50.5C176.863 50.5 177.456 50.472 178.006 50.416C178.566 50.351 179.136 50.253 179.714 50.122L179.742 51.62C179.304 51.704 178.79 51.774 178.202 51.83C177.624 51.877 176.956 51.9 176.2 51.9C175.015 51.9 174.138 51.709 173.568 51.326C173.008 50.934 172.728 50.397 172.728 49.716C172.728 49.464 172.747 49.203 172.784 48.932C172.822 48.652 172.882 48.339 172.966 47.994L174.226 48.106ZM170.992 41.274C170.964 41.358 170.927 41.47 170.88 41.61C170.843 41.741 170.806 41.876 170.768 42.016C170.74 42.147 170.717 42.254 170.698 42.338C170.652 42.571 170.596 42.856 170.53 43.192C170.474 43.519 170.414 43.878 170.348 44.27C170.292 44.653 170.236 45.045 170.18 45.446C170.134 45.838 170.092 46.221 170.054 46.594C170.026 46.967 170.012 47.308 170.012 47.616C170.012 47.859 170.017 48.106 170.026 48.358C170.045 48.601 170.068 48.853 170.096 49.114C170.18 48.927 170.264 48.731 170.348 48.526C170.432 48.311 170.516 48.101 170.6 47.896C170.684 47.691 170.764 47.504 170.838 47.336L171.538 47.896C171.417 48.241 171.286 48.624 171.146 49.044C171.006 49.464 170.88 49.865 170.768 50.248C170.666 50.621 170.591 50.925 170.544 51.158C170.526 51.251 170.507 51.363 170.488 51.494C170.47 51.615 170.465 51.718 170.474 51.802C170.474 51.867 170.474 51.947 170.474 52.04C170.484 52.143 170.493 52.236 170.502 52.32L169.228 52.404C169.088 51.919 168.967 51.279 168.864 50.486C168.762 49.693 168.71 48.825 168.71 47.882C168.71 47.359 168.734 46.832 168.78 46.3C168.827 45.759 168.883 45.236 168.948 44.732C169.014 44.228 169.079 43.766 169.144 43.346C169.219 42.926 169.275 42.576 169.312 42.296C169.34 42.119 169.364 41.927 169.382 41.722C169.41 41.517 169.429 41.321 169.438 41.134L170.992 41.274Z" fill="var(--fill-0, black)"/>
</svg>
