<svg preserveAspectRatio="none" width="100%" height="100%" overflow="visible" style="display: block;" viewBox="0 0 88.002 16.884" fill="none" xmlns="http://www.w3.org/2000/svg">
<path id="Vector" d="M5.83199 1.476C6.04799 1.38 6.28799 1.278 6.55199 1.17C6.82799 1.05 7.09199 0.99 7.34399 0.99C7.59599 0.99 7.872 1.044 8.172 1.152C8.472 1.26 8.76 1.392 9.036 1.548C9.312 1.704 9.534 1.872 9.702 2.052C9.882 2.22 9.972 2.382 9.972 2.538C9.972 2.718 9.92399 2.862 9.82799 2.97C9.74399 3.066 9.64799 3.174 9.53999 3.294C9.43199 3.414 9.34199 3.6 9.26999 3.852C9.22199 4.044 9.162 4.278 9.09 4.554C9.03 4.83 8.95199 5.136 8.85599 5.472C8.77199 5.796 8.66999 6.15 8.54999 6.534C8.40599 6.99 8.214 7.542 7.974 8.19C7.734 8.826 7.41 9.51 7.002 10.242C6.606 10.962 6.10199 11.688 5.48999 12.42C4.88999 13.14 4.15799 13.836 3.29399 14.508C2.42999 15.168 1.40999 15.756 0.233994 16.272L0 15.948C1.044 15.18 1.926 14.388 2.646 13.572C3.378 12.756 3.98999 11.94 4.48199 11.124C4.97399 10.296 5.38199 9.486 5.70599 8.694C6.02999 7.902 6.29399 7.146 6.49799 6.426C6.59399 6.162 6.678 5.868 6.75 5.544C6.834 5.208 6.91199 4.878 6.98399 4.554C7.05599 4.218 7.11599 3.912 7.16399 3.636C7.21199 3.348 7.23599 3.12 7.23599 2.952C7.23599 2.76 7.21799 2.616 7.18199 2.52C7.14599 2.412 7.068 2.322 6.948 2.25C6.792 2.142 6.61199 2.046 6.40799 1.962C6.21599 1.878 6.02399 1.806 5.83199 1.746V1.476ZM6.62399 12.708L6.786 12.438C7.134 12.558 7.458 12.666 7.758 12.762C8.07 12.858 8.33999 12.936 8.56799 12.996C8.80799 13.044 9 13.074 9.144 13.086C9.372 13.11 9.546 13.104 9.666 13.068C9.786 13.02 9.9 12.924 10.008 12.78C10.224 12.504 10.416 12.156 10.584 11.736C10.752 11.304 10.902 10.842 11.034 10.35C11.178 9.846 11.298 9.348 11.394 8.856C11.49 8.364 11.562 7.914 11.61 7.506C11.658 7.098 11.682 6.78 11.682 6.552C11.682 6.396 11.616 6.318 11.484 6.318C11.232 6.318 10.926 6.336 10.566 6.372C10.218 6.408 9.85199 6.456 9.46799 6.516C9.09599 6.564 8.72399 6.618 8.35199 6.678C7.99199 6.738 7.64999 6.792 7.32599 6.84C7.12199 6.876 6.88199 6.918 6.60599 6.966C6.32999 7.014 6.04199 7.068 5.74199 7.128C5.45399 7.188 5.172 7.248 4.896 7.308C4.632 7.368 4.41 7.428 4.23 7.488C3.954 7.572 3.71399 7.674 3.50999 7.794C3.31799 7.902 3.114 7.956 2.89799 7.956C2.70599 7.956 2.49 7.86 2.25 7.668C2.022 7.476 1.80599 7.254 1.60199 7.002C1.40999 6.738 1.27799 6.504 1.20599 6.3C1.12199 6.084 1.07999 5.868 1.07999 5.652C1.09199 5.424 1.11599 5.184 1.15199 4.932L1.40399 4.86C1.60799 5.136 1.80599 5.376 1.99799 5.58C2.20199 5.772 2.454 5.868 2.754 5.868C2.898 5.868 3.14399 5.856 3.49199 5.832C3.83999 5.796 4.26 5.754 4.752 5.706C5.256 5.658 5.78999 5.604 6.35399 5.544C6.92999 5.472 7.5 5.406 8.064 5.346C8.64 5.274 9.186 5.208 9.702 5.148C10.23 5.076 10.686 5.016 11.07 4.968C11.238 4.944 11.382 4.89 11.502 4.806C11.634 4.71 11.754 4.62 11.862 4.536C11.982 4.44 12.102 4.392 12.222 4.392C12.366 4.392 12.552 4.458 12.78 4.59C13.02 4.722 13.254 4.884 13.482 5.076C13.722 5.268 13.926 5.466 14.094 5.67C14.262 5.874 14.346 6.054 14.346 6.21C14.346 6.366 14.286 6.492 14.166 6.588C14.058 6.672 13.944 6.768 13.824 6.876C13.704 6.984 13.626 7.152 13.59 7.38C13.53 7.776 13.452 8.232 13.356 8.748C13.272 9.252 13.158 9.786 13.014 10.35C12.882 10.914 12.72 11.472 12.528 12.024C12.336 12.576 12.12 13.098 11.88 13.59C11.712 13.914 11.484 14.232 11.196 14.544C10.908 14.844 10.596 15.09 10.26 15.282C9.92399 15.462 9.57599 15.552 9.21599 15.552C8.93999 15.552 8.74199 15.486 8.62199 15.354C8.51399 15.234 8.418 15.024 8.334 14.724C8.286 14.52 8.196 14.328 8.064 14.148C7.944 13.968 7.76999 13.764 7.54199 13.536C7.31399 13.308 7.00799 13.032 6.62399 12.708ZM30.654 4.23C30.486 3.978 30.282 3.696 30.042 3.384C29.802 3.072 29.472 2.736 29.052 2.376L29.232 2.124C29.736 2.268 30.192 2.43 30.6 2.61C31.008 2.778 31.35 2.994 31.626 3.258C31.818 3.426 31.95 3.594 32.022 3.762C32.106 3.93 32.142 4.098 32.13 4.266C32.13 4.446 32.064 4.602 31.932 4.734C31.812 4.866 31.656 4.932 31.464 4.932C31.308 4.92 31.17 4.854 31.05 4.734C30.93 4.614 30.798 4.446 30.654 4.23ZM32.31 2.736C32.142 2.532 31.944 2.298 31.716 2.034C31.5 1.758 31.158 1.44 30.69 1.08L30.852 0.827999C31.356 0.935999 31.806 1.068 32.202 1.224C32.61 1.368 32.94 1.536 33.192 1.728C33.42 1.908 33.576 2.088 33.66 2.268C33.756 2.448 33.804 2.646 33.804 2.862C33.804 3.054 33.75 3.21 33.642 3.33C33.534 3.438 33.39 3.492 33.21 3.492C33.03 3.48 32.88 3.408 32.76 3.276C32.64 3.144 32.49 2.964 32.31 2.736ZM19.242 2.502C19.458 2.394 19.722 2.274 20.034 2.142C20.358 2.01 20.652 1.95 20.916 1.962C21.18 1.962 21.45 2.022 21.726 2.142C22.002 2.25 22.26 2.394 22.5 2.574C22.74 2.742 22.932 2.922 23.076 3.114C23.22 3.306 23.292 3.48 23.292 3.636C23.292 3.792 23.256 3.924 23.184 4.032C23.112 4.14 23.034 4.254 22.95 4.374C22.878 4.494 22.824 4.644 22.788 4.824C22.74 5.112 22.692 5.496 22.644 5.976C22.608 6.456 22.572 6.978 22.536 7.542C22.5 8.106 22.47 8.67 22.446 9.234C22.422 9.798 22.404 10.32 22.392 10.8C22.38 11.268 22.38 11.652 22.392 11.952C22.404 12.444 22.458 12.816 22.554 13.068C22.65 13.308 22.854 13.47 23.166 13.554C23.49 13.626 23.976 13.662 24.624 13.662C25.5 13.662 26.262 13.608 26.91 13.5C27.57 13.38 28.104 13.266 28.512 13.158C28.92 13.05 29.184 12.996 29.304 12.996C29.976 12.996 30.486 13.08 30.834 13.248C31.194 13.416 31.374 13.674 31.374 14.022C31.374 14.334 31.29 14.568 31.122 14.724C30.954 14.88 30.744 15 30.492 15.084C30.18 15.192 29.754 15.282 29.214 15.354C28.674 15.438 28.056 15.498 27.36 15.534C26.664 15.582 25.914 15.606 25.11 15.606C24.114 15.606 23.322 15.552 22.734 15.444C22.158 15.348 21.72 15.174 21.42 14.922C21.132 14.67 20.94 14.316 20.844 13.86C20.748 13.404 20.694 12.84 20.682 12.168C20.67 11.736 20.664 11.238 20.664 10.674C20.676 10.11 20.688 9.522 20.7 8.91C20.712 8.298 20.718 7.698 20.718 7.11C20.73 6.51 20.736 5.964 20.736 5.472C20.736 4.968 20.73 4.548 20.718 4.212C20.718 3.864 20.7 3.642 20.664 3.546C20.592 3.342 20.43 3.18 20.178 3.06C19.938 2.94 19.626 2.826 19.242 2.718V2.502ZM27.702 4.212L27.882 4.032C28.194 4.092 28.464 4.164 28.692 4.248C28.92 4.332 29.154 4.458 29.394 4.626C29.79 4.902 30.09 5.214 30.294 5.562C30.51 5.898 30.618 6.174 30.618 6.39C30.618 6.618 30.504 6.78 30.276 6.876C30.048 6.96 29.766 7.086 29.43 7.254C28.854 7.506 28.182 7.782 27.414 8.082C26.658 8.37 25.818 8.67 24.894 8.982C23.97 9.282 22.968 9.582 21.888 9.882L21.672 9.216C22.464 8.88 23.25 8.52 24.03 8.136C24.81 7.74 25.524 7.338 26.172 6.93C26.832 6.522 27.36 6.132 27.756 5.76C27.9 5.628 27.99 5.508 28.026 5.4C28.074 5.292 28.074 5.142 28.026 4.95C27.99 4.806 27.936 4.668 27.864 4.536C27.792 4.392 27.738 4.284 27.702 4.212ZM45.594 3.852L45.72 3.636C46.032 3.66 46.326 3.69 46.602 3.726C46.89 3.75 47.148 3.822 47.376 3.942C47.616 4.05 47.844 4.206 48.06 4.41C48.288 4.614 48.468 4.83 48.6 5.058C48.744 5.286 48.816 5.502 48.816 5.706C48.816 5.91 48.726 6.078 48.546 6.21C48.366 6.342 48.06 6.48 47.628 6.624C47.172 6.756 46.65 6.942 46.062 7.182C45.486 7.41 44.904 7.662 44.316 7.938C43.74 8.214 43.2 8.496 42.696 8.784C42.3 9.024 41.922 9.282 41.562 9.558C41.202 9.822 40.878 10.11 40.59 10.422C40.314 10.722 40.092 11.034 39.924 11.358C39.768 11.67 39.69 11.994 39.69 12.33C39.69 12.69 39.804 12.996 40.032 13.248C40.272 13.488 40.632 13.668 41.112 13.788C41.592 13.908 42.198 13.968 42.93 13.968C43.758 13.968 44.466 13.92 45.054 13.824C45.654 13.728 46.134 13.638 46.494 13.554C46.854 13.458 47.1 13.41 47.232 13.41C47.58 13.41 47.91 13.446 48.222 13.518C48.534 13.578 48.78 13.692 48.96 13.86C49.152 14.016 49.248 14.238 49.248 14.526C49.248 14.718 49.164 14.91 48.996 15.102C48.84 15.282 48.636 15.42 48.384 15.516C48.144 15.612 47.79 15.696 47.322 15.768C46.866 15.84 46.332 15.9 45.72 15.948C45.12 15.996 44.466 16.02 43.758 16.02C42.726 16.02 41.808 15.9 41.004 15.66C40.2 15.432 39.564 15.084 39.096 14.616C38.64 14.136 38.412 13.536 38.412 12.816C38.412 12.276 38.526 11.754 38.754 11.25C38.982 10.746 39.276 10.272 39.636 9.828C40.008 9.384 40.398 8.982 40.806 8.622C41.214 8.262 41.598 7.956 41.958 7.704C42.294 7.476 42.672 7.236 43.092 6.984C43.512 6.72 43.932 6.468 44.352 6.228C44.772 5.988 45.144 5.778 45.468 5.598C45.792 5.406 46.02 5.262 46.152 5.166C46.272 5.106 46.338 5.034 46.35 4.95C46.374 4.866 46.368 4.764 46.332 4.644C46.272 4.476 46.17 4.332 46.026 4.212C45.882 4.08 45.738 3.96 45.594 3.852ZM38.196 1.404C38.436 1.308 38.676 1.23 38.916 1.17C39.168 1.098 39.426 1.062 39.69 1.062C40.098 1.062 40.476 1.14 40.824 1.296C41.172 1.452 41.454 1.644 41.67 1.872C41.886 2.088 41.994 2.292 41.994 2.484C41.994 2.664 41.976 2.856 41.94 3.06C41.904 3.264 41.886 3.486 41.886 3.726C41.886 3.954 41.898 4.206 41.922 4.482C41.946 4.758 41.982 5.034 42.03 5.31C42.078 5.574 42.138 5.802 42.21 5.994C42.342 6.294 42.51 6.546 42.714 6.75C42.918 6.942 43.164 7.098 43.452 7.218L42.084 8.1C41.724 7.956 41.424 7.764 41.184 7.524C40.956 7.272 40.764 6.996 40.608 6.696C40.476 6.408 40.356 6.048 40.248 5.616C40.152 5.184 40.068 4.734 39.996 4.266C39.924 3.798 39.864 3.378 39.816 3.006C39.78 2.802 39.72 2.64 39.636 2.52C39.552 2.4 39.42 2.28 39.24 2.16C39.096 2.064 38.928 1.974 38.736 1.89C38.556 1.806 38.376 1.734 38.196 1.674V1.404ZM53.352 2.466H59.22V2.988H53.514L53.352 2.466ZM53.262 9.63H58.932L59.904 8.316C59.904 8.316 60.006 8.4 60.21 8.568C60.414 8.736 60.648 8.94 60.912 9.18C61.188 9.42 61.434 9.642 61.65 9.846C61.602 10.038 61.434 10.134 61.146 10.134H53.406L53.262 9.63ZM58.212 11.106C58.992 11.238 59.61 11.436 60.066 11.7C60.522 11.952 60.846 12.228 61.038 12.528C61.242 12.816 61.332 13.098 61.308 13.374C61.296 13.638 61.206 13.86 61.038 14.04C60.87 14.22 60.654 14.322 60.39 14.346C60.138 14.358 59.868 14.256 59.58 14.04C59.532 13.716 59.43 13.386 59.274 13.05C59.118 12.702 58.926 12.372 58.698 12.06C58.482 11.736 58.266 11.454 58.05 11.214L58.212 11.106ZM55.854 9.63H58.068V9.9C57.624 11.088 56.976 12.156 56.124 13.104C55.272 14.052 54.264 14.88 53.1 15.588L52.938 15.354C53.406 14.85 53.826 14.286 54.198 13.662C54.57 13.026 54.894 12.366 55.17 11.682C55.458 10.986 55.686 10.302 55.854 9.63ZM55.368 0.0900002L57.906 0.288C57.894 0.408 57.846 0.51 57.762 0.594C57.678 0.678 57.534 0.732001 57.33 0.756001C57.294 1.476 57.234 2.184 57.15 2.88C57.066 3.576 56.892 4.242 56.628 4.878C56.376 5.502 55.974 6.09 55.422 6.642C54.882 7.194 54.126 7.692 53.154 8.136L52.974 7.884C53.586 7.368 54.054 6.816 54.378 6.228C54.714 5.628 54.948 5.004 55.08 4.356C55.224 3.696 55.308 3.012 55.332 2.304C55.356 1.584 55.368 0.846 55.368 0.0900002ZM56.412 7.074L58.95 7.326C58.938 7.434 58.884 7.53 58.788 7.614C58.704 7.686 58.554 7.74 58.338 7.776V16.29C58.338 16.35 58.254 16.422 58.086 16.506C57.93 16.59 57.732 16.662 57.492 16.722C57.264 16.794 57.024 16.83 56.772 16.83H56.412V7.074ZM57.924 2.466H57.744L58.662 1.512L60.282 2.88C60.234 2.928 60.162 2.976 60.066 3.024C59.982 3.072 59.868 3.108 59.724 3.132V5.256C59.724 5.4 59.778 5.472 59.886 5.472H60.012C60.024 5.472 60.042 5.472 60.066 5.472C60.102 5.472 60.132 5.472 60.156 5.472C60.192 5.472 60.234 5.466 60.282 5.454C60.33 5.442 60.372 5.412 60.408 5.364C60.468 5.292 60.54 5.148 60.624 4.932C60.708 4.704 60.804 4.458 60.912 4.194H61.11L61.164 5.382C61.356 5.49 61.482 5.592 61.542 5.688C61.614 5.784 61.65 5.91 61.65 6.066C61.65 6.39 61.494 6.624 61.182 6.768C60.882 6.9 60.42 6.966 59.796 6.966H59.202C58.818 6.966 58.536 6.924 58.356 6.84C58.176 6.744 58.056 6.594 57.996 6.39C57.948 6.186 57.924 5.916 57.924 5.58V2.466ZM62.784 3.762H67.176L68.166 2.466C68.166 2.466 68.268 2.55 68.472 2.718C68.688 2.874 68.934 3.072 69.21 3.312C69.498 3.54 69.756 3.762 69.984 3.978C69.936 4.17 69.774 4.266 69.498 4.266H62.784V3.762ZM62.892 7.398H67.284L68.166 6.102C68.166 6.102 68.262 6.186 68.454 6.354C68.646 6.522 68.862 6.726 69.102 6.966C69.354 7.194 69.576 7.41 69.768 7.614C69.72 7.806 69.558 7.902 69.282 7.902H62.892V7.398ZM62.892 11.142H67.302L68.202 9.828C68.202 9.828 68.292 9.918 68.472 10.098C68.664 10.266 68.886 10.47 69.138 10.71C69.39 10.938 69.612 11.154 69.804 11.358C69.756 11.55 69.594 11.646 69.318 11.646H62.892V11.142ZM62.784 15.138H67.446L68.49 13.752C68.49 13.752 68.55 13.806 68.67 13.914C68.802 14.022 68.964 14.154 69.156 14.31C69.348 14.466 69.552 14.64 69.768 14.832C69.984 15.024 70.176 15.204 70.344 15.372C70.308 15.564 70.152 15.66 69.876 15.66H62.784V15.138ZM65.07 3.762H66.978V15.462H65.07V3.762ZM63.684 3.762V16.254C63.684 16.326 63.54 16.44 63.252 16.596C62.964 16.764 62.568 16.848 62.064 16.848H61.704V5.688L62.964 3.384L63.918 3.762H63.684ZM62.532 0.0179996L65.322 0.684C65.298 0.804 65.226 0.9 65.106 0.972C64.998 1.044 64.842 1.086 64.638 1.098C64.182 2.634 63.6 4.008 62.892 5.22C62.196 6.42 61.374 7.428 60.426 8.244L60.21 8.082C60.57 7.41 60.9 6.642 61.2 5.778C61.512 4.902 61.782 3.972 62.01 2.988C62.238 2.004 62.412 1.014 62.532 0.0179996ZM65.934 0.216L68.616 0.845999C68.58 0.953999 68.508 1.05 68.4 1.134C68.292 1.206 68.136 1.236 67.932 1.224C67.632 1.644 67.242 2.118 66.762 2.646C66.282 3.174 65.802 3.654 65.322 4.086H65.07C65.19 3.726 65.304 3.318 65.412 2.862C65.52 2.406 65.616 1.95 65.7 1.494C65.796 1.026 65.874 0.6 65.934 0.216ZM73.8 14.94H85.428V15.444H73.8V14.94ZM72.63 4.95V4.05L74.844 4.95H85.428V5.472H74.682V16.164C74.682 16.236 74.598 16.326 74.43 16.434C74.274 16.554 74.064 16.656 73.8 16.74C73.536 16.836 73.254 16.884 72.954 16.884H72.63V4.95ZM84.492 4.95H84.312L85.284 3.852L87.3 5.436C87.24 5.508 87.15 5.58 87.03 5.652C86.91 5.712 86.754 5.76 86.562 5.796V16.146C86.562 16.194 86.466 16.266 86.274 16.362C86.082 16.458 85.848 16.542 85.572 16.614C85.308 16.698 85.056 16.74 84.816 16.74H84.492V4.95ZM71.172 2.106H75.834V0L78.534 0.233999C78.522 0.353999 78.474 0.455999 78.39 0.539999C78.306 0.623999 78.144 0.678 77.904 0.702V2.106H81.126V0L83.862 0.233999C83.85 0.353999 83.802 0.455999 83.718 0.539999C83.634 0.623999 83.472 0.678 83.232 0.702V2.106H85.014L86.094 0.702C86.094 0.702 86.154 0.756 86.274 0.864C86.406 0.96 86.574 1.092 86.778 1.26C86.982 1.428 87.192 1.608 87.408 1.8C87.624 1.992 87.822 2.172 88.002 2.34C87.954 2.532 87.792 2.628 87.516 2.628H83.232V3.816C83.232 3.9 83.058 3.996 82.71 4.104C82.374 4.212 81.96 4.272 81.468 4.284H81.126V2.628H77.904V3.888C77.904 3.984 77.73 4.086 77.382 4.194C77.034 4.302 76.632 4.356 76.176 4.356H75.834V2.628H71.298L71.172 2.106ZM74.988 9.072H81.756L82.638 7.92C82.638 7.92 82.728 7.998 82.908 8.154C83.1 8.298 83.322 8.478 83.574 8.694C83.838 8.91 84.072 9.108 84.276 9.288C84.228 9.48 84.072 9.576 83.808 9.576H75.132L74.988 9.072ZM78.21 9.072H80.226V9.36C79.71 10.308 78.99 11.148 78.066 11.88C77.142 12.612 76.098 13.236 74.934 13.752L74.754 13.5C75.546 12.936 76.236 12.264 76.824 11.484C77.412 10.704 77.874 9.9 78.21 9.072ZM80.496 6.966V13.986C80.496 14.034 80.358 14.136 80.082 14.292C79.806 14.436 79.434 14.508 78.966 14.508H78.642V7.218L80.496 6.966ZM80.496 10.278C81.288 10.386 81.924 10.554 82.404 10.782C82.896 10.998 83.256 11.25 83.484 11.538C83.712 11.814 83.838 12.084 83.862 12.348C83.886 12.612 83.832 12.84 83.7 13.032C83.58 13.212 83.406 13.326 83.178 13.374C82.95 13.41 82.692 13.338 82.404 13.158C82.32 12.834 82.164 12.504 81.936 12.168C81.708 11.832 81.45 11.514 81.162 11.214C80.886 10.902 80.61 10.638 80.334 10.422L80.496 10.278ZM81.828 5.67L83.466 7.272C83.262 7.452 82.92 7.44 82.44 7.236C81.852 7.344 81.168 7.446 80.388 7.542C79.608 7.626 78.798 7.698 77.958 7.758C77.118 7.818 76.296 7.848 75.492 7.848L75.42 7.56C76.176 7.428 76.956 7.254 77.76 7.038C78.564 6.822 79.326 6.594 80.046 6.354C80.766 6.114 81.36 5.886 81.828 5.67Z" fill="var(--fill-0, #001F66)"/>
</svg>
