<svg preserveAspectRatio="none" width="100%" height="100%" overflow="visible" style="display: block;" viewBox="0 0 124.2 40.992" fill="none" xmlns="http://www.w3.org/2000/svg">
<path id="Vector" d="M1.54799 0.414C2.37599 0.438 3.036 0.545999 3.528 0.737999C4.032 0.929999 4.39799 1.164 4.62599 1.44C4.85399 1.704 4.96799 1.974 4.96799 2.25C4.97999 2.526 4.908 2.766 4.752 2.97C4.608 3.174 4.39799 3.306 4.12199 3.366C3.85799 3.414 3.56399 3.348 3.23999 3.168C3.14399 2.844 2.99399 2.52 2.78999 2.196C2.58599 1.872 2.36399 1.566 2.12399 1.278C1.88399 0.99 1.65 0.743999 1.422 0.539999L1.54799 0.414ZM0.143997 4.122C0.935997 4.206 1.55999 4.362 2.01599 4.59C2.47199 4.818 2.79 5.076 2.97 5.364C3.162 5.64 3.23999 5.916 3.20399 6.192C3.17999 6.456 3.078 6.678 2.89799 6.858C2.71799 7.026 2.49599 7.122 2.23199 7.146C1.96799 7.17 1.686 7.068 1.386 6.84C1.35 6.528 1.26599 6.216 1.13399 5.904C1.00199 5.58 0.83399 5.274 0.62999 4.986C0.43799 4.698 0.228 4.446 0 4.23L0.143997 4.122ZM1.20599 11.628C1.33799 11.628 1.43399 11.61 1.49399 11.574C1.55399 11.538 1.63799 11.43 1.74599 11.25C1.80599 11.13 1.85999 11.016 1.90799 10.908C1.96799 10.8 2.046 10.656 2.142 10.476C2.238 10.296 2.358 10.038 2.502 9.702C2.658 9.366 2.862 8.916 3.114 8.352C3.366 7.776 3.68399 7.05 4.06799 6.174C4.45199 5.298 4.92599 4.23 5.48999 2.97L5.778 3.042C5.646 3.498 5.49 4.02 5.31 4.608C5.13 5.184 4.944 5.778 4.752 6.39C4.572 7.002 4.398 7.59 4.23 8.154C4.062 8.706 3.91799 9.198 3.79799 9.63C3.67799 10.05 3.588 10.362 3.528 10.566C3.456 10.878 3.38999 11.19 3.32999 11.502C3.28199 11.802 3.264 12.072 3.276 12.312C3.288 12.552 3.32999 12.78 3.40199 12.996C3.48599 13.2 3.56999 13.422 3.65399 13.662C3.74999 13.89 3.828 14.148 3.888 14.436C3.96 14.724 3.99 15.066 3.978 15.462C3.966 15.918 3.82199 16.278 3.54599 16.542C3.28199 16.818 2.92199 16.956 2.46599 16.956C2.26199 16.956 2.06399 16.884 1.87199 16.74C1.67999 16.608 1.55399 16.374 1.49399 16.038C1.60199 15.414 1.662 14.838 1.674 14.31C1.698 13.77 1.68 13.32 1.62 12.96C1.56 12.588 1.458 12.354 1.314 12.258C1.194 12.162 1.05599 12.096 0.899994 12.06C0.743994 12.012 0.569991 11.982 0.377991 11.97V11.628C0.377991 11.628 0.431993 11.628 0.539993 11.628C0.647993 11.628 0.767994 11.628 0.899994 11.628C1.04399 11.628 1.14599 11.628 1.20599 11.628ZM4.71599 7.938H13.914L15.048 6.408C15.048 6.408 15.114 6.468 15.246 6.588C15.39 6.696 15.57 6.84 15.786 7.02C16.002 7.188 16.224 7.374 16.452 7.578C16.68 7.782 16.89 7.974 17.082 8.154C17.07 8.25 17.016 8.322 16.92 8.37C16.824 8.418 16.71 8.442 16.578 8.442H4.86L4.71599 7.938ZM9.81 0.125999L12.546 0.342C12.534 0.474 12.48 0.588 12.384 0.684C12.288 0.768 12.12 0.828 11.88 0.864V8.226H9.81V0.125999ZM6.75 0.594L9.53999 1.17C9.51599 1.29 9.45 1.392 9.342 1.476C9.234 1.548 9.084 1.596 8.892 1.62C8.544 2.88 8.09399 4.008 7.54199 5.004C6.98999 5.988 6.33 6.816 5.562 7.488L5.31 7.344C5.694 6.456 6.01199 5.418 6.26399 4.23C6.51599 3.03 6.678 1.818 6.75 0.594ZM7.002 3.924H13.536L14.652 2.412C14.652 2.412 14.718 2.466 14.85 2.574C14.994 2.682 15.168 2.826 15.372 3.006C15.588 3.186 15.81 3.378 16.038 3.582C16.266 3.774 16.47 3.96 16.65 4.14C16.602 4.332 16.44 4.428 16.164 4.428H7.146L7.002 3.924ZM11.124 7.956H13.14C13.14 8.064 13.14 8.178 13.14 8.298C13.14 8.406 13.14 8.502 13.14 8.586V14.22C13.14 14.34 13.164 14.424 13.212 14.472C13.26 14.52 13.38 14.544 13.572 14.544H14.526C14.706 14.544 14.868 14.544 15.012 14.544C15.156 14.544 15.27 14.544 15.354 14.544C15.45 14.532 15.522 14.514 15.57 14.49C15.618 14.454 15.66 14.388 15.696 14.292C15.756 14.184 15.822 14.004 15.894 13.752C15.978 13.5 16.068 13.2 16.164 12.852C16.272 12.504 16.374 12.138 16.47 11.754H16.668L16.74 14.418C16.992 14.526 17.154 14.646 17.226 14.778C17.298 14.91 17.334 15.078 17.334 15.282C17.334 15.534 17.244 15.75 17.064 15.93C16.896 16.122 16.59 16.26 16.146 16.344C15.714 16.44 15.102 16.488 14.31 16.488H12.996C12.48 16.488 12.084 16.434 11.808 16.326C11.532 16.23 11.346 16.056 11.25 15.804C11.166 15.552 11.124 15.204 11.124 14.76V7.956ZM7.52399 7.992H9.79199C9.75599 9.048 9.63599 10.032 9.43199 10.944C9.22799 11.844 8.91 12.672 8.478 13.428C8.058 14.184 7.48799 14.85 6.76799 15.426C6.04799 16.014 5.12999 16.518 4.01399 16.938L3.90599 16.74C4.93799 16.008 5.712 15.198 6.228 14.31C6.744 13.41 7.086 12.432 7.254 11.376C7.434 10.32 7.52399 9.192 7.52399 7.992ZM25.164 7.884L27.774 8.118C27.762 8.238 27.708 8.346 27.612 8.442C27.528 8.526 27.366 8.586 27.126 8.622V16.416C27.126 16.452 27.042 16.512 26.874 16.596C26.706 16.68 26.496 16.752 26.244 16.812C26.004 16.884 25.758 16.92 25.506 16.92H25.164V7.884ZM18.252 2.25H26.28L27.306 0.882C27.306 0.882 27.414 0.972 27.63 1.152C27.846 1.32 28.098 1.53 28.386 1.782C28.674 2.022 28.932 2.256 29.16 2.484C29.112 2.664 28.95 2.754 28.674 2.754H18.396L18.252 2.25ZM20.628 9.684H26.136V10.188H20.628V9.684ZM20.394 12.276H26.172V12.798H20.394V12.276ZM22.23 0.108L24.84 0.323999C24.828 0.443999 24.78 0.545999 24.696 0.629999C24.612 0.701999 24.462 0.761999 24.246 0.809999V2.556H22.23V0.108ZM24.804 2.25H27.216C26.784 3.342 26.136 4.272 25.272 5.04C24.42 5.808 23.382 6.438 22.158 6.93C20.934 7.422 19.554 7.806 18.018 8.082L17.928 7.848C19.764 7.272 21.27 6.522 22.446 5.598C23.622 4.662 24.408 3.546 24.804 2.25ZM20.412 2.286C20.772 2.922 21.24 3.45 21.816 3.87C22.392 4.29 23.052 4.632 23.796 4.896C24.54 5.148 25.344 5.34 26.208 5.472C27.084 5.592 27.984 5.676 28.908 5.724V5.94C28.512 6.06 28.188 6.282 27.936 6.606C27.696 6.93 27.534 7.344 27.45 7.848C26.238 7.584 25.158 7.242 24.21 6.822C23.274 6.402 22.47 5.844 21.798 5.148C21.126 4.44 20.592 3.534 20.196 2.43L20.412 2.286ZM19.854 7.884L22.374 8.136C22.35 8.256 22.296 8.358 22.212 8.442C22.128 8.526 21.984 8.58 21.78 8.604V11.358C21.768 12.054 21.666 12.756 21.474 13.464C21.282 14.16 20.928 14.814 20.412 15.426C19.896 16.038 19.152 16.56 18.18 16.992L18.018 16.794C18.546 16.29 18.942 15.744 19.206 15.156C19.47 14.556 19.644 13.932 19.728 13.284C19.812 12.624 19.854 11.976 19.854 11.34V7.884ZM29.106 1.566L31.536 1.8C31.524 1.92 31.47 2.022 31.374 2.106C31.29 2.19 31.14 2.25 30.924 2.286V12.528C30.924 12.588 30.846 12.666 30.69 12.762C30.546 12.846 30.36 12.924 30.132 12.996C29.904 13.056 29.676 13.086 29.448 13.086H29.106V1.566ZM32.364 0.378L34.974 0.629999C34.962 0.761999 34.902 0.876 34.794 0.972C34.698 1.056 34.542 1.11 34.326 1.134V14.598C34.326 15.054 34.266 15.45 34.146 15.786C34.038 16.122 33.804 16.386 33.444 16.578C33.084 16.782 32.526 16.92 31.77 16.992C31.746 16.68 31.704 16.404 31.644 16.164C31.584 15.936 31.488 15.738 31.356 15.57C31.212 15.414 31.026 15.282 30.798 15.174C30.582 15.066 30.258 14.976 29.826 14.904V14.652C29.826 14.652 29.916 14.658 30.096 14.67C30.288 14.682 30.51 14.694 30.762 14.706C31.026 14.718 31.272 14.73 31.5 14.742C31.728 14.754 31.89 14.76 31.986 14.76C32.13 14.76 32.226 14.736 32.274 14.688C32.334 14.64 32.364 14.556 32.364 14.436V0.378ZM44.622 10.53C44.262 10.53 43.932 10.44 43.632 10.26C43.332 10.068 43.086 9.822 42.894 9.522C42.714 9.222 42.624 8.892 42.624 8.532C42.624 8.16 42.714 7.824 42.894 7.524C43.086 7.224 43.332 6.984 43.632 6.804C43.932 6.624 44.262 6.534 44.622 6.534C44.994 6.534 45.33 6.624 45.63 6.804C45.93 6.984 46.17 7.224 46.35 7.524C46.53 7.824 46.62 8.16 46.62 8.532C46.62 8.892 46.53 9.222 46.35 9.522C46.17 9.822 45.93 10.068 45.63 10.26C45.33 10.44 44.994 10.53 44.622 10.53ZM60.57 4.626H63.234V4.914C62.622 5.622 61.86 6.27 60.948 6.858C60.036 7.446 59.022 7.968 57.906 8.424C56.79 8.868 55.614 9.24 54.378 9.54L54.252 9.324C55.14 8.928 55.98 8.478 56.772 7.974C57.564 7.458 58.284 6.912 58.932 6.336C59.58 5.76 60.126 5.19 60.57 4.626ZM56.286 1.17H67.302V1.692H56.448L56.286 1.17ZM54.54 4.626H69.102V5.13H54.702L54.54 4.626ZM65.862 1.17H65.646L66.906 0L68.958 1.944C68.886 2.016 68.796 2.064 68.688 2.088C68.58 2.112 68.424 2.136 68.22 2.16C67.8 2.34 67.296 2.532 66.708 2.736C66.132 2.928 65.538 3.114 64.926 3.294C64.326 3.462 63.78 3.606 63.288 3.726L63.18 3.582C63.384 3.426 63.612 3.246 63.864 3.042C64.128 2.838 64.38 2.628 64.62 2.412C64.872 2.184 65.106 1.968 65.322 1.764C65.538 1.548 65.718 1.35 65.862 1.17ZM67.752 4.626H67.536L68.76 3.438L70.794 5.364C70.722 5.436 70.626 5.49 70.506 5.526C70.398 5.562 70.248 5.586 70.056 5.598C69.684 5.85 69.228 6.108 68.688 6.372C68.16 6.624 67.614 6.858 67.05 7.074C66.486 7.29 65.952 7.476 65.448 7.632L65.322 7.506C65.61 7.242 65.91 6.942 66.222 6.606C66.534 6.258 66.828 5.91 67.104 5.562C67.38 5.202 67.596 4.89 67.752 4.626ZM62.406 4.716H64.566V7.578C64.566 7.998 64.5 8.34 64.368 8.604C64.248 8.868 63.99 9.072 63.594 9.216C63.21 9.348 62.622 9.444 61.83 9.504C61.818 9.264 61.788 9.06 61.74 8.892C61.692 8.712 61.602 8.568 61.47 8.46C61.35 8.364 61.182 8.274 60.966 8.19C60.762 8.094 60.438 8.01 59.994 7.938V7.722C59.994 7.722 60.078 7.728 60.246 7.74C60.426 7.752 60.636 7.764 60.876 7.776C61.116 7.788 61.344 7.8 61.56 7.812C61.776 7.824 61.938 7.83 62.046 7.83C62.19 7.83 62.286 7.806 62.334 7.758C62.382 7.71 62.406 7.638 62.406 7.542V4.716ZM54.18 10.98H67.716L68.904 9.504C68.904 9.504 68.976 9.558 69.12 9.666C69.264 9.774 69.444 9.918 69.66 10.098C69.888 10.266 70.122 10.446 70.362 10.638C70.602 10.83 70.824 11.016 71.028 11.196C70.98 11.388 70.812 11.484 70.524 11.484H54.342L54.18 10.98ZM60.48 10.98H63.252V11.25C62.376 12.51 61.146 13.59 59.562 14.49C57.978 15.39 56.184 16.104 54.18 16.632L54.054 16.398C55.002 15.966 55.884 15.456 56.7 14.868C57.528 14.28 58.26 13.656 58.896 12.996C59.544 12.324 60.072 11.652 60.48 10.98ZM63.702 10.98C64.206 11.556 64.866 12.072 65.682 12.528C66.51 12.972 67.41 13.344 68.382 13.644C69.354 13.944 70.314 14.16 71.262 14.292L71.226 14.49C70.83 14.598 70.482 14.826 70.182 15.174C69.882 15.51 69.678 15.942 69.57 16.47C68.634 16.134 67.782 15.714 67.014 15.21C66.258 14.706 65.586 14.112 64.998 13.428C64.41 12.744 63.912 11.964 63.504 11.088L63.702 10.98ZM61.452 9.522L64.314 9.774C64.302 9.894 64.248 9.996 64.152 10.08C64.056 10.164 63.888 10.224 63.648 10.26V16.434C63.648 16.482 63.558 16.548 63.378 16.632C63.198 16.716 62.97 16.788 62.694 16.848C62.418 16.92 62.136 16.956 61.848 16.956H61.452V9.522ZM59.544 2.25C60.612 2.286 61.47 2.382 62.118 2.538C62.778 2.682 63.264 2.862 63.576 3.078C63.9 3.282 64.086 3.492 64.134 3.708C64.194 3.924 64.158 4.128 64.026 4.32C63.906 4.512 63.726 4.656 63.486 4.752C63.258 4.848 63.006 4.878 62.73 4.842C62.466 4.806 62.22 4.674 61.992 4.446C61.8 4.122 61.5 3.78 61.092 3.42C60.684 3.06 60.138 2.748 59.454 2.484L59.544 2.25ZM81.882 0.0900002L84.834 0.684C84.81 0.804 84.744 0.906 84.636 0.99C84.528 1.062 84.372 1.104 84.168 1.116C83.784 2.724 83.25 4.098 82.566 5.238C81.882 6.366 81.036 7.29 80.028 8.01L79.794 7.866C80.37 6.882 80.844 5.712 81.216 4.356C81.588 2.988 81.81 1.566 81.882 0.0900002ZM81.99 4.05H87.768V4.554H81.864L81.99 4.05ZM86.58 4.05H86.364L87.426 2.97L89.298 4.752C89.19 4.872 88.962 4.95 88.614 4.986C88.422 5.262 88.182 5.574 87.894 5.922C87.606 6.258 87.306 6.588 86.994 6.912C86.682 7.236 86.376 7.524 86.076 7.776L85.914 7.65C85.998 7.302 86.082 6.912 86.166 6.48C86.262 6.036 86.346 5.604 86.418 5.184C86.49 4.752 86.544 4.374 86.58 4.05ZM82.8 4.05H84.888C84.864 5.046 84.816 6.03 84.744 7.002C84.672 7.962 84.534 8.904 84.33 9.828C84.138 10.752 83.832 11.634 83.412 12.474C83.004 13.314 82.446 14.118 81.738 14.886C81.03 15.642 80.124 16.344 79.02 16.992L78.786 16.722C79.782 15.798 80.556 14.832 81.108 13.824C81.66 12.804 82.05 11.76 82.278 10.692C82.518 9.612 82.662 8.52 82.71 7.416C82.758 6.3 82.788 5.178 82.8 4.05ZM72.252 2.628H77.976L78.984 1.26C78.984 1.26 79.086 1.35 79.29 1.53C79.506 1.698 79.758 1.908 80.046 2.16C80.334 2.4 80.592 2.628 80.82 2.844C80.772 3.036 80.61 3.132 80.334 3.132H72.396L72.252 2.628ZM73.566 7.344H79.038V7.848H73.566V7.344ZM73.566 10.17H79.056V10.692H73.566V10.17ZM72.126 12.78H78.156L79.2 11.448C79.2 11.448 79.266 11.502 79.398 11.61C79.53 11.706 79.692 11.832 79.884 11.988C80.088 12.144 80.298 12.312 80.514 12.492C80.742 12.672 80.94 12.846 81.108 13.014C81.06 13.206 80.898 13.302 80.622 13.302H72.27L72.126 12.78ZM75.474 4.932H77.202V10.332L76.986 10.35L77.328 10.368V16.416C77.328 16.476 77.184 16.578 76.896 16.722C76.608 16.878 76.206 16.956 75.69 16.956H75.33V10.368L75.69 10.35L75.474 10.332V4.932ZM75.33 0.0900002L77.922 0.306C77.91 0.426 77.862 0.528 77.778 0.612C77.694 0.696 77.544 0.75 77.328 0.774V4.932H75.33V0.0900002ZM72.774 4.716V3.96L74.574 4.716H79.02V5.22H74.484V11.088C74.484 11.136 74.412 11.208 74.268 11.304C74.136 11.388 73.956 11.466 73.728 11.538C73.512 11.61 73.284 11.646 73.044 11.646H72.774V4.716ZM78.156 4.716H77.994L78.822 3.798L80.604 5.148C80.556 5.196 80.472 5.256 80.352 5.328C80.244 5.388 80.106 5.436 79.938 5.472V10.818C79.938 10.854 79.854 10.92 79.686 11.016C79.518 11.1 79.32 11.178 79.092 11.25C78.876 11.322 78.66 11.358 78.444 11.358H78.156V4.716ZM84.888 4.068C84.972 5.508 85.116 6.774 85.32 7.866C85.536 8.946 85.824 9.888 86.184 10.692C86.544 11.484 86.976 12.156 87.48 12.708C87.984 13.26 88.572 13.722 89.244 14.094L89.19 14.346C88.218 14.85 87.642 15.69 87.462 16.866C86.67 16.05 86.064 15.036 85.644 13.824C85.236 12.612 84.954 11.202 84.798 9.594C84.654 7.974 84.576 6.162 84.564 4.158L84.888 4.068ZM97.164 7.884L99.774 8.118C99.762 8.238 99.708 8.346 99.612 8.442C99.528 8.526 99.366 8.586 99.126 8.622V16.416C99.126 16.452 99.042 16.512 98.874 16.596C98.706 16.68 98.496 16.752 98.244 16.812C98.004 16.884 97.758 16.92 97.506 16.92H97.164V7.884ZM90.252 2.25H98.28L99.306 0.882C99.306 0.882 99.414 0.972 99.63 1.152C99.846 1.32 100.098 1.53 100.386 1.782C100.674 2.022 100.932 2.256 101.16 2.484C101.112 2.664 100.95 2.754 100.674 2.754H90.396L90.252 2.25ZM92.628 9.684H98.136V10.188H92.628V9.684ZM92.394 12.276H98.172V12.798H92.394V12.276ZM94.23 0.108L96.84 0.323999C96.828 0.443999 96.78 0.545999 96.696 0.629999C96.612 0.701999 96.462 0.761999 96.246 0.809999V2.556H94.23V0.108ZM96.804 2.25H99.216C98.784 3.342 98.136 4.272 97.272 5.04C96.42 5.808 95.382 6.438 94.158 6.93C92.934 7.422 91.554 7.806 90.018 8.082L89.928 7.848C91.764 7.272 93.27 6.522 94.446 5.598C95.622 4.662 96.408 3.546 96.804 2.25ZM92.412 2.286C92.772 2.922 93.24 3.45 93.816 3.87C94.392 4.29 95.052 4.632 95.796 4.896C96.54 5.148 97.344 5.34 98.208 5.472C99.084 5.592 99.984 5.676 100.908 5.724V5.94C100.512 6.06 100.188 6.282 99.936 6.606C99.696 6.93 99.534 7.344 99.45 7.848C98.238 7.584 97.158 7.242 96.21 6.822C95.274 6.402 94.47 5.844 93.798 5.148C93.126 4.44 92.592 3.534 92.196 2.43L92.412 2.286ZM91.854 7.884L94.374 8.136C94.35 8.256 94.296 8.358 94.212 8.442C94.128 8.526 93.984 8.58 93.78 8.604V11.358C93.768 12.054 93.666 12.756 93.474 13.464C93.282 14.16 92.928 14.814 92.412 15.426C91.896 16.038 91.152 16.56 90.18 16.992L90.018 16.794C90.546 16.29 90.942 15.744 91.206 15.156C91.47 14.556 91.644 13.932 91.728 13.284C91.812 12.624 91.854 11.976 91.854 11.34V7.884ZM101.106 1.566L103.536 1.8C103.524 1.92 103.47 2.022 103.374 2.106C103.29 2.19 103.14 2.25 102.924 2.286V12.528C102.924 12.588 102.846 12.666 102.69 12.762C102.546 12.846 102.36 12.924 102.132 12.996C101.904 13.056 101.676 13.086 101.448 13.086H101.106V1.566ZM104.364 0.378L106.974 0.629999C106.962 0.761999 106.902 0.876 106.794 0.972C106.698 1.056 106.542 1.11 106.326 1.134V14.598C106.326 15.054 106.266 15.45 106.146 15.786C106.038 16.122 105.804 16.386 105.444 16.578C105.084 16.782 104.526 16.92 103.77 16.992C103.746 16.68 103.704 16.404 103.644 16.164C103.584 15.936 103.488 15.738 103.356 15.57C103.212 15.414 103.026 15.282 102.798 15.174C102.582 15.066 102.258 14.976 101.826 14.904V14.652C101.826 14.652 101.916 14.658 102.096 14.67C102.288 14.682 102.51 14.694 102.762 14.706C103.026 14.718 103.272 14.73 103.5 14.742C103.728 14.754 103.89 14.76 103.986 14.76C104.13 14.76 104.226 14.736 104.274 14.688C104.334 14.64 104.364 14.556 104.364 14.436V0.378ZM116.082 3.15C116.274 3.33 116.472 3.552 116.676 3.816C116.88 4.08 117.048 4.362 117.18 4.662C117.324 4.95 117.396 5.25 117.396 5.562C117.396 6.018 117.348 6.528 117.252 7.092C117.156 7.656 117.006 8.214 116.802 8.766C116.634 9.222 116.424 9.708 116.172 10.224C115.932 10.728 115.644 11.226 115.308 11.718C114.984 12.198 114.636 12.636 114.264 13.032C113.892 13.428 113.496 13.746 113.076 13.986C112.656 14.214 112.224 14.328 111.78 14.328C111.42 14.328 111.072 14.202 110.736 13.95C110.412 13.698 110.118 13.356 109.854 12.924C109.602 12.492 109.398 12.006 109.242 11.466C109.086 10.926 109.008 10.362 109.008 9.774C109.008 9.21 109.098 8.616 109.278 7.992C109.47 7.356 109.764 6.732 110.16 6.12C110.556 5.496 111.054 4.932 111.654 4.428C112.386 3.792 113.208 3.312 114.12 2.988C115.032 2.664 116.034 2.502 117.126 2.502C118.17 2.502 119.118 2.67 119.97 3.006C120.834 3.342 121.578 3.81 122.202 4.41C122.838 5.01 123.33 5.712 123.678 6.516C124.026 7.32 124.2 8.19 124.2 9.126C124.2 9.978 124.044 10.788 123.732 11.556C123.42 12.312 122.928 12.99 122.256 13.59C121.584 14.19 120.714 14.676 119.646 15.048C118.59 15.42 117.3 15.636 115.776 15.696L115.704 15.354C117.228 14.994 118.446 14.49 119.358 13.842C120.282 13.194 120.948 12.426 121.356 11.538C121.764 10.65 121.968 9.69 121.968 8.658C121.968 7.554 121.752 6.6 121.32 5.796C120.888 4.98 120.288 4.35 119.52 3.906C118.764 3.45 117.9 3.222 116.928 3.222C116.112 3.222 115.278 3.414 114.426 3.798C113.586 4.17 112.854 4.686 112.23 5.346C111.714 5.922 111.312 6.522 111.024 7.146C110.748 7.77 110.61 8.454 110.61 9.198C110.61 9.666 110.67 10.11 110.79 10.53C110.922 10.95 111.09 11.292 111.294 11.556C111.498 11.82 111.726 11.952 111.978 11.952C112.23 11.952 112.506 11.82 112.806 11.556C113.118 11.28 113.424 10.944 113.724 10.548C114.036 10.152 114.312 9.744 114.552 9.324C114.804 8.904 115.002 8.538 115.146 8.226C115.386 7.71 115.578 7.158 115.722 6.57C115.878 5.982 115.956 5.454 115.956 4.986C115.956 4.662 115.884 4.35 115.74 4.05C115.608 3.75 115.452 3.498 115.272 3.294L116.082 3.15ZM7.47 25.8L8.388 24.36L10.818 26.124C10.638 26.328 10.344 26.49 9.93599 26.61C9.52799 26.73 9.04799 26.814 8.49599 26.862V27.492C8.68799 29.316 9.13199 30.948 9.82799 32.388C10.524 33.816 11.484 35.064 12.708 36.132C13.932 37.188 15.414 38.082 17.154 38.814L17.1 38.994C16.56 39.054 16.116 39.252 15.768 39.588C15.432 39.924 15.162 40.392 14.958 40.992C14.358 40.644 13.752 40.182 13.14 39.606C12.528 39.042 11.946 38.394 11.394 37.662C10.842 36.918 10.35 36.114 9.918 35.25C9.498 34.386 9.174 33.492 8.946 32.568C8.514 33.78 7.87799 34.926 7.03799 36.006C6.20999 37.074 5.226 38.034 4.086 38.886C2.958 39.726 1.698 40.416 0.306 40.956L0.179993 40.776C1.16399 40.224 2.09999 39.498 2.98799 38.598C3.87599 37.686 4.668 36.648 5.364 35.484C6.072 34.308 6.648 33.036 7.092 31.668C7.548 30.3 7.82999 28.878 7.93799 27.402V26.322H3.74399L3.59999 25.8H7.47ZM23.418 32.478L23.49 31.164C23.802 30.84 24.18 30.468 24.624 30.048C25.08 29.628 25.572 29.232 26.1 28.86C26.64 28.488 27.192 28.182 27.756 27.942C28.32 27.69 28.872 27.564 29.412 27.564C30.288 27.564 30.912 27.81 31.284 28.302C31.668 28.794 31.86 29.49 31.86 30.39C31.86 30.81 31.824 31.236 31.752 31.668C31.68 32.1 31.596 32.544 31.5 33C31.416 33.456 31.338 33.918 31.266 34.386C31.206 34.842 31.176 35.304 31.176 35.772C31.176 36.24 31.266 36.576 31.446 36.78C31.626 36.972 31.908 37.068 32.292 37.068C32.832 37.068 33.342 36.966 33.822 36.762C34.302 36.546 34.8 36.234 35.316 35.826L35.514 36.024C35.298 36.468 35.004 36.918 34.632 37.374C34.272 37.818 33.834 38.19 33.318 38.49C32.802 38.778 32.214 38.922 31.554 38.922C30.822 38.922 30.252 38.706 29.844 38.274C29.436 37.842 29.232 37.152 29.232 36.204C29.232 35.472 29.286 34.77 29.394 34.098C29.514 33.426 29.628 32.766 29.736 32.118C29.856 31.458 29.916 30.798 29.916 30.138C29.916 29.586 29.838 29.166 29.682 28.878C29.526 28.59 29.226 28.446 28.782 28.446C28.218 28.446 27.618 28.632 26.982 29.004C26.346 29.376 25.716 29.868 25.092 30.48C24.48 31.092 23.922 31.758 23.418 32.478ZM23.202 30.678L23.31 32.874C23.07 33.246 22.824 33.624 22.572 34.008C22.32 34.392 22.062 34.782 21.798 35.178C21.546 35.574 21.288 35.97 21.024 36.366C20.772 36.75 20.52 37.14 20.268 37.536C20.1 37.776 19.938 37.992 19.782 38.184C19.638 38.376 19.452 38.472 19.224 38.472C19.032 38.484 18.852 38.4 18.684 38.22C18.516 38.04 18.432 37.794 18.432 37.482C18.432 37.218 18.474 36.984 18.558 36.78C18.642 36.564 18.774 36.366 18.954 36.186C19.194 35.946 19.488 35.622 19.836 35.214C20.196 34.806 20.574 34.35 20.97 33.846C21.366 33.342 21.756 32.82 22.14 32.28C22.524 31.728 22.878 31.194 23.202 30.678ZM20.412 36.078L20.592 35.718C20.712 35.85 20.868 36.018 21.06 36.222C21.252 36.426 21.444 36.618 21.636 36.798C21.828 36.966 21.972 37.098 22.068 37.194C22.32 37.422 22.458 37.362 22.482 37.014C22.482 36.69 22.488 36.264 22.5 35.736C22.512 35.196 22.524 34.608 22.536 33.972C22.548 33.324 22.578 32.7 22.626 32.1C22.662 31.572 22.71 31.026 22.77 30.462C22.83 29.886 22.884 29.34 22.932 28.824C22.992 28.308 23.04 27.846 23.076 27.438C23.124 27.03 23.148 26.724 23.148 26.52C23.148 26.316 23.124 26.178 23.076 26.106C23.04 26.022 22.938 25.932 22.77 25.836C22.638 25.752 22.482 25.68 22.302 25.62C22.122 25.548 21.906 25.476 21.654 25.404V25.098C21.882 25.002 22.11 24.924 22.338 24.864C22.578 24.792 22.83 24.756 23.094 24.756C23.334 24.756 23.586 24.816 23.85 24.936C24.114 25.044 24.354 25.188 24.57 25.368C24.786 25.548 24.96 25.74 25.092 25.944C25.236 26.136 25.308 26.316 25.308 26.484C25.308 26.688 25.26 26.88 25.164 27.06C25.068 27.228 24.96 27.456 24.84 27.744C24.744 27.984 24.642 28.302 24.534 28.698C24.426 29.082 24.318 29.508 24.21 29.976C24.114 30.432 24.03 30.882 23.958 31.326C23.886 31.77 23.838 32.148 23.814 32.46C23.778 32.94 23.766 33.45 23.778 33.99C23.79 34.53 23.814 35.046 23.85 35.538C23.898 36.03 23.94 36.468 23.976 36.852C24.012 37.212 24.054 37.524 24.102 37.788C24.15 38.052 24.174 38.31 24.174 38.562C24.174 38.922 24.114 39.24 23.994 39.516C23.886 39.804 23.742 40.032 23.562 40.2C23.394 40.38 23.19 40.47 22.95 40.47C22.638 40.47 22.41 40.392 22.266 40.236C22.134 40.08 22.05 39.876 22.014 39.624C21.966 39.372 21.912 39.132 21.852 38.904C21.804 38.664 21.726 38.412 21.618 38.148C21.558 38.004 21.486 37.848 21.402 37.68C21.318 37.512 21.222 37.332 21.114 37.14C21.006 36.948 20.892 36.768 20.772 36.6C20.652 36.42 20.532 36.246 20.412 36.078ZM21.582 31.182C21.462 31.266 21.354 31.374 21.258 31.506C21.174 31.626 21.084 31.734 20.988 31.83C20.904 31.926 20.796 31.974 20.664 31.974C20.4 31.974 20.124 31.884 19.836 31.704C19.56 31.524 19.314 31.308 19.098 31.056C18.882 30.792 18.732 30.534 18.648 30.282C18.6 30.138 18.582 29.97 18.594 29.778C18.606 29.586 18.618 29.412 18.63 29.256L18.882 29.184C19.038 29.4 19.194 29.586 19.35 29.742C19.506 29.886 19.686 29.958 19.89 29.958C20.058 29.958 20.304 29.904 20.628 29.796C20.964 29.676 21.318 29.526 21.69 29.346C22.074 29.166 22.428 28.992 22.752 28.824C23.088 28.656 23.346 28.524 23.526 28.428C23.67 28.356 23.796 28.32 23.904 28.32C24.012 28.308 24.108 28.32 24.192 28.356C24.324 28.416 24.468 28.518 24.624 28.662C24.78 28.794 24.912 28.932 25.02 29.076C25.14 29.208 25.2 29.31 25.2 29.382C25.2 29.502 25.164 29.61 25.092 29.706C25.02 29.802 24.924 29.928 24.804 30.084C24.564 30.348 24.336 30.63 24.12 30.93C23.904 31.23 23.688 31.53 23.472 31.83L23.544 30.75C23.592 30.654 23.646 30.516 23.706 30.336C23.766 30.156 23.808 30.012 23.832 29.904C23.604 30 23.34 30.132 23.04 30.3C22.752 30.456 22.476 30.618 22.212 30.786C21.948 30.954 21.738 31.086 21.582 31.182ZM41.598 30.39V29.598L43.56 30.39H50.976V30.912H43.452V37.284C43.452 37.344 43.374 37.422 43.218 37.518C43.062 37.614 42.864 37.698 42.624 37.77C42.384 37.842 42.132 37.878 41.868 37.878H41.598V30.39ZM44.586 32.136V31.47L46.188 32.136H48.186V32.64H46.116V36.258C46.116 36.294 46.05 36.354 45.918 36.438C45.798 36.51 45.636 36.582 45.432 36.654C45.228 36.714 45.018 36.744 44.802 36.744H44.586V32.136ZM45.414 34.944H48.33V35.448H45.414V34.944ZM46.674 27.528H49.59V28.032H46.674V27.528ZM50.274 30.39H50.112L50.904 29.472L52.74 30.822C52.692 30.882 52.614 30.942 52.506 31.002C52.41 31.062 52.29 31.11 52.146 31.146V36.258C52.146 36.63 52.092 36.948 51.984 37.212C51.888 37.476 51.678 37.686 51.354 37.842C51.03 37.986 50.532 38.088 49.86 38.148C49.848 37.908 49.824 37.698 49.788 37.518C49.752 37.338 49.674 37.2 49.554 37.104C49.458 36.996 49.326 36.9 49.158 36.816C48.99 36.732 48.732 36.666 48.384 36.618V36.366C48.384 36.366 48.492 36.372 48.708 36.384C48.924 36.396 49.158 36.414 49.41 36.438C49.674 36.45 49.854 36.456 49.95 36.456C50.082 36.456 50.166 36.426 50.202 36.366C50.25 36.306 50.274 36.228 50.274 36.132V30.39ZM43.092 25.26V24.468L45.09 25.26H48.456L49.302 24.18L51.354 25.602C51.282 25.686 51.186 25.758 51.066 25.818C50.946 25.878 50.772 25.926 50.544 25.962V30.624H48.654V25.764H44.91V30.624H43.092V25.26ZM47.646 32.136H47.502L48.222 31.398L49.716 32.514C49.68 32.562 49.614 32.616 49.518 32.676C49.434 32.724 49.326 32.76 49.194 32.784V35.574C49.194 35.622 49.122 35.688 48.978 35.772C48.834 35.844 48.66 35.916 48.456 35.988C48.264 36.048 48.084 36.078 47.916 36.078H47.646V32.136ZM45.99 27.528V26.808L47.754 27.528H47.52V30.642H45.99V27.528ZM40.284 37.212C40.608 37.536 40.938 37.8 41.274 38.004C41.61 38.196 42 38.346 42.444 38.454C42.888 38.55 43.404 38.616 43.992 38.652C44.592 38.688 45.306 38.706 46.134 38.706C46.818 38.706 47.562 38.706 48.366 38.706C49.17 38.694 49.986 38.682 50.814 38.67C51.654 38.658 52.446 38.646 53.19 38.634V38.85C52.386 39.054 51.936 39.63 51.84 40.578C51.312 40.578 50.718 40.578 50.058 40.578C49.41 40.578 48.75 40.578 48.078 40.578C47.406 40.578 46.764 40.578 46.152 40.578C45.288 40.578 44.544 40.536 43.92 40.452C43.296 40.368 42.75 40.218 42.282 40.002C41.826 39.786 41.418 39.48 41.058 39.084C40.71 38.676 40.386 38.154 40.086 37.518C39.846 37.842 39.576 38.196 39.276 38.58C38.976 38.952 38.676 39.306 38.376 39.642C38.076 39.99 37.812 40.29 37.584 40.542C37.584 40.65 37.56 40.74 37.512 40.812C37.464 40.884 37.398 40.938 37.314 40.974L36.18 38.706C36.528 38.574 36.936 38.412 37.404 38.22C37.884 38.016 38.376 37.8 38.88 37.572C39.396 37.332 39.864 37.116 40.284 36.924V37.212ZM40.284 32.73V37.176L38.322 38.256V32.46H36.27L36.162 31.956H38.052L39.06 30.606L41.22 32.352C41.148 32.424 41.04 32.496 40.896 32.568C40.752 32.64 40.548 32.694 40.284 32.73ZM37.296 24.972C38.184 25.14 38.886 25.374 39.402 25.674C39.918 25.974 40.284 26.298 40.5 26.646C40.728 26.982 40.836 27.312 40.824 27.636C40.812 27.96 40.71 28.23 40.518 28.446C40.326 28.65 40.086 28.764 39.798 28.788C39.51 28.812 39.198 28.704 38.862 28.464C38.814 28.056 38.7 27.648 38.52 27.24C38.34 26.832 38.13 26.442 37.89 26.07C37.65 25.698 37.404 25.368 37.152 25.08L37.296 24.972ZM68.04 27.312C68.184 27.528 68.316 27.696 68.436 27.816C68.568 27.936 68.706 28.002 68.85 28.014C69.054 28.014 69.216 27.954 69.336 27.834C69.456 27.714 69.516 27.558 69.516 27.366C69.528 27.198 69.492 27.03 69.408 26.862C69.336 26.694 69.204 26.52 69.012 26.34C68.736 26.088 68.394 25.872 67.986 25.692C67.578 25.512 67.116 25.35 66.6 25.206L66.438 25.458C66.858 25.818 67.188 26.16 67.428 26.484C67.668 26.796 67.872 27.072 68.04 27.312ZM69.732 26.088C69.912 26.316 70.062 26.496 70.182 26.628C70.302 26.76 70.452 26.826 70.632 26.826C70.824 26.826 70.968 26.772 71.064 26.664C71.172 26.544 71.226 26.388 71.226 26.196C71.226 25.98 71.178 25.782 71.082 25.602C70.986 25.422 70.824 25.248 70.596 25.08C70.344 24.888 70.014 24.72 69.606 24.576C69.21 24.432 68.76 24.306 68.256 24.198L68.094 24.432C68.562 24.792 68.91 25.104 69.138 25.368C69.378 25.632 69.576 25.872 69.732 26.088ZM56.232 27.132C56.568 27.348 56.868 27.522 57.132 27.654C57.396 27.786 57.672 27.882 57.96 27.942C58.248 27.99 58.596 28.014 59.004 28.014C59.352 28.014 59.76 27.978 60.228 27.906C60.696 27.822 61.164 27.726 61.632 27.618C62.112 27.51 62.52 27.402 62.856 27.294C63.408 27.126 63.846 26.958 64.17 26.79C64.494 26.622 64.74 26.478 64.908 26.358C65.088 26.238 65.214 26.178 65.286 26.178C65.514 26.178 65.742 26.196 65.97 26.232C66.198 26.268 66.39 26.34 66.546 26.448C66.702 26.544 66.78 26.7 66.78 26.916C66.78 27.048 66.738 27.18 66.654 27.312C66.582 27.444 66.456 27.576 66.276 27.708C66.012 27.888 65.628 28.08 65.124 28.284C64.62 28.488 64.044 28.674 63.396 28.842C62.76 29.01 62.094 29.154 61.398 29.274C60.702 29.382 60.024 29.436 59.364 29.436C58.788 29.436 58.302 29.376 57.906 29.256C57.51 29.136 57.162 28.92 56.862 28.608C56.562 28.296 56.286 27.858 56.034 27.294L56.232 27.132ZM58.23 29.904C57.834 30.384 57.714 30.768 57.87 31.056C58.038 31.332 58.512 31.47 59.292 31.47C59.82 31.47 60.36 31.434 60.912 31.362C61.476 31.278 62.052 31.164 62.64 31.02C63.24 30.876 63.834 30.702 64.422 30.498C65.058 30.282 65.544 30.096 65.88 29.94C66.228 29.772 66.48 29.64 66.636 29.544C66.792 29.448 66.894 29.4 66.942 29.4C67.182 29.376 67.416 29.382 67.644 29.418C67.884 29.442 68.082 29.514 68.238 29.634C68.394 29.754 68.472 29.934 68.472 30.174C68.472 30.306 68.436 30.444 68.364 30.588C68.292 30.72 68.148 30.858 67.932 31.002C67.536 31.254 67.02 31.5 66.384 31.74C65.76 31.98 65.058 32.202 64.278 32.406C63.51 32.598 62.7 32.754 61.848 32.874C60.996 32.994 60.138 33.054 59.274 33.054C58.662 33.054 58.146 32.952 57.726 32.748C57.306 32.544 57.018 32.28 56.862 31.956C56.706 31.62 56.712 31.26 56.88 30.876C57.06 30.48 57.426 30.09 57.978 29.706L58.23 29.904ZM61.83 34.44C62.478 34.44 63.096 34.482 63.684 34.566C64.284 34.65 64.752 34.734 65.088 34.818C65.208 34.842 65.274 34.842 65.286 34.818C65.298 34.782 65.286 34.728 65.25 34.656C65.058 34.356 64.782 33.948 64.422 33.432C64.062 32.916 63.684 32.286 63.288 31.542C63.06 31.098 62.82 30.6 62.568 30.048C62.316 29.484 62.07 28.914 61.83 28.338C61.59 27.762 61.374 27.234 61.182 26.754C61.086 26.514 60.984 26.34 60.876 26.232C60.768 26.124 60.576 26.04 60.3 25.98C60.144 25.944 59.958 25.914 59.742 25.89C59.538 25.854 59.328 25.83 59.112 25.818L59.058 25.584C59.322 25.332 59.61 25.134 59.922 24.99C60.234 24.846 60.576 24.774 60.948 24.774C61.452 24.774 61.866 24.834 62.19 24.954C62.526 25.074 62.712 25.308 62.748 25.656C62.784 25.812 62.82 26.028 62.856 26.304C62.892 26.568 62.934 26.844 62.982 27.132C63.042 27.408 63.114 27.66 63.198 27.888C63.342 28.332 63.48 28.728 63.612 29.076C63.744 29.424 63.894 29.772 64.062 30.12C64.23 30.456 64.428 30.828 64.656 31.236C65.052 31.956 65.43 32.544 65.79 33C66.15 33.444 66.468 33.81 66.744 34.098C67.02 34.374 67.236 34.608 67.392 34.8C67.548 34.992 67.626 35.19 67.626 35.394C67.626 35.682 67.572 35.958 67.464 36.222C67.368 36.474 67.236 36.678 67.068 36.834C66.912 36.99 66.732 37.068 66.528 37.068C66.336 37.068 66.162 37.026 66.006 36.942C65.85 36.858 65.67 36.738 65.466 36.582C65.262 36.426 64.986 36.252 64.638 36.06C64.422 35.928 64.14 35.802 63.792 35.682C63.444 35.55 63.054 35.442 62.622 35.358C62.19 35.274 61.734 35.232 61.254 35.232C60.654 35.232 60.132 35.31 59.688 35.466C59.256 35.622 58.92 35.838 58.68 36.114C58.452 36.378 58.338 36.684 58.338 37.032C58.338 37.356 58.434 37.626 58.626 37.842C58.83 38.046 59.088 38.208 59.4 38.328C59.724 38.448 60.078 38.532 60.462 38.58C60.846 38.628 61.218 38.652 61.578 38.652C61.986 38.652 62.316 38.64 62.568 38.616C62.82 38.592 63.036 38.568 63.216 38.544C63.396 38.508 63.57 38.478 63.738 38.454C63.918 38.43 64.134 38.418 64.386 38.418C64.782 38.418 65.118 38.496 65.394 38.652C65.682 38.796 65.826 39.036 65.826 39.372C65.826 39.588 65.718 39.774 65.502 39.93C65.298 40.086 65.016 40.206 64.656 40.29C64.308 40.386 63.906 40.452 63.45 40.488C62.994 40.536 62.52 40.56 62.028 40.56C61.32 40.56 60.654 40.488 60.03 40.344C59.418 40.212 58.878 40.014 58.41 39.75C57.954 39.498 57.594 39.186 57.33 38.814C57.078 38.43 56.952 37.992 56.952 37.5C56.952 36.96 57.132 36.456 57.492 35.988C57.864 35.52 58.41 35.148 59.13 34.872C59.85 34.584 60.75 34.44 61.83 34.44Z" fill="var(--fill-0, #001F66)"/>
</svg>
