<svg width="330" height="71" viewBox="0 0 330 71" fill="none" xmlns="http://www.w3.org/2000/svg">
<g filter="url(#filter0_d_124_1680)">
<path d="M12.54 10.74H24.94V13.02H12.54V10.74ZM21.32 11.56H23.72V24.96C23.72 25.64 23.6334 26.1667 23.46 26.54C23.3 26.9133 23.0067 27.1933 22.58 27.38C22.14 27.5533 21.58 27.6667 20.9 27.72C20.22 27.7867 19.4134 27.8133 18.48 27.8C18.44 27.4667 18.34 27.06 18.18 26.58C18.02 26.1133 17.8534 25.7067 17.68 25.36C18.12 25.3733 18.5467 25.3867 18.96 25.4C19.3867 25.4133 19.76 25.42 20.08 25.42C20.4134 25.42 20.6467 25.42 20.78 25.42C20.98 25.42 21.12 25.3867 21.2 25.32C21.28 25.24 21.32 25.1133 21.32 24.94V11.56ZM12.78 15.2H15.04V23.78H12.78V15.2ZM13.76 15.2H19.48V22.48H13.76V20.4H17.26V17.26H13.76V15.2ZM10.48 8.98L12.74 9.7C12.3134 10.8067 11.8134 11.9267 11.24 13.06C10.6667 14.1933 10.04 15.26 9.36002 16.26C8.69335 17.26 8.00002 18.14 7.28002 18.9C7.20002 18.7 7.08669 18.4467 6.94002 18.14C6.79335 17.82 6.63335 17.5 6.46002 17.18C6.28669 16.8467 6.13335 16.5867 6.00002 16.4C6.60002 15.8 7.17335 15.1067 7.72002 14.32C8.28002 13.52 8.80002 12.6667 9.28002 11.76C9.76002 10.84 10.16 9.91333 10.48 8.98ZM8.68002 14.6L11.06 12.2L11.08 12.22V27.74H8.68002V14.6ZM30.48 8.92L32.94 9.56C32.58 10.5467 32.1534 11.5133 31.66 12.46C31.18 13.4067 30.6534 14.2867 30.08 15.1C29.52 15.9 28.94 16.6 28.34 17.2C28.18 17.0667 27.9734 16.9 27.72 16.7C27.4667 16.4867 27.2067 16.2867 26.94 16.1C26.6867 15.9133 26.46 15.76 26.26 15.64C26.8734 15.12 27.4467 14.5067 27.98 13.8C28.5134 13.08 28.9934 12.3067 29.42 11.48C29.8467 10.64 30.2 9.78667 30.48 8.92ZM30.92 11.2H43.64V13.52H29.76L30.92 11.2ZM29.5 15.94H43.16V18.18H31.9V22.38H29.5V15.94ZM26.32 21.2H44.72V23.5H26.32V21.2ZM35.38 12.4H37.86V27.8H35.38V12.4ZM54.9 9.98C54.82 10.34 54.7534 10.66 54.7 10.94C54.6467 11.22 54.6 11.4933 54.56 11.76C54.5067 12.04 54.44 12.4467 54.36 12.98C54.2934 13.5 54.2134 14.0933 54.12 14.76C54.04 15.4133 53.9534 16.1 53.86 16.82C53.78 17.5267 53.7 18.22 53.62 18.9C53.54 19.58 53.4734 20.2 53.42 20.76C53.38 21.32 53.36 21.7667 53.36 22.1C53.36 22.9267 53.6067 23.56 54.1 24C54.6067 24.4267 55.3534 24.64 56.34 24.64C57.2734 24.64 58.06 24.5133 58.7 24.26C59.34 23.9933 59.8267 23.64 60.16 23.2C60.4934 22.76 60.66 22.2667 60.66 21.72C60.66 21.04 60.48 20.38 60.12 19.74C59.7734 19.0867 59.2667 18.4533 58.6 17.84L61.42 17.24C62.0867 18.08 62.5734 18.88 62.88 19.64C63.2 20.3867 63.36 21.1867 63.36 22.04C63.36 23.04 63.0734 23.9333 62.5 24.72C61.9267 25.5067 61.1067 26.12 60.04 26.56C58.9867 27 57.7267 27.22 56.26 27.22C55.22 27.22 54.2934 27.06 53.48 26.74C52.6667 26.42 52.0334 25.9133 51.58 25.22C51.1267 24.5267 50.9 23.6267 50.9 22.52C50.9 22.1067 50.9334 21.56 51 20.88C51.0667 20.1867 51.1467 19.4267 51.24 18.6C51.3467 17.76 51.4534 16.9133 51.56 16.06C51.6667 15.1933 51.76 14.3733 51.84 13.6C51.9334 12.8267 52.0067 12.16 52.06 11.6C52.0867 11.1333 52.1 10.78 52.1 10.54C52.1134 10.2867 52.1067 10.0467 52.08 9.82L54.9 9.98ZM47.76 12.46C48.36 12.6467 49.0134 12.8067 49.72 12.94C50.4267 13.06 51.1534 13.1533 51.9 13.22C52.6467 13.2733 53.3534 13.3 54.02 13.3C54.8067 13.3 55.54 13.2733 56.22 13.22C56.9 13.1667 57.4934 13.1 58 13.02L57.92 15.4C57.32 15.4533 56.72 15.5 56.12 15.54C55.52 15.58 54.8 15.6 53.96 15.6C53.28 15.6 52.5734 15.5667 51.84 15.5C51.1067 15.42 50.38 15.32 49.66 15.2C48.94 15.0667 48.2667 14.92 47.64 14.76L47.76 12.46ZM47.34 17.42C48.06 17.66 48.7867 17.8467 49.52 17.98C50.2667 18.1133 51 18.2067 51.72 18.26C52.4534 18.3 53.1534 18.32 53.82 18.32C54.4334 18.32 55.0934 18.3 55.8 18.26C56.52 18.22 57.2 18.16 57.84 18.08L57.78 20.46C57.22 20.5133 56.6467 20.56 56.06 20.6C55.4734 20.6267 54.8667 20.64 54.24 20.64C52.9067 20.64 51.6267 20.5733 50.4 20.44C49.1734 20.2933 48.1067 20.0933 47.2 19.84L47.34 17.42ZM71.9 17.16H84.92V19.44H71.9V17.16ZM74.26 12.06H84.06V14.32H74.26V12.06ZM77.3 9H79.7V18.36H77.3V9ZM73.92 9.28L76.32 9.72C76.16 10.6667 75.94 11.6 75.66 12.52C75.3934 13.44 75.0867 14.3 74.74 15.1C74.3934 15.8867 74.0067 16.5733 73.58 17.16C73.42 17.0267 73.2134 16.88 72.96 16.72C72.7067 16.5467 72.4467 16.38 72.18 16.22C71.9267 16.0467 71.6934 15.92 71.48 15.84C72.0934 15.0667 72.6 14.1 73 12.94C73.4134 11.7667 73.72 10.5467 73.92 9.28ZM79.04 18.66H81.38V24.72C81.38 25.04 81.4 25.24 81.44 25.32C81.4934 25.4 81.6067 25.44 81.78 25.44C81.82 25.44 81.88 25.44 81.96 25.44C82.04 25.44 82.1267 25.44 82.22 25.44C82.3134 25.44 82.4 25.44 82.48 25.44C82.5734 25.44 82.6467 25.44 82.7 25.44C82.8334 25.44 82.9334 25.3733 83 25.24C83.0667 25.1067 83.1134 24.84 83.14 24.44C83.1667 24.0267 83.1867 23.4133 83.2 22.6C83.36 22.72 83.56 22.8467 83.8 22.98C84.0534 23.1 84.3067 23.2067 84.56 23.3C84.8267 23.3933 85.06 23.4733 85.26 23.54C85.2067 24.58 85.0934 25.3933 84.92 25.98C84.76 26.5667 84.52 26.9733 84.2 27.2C83.8934 27.44 83.4734 27.56 82.94 27.56C82.8467 27.56 82.7267 27.56 82.58 27.56C82.4334 27.56 82.28 27.56 82.12 27.56C81.9734 27.56 81.8334 27.56 81.7 27.56C81.5667 27.56 81.4534 27.56 81.36 27.56C80.7334 27.56 80.2467 27.4733 79.9 27.3C79.5667 27.1267 79.34 26.8333 79.22 26.42C79.1 26.0067 79.04 25.4467 79.04 24.74V18.66ZM74.96 19.08H77.36C77.28 20.08 77.16 21.0133 77 21.88C76.84 22.7333 76.58 23.5267 76.22 24.26C75.8734 24.9933 75.38 25.6533 74.74 26.24C74.1 26.8267 73.26 27.34 72.22 27.78C72.1267 27.58 72 27.36 71.84 27.12C71.6934 26.88 71.5267 26.64 71.34 26.4C71.1534 26.1733 70.9667 25.9867 70.78 25.84C71.6734 25.5067 72.3867 25.1133 72.92 24.66C73.4534 24.2067 73.8534 23.7 74.12 23.14C74.4 22.5667 74.5934 21.94 74.7 21.26C74.82 20.58 74.9067 19.8533 74.96 19.08ZM67.02 10.86L68.44 9.2C68.84 9.4 69.26 9.63333 69.7 9.9C70.1534 10.1533 70.5734 10.42 70.96 10.7C71.36 10.98 71.68 11.2467 71.92 11.5L70.4 13.34C70.1867 13.0733 69.8867 12.7933 69.5 12.5C69.1267 12.1933 68.72 11.9 68.28 11.62C67.84 11.3267 67.42 11.0733 67.02 10.86ZM66.08 16.26L67.4 14.52C67.8134 14.6933 68.2534 14.9 68.72 15.14C69.1867 15.38 69.6267 15.6333 70.04 15.9C70.4667 16.1667 70.8067 16.42 71.06 16.66L69.66 18.58C69.42 18.34 69.1 18.08 68.7 17.8C68.3 17.52 67.8667 17.2467 67.4 16.98C66.9467 16.7 66.5067 16.46 66.08 16.26ZM66.62 26.16C66.94 25.6267 67.28 25.0133 67.64 24.32C68.0134 23.6267 68.3934 22.8867 68.78 22.1C69.1667 21.3133 69.52 20.5267 69.84 19.74L71.62 21.12C71.34 21.84 71.04 22.5733 70.72 23.32C70.4 24.0533 70.0734 24.7867 69.74 25.52C69.4067 26.24 69.0734 26.94 68.74 27.62L66.62 26.16ZM88.38 17.54C88.6867 17.4733 89.04 17.3933 89.44 17.3C89.84 17.1933 90.1934 17.0933 90.5 17C90.8334 16.8933 91.28 16.7533 91.84 16.58C92.4 16.4067 93.0134 16.2333 93.68 16.06C94.36 15.8867 95.04 15.74 95.72 15.62C96.4134 15.5 97.0667 15.44 97.68 15.44C98.7334 15.44 99.6534 15.64 100.44 16.04C101.24 16.4267 101.86 16.9867 102.3 17.72C102.74 18.4533 102.96 19.3267 102.96 20.34C102.96 21.2467 102.76 22.0733 102.36 22.82C101.973 23.5667 101.38 24.22 100.58 24.78C99.78 25.34 98.78 25.7933 97.58 26.14C96.3934 26.5 95.0067 26.7267 93.42 26.82L92.36 24.36C93.5067 24.3333 94.56 24.2333 95.52 24.06C96.4934 23.8867 97.3334 23.64 98.04 23.32C98.76 22.9867 99.3134 22.5667 99.7 22.06C100.1 21.5533 100.3 20.9667 100.3 20.3C100.3 19.7933 100.18 19.3533 99.94 18.98C99.7134 18.5933 99.3867 18.2933 98.96 18.08C98.5334 17.8667 98.0267 17.76 97.44 17.76C96.9734 17.76 96.4534 17.82 95.88 17.94C95.3067 18.06 94.7134 18.2133 94.1 18.4C93.5 18.5867 92.9067 18.7867 92.32 19C91.7334 19.2133 91.1867 19.42 90.68 19.62C90.1734 19.82 89.7534 19.9933 89.42 20.14L88.38 17.54ZM105.944 12.24C106.344 12.2267 106.724 12.2133 107.084 12.2C107.444 12.1733 107.724 12.1533 107.924 12.14C108.337 12.1 108.844 12.0533 109.444 12C110.044 11.9467 110.717 11.8867 111.464 11.82C112.224 11.7533 113.031 11.6867 113.884 11.62C114.737 11.54 115.624 11.46 116.544 11.38C117.237 11.3267 117.931 11.28 118.624 11.24C119.317 11.1867 119.971 11.1467 120.584 11.12C121.211 11.08 121.751 11.0533 122.204 11.04L122.224 13.6C121.864 13.6 121.451 13.6067 120.984 13.62C120.517 13.6333 120.051 13.66 119.584 13.7C119.131 13.7267 118.724 13.78 118.364 13.86C117.764 14.02 117.204 14.2933 116.684 14.68C116.177 15.0533 115.731 15.5 115.344 16.02C114.957 16.54 114.657 17.1 114.444 17.7C114.244 18.2867 114.144 18.88 114.144 19.48C114.144 20.1333 114.257 20.7133 114.484 21.22C114.711 21.7133 115.024 22.14 115.424 22.5C115.837 22.8467 116.317 23.14 116.864 23.38C117.411 23.6067 117.997 23.78 118.624 23.9C119.264 24.02 119.924 24.1 120.604 24.14L119.664 26.88C118.824 26.8267 118.004 26.6933 117.204 26.48C116.417 26.2667 115.677 25.9733 114.984 25.6C114.304 25.2267 113.704 24.7733 113.184 24.24C112.664 23.6933 112.257 23.0733 111.964 22.38C111.671 21.6733 111.524 20.8867 111.524 20.02C111.524 19.0467 111.677 18.16 111.984 17.36C112.291 16.56 112.671 15.86 113.124 15.26C113.577 14.6467 114.031 14.1733 114.484 13.84C114.111 13.88 113.657 13.9333 113.124 14C112.604 14.0533 112.037 14.12 111.424 14.2C110.824 14.2667 110.211 14.34 109.584 14.42C108.957 14.5 108.351 14.5933 107.764 14.7C107.191 14.7933 106.671 14.8867 106.204 14.98L105.944 12.24ZM129.724 11.7C129.671 11.94 129.624 12.2133 129.584 12.52C129.557 12.8267 129.531 13.1267 129.504 13.42C129.491 13.7133 129.484 13.9533 129.484 14.14C129.471 14.58 129.464 15.0333 129.464 15.5C129.477 15.9667 129.491 16.4467 129.504 16.94C129.531 17.42 129.564 17.9 129.604 18.38C129.697 19.34 129.831 20.1867 130.004 20.92C130.177 21.6533 130.404 22.2267 130.684 22.64C130.964 23.04 131.317 23.24 131.744 23.24C131.971 23.24 132.191 23.1133 132.404 22.86C132.631 22.6067 132.831 22.28 133.004 21.88C133.191 21.4667 133.351 21.0333 133.484 20.58C133.631 20.1267 133.757 19.7 133.864 19.3L135.864 21.74C135.424 22.9 134.984 23.8267 134.544 24.52C134.117 25.2 133.671 25.6933 133.204 26C132.737 26.2933 132.231 26.44 131.684 26.44C130.964 26.44 130.277 26.2 129.624 25.72C128.984 25.24 128.437 24.4667 127.984 23.4C127.531 22.32 127.211 20.8867 127.024 19.1C126.957 18.4867 126.904 17.84 126.864 17.16C126.837 16.48 126.817 15.8333 126.804 15.22C126.804 14.6067 126.804 14.1 126.804 13.7C126.804 13.42 126.791 13.0867 126.764 12.7C126.737 12.3133 126.697 11.9667 126.644 11.66L129.724 11.7ZM139.724 12.16C140.097 12.6133 140.457 13.1667 140.804 13.82C141.151 14.4733 141.471 15.1733 141.764 15.92C142.057 16.6667 142.317 17.4333 142.544 18.22C142.771 18.9933 142.951 19.7533 143.084 20.5C143.231 21.2333 143.324 21.9067 143.364 22.52L140.724 23.54C140.657 22.7267 140.537 21.84 140.364 20.88C140.191 19.92 139.957 18.9533 139.664 17.98C139.371 17.0067 139.017 16.0867 138.604 15.22C138.204 14.3533 137.731 13.6067 137.184 12.98L139.724 12.16ZM146.184 12.9C146.611 12.9533 147.064 12.9933 147.544 13.02C148.037 13.0333 148.471 13.04 148.844 13.04C149.671 13.04 150.504 12.9933 151.344 12.9C152.197 12.8067 153.017 12.6867 153.804 12.54C154.591 12.38 155.304 12.2 155.944 12L156.024 14.32C155.451 14.4667 154.764 14.62 153.964 14.78C153.177 14.9267 152.344 15.0533 151.464 15.16C150.584 15.2533 149.717 15.3 148.864 15.3C148.464 15.3 148.057 15.2933 147.644 15.28C147.231 15.2667 146.804 15.2467 146.364 15.22L146.184 12.9ZM153.964 9.9C153.884 10.2333 153.777 10.6667 153.644 11.2C153.511 11.7333 153.357 12.2933 153.184 12.88C153.024 13.4667 152.851 14.0467 152.664 14.62C152.371 15.58 151.984 16.6 151.504 17.68C151.024 18.76 150.504 19.8133 149.944 20.84C149.384 21.8667 148.817 22.78 148.244 23.58L145.824 22.34C146.277 21.78 146.724 21.16 147.164 20.48C147.604 19.8 148.017 19.1 148.404 18.38C148.791 17.66 149.137 16.9667 149.444 16.3C149.764 15.62 150.017 15.0067 150.204 14.46C150.457 13.7533 150.677 12.9667 150.864 12.1C151.064 11.22 151.177 10.3933 151.204 9.62L153.964 9.9ZM158.644 16.12C158.617 16.5467 158.604 16.9733 158.604 17.4C158.617 17.8133 158.631 18.24 158.644 18.68C158.657 18.9867 158.671 19.38 158.684 19.86C158.711 20.3267 158.737 20.8267 158.764 21.36C158.791 21.88 158.811 22.38 158.824 22.86C158.851 23.3267 158.864 23.7 158.864 23.98C158.864 24.5933 158.737 25.1533 158.484 25.66C158.231 26.1533 157.824 26.5467 157.264 26.84C156.717 27.1333 155.964 27.28 155.004 27.28C154.177 27.28 153.431 27.1533 152.764 26.9C152.097 26.66 151.564 26.3 151.164 25.82C150.764 25.3267 150.564 24.7133 150.564 23.98C150.564 23.3267 150.737 22.74 151.084 22.22C151.431 21.6867 151.931 21.2733 152.584 20.98C153.251 20.6733 154.051 20.52 154.984 20.52C156.157 20.52 157.237 20.6867 158.224 21.02C159.211 21.34 160.097 21.7533 160.884 22.26C161.671 22.7667 162.344 23.2733 162.904 23.78L161.564 25.92C161.204 25.6 160.791 25.24 160.324 24.84C159.871 24.44 159.357 24.0667 158.784 23.72C158.224 23.3733 157.611 23.0867 156.944 22.86C156.291 22.6333 155.584 22.52 154.824 22.52C154.251 22.52 153.791 22.6333 153.444 22.86C153.097 23.0867 152.924 23.38 152.924 23.74C152.924 24.1133 153.071 24.4133 153.364 24.64C153.671 24.8667 154.097 24.98 154.644 24.98C155.097 24.98 155.457 24.9067 155.724 24.76C155.991 24.6 156.177 24.38 156.284 24.1C156.391 23.8067 156.444 23.48 156.444 23.12C156.444 22.8133 156.431 22.38 156.404 21.82C156.377 21.26 156.344 20.64 156.304 19.96C156.277 19.28 156.251 18.6 156.224 17.92C156.197 17.24 156.171 16.64 156.144 16.12H158.644ZM162.084 17.18C161.697 16.86 161.217 16.52 160.644 16.16C160.071 15.8 159.477 15.46 158.864 15.14C158.264 14.8067 157.737 14.54 157.284 14.34L158.564 12.36C158.924 12.52 159.331 12.72 159.784 12.96C160.251 13.1867 160.717 13.4267 161.184 13.68C161.664 13.9333 162.104 14.1867 162.504 14.44C162.917 14.68 163.251 14.8933 163.504 15.08L162.084 17.18ZM169.724 11.7C169.671 11.94 169.624 12.2133 169.584 12.52C169.557 12.8267 169.531 13.1267 169.504 13.42C169.491 13.7133 169.484 13.9533 169.484 14.14C169.471 14.58 169.464 15.0333 169.464 15.5C169.477 15.9667 169.491 16.4467 169.504 16.94C169.531 17.42 169.564 17.9 169.604 18.38C169.697 19.34 169.831 20.1867 170.004 20.92C170.177 21.6533 170.404 22.2267 170.684 22.64C170.964 23.04 171.317 23.24 171.744 23.24C171.971 23.24 172.191 23.1133 172.404 22.86C172.631 22.6067 172.831 22.28 173.004 21.88C173.191 21.4667 173.351 21.0333 173.484 20.58C173.631 20.1267 173.757 19.7 173.864 19.3L175.864 21.74C175.424 22.9 174.984 23.8267 174.544 24.52C174.117 25.2 173.671 25.6933 173.204 26C172.737 26.2933 172.231 26.44 171.684 26.44C170.964 26.44 170.277 26.2 169.624 25.72C168.984 25.24 168.437 24.4667 167.984 23.4C167.531 22.32 167.211 20.8867 167.024 19.1C166.957 18.4867 166.904 17.84 166.864 17.16C166.837 16.48 166.817 15.8333 166.804 15.22C166.804 14.6067 166.804 14.1 166.804 13.7C166.804 13.42 166.791 13.0867 166.764 12.7C166.737 12.3133 166.697 11.9667 166.644 11.66L169.724 11.7ZM179.724 12.16C180.097 12.6133 180.457 13.1667 180.804 13.82C181.151 14.4733 181.471 15.1733 181.764 15.92C182.057 16.6667 182.317 17.4333 182.544 18.22C182.771 18.9933 182.951 19.7533 183.084 20.5C183.231 21.2333 183.324 21.9067 183.364 22.52L180.724 23.54C180.657 22.7267 180.537 21.84 180.364 20.88C180.191 19.92 179.957 18.9533 179.664 17.98C179.371 17.0067 179.017 16.0867 178.604 15.22C178.204 14.3533 177.731 13.6067 177.184 12.98L179.724 12.16ZM190.904 17.16H203.924V19.44H190.904V17.16ZM193.264 12.06H203.064V14.32H193.264V12.06ZM196.304 9H198.704V18.36H196.304V9ZM192.924 9.28L195.324 9.72C195.164 10.6667 194.944 11.6 194.664 12.52C194.397 13.44 194.091 14.3 193.744 15.1C193.397 15.8867 193.011 16.5733 192.584 17.16C192.424 17.0267 192.217 16.88 191.964 16.72C191.711 16.5467 191.451 16.38 191.184 16.22C190.931 16.0467 190.697 15.92 190.484 15.84C191.097 15.0667 191.604 14.1 192.004 12.94C192.417 11.7667 192.724 10.5467 192.924 9.28ZM198.044 18.66H200.384V24.72C200.384 25.04 200.404 25.24 200.444 25.32C200.497 25.4 200.611 25.44 200.784 25.44C200.824 25.44 200.884 25.44 200.964 25.44C201.044 25.44 201.131 25.44 201.224 25.44C201.317 25.44 201.404 25.44 201.484 25.44C201.577 25.44 201.651 25.44 201.704 25.44C201.837 25.44 201.937 25.3733 202.004 25.24C202.071 25.1067 202.117 24.84 202.144 24.44C202.171 24.0267 202.191 23.4133 202.204 22.6C202.364 22.72 202.564 22.8467 202.804 22.98C203.057 23.1 203.311 23.2067 203.564 23.3C203.831 23.3933 204.064 23.4733 204.264 23.54C204.211 24.58 204.097 25.3933 203.924 25.98C203.764 26.5667 203.524 26.9733 203.204 27.2C202.897 27.44 202.477 27.56 201.944 27.56C201.851 27.56 201.731 27.56 201.584 27.56C201.437 27.56 201.284 27.56 201.124 27.56C200.977 27.56 200.837 27.56 200.704 27.56C200.571 27.56 200.457 27.56 200.364 27.56C199.737 27.56 199.251 27.4733 198.904 27.3C198.571 27.1267 198.344 26.8333 198.224 26.42C198.104 26.0067 198.044 25.4467 198.044 24.74V18.66ZM193.964 19.08H196.364C196.284 20.08 196.164 21.0133 196.004 21.88C195.844 22.7333 195.584 23.5267 195.224 24.26C194.877 24.9933 194.384 25.6533 193.744 26.24C193.104 26.8267 192.264 27.34 191.224 27.78C191.131 27.58 191.004 27.36 190.844 27.12C190.697 26.88 190.531 26.64 190.344 26.4C190.157 26.1733 189.971 25.9867 189.784 25.84C190.677 25.5067 191.391 25.1133 191.924 24.66C192.457 24.2067 192.857 23.7 193.124 23.14C193.404 22.5667 193.597 21.94 193.704 21.26C193.824 20.58 193.911 19.8533 193.964 19.08ZM186.024 10.86L187.444 9.2C187.844 9.4 188.264 9.63333 188.704 9.9C189.157 10.1533 189.577 10.42 189.964 10.7C190.364 10.98 190.684 11.2467 190.924 11.5L189.404 13.34C189.191 13.0733 188.891 12.7933 188.504 12.5C188.131 12.1933 187.724 11.9 187.284 11.62C186.844 11.3267 186.424 11.0733 186.024 10.86ZM185.084 16.26L186.404 14.52C186.817 14.6933 187.257 14.9 187.724 15.14C188.191 15.38 188.631 15.6333 189.044 15.9C189.471 16.1667 189.811 16.42 190.064 16.66L188.664 18.58C188.424 18.34 188.104 18.08 187.704 17.8C187.304 17.52 186.871 17.2467 186.404 16.98C185.951 16.7 185.511 16.46 185.084 16.26ZM185.624 26.16C185.944 25.6267 186.284 25.0133 186.644 24.32C187.017 23.6267 187.397 22.8867 187.784 22.1C188.171 21.3133 188.524 20.5267 188.844 19.74L190.624 21.12C190.344 21.84 190.044 22.5733 189.724 23.32C189.404 24.0533 189.077 24.7867 188.744 25.52C188.411 26.24 188.077 26.94 187.744 27.62L185.624 26.16ZM211.424 12.18H215.564V13.74H211.424V12.18ZM211.164 9.78H216.804V16.22H211.144V14.56H214.584V11.44H211.164V9.78ZM217.684 12.18H221.864V13.74H217.684V12.18ZM213.364 20.42H222.744V22.04H213.364V20.42ZM213.364 22.84H222.744V24.46H213.364V22.84ZM213.184 25.32H223.784V27.22H213.184V25.32ZM217.444 9.78H223.184V16.22H217.404V14.56H220.944V11.44H217.444V9.78ZM213.224 15.86L215.504 16.56C215.184 17.1867 214.804 17.8267 214.364 18.48C213.937 19.12 213.477 19.7333 212.984 20.32C212.491 20.8933 211.984 21.4067 211.464 21.86C211.251 21.6333 210.984 21.38 210.664 21.1C210.344 20.8067 210.057 20.5667 209.804 20.38C210.271 20.0067 210.724 19.5667 211.164 19.06C211.604 18.54 212.004 18.0067 212.364 17.46C212.737 16.9 213.024 16.3667 213.224 15.86ZM214.224 17.76H223.304V19.6H214.224V27.8H212.104V19.14L213.404 17.76H214.224ZM217.724 16.06L220.144 16.66C219.837 17.18 219.537 17.68 219.244 18.16C218.951 18.6267 218.684 19.0267 218.444 19.36L216.564 18.78C216.777 18.3933 216.991 17.9467 217.204 17.44C217.431 16.92 217.604 16.46 217.724 16.06ZM216.784 19.06H219.004V25.94H216.784V19.06ZM206.124 10.86L207.444 9.08C207.831 9.22667 208.244 9.40667 208.684 9.62C209.124 9.83333 209.537 10.06 209.924 10.3C210.324 10.54 210.644 10.7667 210.884 10.98L209.484 12.96C209.257 12.7333 208.951 12.4933 208.564 12.24C208.191 11.9867 207.784 11.74 207.344 11.5C206.917 11.2467 206.511 11.0333 206.124 10.86ZM205.084 16.3L206.384 14.48C206.784 14.6133 207.204 14.78 207.644 14.98C208.084 15.18 208.497 15.3933 208.884 15.62C209.284 15.8333 209.604 16.0467 209.844 16.26L208.464 18.26C208.237 18.0467 207.931 17.82 207.544 17.58C207.157 17.34 206.751 17.1067 206.324 16.88C205.897 16.6533 205.484 16.46 205.084 16.3ZM205.564 26.14C205.857 25.6333 206.184 25.0333 206.544 24.34C206.917 23.6333 207.291 22.8867 207.664 22.1C208.051 21.3133 208.404 20.5267 208.724 19.74L210.604 21.18C210.324 21.8867 210.024 22.6133 209.704 23.36C209.384 24.0933 209.057 24.8133 208.724 25.52C208.391 26.2267 208.057 26.9133 207.724 27.58L205.564 26.14ZM231.484 19.2H243.764V21.06H231.484V19.2ZM233.124 23L234.324 21.56C234.657 21.7467 234.997 21.9667 235.344 22.22C235.704 22.4733 236.037 22.7267 236.344 22.98C236.664 23.2333 236.924 23.46 237.124 23.66L235.844 25.28C235.657 25.0533 235.411 24.8067 235.104 24.54C234.797 24.2733 234.471 24.0067 234.124 23.74C233.777 23.46 233.444 23.2133 233.124 23ZM239.624 18.46L240.804 17.42C241.124 17.62 241.457 17.8533 241.804 18.12C242.151 18.3867 242.417 18.6333 242.604 18.86L241.364 20C241.191 19.7733 240.931 19.5133 240.584 19.22C240.251 18.9267 239.931 18.6733 239.624 18.46ZM232.804 20.18H234.924C234.857 21.1933 234.724 22.1667 234.524 23.1C234.337 24.0333 234.017 24.9 233.564 25.7C233.111 26.4867 232.471 27.1733 231.644 27.76C231.497 27.5067 231.291 27.22 231.024 26.9C230.771 26.5933 230.524 26.3533 230.284 26.18C230.964 25.7267 231.477 25.18 231.824 24.54C232.171 23.9 232.411 23.2067 232.544 22.46C232.677 21.7133 232.764 20.9533 232.804 20.18ZM236.244 9.02H238.344C238.304 10.8467 238.324 12.5933 238.404 14.26C238.497 15.9267 238.637 17.4667 238.824 18.88C239.011 20.28 239.251 21.5 239.544 22.54C239.837 23.5667 240.177 24.3667 240.564 24.94C240.964 25.5133 241.411 25.8 241.904 25.8C242.144 25.8 242.317 25.6733 242.424 25.42C242.531 25.1667 242.611 24.64 242.664 23.84C242.891 24.0533 243.151 24.26 243.444 24.46C243.737 24.6467 243.997 24.8 244.224 24.92C244.117 25.68 243.964 26.2667 243.764 26.68C243.577 27.0933 243.317 27.38 242.984 27.54C242.664 27.7133 242.244 27.8 241.724 27.8C240.857 27.8 240.104 27.4667 239.464 26.8C238.837 26.1467 238.311 25.2333 237.884 24.06C237.471 22.8733 237.144 21.4933 236.904 19.92C236.677 18.3333 236.511 16.62 236.404 14.78C236.297 12.9267 236.244 11.0067 236.244 9.02ZM240.824 21.02L242.824 21.78C242.131 23.1667 241.191 24.3667 240.004 25.38C238.817 26.3933 237.464 27.1933 235.944 27.78C235.824 27.5533 235.631 27.2867 235.364 26.98C235.111 26.6733 234.884 26.4267 234.684 26.24C236.124 25.7333 237.371 25.0333 238.424 24.14C239.491 23.2467 240.291 22.2067 240.824 21.02ZM238.024 12.78L238.924 11.46C239.337 11.7533 239.764 12.1 240.204 12.5C240.657 12.9 240.991 13.26 241.204 13.58L240.284 15.06C240.071 14.7267 239.744 14.3467 239.304 13.92C238.864 13.48 238.437 13.1 238.024 12.78ZM241.764 15.1L243.104 14.58C243.357 15.0733 243.584 15.6 243.784 16.16C243.984 16.7067 244.111 17.18 244.164 17.58L242.724 18.18C242.671 17.7667 242.551 17.2733 242.364 16.7C242.191 16.1133 241.991 15.58 241.764 15.1ZM238.384 16.16C238.997 16.1333 239.684 16.0933 240.444 16.04C241.204 15.9733 242.004 15.9067 242.844 15.84L242.884 17.36C242.151 17.4533 241.437 17.5467 240.744 17.64C240.051 17.7333 239.384 17.8133 238.744 17.88L238.384 16.16ZM240.244 9.12L242.044 9.8C241.711 10.36 241.377 10.9333 241.044 11.52C240.724 12.1067 240.431 12.6 240.164 13L238.884 12.42C239.044 12.1133 239.204 11.7733 239.364 11.4C239.537 11.0133 239.697 10.62 239.844 10.22C240.004 9.82 240.137 9.45333 240.244 9.12ZM241.924 11.28L243.564 12.06C243.204 12.62 242.817 13.2067 242.404 13.82C242.004 14.4333 241.597 15.02 241.184 15.58C240.784 16.14 240.404 16.6333 240.044 17.06L238.784 16.36C239.144 15.92 239.517 15.4067 239.904 14.82C240.291 14.22 240.664 13.6133 241.024 13C241.384 12.3733 241.684 11.8 241.924 11.28ZM231.044 12.78L231.924 11.46C232.337 11.7533 232.764 12.1 233.204 12.5C233.657 12.9 233.997 13.26 234.224 13.58L233.284 15.06C233.071 14.7267 232.744 14.3467 232.304 13.92C231.864 13.48 231.444 13.1 231.044 12.78ZM234.444 15.32L235.784 14.88C236.011 15.36 236.211 15.8867 236.384 16.46C236.557 17.02 236.664 17.4933 236.704 17.88L235.264 18.44C235.224 18.0267 235.124 17.5267 234.964 16.94C234.817 16.3533 234.644 15.8133 234.444 15.32ZM231.184 16.48C231.784 16.44 232.471 16.3933 233.244 16.34C234.031 16.2733 234.844 16.2067 235.684 16.14L235.724 17.78C234.991 17.8733 234.264 17.96 233.544 18.04C232.837 18.12 232.157 18.1933 231.504 18.26L231.184 16.48ZM233.244 9.12L235.024 9.82C234.704 10.38 234.377 10.96 234.044 11.56C233.724 12.1467 233.431 12.6467 233.164 13.06L231.884 12.5C232.044 12.1933 232.211 11.8467 232.384 11.46C232.557 11.06 232.717 10.6533 232.864 10.24C233.024 9.82667 233.151 9.45333 233.244 9.12ZM234.924 11.28L236.584 12.06C236.211 12.6467 235.811 13.2667 235.384 13.92C234.957 14.56 234.531 15.18 234.104 15.78C233.677 16.3667 233.271 16.8867 232.884 17.34L231.644 16.66C232.017 16.18 232.404 15.6267 232.804 15C233.204 14.3733 233.591 13.7333 233.964 13.08C234.351 12.4267 234.671 11.8267 234.924 11.28ZM225.404 13.16H231.524V15.34H225.404V13.16ZM227.564 9H229.704V27.78H227.564V9ZM227.524 14.68L228.764 15.1C228.644 15.8733 228.491 16.6867 228.304 17.54C228.117 18.38 227.904 19.2067 227.664 20.02C227.424 20.8333 227.157 21.5933 226.864 22.3C226.584 23.0067 226.284 23.6133 225.964 24.12C225.857 23.8267 225.697 23.4867 225.484 23.1C225.284 22.7 225.104 22.3667 224.944 22.1C225.224 21.66 225.497 21.1533 225.764 20.58C226.031 19.9933 226.277 19.3667 226.504 18.7C226.731 18.02 226.931 17.34 227.104 16.66C227.277 15.9667 227.417 15.3067 227.524 14.68ZM229.584 16C229.691 16.1333 229.851 16.3733 230.064 16.72C230.277 17.0533 230.504 17.4267 230.744 17.84C230.997 18.24 231.224 18.6133 231.424 18.96C231.624 19.2933 231.764 19.5333 231.844 19.68L230.704 21.34C230.611 21.0467 230.477 20.7 230.304 20.3C230.131 19.8867 229.944 19.4667 229.744 19.04C229.544 18.6 229.351 18.1933 229.164 17.82C228.977 17.4333 228.831 17.12 228.724 16.88L229.584 16ZM256.344 12.3C256.211 13.3133 256.037 14.3933 255.824 15.54C255.611 16.6867 255.324 17.8467 254.964 19.02C254.577 20.3667 254.124 21.5267 253.604 22.5C253.084 23.4733 252.511 24.2267 251.884 24.76C251.271 25.28 250.597 25.54 249.864 25.54C249.131 25.54 248.451 25.2933 247.824 24.8C247.211 24.2933 246.717 23.6 246.344 22.72C245.984 21.84 245.804 20.84 245.804 19.72C245.804 18.56 246.037 17.4667 246.504 16.44C246.971 15.4133 247.617 14.5067 248.444 13.72C249.284 12.92 250.257 12.2933 251.364 11.84C252.484 11.3867 253.691 11.16 254.984 11.16C256.224 11.16 257.337 11.36 258.324 11.76C259.324 12.16 260.177 12.7133 260.884 13.42C261.591 14.1267 262.131 14.9533 262.504 15.9C262.877 16.8467 263.064 17.8667 263.064 18.96C263.064 20.36 262.777 21.6133 262.204 22.72C261.631 23.8267 260.777 24.74 259.644 25.46C258.524 26.18 257.124 26.6733 255.444 26.94L253.944 24.56C254.331 24.52 254.671 24.4733 254.964 24.42C255.257 24.3667 255.537 24.3067 255.804 24.24C256.444 24.08 257.037 23.8533 257.584 23.56C258.144 23.2533 258.631 22.88 259.044 22.44C259.457 21.9867 259.777 21.46 260.004 20.86C260.244 20.26 260.364 19.6 260.364 18.88C260.364 18.0933 260.244 17.3733 260.004 16.72C259.764 16.0667 259.411 15.5 258.944 15.02C258.477 14.5267 257.911 14.1533 257.244 13.9C256.577 13.6333 255.811 13.5 254.944 13.5C253.877 13.5 252.937 13.6933 252.124 14.08C251.311 14.4533 250.624 14.94 250.064 15.54C249.504 16.14 249.077 16.7867 248.784 17.48C248.504 18.1733 248.364 18.8333 248.364 19.46C248.364 20.1267 248.444 20.6867 248.604 21.14C248.764 21.58 248.957 21.9133 249.184 22.14C249.424 22.3533 249.677 22.46 249.944 22.46C250.224 22.46 250.497 22.32 250.764 22.04C251.044 21.7467 251.317 21.3067 251.584 20.72C251.851 20.1333 252.117 19.3933 252.384 18.5C252.691 17.54 252.951 16.5133 253.164 15.42C253.377 14.3267 253.531 13.26 253.624 12.22L256.344 12.3ZM273.264 17.9L275.084 16.6C275.524 16.9867 275.991 17.4133 276.484 17.88C276.991 18.3467 277.491 18.8267 277.984 19.32C278.477 19.8 278.937 20.2667 279.364 20.72C279.791 21.1733 280.151 21.5867 280.444 21.96L278.464 23.52C278.197 23.1467 277.857 22.7267 277.444 22.26C277.044 21.7933 276.604 21.3067 276.124 20.8C275.657 20.28 275.171 19.78 274.664 19.3C274.171 18.8067 273.704 18.34 273.264 17.9ZM273.304 9H275.784V13.8C275.784 14.4667 275.737 15.16 275.644 15.88C275.564 16.5867 275.411 17.3067 275.184 18.04C274.971 18.76 274.657 19.4733 274.244 20.18C273.844 20.8733 273.324 21.54 272.684 22.18C272.057 22.8067 271.291 23.3933 270.384 23.94C270.264 23.7667 270.104 23.5667 269.904 23.34C269.704 23.1133 269.491 22.8933 269.264 22.68C269.051 22.4533 268.844 22.2667 268.644 22.12C269.511 21.68 270.231 21.1933 270.804 20.66C271.377 20.1267 271.831 19.5733 272.164 19C272.497 18.4133 272.744 17.82 272.904 17.22C273.064 16.62 273.171 16.0333 273.224 15.46C273.277 14.8733 273.304 14.32 273.304 13.8V9ZM266.304 12.34H281.484V14.68H268.704V27.84H266.304V12.34ZM280.444 12.34H282.824V25.06C282.824 25.7 282.744 26.2 282.584 26.56C282.424 26.9333 282.131 27.2133 281.704 27.4C281.291 27.5867 280.764 27.7 280.124 27.74C279.484 27.7933 278.717 27.82 277.824 27.82C277.797 27.5933 277.737 27.3333 277.644 27.04C277.564 26.7467 277.471 26.46 277.364 26.18C277.257 25.9 277.144 25.6533 277.024 25.44C277.424 25.4533 277.824 25.4667 278.224 25.48C278.624 25.48 278.977 25.48 279.284 25.48C279.604 25.48 279.824 25.48 279.944 25.48C280.131 25.4667 280.257 25.4333 280.324 25.38C280.404 25.3133 280.444 25.1933 280.444 25.02V12.34ZM296.164 10.16H302.004V12.4H298.504V27.8H296.164V10.16ZM285.644 10.94H295.304V13.02H285.644V10.94ZM285.204 16.52H295.564V18.7H285.204V16.52ZM289.304 9.16H291.644V12.24H289.304V9.16ZM286.784 13.56L288.764 13.16C288.964 13.6 289.137 14.0933 289.284 14.64C289.431 15.1867 289.531 15.6667 289.584 16.08L287.484 16.56C287.471 16.16 287.397 15.68 287.264 15.12C287.131 14.5467 286.971 14.0267 286.784 13.56ZM292.164 13.08L294.404 13.56C294.191 14.1067 293.977 14.6533 293.764 15.2C293.564 15.7333 293.377 16.1933 293.204 16.58L291.324 16.1C291.431 15.82 291.537 15.5067 291.644 15.16C291.751 14.8 291.844 14.44 291.924 14.08C292.017 13.7067 292.097 13.3733 292.164 13.08ZM287.184 24.74H293.364V26.82H287.184V24.74ZM286.364 20.02H294.664V27.74H292.324V22.1H288.584V27.82H286.364V20.02ZM301.384 10.16H301.844L302.204 10.06L303.964 11.16C303.604 12.1333 303.211 13.16 302.784 14.24C302.371 15.3067 301.971 16.2667 301.584 17.12C302.144 17.72 302.564 18.3 302.844 18.86C303.137 19.4067 303.331 19.9267 303.424 20.42C303.531 20.9133 303.584 21.38 303.584 21.82C303.584 22.5667 303.497 23.1867 303.324 23.68C303.151 24.1733 302.871 24.5533 302.484 24.82C302.111 25.0867 301.651 25.2533 301.104 25.32C300.877 25.3467 300.624 25.3667 300.344 25.38C300.077 25.38 299.804 25.38 299.524 25.38C299.511 25.0467 299.451 24.6533 299.344 24.2C299.251 23.7467 299.111 23.3533 298.924 23.02C299.151 23.0467 299.357 23.0667 299.544 23.08C299.731 23.08 299.904 23.0733 300.064 23.06C300.197 23.0467 300.324 23.0267 300.444 23C300.577 22.9733 300.691 22.9267 300.784 22.86C300.957 22.7533 301.077 22.5933 301.144 22.38C301.224 22.1533 301.264 21.8667 301.264 21.52C301.264 20.96 301.124 20.3333 300.844 19.64C300.577 18.9333 300.037 18.1933 299.224 17.42C299.424 16.94 299.624 16.4067 299.824 15.82C300.037 15.22 300.237 14.62 300.424 14.02C300.624 13.4067 300.804 12.8333 300.964 12.3C301.137 11.7667 301.277 11.3267 301.384 10.98V10.16ZM312.344 13.72C312.917 13.7733 313.491 13.82 314.064 13.86C314.651 13.8867 315.244 13.9 315.844 13.9C317.071 13.9 318.291 13.8467 319.504 13.74C320.717 13.6333 321.837 13.4667 322.864 13.24V15.74C321.824 15.8867 320.697 16.0067 319.484 16.1C318.271 16.18 317.057 16.22 315.844 16.22C315.257 16.22 314.671 16.2133 314.084 16.2C313.511 16.1733 312.931 16.14 312.344 16.1V13.72ZM319.944 10.34C319.917 10.5267 319.891 10.7333 319.864 10.96C319.851 11.1867 319.837 11.4133 319.824 11.64C319.811 11.8533 319.797 12.14 319.784 12.5C319.771 12.86 319.764 13.2667 319.764 13.72C319.764 14.16 319.764 14.6267 319.764 15.12C319.764 16.0267 319.777 16.88 319.804 17.68C319.831 18.4667 319.864 19.2 319.904 19.88C319.944 20.5467 319.977 21.16 320.004 21.72C320.044 22.28 320.064 22.8 320.064 23.28C320.064 23.8 319.991 24.28 319.844 24.72C319.711 25.16 319.491 25.5467 319.184 25.88C318.877 26.2133 318.471 26.4667 317.964 26.64C317.471 26.8267 316.864 26.92 316.144 26.92C314.757 26.92 313.664 26.64 312.864 26.08C312.064 25.52 311.664 24.7133 311.664 23.66C311.664 22.98 311.844 22.3867 312.204 21.88C312.564 21.36 313.077 20.96 313.744 20.68C314.411 20.3867 315.197 20.24 316.104 20.24C317.051 20.24 317.911 20.34 318.684 20.54C319.457 20.74 320.164 21.0067 320.804 21.34C321.444 21.6733 322.011 22.04 322.504 22.44C323.011 22.8267 323.464 23.2 323.864 23.56L322.484 25.66C321.724 24.94 320.984 24.32 320.264 23.8C319.544 23.28 318.824 22.88 318.104 22.6C317.397 22.32 316.664 22.18 315.904 22.18C315.344 22.18 314.884 22.2867 314.524 22.5C314.177 22.7133 314.004 23.0133 314.004 23.4C314.004 23.8 314.184 24.0933 314.544 24.28C314.904 24.4667 315.344 24.56 315.864 24.56C316.277 24.56 316.604 24.4933 316.844 24.36C317.084 24.2133 317.251 24.0067 317.344 23.74C317.451 23.46 317.504 23.1267 317.504 22.74C317.504 22.3933 317.491 21.94 317.464 21.38C317.437 20.82 317.404 20.1933 317.364 19.5C317.337 18.8067 317.311 18.0867 317.284 17.34C317.257 16.58 317.244 15.84 317.244 15.12C317.244 14.36 317.237 13.6733 317.224 13.06C317.224 12.4333 317.224 11.9667 317.224 11.66C317.224 11.5133 317.211 11.3067 317.184 11.04C317.157 10.7733 317.124 10.54 317.084 10.34H319.944ZM310.184 10.56C310.144 10.6933 310.084 10.88 310.004 11.12C309.937 11.36 309.877 11.5933 309.824 11.82C309.784 12.0467 309.751 12.22 309.724 12.34C309.657 12.62 309.584 13 309.504 13.48C309.424 13.9467 309.337 14.48 309.244 15.08C309.164 15.6667 309.084 16.2733 309.004 16.9C308.924 17.5133 308.864 18.1 308.824 18.66C308.784 19.2067 308.764 19.68 308.764 20.08C308.764 20.28 308.764 20.5 308.764 20.74C308.777 20.9667 308.804 21.18 308.844 21.38C308.937 21.14 309.031 20.9067 309.124 20.68C309.231 20.4533 309.337 20.2267 309.444 20C309.551 19.7733 309.651 19.5467 309.744 19.32L310.964 20.32C310.777 20.8667 310.584 21.44 310.384 22.04C310.197 22.64 310.024 23.2067 309.864 23.74C309.717 24.2733 309.604 24.72 309.524 25.08C309.497 25.2133 309.471 25.3733 309.444 25.56C309.431 25.7467 309.424 25.9 309.424 26.02C309.424 26.1267 309.424 26.2533 309.424 26.4C309.437 26.56 309.451 26.7067 309.464 26.84L307.204 27.02C306.991 26.3133 306.804 25.4133 306.644 24.32C306.484 23.2133 306.404 21.98 306.404 20.62C306.404 19.8733 306.437 19.0933 306.504 18.28C306.571 17.4533 306.644 16.66 306.724 15.9C306.817 15.14 306.911 14.4467 307.004 13.82C307.097 13.18 307.171 12.6667 307.224 12.28C307.264 12 307.304 11.6867 307.344 11.34C307.384 10.98 307.411 10.64 307.424 10.32L310.184 10.56ZM106.538 49.28C106.311 49.0267 106.025 48.7333 105.678 48.4C105.331 48.0533 104.978 47.72 104.618 47.4C104.258 47.0667 103.945 46.8067 103.678 46.62L105.518 45.34C105.771 45.5133 106.078 45.76 106.438 46.08C106.798 46.3867 107.158 46.7067 107.518 47.04C107.891 47.36 108.191 47.6467 108.418 47.9L106.538 49.28ZM101.098 47.14C101.165 47.26 101.245 47.42 101.338 47.62C101.431 47.82 101.531 48.02 101.638 48.22C101.745 48.4067 101.831 48.5667 101.898 48.7C102.311 49.4733 102.731 50.3267 103.158 51.26C103.585 52.18 103.978 53.06 104.338 53.9C104.565 54.4467 104.825 55.1 105.118 55.86C105.425 56.62 105.725 57.4133 106.018 58.24C106.311 59.0667 106.585 59.86 106.838 60.62C107.105 61.38 107.318 62.04 107.478 62.6L104.738 63.32C104.538 62.48 104.291 61.5667 103.998 60.58C103.705 59.5933 103.391 58.62 103.058 57.66C102.725 56.6867 102.391 55.8 102.058 55C101.791 54.3733 101.525 53.76 101.258 53.16C101.005 52.56 100.745 51.9867 100.478 51.44C100.225 50.88 99.9581 50.3667 99.6781 49.9C99.5447 49.6467 99.3647 49.3533 99.1381 49.02C98.9247 48.6867 98.7114 48.3933 98.4981 48.14L101.098 47.14ZM96.7781 53C97.1781 52.9067 97.5647 52.7933 97.9381 52.66C98.3247 52.5267 98.5981 52.4267 98.7581 52.36C99.4914 52.0667 100.231 51.7533 100.978 51.42C101.738 51.0867 102.498 50.7533 103.258 50.42C104.031 50.0733 104.785 49.7667 105.518 49.5C106.265 49.22 106.991 49 107.698 48.84C108.418 48.6667 109.091 48.58 109.718 48.58C110.758 48.58 111.645 48.7667 112.378 49.14C113.125 49.5133 113.691 50.02 114.078 50.66C114.478 51.3 114.678 52.0067 114.678 52.78C114.678 53.7133 114.478 54.5267 114.078 55.22C113.678 55.9 113.105 56.4267 112.358 56.8C111.611 57.1733 110.725 57.36 109.698 57.36C109.165 57.36 108.611 57.3 108.038 57.18C107.478 57.06 107.005 56.9333 106.618 56.8L106.678 54.28C107.131 54.48 107.598 54.6467 108.078 54.78C108.558 54.9 109.018 54.96 109.458 54.96C109.951 54.96 110.391 54.8733 110.778 54.7C111.178 54.5133 111.491 54.2533 111.718 53.92C111.945 53.5867 112.058 53.18 112.058 52.7C112.058 52.3667 111.958 52.06 111.758 51.78C111.571 51.5 111.298 51.28 110.938 51.12C110.591 50.9467 110.165 50.86 109.658 50.86C109.005 50.86 108.265 50.9867 107.438 51.24C106.625 51.48 105.765 51.7933 104.858 52.18C103.951 52.5667 103.065 52.98 102.198 53.42C101.331 53.8467 100.531 54.2533 99.7981 54.64C99.0647 55.0133 98.4514 55.3133 97.9581 55.54L96.7781 53ZM183.838 48.3C183.705 49.3133 183.531 50.3933 183.318 51.54C183.105 52.6867 182.818 53.8467 182.458 55.02C182.071 56.3667 181.618 57.5267 181.098 58.5C180.578 59.4733 180.005 60.2267 179.378 60.76C178.765 61.28 178.091 61.54 177.358 61.54C176.625 61.54 175.945 61.2933 175.318 60.8C174.705 60.2933 174.211 59.6 173.838 58.72C173.478 57.84 173.298 56.84 173.298 55.72C173.298 54.56 173.531 53.4667 173.998 52.44C174.465 51.4133 175.111 50.5067 175.938 49.72C176.778 48.92 177.751 48.2933 178.858 47.84C179.978 47.3867 181.185 47.16 182.478 47.16C183.718 47.16 184.831 47.36 185.818 47.76C186.818 48.16 187.671 48.7133 188.378 49.42C189.085 50.1267 189.625 50.9533 189.998 51.9C190.371 52.8467 190.558 53.8667 190.558 54.96C190.558 56.36 190.271 57.6133 189.698 58.72C189.125 59.8267 188.271 60.74 187.138 61.46C186.018 62.18 184.618 62.6733 182.938 62.94L181.438 60.56C181.825 60.52 182.165 60.4733 182.458 60.42C182.751 60.3667 183.031 60.3067 183.298 60.24C183.938 60.08 184.531 59.8533 185.078 59.56C185.638 59.2533 186.125 58.88 186.538 58.44C186.951 57.9867 187.271 57.46 187.498 56.86C187.738 56.26 187.858 55.6 187.858 54.88C187.858 54.0933 187.738 53.3733 187.498 52.72C187.258 52.0667 186.905 51.5 186.438 51.02C185.971 50.5267 185.405 50.1533 184.738 49.9C184.071 49.6333 183.305 49.5 182.438 49.5C181.371 49.5 180.431 49.6933 179.618 50.08C178.805 50.4533 178.118 50.94 177.558 51.54C176.998 52.14 176.571 52.7867 176.278 53.48C175.998 54.1733 175.858 54.8333 175.858 55.46C175.858 56.1267 175.938 56.6867 176.098 57.14C176.258 57.58 176.451 57.9133 176.678 58.14C176.918 58.3533 177.171 58.46 177.438 58.46C177.718 58.46 177.991 58.32 178.258 58.04C178.538 57.7467 178.811 57.3067 179.078 56.72C179.345 56.1333 179.611 55.3933 179.878 54.5C180.185 53.54 180.445 52.5133 180.658 51.42C180.871 50.3267 181.025 49.26 181.118 48.22L183.838 48.3ZM201.858 50.74V51.92H207.258V50.74H201.858ZM201.858 47.76V48.92H207.258V47.76H201.858ZM199.598 45.82H209.618V53.86H199.598V45.82ZM198.958 55.06H210.298V62.22H208.038V57.08H206.898V62.22H205.118V57.08H203.998V62.22H202.218V57.08H201.098V62.22H198.958V55.06ZM197.438 61.14H211.458V63.22H197.438V61.14ZM193.818 46.96L195.118 45.24C195.518 45.4 195.958 45.6 196.438 45.84C196.918 46.0667 197.371 46.3067 197.798 46.56C198.238 46.8 198.598 47.0333 198.878 47.26L197.498 49.18C197.245 48.9533 196.905 48.7067 196.478 48.44C196.065 48.16 195.625 47.8933 195.158 47.64C194.691 47.3867 194.245 47.16 193.818 46.96ZM192.578 52.4L193.798 50.68C194.211 50.8267 194.658 51.02 195.138 51.26C195.631 51.4867 196.098 51.72 196.538 51.96C196.978 52.2 197.338 52.4267 197.618 52.64L196.318 54.58C196.051 54.3533 195.705 54.1133 195.278 53.86C194.851 53.5933 194.398 53.3333 193.918 53.08C193.451 52.8133 193.005 52.5867 192.578 52.4ZM192.958 61.94C193.278 61.4333 193.631 60.8333 194.018 60.14C194.418 59.4467 194.818 58.7133 195.218 57.94C195.618 57.1667 195.991 56.3933 196.338 55.62L198.138 57.06C197.831 57.7533 197.505 58.4667 197.158 59.2C196.811 59.92 196.451 60.6333 196.078 61.34C195.718 62.0467 195.365 62.7267 195.018 63.38L192.958 61.94ZM217.378 52.54H231.118V54.8H217.378V52.54ZM222.718 50.1H225.118V63.8H222.718V50.1ZM222.238 53.94L224.278 54.62C223.811 55.7 223.251 56.74 222.598 57.74C221.958 58.7267 221.245 59.6267 220.458 60.44C219.685 61.2533 218.865 61.9467 217.998 62.52C217.878 62.32 217.711 62.1 217.498 61.86C217.298 61.62 217.091 61.3867 216.878 61.16C216.665 60.92 216.465 60.72 216.278 60.56C217.091 60.1067 217.878 59.5267 218.638 58.82C219.398 58.1133 220.085 57.34 220.698 56.5C221.325 55.66 221.838 54.8067 222.238 53.94ZM225.378 53.92C225.698 54.5333 226.091 55.1533 226.558 55.78C227.025 56.3933 227.531 56.9867 228.078 57.56C228.638 58.12 229.225 58.6333 229.838 59.1C230.451 59.5667 231.071 59.9733 231.698 60.32C231.511 60.4667 231.305 60.6667 231.078 60.92C230.851 61.16 230.631 61.4067 230.418 61.66C230.218 61.9 230.051 62.1333 229.918 62.36C229.291 61.9333 228.671 61.44 228.058 60.88C227.445 60.3067 226.858 59.6867 226.298 59.02C225.738 58.34 225.211 57.6333 224.718 56.9C224.238 56.1533 223.811 55.4 223.438 54.64L225.378 53.92ZM221.398 45H223.898V48.66H221.398V45ZM215.398 47.36H231.218V49.64H215.398V47.36ZM214.238 47.36H216.638V52.4C216.638 53.2133 216.605 54.1133 216.538 55.1C216.485 56.0733 216.385 57.08 216.238 58.12C216.091 59.1467 215.878 60.1467 215.598 61.12C215.331 62.0933 214.971 62.9733 214.518 63.76C214.371 63.6267 214.165 63.4667 213.898 63.28C213.645 63.1067 213.385 62.9333 213.118 62.76C212.851 62.6 212.625 62.48 212.438 62.4C212.851 61.68 213.178 60.8933 213.418 60.04C213.658 59.1867 213.831 58.3133 213.938 57.42C214.058 56.5267 214.138 55.6533 214.178 54.8C214.218 53.9333 214.238 53.1333 214.238 52.4V47.36ZM233.398 48.28C233.798 48.2667 234.178 48.2533 234.538 48.24C234.898 48.2133 235.171 48.1933 235.358 48.18C235.771 48.1533 236.278 48.1133 236.878 48.06C237.491 47.9933 238.171 47.9267 238.918 47.86C239.678 47.7933 240.485 47.7267 241.338 47.66C242.191 47.5933 243.078 47.52 243.998 47.44C244.691 47.3733 245.378 47.32 246.058 47.28C246.751 47.2267 247.405 47.1867 248.018 47.16C248.645 47.12 249.191 47.0933 249.658 47.08L249.678 49.64C249.318 49.64 248.905 49.6467 248.438 49.66C247.971 49.6733 247.505 49.7 247.038 49.74C246.585 49.7667 246.178 49.8267 245.818 49.92C245.218 50.08 244.658 50.3533 244.138 50.74C243.618 51.1133 243.165 51.56 242.778 52.08C242.405 52.5867 242.111 53.14 241.898 53.74C241.685 54.3267 241.578 54.92 241.578 55.52C241.578 56.1733 241.691 56.7533 241.918 57.26C242.158 57.7533 242.478 58.18 242.878 58.54C243.291 58.8867 243.771 59.18 244.318 59.42C244.865 59.6467 245.451 59.82 246.078 59.94C246.718 60.06 247.378 60.14 248.058 60.18L247.118 62.92C246.278 62.8667 245.458 62.7333 244.658 62.52C243.871 62.3067 243.131 62.0133 242.438 61.64C241.745 61.2667 241.138 60.8133 240.618 60.28C240.111 59.7333 239.705 59.1133 239.398 58.42C239.105 57.7133 238.958 56.9267 238.958 56.06C238.958 55.1 239.111 54.22 239.418 53.42C239.725 52.6067 240.105 51.9 240.558 51.3C241.025 50.6867 241.485 50.2133 241.938 49.88C241.565 49.9333 241.111 49.9867 240.578 50.04C240.058 50.0933 239.491 50.16 238.878 50.24C238.278 50.3067 237.665 50.38 237.038 50.46C236.411 50.54 235.805 50.6333 235.218 50.74C234.645 50.8333 234.125 50.9267 233.658 51.02L233.398 48.28ZM246.818 51.6C246.991 51.84 247.171 52.1267 247.358 52.46C247.558 52.78 247.751 53.1067 247.938 53.44C248.125 53.76 248.285 54.0533 248.418 54.32L246.898 55C246.645 54.44 246.398 53.9467 246.158 53.52C245.931 53.0933 245.658 52.66 245.338 52.22L246.818 51.6ZM249.058 50.68C249.231 50.92 249.418 51.2 249.618 51.52C249.831 51.8267 250.038 52.1467 250.238 52.48C250.438 52.8 250.605 53.0867 250.738 53.34L249.238 54.06C248.971 53.5267 248.711 53.0533 248.458 52.64C248.218 52.2267 247.931 51.8 247.598 51.36L249.058 50.68ZM265.078 45.88C265.065 45.9867 265.045 46.16 265.018 46.4C265.005 46.6267 264.991 46.86 264.978 47.1C264.965 47.3267 264.951 47.4933 264.938 47.6C264.925 47.8667 264.918 48.2267 264.918 48.68C264.918 49.12 264.918 49.6133 264.918 50.16C264.918 50.7067 264.918 51.26 264.918 51.82C264.931 52.3667 264.938 52.8867 264.938 53.38C264.951 53.86 264.958 54.26 264.958 54.58L262.458 53.74C262.458 53.4867 262.458 53.1533 262.458 52.74C262.458 52.3133 262.458 51.8533 262.458 51.36C262.458 50.8533 262.451 50.3533 262.438 49.86C262.438 49.3667 262.431 48.92 262.418 48.52C262.405 48.12 262.391 47.82 262.378 47.62C262.351 47.2067 262.318 46.8467 262.278 46.54C262.238 46.22 262.205 46 262.178 45.88H265.078ZM253.778 48.36C254.365 48.36 255.031 48.3533 255.778 48.34C256.525 48.3267 257.305 48.3133 258.118 48.3C258.931 48.2867 259.731 48.2733 260.518 48.26C261.305 48.2467 262.045 48.24 262.738 48.24C263.431 48.2267 264.031 48.22 264.538 48.22C265.045 48.22 265.598 48.22 266.198 48.22C266.798 48.2067 267.391 48.2 267.978 48.2C268.565 48.2 269.098 48.2 269.578 48.2C270.071 48.2 270.451 48.2 270.718 48.2L270.698 50.56C270.071 50.5333 269.245 50.5133 268.218 50.5C267.191 50.4733 265.938 50.46 264.458 50.46C263.551 50.46 262.631 50.4733 261.698 50.5C260.765 50.5133 259.838 50.5333 258.918 50.56C257.998 50.5867 257.111 50.62 256.258 50.66C255.405 50.6867 254.598 50.7267 253.838 50.78L253.778 48.36ZM264.598 54.28C264.598 55.3733 264.465 56.28 264.198 57C263.945 57.72 263.558 58.2667 263.038 58.64C262.518 59 261.871 59.18 261.098 59.18C260.725 59.18 260.331 59.1 259.918 58.94C259.518 58.78 259.145 58.5467 258.798 58.24C258.451 57.9333 258.171 57.5533 257.958 57.1C257.758 56.6467 257.658 56.1133 257.658 55.5C257.658 54.74 257.838 54.0867 258.198 53.54C258.558 52.98 259.038 52.5467 259.638 52.24C260.251 51.92 260.925 51.76 261.658 51.76C262.538 51.76 263.271 51.96 263.858 52.36C264.458 52.7467 264.905 53.2733 265.198 53.94C265.505 54.6067 265.658 55.36 265.658 56.2C265.658 56.8533 265.551 57.5333 265.338 58.24C265.125 58.9467 264.771 59.64 264.278 60.32C263.798 60.9867 263.145 61.5933 262.318 62.14C261.505 62.6867 260.485 63.1333 259.258 63.48L257.118 61.36C257.971 61.1867 258.765 60.96 259.498 60.68C260.231 60.4 260.871 60.0467 261.418 59.62C261.978 59.1933 262.411 58.6667 262.718 58.04C263.038 57.4133 263.198 56.66 263.198 55.78C263.198 55.14 263.038 54.66 262.718 54.34C262.411 54.02 262.038 53.86 261.598 53.86C261.345 53.86 261.098 53.92 260.858 54.04C260.618 54.16 260.425 54.34 260.278 54.58C260.131 54.82 260.058 55.1133 260.058 55.46C260.058 55.9133 260.211 56.28 260.518 56.56C260.838 56.8267 261.198 56.96 261.598 56.96C261.918 56.96 262.198 56.86 262.438 56.66C262.691 56.46 262.858 56.1267 262.938 55.66C263.018 55.1933 262.951 54.5667 262.738 53.78L264.598 54.28ZM273.886 57.04C274.499 57.04 275.046 57.1867 275.526 57.48C276.006 57.7733 276.393 58.1667 276.686 58.66C276.979 59.14 277.126 59.68 277.126 60.28C277.126 60.8667 276.979 61.4067 276.686 61.9C276.393 62.3933 276.006 62.7867 275.526 63.08C275.046 63.3733 274.499 63.52 273.886 63.52C273.299 63.52 272.759 63.3733 272.266 63.08C271.773 62.7867 271.379 62.3933 271.086 61.9C270.806 61.4067 270.666 60.8667 270.666 60.28C270.666 59.68 270.806 59.14 271.086 58.66C271.379 58.1667 271.773 57.7733 272.266 57.48C272.759 57.1867 273.299 57.04 273.886 57.04ZM273.906 62.08C274.399 62.08 274.819 61.9067 275.166 61.56C275.513 61.2 275.686 60.7733 275.686 60.28C275.686 59.9467 275.606 59.6467 275.446 59.38C275.286 59.1 275.066 58.88 274.786 58.72C274.519 58.56 274.226 58.48 273.906 58.48C273.573 58.48 273.273 58.56 273.006 58.72C272.739 58.88 272.519 59.1 272.346 59.38C272.186 59.6467 272.106 59.9467 272.106 60.28C272.106 60.6133 272.186 60.92 272.346 61.2C272.519 61.4667 272.739 61.68 273.006 61.84C273.273 62 273.573 62.08 273.906 62.08Z" fill="white"/>
<path d="M54.9141 39.544C54.8767 39.8613 54.8394 40.272 54.8021 40.776C54.7834 41.28 54.7647 41.7 54.7461 42.036C54.6714 44.8173 54.4381 47.2907 54.0461 49.456C53.6541 51.6027 53.0941 53.5067 52.3661 55.168C51.6381 56.8293 50.7141 58.3227 49.5941 59.648C48.4741 60.9547 47.1394 62.1587 45.5901 63.26L42.3421 60.628C42.9207 60.292 43.5367 59.9 44.1901 59.452C44.8621 58.9853 45.4687 58.4627 46.0101 57.884C46.9247 56.988 47.6994 56.008 48.3341 54.944C48.9687 53.8613 49.4727 52.6853 49.8461 51.416C50.2381 50.128 50.5274 48.7187 50.7141 47.188C50.9007 45.6573 50.9941 43.968 50.9941 42.12C50.9941 41.9147 50.9847 41.6533 50.9661 41.336C50.9474 41 50.9194 40.6733 50.8821 40.356C50.8634 40.0387 50.8354 39.768 50.7981 39.544H54.9141ZM64.4341 45.536C64.3967 45.76 64.3501 46.0213 64.2941 46.32C64.2567 46.6187 64.2381 46.852 64.2381 47.02C64.2194 47.6173 64.1821 48.3827 64.1261 49.316C64.0887 50.2493 64.0234 51.2573 63.9301 52.34C63.8554 53.404 63.7527 54.468 63.6221 55.532C63.5101 56.596 63.3701 57.5853 63.2021 58.5C63.0341 59.396 62.8287 60.1333 62.5861 60.712C62.2874 61.4213 61.8487 61.9533 61.2701 62.308C60.7101 62.6813 59.9447 62.868 58.9741 62.868C58.1714 62.868 57.3687 62.84 56.5661 62.784C55.7634 62.7467 55.0167 62.7 54.3261 62.644L53.9061 58.892C54.5967 59.0227 55.2874 59.1253 55.9781 59.2C56.6687 59.256 57.2847 59.284 57.8261 59.284C58.2927 59.284 58.6381 59.2093 58.8621 59.06C59.0861 58.892 59.2727 58.64 59.4221 58.304C59.5714 57.9307 59.7114 57.436 59.8421 56.82C59.9727 56.204 60.0847 55.5133 60.1781 54.748C60.2714 53.9827 60.3461 53.1893 60.4021 52.368C60.4767 51.5467 60.5234 50.7533 60.5421 49.988C60.5794 49.204 60.5981 48.5133 60.5981 47.916H46.9341C46.4674 47.916 45.8887 47.9253 45.1981 47.944C44.5074 47.944 43.8541 47.972 43.2381 48.028V44.36C43.8354 44.416 44.4701 44.4627 45.1421 44.5C45.8141 44.5373 46.4114 44.556 46.9341 44.556H59.8981C60.2527 44.556 60.6074 44.5373 60.9621 44.5C61.3354 44.4627 61.6807 44.416 61.9981 44.36L64.4341 45.536ZM88.6821 39.32C88.9247 39.656 89.1861 40.0573 89.4661 40.524C89.7461 40.9907 90.0074 41.4573 90.2501 41.924C90.5114 42.3907 90.7354 42.8013 90.9221 43.156L88.6541 44.108C88.3741 43.5293 88.0287 42.876 87.6181 42.148C87.2261 41.4013 86.8434 40.7573 86.4701 40.216L88.6821 39.32ZM91.9861 38.06C92.2474 38.4147 92.5181 38.8253 92.7981 39.292C93.0781 39.7587 93.3487 40.2253 93.6101 40.692C93.8901 41.14 94.1047 41.532 94.2541 41.868L92.0421 42.82C91.7434 42.2227 91.3887 41.56 90.9781 40.832C90.5674 40.104 90.1661 39.4787 89.7741 38.956L91.9861 38.06ZM76.6141 40.524C76.5394 40.9533 76.4834 41.448 76.4461 42.008C76.4087 42.568 76.3901 43.044 76.3901 43.436C76.3901 43.716 76.3901 44.2107 76.3901 44.92C76.3901 45.6107 76.3901 46.432 76.3901 47.384C76.3901 48.336 76.3901 49.3347 76.3901 50.38C76.3901 51.4067 76.3901 52.4053 76.3901 53.376C76.3901 54.328 76.3901 55.1773 76.3901 55.924C76.3901 56.6707 76.3901 57.2213 76.3901 57.576C76.3901 58.1733 76.5394 58.584 76.8381 58.808C77.1367 59.032 77.5941 59.2093 78.2101 59.34C78.6394 59.396 79.1341 59.4427 79.6941 59.48C80.2541 59.4987 80.8421 59.508 81.4581 59.508C82.1861 59.508 82.9887 59.4893 83.8661 59.452C84.7621 59.396 85.6581 59.3307 86.5541 59.256C87.4687 59.1813 88.3274 59.0787 89.1301 58.948C89.9327 58.8173 90.6234 58.6773 91.2021 58.528V62.616C90.3247 62.7467 89.3074 62.8493 88.1501 62.924C86.9927 63.0173 85.8074 63.0827 84.5941 63.12C83.3994 63.176 82.2794 63.204 81.2341 63.204C80.3194 63.204 79.4514 63.176 78.6301 63.12C77.8274 63.064 77.1274 62.9893 76.5301 62.896C75.3167 62.6533 74.3741 62.196 73.7021 61.524C73.0301 60.8333 72.6941 59.8907 72.6941 58.696C72.6941 58.1547 72.6941 57.4547 72.6941 56.596C72.6941 55.7187 72.6941 54.7573 72.6941 53.712C72.6941 52.648 72.6941 51.584 72.6941 50.52C72.6941 49.4373 72.6941 48.42 72.6941 47.468C72.6941 46.4973 72.6941 45.6573 72.6941 44.948C72.6941 44.2387 72.6941 43.7347 72.6941 43.436C72.6941 43.2307 72.6847 42.9507 72.6661 42.596C72.6474 42.2413 72.6194 41.8773 72.5821 41.504C72.5634 41.1307 72.5261 40.804 72.4701 40.524H76.6141ZM74.7661 49.12C75.6621 48.9333 76.6141 48.7093 77.6221 48.448C78.6301 48.168 79.6474 47.8693 80.6741 47.552C81.7007 47.2347 82.6714 46.9173 83.5861 46.6C84.5194 46.264 85.3501 45.9373 86.0781 45.62C86.5821 45.4333 87.0767 45.2187 87.5621 44.976C88.0661 44.7333 88.5887 44.444 89.1301 44.108L90.6421 47.664C90.1007 47.8693 89.5314 48.1027 88.9341 48.364C88.3554 48.6067 87.8327 48.812 87.3661 48.98C86.5447 49.2973 85.6021 49.6333 84.5381 49.988C83.4927 50.3427 82.4007 50.6973 81.2621 51.052C80.1234 51.388 78.9941 51.7053 77.8741 52.004C76.7727 52.3027 75.7461 52.564 74.7941 52.788L74.7661 49.12ZM117.53 41.028H126.294V43.912H117.53V41.028ZM117.278 52.452H129.514V55.28H117.278V52.452ZM122.038 49.736H125.09V64.436H122.038V49.736ZM124.81 55.616C125.071 55.7653 125.435 56.008 125.902 56.344C126.369 56.68 126.863 57.044 127.386 57.436C127.909 57.828 128.385 58.192 128.814 58.528C129.262 58.864 129.579 59.116 129.766 59.284L127.946 61.888C127.685 61.552 127.339 61.1787 126.91 60.768C126.499 60.3387 126.061 59.9 125.594 59.452C125.146 59.004 124.698 58.584 124.25 58.192C123.821 57.8 123.447 57.4733 123.13 57.212L124.81 55.616ZM122.234 53.656L124.53 55.056C124.063 56.0267 123.485 57.0347 122.794 58.08C122.122 59.1067 121.385 60.0867 120.582 61.02C119.798 61.9347 119.005 62.7187 118.202 63.372C117.997 62.98 117.726 62.5133 117.39 61.972C117.054 61.4307 116.737 60.992 116.438 60.656C117.166 60.152 117.894 59.5267 118.622 58.78C119.369 58.0147 120.05 57.1933 120.666 56.316C121.301 55.42 121.823 54.5333 122.234 53.656ZM120.638 38.172H123.438V40.888C123.438 41.728 123.382 42.6053 123.27 43.52C123.177 44.416 122.971 45.3307 122.654 46.264C122.337 47.1787 121.861 48.0747 121.226 48.952C120.61 49.8107 119.779 50.6133 118.734 51.36C118.491 51.0427 118.146 50.688 117.698 50.296C117.269 49.8853 116.867 49.5773 116.494 49.372C117.427 48.7373 118.174 48.0653 118.734 47.356C119.294 46.628 119.705 45.8907 119.966 45.144C120.246 44.3973 120.423 43.6507 120.498 42.904C120.591 42.1573 120.638 41.4573 120.638 40.804V38.172ZM131.726 48.252H142.478V51.052H131.726V48.252ZM131.726 53.852H142.506V56.652H131.726V53.852ZM131.866 60.18H143.206V63.232H131.866V60.18ZM132.426 38.088L135.45 38.9C135.077 39.964 134.619 41.0187 134.078 42.064C133.555 43.1093 132.986 44.0893 132.37 45.004C131.773 45.9187 131.157 46.7213 130.522 47.412C130.335 47.2253 130.074 47.02 129.738 46.796C129.421 46.572 129.094 46.348 128.758 46.124C128.422 45.9 128.133 45.732 127.89 45.62C128.842 44.7053 129.71 43.576 130.494 42.232C131.297 40.888 131.941 39.5067 132.426 38.088ZM138.11 38.34L141.414 39.124C141.003 40.0947 140.574 41.0653 140.126 42.036C139.697 42.988 139.286 43.8 138.894 44.472L136.122 43.716C136.365 43.2307 136.607 42.68 136.85 42.064C137.111 41.4293 137.345 40.7853 137.55 40.132C137.774 39.4787 137.961 38.8813 138.11 38.34ZM133.742 42.568H142.898V45.564H133.742V64.464H130.662V43.744L131.782 42.568H133.742ZM136.402 44.024H139.482V61.048H136.402V44.024ZM124.782 41.028H127.526V47.384C127.526 47.8507 127.545 48.112 127.582 48.168C127.601 48.2053 127.629 48.2427 127.666 48.28C127.722 48.2987 127.769 48.308 127.806 48.308C127.862 48.308 127.918 48.308 127.974 48.308C128.049 48.308 128.105 48.308 128.142 48.308C128.235 48.308 128.329 48.2893 128.422 48.252C128.459 48.2147 128.497 48.168 128.534 48.112C128.571 48.056 128.599 47.9907 128.618 47.916C128.655 47.804 128.674 47.6453 128.674 47.44C128.693 47.2347 128.711 46.992 128.73 46.712C128.954 46.9173 129.243 47.1133 129.598 47.3C129.971 47.468 130.326 47.608 130.662 47.72C130.625 48.0933 130.569 48.4573 130.494 48.812C130.438 49.1667 130.363 49.428 130.27 49.596C130.083 49.9507 129.813 50.212 129.458 50.38C129.309 50.4733 129.113 50.5387 128.87 50.576C128.646 50.6133 128.431 50.632 128.226 50.632C128.039 50.632 127.834 50.632 127.61 50.632C127.405 50.632 127.209 50.632 127.022 50.632C126.723 50.632 126.415 50.5853 126.098 50.492C125.799 50.3987 125.547 50.2493 125.342 50.044C125.137 49.82 124.987 49.5307 124.894 49.176C124.819 48.8213 124.782 48.2333 124.782 47.412V41.028ZM151.102 52.48H164.934V54.888H151.102V52.48ZM156.534 50.044H159.39V60.068H156.534V50.044ZM162.022 48.224L163.982 50.1C162.955 50.38 161.779 50.6133 160.454 50.8C159.147 50.968 157.803 51.0987 156.422 51.192C155.059 51.2853 153.743 51.3507 152.474 51.388C152.418 51.1267 152.325 50.8 152.194 50.408C152.063 49.9973 151.923 49.6707 151.774 49.428C152.689 49.372 153.622 49.316 154.574 49.26C155.526 49.1853 156.459 49.1013 157.374 49.008C158.289 48.896 159.138 48.7747 159.922 48.644C160.725 48.5133 161.425 48.3733 162.022 48.224ZM156.282 53.768L158.41 54.608C157.962 55.3173 157.393 56.0173 156.702 56.708C156.03 57.3987 155.302 58.0333 154.518 58.612C153.753 59.1907 152.987 59.6573 152.222 60.012C152.017 59.6947 151.737 59.3307 151.382 58.92C151.027 58.5093 150.701 58.1733 150.402 57.912C151.13 57.632 151.867 57.2773 152.614 56.848C153.361 56.4 154.051 55.9147 154.686 55.392C155.339 54.8693 155.871 54.328 156.282 53.768ZM145.558 39.74H170.45V42.68H145.558V39.74ZM148.666 60.684H167.398V63.568H148.666V60.684ZM151.69 38.2H155.022V44.416H151.69V38.2ZM160.902 38.2H164.262V44.416H160.902V38.2ZM147.042 45.2H169.134V64.492H165.83V48H150.206V64.492H147.042V45.2ZM159.838 54.02C160.249 54.5053 160.762 55 161.378 55.504C161.994 55.9893 162.657 56.4373 163.366 56.848C164.075 57.2587 164.766 57.604 165.438 57.884C165.139 58.1267 164.803 58.4533 164.43 58.864C164.057 59.2747 163.767 59.648 163.562 59.984C162.871 59.6107 162.162 59.1533 161.434 58.612C160.725 58.052 160.053 57.4547 159.418 56.82C158.783 56.1667 158.242 55.5227 157.794 54.888L159.838 54.02Z" fill="#F3EF78"/>
</g>
<defs>
<filter id="filter0_d_124_1680" x="0" y="2.92" width="329.864" height="67.572" filterUnits="userSpaceOnUse" color-interpolation-filters="sRGB">
<feFlood flood-opacity="0" result="BackgroundImageFix"/>
<feColorMatrix in="SourceAlpha" type="matrix" values="0 0 0 0 0 0 0 0 0 0 0 0 0 0 0 0 0 0 127 0" result="hardAlpha"/>
<feOffset/>
<feGaussianBlur stdDeviation="3"/>
<feComposite in2="hardAlpha" operator="out"/>
<feColorMatrix type="matrix" values="0 0 0 0 0 0 0 0 0 0 0 0 0 0 0 0 0 0 0.6 0"/>
<feBlend mode="normal" in2="BackgroundImageFix" result="effect1_dropShadow_124_1680"/>
<feBlend mode="normal" in="SourceGraphic" in2="effect1_dropShadow_124_1680" result="shape"/>
</filter>
</defs>
</svg>
