<svg preserveAspectRatio="none" width="100%" height="100%" overflow="visible" style="display: block;" viewBox="0 0 50 32" fill="none" xmlns="http://www.w3.org/2000/svg">
<path id="XMLID_4_" d="M45.5223 0H4.47773C4.30679 0 4.13554 0 3.9649 0.000996555C3.82065 0.00202331 3.67675 0.00362383 3.53284 0.00754966C3.21898 0.0160355 2.90243 0.0345472 2.5925 0.0902335C2.27762 0.146886 1.9846 0.239294 1.69875 0.384791C1.41773 0.527661 1.16045 0.71453 0.93749 0.937516C0.714434 1.1605 0.527509 1.41728 0.384627 1.69852C0.239056 1.98429 0.14656 2.27731 0.0902834 2.59234C0.0342814 2.90227 0.0156403 3.21866 0.00718217 3.53209C0.00331559 3.67596 0.00165719 3.81982 0.000717733 3.96366C-0.000279119 4.13461 5.31654e-05 4.30545 5.31654e-05 4.4767V27.5236C5.31654e-05 27.6949 -0.000279119 27.8654 0.000717733 28.0367C0.00165719 28.1805 0.00331559 28.3244 0.00718217 28.4683C0.0156403 28.7814 0.0342814 29.0978 0.0902834 29.4077C0.14656 29.7228 0.239056 30.0157 0.384627 30.3015C0.527509 30.5827 0.714434 30.8399 0.93749 31.0625C1.16045 31.2859 1.41773 31.4727 1.69875 31.6152C1.9846 31.7611 2.27762 31.8535 2.5925 31.9102C2.90243 31.9655 3.21898 31.9843 3.53284 31.9928C3.67675 31.9961 3.82065 31.998 3.9649 31.9987C4.13554 32 4.30679 32 4.47773 32H45.5223C45.693 32 45.8642 32 46.0348 31.9987C46.1787 31.998 46.3226 31.9961 46.4672 31.9928C46.7804 31.9843 47.0969 31.9655 47.4076 31.9102C47.722 31.8535 48.0151 31.7611 48.301 31.6152C48.5823 31.4727 48.8388 31.2859 49.0623 31.0625C49.285 30.8399 49.4719 30.5827 49.6151 30.3015C49.761 30.0157 49.8534 29.7228 49.9094 29.4077C49.9655 29.0978 49.9837 28.7814 49.9921 28.4683C49.9961 28.3244 49.998 28.1805 49.9987 28.0367C50 27.8654 50 27.6949 50 27.5236V4.4767C50 4.30545 50 4.13461 49.9987 3.96366C49.998 3.81982 49.9961 3.67596 49.9921 3.53209C49.9837 3.21866 49.9655 2.90227 49.9094 2.59234C49.8534 2.27731 49.761 1.98429 49.6151 1.69852C49.4719 1.41728 49.285 1.1605 49.0623 0.937516C48.8388 0.71453 48.5823 0.527661 48.301 0.384791C48.0151 0.239294 47.722 0.146886 47.4076 0.0902335C47.0969 0.0345472 46.7804 0.0160355 46.4672 0.00754966C46.3226 0.00362383 46.1787 0.00202331 46.0348 0.000996555C45.8642 0 45.693 0 45.5223 0Z" fill="var(--fill-0, black)"/>
</svg>
