<svg preserveAspectRatio="none" width="100%" height="100%" overflow="visible" style="display: block;" viewBox="0 0 24.2514 14.5486" fill="none" xmlns="http://www.w3.org/2000/svg">
<g id="Group">
<path id="Vector" d="M4.29058 2.87996e-06C6.51113 2.87996e-06 8.05738 1.53019 8.05738 3.75803C8.05738 5.99383 6.47931 7.53196 4.2349 7.53196H1.77632V11.4406H0V0L4.29058 2.87996e-06ZM1.77632 6.04138H3.81452C5.36108 6.04138 6.24128 5.209 6.24128 3.76598C6.24128 2.32312 5.36108 1.49853 3.82248 1.49853H1.77632V6.04138Z" fill="var(--fill-0, black)"/>
<path id="Vector_2" d="M8.52149 9.07011C8.52149 7.61118 9.63973 6.71534 11.6226 6.60431L13.9064 6.46958V5.82744C13.9064 4.89979 13.2799 4.34481 12.2332 4.34481C11.2417 4.34481 10.623 4.82042 10.4725 5.56578H8.85467C8.94982 4.0593 10.2345 2.94935 12.2966 2.94935C14.3189 2.94935 15.6115 4.01969 15.6115 5.69256V11.4406H13.9698V10.069H13.9303C13.4466 10.9967 12.3917 11.5833 11.2973 11.5833C9.66359 11.5833 8.52149 10.5685 8.52149 9.07011ZM13.9064 8.31694V7.6589L11.8523 7.78568C10.8292 7.85709 10.2504 8.30899 10.2504 9.02255C10.2504 9.75186 10.8531 10.2276 11.7731 10.2276C12.9706 10.2276 13.9064 9.40303 13.9064 8.31694Z" fill="var(--fill-0, black)"/>
<path id="Vector_3" d="M17.1614 14.509V13.1215C17.2881 13.1531 17.5735 13.1531 17.7164 13.1531C18.5094 13.1531 18.9377 12.8202 19.1993 11.9639C19.1993 11.948 19.3501 11.4565 19.3501 11.4486L16.3366 3.09999H18.1921L20.3019 9.88674H20.3334L22.4432 3.09999H24.2514L21.1264 11.8766C20.413 13.8985 19.5881 14.5486 17.8593 14.5486C17.7164 14.5486 17.2881 14.5327 17.1614 14.509Z" fill="var(--fill-0, black)"/>
</g>
</svg>
