<svg preserveAspectRatio="none" width="100%" height="100%" overflow="visible" style="display: block;" viewBox="0 0 47.8661 29.8668" fill="none" xmlns="http://www.w3.org/2000/svg">
<path id="XMLID_3_" d="M44.4554 0L44.9603 0.000966372C45.0971 0.00193273 45.2338 0.00341244 45.3714 0.00715707C45.6106 0.0136196 45.8905 0.0265748 46.1514 0.0733223C46.3781 0.114151 46.5683 0.176239 46.7508 0.26913C46.931 0.360662 47.0961 0.480611 47.2403 0.624507C47.385 0.76937 47.5051 0.934677 47.5979 1.11681C47.6903 1.29785 47.752 1.48707 47.7926 1.71543C47.8392 1.97339 47.8521 2.25393 47.8587 2.49459C47.8624 2.63042 47.8642 2.76625 47.8648 2.90532C47.8661 3.0735 47.8661 3.24158 47.8661 3.41009V26.457C47.8661 26.6255 47.8661 26.7933 47.8648 26.9651C47.8642 27.1009 47.8624 27.2367 47.8586 27.3728C47.8521 27.6131 47.8392 27.8935 47.792 28.1545C47.752 28.3797 47.6903 28.569 47.5974 28.7509C47.5049 28.9326 47.3849 29.0977 47.2409 29.2417C47.0959 29.3866 46.9314 29.5062 46.749 29.5986C46.5679 29.691 46.378 29.753 46.1535 29.7934C45.8873 29.8409 45.5957 29.8539 45.3761 29.8599C45.238 29.863 45.1004 29.8648 44.9596 29.8655C44.7917 29.8668 44.6233 29.8668 44.4554 29.8668H3.41077C3.40854 29.8668 3.40636 29.8668 3.4041 29.8668C3.23814 29.8668 3.07184 29.8668 2.90286 29.8655C2.76509 29.8648 2.62761 29.863 2.4947 29.86C2.27007 29.8539 1.9783 29.8409 1.71431 29.7937C1.48785 29.753 1.29799 29.691 1.11445 29.5974C0.933842 29.5058 0.769419 29.3863 0.624392 29.2411C0.480483 29.0975 0.360891 28.9329 0.268425 28.7509C0.175869 28.5692 0.113943 28.3793 0.0732264 28.1514C0.0261599 27.8909 0.013231 27.6117 0.00676958 27.373C0.00308123 27.2363 0.00154063 27.0997 0.000664606 26.9639L0 26.5629L3.02487e-05 26.457V3.41009L0 3.30421L0.000634358 2.90405C0.00154059 2.7674 0.00308123 2.63078 0.00676958 2.49426C0.013231 2.25535 0.0261598 1.97596 0.073616 1.71329C0.113973 1.48743 0.175869 1.2976 0.268908 1.11493C0.360649 0.934376 0.480452 0.769551 0.62512 0.62496C0.76921 0.480853 0.934171 0.361055 1.11593 0.268647C1.29751 0.176209 1.48773 0.114151 1.71419 0.0734128C1.97513 0.0265446 2.25518 0.0136195 2.49503 0.00712683C2.63175 0.0034124 2.76847 0.0019327 2.90416 0.00099654L3.41077 0H44.4554Z" fill="var(--fill-0, white)"/>
</svg>
