<svg preserveAspectRatio="none" width="100%" height="100%" overflow="visible" style="display: block;" viewBox="0 0 10.0984 12.4086" fill="none" xmlns="http://www.w3.org/2000/svg">
<g id="Group">
<path id="Vector" d="M6.87247 1.9886C7.30059 1.45328 7.5911 0.734503 7.51448 2.75053e-08C6.88778 0.0311529 6.12302 0.413332 5.68025 0.949071C5.2827 1.40785 4.93083 2.15672 5.02256 2.86043C5.72607 2.92144 6.42892 2.5089 6.87247 1.9886Z" fill="var(--fill-0, black)"/>
<path id="Vector_2" d="M7.50649 2.99783C6.48483 2.937 5.61618 3.5775 5.12828 3.5775C4.64012 3.5775 3.893 3.02849 3.08492 3.04329C2.03316 3.05873 1.05725 3.65323 0.523529 4.59876C-0.57425 6.49028 0.233825 9.29606 1.30136 10.8366C1.81977 11.5988 2.44456 12.4379 3.2678 12.4078C4.04563 12.3773 4.35051 11.9043 5.29599 11.9043C6.24078 11.9043 6.51541 12.4078 7.33879 12.3925C8.19265 12.3773 8.72647 11.63 9.24488 10.8671C9.8396 9.9983 10.0831 9.15939 10.0984 9.11334C10.0831 9.09808 8.45188 8.47251 8.43676 6.59671C8.42136 5.02608 9.71741 4.27899 9.77841 4.23266C9.04652 3.15051 7.90295 3.02849 7.50649 2.99783Z" fill="var(--fill-0, black)"/>
</g>
</svg>
