<svg preserveAspectRatio="none" width="100%" height="100%" overflow="visible" style="display: block;" viewBox="0 0 72.758 6.50463" fill="none" xmlns="http://www.w3.org/2000/svg">
<g id="Group" style="mix-blend-mode:screen" opacity="0.2">
<path id="Vector" opacity="0" d="M72.7577 3.06925C72.7997 8.57173 14.8606 6.08828 5.0163 4.92485C1.52283 4.50177 0.000288351 3.99394 0.000267446 3.59184C0.00024654 3.18973 1.51231 2.64998 4.9953 2.18419C14.8186 0.871508 72.7157 -2.42264 72.7473 3.06925L72.7577 3.06925Z" fill="var(--fill-0, #190000)"/>
<path id="Vector_2" opacity="0.02" d="M71.1662 3.06465C71.2082 8.42965 14.656 6.02139 5.03069 4.8793C1.5998 4.46687 0.0772626 3.96964 0.0772442 3.56753C0.0772258 3.16542 1.57886 2.64679 5.00972 2.19151C14.6245 0.910353 71.1347 -2.30036 71.1662 3.06465Z" fill="var(--fill-0, #1F0505)"/>
<path id="Vector_3" opacity="0.05" d="M69.5635 3.05136C69.5951 8.28847 14.4405 5.94156 5.02378 4.83097C1.64503 4.42905 0.143352 3.94242 0.143329 3.55096C0.143307 3.1595 1.6345 2.64103 5.0132 2.19655C14.4193 0.947791 69.5424 -2.17518 69.5739 3.06194L69.5635 3.05136Z" fill="var(--fill-0, #240B0A)"/>
<path id="Vector_4" opacity="0.07" d="M67.9613 3.03156C67.9928 8.1427 14.2249 5.86021 5.01676 4.77081C1.69014 4.37948 0.198882 3.90337 0.198862 3.51184C0.198842 3.1203 1.67962 2.62285 4.99577 2.18879C14.1934 0.971298 67.9297 -2.06899 67.9613 3.03156Z" fill="var(--fill-0, #2A100F)"/>
<path id="Vector_5" opacity="0.1" d="M66.3589 3.0128C66.3904 7.99769 14.0093 5.77934 5.00964 4.7217C1.73516 4.34095 0.264754 3.87539 0.254308 3.4838C0.254291 3.10279 1.72465 2.60524 4.98867 2.18163C13.9778 0.995541 66.3274 -1.96151 66.3589 3.0128Z" fill="var(--fill-0, #2F1614)"/>
<path id="Vector_6" opacity="0.12" d="M64.7586 3.008C64.79 7.85474 13.796 5.6999 5.00501 4.67409C1.78268 4.30395 0.322707 3.84902 0.322691 3.46806C0.322675 3.08709 1.77217 2.60019 4.99447 2.18722C13.775 1.03306 64.7375 -1.83874 64.769 3.008L64.7586 3.008Z" fill="var(--fill-0, #351B19)"/>
<path id="Vector_7" opacity="0.15" d="M63.156 2.99242C63.1875 7.71175 13.5805 5.61987 4.99808 4.62577C1.83833 4.26621 0.37836 3.8113 0.378343 3.44095C0.378326 3.0706 1.81739 2.59433 4.97711 2.19203C13.549 1.06983 63.1245 -1.71634 63.156 2.99242Z" fill="var(--fill-0, #3B201D)"/>
<path id="Vector_8" opacity="0.17" d="M61.5646 2.97233C61.596 7.56592 13.3758 5.53867 5.00184 4.56577C1.89421 4.2168 0.455092 3.77241 0.45508 3.41254C0.455066 3.04209 1.88372 2.57624 4.99132 2.1843C13.3547 1.09326 61.5436 -1.62126 61.575 2.97233L61.5646 2.97233Z" fill="var(--fill-0, #402622)"/>
<path id="Vector_9" opacity="0.2" d="M59.9619 2.97295C59.9934 7.43876 13.1602 5.4735 4.99487 4.53219C1.93939 4.19375 0.510704 3.75997 0.510686 3.40016C0.510669 3.04036 1.92888 2.57463 4.9739 2.20404C13.1287 1.14526 59.9304 -1.48228 59.9515 2.98354L59.9619 2.97295Z" fill="var(--fill-0, #462B27)"/>
<path id="Vector_10" opacity="0.22" d="M58.3596 2.9498C58.391 7.27989 12.9444 5.39047 4.98753 4.47038C1.98416 4.14256 0.576327 3.71925 0.565886 3.3593C0.565874 2.99934 1.97368 2.55451 4.96659 2.18359C12.9129 1.15566 58.3282 -1.39088 58.3492 2.93921L58.3596 2.9498Z" fill="var(--fill-0, #4B312C)"/>
<path id="Vector_11" opacity="0.24" d="M56.7573 2.93816C56.7889 7.13837 12.7298 5.29888 4.98165 4.421C2.03047 4.10369 0.63307 3.69112 0.63305 3.34199C0.633029 2.99285 2.03038 2.54845 4.97109 2.19922C12.7087 1.20446 56.7362 -1.25147 56.7573 2.94874L56.7573 2.93816Z" fill="var(--fill-0, #513631)"/>
<path id="Vector_12" opacity="0.27" d="M55.1553 2.91566C55.1867 6.99106 12.5141 5.21714 4.97445 4.3605C2.0858 4.05383 0.688403 3.65172 0.688389 3.3024C0.688376 2.95308 2.06489 2.52952 4.95351 2.1799C12.4827 1.21585 55.1238 -1.15973 55.1448 2.91567L55.1553 2.91566Z" fill="var(--fill-0, #573C36)"/>
<path id="Vector_13" opacity="0.29" d="M53.5544 2.91536C53.5859 6.86322 12.3004 5.15217 4.96926 4.32724C2.13277 4.03113 0.756221 3.63964 0.745778 3.29037C0.745763 2.95167 2.11184 2.52819 4.94831 2.19984C12.2689 1.26781 53.5125 -1.02191 53.544 2.91536L53.5544 2.91536Z" fill="var(--fill-0, #5C413B)"/>
<path id="Vector_14" opacity="0.32" d="M51.9513 2.89692C51.9723 6.70731 12.0842 5.07033 4.97208 4.26656C2.18773 3.98103 0.821608 3.58954 0.821594 3.26142C0.82158 2.92272 2.17724 2.5098 4.96157 2.19202C12.0736 1.2917 51.9303 -0.913472 51.9617 2.89692L51.9513 2.89692Z" fill="var(--fill-0, #624640)"/>
<path id="Vector_15" opacity="0.34" d="M50.3604 2.87794C50.3814 6.56224 11.88 4.98958 4.97641 4.21758C2.24418 3.94266 0.888489 3.5617 0.888478 3.2335C0.888467 2.9053 2.2337 2.50282 4.95548 2.18487C11.859 1.31586 50.329 -0.806362 50.3604 2.87794Z" fill="var(--fill-0, #684C45)"/>
<path id="Vector_16" opacity="0.37" d="M48.758 2.87823C48.779 6.43501 11.6647 4.92522 4.96967 4.18493C2.28959 3.92058 0.954755 3.55022 0.954742 3.22207C0.95473 2.89391 2.28954 2.5021 4.95916 2.20542C11.6541 1.36844 48.737 -0.667967 48.7684 2.87823L48.758 2.87823Z" fill="var(--fill-0, #6D514A)"/>
<path id="Vector_17" opacity="0.39" d="M47.1565 2.85896C47.1775 6.28889 11.4501 4.83206 4.96363 4.12353C2.34611 3.86976 1.01128 3.50997 1.01127 3.19239C1.01126 2.8748 2.33564 2.49355 4.95313 2.19684C11.4395 1.39154 47.1355 -0.560393 47.1565 2.85896Z" fill="var(--fill-0, #73574E)"/>
<path id="Vector_18" opacity="0.41" d="M45.5538 2.84429C45.5748 6.13524 11.2347 4.75097 4.95688 4.07409C2.39153 3.83086 1.07756 3.48173 1.06712 3.16428C1.0671 2.84682 2.3706 2.47638 4.93593 2.20111C11.2137 1.42828 45.5223 -0.436068 45.5434 2.85487L45.5538 2.84429Z" fill="var(--fill-0, #785C53)"/>
<path id="Vector_19" opacity="0.44" d="M43.9523 2.81861C43.9732 5.98582 11.0298 4.66824 4.94996 4.0127C2.4367 3.78016 1.13314 3.44145 1.13314 3.12367C1.13313 2.81648 2.42626 2.44548 4.93951 2.18017C11.0089 1.43748 43.9314 -0.359187 43.9523 2.80802L43.9523 2.81861Z" fill="var(--fill-0, #7E6158)"/>
<path id="Vector_20" opacity="0.46" d="M42.3506 2.82383C42.3716 5.86168 10.8156 4.60512 4.94449 3.98117C2.48341 3.75913 1.19029 3.42054 1.19028 3.12417C1.19027 2.81721 2.47293 2.46778 4.93399 2.21351C10.7946 1.50376 42.3297 -0.203427 42.3506 2.83442L42.3506 2.82383Z" fill="var(--fill-0, #84675D)"/>
<path id="Vector_21" opacity="0.49" d="M40.7593 2.80133C40.7802 5.7145 10.6106 4.52367 4.94797 3.92102C2.539 3.70965 1.26672 3.38151 1.26671 3.0849C1.26671 2.78829 2.53898 2.43844 4.93752 2.1943C10.5897 1.51516 40.7384 -0.111845 40.7593 2.80133Z" fill="var(--fill-0, #896C62)"/>
<path id="Vector_22" opacity="0.51" d="M39.1575 2.7811C39.1783 5.55717 10.3956 4.44083 4.9415 3.86995C2.59509 3.66919 1.32281 3.35162 1.32281 3.05494C1.32281 2.75826 2.58465 2.4295 4.93107 2.18524C10.3748 1.53762 39.1366 -0.00555667 39.1575 2.77051L39.1575 2.7811Z" fill="var(--fill-0, #8F7267)"/>
<path id="Vector_23" opacity="0.54" d="M37.555 2.78128C37.5759 5.42883 10.1805 4.36375 4.93501 3.82451C2.64076 3.63427 1.38935 3.32736 1.37892 3.04143C1.37891 2.75549 2.63031 2.42699 4.92455 2.20422C10.1596 1.58912 37.5341 0.133742 37.555 2.78128Z" fill="var(--fill-0, #94776C)"/>
<path id="Vector_24" opacity="0.56" d="M35.9534 2.76245C35.9743 5.28395 9.96563 4.28324 4.92866 3.77582C2.68653 3.59621 1.44555 3.29984 1.44554 3.01379C1.44554 2.72773 2.68653 2.40962 4.91822 2.19724C9.94475 1.61342 35.9325 0.24095 35.9534 2.76245Z" fill="var(--fill-0, #9A7D71)"/>
<path id="Vector_25" opacity="0.59" d="M34.351 2.74639C34.3719 5.14025 9.75037 4.20228 4.922 3.71596C2.73202 3.54691 1.50146 3.26115 1.50146 2.98575C1.50146 2.71035 2.72158 2.40294 4.91155 2.20127C9.72948 1.64954 34.3301 0.363131 34.351 2.74639Z" fill="var(--fill-0, #A08276)"/>
<path id="Vector_26" opacity="0.61" d="M32.7491 2.72761C32.7595 4.98429 9.53524 4.12072 4.92585 3.66618C2.79843 3.50773 1.5783 3.22195 1.5783 2.95708C1.57829 2.69222 2.788 2.3847 4.92584 2.19351C9.53523 1.67334 32.749 0.470937 32.7595 2.72761L32.7491 2.72761Z" fill="var(--fill-0, #A5877B)"/>
<path id="Vector_27" opacity="0.63" d="M31.1475 2.72387C31.1579 4.85434 9.32038 4.05499 4.91951 3.62166C2.84422 3.47386 1.6345 3.19862 1.6345 2.93364C1.6345 2.66866 2.83379 2.38213 4.90909 2.20135C9.30996 1.71253 31.137 0.593395 31.1475 2.72387Z" fill="var(--fill-0, #AB8D7F)"/>
<path id="Vector_28" opacity="0.66" d="M29.5554 2.70851C29.5658 4.711 9.11552 3.96345 4.92326 3.57239C2.90013 3.43512 1.70085 3.17051 1.70084 2.91623C1.70084 2.66194 2.88969 2.3756 4.91282 2.20561C9.09465 1.74906 29.5449 0.71662 29.5554 2.70851Z" fill="var(--fill-0, #B09284)"/>
<path id="Vector_29" opacity="0.68" d="M27.9529 2.69379C27.9634 4.56879 8.90015 3.88414 4.91648 3.52478C2.9455 3.39807 1.76708 3.14407 1.76707 2.88983C1.76707 2.6356 2.94548 2.35993 4.90603 2.21122C8.87927 1.78668 27.9425 0.83997 27.9529 2.70438L27.9529 2.69379Z" fill="var(--fill-0, #B69889)"/>
<path id="Vector_30" opacity="0.71" d="M26.3516 2.68569C26.362 4.42479 8.68531 3.81589 4.91012 3.47786C2.99124 3.36188 1.82323 3.11839 1.82323 2.86389C1.82324 2.61999 2.99126 2.35448 4.89972 2.20535C8.6645 1.81169 26.3412 0.946595 26.3516 2.68569Z" fill="var(--fill-0, #BC9D8E)"/>
<path id="Vector_31" opacity="0.73" d="M24.7491 2.66872C24.7491 4.28113 8.46973 3.73594 4.90309 3.42972C3.04677 3.32437 1.88918 3.09145 1.88919 2.84747C1.8892 2.60349 3.03638 2.34845 4.90314 2.20981C8.45937 1.84773 24.7492 1.05632 24.7596 2.66872L24.7491 2.66872Z" fill="var(--fill-0, #C1A293)"/>
<path id="Vector_32" opacity="0.76" d="M23.1474 2.64938C23.1473 4.13569 8.25468 3.65486 4.89656 3.36991C3.09235 3.27528 1.94517 3.0423 1.94519 2.80873C1.9452 2.57517 3.08198 2.3198 4.88621 2.2021C8.23394 1.8713 23.137 1.16307 23.1474 2.64938Z" fill="var(--fill-0, #C7A898)"/>
<path id="Vector_33" opacity="0.78" d="M21.5451 2.63002C21.545 3.99038 8.03913 3.57407 4.88952 3.32106C3.13741 3.23718 2.00065 3.01474 2.00067 2.78093C2.0007 2.54711 3.12708 2.31257 4.87921 2.19452C8.01845 1.8949 21.5348 1.26967 21.5451 2.63002Z" fill="var(--fill-0, #CDAD9D)"/>
<path id="Vector_34" opacity="0.8" d="M19.9535 2.62983C19.9534 3.85126 7.83478 3.49699 4.89379 3.27561C3.19385 3.20223 2.07796 2.99043 2.07798 2.76739C2.078 2.54434 3.19393 2.31005 4.89388 2.2135C7.82448 1.94632 19.9432 1.40841 19.9535 2.62983Z" fill="var(--fill-0, #D2B3A2)"/>
<path id="Vector_35" opacity="0.83" d="M18.3519 2.61027C18.3517 3.70591 7.61981 3.41638 4.88731 3.22703C3.23946 3.16448 2.13396 2.96323 2.13399 2.73984C2.13402 2.51646 3.23958 2.30286 4.87702 2.20585C7.59915 1.96972 18.3312 1.51464 18.3414 2.61028L18.3519 2.61027Z" fill="var(--fill-0, #D8B8A7)"/>
<path id="Vector_36" opacity="0.85" d="M16.751 2.59054C16.7508 3.56073 7.40497 3.33592 4.88079 3.16797C3.29534 3.11632 2.20015 2.92556 2.2002 2.70167C2.20024 2.48844 3.29551 2.27407 4.88099 2.19778C7.39482 1.9926 16.7408 1.62037 16.751 2.59054Z" fill="var(--fill-0, #DDBEAC)"/>
<path id="Vector_37" opacity="0.88" d="M15.1491 2.58981C15.1489 3.43329 7.19008 3.27234 4.87443 3.13641C3.34108 3.09561 2.25631 2.91545 2.25636 2.70191C2.25642 2.48837 3.34129 2.28416 4.87467 2.2182C7.17997 2.04451 15.1389 1.75703 15.1491 2.58981Z" fill="var(--fill-0, #E3C3B0)"/>
<path id="Vector_38" opacity="0.9" d="M13.5473 2.56477C13.547 3.27296 6.97467 3.18903 4.8674 3.07505C3.38602 3.0457 2.31157 2.86535 2.31166 2.66148C2.31175 2.45761 3.37593 2.26243 4.85734 2.1952C6.9543 2.05168 13.5267 1.8459 13.5369 2.55406L13.5473 2.56477Z" fill="var(--fill-0, #E9C8B5)"/>
<path id="Vector_39" opacity="0.93" d="M11.9451 2.55216C11.9448 3.13269 6.75975 3.10101 4.87145 3.02989C3.44217 3.01151 2.38854 2.8418 2.38864 2.64829C2.38874 2.44403 3.44254 2.25896 4.87186 2.21284C6.76025 2.10121 11.9454 1.98237 11.9555 2.56288L11.9451 2.55216Z" fill="var(--fill-0, #EECEBA)"/>
<path id="Vector_40" opacity="0.95" d="M10.3434 2.52533C10.343 2.98261 6.54418 3.01932 4.864 2.9715C3.48642 2.97691 2.44296 2.80682 2.44315 2.61085C2.44333 2.41487 3.48712 2.23657 4.86474 2.1876C6.54505 2.10478 10.3439 2.06806 10.3539 2.51441L10.3434 2.52533Z" fill="var(--fill-0, #F4D3BF)"/>
<path id="Vector_41" opacity="0.98" d="M8.75117 2.51912C8.75065 2.84098 6.33936 2.95695 4.86767 2.94457C3.55251 2.95334 2.50899 2.80492 2.50931 2.60515C2.50963 2.40538 3.54324 2.232 4.85844 2.20103C6.33024 2.14682 8.74125 2.19734 8.75117 2.51912Z" fill="var(--fill-0, #F9D9C4)"/>
<path id="Vector_42" d="M7.15212 2.4954C7.15155 2.69142 6.12686 2.87684 4.86228 2.90376C3.59769 2.93067 2.57394 2.79323 2.57451 2.59721C2.57508 2.40118 3.59977 2.21577 4.86436 2.18885C6.12891 2.17347 7.15269 2.29937 7.15209 2.50693L7.15212 2.4954Z" fill="var(--fill-0, #FFDEC9)"/>
</g>
</svg>
