<svg preserveAspectRatio="none" width="100%" height="100%" overflow="visible" style="display: block;" viewBox="0 0 26.1298 21.8994" fill="none" xmlns="http://www.w3.org/2000/svg">
<g id="Group" style="mix-blend-mode:screen" opacity="0.2">
<path id="Vector" opacity="0.02" d="M0.0820035 0.159438C1.65087 -1.89025 21.5272 16.438 24.6941 19.8355C25.8213 21.0485 26.2288 21.7061 26.11 21.8588C25.9913 22.0114 25.2915 21.7459 23.9081 20.8623C20.0296 18.3881 -1.49058 2.20586 0.0820035 0.159438Z" fill="var(--fill-0, #1F0505)"/>
<path id="Vector_2" opacity="0.05" d="M0.670199 0.649957C2.20535 -1.34829 21.5918 16.5256 24.692 19.8468C25.8033 21.0398 26.2064 21.6869 26.0908 21.8356C25.9751 21.9843 25.2791 21.7219 23.9179 20.8504C20.1247 18.4283 -0.865605 2.64102 0.669547 0.642774L0.670199 0.649957Z" fill="var(--fill-0, #240B0A)"/>
<path id="Vector_3" opacity="0.07" d="M1.25833 1.14047C2.75605 -0.80952 21.6562 16.6132 24.6868 19.8622C25.7823 21.0351 26.1846 21.675 26.069 21.8237C25.9534 21.9722 25.2675 21.7051 23.932 20.8488C20.2242 18.4789 -0.236192 3.08655 1.25833 1.14047Z" fill="var(--fill-0, #2A100F)"/>
<path id="Vector_4" opacity="0.1" d="M1.84587 1.63099C3.30603 -0.270817 21.7201 16.7008 24.684 19.8735C25.7637 21.0263 26.1615 21.6558 26.0497 21.8077C25.9372 21.9523 25.2551 21.6884 23.9418 20.8441C20.3192 18.5263 0.388851 3.52882 1.84587 1.63099Z" fill="var(--fill-0, #2F1614)"/>
<path id="Vector_5" opacity="0.12" d="M2.43655 2.11727C3.85613 0.267686 21.7839 16.7882 24.6814 19.8846C25.7452 21.0173 26.1423 21.6396 26.0298 21.7842C25.9173 21.9288 25.2459 21.6674 23.951 20.8318C20.4137 18.5662 1.01324 3.96365 2.43277 2.11407L2.43655 2.11727Z" fill="var(--fill-0, #351B19)"/>
<path id="Vector_6" opacity="0.15" d="M3.0235 2.60772C4.40553 0.806325 21.8471 16.8756 24.678 19.8958C25.7222 21.0053 26.1193 21.6275 26.01 21.7682C25.9007 21.9087 25.2361 21.6465 23.967 20.8262C20.5151 18.6128 1.64455 4.40513 3.0235 2.60772Z" fill="var(--fill-0, #3B201D)"/>
<path id="Vector_7" opacity="0.17" d="M3.6085 3.09491C4.95309 1.3417 21.9085 16.9599 24.6697 19.9078C25.698 20.9972 26.0906 21.609 25.9844 21.7456C25.8751 21.8862 25.2175 21.6231 23.9705 20.8149C20.6038 18.6537 2.26013 4.84485 3.60472 3.09171L3.6085 3.09491Z" fill="var(--fill-0, #402622)"/>
<path id="Vector_8" opacity="0.2" d="M4.19989 3.58164C5.50698 1.87668 21.9762 17.0437 24.6708 19.9153C25.6833 20.9846 26.0753 21.5892 25.9691 21.7259C25.8628 21.8624 25.209 21.6025 23.9911 20.8055C20.7097 18.6964 2.89594 5.28255 4.20681 3.58079L4.19989 3.58164Z" fill="var(--fill-0, #462B27)"/>
<path id="Vector_9" opacity="0.22" d="M4.78737 4.07183C6.05383 2.4191 22.04 17.131 24.6649 19.9303C25.6614 20.9796 26.049 21.5737 25.9466 21.7136C25.8404 21.8502 25.1966 21.5854 23.9977 20.8045C20.8016 18.7476 3.51779 5.72861 4.78803 4.07908L4.78737 4.07183Z" fill="var(--fill-0, #4B312C)"/>
<path id="Vector_10" opacity="0.24" d="M5.37433 4.56254C6.60329 2.958 22.1001 17.2228 24.6617 19.9418C25.6423 20.971 26.0293 21.5579 25.9262 21.6905C25.823 21.8231 25.1831 21.5616 24.0094 20.7887C20.8986 18.7839 4.14472 6.15985 5.37746 4.55856L5.37433 4.56254Z" fill="var(--fill-0, #513631)"/>
<path id="Vector_11" opacity="0.27" d="M5.96311 5.05287C7.15457 3.49657 22.1652 17.3101 24.657 19.957C25.6181 20.9629 26.0081 21.5458 25.905 21.6784C25.8019 21.8109 25.1758 21.5478 24.021 20.791C20.9956 18.8384 4.77165 6.60923 5.96689 5.05607L5.96311 5.05287Z" fill="var(--fill-0, #573C36)"/>
<path id="Vector_12" opacity="0.29" d="M6.5532 5.53921C7.70722 4.03109 22.2317 17.3936 24.6569 19.9641C25.6021 20.95 25.9877 21.5224 25.8883 21.6582C25.7884 21.7868 25.166 21.5268 24.0365 20.778C21.0964 18.8776 5.40615 7.04654 6.55698 5.54241L6.5532 5.53921Z" fill="var(--fill-0, #5C413B)"/>
<path id="Vector_13" opacity="0.32" d="M7.14068 6.02972C8.25785 4.57704 22.2954 17.4811 24.6472 19.9762C25.5766 20.942 25.9583 21.5112 25.8615 21.6358C25.7615 21.7643 25.1461 21.5036 24.0387 20.7668C21.1839 18.9185 6.02357 7.48241 7.1369 6.02646L7.14068 6.02972Z" fill="var(--fill-0, #624640)"/>
<path id="Vector_14" opacity="0.34" d="M7.72444 6.51698C8.80411 5.11254 22.3555 17.5655 24.6407 19.9843C25.5542 20.93 25.9353 21.492 25.8384 21.6166C25.7416 21.7411 25.1331 21.4796 24.0485 20.7621C21.279 18.9659 6.64855 7.92468 7.72444 6.51698Z" fill="var(--fill-0, #684C45)"/>
<path id="Vector_15" opacity="0.37" d="M8.31707 7.00345C9.35924 5.64713 22.4244 17.6489 24.6431 19.9915C25.5407 20.9171 25.9174 21.4687 25.8205 21.5932C25.7237 21.7178 25.1221 21.4555 24.0626 20.746C21.3785 19.002 7.27803 8.35565 8.31329 7.00018L8.31707 7.00345Z" fill="var(--fill-0, #6D514A)"/>
<path id="Vector_16" opacity="0.39" d="M8.90461 7.49383C9.90935 6.18576 22.4852 17.7404 24.6373 20.0067C25.5153 20.9091 25.895 21.4567 25.8013 21.5772C25.7075 21.6977 25.1129 21.4345 24.0725 20.7411C21.4736 19.0493 7.90307 8.79786 8.90461 7.49383Z" fill="var(--fill-0, #73574E)"/>
<path id="Vector_17" opacity="0.41" d="M9.49229 7.98416C10.4563 6.72838 22.5491 17.8279 24.6347 20.0179C25.4968 20.9001 25.872 21.4373 25.7822 21.5611C25.6884 21.6816 25.1045 21.4208 24.0893 20.7354C21.5757 19.0957 8.53509 9.23921 9.4992 7.98338L9.49229 7.98416Z" fill="var(--fill-0, #785C53)"/>
<path id="Vector_18" opacity="0.44" d="M10.0791 8.47474C11.0057 7.26715 22.6085 17.9123 24.6281 20.0333C25.4744 20.8955 25.849 21.4254 25.7552 21.5459C25.6646 21.6624 25.0845 21.4049 24.0915 20.7315C21.6632 19.1441 9.14937 9.68638 10.076 8.47879L10.0791 8.47474Z" fill="var(--fill-0, #7E6158)"/>
<path id="Vector_19" opacity="0.46" d="M10.6712 8.96108C11.5603 7.80168 22.677 17.9957 24.6301 20.0404C25.4604 20.8825 25.8313 21.4092 25.7437 21.5217C25.6532 21.6382 25.0831 21.3758 24.1121 20.7145C21.7691 19.1792 9.78531 10.1164 10.6744 8.95704L10.6712 8.96108Z" fill="var(--fill-0, #84675D)"/>
<path id="Vector_20" opacity="0.49" d="M11.2549 9.44827C12.1065 8.33705 22.737 18.0799 24.6204 20.0524C25.4349 20.8744 25.8012 21.3907 25.7137 21.5031C25.6263 21.6156 25.06 21.3565 24.1149 20.7104C21.8572 19.2273 10.4033 10.5594 11.2549 9.44827Z" fill="var(--fill-0, #896C62)"/>
<path id="Vector_21" opacity="0.51" d="M11.8425 9.93879C12.6534 8.8798 22.8007 18.1675 24.6176 20.0637C25.4125 20.8625 25.782 21.3747 25.6945 21.4872C25.607 21.5997 25.0507 21.3357 24.1247 20.7057C21.9523 19.2747 11.0284 11.0018 11.8393 9.94277L11.8425 9.93879Z" fill="var(--fill-0, #8F7267)"/>
<path id="Vector_22" opacity="0.54" d="M12.434 10.4251C13.2075 9.41439 22.8654 18.2549 24.6157 20.0749C25.3948 20.8536 25.7598 21.3554 25.6792 21.467C25.5949 21.5756 25.0424 21.3148 24.1415 20.6928C22.0545 19.3139 11.6604 11.4359 12.434 10.4251Z" fill="var(--fill-0, #94776C)"/>
<path id="Vector_23" opacity="0.56" d="M13.0215 10.9155C13.7576 9.95296 22.9294 18.3424 24.6131 20.0861C25.3762 20.8447 25.7406 21.3393 25.6562 21.4477C25.5719 21.5562 25.0264 21.2947 24.1514 20.6879C22.1496 19.3612 12.2855 11.8781 13.0215 10.9155Z" fill="var(--fill-0, #9A7D71)"/>
<path id="Vector_24" opacity="0.59" d="M13.6085 11.4061C14.307 10.4918 22.9926 18.43 24.6067 20.1015C25.354 20.84 25.7177 21.3274 25.6364 21.4318C25.5552 21.5363 25.0204 21.2771 24.1637 20.6791C22.2472 19.4047 12.9131 12.3164 13.6085 11.4061Z" fill="var(--fill-0, #A08276)"/>
<path id="Vector_25" opacity="0.61" d="M14.1962 11.8966C14.8578 11.0377 23.0565 18.5175 24.6003 20.1095C25.3279 20.8248 25.6878 21.3089 25.6097 21.4093C25.5315 21.5097 25.0005 21.2538 24.166 20.6679C22.3348 19.4456 13.5306 12.7522 14.1923 11.8934L14.1962 11.8966Z" fill="var(--fill-0, #A5877B)"/>
<path id="Vector_26" opacity="0.63" d="M14.787 12.383C15.4112 11.5723 23.1237 18.6011 24.5977 20.1208C25.3095 20.816 25.6687 21.2929 25.5906 21.3933C25.5125 21.4937 24.9915 21.233 24.1829 20.6623C22.437 19.4921 14.1628 13.1937 14.787 12.383Z" fill="var(--fill-0, #AB8D7F)"/>
<path id="Vector_27" opacity="0.66" d="M15.3701 12.8701C15.9569 12.1077 23.1801 18.6893 24.5907 20.1287C25.2866 20.8038 25.6451 21.2735 25.5701 21.37C25.4951 21.4664 24.978 21.2088 24.1914 20.6502C22.5347 19.5354 14.7866 13.6287 15.3701 12.8701Z" fill="var(--fill-0, #B09284)"/>
<path id="Vector_28" opacity="0.68" d="M15.9586 13.3607C16.5078 12.6464 23.2448 18.7769 24.5889 20.14C25.2689 20.7951 25.623 21.2543 25.548 21.3508C25.473 21.4472 24.9628 21.1888 24.2053 20.6414C22.6338 19.5788 15.4156 14.067 15.9617 13.3567L15.9586 13.3607Z" fill="var(--fill-0, #B69889)"/>
<path id="Vector_29" opacity="0.71" d="M16.5495 13.8472C17.058 13.1851 23.312 18.8604 24.5864 20.1513C25.2506 20.7863 25.6039 21.2383 25.529 21.3348C25.4571 21.4272 24.9538 21.168 24.2152 20.6366C22.7291 19.6261 16.0408 14.5092 16.5495 13.8472Z" fill="var(--fill-0, #BC9D8E)"/>
<path id="Vector_30" opacity="0.73" d="M17.1371 14.3375C17.612 13.7269 23.376 18.9479 24.5838 20.1625C25.2283 20.7742 25.581 21.219 25.5092 21.3114C25.4373 21.4038 24.9447 21.147 24.2245 20.6245C22.8236 19.6662 16.6622 14.9482 17.1334 14.3343L17.1371 14.3375Z" fill="var(--fill-0, #C1A293)"/>
<path id="Vector_31" opacity="0.76" d="M17.725 14.828C18.1624 14.2656 23.4401 19.0354 24.5783 20.1778C25.207 20.7694 25.5559 21.211 25.4871 21.2994C25.4184 21.3877 24.9296 21.1342 24.2384 20.6229C22.9228 19.7168 17.2914 15.3936 17.725 14.828Z" fill="var(--fill-0, #C7A898)"/>
<path id="Vector_32" opacity="0.78" d="M18.3129 15.3186C18.7129 14.8044 23.5044 19.1231 24.576 20.1892C25.1888 20.7607 25.537 21.1951 25.4683 21.2835C25.3995 21.3719 24.9208 21.1135 24.2486 20.6183C23.0184 19.7643 17.9168 15.836 18.3129 15.3186Z" fill="var(--fill-0, #CDAD9D)"/>
<path id="Vector_33" opacity="0.8" d="M18.9002 15.8017C19.2594 15.3397 23.5648 19.2072 24.5698 20.1971C25.1668 20.7485 25.5105 21.1725 25.4449 21.2568C25.3793 21.3412 24.9043 21.086 24.2574 20.5988C23.1125 19.797 18.5447 16.2669 18.9002 15.8017Z" fill="var(--fill-0, #D2B3A2)"/>
<path id="Vector_34" opacity="0.83" d="M19.4876 16.2922C19.8095 15.8783 23.6286 19.2948 24.5671 20.2083C25.1482 20.7398 25.4913 21.1565 25.4257 21.2408C25.3601 21.3252 24.8951 21.0652 24.2709 20.5972C23.2113 19.8476 19.1734 16.7124 19.4914 16.2953L19.4876 16.2922Z" fill="var(--fill-0, #D8B8A7)"/>
<path id="Vector_35" opacity="0.85" d="M20.076 16.7827C20.3603 16.4171 23.6933 19.3824 24.5621 20.2237C25.1235 20.7318 25.4659 21.1412 25.4003 21.2256C25.3378 21.306 24.8767 21.0492 24.2777 20.5892C23.3034 19.8917 19.7955 17.1515 20.076 16.7827Z" fill="var(--fill-0, #DDBEAC)"/>
<path id="Vector_36" opacity="0.88" d="M20.6676 17.269C20.9144 16.9516 23.7612 19.4657 24.5634 20.2308C25.109 20.7188 25.4507 21.1211 25.3882 21.2014C25.3258 21.2818 24.8716 21.0241 24.2947 20.5762C23.4057 19.9309 20.4277 17.5855 20.6676 17.269Z" fill="var(--fill-0, #E3C3B0)"/>
<path id="Vector_37" opacity="0.9" d="M21.2541 17.7596C21.4603 17.4945 23.8241 19.5534 24.5566 20.2462C25.0864 20.7142 25.4242 21.1132 25.3649 21.1895C25.3055 21.2658 24.8621 21.0107 24.3042 20.5788C23.5005 19.9857 21.0524 18.0352 21.2548 17.7668L21.2541 17.7596Z" fill="var(--fill-0, #E9C8B5)"/>
<path id="Vector_38" opacity="0.93" d="M21.8436 18.25C22.0123 18.033 23.8867 19.6449 24.552 20.2542C25.0659 20.7021 25.3994 21.0906 25.3431 21.163C25.2838 21.2393 24.8472 20.9833 24.3146 20.5595C23.5961 20.0185 21.678 18.4629 21.843 18.2427L21.8436 18.25Z" fill="var(--fill-0, #EECEBA)"/>
<path id="Vector_39" opacity="0.95" d="M22.431 18.7404C22.5622 18.5717 23.9505 19.7324 24.5461 20.2694C25.0472 20.6933 25.3769 21.0786 25.3207 21.151C25.2644 21.2233 24.8348 20.9665 24.3212 20.5587C23.688 20.0699 22.2998 18.9092 22.4241 18.7413L22.431 18.7404Z" fill="var(--fill-0, #F4D3BF)"/>
<path id="Vector_40" opacity="0.98" d="M23.0177 19.2236C23.1083 19.1072 24.0135 19.8127 24.5425 20.2735C25.0209 20.678 25.3568 21.0553 25.3005 21.1277C25.2443 21.2 24.8216 20.9424 24.3369 20.5458C23.7892 20.1092 22.9309 19.3434 23.0177 19.2236Z" fill="var(--fill-0, #F9D9C4)"/>
<path id="Vector_41" d="M23.6046 19.7141C23.6577 19.6458 24.0767 19.9002 24.5392 20.2847C25.0016 20.6691 25.3331 21.0361 25.28 21.1044C25.2269 21.1727 24.8079 20.9182 24.3454 20.5337C23.8861 20.1453 23.5515 19.7824 23.6077 19.71L23.6046 19.7141Z" fill="var(--fill-0, #FFDEC9)"/>
</g>
</svg>
