<svg preserveAspectRatio="none" width="100%" height="100%" overflow="visible" style="display: block;" viewBox="0 0 6.72577 34.7889" fill="none" xmlns="http://www.w3.org/2000/svg">
<g id="Group" style="mix-blend-mode:screen" opacity="0.2">
<path id="Vector" opacity="0.02" d="M5.07205 0.0114799C9.99635 0.679715 2.47085 27.8202 1.26479 32.4543C0.83755 34.1042 0.681941 34.8384 0.313332 34.7864C-0.0477115 34.7408 -0.0124297 33.9914 0.017766 32.2855C0.100983 27.5009 0.155375 -0.650292 5.07205 0.0114799Z" fill="var(--fill-0, #1F0505)"/>
<path id="Vector_2" opacity="0.05" d="M4.97097 0.797693C9.77494 1.45072 2.43936 27.9261 1.25853 32.4549C0.839315 34.0784 0.683056 34.8053 0.325143 34.7557C-0.0289878 34.7093 0.00316493 33.9639 0.0360997 32.2869C0.118665 27.6084 0.173901 0.143886 4.97097 0.797693Z" fill="var(--fill-0, #240B0A)"/>
<path id="Vector_3" opacity="0.07" d="M4.86375 1.58084C9.54668 2.2114 2.39801 28.0257 1.24679 32.4598C0.835662 34.0567 0.682463 34.7796 0.331529 34.7292C-0.0156888 34.682 0.0171169 33.9439 0.0527256 32.2957C0.134704 27.7232 0.191507 0.952625 4.86753 1.58404L4.86375 1.58084Z" fill="var(--fill-0, #2A100F)"/>
<path id="Vector_4" opacity="0.1" d="M4.75849 2.36385C9.32109 2.97927 2.35861 28.1252 1.23635 32.4573C0.833243 34.0277 0.679461 34.7434 0.332244 34.6961C-0.00799559 34.6481 0.0223333 33.9213 0.0599637 32.2948C0.140638 27.8211 0.20279 1.74765 4.7547 2.36065L4.75849 2.36385Z" fill="var(--fill-0, #2F1614)"/>
<path id="Vector_5" opacity="0.12" d="M4.64958 3.15104C9.09179 3.75125 2.31936 28.2321 1.2192 32.4629C0.824052 34.0068 0.673403 34.7185 0.333098 34.6705C-0.00335834 34.6257 0.0308137 33.902 0.0711181 32.3045C0.15114 27.9368 0.214206 2.55006 4.64958 3.15104Z" fill="var(--fill-0, #351B19)"/>
<path id="Vector_6" opacity="0.15" d="M4.54979 3.93752C8.87168 4.52251 2.28544 28.335 1.21809 32.467C0.834808 33.9876 0.67966 34.6889 0.350116 34.6432C0.0243552 34.6009 0.0553342 33.8812 0.0914647 32.3134C0.170834 28.0517 0.238594 3.35494 4.54979 3.93752Z" fill="var(--fill-0, #3B201D)"/>
<path id="Vector_7" opacity="0.17" d="M4.44316 4.72066C8.64095 5.28724 2.24468 28.4346 1.20629 32.4647C0.831032 33.9588 0.679011 34.656 0.35325 34.6135C0.0344022 34.5704 0.066095 33.858 0.101117 32.3158C0.182965 28.1562 0.24923 4.15735 4.44316 4.72066Z" fill="var(--fill-0, #402622)"/>
<path id="Vector_8" opacity="0.2" d="M4.33731 5.50361C8.41477 6.05498 2.20848 28.5372 1.19598 32.4693C0.828745 33.9368 0.67607 34.6269 0.357222 34.5836C0.0452872 34.5396 0.070725 33.8352 0.115334 32.3212C0.196529 28.2676 0.263704 4.95544 4.33731 5.50361Z" fill="var(--fill-0, #462B27)"/>
<path id="Vector_9" opacity="0.22" d="M4.22847 6.29093C8.18553 6.82709 2.16544 28.641 1.1819 32.4711C0.822747 33.9121 0.670008 34.6021 0.361203 34.5541C0.0531163 34.5133 0.0823331 33.8121 0.125833 32.3238C0.209572 28.3722 0.278312 5.75393 4.23159 6.28695L4.22847 6.29093Z" fill="var(--fill-0, #4B312C)"/>
<path id="Vector_10" opacity="0.24" d="M4.12653 7.07721C7.96327 7.59816 2.12938 28.7438 1.17173 32.4758C0.820596 33.8903 0.667207 34.5731 0.365968 34.5315C0.0685763 34.4931 0.0947282 33.7959 0.140902 32.3365C0.223989 28.4909 0.297423 6.56267 4.1234 7.0812L4.12653 7.07721Z" fill="var(--fill-0, #513631)"/>
<path id="Vector_11" opacity="0.27" d="M4.02192 7.86055C7.73448 8.36315 2.09442 28.8468 1.16572 32.4768C0.822613 33.8649 0.672356 34.5436 0.378095 34.5012C0.0876165 34.462 0.114353 33.772 0.159418 32.3383C0.241918 28.5988 0.316201 7.35724 4.02192 7.86055Z" fill="var(--fill-0, #573C36)"/>
<path id="Vector_12" opacity="0.29" d="M3.91112 8.64749C7.50336 9.1348 2.04949 28.9502 1.14981 32.4781C0.815378 33.8469 0.663749 34.5112 0.376401 34.468C0.0928359 34.428 0.117161 33.7492 0.161118 32.3413C0.246096 28.7037 0.31888 8.1601 3.90734 8.64422L3.91112 8.64749Z" fill="var(--fill-0, #5C413B)"/>
<path id="Vector_13" opacity="0.32" d="M3.80657 9.43076C7.27842 9.90293 2.01453 29.0532 1.14075 32.4832C0.814332 33.8254 0.6659 34.4857 0.382335 34.4457C0.102553 34.4089 0.130661 33.7334 0.177292 32.3543C0.261618 28.8227 0.339094 8.96904 3.80344 9.43481L3.80657 9.43076Z" fill="var(--fill-0, #624640)"/>
<path id="Vector_14" opacity="0.34" d="M3.70536 10.2174C7.06008 10.6703 1.97925 29.1562 1.13442 32.4842C0.816033 33.7999 0.666881 34.453 0.394076 34.4154C0.121207 34.3778 0.146252 33.7063 0.195556 32.3562C0.275447 28.9274 0.35762 9.76361 3.70536 10.2174Z" fill="var(--fill-0, #684C45)"/>
<path id="Vector_15" opacity="0.37" d="M3.60003 11.0003C6.83057 11.4348 1.9366 29.2596 1.12457 32.4887C0.81427 33.778 0.668244 34.427 0.402288 34.3886C0.140179 34.3534 0.162029 33.6859 0.214072 32.3647C0.296442 29.0379 0.380182 10.5681 3.60381 11.0034L3.60003 11.0003Z" fill="var(--fill-0, #6D514A)"/>
<path id="Vector_16" opacity="0.39" d="M3.49001 11.7874C6.60023 12.2067 1.89623 29.3664 1.10945 32.4903C0.807097 33.753 0.660421 34.3948 0.405225 34.3588C0.149965 34.3228 0.169403 33.6666 0.223468 32.3671C0.305186 29.1463 0.390552 11.3704 3.49692 11.7865L3.49001 11.7874Z" fill="var(--fill-0, #73574E)"/>
<path id="Vector_17" opacity="0.41" d="M3.38514 12.5706C6.37496 12.9747 1.85723 29.4661 1.09627 32.492C0.801945 33.7282 0.658402 34.366 0.403206 34.33C0.151793 34.2972 0.175011 33.6442 0.227968 32.3703C0.309033 29.2556 0.395314 12.1664 3.38136 12.5673L3.38514 12.5706Z" fill="var(--fill-0, #785C53)"/>
<path id="Vector_18" opacity="0.44" d="M3.28346 13.3569C6.15296 13.7459 1.82142 29.5689 1.0932 32.496C0.810748 33.709 0.662706 34.3363 0.418271 34.3027C0.173771 34.2691 0.197642 33.6233 0.253273 32.3784C0.336881 29.3656 0.424663 12.9704 3.29038 13.3561L3.28346 13.3569Z" fill="var(--fill-0, #7E6158)"/>
<path id="Vector_19" opacity="0.46" d="M3.17559 14.1442C5.92099 14.5147 1.7832 29.6759 1.08023 32.4977C0.805791 33.6842 0.660877 34.3075 0.42329 34.2731C0.189551 34.2419 0.210289 33.6001 0.26168 32.3849C0.344636 29.4782 0.437181 13.7729 3.17559 14.1442Z" fill="var(--fill-0, #84675D)"/>
<path id="Vector_20" opacity="0.49" d="M3.06981 14.9271C5.69481 15.2825 1.74329 29.7753 1.06992 32.5024C0.803507 33.6623 0.657943 34.2784 0.427986 34.2504C0.20116 34.2183 0.218767 33.5807 0.27668 32.3976C0.362115 29.5928 0.452375 14.5783 3.07046 14.9344L3.06981 14.9271Z" fill="var(--fill-0, #896C62)"/>
<path id="Vector_21" opacity="0.51" d="M2.96377 15.7103C5.46844 16.0505 1.70305 29.8749 1.05877 32.5C0.800378 33.6334 0.657877 34.2455 0.431051 34.2135C0.211138 34.1807 0.226334 33.5542 0.286204 32.3928C0.371052 29.6941 0.462877 15.3735 2.96377 15.7103Z" fill="var(--fill-0, #8F7267)"/>
<path id="Vector_22" opacity="0.54" d="M2.86066 16.4968C5.24501 16.8217 1.66966 29.9811 1.04736 32.5049C0.796989 33.6118 0.653902 34.2166 0.437772 34.1871C0.221641 34.1574 0.240617 33.5342 0.299378 32.3985C0.383573 29.8058 0.480096 16.1751 2.85688 16.4936L2.86066 16.4968Z" fill="var(--fill-0, #94776C)"/>
<path id="Vector_23" opacity="0.56" d="M2.75357 17.2839C5.01375 17.5905 1.62838 30.0847 1.03888 32.5097C0.80038 33.5933 0.656573 34.1909 0.444225 34.1645C0.23879 34.1373 0.254706 33.5181 0.316141 32.4113C0.399032 29.9174 0.497186 16.9807 2.75736 17.2871L2.75357 17.2839Z" fill="var(--fill-0, #9A7D71)"/>
<path id="Vector_24" opacity="0.59" d="M2.64877 18.067C4.78862 18.3583 1.58944 30.1842 1.02583 32.5113C0.795355 33.5684 0.654684 34.162 0.44925 34.1348C0.250793 34.1068 0.267292 33.4948 0.327684 32.4136C0.409923 30.0258 0.512704 17.779 2.64877 18.067Z" fill="var(--fill-0, #A08276)"/>
<path id="Vector_25" opacity="0.61" d="M2.54175 18.8503C4.5644 19.1224 1.55214 30.2872 1.01749 32.5123C0.795031 33.5428 0.653636 34.1292 0.45518 34.1012C0.263571 34.0724 0.277659 33.4716 0.340724 32.4194C0.422376 30.1376 0.529853 18.5807 2.54559 18.8536L2.54175 18.8503Z" fill="var(--fill-0, #A5877B)"/>
<path id="Vector_26" opacity="0.63" d="M2.43772 19.6406C4.33999 19.8975 1.51392 30.394 1.00822 32.517C0.793788 33.5211 0.655596 34.1034 0.460922 34.0786C0.273096 34.053 0.28718 33.4522 0.352919 32.429C0.43705 30.2492 0.539181 19.387 2.43772 19.6406Z" fill="var(--fill-0, #AB8D7F)"/>
<path id="Vector_27" opacity="0.66" d="M2.33253 20.4238C4.11062 20.6622 1.47453 30.4936 0.99479 32.5186C0.788377 33.4962 0.649464 34.0713 0.465486 34.0489C0.284638 34.0225 0.299381 33.4289 0.364011 32.4314C0.44749 30.3575 0.55438 20.1853 2.32555 20.4246L2.33253 20.4238Z" fill="var(--fill-0, #B09284)"/>
<path id="Vector_28" opacity="0.68" d="M2.2259 21.2069C3.88366 21.4301 1.43755 30.5964 0.986768 32.5194C0.788377 33.4705 0.652595 34.0415 0.475595 34.0184C0.305443 33.9943 0.317052 33.4048 0.384356 32.4362C0.470312 30.4644 0.578768 20.986 2.22968 21.2101L2.2259 21.2069Z" fill="var(--fill-0, #B69889)"/>
<path id="Vector_29" opacity="0.71" d="M2.12031 21.9901C3.65774 22.1981 1.39783 30.696 0.972939 32.521C0.786352 33.4488 0.646139 34.0094 0.475987 33.9854C0.312813 33.9606 0.321939 33.3823 0.39133 32.4354C0.476635 30.5695 0.58594 21.7779 2.11653 21.9868L2.12031 21.9901Z" fill="var(--fill-0, #BC9D8E)"/>
<path id="Vector_30" opacity="0.73" d="M2.01557 22.7803C3.43268 22.9732 1.35896 30.8027 0.966809 32.529C0.788309 33.4302 0.648027 33.9909 0.484853 33.9661C0.325397 33.9445 0.338377 33.3694 0.410442 32.4514C0.495094 30.6916 0.606026 22.5939 2.01935 22.7836L2.01557 22.7803Z" fill="var(--fill-0, #C1A293)"/>
<path id="Vector_31" opacity="0.76" d="M1.90907 23.5637C3.20201 23.7382 1.32212 30.9058 0.95514 32.5268C0.784662 33.4015 0.643729 33.955 0.491251 33.9326C0.338773 33.9101 0.352401 33.3423 0.423358 32.4499C0.510488 30.7922 0.622987 23.3884 1.9122 23.5597L1.90907 23.5637Z" fill="var(--fill-0, #C7A898)"/>
<path id="Vector_32" opacity="0.78" d="M1.8042 24.3465C2.97681 24.5059 1.28312 31.0051 0.94203 32.5281C0.779573 33.3763 0.641768 33.9258 0.496203 33.9025C0.35442 33.8826 0.361138 33.3155 0.431638 32.4561C0.518182 30.9043 0.631594 24.1873 1.8042 24.3465Z" fill="var(--fill-0, #CDAD9D)"/>
<path id="Vector_33" opacity="0.8" d="M1.69901 25.13C2.75129 25.274 1.24379 31.105 0.935509 32.5291C0.781074 33.3509 0.64255 33.8931 0.500832 33.873C0.365963 33.8522 0.373334 33.2924 0.446508 32.4619C0.528616 31.0129 0.650509 24.9891 1.69901 25.13Z" fill="var(--fill-0, #D2B3A2)"/>
<path id="Vector_34" opacity="0.83" d="M1.59094 25.917C2.5229 26.0458 1.20538 31.2116 0.91914 32.5346C0.772727 33.3298 0.6374 33.8681 0.50253 33.8472C0.371508 33.8296 0.379598 33.277 0.454729 32.4682C0.539381 31.1212 0.662835 25.7913 1.58716 25.9138L1.59094 25.917Z" fill="var(--fill-0, #D8B8A7)"/>
<path id="Vector_35" opacity="0.85" d="M1.48914 26.7034C2.29699 26.8138 1.16944 31.3145 0.91601 32.5387C0.781401 33.3106 0.641576 33.8384 0.517467 33.82C0.393293 33.8015 0.402096 33.2562 0.479965 32.4762C0.5639 31.2353 0.685138 26.5961 1.49605 26.7025L1.48914 26.7034Z" fill="var(--fill-0, #DDBEAC)"/>
<path id="Vector_36" opacity="0.88" d="M1.38355 27.4864C2.07414 27.5776 1.1266 31.4181 0.902117 32.5402C0.775595 33.2856 0.638903 33.8094 0.518511 33.7942C0.401316 33.775 0.410772 33.2369 0.487533 32.4826C0.573946 31.3437 0.696747 27.3984 1.38042 27.4905L1.38355 27.4864Z" fill="var(--fill-0, #E3C3B0)"/>
<path id="Vector_37" opacity="0.9" d="M1.27522 28.2736C1.84549 28.3496 1.08792 31.5249 0.888618 32.5419C0.770118 33.2608 0.632771 33.7773 0.519292 33.7613C0.412792 33.7444 0.419115 33.2103 0.494767 32.4818C0.580593 31.4488 0.708095 28.1935 1.27144 28.2704L1.27522 28.2736Z" fill="var(--fill-0, #E9C8B5)"/>
<path id="Vector_38" opacity="0.93" d="M1.16853 29.0568C1.61462 29.1144 1.04703 31.6247 0.880595 32.5428C0.770052 33.2352 0.635831 33.7476 0.529331 33.7308C0.429744 33.7132 0.429812 33.1871 0.511986 32.4907C0.59716 31.5638 0.725572 28.9952 1.16853 29.0568Z" fill="var(--fill-0, #EECEBA)"/>
<path id="Vector_39" opacity="0.95" d="M1.06724 29.8428C1.39301 29.8852 1.01162 31.727 0.871008 32.5471C0.768551 33.213 0.633615 33.7183 0.537875 33.7039C0.442071 33.6895 0.445918 33.1666 0.526984 32.496C0.614636 31.671 0.741483 29.8004 1.06724 29.8428Z" fill="var(--fill-0, #F4D3BF)"/>
<path id="Vector_40" opacity="0.98" d="M0.961662 30.6263C1.16703 30.6536 0.975686 31.8303 0.864099 32.5484C0.769599 33.1878 0.637856 33.689 0.545834 33.6778C0.457008 33.6625 0.461508 33.1469 0.545247 32.5052C0.632312 31.7863 0.763857 30.6055 0.965444 30.6295L0.961662 30.6263Z" fill="var(--fill-0, #F9D9C4)"/>
<path id="Vector_41" d="M0.853791 31.4135C0.9389 31.4255 0.933681 31.9339 0.84792 32.5539C0.765289 33.17 0.629052 33.6608 0.547791 33.652C0.46966 33.6392 0.471027 33.1276 0.553657 32.5115C0.64007 31.8987 0.77253 31.4046 0.853791 31.4135Z" fill="var(--fill-0, #FFDEC9)"/>
</g>
</svg>
