<svg preserveAspectRatio="none" width="100%" height="100%" overflow="visible" style="display: block;" viewBox="0 0 42.2693 80.0919" fill="none" xmlns="http://www.w3.org/2000/svg">
<g id="Group" style="mix-blend-mode:screen" opacity="0.2">
<path id="Vector" opacity="0" d="M1.25469 79.4721C-7.10211 72.6082 29.6315 13.0894 37.0061 3.91755C39.6213 0.670505 41.265 -0.343369 41.8746 0.159656C42.4953 0.662146 42.4365 2.981 41.1623 7.32894C37.5671 19.6138 9.5893 86.3226 1.25469 79.4721Z" fill="var(--fill-0, #190000)"/>
<path id="Vector_2" opacity="0.02" d="M1.96373 77.9878C-6.19363 71.287 29.6853 13.1322 36.9366 4.08124C39.541 0.80593 41.185 -0.265509 41.7947 0.223129C42.4043 0.711768 42.3119 3.06103 41.0043 7.4106C37.4437 19.4925 10.0989 84.6753 1.96382 77.9734L1.96373 77.9878Z" fill="var(--fill-0, #1F0505)"/>
<path id="Vector_3" opacity="0.05" d="M2.67275 76.5057C-5.28541 69.9676 29.74 13.1748 36.8683 4.2445C39.4618 0.940798 41.1175 -0.203171 41.7159 0.300413C42.3145 0.789607 42.1773 3.16988 40.8474 7.52071C37.3212 19.4145 10.6086 83.0448 2.67267 76.52L2.67275 76.5057Z" fill="var(--fill-0, #240B0A)"/>
<path id="Vector_4" opacity="0.07" d="M3.38076 75.0053C-4.37803 68.6302 29.7931 13.2008 36.7983 4.37685C39.3809 1.04484 41.0481 -0.157259 41.6355 0.332479C42.223 0.807826 42.0411 3.21907 40.7 7.57053C37.1972 19.2764 11.1285 81.3665 3.39191 75.0047L3.38076 75.0053Z" fill="var(--fill-0, #2A100F)"/>
<path id="Vector_5" opacity="0.1" d="M4.08989 73.5218C-3.46965 67.3096 29.8476 13.2427 36.7299 4.53942C39.3127 1.17849 40.9803 -0.0812132 41.5455 0.395221C42.122 0.856729 41.9064 3.31284 40.5318 7.66607C37.0635 19.1837 11.6271 79.7352 4.08989 73.5218Z" fill="var(--fill-0, #2F1614)"/>
<path id="Vector_6" opacity="0.12" d="M4.79912 72.0379C-2.56106 65.9885 29.9019 13.285 36.6611 4.68813C39.2331 1.29888 40.9122 -0.0189568 41.4663 0.458023C42.0316 0.920076 41.7714 3.39278 40.3744 7.74717C36.9407 19.062 12.1371 78.0739 4.79912 72.0379Z" fill="var(--fill-0, #351B19)"/>
<path id="Vector_7" opacity="0.15" d="M5.50714 70.539C-1.65385 64.6669 29.9553 13.3117 36.5803 4.83606C39.1413 1.41843 40.8209 0.0429709 41.3751 0.505576C41.9294 0.953789 41.6355 3.47137 40.2162 7.827C36.8169 18.9535 12.6457 76.4266 5.50714 70.539Z" fill="var(--fill-0, #3B201D)"/>
<path id="Vector_8" opacity="0.17" d="M6.21677 69.0548C-0.744795 63.3457 30.0098 13.3542 36.5116 4.99948C39.0617 1.55354 40.7528 0.119962 41.296 0.568718C41.8392 1.00308 41.5005 3.55162 40.0589 7.9084C36.6942 18.8464 13.1561 74.765 6.21677 69.0548Z" fill="var(--fill-0, #402622)"/>
<path id="Vector_9" opacity="0.2" d="M6.92406 67.5558C0.172954 62.0091 30.0735 13.3805 36.4412 5.13262C38.9804 1.6583 40.683 0.166562 41.2151 0.601475C41.7473 1.03639 41.3749 3.61541 39.8999 7.97395C36.5697 18.7093 13.664 73.1031 6.92406 67.5558Z" fill="var(--fill-0, #462B27)"/>
<path id="Vector_10" opacity="0.22" d="M7.63354 66.0719C1.0818 60.6881 30.128 13.4229 36.3726 5.29575C38.9009 1.79307 40.6151 0.243179 41.125 0.679174C41.646 1.10024 41.229 3.71026 39.7427 8.06947C36.447 18.6164 14.1741 71.4563 7.63354 66.0719Z" fill="var(--fill-0, #4B312C)"/>
<path id="Vector_11" opacity="0.24" d="M8.34218 64.5881C1.98987 59.3673 30.1815 13.466 36.3029 5.45973C38.8314 1.9282 40.546 0.320709 41.0448 0.742854C41.5548 1.15007 41.0928 3.80546 39.5844 8.15143C36.312 18.5104 14.6833 69.8095 8.34218 64.5881Z" fill="var(--fill-0, #513631)"/>
<path id="Vector_12" opacity="0.27" d="M9.05024 63.0876C2.8974 58.0298 30.2343 13.4926 36.2325 5.59289C38.7501 2.03306 40.4762 0.36743 40.9639 0.775721C41.4628 1.18348 40.9674 3.85491 39.4253 8.21693C36.1876 18.3729 15.192 68.1315 9.05033 63.0732L9.05024 63.0876Z" fill="var(--fill-0, #573C36)"/>
<path id="Vector_13" opacity="0.29" d="M9.75968 61.6049C3.80628 56.7101 30.2885 13.5368 36.1636 5.75795C38.6702 2.18418 40.3967 0.446541 40.8845 0.854841C41.3723 1.24875 40.832 3.96555 39.2677 8.31435C36.0645 18.2818 15.7019 66.5002 9.75968 61.6049Z" fill="var(--fill-0, #5C413B)"/>
<path id="Vector_14" opacity="0.32" d="M10.4681 60.122C4.71408 55.3902 30.3419 13.5662 36.0937 5.92257C38.5894 2.32044 40.3275 0.524639 40.8042 0.919091C41.281 1.29915 40.7071 4.04642 39.1204 8.41081C35.9517 18.1898 16.2221 64.8538 10.4791 60.1359L10.4681 60.122Z" fill="var(--fill-0, #624640)"/>
<path id="Vector_15" opacity="0.34" d="M11.1765 58.6201C5.6219 54.0512 30.3952 13.5911 36.0239 6.05383C38.5087 2.42334 40.2584 0.569379 40.7129 0.950516C41.1786 1.33112 40.5598 4.1094 38.9509 8.46058C35.8167 18.0511 16.72 63.175 11.1766 58.6057L11.1765 58.6201Z" fill="var(--fill-0, #684C45)"/>
<path id="Vector_16" opacity="0.37" d="M11.8852 57.1378C6.52989 52.7318 30.4492 13.6343 35.9438 6.21824C38.4178 2.55929 40.179 0.647095 40.6225 1.01439C41.0771 1.38116 40.4247 4.19 38.7822 8.55743C35.6825 17.9454 17.2182 61.5448 11.874 57.1383L11.8852 57.1378Z" fill="var(--fill-0, #6D514A)"/>
<path id="Vector_17" opacity="0.39" d="M12.5937 55.6397C7.43795 51.3968 30.5025 13.6636 35.8738 6.36837C38.348 2.68055 40.1096 0.71074 40.542 1.07858C40.9856 1.43149 40.2884 4.27131 38.6347 8.63937C35.5584 17.8393 17.7384 59.8832 12.5937 55.6541L12.5937 55.6397Z" fill="var(--fill-0, #73574E)"/>
<path id="Vector_18" opacity="0.41" d="M13.302 54.1549C8.34566 50.075 30.5553 13.7061 35.8035 6.51739C38.2668 2.80123 40.0288 0.773796 40.4613 1.12725C40.8937 1.4807 40.1518 4.35152 38.4757 8.72073C35.4339 17.7321 18.2471 58.2353 13.302 54.1549Z" fill="var(--fill-0, #785C53)"/>
<path id="Vector_19" opacity="0.44" d="M14.0213 52.672C9.26455 48.7551 30.6192 13.7509 35.7441 6.68316C38.1965 2.93869 39.97 0.853112 40.3914 1.19271C40.8128 1.5323 40.0372 4.43355 38.3277 8.80442C35.3206 17.6128 18.767 56.5749 14.0213 52.672Z" fill="var(--fill-0, #7E6158)"/>
<path id="Vector_20" opacity="0.46" d="M14.7305 51.1736C10.1731 47.4197 30.6734 13.7787 35.6753 6.83169C38.1168 3.05876 39.9019 0.914948 40.301 1.25563C40.7114 1.58138 39.8909 4.52811 38.1702 8.89976C35.1975 17.5198 19.2766 54.9424 14.7304 51.188L14.7305 51.1736Z" fill="var(--fill-0, #84675D)"/>
<path id="Vector_21" opacity="0.49" d="M15.4387 49.6887C11.0807 46.1123 30.7263 13.8213 35.605 6.98075C38.0356 3.17948 39.8322 0.977484 40.2203 1.30431C40.6084 1.63114 39.7655 4.59341 38.0113 8.96677C35.0731 17.3983 19.7856 53.2657 15.4387 49.6887Z" fill="var(--fill-0, #896C62)"/>
<path id="Vector_22" opacity="0.51" d="M16.1474 48.2048C11.989 44.7915 30.7795 13.8651 35.535 7.14547C37.9546 3.31585 39.7628 1.05569 40.1398 1.36866C40.5168 1.68163 39.6291 4.68929 37.8526 9.0494C34.949 17.2923 20.2947 51.6187 16.1474 48.2048Z" fill="var(--fill-0, #8F7267)"/>
<path id="Vector_23" opacity="0.54" d="M16.8548 46.7044C12.8959 43.4541 30.8313 13.8924 35.4637 7.27934C37.8835 3.42086 39.681 1.10359 40.0581 1.40217C40.424 1.70128 39.4915 4.73994 37.7038 9.11507C34.8348 17.1549 20.8138 49.9402 16.866 46.6894L16.8548 46.7044Z" fill="var(--fill-0, #94776C)"/>
<path id="Vector_24" opacity="0.56" d="M17.5646 45.222C13.8052 42.1349 30.8857 13.9377 35.3948 7.44551C37.8037 3.55866 39.6128 1.16881 39.9787 1.48233C40.3335 1.78198 39.3673 4.85112 37.5462 9.21357C34.7005 17.0654 21.324 48.3092 17.5757 45.2215L17.5646 45.222Z" fill="var(--fill-0, #9A7D71)"/>
<path id="Vector_25" opacity="0.59" d="M18.2728 43.7389C14.7128 40.8147 30.939 13.9808 35.3251 7.60925C37.7232 3.69386 39.5439 1.24569 39.8876 1.5459C40.2314 1.83171 39.2204 4.93202 37.3767 9.31026C34.5655 16.9739 21.8217 46.6637 18.2728 43.7533L18.2728 43.7389Z" fill="var(--fill-0, #A08276)"/>
<path id="Vector_26" opacity="0.61" d="M18.9811 42.2367C15.6206 39.4755 30.9918 14.0062 35.2436 7.74156C37.6309 3.79775 39.4631 1.29136 39.7958 1.57772C40.1285 1.84967 39.0837 4.9949 37.2066 9.3605C34.43 16.8212 22.3194 44.9845 18.97 42.2228L18.9811 42.2367Z" fill="var(--fill-0, #A5877B)"/>
<path id="Vector_27" opacity="0.63" d="M19.6901 40.7559C16.5291 38.1578 31.0454 14.0526 35.1741 7.9088C37.5505 3.93654 39.3943 1.37189 39.7158 1.65879C40.0374 1.9313 38.9479 5.09321 37.0595 9.47397C34.3173 16.7462 22.8399 43.3545 19.69 40.7703L19.6901 40.7559Z" fill="var(--fill-0, #AB8D7F)"/>
<path id="Vector_28" opacity="0.66" d="M20.3982 39.2551C17.4369 36.8201 31.0977 14.0805 35.103 8.05773C37.4685 4.05719 39.3238 1.43439 39.6343 1.70743C39.9448 1.96607 38.8216 5.1728 36.8998 9.54078C34.1922 16.6242 23.3485 41.6906 20.3982 39.2551Z" fill="var(--fill-0, #B09284)"/>
<path id="Vector_29" opacity="0.68" d="M21.1063 37.7711C18.3445 35.4992 31.1504 14.1239 35.0327 8.20754C37.3984 4.17797 39.243 1.49796 39.5536 1.75661C39.8531 2.0014 38.685 5.23925 36.7407 9.62294C34.0676 16.5179 23.857 40.0435 21.1063 37.7711Z" fill="var(--fill-0, #B69889)"/>
<path id="Vector_30" opacity="0.71" d="M21.8157 36.2867C19.2533 34.1779 31.2045 14.1669 34.9635 8.37119C37.3184 4.31308 39.1747 1.57475 39.4631 1.82008C39.7514 2.06542 38.5385 5.33443 36.583 9.70454C33.9333 16.3973 24.367 38.3817 21.8157 36.2867Z" fill="var(--fill-0, #BC9D8E)"/>
<path id="Vector_31" opacity="0.73" d="M22.5239 34.7891C20.1611 32.8434 31.2681 14.1967 34.8928 8.52246C37.2368 4.45032 39.1047 1.63933 39.3819 1.88521C39.6592 2.11669 38.4126 5.41624 36.4235 9.80254C33.8083 16.3067 24.8754 36.7497 22.5238 34.8035L22.5239 34.7891Z" fill="var(--fill-0, #C1A293)"/>
<path id="Vector_32" opacity="0.76" d="M23.2323 33.3037C21.0691 31.5212 31.3208 14.2397 34.8223 8.67198C37.1553 4.57144 39.0348 1.7022 39.301 1.93422C39.5672 2.15184 38.2758 5.48245 36.2644 9.86995C33.6837 16.1855 25.3844 35.0724 23.2323 33.3037Z" fill="var(--fill-0, #C7A898)"/>
<path id="Vector_33" opacity="0.78" d="M23.9407 31.8198C21.9883 30.1999 31.3733 14.2844 34.7515 8.83771C37.0736 4.70882 38.9646 1.78137 39.2197 1.99953C39.4748 2.21769 38.1497 5.57877 36.116 9.95303C33.57 16.0654 25.9043 33.4248 23.9519 31.8048L23.9407 31.8198Z" fill="var(--fill-0, #CDAD9D)"/>
<path id="Vector_34" opacity="0.8" d="M24.6485 30.3224C22.8957 28.8656 31.4256 14.3149 34.6806 8.98889C36.9919 4.83141 38.8834 1.84612 39.1385 2.0643C39.3826 2.2686 38.0126 5.66089 35.9564 10.0509C33.4447 15.9749 26.4125 31.7787 24.6596 30.3363L24.6485 30.3224Z" fill="var(--fill-0, #D2B3A2)"/>
<path id="Vector_35" opacity="0.83" d="M25.3582 28.8372C23.8048 27.5578 31.4802 14.3422 34.6012 9.13707C36.9129 4.95014 38.8051 1.90677 39.038 2.11164C39.271 2.3021 37.856 5.74026 35.7772 10.1177C33.2998 15.8536 26.9005 30.1171 25.3471 28.8377L25.3582 28.8372Z" fill="var(--fill-0, #D8B8A7)"/>
<path id="Vector_36" opacity="0.85" d="M26.066 27.3376C24.7123 26.2215 31.5321 14.3713 34.5298 9.28702C36.8307 5.07157 38.7345 1.96986 38.9564 2.16087C39.1783 2.35187 37.7296 5.80625 35.6172 10.1999C33.1742 15.7473 27.4086 28.4543 26.0549 27.3382L26.066 27.3376Z" fill="var(--fill-0, #DDBEAC)"/>
<path id="Vector_37" opacity="0.88" d="M26.7739 25.8531C25.6198 24.9001 31.5841 14.4155 34.4586 9.43764C36.7487 5.19365 38.6641 2.03357 38.8749 2.21072C39.0857 2.38787 37.5921 5.88783 35.4684 10.2679C33.0489 15.6128 27.9281 26.7916 26.774 25.8387L26.7739 25.8531Z" fill="var(--fill-0, #E3C3B0)"/>
<path id="Vector_38" opacity="0.9" d="M27.4834 24.3711C26.529 23.5814 31.6378 14.462 34.3892 9.60478C36.6686 5.33202 38.5957 2.11341 38.7953 2.29112C38.9951 2.45441 37.4677 5.98518 35.3102 10.3817C32.9251 15.5384 28.4379 25.1609 27.4834 24.3855L27.4834 24.3711Z" fill="var(--fill-0, #E9C8B5)"/>
<path id="Vector_39" opacity="0.93" d="M28.192 22.8705C27.4373 22.244 31.6902 14.4908 34.3182 9.75452C36.5867 5.4533 38.5142 2.17692 38.714 2.34022C38.9026 2.50405 37.3303 6.06593 35.1506 10.4493C32.8 15.4172 28.9467 23.497 28.192 22.8705Z" fill="var(--fill-0, #EECEBA)"/>
<path id="Vector_40" opacity="0.95" d="M28.8996 21.3872C28.3446 20.9239 31.742 14.5358 34.2472 9.90539C36.5051 5.57498 38.4446 2.23973 38.6221 2.38972C38.7997 2.53971 37.1934 6.13277 34.9909 10.5326C32.6745 15.2981 29.4547 21.8361 28.8996 21.3872Z" fill="var(--fill-0, #F4D3BF)"/>
<path id="Vector_41" opacity="0.98" d="M29.6095 19.9029C29.2543 19.6029 31.7955 14.5814 34.1774 10.0718C36.4356 5.71235 38.3755 2.31924 38.5419 2.46977C38.7085 2.60589 37.0572 6.24455 34.8322 10.6313C32.5504 15.208 29.9647 20.2029 29.6095 19.9029Z" fill="var(--fill-0, #F9D9C4)"/>
<path id="Vector_42" d="M30.3178 18.4038C30.1624 18.2671 31.8475 14.6118 34.1063 10.2228C36.3539 5.83432 38.3056 2.38245 38.461 2.51913C38.6164 2.6558 36.9201 6.31161 34.6724 10.7145C32.4248 15.103 30.4731 18.5549 30.3177 18.4182L30.3178 18.4038Z" fill="var(--fill-0, #FFDEC9)"/>
</g>
</svg>
