<svg preserveAspectRatio="none" width="100%" height="100%" overflow="visible" style="display: block;" viewBox="0 0 68 70.8333" fill="none" xmlns="http://www.w3.org/2000/svg">
<g id="LINE_LOGO" clip-path="url(#clip0_181_35314)">
<path id="Vector" d="M34 70.8333C52.7777 70.8333 68 54.9768 68 35.4167C68 15.8566 52.7777 0 34 0C15.2223 0 0 15.8566 0 35.4167C0 54.9768 15.2223 70.8333 34 70.8333Z" fill="var(--fill-0, #2DC64B)"/>
<g id="Group">
<path id="Vector_2" d="M56.6738 33.3536C56.6738 22.7729 46.4908 14.1667 33.9766 14.1667C21.4625 14.1667 11.2795 22.7751 11.2795 33.3536C11.2795 42.8387 19.3545 50.7809 30.2621 52.2839C31.0016 52.4499 32.0068 52.7908 32.2618 53.4504C32.4913 54.048 32.4105 54.9844 32.3361 55.5887C32.3361 55.5887 32.0705 57.2577 32.0131 57.6118C31.9132 58.2095 31.5562 59.9493 33.9787 58.8868C36.4012 57.8243 47.0496 50.8694 51.8118 45.1607C55.1013 41.4021 56.678 37.5904 56.678 33.3559L56.6738 33.3536Z" fill="var(--fill-0, white)"/>
<g id="Group_2">
<path id="Vector_3" d="M49.1236 39.463C49.3637 39.463 49.5571 39.2616 49.5571 39.0115V37.3336C49.5571 37.0857 49.3616 36.882 49.1236 36.882H44.7907V35.14H49.1236C49.3637 35.14 49.5571 34.9385 49.5571 34.6884V33.0128C49.5571 32.7648 49.3616 32.5612 49.1236 32.5612H44.7907V30.8191H49.1236C49.3637 30.8191 49.5571 30.6177 49.5571 30.3676V28.6919C49.5571 28.444 49.3616 28.2404 49.1236 28.2404H42.7465C42.5064 28.2404 42.313 28.4418 42.313 28.6919V28.7008V39.0026V39.0115C42.313 39.2616 42.5064 39.463 42.7465 39.463H49.1236Z" fill="var(--fill-0, #4CC764)"/>
<path id="Vector_4" d="M25.5361 39.463C25.7763 39.463 25.9696 39.2616 25.9696 39.0115V37.3336C25.9696 37.0857 25.7741 36.882 25.5361 36.882H21.2033V28.6919C21.2033 28.444 21.0078 28.2404 20.7698 28.2404H19.159C18.9189 28.2404 18.7255 28.4418 18.7255 28.6919V39.0026V39.0115C18.7255 39.2616 18.9189 39.463 19.159 39.463H25.5361Z" fill="var(--fill-0, #4CC764)"/>
<path id="Vector_5" d="M29.3739 28.2404H27.7653C27.5258 28.2404 27.3317 28.4425 27.3317 28.6919V39.0092C27.3317 39.2586 27.5258 39.4608 27.7653 39.4608H29.3739C29.6133 39.4608 29.8074 39.2586 29.8074 39.0092V28.6919C29.8074 28.4425 29.6133 28.2404 29.3739 28.2404Z" fill="var(--fill-0, #4CC764)"/>
<path id="Vector_6" d="M40.3325 28.2404H38.7218C38.4816 28.2404 38.2882 28.4418 38.2882 28.6919V34.8212L33.7556 28.4462C33.745 28.4307 33.7323 28.4152 33.7216 28.3997C33.7216 28.3997 33.7216 28.3997 33.7195 28.3975C33.711 28.3887 33.7025 28.3776 33.694 28.3688C33.6919 28.3665 33.6876 28.3643 33.6855 28.3621C33.677 28.3555 33.6706 28.3488 33.6621 28.3422C33.6579 28.34 33.6536 28.3355 33.6494 28.3333C33.643 28.3267 33.6345 28.3223 33.626 28.3178C33.6218 28.3156 33.6175 28.3112 33.6132 28.309C33.6047 28.3046 33.5984 28.3001 33.5899 28.2957C33.5856 28.2935 33.5814 28.2913 33.5771 28.2891C33.5686 28.2846 33.5601 28.2802 33.5516 28.278C33.5474 28.278 33.5431 28.2736 33.5368 28.2736C33.5283 28.2714 33.5198 28.2669 33.5113 28.2647C33.507 28.2647 33.5006 28.2625 33.4964 28.2603C33.4879 28.2603 33.4794 28.2559 33.4709 28.2536C33.4645 28.2536 33.4581 28.2536 33.4518 28.2514C33.4433 28.2514 33.4369 28.2492 33.4284 28.2492C33.4199 28.2492 33.4135 28.2492 33.405 28.2492C33.4008 28.2492 33.3944 28.2492 33.3901 28.2492H31.79C31.5499 28.2492 31.3565 28.4507 31.3565 28.7008V39.0203C31.3565 39.2704 31.5499 39.4719 31.79 39.4719H33.4007C33.6409 39.4719 33.8343 39.2704 33.8343 39.0203V32.8932L38.3711 39.2771C38.403 39.3236 38.4413 39.3612 38.4838 39.39C38.4838 39.39 38.488 39.3922 38.488 39.3944C38.4965 39.401 38.505 39.4055 38.5156 39.4121C38.5199 39.4143 38.5241 39.4165 38.5284 39.4188C38.5348 39.4232 38.5433 39.4254 38.5496 39.4298C38.556 39.4342 38.5645 39.4365 38.5709 39.4387C38.5751 39.4387 38.5794 39.4431 38.5836 39.4431C38.5943 39.4475 38.6028 39.4497 38.6134 39.452C38.6134 39.452 38.6176 39.452 38.6198 39.452C38.6559 39.4608 38.6941 39.4674 38.7324 39.4674H40.3325C40.5726 39.4674 40.766 39.266 40.766 39.0159V28.6964C40.766 28.4462 40.5726 28.2448 40.3325 28.2448V28.2404Z" fill="var(--fill-0, #4CC764)"/>
</g>
</g>
</g>
<defs>
<clipPath id="clip0_181_35314">
<rect width="68" height="70.8333" fill="white"/>
</clipPath>
</defs>
</svg>
