<svg preserveAspectRatio="none" width="100%" height="100%" overflow="visible" style="display: block;" viewBox="0 0 43.0051 89.3307" fill="none" xmlns="http://www.w3.org/2000/svg">
<g id="Group" style="mix-blend-mode:screen" opacity="0.2">
<path id="Vector" opacity="0" d="M40.8972 86.802C30.9195 95.0661 6.59818 21.6297 2.32678 9.2874C0.807449 4.91738 0.0794045 3.05647 0.822658 2.44196C1.5547 1.828 2.51926 3.48944 4.83815 7.19884C11.3956 17.6515 50.8637 78.5383 40.8972 86.802Z" fill="var(--fill-0, #190000)"/>
<path id="Vector_2" opacity="0.02" d="M40.0157 84.8056C30.2746 92.8703 6.53641 21.2009 2.3419 9.11547C0.844546 4.81678 0.11642 2.97036 0.848372 2.37087C1.55791 1.77246 2.52255 3.41941 4.80816 7.0725C11.2212 17.315 49.7344 76.742 40.0157 84.8056Z" fill="var(--fill-0, #1F0505)"/>
<path id="Vector_3" opacity="0.05" d="M39.1236 82.8257C29.619 90.6908 6.45269 20.7887 2.35736 8.97356C0.88199 4.74619 0.164982 2.91371 0.874428 2.32977C1.57267 1.74638 2.53739 3.37885 4.77852 6.97616C11.0473 16.994 48.6169 74.9755 39.1236 82.8257Z" fill="var(--fill-0, #240B0A)"/>
<path id="Vector_4" opacity="0.07" d="M38.2431 80.845C28.986 88.5248 6.39126 20.3745 2.37274 8.81596C0.919314 4.65985 0.202211 2.84183 0.900369 2.2729C1.58732 1.70451 2.54094 3.32306 4.73761 6.86466C10.8622 16.658 47.4777 73.1809 38.2319 80.8456L38.2431 80.845Z" fill="var(--fill-0, #2A100F)"/>
<path id="Vector_5" opacity="0.1" d="M37.36 78.8669C28.3395 86.347 6.32797 19.964 2.39746 8.67636C0.966021 4.5916 0.260041 2.78753 0.946984 2.21914C1.62263 1.66577 2.56521 3.25589 4.72851 6.75564C10.7199 16.3381 46.3691 71.4017 37.3712 78.8663L37.36 78.8669Z" fill="var(--fill-0, #2F1614)"/>
<path id="Vector_6" opacity="0.12" d="M36.4788 76.8721C27.6947 84.1529 6.25438 19.5355 2.42304 8.50338C1.01354 4.48983 0.307452 2.7002 0.983115 2.14682C1.64757 1.59397 2.57897 3.18466 4.69784 6.62874C10.5451 15.9868 45.2517 69.6062 36.4788 76.8721Z" fill="var(--fill-0, #351B19)"/>
<path id="Vector_7" opacity="0.15" d="M35.5863 74.8906C27.0388 81.9719 6.18177 19.122 2.42725 8.36126C1.02854 4.41961 0.34479 2.64341 0.997939 2.10559C1.63988 1.5683 2.57135 3.14449 4.65702 6.51775C10.3599 15.6511 44.1113 67.8249 35.5863 74.8906Z" fill="var(--fill-0, #3B201D)"/>
<path id="Vector_8" opacity="0.17" d="M34.7048 72.9119C26.4049 79.7932 6.11958 18.71 2.45301 8.21995C1.07625 4.34959 0.392408 2.58786 1.03435 2.05056C1.665 1.52829 2.58536 3.09054 4.63777 6.40753C10.1963 15.3307 42.9934 66.0311 34.7048 72.9119Z" fill="var(--fill-0, #402622)"/>
<path id="Vector_9" opacity="0.2" d="M33.8235 70.9324C25.7602 77.6143 6.04648 18.298 2.46795 8.06415C1.11316 4.26507 0.440437 2.51727 1.07109 1.99498C1.69044 1.48772 2.61098 3.02103 4.60763 6.29729C10.0219 14.9959 41.8757 64.251 33.8235 70.9324Z" fill="var(--fill-0, #462B27)"/>
<path id="Vector_10" opacity="0.22" d="M32.9414 68.9374C25.1146 75.4198 5.98395 17.8703 2.4934 7.90723C1.16059 4.17947 0.487866 2.43167 1.10713 1.93888C1.71528 1.43215 2.6246 2.966 4.58798 6.18595C9.85786 14.6744 40.7569 62.4701 32.9413 68.9519L32.9414 68.9374Z" fill="var(--fill-0, #4B312C)"/>
<path id="Vector_11" opacity="0.24" d="M32.0492 66.9578C24.4586 73.2409 5.91021 17.4559 2.5076 7.74882C1.1967 4.09224 0.535074 2.35832 1.13195 1.86659C1.71761 1.37539 2.62706 2.89482 4.54603 6.05913C9.67184 14.3232 39.6174 60.6757 32.0493 66.9433L32.0492 66.9578Z" fill="var(--fill-0, #513631)"/>
<path id="Vector_12" opacity="0.27" d="M31.1671 64.9766C23.8245 71.0595 5.83721 17.0437 2.52266 7.60763C1.23378 4.02246 0.572079 2.30307 1.15764 1.82636C1.73199 1.35019 2.63029 2.85564 4.51594 5.96357C9.49732 14.0028 38.4985 58.9086 31.1671 64.9766Z" fill="var(--fill-0, #573C36)"/>
<path id="Vector_13" opacity="0.29" d="M30.2854 62.983C23.1794 68.8664 5.77533 16.6179 2.54881 7.45271C1.27079 3.92495 0.631339 2.23346 1.20559 1.77177C1.76864 1.31062 2.6559 2.78763 4.50826 5.83923C9.3452 13.6682 37.3914 57.0996 30.2966 62.9825L30.2854 62.983Z" fill="var(--fill-0, #5C413B)"/>
<path id="Vector_14" opacity="0.32" d="M29.4042 61.0019C22.5345 66.686 5.7016 16.2029 2.56302 7.2937C1.30693 3.83714 0.667374 2.16006 1.23044 1.6989C1.7823 1.23827 2.65838 2.71586 4.46633 5.7118C9.15916 13.3164 36.2516 55.3044 29.4043 60.9874L29.4042 61.0019Z" fill="var(--fill-0, #624640)"/>
<path id="Vector_15" opacity="0.34" d="M28.5115 59.0221C21.8782 64.5212 5.62846 15.7904 2.57786 7.15199C1.34375 3.76674 0.7153 2.10361 1.25586 1.658C1.79642 1.21238 2.67259 2.6755 4.43606 5.61568C8.99581 12.995 35.1335 53.5381 28.5115 59.0221Z" fill="var(--fill-0, #684C45)"/>
<path id="Vector_16" opacity="0.37" d="M27.631 57.042C21.2453 62.3412 5.56714 15.3623 2.59326 6.99505C1.38109 3.68106 0.75255 2.03237 1.28182 1.60177C1.79988 1.1717 2.67616 2.62037 4.39518 5.50484C8.81063 12.6742 33.9941 51.7584 27.6198 57.0426L27.631 57.042Z" fill="var(--fill-0, #6D514A)"/>
<path id="Vector_17" opacity="0.39" d="M26.7492 55.0473C20.6 60.1469 5.49355 14.9351 2.61883 6.83798C1.42864 3.59529 0.811211 1.96054 1.31798 1.54549C1.82475 1.13043 2.69 2.55068 4.37567 5.39334C8.64686 12.338 32.8758 49.9631 26.7379 55.0623L26.7492 55.0473Z" fill="var(--fill-0, #73574E)"/>
<path id="Vector_18" opacity="0.41" d="M25.8658 53.0683C19.9533 57.9685 5.42997 14.5237 2.64335 6.68299C1.47514 3.51163 0.857626 1.89138 1.36439 1.47633C1.85994 1.06182 2.71398 2.48259 4.36636 5.26893C8.49323 11.9889 31.7784 48.1682 25.877 53.0678L25.8658 53.0683Z" fill="var(--fill-0, #785C53)"/>
<path id="Vector_19" opacity="0.44" d="M24.9756 51.0873C19.2993 55.7881 5.35863 14.1088 2.64869 6.53919C1.49121 3.43959 0.89601 1.83269 1.38028 1.43318C1.86455 1.03367 2.70749 2.44055 4.31545 5.1712C8.29806 11.6812 30.6293 46.4021 24.9643 51.1023L24.9756 51.0873Z" fill="var(--fill-0, #7E6158)"/>
<path id="Vector_20" opacity="0.46" d="M24.0928 49.0924C18.6644 53.593 5.28473 13.6826 2.67406 6.38337C1.53858 3.35517 0.943309 1.76279 1.41627 1.3783C1.87802 0.994353 2.72103 2.38672 4.29575 5.04652C8.13397 11.3317 29.5098 44.6067 24.0928 49.0924Z" fill="var(--fill-0, #84675D)"/>
<path id="Vector_21" opacity="0.49" d="M23.2123 47.1121C18.0202 51.4135 5.22292 13.268 2.68899 6.22532C1.57543 3.2683 0.991249 1.6898 1.44181 1.30637C1.89229 0.937422 2.73542 2.31537 4.25454 4.92006C7.94855 10.9953 28.3819 42.8118 23.2012 47.0982L23.2123 47.1121Z" fill="var(--fill-0, #896C62)"/>
<path id="Vector_22" opacity="0.51" d="M22.3295 45.1333C17.3741 49.2351 5.16014 12.8572 2.71425 6.08546C1.62269 3.19982 1.03844 1.63583 1.4889 1.26689C1.92807 0.91296 2.76015 2.26245 4.24587 4.82527C7.7955 10.6758 27.2737 41.0321 22.3295 45.1333Z" fill="var(--fill-0, #8F7267)"/>
<path id="Vector_23" opacity="0.54" d="M21.4367 43.1537C16.7179 47.056 5.07559 12.4451 2.72895 5.92907C1.65936 3.11472 1.08622 1.56466 1.51419 1.21127C1.94215 0.857878 2.76303 2.20792 4.21549 4.71446C7.62087 10.3403 26.1444 39.2519 21.448 43.1532L21.4367 43.1537Z" fill="var(--fill-0, #94776C)"/>
<path id="Vector_24" opacity="0.56" d="M20.5559 41.1573C16.0846 44.8597 5.01372 12.0149 2.74377 5.76997C1.6849 3.02738 1.12286 1.49121 1.53963 1.13834C1.9451 0.800489 2.7661 2.13609 4.17413 4.58695C7.44646 10.0023 25.016 37.4554 20.5447 41.1578L20.5559 41.1573Z" fill="var(--fill-0, #9A7D71)"/>
<path id="Vector_25" opacity="0.59" d="M19.6737 39.178C15.4389 42.6809 4.95122 11.6032 2.76937 5.61458C1.73248 2.94333 1.17036 1.42165 1.57583 1.0838C1.97 0.760971 2.77986 2.08263 4.15461 4.47716C7.28261 9.66782 23.8972 35.6757 19.6737 39.178Z" fill="var(--fill-0, #A08276)"/>
<path id="Vector_26" opacity="0.61" d="M18.7929 37.198C14.7945 40.516 4.87834 11.1902 2.7844 5.47224C1.76945 2.87222 1.21844 1.36443 1.61262 1.04159C1.9955 0.733766 2.79437 2.02704 4.12468 4.36589C7.10849 9.33203 22.7687 33.8956 18.7816 37.1986L18.7929 37.198Z" fill="var(--fill-0, #A5877B)"/>
<path id="Vector_27" opacity="0.63" d="M17.8996 35.2023C14.1378 38.3207 4.80492 10.7622 2.79899 5.31501C1.80604 2.78635 1.25494 1.29307 1.6379 0.970767C2.00957 0.663482 2.80842 1.95674 4.09423 4.23978C6.93361 8.99567 21.6502 32.0844 17.8996 35.2023Z" fill="var(--fill-0, #AB8D7F)"/>
<path id="Vector_28" opacity="0.66" d="M17.0172 33.224C13.5032 36.1424 4.74204 10.351 2.82417 5.16013C1.85318 2.70277 1.3132 1.22342 1.67366 0.916668C2.03403 0.624398 2.82176 1.90372 4.07431 4.13048C6.76941 8.66173 20.5313 30.3056 17.0285 33.209L17.0172 33.224Z" fill="var(--fill-0, #B09284)"/>
<path id="Vector_29" opacity="0.68" d="M16.1373 31.243C12.8597 33.962 4.67004 9.93704 2.84009 5.01678C1.89103 2.63065 1.35094 1.16572 1.70012 0.873973C2.038 0.597245 2.82585 1.86213 4.03396 4.03321C6.58478 8.35443 19.3924 28.5396 16.1261 31.2435L16.1373 31.243Z" fill="var(--fill-0, #B69889)"/>
<path id="Vector_30" opacity="0.71" d="M15.2543 29.2645C12.2133 31.7839 4.60703 9.52649 2.86521 4.86269C1.92695 2.54849 1.40921 1.09701 1.74708 0.820295C2.07365 0.558591 2.85044 1.79502 4.02514 3.9242C6.43158 8.02062 18.2952 26.7595 15.2655 29.2639L15.2543 29.2645Z" fill="var(--fill-0, #BC9D8E)"/>
<path id="Vector_31" opacity="0.73" d="M14.3638 27.2671C11.5591 29.5872 4.53525 9.09489 2.87006 4.70205C1.9537 2.45899 1.43591 1.00739 1.76251 0.745668C2.07789 0.484481 2.84355 1.72155 3.97387 3.79514C6.23621 7.66721 17.1461 24.948 14.3526 27.2676L14.3638 27.2671Z" fill="var(--fill-0, #C1A293)"/>
<path id="Vector_32" opacity="0.76" d="M13.4813 25.2886C10.9244 27.4086 4.46141 8.6847 2.89545 4.56222C2.00109 2.39052 1.49443 0.952913 1.79851 0.706748C2.10259 0.460583 2.8571 1.68368 3.95413 3.70091C6.07202 7.3627 16.0268 23.1836 13.4812 25.303L13.4813 25.2886Z" fill="var(--fill-0, #C7A898)"/>
<path id="Vector_33" opacity="0.78" d="M12.5999 23.3098C10.2795 25.2303 4.39951 8.27304 2.9216 4.40682C2.0492 2.30642 1.54245 0.883265 1.83524 0.652113C2.11681 0.421498 2.88263 1.62959 3.93528 3.57661C5.9089 7.01378 14.9202 21.3892 12.5999 23.3098Z" fill="var(--fill-0, #CDAD9D)"/>
<path id="Vector_34" opacity="0.8" d="M11.7179 21.33C9.63401 23.0511 4.33681 7.86009 2.93561 4.26505C2.08514 2.23587 1.58949 0.826594 1.87108 0.595969C2.14137 0.380361 2.89611 1.57457 3.90432 3.46591C5.74494 6.67801 13.7905 19.6095 11.7179 21.33Z" fill="var(--fill-0, #D2B3A2)"/>
<path id="Vector_35" opacity="0.83" d="M10.8358 19.3349C8.98853 20.8565 4.26323 7.43294 2.96132 4.09369C2.13283 2.13584 1.63709 0.741042 1.90738 0.525434C2.16646 0.310363 2.91008 1.49063 3.88492 3.34014C5.58114 6.34203 12.6719 17.8138 10.847 19.3343L10.8358 19.3349Z" fill="var(--fill-0, #D8B8A7)"/>
<path id="Vector_36" opacity="0.85" d="M9.9451 17.3533C8.34546 18.675 4.19172 7.01802 2.96649 3.94988C2.1487 2.06374 1.67525 0.682241 1.92305 0.482172C2.17085 0.282103 2.90341 1.44852 3.83385 3.2424C5.38589 6.01983 11.5335 16.0322 9.93381 17.3684L9.9451 17.3533Z" fill="var(--fill-0, #DDBEAC)"/>
<path id="Vector_37" opacity="0.88" d="M9.06301 15.3742C7.69978 16.5108 4.12913 6.59139 2.99183 3.79391C2.19596 1.97899 1.72239 0.611885 1.959 0.412342C2.19552 0.227279 2.917 1.37982 3.81422 3.1175C5.22194 5.68486 10.415 14.238 9.0631 15.3597L9.06301 15.3742Z" fill="var(--fill-0, #E3C3B0)"/>
<path id="Vector_38" opacity="0.9" d="M8.17936 13.3811C7.05273 14.3182 4.05406 6.16647 3.01597 3.63929C2.24208 1.89569 1.77962 0.542521 2.00493 0.357996C2.21894 0.188489 2.94051 1.32655 3.80446 3.00793C5.06785 5.35058 9.30589 12.4584 8.19057 13.3805L8.17936 13.3811Z" fill="var(--fill-0, #E9C8B5)"/>
<path id="Vector_39" opacity="0.93" d="M7.2985 11.4001C6.41968 12.1371 3.99294 5.75305 3.03163 3.49721C2.2797 1.82491 1.81715 0.486203 2.03116 0.316693C2.23387 0.162202 2.95564 1.27133 3.76389 2.89749C4.88298 5.01547 8.17724 10.6775 7.2985 11.4001Z" fill="var(--fill-0, #EECEBA)"/>
<path id="Vector_40" opacity="0.95" d="M6.40696 9.42027C5.76463 9.95785 3.92075 5.34021 3.04736 3.34039C2.31727 1.73914 1.86576 0.414136 2.05729 0.260156C2.24883 0.106176 2.95951 1.21604 3.73464 2.78617C4.70949 4.69425 7.0493 8.88268 6.40696 9.42027Z" fill="var(--fill-0, #F4D3BF)"/>
<path id="Vector_41" opacity="0.98" d="M5.52533 7.43612C5.11968 7.7741 3.84796 4.92476 3.06263 3.19594C2.35455 1.66614 1.90297 0.355699 2.08328 0.202268C2.2635 0.0633193 2.96304 1.15917 3.69364 2.67342C4.52409 4.35663 5.90856 7.09922 5.51412 7.43666L5.52533 7.43612Z" fill="var(--fill-0, #F9D9C4)"/>
<path id="Vector_42" d="M4.64289 5.44181C4.47385 5.58024 3.78533 4.49818 3.08799 3.02555C2.39057 1.56741 1.96125 0.270195 2.11907 0.132302C2.27681 0.00889414 2.97655 1.09042 3.67397 2.54856C4.36018 4.00724 4.80071 5.30392 4.64289 5.44181Z" fill="var(--fill-0, #FFDEC9)"/>
</g>
</svg>
