<svg preserveAspectRatio="none" width="100%" height="100%" overflow="visible" style="display: block;" viewBox="0 0 37.6502 94.0654" fill="none" xmlns="http://www.w3.org/2000/svg">
<g id="Group" style="mix-blend-mode:screen" opacity="0.2">
<path id="Vector" opacity="0" d="M2.50743 2.06044C13.1413 -5.10274 32.3021 72.1288 35.7106 85.1297C36.9208 89.7428 37.5224 91.7055 36.7352 92.2258C35.9593 92.7456 35.0954 90.9563 33.0294 86.9252C27.1906 75.5616 -8.10371 9.22255 2.50743 2.06044Z" fill="var(--fill-0, #190000)"/>
<path id="Vector_2" opacity="0.02" d="M3.26455 4.17082C13.6476 -2.81955 32.3543 72.5458 35.6963 85.2865C36.8844 89.8129 37.4859 91.7756 36.7101 92.2954C35.9456 92.8146 35.0929 91.0394 33.0607 87.0506C27.3567 75.9147 -7.09566 11.1455 3.26455 4.17082Z" fill="var(--fill-0, #1F0505)"/>
<path id="Vector_3" opacity="0.05" d="M4.02275 6.26641C14.1435 -0.550563 32.4072 72.9621 35.6715 85.4137C36.8486 89.8674 37.4389 91.8161 36.6859 92.3201C35.9328 92.8241 35.0914 91.0631 33.0928 87.1458C27.5123 76.253 -6.07514 13.0677 4.02275 6.26641Z" fill="var(--fill-0, #240B0A)"/>
<path id="Vector_4" opacity="0.07" d="M4.78039 8.36165C14.6499 1.71763 32.4474 73.3775 35.6567 85.5388C36.8229 89.9198 37.4019 91.8543 36.6603 92.3432C35.9301 92.8315 35.0886 91.085 33.1237 87.2395C27.6668 76.5898 -5.0663 14.99 4.78039 8.36165Z" fill="var(--fill-0, #2A100F)"/>
<path id="Vector_5" opacity="0.1" d="M5.53701 10.4571C15.1554 3.986 32.4984 73.7932 35.6411 85.6794C36.7851 89.9883 37.3642 91.8935 36.6454 92.3812C35.9266 92.869 35.0963 91.1367 33.1653 87.3335C27.8205 76.9274 -4.05861 16.9125 5.53701 10.4571Z" fill="var(--fill-0, #2F1614)"/>
<path id="Vector_6" opacity="0.12" d="M6.28417 12.5502C15.6405 6.25243 32.541 74.1935 35.6059 85.8201C36.739 90.0564 37.3069 91.9475 36.5995 92.4201C35.8921 92.8927 35.0617 91.175 33.1756 87.4428C27.9883 77.2633 -3.04945 18.847 6.28417 12.5502Z" fill="var(--fill-0, #351B19)"/>
<path id="Vector_7" opacity="0.15" d="M7.04157 14.646C16.1469 8.52108 32.5928 74.6095 35.5913 85.9464C36.7134 90.11 37.2701 91.987 36.574 92.4591C35.8781 92.9165 35.0589 91.2275 33.2066 87.5523C28.1429 77.6012 -2.04098 20.7698 7.04157 14.646Z" fill="var(--fill-0, #3B201D)"/>
<path id="Vector_8" opacity="0.17" d="M7.79894 16.7418C16.6531 10.7898 32.6445 75.0255 35.5765 86.0873C36.6764 90.1787 37.2331 92.0411 36.5599 92.4975C35.8867 92.9538 35.0675 91.2648 33.2489 87.6466C28.2973 77.9538 -1.03253 22.6927 7.79894 16.7418Z" fill="var(--fill-0, #402622)"/>
<path id="Vector_9" opacity="0.2" d="M8.55725 18.8354C17.1492 13.0567 32.6978 75.4402 35.5521 86.213C36.641 90.2318 37.1865 92.0802 36.5247 92.5213C35.8629 92.9625 35.0551 91.2876 33.2701 87.7409C28.4646 78.29 -0.0119933 24.6129 8.55725 18.8354Z" fill="var(--fill-0, #462B27)"/>
<path id="Vector_10" opacity="0.22" d="M9.31364 20.9318C17.6546 15.3114 32.7485 75.8568 35.5363 86.3545C36.6031 90.2865 37.1599 92.1343 36.4982 92.5608C35.8478 93.0014 35.0512 91.3407 33.2999 87.8509C28.6181 78.6285 0.995483 26.5364 9.31364 20.9318Z" fill="var(--fill-0, #4B312C)"/>
<path id="Vector_11" opacity="0.24" d="M10.0712 23.0271C18.1609 17.5797 32.7886 76.2573 35.5212 86.4793C36.577 90.3385 37.1226 92.1575 36.4837 92.5829C35.8561 93.0078 35.0481 91.3623 33.342 87.929C28.7723 78.965 2.00428 28.4734 10.0712 23.0271Z" fill="var(--fill-0, #513631)"/>
<path id="Vector_12" opacity="0.27" d="M10.8299 25.1217C18.6574 19.8477 32.8423 76.6731 35.497 86.6207C36.5419 90.4073 37.0763 92.2122 36.4487 92.6371C35.8326 93.0469 35.0357 91.43 33.3633 88.0537C28.9285 79.3174 3.01379 30.3952 10.8184 25.1369L10.8299 25.1217Z" fill="var(--fill-0, #573C36)"/>
<path id="Vector_13" opacity="0.29" d="M11.5759 27.232C19.1524 22.1308 32.8829 77.1041 35.4713 86.7622C36.494 90.4766 37.0284 92.2669 36.4237 92.6761C35.8189 93.0853 35.0334 91.4679 33.3947 88.1486C29.0947 79.6547 4.02217 32.3175 11.5759 27.232Z" fill="var(--fill-0, #5C413B)"/>
<path id="Vector_14" opacity="0.32" d="M12.3337 29.3265C19.659 24.3983 32.9348 77.5183 35.4453 86.8871C36.457 90.5288 36.9802 92.3049 36.3869 92.699C35.7936 93.093 35.0194 91.4897 33.4144 88.242C29.238 79.9767 5.0198 34.2396 12.3224 29.3124L12.3337 29.3265Z" fill="var(--fill-0, #624640)"/>
<path id="Vector_15" opacity="0.34" d="M13.0914 31.4222C20.1543 26.6674 32.9871 77.9199 35.4311 87.0283C36.4319 90.5974 36.9438 92.3594 36.362 92.7383C35.7915 93.1166 35.0171 91.5426 33.4458 88.3518C29.3929 80.3295 6.03975 36.1765 13.08 31.4227L13.0914 31.4222Z" fill="var(--fill-0, #684C45)"/>
<path id="Vector_16" opacity="0.37" d="M13.8472 33.5178C20.6593 28.9357 33.038 78.3368 35.4157 87.1557C36.3942 90.6527 36.9062 92.4001 36.3471 92.7779C35.788 93.1557 35.0135 91.5817 33.4873 88.4473C29.5692 80.6673 7.05784 38.084 13.8472 33.5178Z" fill="var(--fill-0, #6D514A)"/>
<path id="Vector_17" opacity="0.39" d="M14.6063 35.6113C21.156 31.2027 33.0915 78.7506 35.3913 87.295C36.359 90.7193 36.8597 92.4526 36.312 92.8152C35.7643 93.1778 35.0011 91.6326 33.5086 88.5551C29.714 81.0183 8.05657 40.0199 14.5949 35.6118L14.6063 35.6113Z" fill="var(--fill-0, #73574E)"/>
<path id="Vector_18" opacity="0.41" d="M15.3628 37.7073C21.6616 33.4716 33.1314 79.1679 35.3762 87.4222C36.333 90.7592 36.8225 92.4784 36.2975 92.8399C35.7727 93.1868 35.0093 91.6562 33.5505 88.6503C29.8907 81.3413 9.0868 41.942 15.3628 37.7073Z" fill="var(--fill-0, #785C53)"/>
<path id="Vector_19" opacity="0.44" d="M16.1096 39.8017C22.1573 35.7389 33.1728 79.5682 35.3511 87.5621C36.2856 90.827 36.7751 92.5316 36.2616 92.8779C35.7481 93.2243 34.9962 91.6931 33.571 88.7442C30.0348 81.6782 10.0845 43.8635 16.1096 39.8017Z" fill="var(--fill-0, #7E6158)"/>
<path id="Vector_20" opacity="0.46" d="M16.8684 41.8961C22.6537 37.9921 33.2257 79.9822 35.3262 87.6869C36.2498 90.8791 36.728 92.5695 36.226 92.9007C35.724 93.2318 34.9832 91.7294 33.5918 88.8376C30.1791 82.0147 11.0833 45.7708 16.8572 41.8819L16.8684 41.8961Z" fill="var(--fill-0, #84675D)"/>
<path id="Vector_21" opacity="0.49" d="M17.6248 43.9921C23.1594 40.2609 33.2774 80.4001 35.3115 87.8301C36.2129 90.9502 36.6913 92.6261 36.2119 92.9562C35.7326 93.2863 34.9804 91.7844 33.634 88.9634C30.356 82.3828 12.1015 47.7228 17.6247 44.0068L17.6248 43.9921Z" fill="var(--fill-0, #896C62)"/>
<path id="Vector_22" opacity="0.51" d="M18.3822 46.0871C23.6656 42.5288 33.3291 80.8151 35.2967 87.9553C36.1872 91.0027 36.6543 92.6645 36.1864 92.9794C35.7186 93.2943 34.9775 91.8212 33.665 89.0426C30.5106 82.6905 13.1215 49.6297 18.3822 46.0871Z" fill="var(--fill-0, #8F7267)"/>
<path id="Vector_23" opacity="0.54" d="M19.1403 48.1819C24.1612 44.797 33.3813 81.215 35.271 88.0953C36.1505 91.07 36.6177 92.7171 36.15 93.0174C35.6936 93.3171 34.9638 91.8581 33.685 89.1511C30.6655 83.0416 14.1193 51.5667 19.1289 48.1824L19.1403 48.1819Z" fill="var(--fill-0, #94776C)"/>
<path id="Vector_24" opacity="0.56" d="M19.8969 50.2937C24.6668 47.0817 33.4212 81.648 35.2559 88.2381C36.1131 91.1407 36.5805 92.7585 36.1355 93.0577C35.6904 93.3569 34.9721 91.8973 33.7268 89.262C30.8308 83.3954 15.1384 53.4905 19.8969 50.2937Z" fill="var(--fill-0, #9A7D71)"/>
<path id="Vector_25" opacity="0.59" d="M20.6545 52.3894C25.1735 49.3503 33.4735 82.0643 35.2417 88.3794C36.088 91.2093 36.5441 92.813 36.1105 93.0971C35.6883 93.3805 34.9698 91.9502 33.7583 89.3572C30.9858 83.7337 16.1584 55.4128 20.6545 52.3894Z" fill="var(--fill-0, #A08276)"/>
<path id="Vector_26" opacity="0.61" d="M21.4016 54.4831C25.6583 51.6174 33.5153 82.4789 35.2058 88.505C36.0414 91.2476 36.4862 92.8519 36.0753 93.1349C35.6645 93.4032 34.9572 91.987 33.7793 89.4655C31.1417 84.0697 17.1563 57.3483 21.4016 54.4831Z" fill="var(--fill-0, #A5877B)"/>
<path id="Vector_27" opacity="0.63" d="M22.1588 56.5785C26.1645 53.8857 33.5672 82.8801 35.1911 88.6459C36.0044 91.3164 36.4492 92.9061 36.0498 93.1739C35.6504 93.4416 34.943 92.04 33.8102 89.575C31.296 84.4222 18.1644 59.2854 22.1587 56.5931L22.1588 56.5785Z" fill="var(--fill-0, #AB8D7F)"/>
<path id="Vector_28" opacity="0.66" d="M22.9162 58.6738C26.6707 56.1539 33.6186 83.2951 35.1761 88.7711C35.9785 91.3689 36.412 92.9444 36.0241 93.197C35.6475 93.449 34.94 92.0621 33.841 89.654C31.4618 84.744 19.1732 61.1785 22.9162 58.6738Z" fill="var(--fill-0, #B09284)"/>
<path id="Vector_29" opacity="0.68" d="M23.6739 60.7682C27.1662 58.4217 33.6713 83.7107 35.1511 88.9124C35.9425 91.4375 36.3648 92.9991 35.9997 93.2359C35.6345 93.4728 34.9383 92.0999 33.8729 89.7634C31.617 85.0962 20.193 63.1142 23.6739 60.7682Z" fill="var(--fill-0, #B69889)"/>
<path id="Vector_30" opacity="0.71" d="M24.4309 62.8638C27.6721 60.6901 33.7114 84.1273 35.1361 89.0387C35.9053 91.4918 36.3278 93.0387 35.974 93.275C35.6202 93.5114 34.9352 92.1526 33.9036 89.8583C31.7713 85.4195 21.201 65.0369 24.4309 62.8638Z" fill="var(--fill-0, #BC9D8E)"/>
<path id="Vector_31" opacity="0.73" d="M25.1878 64.9594C28.1668 62.9445 33.7629 84.5285 35.1211 89.1796C35.8794 91.56 36.2906 93.0782 35.9482 93.314C35.6058 93.5352 34.9321 92.1905 33.9341 89.9678C31.9367 85.7715 22.2089 66.9742 25.1877 64.974L25.1878 64.9594Z" fill="var(--fill-0, #C1A293)"/>
<path id="Vector_32" opacity="0.76" d="M25.946 67.054C28.674 65.212 33.8158 84.9439 35.0962 89.3059C35.8323 91.6143 36.2436 93.1178 35.924 93.3379C35.6045 93.5434 34.9192 92.2284 33.9663 90.0621C32.0923 86.1088 23.2295 68.8955 25.946 67.054Z" fill="var(--fill-0, #C7A898)"/>
<path id="Vector_33" opacity="0.78" d="M26.6923 69.1487C29.1692 67.4796 33.8565 85.3589 35.0705 89.446C35.7956 91.6816 36.1957 93.1711 35.8875 93.376C35.5794 93.581 34.9054 92.2655 33.9862 90.1561C32.2471 86.4453 24.2269 70.8027 26.6923 69.1487Z" fill="var(--fill-0, #CDAD9D)"/>
<path id="Vector_34" opacity="0.8" d="M27.4508 71.2434C29.6653 69.7477 33.9094 85.7738 35.0455 89.5717C35.7599 91.72 36.1486 93.2101 35.8633 93.3993C35.5666 93.589 34.9039 92.2876 34.0183 90.2498C32.4028 86.7674 25.2364 72.7244 27.4508 71.2434Z" fill="var(--fill-0, #D2B3A2)"/>
<path id="Vector_35" opacity="0.83" d="M28.2079 73.3544C30.1714 72.0316 33.9613 86.191 35.031 89.7287C35.7232 91.805 36.112 93.2806 35.838 93.4692C35.564 93.6579 34.9011 92.371 34.0493 90.3901C32.5571 87.1506 26.2443 74.6919 28.2078 73.3691L28.2079 73.3544Z" fill="var(--fill-0, #D8B8A7)"/>
<path id="Vector_36" opacity="0.85" d="M28.9655 75.4499C30.6779 74.3001 34.0132 86.6065 35.0165 89.8545C35.6977 91.8581 36.0753 93.3196 35.8128 93.493C35.5502 93.6665 34.8986 92.3938 34.0805 90.4698C32.7232 87.4728 27.2645 76.5993 28.9655 75.4499Z" fill="var(--fill-0, #DDBEAC)"/>
<path id="Vector_37" opacity="0.88" d="M29.7225 77.5448C31.1724 76.5684 34.0529 87.0215 34.9897 89.9798C35.6601 91.9107 36.0377 93.3575 35.7866 93.5158C35.5355 93.6741 34.8838 92.4306 34.1107 90.5631C32.877 87.8093 28.2727 78.5065 29.7225 77.5448Z" fill="var(--fill-0, #E3C3B0)"/>
<path id="Vector_38" opacity="0.9" d="M30.4798 79.6411C31.6786 78.8376 34.1045 87.4381 34.975 90.1214C35.6231 91.9803 36.001 93.3979 35.7612 93.5557C35.5328 93.7129 34.881 92.4693 34.1416 90.6733C33.0428 88.1473 29.281 80.4446 30.4798 79.6411Z" fill="var(--fill-0, #E9C8B5)"/>
<path id="Vector_39" opacity="0.93" d="M31.2258 81.7365C32.1735 81.1059 34.1448 87.8385 34.9487 90.2467C35.5859 92.0329 35.9525 93.4364 35.7356 93.5785C35.5187 93.7205 34.8781 92.4911 34.1724 90.752C33.1972 88.4691 30.3011 82.3513 31.2259 81.7218L31.2258 81.7365Z" fill="var(--fill-0, #EECEBA)"/>
<path id="Vector_40" opacity="0.95" d="M31.9852 83.8299C32.6704 83.3727 34.1986 88.2522 34.9248 90.3861C35.5512 92.0999 35.9066 93.4895 35.701 93.631C35.4955 93.7579 34.866 92.557 34.1939 90.8747C33.342 88.8346 31.2999 84.3016 31.9737 83.8451L31.9852 83.8299Z" fill="var(--fill-0, #F4D3BF)"/>
<path id="Vector_41" opacity="0.98" d="M32.7422 85.9255C33.1761 85.6268 34.2491 88.6666 34.9087 90.5102C35.5127 92.1514 35.8682 93.526 35.6741 93.6523C35.48 93.7787 34.8619 92.5775 34.2236 90.9672C33.5069 89.1702 32.3083 86.2096 32.7308 85.926L32.7422 85.9255Z" fill="var(--fill-0, #F9D9C4)"/>
<path id="Vector_42" d="M33.4985 88.0223C33.6813 87.8965 34.2997 89.0834 34.893 90.6524C35.4865 92.2067 35.8307 93.5823 35.6594 93.6929C35.4881 93.8035 34.8582 92.6318 34.2648 91.0628C33.6715 89.4939 33.3271 88.1329 33.4985 88.0223Z" fill="var(--fill-0, #FFDEC9)"/>
</g>
</svg>
