<svg preserveAspectRatio="none" width="100%" height="100%" overflow="visible" style="display: block;" viewBox="0 0 29.9452 11.3325" fill="none" xmlns="http://www.w3.org/2000/svg">
<g id="Group" style="mix-blend-mode:screen" opacity="0.2">
<path id="Vector" opacity="0.02" d="M29.8985 1.06816C31.1526 5.41192 6.78877 10.9328 2.44594 11.2892C0.880922 11.4241 0.107248 11.2293 0.0109217 10.9081C-0.0854044 10.5869 0.450422 9.95448 1.8181 9.12655C5.59333 6.80513 28.6496 -3.26515 29.8959 1.07221L29.8985 1.06816Z" fill="var(--fill-0, #1F0505)"/>
<path id="Vector_2" opacity="0.05" d="M29.333 1.25476C30.5559 5.49249 6.76803 10.8879 2.49205 11.2474C0.924551 11.3935 0.131441 11.2156 0.042028 10.8936C-0.0505155 10.5756 0.506767 9.94802 1.88201 9.12649C5.60527 6.8477 28.1174 -2.97658 29.3363 1.25071L29.333 1.25476Z" fill="var(--fill-0, #240B0A)"/>
<path id="Vector_3" opacity="0.07" d="M28.763 1.4454C29.9552 5.5771 6.74305 10.8469 2.53066 11.2137C0.960743 11.371 0.151332 11.206 0.0625713 10.8912C-0.0292547 10.5804 0.549421 9.95762 1.92851 9.13935C5.60351 6.90632 27.5709 -2.67912 28.7591 1.44214L28.763 1.4454Z" fill="var(--fill-0, #2A100F)"/>
<path id="Vector_4" opacity="0.1" d="M28.1963 1.63219C29.3572 5.65793 6.72147 10.8021 2.57579 11.1721C0.999618 11.3374 0.177745 11.1885 0.0934191 10.8841C0.00224518 10.5805 0.601723 9.9554 1.99216 9.14673C5.61518 6.95627 27.042 -2.38714 28.1963 1.63219Z" fill="var(--fill-0, #2F1614)"/>
<path id="Vector_5" opacity="0.12" d="M27.6289 1.81859C28.7591 5.7383 6.69916 10.757 2.61714 11.134C1.03855 11.3107 0.200311 11.1745 0.119898 10.8734C0.0324416 10.5731 0.650245 9.95677 2.04831 9.1545C5.61622 7.01066 26.5026 -2.09073 27.6289 1.81859Z" fill="var(--fill-0, #351B19)"/>
<path id="Vector_6" opacity="0.15" d="M27.0589 2.00931C28.1617 5.81907 6.67457 10.7162 2.66311 11.0996C1.08198 11.2875 0.231354 11.1675 0.147746 10.8704C0.0610064 10.5772 0.69955 9.95847 2.10518 9.16266C5.62105 7.06139 25.9665 -1.79797 27.0589 2.00931Z" fill="var(--fill-0, #3B201D)"/>
<path id="Vector_7" opacity="0.17" d="M26.4922 2.19584C27.5644 5.89957 6.65325 10.6711 2.70851 11.0577C1.12497 11.2569 0.258029 11.1497 0.175073 10.8598C0.0890509 10.5739 0.748986 9.95997 2.16225 9.17056C5.62614 7.11192 25.4278 -1.50143 26.4922 2.19584Z" fill="var(--fill-0, #402622)"/>
<path id="Vector_8" opacity="0.2" d="M25.9215 2.38655C26.9585 5.98105 6.62344 10.627 2.7462 11.0241C1.16018 11.2345 0.276942 11.1401 0.194638 10.8574C0.112398 10.5748 0.790008 9.96245 2.21462 9.18263C5.6234 7.17062 24.8878 -1.20469 25.9215 2.38655Z" fill="var(--fill-0, #462B27)"/>
<path id="Vector_9" opacity="0.22" d="M25.3548 2.57314C26.3611 6.06161 6.60212 10.582 2.79159 10.9822C1.20316 11.2039 0.303552 11.1224 0.228943 10.8461C0.147356 10.5707 0.846422 9.96311 2.27481 9.18655C5.63155 7.2171 24.3524 -0.912128 25.3548 2.57314Z" fill="var(--fill-0, #4B312C)"/>
<path id="Vector_10" opacity="0.24" d="M24.7887 2.75987C25.7644 6.14237 6.58105 10.5371 2.83725 10.9406C1.24255 11.1702 0.330552 11.1049 0.256531 10.8358C0.175596 10.5676 0.899247 9.96088 2.33207 9.19471C5.64068 7.2711 23.817 -0.619372 24.7887 2.75987Z" fill="var(--fill-0, #513631)"/>
<path id="Vector_11" opacity="0.27" d="M24.2187 2.95038C25.1637 6.22686 6.55614 10.4961 2.87605 10.9067C1.27888 11.1476 0.350506 11.095 0.277201 10.8333C0.200115 10.5683 0.938247 9.96709 2.38562 9.2066C5.63905 7.3296 23.2745 -0.318911 24.2154 2.95437L24.2187 2.95038Z" fill="var(--fill-0, #573C36)"/>
<path id="Vector_12" opacity="0.29" d="M23.6509 3.13718C24.565 6.30762 6.53358 10.4513 2.92021 10.8651C1.32368 11.1132 0.379725 11.0807 0.30642 10.819C0.229986 10.5612 0.992641 9.96082 2.44451 9.21078C5.64597 7.37635 22.7407 -0.0301351 23.6509 3.13718Z" fill="var(--fill-0, #5C413B)"/>
<path id="Vector_13" opacity="0.32" d="M23.085 3.32377C23.9683 6.38819 6.50957 10.4103 2.96612 10.8232C1.36718 11.0826 0.406921 11.063 0.334269 10.8085C0.258486 10.5579 1.03881 9.95919 2.50138 9.2115C5.65079 7.4197 22.2018 0.259291 23.0842 3.31653L23.085 3.32377Z" fill="var(--fill-0, #624640)"/>
<path id="Vector_14" opacity="0.34" d="M22.5152 3.51442C23.3674 6.47287 6.48492 10.3694 3.00505 10.7895C1.4037 11.0602 0.427138 11.0534 0.358921 10.8093C0.286986 10.562 1.0887 9.968 2.55577 9.23082C5.6532 7.48159 21.6635 0.563212 22.512 3.51847L22.5152 3.51442Z" fill="var(--fill-0, #684C45)"/>
<path id="Vector_15" opacity="0.37" d="M21.9474 3.70108C22.7689 6.5535 6.46229 10.3244 3.05299 10.7509C1.44916 11.0329 0.456291 11.039 0.388791 10.8021C0.317508 10.562 1.1369 9.96963 2.61844 9.238C5.66077 7.53539 21.1335 0.854991 21.9512 3.70428L21.9474 3.70108Z" fill="var(--fill-0, #6D514A)"/>
<path id="Vector_16" opacity="0.39" d="M21.378 3.89166C22.1686 6.63812 6.43803 10.2834 3.09544 10.7131C1.48536 11.0031 0.48003 11.0253 0.416312 10.7916C0.345682 10.5587 1.18653 9.97113 2.67185 9.24277C5.66592 7.58592 20.5912 1.1484 21.3811 3.88761L21.378 3.89166Z" fill="var(--fill-0, #73574E)"/>
<path id="Vector_17" opacity="0.41" d="M20.8115 4.07813C21.5713 6.71855 6.4167 10.2383 3.13777 10.6753C1.52527 10.9765 0.50742 11.0147 0.440572 10.785C0.373724 10.5553 1.23603 9.97264 2.72892 9.2506C5.671 7.63639 20.0555 1.4409 20.8115 4.07813Z" fill="var(--fill-0, #785C53)"/>
<path id="Vector_18" opacity="0.44" d="M20.2408 4.26152C20.9696 6.79599 6.39107 10.1901 3.17885 10.6302C1.56388 10.9427 0.529789 10.9938 0.463594 10.7713C0.397463 10.5489 1.27737 9.96774 2.78168 9.25543C5.66859 7.68784 19.5125 1.73431 20.2408 4.26152Z" fill="var(--fill-0, #7E6158)"/>
<path id="Vector_19" opacity="0.46" d="M19.6714 4.45217C20.3694 6.88067 6.36681 10.1492 3.22138 10.5925C1.60399 10.9162 0.553529 10.9802 0.494963 10.7641C0.429485 10.5489 1.33392 9.96858 2.84207 9.25941C5.67701 7.73445 18.9802 2.02295 19.6745 4.44819L19.6714 4.45217Z" fill="var(--fill-0, #84675D)"/>
<path id="Vector_20" opacity="0.49" d="M19.1051 4.6387C19.7754 6.95712 6.34562 10.1041 3.26383 10.5546C1.64396 10.8896 0.577269 10.9664 0.519356 10.7576C0.461443 10.5488 1.37664 9.97087 2.89614 9.27136C5.6791 7.78891 18.4386 2.32348 19.1051 4.6387Z" fill="var(--fill-0, #896C62)"/>
<path id="Vector_21" opacity="0.51" d="M18.5383 4.82543C19.1778 7.03782 6.32396 10.0593 3.30896 10.513C1.68662 10.8591 0.603551 10.9488 0.546355 10.7472C0.489094 10.5457 1.42887 9.96852 2.95287 9.27946C5.68379 7.83963 17.9025 2.61617 18.5383 4.82543Z" fill="var(--fill-0, #8F7267)"/>
<path id="Vector_22" opacity="0.54" d="M17.967 5.01601C18.5756 7.12243 6.29781 10.0183 3.3464 10.4792C1.71786 10.8334 0.626121 10.9424 0.565729 10.7448C0.509186 10.5504 1.47036 9.97812 3.00127 9.28828C5.67708 7.895 17.3552 2.91363 17.9601 5.01686L17.967 5.01601Z" fill="var(--fill-0, #94776C)"/>
<path id="Vector_23" opacity="0.56" d="M17.4013 5.20254C17.9792 7.20294 6.27733 9.97322 3.3927 10.4373C1.76162 10.8027 0.650508 10.9286 0.597095 10.7302C0.544335 10.5391 1.52312 9.96833 3.06231 9.29213C5.68992 7.94469 16.8236 3.20214 17.3976 5.19934L17.4013 5.20254Z" fill="var(--fill-0, #9A7D71)"/>
<path id="Vector_24" opacity="0.59" d="M16.834 5.38927C17.3809 7.2837 6.25509 9.92837 3.43718 10.3956C1.80368 10.7723 0.676267 10.911 0.627289 10.7231C0.575245 10.5392 1.57548 9.97329 3.12537 9.29944C5.70094 7.99463 16.2908 3.4981 16.8371 5.38528L16.834 5.38927Z" fill="var(--fill-0, #A08276)"/>
<path id="Vector_25" opacity="0.61" d="M16.2647 5.58004C16.7808 7.36844 6.2309 9.88756 3.48049 10.3652C1.84451 10.7532 0.700787 10.9047 0.652526 10.724C0.601069 10.5474 1.62211 9.97904 3.18029 9.31883C5.70068 8.06064 15.753 3.80208 16.2654 5.58729L16.2647 5.58004Z" fill="var(--fill-0, #A5877B)"/>
<path id="Vector_26" opacity="0.63" d="M15.6973 5.76651C16.1825 7.44888 6.20866 9.84245 3.52496 10.3232C1.88657 10.7224 0.726549 10.8869 0.682071 10.7094C0.634462 10.5359 1.67376 9.97642 3.23885 9.31543C5.70726 8.09981 15.2158 4.08727 15.7004 5.76246L15.6973 5.76651Z" fill="var(--fill-0, #AB8D7F)"/>
<path id="Vector_27" opacity="0.66" d="M15.1262 5.95722C15.5806 7.53356 6.18264 9.80158 3.56573 10.2856C1.92492 10.696 0.748596 10.8732 0.704769 10.703C0.657813 10.5368 1.71792 9.97485 3.29123 9.32751C5.70766 8.15446 14.6756 4.38401 15.1262 5.95722Z" fill="var(--fill-0, #B09284)"/>
<path id="Vector_28" opacity="0.68" d="M14.5608 6.14401C14.9844 7.61445 6.16242 9.75679 3.60909 10.248C1.96203 10.6665 0.777029 10.863 0.730072 10.6968C0.683768 10.5378 1.76533 9.98067 3.3494 9.33574C5.71379 8.20532 14.1411 4.67683 14.5608 6.14401Z" fill="var(--fill-0, #B69889)"/>
<path id="Vector_29" opacity="0.71" d="M13.9936 6.33028C14.3863 7.69469 6.14031 9.71148 3.65377 10.2058C2.00422 10.6356 0.802922 10.845 0.760466 10.6892C0.718009 10.5334 1.82097 9.98106 3.40568 9.34338C5.71875 8.26277 13.6015 4.97311 13.9936 6.33028Z" fill="var(--fill-0, #BC9D8E)"/>
<path id="Vector_30" opacity="0.73" d="M13.4244 6.52112C13.7863 7.7795 6.11247 9.66754 3.69649 10.1683C2.0476 10.6052 0.826856 10.8315 0.788182 10.6789C0.746378 10.5304 1.86701 9.97962 3.4662 9.34756C5.72729 8.30959 13.0694 5.26195 13.4275 6.51714L13.4244 6.52112Z" fill="var(--fill-0, #C1A293)"/>
<path id="Vector_31" opacity="0.76" d="M12.8571 6.70772C13.1882 7.86007 6.09035 9.62256 3.73796 10.1305C2.08666 10.5787 0.849615 10.8178 0.811658 10.6725C0.770506 10.5311 1.91252 9.98524 3.51935 9.35957C5.72846 8.36417 12.5268 5.56254 12.8571 6.70772Z" fill="var(--fill-0, #C7A898)"/>
<path id="Vector_32" opacity="0.78" d="M12.2908 6.89438C12.5872 7.93757 6.06916 9.57764 3.78362 10.0888C2.12984 10.5482 0.876487 10.8002 0.839183 10.6621C0.801814 10.524 1.96151 9.97969 3.57283 9.36447C5.72677 8.41562 11.9875 5.85204 12.2839 6.89523L12.2908 6.89438Z" fill="var(--fill-0, #CDAD9D)"/>
<path id="Vector_33" opacity="0.8" d="M11.7209 7.08515C11.9865 8.02232 6.04438 9.53683 3.82555 10.0511C2.16929 10.5218 0.903483 10.7899 0.866113 10.6518C0.829461 10.5209 2.01062 9.98132 3.63264 9.36852C5.73453 8.4623 11.4516 6.14473 11.7202 7.07791L11.7209 7.08515Z" fill="var(--fill-0, #D2B3A2)"/>
<path id="Vector_34" opacity="0.83" d="M11.1517 7.27142C11.3896 8.09864 6.01725 9.49557 3.86892 10.0162C2.20646 10.4949 0.928136 10.7792 0.895266 10.6514C0.859266 10.5278 2.06494 9.98902 3.69146 9.38666C5.74137 8.52308 10.9177 6.44754 11.1555 7.27469L11.1517 7.27142Z" fill="var(--fill-0, #D8B8A7)"/>
<path id="Vector_35" opacity="0.85" d="M10.5833 7.46233C10.7903 8.18345 5.9939 9.45482 3.91235 9.9787C2.24742 10.4687 0.952857 10.7657 0.920639 10.6452C0.888422 10.5248 2.10864 9.9917 3.74964 9.39489C5.74757 8.57388 10.3801 6.74441 10.5871 7.46553L10.5833 7.46233Z" fill="var(--fill-0, #DDBEAC)"/>
<path id="Vector_36" opacity="0.88" d="M10.0173 7.6488C10.1934 8.26395 5.97303 9.40978 3.95514 9.94084C2.28773 10.4421 0.976857 10.7519 0.945357 10.6387C0.913792 10.5254 2.15853 9.99314 3.80025 9.40357C5.74685 8.63238 9.83807 7.03769 10.0142 7.65284L10.0173 7.6488Z" fill="var(--fill-0, #E3C3B0)"/>
<path id="Vector_37" opacity="0.9" d="M9.4497 7.83526C9.59501 8.34445 5.9506 9.36466 3.99942 9.89892C2.3296 10.4114 1.00242 10.7341 0.974705 10.624C0.943857 10.5181 2.2062 9.98733 3.8624 9.40344C5.75703 8.67482 9.30447 7.32614 9.45284 7.83128L9.4497 7.83526Z" fill="var(--fill-0, #E9C8B5)"/>
<path id="Vector_38" opacity="0.93" d="M8.88042 8.02591C8.99488 8.42907 5.92647 9.32366 4.04208 9.86112C2.36977 10.3848 1.03007 10.7236 0.999226 10.6176C0.972161 10.5148 2.25597 9.98889 3.91666 9.41546C5.75925 8.7294 8.76597 7.62274 8.88042 8.02591Z" fill="var(--fill-0, #EECEBA)"/>
<path id="Vector_39" opacity="0.95" d="M8.31284 8.2125C8.39644 8.50963 5.90396 9.27867 4.08316 9.82332C2.40844 10.3583 1.05244 10.7099 1.02609 10.6144C0.999682 10.5188 2.30116 9.99451 3.97255 9.42342C5.75996 8.78398 8.2261 7.91935 8.31284 8.2125Z" fill="var(--fill-0, #F4D3BF)"/>
<path id="Vector_40" opacity="0.98" d="M7.7457 8.3993C7.79846 8.5904 5.88199 9.23389 4.12796 9.78173C2.44698 10.3247 1.07853 10.6924 1.0559 10.6001C1.0302 10.5117 2.3562 9.98817 4.03209 9.42753C5.76753 8.83073 7.69294 8.20813 7.7457 8.3993Z" fill="var(--fill-0, #F9D9C4)"/>
<path id="Vector_41" d="M7.1772 8.59007C7.19912 8.67521 5.85857 9.19308 4.17133 9.74406C2.48794 10.2983 1.10312 10.6789 1.0812 10.5937C1.05929 10.5087 2.40362 9.99392 4.0902 9.4357C5.77366 8.88152 7.15842 8.50089 7.18033 8.58602L7.1772 8.59007Z" fill="var(--fill-0, #FFDEC9)"/>
</g>
</svg>
