<svg preserveAspectRatio="none" width="100%" height="100%" overflow="visible" style="display: block;" viewBox="0 0 9.35269 34.2587" fill="none" xmlns="http://www.w3.org/2000/svg">
<g id="Group" style="mix-blend-mode:screen" opacity="0.2">
<path id="Vector" opacity="0.02" d="M1.32502 34.2252C-3.51704 33.0866 6.34969 6.74756 7.95946 2.24182C8.53115 0.640799 8.751 -0.078949 9.1123 0.00684111C9.46976 0.0893667 9.37089 0.831509 9.18639 2.53353C8.68115 7.29423 6.15639 35.3606 1.32502 34.2252Z" fill="var(--fill-0, #1F0505)"/>
<path id="Vector_2" opacity="0.05" d="M1.49707 33.4522C-3.2233 32.3436 6.39535 6.64709 7.96924 2.24411C8.52906 0.666461 8.74963 -0.0461059 9.10017 0.0372684C9.45078 0.120643 9.3512 0.855605 9.17094 2.52786C8.67705 7.18488 6.20674 34.5582 1.49707 33.4522Z" fill="var(--fill-0, #240B0A)"/>
<path id="Vector_3" opacity="0.07" d="M1.66931 32.6792C-2.93322 31.5973 6.44504 6.5498 7.97537 2.24326C8.52339 0.688852 8.74468 -0.0164645 9.08831 0.0676934C9.42809 0.148652 9.33169 0.879628 9.15561 2.52217C8.67313 7.07558 6.26107 33.759 1.66931 32.6792Z" fill="var(--fill-0, #2A100F)"/>
<path id="Vector_4" opacity="0.1" d="M1.84467 31.9068C-2.63987 30.8511 6.49409 6.44946 7.98783 2.2385C8.52783 0.710599 8.74285 0.0133069 9.07885 0.0910664C9.41491 0.168826 9.3178 0.892494 9.13976 2.51336C8.67241 6.96642 6.31859 32.9599 1.84467 31.9068Z" fill="var(--fill-0, #2F1614)"/>
<path id="Vector_5" opacity="0.12" d="M2.02024 31.137C-2.34261 30.1113 6.54013 6.35629 8.00426 2.24006C8.53246 0.735469 8.74807 0.0454268 9.07722 0.12397C9.40631 0.202513 9.31233 0.922264 9.13474 2.51016C8.66419 6.85399 6.37559 32.1568 2.02024 31.137Z" fill="var(--fill-0, #351B19)"/>
<path id="Vector_6" opacity="0.15" d="M2.19313 30.3647C-2.05187 29.3651 6.58663 6.25587 8.01104 2.23928C8.52737 0.757996 8.7437 0.0752012 9.06906 0.150545C9.39124 0.229871 9.29974 0.938325 9.1232 2.50057C8.66093 6.74476 6.43057 31.3577 2.19313 30.3647Z" fill="var(--fill-0, #3B201D)"/>
<path id="Vector_7" opacity="0.17" d="M2.36596 29.5916C-1.76113 28.6188 6.63313 6.15552 8.02095 2.23458C8.52926 0.779735 8.74245 0.100988 9.05706 0.173916C9.37167 0.246844 9.28017 0.955301 9.10474 2.49182C8.66074 6.63161 6.48554 30.5586 2.36596 29.5916Z" fill="var(--fill-0, #402622)"/>
<path id="Vector_8" opacity="0.2" d="M2.53819 28.8186C-1.46726 27.8758 6.67898 6.05491 8.03087 2.2368C8.52737 0.805267 8.74128 0.133702 9.04891 0.207479C9.35661 0.28119 9.26446 0.982394 9.09326 2.48927C8.65298 6.51899 6.53602 29.7555 2.53819 28.8186Z" fill="var(--fill-0, #462B27)"/>
<path id="Vector_9" opacity="0.22" d="M2.71076 28.0462C-1.17991 27.1335 6.72515 5.9545 8.04052 2.2319C8.52587 0.830925 8.73593 0.156159 9.0405 0.233918C9.34435 0.304496 9.25148 0.998454 9.08146 2.47961C8.64939 6.40969 6.59074 28.9564 2.71076 28.0462Z" fill="var(--fill-0, #4B312C)"/>
<path id="Vector_10" opacity="0.24" d="M2.88424 27.2739C-0.888522 26.3872 6.77302 5.86153 8.04796 2.23138C8.52144 0.85371 8.72908 0.190175 9.02608 0.261471C9.31924 0.329633 9.23328 1.02281 9.06052 2.47504C8.64678 6.30073 6.64943 28.154 2.88424 27.2739Z" fill="var(--fill-0, #513631)"/>
<path id="Vector_11" opacity="0.27" d="M3.05844 26.5008C-0.592694 25.6442 6.82076 5.76092 8.06295 2.22962C8.52463 0.875191 8.73293 0.218903 9.02608 0.287065C9.31232 0.355946 9.22885 1.03789 9.0572 2.46439C8.64789 6.18732 6.70572 27.3542 3.06535 26.5002L3.05844 26.5008Z" fill="var(--fill-0, #573C36)"/>
<path id="Vector_12" opacity="0.29" d="M3.23778 25.7272C-0.295437 24.8967 6.87378 5.65965 8.07626 2.22792C8.52991 0.900065 8.73508 0.247826 9.01754 0.313507C9.3 0.379254 9.21267 1.05793 9.04213 2.45878C8.64039 6.07482 6.76024 26.555 3.23778 25.7272Z" fill="var(--fill-0, #5C413B)"/>
<path id="Vector_13" opacity="0.32" d="M3.41068 24.9548C-0.00462911 24.1504 6.92028 5.55943 8.08683 2.23053C8.52868 0.925916 8.7345 0.280928 9.01004 0.347457C9.28559 0.413987 9.19761 1.08542 9.0313 2.45656C8.63778 5.97304 6.81907 25.7591 3.41133 24.962L3.41068 24.9548Z" fill="var(--fill-0, #624640)"/>
<path id="Vector_14" opacity="0.34" d="M3.58526 24.1818C0.291651 23.4072 6.96541 5.46267 8.0985 2.22537C8.52854 0.944069 8.73502 0.306261 9.00365 0.373574C9.26844 0.437689 9.18672 1.10115 9.02152 2.44657C8.63935 5.85944 6.87509 24.9528 3.58904 24.1844L3.58526 24.1818Z" fill="var(--fill-0, #684C45)"/>
<path id="Vector_15" opacity="0.37" d="M3.75828 23.4091C0.582519 22.6613 7.01204 5.36265 8.10541 2.22491C8.52743 0.970118 8.73078 0.336355 8.99184 0.397205C9.25284 0.45812 9.17113 1.12159 9.00326 2.43808C8.62858 5.74413 6.92328 24.1543 3.75828 23.4091Z" fill="var(--fill-0, #6D514A)"/>
<path id="Vector_16" opacity="0.39" d="M3.93052 22.6364C0.876455 21.9182 7.05789 5.26224 8.11852 2.22329C8.52868 0.9918 8.73274 0.365282 8.98683 0.42698C9.24091 0.488678 9.16167 1.14092 8.99491 2.43169C8.63159 5.63413 6.98452 23.3545 3.9343 22.6396L3.93052 22.6364Z" fill="var(--fill-0, #73574E)"/>
<path id="Vector_17" opacity="0.41" d="M4.1027 21.8636C1.16654 21.1719 7.10752 5.16495 8.12465 2.22243C8.51987 1.01824 8.72459 0.398904 8.97111 0.454204C9.2145 0.513552 9.13833 1.16174 8.9758 2.4228C8.61691 5.52241 7.03122 22.5489 4.1027 21.8636Z" fill="var(--fill-0, #785C53)"/>
<path id="Vector_18" opacity="0.44" d="M4.27937 21.094C1.46113 20.4288 7.15474 5.07172 8.13834 2.2208C8.52554 1.04318 8.72719 0.427829 8.96674 0.483913C9.20635 0.540062 9.12639 1.18505 8.96498 2.42039C8.61743 5.41638 7.09004 21.7529 4.27937 21.094Z" fill="var(--fill-0, #7E6158)"/>
<path id="Vector_19" opacity="0.46" d="M4.452 20.3212C1.75226 19.6896 7.20098 4.97124 8.14865 2.22309C8.52404 1.06877 8.72635 0.46067 8.95898 0.517537C9.19167 0.574469 9.1142 1.20823 8.95383 2.41784C8.6177 5.31022 7.14541 20.9608 4.45265 20.3284L4.452 20.3212Z" fill="var(--fill-0, #84675D)"/>
<path id="Vector_20" opacity="0.49" d="M4.62495 19.5484C2.04313 18.9433 7.24761 4.8707 8.15876 2.21819C8.52606 1.09032 8.72524 0.486262 8.9503 0.536731C9.17537 0.587265 9.10167 1.22423 8.94176 2.40094C8.61319 5.1865 7.20293 20.1503 4.62809 19.5443L4.62495 19.5484Z" fill="var(--fill-0, #896C62)"/>
<path id="Vector_21" opacity="0.51" d="M4.79889 18.7759C2.33504 18.1971 7.29522 4.77048 8.16659 2.2176C8.52215 1.11304 8.72198 0.51623 8.94013 0.567482C9.15828 0.6188 9.087 1.24453 8.92513 2.39956C8.60472 5.0855 7.25211 19.3521 4.79889 18.7759Z" fill="var(--fill-0, #8F7267)"/>
<path id="Vector_22" opacity="0.54" d="M4.97198 18.003C2.62976 17.454 7.33878 4.67398 8.18054 2.2159C8.52424 1.13465 8.72093 0.541825 8.93595 0.597125C9.14719 0.649226 9.07526 1.26771 8.91756 2.39303C8.60478 4.97215 7.3142 18.5521 4.97576 18.0062L4.97198 18.003Z" fill="var(--fill-0, #94776C)"/>
<path id="Vector_23" opacity="0.56" d="M5.1467 17.2262C2.92239 16.7037 7.39096 4.57278 8.18922 2.21108C8.52483 1.15633 8.71533 0.571531 8.92272 0.620433C9.13018 0.669269 9.05446 1.28455 8.901 2.38017C8.59957 4.85568 7.36409 17.7497 5.1467 17.2262Z" fill="var(--fill-0, #9A7D71)"/>
<path id="Vector_24" opacity="0.59" d="M5.3207 16.4535C3.21424 15.9573 7.4385 4.4723 8.20017 2.20618C8.52404 1.17474 8.71519 0.597186 8.91567 0.646871C9.11237 0.693357 9.04291 1.30055 8.88744 2.37449C8.59735 4.74639 7.41639 16.9472 5.3207 16.4535Z" fill="var(--fill-0, #A08276)"/>
<path id="Vector_25" opacity="0.61" d="M5.49685 15.6838C3.51215 15.2173 7.48839 4.37496 8.21413 2.21167C8.523 1.20752 8.71793 0.633166 8.91085 0.676453C9.10063 0.723722 9.03052 1.32373 8.87928 2.36796C8.59363 4.63703 7.47783 16.1471 5.49685 15.6838Z" fill="var(--fill-0, #A5877B)"/>
<path id="Vector_26" opacity="0.63" d="M5.66974 14.9112C3.80289 14.4712 7.53176 4.27872 8.22404 2.20696C8.52489 1.22938 8.7167 0.659019 8.9027 0.703089C9.0887 0.747225 9.02172 1.34318 8.86774 2.3585C8.59343 4.52395 7.53593 15.344 5.67287 14.9072L5.66974 14.9112Z" fill="var(--fill-0, #AB8D7F)"/>
<path id="Vector_27" opacity="0.66" d="M5.84465 14.1386C4.09572 13.725 7.58028 4.17837 8.23291 2.20624C8.52196 1.25191 8.71441 0.688789 8.8935 0.733708C9.06874 0.775363 9.00489 1.36734 8.85208 2.35693C8.58528 4.41563 7.58667 14.553 5.84465 14.1386Z" fill="var(--fill-0, #B09284)"/>
<path id="Vector_28" opacity="0.68" d="M6.0167 13.3659C4.38946 12.982 7.626 4.07802 8.24583 2.20467C8.523 1.27365 8.71618 0.717773 8.8845 0.760277C9.05289 0.80278 8.98833 1.38751 8.8397 2.34733C8.5843 4.30242 7.64015 13.7466 6.0167 13.3659Z" fill="var(--fill-0, #B69889)"/>
<path id="Vector_29" opacity="0.71" d="M6.18959 12.5932C4.6802 12.2357 7.67628 3.98081 8.25261 2.20389C8.52176 1.29944 8.7118 0.747549 8.87635 0.786788C9.04089 0.826092 8.97567 1.40357 8.82509 2.34178C8.57785 4.19724 7.69513 12.9474 6.18959 12.5932Z" fill="var(--fill-0, #BC9D8E)"/>
<path id="Vector_30" opacity="0.73" d="M6.36228 11.8205C4.97146 11.4967 7.71952 3.8845 8.26239 2.19919C8.51974 1.31798 8.7073 0.777322 8.86806 0.813427C9.0257 0.853514 8.95982 1.42375 8.81341 2.33225C8.5738 4.08083 7.75311 12.1443 6.36541 11.8165L6.36228 11.8205Z" fill="var(--fill-0, #C1A293)"/>
<path id="Vector_31" opacity="0.76" d="M6.53433 11.0475C5.26141 10.7501 7.76517 3.78376 8.27217 2.20121C8.5215 1.34658 8.70594 0.809964 8.856 0.843588C9.00287 0.88126 8.94705 1.44673 8.79796 2.32631C8.5697 3.97127 7.80346 11.3416 6.53433 11.0475Z" fill="var(--fill-0, #C7A898)"/>
<path id="Vector_32" opacity="0.78" d="M6.71309 10.2781C5.55809 10.0072 7.81761 3.68674 8.28795 2.19984C8.52541 1.36845 8.71056 0.839017 8.85372 0.87349C8.9968 0.907963 8.93719 1.47023 8.78922 2.32409C8.56845 3.86224 7.86117 10.5498 6.71309 10.2781Z" fill="var(--fill-0, #CDAD9D)"/>
<path id="Vector_33" opacity="0.8" d="M6.88591 9.50525C5.85261 9.26401 7.86404 3.58619 8.29852 2.20213C8.52104 1.39802 8.70998 0.871856 8.84237 0.903913C8.97861 0.939235 8.91828 1.49426 8.77454 2.31834C8.56206 3.75693 7.91615 9.75054 6.88591 9.50525Z" fill="var(--fill-0, #D2B3A2)"/>
<path id="Vector_34" opacity="0.83" d="M7.06004 8.72864C6.14459 8.51384 7.90872 3.48591 8.30967 2.19338C8.52417 1.41578 8.70998 0.893666 8.83858 0.922524C8.96719 0.951382 8.91 1.50236 8.76743 2.30078C8.56624 3.63575 7.97863 8.93939 7.06317 8.72459L7.06004 8.72864Z" fill="var(--fill-0, #D8B8A7)"/>
<path id="Vector_35" opacity="0.85" d="M7.23482 7.95568C6.43728 7.76732 7.95711 3.38524 8.31834 2.1924C8.52104 1.43812 8.70756 0.92318 8.82926 0.952822C8.95089 0.982463 8.89304 1.52626 8.75152 2.29895C8.55795 3.52711 8.02858 8.14084 7.23482 7.95568Z" fill="var(--fill-0, #DDBEAC)"/>
<path id="Vector_36" opacity="0.88" d="M7.407 7.18324C6.73115 7.02452 8.00674 3.28834 8.32833 2.19508C8.51915 1.4641 8.70254 0.953209 8.81726 0.983634C8.93204 1.01412 8.88045 1.54982 8.73626 2.29366C8.55398 3.41821 8.07978 7.34594 7.407 7.18324Z" fill="var(--fill-0, #E3C3B0)"/>
<path id="Vector_37" opacity="0.9" d="M7.58002 6.41041C7.02202 6.2782 8.05337 3.18786 8.33837 2.19018C8.52117 1.48571 8.6983 0.982852 8.80924 1.01008C8.91639 1.0341 8.8648 1.56987 8.72485 2.28393C8.547 3.30571 8.13796 6.54269 7.58002 6.41041Z" fill="var(--fill-0, #E9C8B5)"/>
<path id="Vector_38" opacity="0.93" d="M7.75722 5.64078C7.31713 5.53495 8.10104 3.09457 8.34945 2.19247C8.52045 1.5113 8.69824 1.01563 8.79847 1.0405C8.89878 1.06531 8.84648 1.59383 8.70763 2.28224C8.54113 3.20033 8.18654 5.74413 7.75409 5.64476L7.75722 5.64078Z" fill="var(--fill-0, #EECEBA)"/>
<path id="Vector_39" opacity="0.95" d="M7.92998 4.86815C7.61159 4.79202 8.14748 2.99422 8.36315 2.19096C8.52228 1.53304 8.70078 1.04468 8.79724 1.06629C8.89056 1.09195 8.84074 1.60923 8.70293 2.27192C8.54785 3.0864 8.2515 4.94029 7.93695 4.8673L7.92998 4.86815Z" fill="var(--fill-0, #F4D3BF)"/>
<path id="Vector_40" opacity="0.98" d="M8.10261 4.09532C7.899 4.04962 8.19379 2.89374 8.36968 2.19005C8.52085 1.5587 8.69615 1.07426 8.7857 1.09672C8.87524 1.11917 8.82157 1.6332 8.68807 2.26618C8.54055 2.97385 8.30315 4.14501 8.10639 4.09852L8.10261 4.09532Z" fill="var(--fill-0, #F9D9C4)"/>
<path id="Vector_41" d="M8.27674 3.32256C8.19098 3.3033 8.24152 2.79326 8.38082 2.18522C8.51706 1.58116 8.69615 1.09998 8.775 1.12003C8.85378 1.14007 8.81022 1.64926 8.67091 2.25737C8.53154 2.86541 8.35559 3.34261 8.27674 3.32256Z" fill="var(--fill-0, #FFDEC9)"/>
</g>
</svg>
