<svg preserveAspectRatio="none" width="100%" height="100%" overflow="visible" style="display: block;" viewBox="0 0 12.4384 45.5116" fill="none" xmlns="http://www.w3.org/2000/svg">
<g id="Group" style="mix-blend-mode:screen" opacity="0.2">
<path id="Vector" opacity="0.02" d="M1.76219 45.4671C-4.67743 43.9545 8.44467 8.96393 10.5855 2.97819C11.3459 0.851282 11.6382 -0.104881 12.1188 0.00908821C12.5941 0.118721 12.4627 1.10463 12.2173 3.36572C11.5454 9.69016 8.18759 46.9754 1.76219 45.4671Z" fill="var(--fill-0, #1F0505)"/>
<path id="Vector_2" opacity="0.05" d="M1.991 44.4402C-4.28678 42.9674 8.50538 8.83045 10.5986 2.98123C11.3431 0.885369 11.6364 -0.0612542 12.1026 0.0495061C12.5689 0.160266 12.4365 1.13664 12.1967 3.35818C11.5399 9.54488 8.25455 45.9095 1.991 44.4402Z" fill="var(--fill-0, #240B0A)"/>
<path id="Vector_3" opacity="0.07" d="M2.22006 43.4132C-3.90098 41.976 8.57147 8.70121 10.6067 2.9801C11.3355 0.915115 11.6298 -0.0218764 12.0868 0.0899247C12.5387 0.197476 12.4105 1.16855 12.1763 3.35063C11.5347 9.39968 8.3268 44.8478 2.22006 43.4132Z" fill="var(--fill-0, #2A100F)"/>
<path id="Vector_4" opacity="0.1" d="M2.45329 42.3872C-3.51085 40.9847 8.6367 8.5679 10.6233 2.97377C11.3414 0.944005 11.6274 0.017674 12.0743 0.120975C12.5212 0.224276 12.3921 1.18565 12.1553 3.33892C11.5337 9.25467 8.40329 43.7862 2.45329 42.3872Z" fill="var(--fill-0, #2F1614)"/>
<path id="Vector_5" opacity="0.12" d="M2.68678 41.3646C-3.11551 40.002 8.69794 8.44413 10.6451 2.97585C11.3476 0.977044 11.6343 0.0603443 12.0721 0.164686C12.5098 0.269028 12.3848 1.2252 12.1486 3.33467C11.5228 9.10531 8.4791 42.7194 2.68678 41.3646Z" fill="var(--fill-0, #351B19)"/>
<path id="Vector_6" opacity="0.15" d="M2.91672 40.3385C-2.72885 39.0106 8.75978 8.31073 10.6542 2.97481C11.3408 1.00697 11.6285 0.0998986 12.0612 0.199991C12.4897 0.305373 12.368 1.24653 12.1332 3.32192C11.5185 8.9602 8.55222 41.6577 2.91672 40.3385Z" fill="var(--fill-0, #3B201D)"/>
<path id="Vector_7" opacity="0.17" d="M3.14656 39.3116C-2.34219 38.0192 8.82162 8.17742 10.6673 2.96856C11.3433 1.03585 11.6269 0.134156 12.0453 0.231038C12.4637 0.327921 12.342 1.26908 12.1087 3.3103C11.5182 8.80989 8.62534 40.5961 3.14656 39.3116Z" fill="var(--fill-0, #402622)"/>
<path id="Vector_8" opacity="0.2" d="M3.37563 38.2846C-1.95136 37.0322 8.88259 8.04376 10.6805 2.97152C11.3408 1.06977 11.6253 0.177615 12.0344 0.275625C12.4437 0.373549 12.3211 1.30508 12.0934 3.30692C11.5079 8.66027 8.69247 39.5293 3.37563 38.2846Z" fill="var(--fill-0, #462B27)"/>
<path id="Vector_9" opacity="0.22" d="M3.60513 37.2585C-1.5692 36.046 8.944 7.91037 10.6934 2.96501C11.3388 1.10385 11.6182 0.207448 12.0233 0.310749C12.4274 0.404509 12.3038 1.32641 12.0777 3.29408C11.5031 8.51507 8.76524 38.4676 3.60513 37.2585Z" fill="var(--fill-0, #4B312C)"/>
<path id="Vector_10" opacity="0.24" d="M3.83584 36.2325C-1.18167 35.0546 9.00767 7.78685 10.7032 2.96431C11.3329 1.13412 11.6091 0.252638 12.0041 0.347353C12.394 0.437904 12.2796 1.35877 12.0499 3.28801C11.4996 8.37032 8.8433 37.4017 3.83584 36.2325Z" fill="var(--fill-0, #513631)"/>
<path id="Vector_11" opacity="0.27" d="M4.06751 35.2055C-0.788244 34.0676 9.07115 7.6532 10.7232 2.96197C11.3372 1.16266 11.6142 0.290803 12.0041 0.381354C12.3848 0.472859 12.2738 1.3788 12.0455 3.27387C11.5011 8.21966 8.91815 36.3391 4.07671 35.2047L4.06751 35.2055Z" fill="var(--fill-0, #573C36)"/>
<path id="Vector_12" opacity="0.29" d="M4.30603 34.1777C-0.392911 33.0745 9.14167 7.51867 10.7409 2.95972C11.3442 1.1957 11.6171 0.329226 11.9927 0.416481C12.3684 0.503823 12.2522 1.40543 12.0254 3.26641C11.4911 8.07021 8.99066 35.2775 4.30603 34.1777Z" fill="var(--fill-0, #5C413B)"/>
<path id="Vector_13" opacity="0.32" d="M4.53597 33.1516C-0.00615608 32.0831 9.20352 7.38553 10.7549 2.96318C11.3426 1.23005 11.6163 0.3732 11.9828 0.461583C12.3492 0.549965 12.2322 1.44195 12.011 3.26346C11.4877 7.935 9.0689 34.2202 4.53684 33.1612L4.53597 33.1516Z" fill="var(--fill-0, #624640)"/>
<path id="Vector_14" opacity="0.34" d="M4.76815 32.1247C0.387876 31.0958 9.26353 7.25699 10.7705 2.95633C11.3424 1.25416 11.617 0.406855 11.9743 0.496278C12.3264 0.581452 12.2177 1.46285 11.998 3.25019C11.4898 7.78408 9.1434 33.1491 4.77319 32.1282L4.76815 32.1247Z" fill="var(--fill-0, #684C45)"/>
<path id="Vector_15" opacity="0.37" d="M4.99826 31.0983C0.774712 30.1048 9.32554 7.12411 10.7797 2.95572C11.3409 1.28877 11.6114 0.446834 11.9586 0.527671C12.3057 0.608594 12.197 1.48999 11.9737 3.23891C11.4754 7.6309 9.2075 32.0883 4.99826 31.0983Z" fill="var(--fill-0, #6D514A)"/>
<path id="Vector_16" opacity="0.39" d="M5.22733 30.0717C1.16563 29.1177 9.38652 6.99072 10.7971 2.95356C11.3426 1.31757 11.614 0.485261 11.9519 0.567226C12.2898 0.64919 12.1844 1.51567 11.9626 3.23042C11.4794 7.48476 9.28895 31.0258 5.23236 30.076L5.22733 30.0717Z" fill="var(--fill-0, #73574E)"/>
<path id="Vector_17" opacity="0.41" d="M5.45631 29.0451C1.55143 28.1262 9.45253 6.86148 10.8052 2.95243C11.3309 1.35269 11.6031 0.529928 11.931 0.603392C12.2547 0.682234 12.1534 1.54333 11.9372 3.21862C11.4599 7.33635 9.35105 29.9555 5.45631 29.0451Z" fill="var(--fill-0, #785C53)"/>
<path id="Vector_18" opacity="0.44" d="M5.69127 28.0228C1.9432 27.139 9.51532 6.73763 10.8235 2.95027C11.3384 1.38583 11.6066 0.568354 11.9252 0.642859C12.2438 0.717451 12.1375 1.5743 11.9228 3.21541C11.4606 7.19549 9.42928 28.898 5.69127 28.0228Z" fill="var(--fill-0, #7E6158)"/>
<path id="Vector_19" opacity="0.46" d="M5.92086 26.9961C2.33039 26.157 9.57682 6.60414 10.8372 2.9533C11.3364 1.41983 11.6055 0.611981 11.9148 0.687527C12.2243 0.76316 12.1213 1.60509 11.908 3.21203C11.461 7.05446 9.50292 27.8457 5.92173 27.0056L5.92086 26.9961Z" fill="var(--fill-0, #84675D)"/>
<path id="Vector_20" opacity="0.49" d="M6.15088 25.9694C2.71722 25.1656 9.63883 6.47057 10.8506 2.94679C11.3391 1.44845 11.604 0.64598 11.9033 0.713026C12.2026 0.780159 12.1046 1.62634 11.8919 3.18956C11.455 6.8901 9.57942 26.769 6.15504 25.964L6.15088 25.9694Z" fill="var(--fill-0, #896C62)"/>
<path id="Vector_21" opacity="0.51" d="M6.3822 24.9432C3.10545 24.1743 9.70215 6.33743 10.861 2.94601C11.3339 1.47863 11.5996 0.685792 11.8898 0.753879C12.1799 0.822053 12.0851 1.65332 11.8698 3.18774C11.4437 6.75592 9.64482 25.7087 6.3822 24.9432Z" fill="var(--fill-0, #8F7267)"/>
<path id="Vector_22" opacity="0.54" d="M6.6124 23.9165C3.4974 23.1871 9.76009 6.20923 10.8796 2.94375C11.3367 1.50734 11.5983 0.719794 11.8842 0.793258C12.1652 0.862473 12.0695 1.68411 11.8598 3.17907C11.4438 6.60535 9.72739 24.6458 6.61743 23.9207L6.6124 23.9165Z" fill="var(--fill-0, #94776C)"/>
<path id="Vector_23" opacity="0.56" d="M6.84476 22.8845C3.88659 22.1903 9.82948 6.0748 10.8911 2.93734C11.3374 1.53614 11.5908 0.759257 11.8666 0.824222C12.1425 0.889099 12.0418 1.70649 11.8377 3.16198C11.4368 6.45062 9.79374 23.5799 6.84476 22.8845Z" fill="var(--fill-0, #9A7D71)"/>
<path id="Vector_24" opacity="0.59" d="M7.07617 21.8579C4.27472 21.1988 9.89271 5.94131 10.9057 2.93084C11.3364 1.5606 11.5906 0.793339 11.8572 0.859344C12.1188 0.9211 12.0265 1.72774 11.8197 3.15444C11.4339 6.30542 9.8633 22.5138 7.07617 21.8579Z" fill="var(--fill-0, #A08276)"/>
<path id="Vector_25" opacity="0.61" d="M7.31044 20.8354C4.67093 20.2158 9.95906 5.812 10.9242 2.93813C11.335 1.60414 11.5943 0.841137 11.8508 0.898642C12.1032 0.961438 12.01 1.75853 11.8088 3.14576C11.429 6.16014 9.94501 21.4509 7.31044 20.8354Z" fill="var(--fill-0, #A5877B)"/>
<path id="Vector_26" opacity="0.63" d="M7.54037 19.8091C5.05759 19.2246 10.0167 5.68414 10.9374 2.93188C11.3375 1.6332 11.5926 0.875482 11.84 0.934028C12.0874 0.992661 11.9983 1.78438 11.7935 3.13319C11.4287 6.00992 10.0223 20.384 7.54453 19.8038L7.54037 19.8091Z" fill="var(--fill-0, #AB8D7F)"/>
<path id="Vector_27" opacity="0.66" d="M7.77299 18.7827C5.44703 18.2332 10.0813 5.55083 10.9492 2.93092C11.3336 1.66312 11.5896 0.915031 11.8278 0.974705C12.0608 1.03004 11.9759 1.81646 11.7727 3.1311C11.4178 5.86602 10.0898 19.3332 7.77299 18.7827Z" fill="var(--fill-0, #B09284)"/>
<path id="Vector_28" opacity="0.68" d="M8.0018 17.7561C5.83768 17.2461 10.1421 5.41752 10.9664 2.92884C11.335 1.692 11.5919 0.953536 11.8158 1.01C12.0397 1.06646 11.9539 1.84326 11.7562 3.11835C11.4165 5.71562 10.1609 18.2619 8.0018 17.7561Z" fill="var(--fill-0, #B69889)"/>
<path id="Vector_29" opacity="0.71" d="M8.23174 16.7296C6.22435 16.2548 10.2089 5.28837 10.9754 2.9278C11.3334 1.72626 11.5861 0.993092 11.8049 1.04522C12.0238 1.09743 11.937 1.8646 11.7368 3.11098C11.408 5.5759 10.234 17.2003 8.23174 16.7296Z" fill="var(--fill-0, #BC9D8E)"/>
<path id="Vector_30" opacity="0.73" d="M8.46141 15.7032C6.6117 15.273 10.2664 5.16044 10.9884 2.92155C11.3307 1.75089 11.5801 1.03264 11.7939 1.08061C12.0036 1.13386 11.916 1.89141 11.7212 3.09832C11.4026 5.42125 10.3111 16.1333 8.46557 15.6978L8.46141 15.7032Z" fill="var(--fill-0, #C1A293)"/>
<path id="Vector_31" opacity="0.76" d="M8.69021 14.6762C6.99733 14.2811 10.3272 5.0266 11.0014 2.92424C11.333 1.78888 11.5783 1.07601 11.7779 1.12068C11.9732 1.17072 11.899 1.92194 11.7007 3.09043C11.3971 5.27571 10.3781 15.0669 8.69021 14.6762Z" fill="var(--fill-0, #C7A898)"/>
<path id="Vector_32" opacity="0.78" d="M8.92795 13.6541C7.39188 13.2942 10.3969 4.89772 11.0224 2.92242C11.3382 1.81794 11.5845 1.1146 11.7748 1.1604C11.9651 1.2062 11.8859 1.95316 11.6891 3.08747C11.3955 5.13086 10.4548 14.0151 8.92795 13.6541Z" fill="var(--fill-0, #CDAD9D)"/>
<path id="Vector_33" opacity="0.8" d="M9.1578 12.6274C7.78358 12.3069 10.4587 4.76414 11.0365 2.92545C11.3324 1.85723 11.5837 1.15823 11.7598 1.20082C11.9409 1.24774 11.8607 1.98508 11.6696 3.07984C11.387 4.99096 10.528 12.9533 9.1578 12.6274Z" fill="var(--fill-0, #D2B3A2)"/>
<path id="Vector_34" opacity="0.83" d="M9.38938 11.5957C8.17189 11.3104 10.5181 4.63092 11.0513 2.91383C11.3366 1.88082 11.5837 1.1872 11.7547 1.22554C11.9258 1.26388 11.8497 1.99583 11.6601 3.05651C11.3925 4.82998 10.611 11.8757 9.39355 11.5903L9.38938 11.5957Z" fill="var(--fill-0, #D8B8A7)"/>
<path id="Vector_35" opacity="0.85" d="M9.62183 10.5689C8.56115 10.3186 10.5824 4.49718 11.0628 2.91253C11.3324 1.91049 11.5805 1.22641 11.7423 1.26579C11.9041 1.30517 11.8271 2.02758 11.6389 3.05409C11.3815 4.68565 10.6775 10.8149 9.62183 10.5689Z" fill="var(--fill-0, #DDBEAC)"/>
<path id="Vector_36" opacity="0.88" d="M9.85081 9.54271C8.95198 9.33185 10.6484 4.36846 11.0761 2.91609C11.3299 1.945 11.5738 1.26631 11.7264 1.30672C11.879 1.34723 11.8104 2.05889 11.6186 3.04706C11.3762 4.54098 10.7456 9.75885 9.85081 9.54271Z" fill="var(--fill-0, #E3C3B0)"/>
<path id="Vector_37" opacity="0.9" d="M10.0809 8.51603C9.33882 8.34039 10.7104 4.23497 11.0895 2.90958C11.3326 1.97371 11.5682 1.30569 11.7157 1.34185C11.8582 1.37377 11.7896 2.08551 11.6035 3.03413C11.3669 4.39153 10.8229 8.69176 10.0809 8.51603Z" fill="var(--fill-0, #E9C8B5)"/>
<path id="Vector_38" opacity="0.93" d="M10.3166 7.4936C9.73129 7.35301 10.7738 4.11103 11.1042 2.91262C11.3316 2.00772 11.5681 1.34923 11.7014 1.38227C11.8348 1.41523 11.7652 2.11735 11.5806 3.03188C11.3591 4.25154 10.8876 7.6309 10.3124 7.49889L10.3166 7.4936Z" fill="var(--fill-0, #EECEBA)"/>
<path id="Vector_39" opacity="0.95" d="M10.5463 6.46718C10.1229 6.36605 10.8356 3.97772 11.1224 2.91062C11.3341 2.0366 11.5715 1.38782 11.6997 1.41653C11.8239 1.45062 11.7576 2.13781 11.5743 3.01817C11.3681 4.10019 10.9739 6.56302 10.5556 6.46605L10.5463 6.46718Z" fill="var(--fill-0, #F4D3BF)"/>
<path id="Vector_40" opacity="0.98" d="M10.7759 5.4405C10.5051 5.37979 10.8972 3.84423 11.1311 2.90941C11.3322 2.07068 11.5653 1.42711 11.6844 1.45695C11.8035 1.48679 11.7321 2.16965 11.5545 3.01054C11.3584 3.95066 11.0426 5.50651 10.781 5.44475L10.7759 5.4405Z" fill="var(--fill-0, #F9D9C4)"/>
<path id="Vector_41" d="M11.0075 4.41392C10.8935 4.38833 10.9607 3.71075 11.1459 2.90299C11.3271 2.10052 11.5653 1.46129 11.6702 1.48792C11.7749 1.51454 11.717 2.19099 11.5317 2.99884C11.3464 3.8066 11.1124 4.44054 11.0075 4.41392Z" fill="var(--fill-0, #FFDEC9)"/>
</g>
</svg>
