<svg preserveAspectRatio="none" width="100%" height="100%" overflow="visible" style="display: block;" viewBox="0 0 39.8251 15.0549" fill="none" xmlns="http://www.w3.org/2000/svg">
<g id="Group" style="mix-blend-mode:screen" opacity="0.2">
<path id="Vector" opacity="0.02" d="M39.763 1.41902C41.4309 7.18957 9.02861 14.5239 3.25294 14.9973C1.17157 15.1765 0.142632 14.9178 0.0145252 14.4911C-0.113582 14.0643 0.599031 13.2242 2.41795 12.1243C7.43876 9.0404 38.102 -4.33765 39.7595 1.4244L39.763 1.41902Z" fill="var(--fill-0, #1F0505)"/>
<path id="Vector_2" opacity="0.05" d="M39.011 1.66691C40.6373 7.2966 9.00103 14.4642 3.31426 14.9418C1.22959 15.1359 0.174809 14.8996 0.0558953 14.4718C-0.0671813 14.0493 0.673968 13.2156 2.50294 12.1243C7.45463 9.09695 37.3943 -3.95429 39.0153 1.66153L39.011 1.66691Z" fill="var(--fill-0, #240B0A)"/>
<path id="Vector_3" opacity="0.07" d="M38.2529 1.92017C39.8384 7.40901 8.9678 14.4098 3.3656 14.897C1.27773 15.106 0.201263 14.8868 0.0832166 14.4686C-0.0389059 14.0558 0.730694 13.2284 2.56479 12.1413C7.45229 9.17484 36.6674 -3.55913 38.2477 1.91583L38.2529 1.92017Z" fill="var(--fill-0, #2A100F)"/>
<path id="Vector_4" opacity="0.1" d="M37.4992 2.16832C39.0431 7.51638 8.9391 14.3503 3.42563 14.8417C1.32943 15.0614 0.23639 14.8636 0.124242 14.4592C0.00298689 14.0559 0.800253 13.2254 2.64944 12.1511C7.46781 9.24119 35.964 -3.17125 37.4992 2.16832Z" fill="var(--fill-0, #2F1614)"/>
<path id="Vector_5" opacity="0.12" d="M36.7446 2.41595C38.2477 7.62315 8.90943 14.2903 3.48062 14.7912C1.3812 15.0259 0.266401 14.845 0.159457 14.445C0.0431461 14.046 0.864783 13.2273 2.72412 12.1615C7.4692 9.31344 35.2467 -2.77747 36.7446 2.41595Z" fill="var(--fill-0, #351B19)"/>
<path id="Vector_6" opacity="0.15" d="M35.9865 2.6693C37.4532 7.73045 8.87673 14.2361 3.54176 14.7455C1.43897 14.9951 0.307687 14.8357 0.196493 14.4409C0.0811353 14.0515 0.930355 13.2295 2.79975 12.1723C7.47562 9.38084 34.5337 -2.38855 35.9865 2.6693Z" fill="var(--fill-0, #3B201D)"/>
<path id="Vector_7" opacity="0.17" d="M35.2328 2.9171C36.6587 7.83739 8.84837 14.1762 3.60214 14.6899C1.49613 14.9544 0.343162 14.8121 0.232836 14.4269C0.118433 14.0471 0.996103 13.2315 2.87564 12.1828C7.48239 9.44797 33.8173 -1.9946 35.2328 2.9171Z" fill="var(--fill-0, #402622)"/>
<path id="Vector_8" opacity="0.2" d="M34.4739 3.17045C35.853 7.94563 8.80874 14.1176 3.65227 14.6451C1.54297 14.9247 0.368315 14.7993 0.258856 14.4238C0.149483 14.0483 1.05066 13.2348 2.94529 12.1988C7.47874 9.52594 33.0992 -1.60039 34.4739 3.17045Z" fill="var(--fill-0, #462B27)"/>
<path id="Vector_9" opacity="0.22" d="M33.7202 3.41834C35.0585 8.05267 8.78037 14.0578 3.71263 14.5895C1.60012 14.884 0.403705 14.7757 0.30448 14.4088C0.195975 14.0428 1.12569 13.2357 3.02535 12.2041C7.48959 9.5877 32.3871 -1.21173 33.7202 3.41834Z" fill="var(--fill-0, #4B312C)"/>
<path id="Vector_10" opacity="0.24" d="M32.9673 3.6664C34.2649 8.15995 8.75236 13.9982 3.77335 14.5342C1.65251 14.8393 0.439613 14.7525 0.341169 14.3951C0.233532 14.0388 1.19594 13.2327 3.1015 12.2149C7.50173 9.65943 31.675 -0.822817 32.9673 3.6664Z" fill="var(--fill-0, #513631)"/>
<path id="Vector_11" opacity="0.27" d="M32.2093 3.91949C33.466 8.27219 8.71922 13.9437 3.82495 14.4892C1.70082 14.8092 0.46615 14.7394 0.36866 14.3917C0.26614 14.0396 1.24781 13.241 3.17271 12.2307C7.49956 9.73714 30.9535 -0.423664 32.2049 3.92478L32.2093 3.91949Z" fill="var(--fill-0, #573C36)"/>
<path id="Vector_12" opacity="0.29" d="M31.4541 4.16764C32.6698 8.37948 8.68922 13.8842 3.88368 14.4339C1.76041 14.7636 0.50501 14.7204 0.40752 14.3727C0.305867 14.0302 1.32015 13.2326 3.25104 12.2362C7.50876 9.79925 30.2437 -0.0400339 31.4541 4.16764Z" fill="var(--fill-0, #5C413B)"/>
<path id="Vector_13" opacity="0.32" d="M30.7015 4.41553C31.8762 8.48651 8.6573 13.8297 3.94474 14.3783C1.81826 14.7229 0.541178 14.6969 0.444556 14.3587C0.34377 14.0258 1.38155 13.2305 3.32666 12.2372C7.51517 9.85684 29.5269 0.34446 30.7005 4.4059L30.7015 4.41553Z" fill="var(--fill-0, #624640)"/>
<path id="Vector_14" opacity="0.34" d="M29.9437 4.6688C31.0771 8.59901 8.62451 13.7754 3.99651 14.3336C1.86683 14.6932 0.568066 14.6841 0.477342 14.3598C0.381673 14.0313 1.4479 13.2422 3.399 12.2629C7.51838 9.93906 28.811 0.74821 29.9395 4.67417L29.9437 4.6688Z" fill="var(--fill-0, #684C45)"/>
<path id="Vector_15" opacity="0.37" d="M29.1885 4.91677C30.2811 8.70612 8.59441 13.7157 4.06027 14.2823C1.92729 14.6568 0.606837 14.665 0.517067 14.3502C0.422265 14.0313 1.512 13.2443 3.48235 12.2724C7.52844 10.0105 28.1062 1.13583 29.1937 4.92102L29.1885 4.91677Z" fill="var(--fill-0, #6D514A)"/>
<path id="Vector_16" opacity="0.39" d="M28.4313 5.16995C29.4827 8.81853 8.56215 13.6612 4.11673 14.2321C1.97543 14.6173 0.638409 14.6468 0.553669 14.3363C0.459735 14.0269 1.578 13.2463 3.55339 12.2787C7.53529 10.0777 27.3849 1.52562 28.4354 5.16457L28.4313 5.16995Z" fill="var(--fill-0, #73574E)"/>
<path id="Vector_17" opacity="0.41" d="M27.678 5.41766C28.6883 8.92539 8.53378 13.6013 4.17302 14.1818C2.0285 14.5819 0.674835 14.6326 0.585932 14.3276C0.497029 14.0224 1.64383 13.2483 3.62928 12.2891C7.54206 10.1447 26.6725 1.91419 27.678 5.41766Z" fill="var(--fill-0, #785C53)"/>
<path id="Vector_18" opacity="0.44" d="M26.9189 5.6613C27.8882 9.02826 8.4997 13.5372 4.22766 14.1219C2.07985 14.537 0.704585 14.6049 0.616549 14.3094C0.5286 14.0139 1.69882 13.2418 3.69945 12.2956C7.53885 10.2131 25.9503 2.30397 26.9189 5.6613Z" fill="var(--fill-0, #7E6158)"/>
<path id="Vector_19" opacity="0.46" d="M26.1616 5.91457C27.09 9.14075 8.46744 13.483 4.28422 14.0718C2.1332 14.5018 0.736157 14.5868 0.658269 14.2998C0.571187 14.0139 1.77402 13.243 3.77977 12.3008C7.55004 10.275 25.2425 2.68743 26.1657 5.90928L26.1616 5.91457Z" fill="var(--fill-0, #84675D)"/>
<path id="Vector_20" opacity="0.49" d="M25.4085 6.16237C26.3 9.24232 8.43924 13.423 4.34068 14.0215C2.18636 14.4664 0.76773 14.5685 0.690709 14.2911C0.613689 14.0138 1.83084 13.246 3.85167 12.3167C7.55282 10.3473 24.522 3.08667 25.4085 6.16237Z" fill="var(--fill-0, #896C62)"/>
<path id="Vector_21" opacity="0.51" d="M24.6547 6.41043C25.5052 9.34952 8.41045 13.3634 4.4007 13.9662C2.24309 14.426 0.802683 14.5451 0.726616 14.2774C0.650463 14.0096 1.90031 13.2429 3.92712 12.3275C7.55906 10.4147 23.8092 3.4755 24.6547 6.41043Z" fill="var(--fill-0, #8F7267)"/>
<path id="Vector_22" opacity="0.54" d="M23.8949 6.66361C24.7044 9.46193 8.37567 13.3091 4.45049 13.9212C2.28463 14.3918 0.832699 14.5366 0.752383 14.2741C0.677184 14.0159 1.95548 13.2556 3.99149 12.3392C7.55013 10.4883 23.0812 3.87066 23.8857 6.66474L23.8949 6.66361Z" fill="var(--fill-0, #94776C)"/>
<path id="Vector_23" opacity="0.56" d="M23.1426 6.91141C23.9111 9.56888 8.34843 13.2491 4.51207 13.8656C2.34283 14.3511 0.865134 14.5183 0.794098 14.2547C0.723929 14.0008 2.02564 13.2426 4.07267 12.3443C7.56721 10.5543 22.3742 4.25394 23.1376 6.90716L23.1426 6.91141Z" fill="var(--fill-0, #9A7D71)"/>
<path id="Vector_24" opacity="0.59" d="M22.3881 7.15947C23.1155 9.67617 8.31885 13.1895 4.57121 13.8103C2.39877 14.3107 0.899391 14.495 0.834253 14.2453C0.765039 14.001 2.09529 13.2492 4.15654 12.354C7.58187 10.6206 21.6657 4.64711 22.3923 7.15418L22.3881 7.15947Z" fill="var(--fill-0, #A08276)"/>
<path id="Vector_25" opacity="0.61" d="M21.6309 7.41291C22.3173 9.78875 8.28668 13.1353 4.62881 13.7699C2.45307 14.2853 0.932 14.4866 0.867817 14.2466C0.799383 14.0119 2.1573 13.2568 4.22957 12.3798C7.58152 10.7083 20.9505 5.05095 21.6319 7.42254L21.6309 7.41291Z" fill="var(--fill-0, #A5877B)"/>
<path id="Vector_26" opacity="0.63" d="M20.8763 7.66063C21.5217 9.89561 8.2571 13.0754 4.68796 13.7141C2.50901 14.2444 0.966263 14.4629 0.90711 14.2271C0.843793 13.9966 2.22599 13.2534 4.30745 12.3753C7.59028 10.7603 20.236 5.42981 20.8805 7.65525L20.8763 7.66063Z" fill="var(--fill-0, #AB8D7F)"/>
<path id="Vector_27" opacity="0.66" d="M20.1169 7.91398C20.7211 10.0081 8.2225 13.0211 4.74218 13.6641C2.56002 14.2093 0.995583 14.4448 0.937297 14.2186C0.874848 13.9978 2.28473 13.2513 4.37711 12.3913C7.59081 10.8329 19.5175 5.82402 20.1169 7.91398Z" fill="var(--fill-0, #B09284)"/>
<path id="Vector_28" opacity="0.68" d="M19.3649 8.16213C19.9282 10.1156 8.1956 12.9616 4.79985 13.6142C2.60937 14.1701 1.0334 14.4312 0.970948 14.2103C0.909366 13.9991 2.34777 13.259 4.45447 12.4022C7.59896 10.9005 18.8067 6.21302 19.3649 8.16213Z" fill="var(--fill-0, #B69889)"/>
<path id="Vector_29" opacity="0.71" d="M18.6105 8.40958C19.1329 10.2222 8.1662 12.9014 4.85927 13.5582C2.66548 14.129 1.06783 14.4072 1.01137 14.2003C0.954905 13.9933 2.42176 13.2595 4.52933 12.4124C7.60555 10.9768 18.0891 6.60662 18.6105 8.40958Z" fill="var(--fill-0, #BC9D8E)"/>
<path id="Vector_30" opacity="0.73" d="M17.8535 8.66311C18.3348 10.3348 8.12917 12.843 4.91608 13.5083C2.72317 14.0887 1.09966 14.3893 1.04823 14.1866C0.992633 13.9893 2.483 13.2576 4.60982 12.4179C7.61691 11.039 17.3814 6.99034 17.8577 8.65781L17.8535 8.66311Z" fill="var(--fill-0, #C1A293)"/>
<path id="Vector_31" opacity="0.76" d="M17.0991 8.91099C17.5394 10.4419 8.09976 12.7833 4.97124 13.4581C2.77512 14.0534 1.12993 14.3711 1.07945 14.1781C1.02472 13.9903 2.54353 13.2651 4.6805 12.4339C7.61847 11.1115 16.6598 7.38966 17.0991 8.91099Z" fill="var(--fill-0, #C7A898)"/>
<path id="Vector_32" opacity="0.78" d="M16.346 9.15897C16.7402 10.5448 8.07158 12.7236 5.03196 13.4026C2.83254 14.013 1.16567 14.3478 1.11606 14.1643C1.06636 13.9808 2.60867 13.2577 4.75163 12.4404C7.61622 11.1799 15.9426 7.77425 16.3368 9.1601L16.346 9.15897Z" fill="var(--fill-0, #CDAD9D)"/>
<path id="Vector_33" opacity="0.8" d="M15.588 9.41241C15.9412 10.6574 8.03862 12.6694 5.08773 13.3526C2.88501 13.9779 1.20157 14.334 1.15187 14.1506C1.10313 13.9767 2.67399 13.2599 4.83117 12.4458C7.62654 11.2419 15.2298 8.16308 15.5871 9.40278L15.588 9.41241Z" fill="var(--fill-0, #D2B3A2)"/>
<path id="Vector_34" opacity="0.83" d="M14.8311 9.65986C15.1474 10.7588 8.00253 12.6146 5.1454 13.3063C2.93445 13.9422 1.23436 14.3198 1.19064 14.1501C1.14277 13.9858 2.74623 13.2701 4.9094 12.4699C7.63564 11.3227 14.5199 8.56535 14.8361 9.6642L14.8311 9.65986Z" fill="var(--fill-0, #D8B8A7)"/>
<path id="Vector_35" opacity="0.85" d="M14.0751 9.91347C14.3504 10.8715 7.97148 12.5604 5.20317 13.2564C2.98892 13.9073 1.26724 14.3019 1.22439 14.1419C1.18154 13.9819 2.80435 13.2737 4.98677 12.4808C7.64389 11.3901 13.8048 8.95974 14.0801 9.91772L14.0751 9.91347Z" fill="var(--fill-0, #DDBEAC)"/>
<path id="Vector_36" opacity="0.88" d="M13.3223 10.1612C13.5566 10.9784 7.94373 12.5006 5.26007 13.2061C3.04252 13.872 1.29916 14.2836 1.25726 14.1331C1.21528 13.9827 2.8707 13.2756 5.05407 12.4924C7.64293 11.4678 13.084 9.34935 13.3182 10.1666L13.3223 10.1612Z" fill="var(--fill-0, #E3C3B0)"/>
<path id="Vector_37" opacity="0.9" d="M12.5675 10.4089C12.7607 11.0853 7.9139 12.4407 5.31897 13.1504C3.09821 13.8312 1.33316 14.2599 1.29629 14.1137C1.25527 13.9729 2.9341 13.2679 5.13673 12.4922C7.65646 11.5242 12.3743 9.73255 12.5716 10.4036L12.5675 10.4089Z" fill="var(--fill-0, #E9C8B5)"/>
<path id="Vector_38" opacity="0.93" d="M11.8104 10.6622C11.9626 11.1978 7.88181 12.3862 5.37569 13.1002C3.15164 13.7959 1.36993 14.246 1.3289 14.1052C1.29291 13.9686 3.00029 13.2699 5.2089 12.5081C7.65942 11.5967 11.6582 10.1266 11.8104 10.6622Z" fill="var(--fill-0, #EECEBA)"/>
<path id="Vector_39" opacity="0.95" d="M11.0555 10.9101C11.1667 11.3048 7.85188 12.3264 5.43033 13.05C3.20307 13.7607 1.39968 14.2278 1.36464 14.1009C1.32951 13.9739 3.06039 13.2774 5.28323 12.5187C7.66037 11.6692 10.9402 10.5206 11.0555 10.9101Z" fill="var(--fill-0, #F4D3BF)"/>
<path id="Vector_40" opacity="0.98" d="M10.3013 11.1582C10.3714 11.4121 7.82265 12.2669 5.48992 12.9947C3.25433 13.716 1.43437 14.2045 1.40427 14.0819C1.3701 13.9645 3.13359 13.269 5.36241 12.5242C7.67042 11.7313 10.2311 10.9042 10.3013 11.1582Z" fill="var(--fill-0, #F9D9C4)"/>
<path id="Vector_41" d="M9.5452 11.4116C9.57434 11.5247 7.79151 12.2127 5.54759 12.9447C3.3088 13.681 1.46707 14.1865 1.43793 14.0734C1.40879 13.9604 3.19665 13.2766 5.4397 12.535C7.67858 11.7988 9.52022 11.2932 9.54936 11.4063L9.5452 11.4116Z" fill="var(--fill-0, #FFDEC9)"/>
</g>
</svg>
