<svg preserveAspectRatio="none" width="100%" height="100%" overflow="visible" style="display: block;" viewBox="0 0 8.94482 46.216" fill="none" xmlns="http://www.w3.org/2000/svg">
<g id="Group" style="mix-blend-mode:screen" opacity="0.2">
<path id="Vector" opacity="0.02" d="M6.74549 0.0152507C13.2945 0.902981 3.28607 36.9583 1.68208 43.1145C1.11388 45.3064 0.906935 46.2817 0.416711 46.2126C-0.063453 46.1521 -0.0165307 45.1565 0.0236275 42.8902C0.134301 36.5341 0.206639 -0.863893 6.74549 0.0152507Z" fill="var(--fill-0, #1F0505)"/>
<path id="Vector_2" opacity="0.05" d="M6.61105 1.05971C13 1.92723 3.24419 37.099 1.67377 43.1154C1.11624 45.2721 0.908421 46.2378 0.432421 46.1718C-0.0385488 46.1103 0.00421211 45.12 0.0480132 42.8921C0.157819 36.6769 0.23128 0.191148 6.61105 1.05971Z" fill="var(--fill-0, #240B0A)"/>
<path id="Vector_3" opacity="0.07" d="M6.46846 2.1001C12.6964 2.93778 3.18919 37.2313 1.65815 43.1218C1.11138 45.2433 0.907633 46.2037 0.440914 46.1366C-0.0208621 46.0739 0.0227673 45.0934 0.0701245 42.9039C0.17915 36.8295 0.254694 1.26553 6.47349 2.10435L6.46846 2.1001Z" fill="var(--fill-0, #2A100F)"/>
<path id="Vector_4" opacity="0.1" d="M6.32847 3.1403C12.3964 3.95787 3.1368 37.3635 1.64427 43.1185C1.10816 45.2048 0.90364 46.1555 0.441865 46.0927C-0.0106306 46.029 0.0297048 45.0634 0.0797507 42.9026C0.187042 36.9595 0.269701 2.3217 6.32344 3.13605L6.32847 3.1403Z" fill="var(--fill-0, #2F1614)"/>
<path id="Vector_5" opacity="0.12" d="M6.18363 4.18606C12.0915 4.98342 3.08459 37.5055 1.62146 43.126C1.09594 45.177 0.895583 46.1225 0.443001 46.0587C-0.0044634 45.9992 0.0409831 45.0378 0.0945852 42.9155C0.201009 37.1132 0.284883 3.38767 6.18363 4.18606Z" fill="var(--fill-0, #351B19)"/>
<path id="Vector_6" opacity="0.15" d="M6.05092 5.23087C11.7987 6.00802 3.03948 37.6422 1.61998 43.1314C1.11024 45.1515 0.903905 46.0831 0.465634 46.0225C0.0323938 45.9662 0.0735938 45.0101 0.121645 42.9274C0.227201 37.2658 0.317317 4.45694 6.05092 5.23087Z" fill="var(--fill-0, #3B201D)"/>
<path id="Vector_7" opacity="0.17" d="M5.90911 6.27126C11.4919 7.02394 2.98528 37.7745 1.60429 43.1283C1.10522 45.1132 0.903042 46.0394 0.469802 45.983C0.0457555 45.9257 0.0879049 44.9792 0.134481 42.9306C0.243334 37.4046 0.331462 5.52291 5.90911 6.27126Z" fill="var(--fill-0, #402622)"/>
<path id="Vector_8" opacity="0.2" d="M5.76834 7.31138C11.1911 8.04385 2.93714 37.9108 1.59058 43.1344C1.10218 45.084 0.89913 46.0007 0.475084 45.9433C0.0602318 45.8848 0.0940624 44.9491 0.153389 42.9377C0.261374 37.5526 0.350712 6.58315 5.76834 7.31138Z" fill="var(--fill-0, #462B27)"/>
<path id="Vector_9" opacity="0.22" d="M5.62358 8.35731C10.8862 9.06958 2.8799 38.0487 1.57185 43.1368C1.0942 45.0512 0.891068 45.9679 0.480379 45.904C0.070644 45.8498 0.1095 44.9184 0.167352 42.9412C0.27872 37.6915 0.37014 7.64392 5.62774 8.35202L5.62358 8.35731Z" fill="var(--fill-0, #4B312C)"/>
<path id="Vector_10" opacity="0.24" d="M5.48801 9.40186C10.5906 10.0939 2.83193 38.1852 1.55832 43.1431C1.09134 45.0223 0.887343 45.9293 0.486715 45.874C0.0912049 45.823 0.125985 44.8968 0.187393 42.9581C0.297893 37.8493 0.395556 8.7183 5.48385 9.40715L5.48801 9.40186Z" fill="var(--fill-0, #513631)"/>
<path id="Vector_11" opacity="0.27" d="M5.34888 10.4425C10.2863 11.1102 2.78544 38.3221 1.55033 43.1445C1.09402 44.9884 0.894191 45.8901 0.502844 45.8338C0.116527 45.7817 0.152085 44.8651 0.212018 42.9605C0.321738 37.9926 0.420529 9.77387 5.34888 10.4425Z" fill="var(--fill-0, #573C36)"/>
<path id="Vector_12" opacity="0.29" d="M5.20153 11.4879C9.97896 12.1353 2.72568 38.4594 1.52918 43.1462C1.0844 44.9646 0.882745 45.8471 0.500591 45.7897C0.123468 45.7365 0.15582 44.8348 0.214279 42.9644C0.327294 38.132 0.424092 10.8404 5.1965 11.4836L5.20153 11.4879Z" fill="var(--fill-0, #5C413B)"/>
<path id="Vector_13" opacity="0.32" d="M5.06249 12.5285C9.67981 13.1557 2.67919 38.5963 1.51712 43.1529C1.08301 44.9361 0.885606 45.8132 0.508483 45.76C0.136391 45.7111 0.173774 44.8138 0.235789 42.9817C0.347937 38.2901 0.450976 11.9151 5.05833 12.5339L5.06249 12.5285Z" fill="var(--fill-0, #624640)"/>
<path id="Vector_14" opacity="0.34" d="M4.92788 13.5735C9.38943 14.1752 2.63227 38.7331 1.50871 43.1543C1.08527 44.9021 0.886909 45.7697 0.524098 45.7198C0.1612 45.6698 0.194508 44.7778 0.260079 42.9842C0.36633 38.4291 0.475614 12.9706 4.92788 13.5735Z" fill="var(--fill-0, #684C45)"/>
<path id="Vector_15" opacity="0.37" d="M4.7878 14.6135C9.08421 15.1907 2.57555 38.8704 1.49561 43.1602C1.08293 44.873 0.888723 45.7352 0.535019 45.6841C0.186432 45.6374 0.21549 44.7507 0.284705 42.9954C0.394251 38.576 0.505619 14.0394 4.79283 14.6177L4.7878 14.6135Z" fill="var(--fill-0, #6D514A)"/>
<path id="Vector_16" opacity="0.39" d="M4.64148 15.6592C8.77786 16.2162 2.52186 39.0123 1.47549 43.1623C1.07339 44.8399 0.878319 45.6925 0.538926 45.6447C0.199446 45.5968 0.225298 44.725 0.297201 42.9987C0.40588 38.7199 0.51941 15.1053 4.65067 15.658L4.64148 15.6592Z" fill="var(--fill-0, #73574E)"/>
<path id="Vector_17" opacity="0.41" d="M4.50201 16.6996C8.47828 17.2364 2.46999 39.1448 1.45797 43.1646C1.06654 44.8069 0.875634 45.6541 0.53624 45.6063C0.201878 45.5627 0.232756 44.6953 0.303185 43.003C0.410996 38.8651 0.525744 16.1627 4.49698 16.6953L4.50201 16.6996Z" fill="var(--fill-0, #785C53)"/>
<path id="Vector_18" opacity="0.44" d="M4.36679 17.7443C8.18303 18.2609 2.42237 39.2814 1.45389 43.17C1.07824 44.7813 0.881358 45.6147 0.556276 45.5701C0.231107 45.5254 0.262854 44.6675 0.336838 43.0137C0.448032 39.0113 0.564776 17.2308 4.37599 17.7432L4.36679 17.7443Z" fill="var(--fill-0, #7E6158)"/>
<path id="Vector_19" opacity="0.46" d="M4.22333 18.7901C7.87452 19.2823 2.37155 39.4235 1.43663 43.1722C1.07165 44.7484 0.878925 45.5764 0.562951 45.5307C0.252093 45.4892 0.279673 44.6367 0.34802 43.0223C0.458346 39.1608 0.581425 18.2969 4.22333 18.7901Z" fill="var(--fill-0, #84675D)"/>
<path id="Vector_20" opacity="0.49" d="M4.08264 19.8302C7.57372 20.3023 2.31846 39.5555 1.42292 43.1784C1.06861 44.7193 0.875023 45.5378 0.569196 45.5006C0.267532 45.458 0.290949 44.6109 0.367969 43.0392C0.481592 39.3131 0.601631 19.3668 4.08351 19.8399L4.08264 19.8302Z" fill="var(--fill-0, #896C62)"/>
<path id="Vector_21" opacity="0.51" d="M3.94162 20.8707C7.27266 21.3226 2.26495 39.6879 1.4081 43.1752C1.06445 44.681 0.874936 45.4941 0.573272 45.4516C0.280803 45.408 0.301013 44.5758 0.380635 43.0328C0.493477 39.4476 0.615598 20.4232 3.94162 20.8707Z" fill="var(--fill-0, #8F7267)"/>
<path id="Vector_22" opacity="0.54" d="M3.80449 21.9155C6.97551 22.3471 2.22054 39.8289 1.39292 43.1817C1.05994 44.6522 0.869649 45.4558 0.58221 45.4165C0.294771 45.3771 0.320007 44.5491 0.398155 43.0404C0.51013 39.5961 0.638498 21.4881 3.79946 21.9113L3.80449 21.9155Z" fill="var(--fill-0, #94776C)"/>
<path id="Vector_23" opacity="0.56" d="M3.66207 22.9612C6.66795 23.3684 2.16564 39.9666 1.38164 43.1882C1.06445 44.6277 0.873201 45.4216 0.590793 45.3865C0.317578 45.3504 0.338745 44.5278 0.420449 43.0574C0.530689 39.7444 0.661227 22.5583 3.66711 22.9654L3.66207 22.9612Z" fill="var(--fill-0, #9A7D71)"/>
<path id="Vector_24" opacity="0.59" d="M3.52269 24.0015C6.36854 24.3885 2.11385 40.0988 1.36429 43.1903C1.05777 44.5946 0.870689 45.3832 0.597475 45.347C0.333541 45.3098 0.355484 44.4967 0.4358 43.0605C0.545173 39.8884 0.681865 23.6188 3.52269 24.0015Z" fill="var(--fill-0, #A08276)"/>
<path id="Vector_25" opacity="0.61" d="M3.38036 25.042C6.07035 25.4036 2.06425 40.2356 1.35319 43.1916C1.05734 44.5606 0.869295 45.3396 0.605362 45.3024C0.350535 45.2641 0.36927 44.4659 0.453143 43.0682C0.561735 40.0368 0.704672 24.6838 3.38547 25.0464L3.38036 25.042Z" fill="var(--fill-0, #A5877B)"/>
<path id="Vector_26" opacity="0.63" d="M3.24201 26.092C5.77189 26.4333 2.01341 40.3774 1.34087 43.1978C1.05569 44.5317 0.871901 45.3054 0.612998 45.2724C0.363202 45.2384 0.381934 44.4403 0.469362 43.0809C0.58125 40.1851 0.717078 25.755 3.24201 26.092Z" fill="var(--fill-0, #AB8D7F)"/>
<path id="Vector_27" opacity="0.66" d="M3.10211 27.1324C5.46685 27.4491 1.96103 40.5098 1.32301 43.2C1.04849 44.4986 0.863746 45.2627 0.619068 45.2329C0.378552 45.1978 0.39816 44.4093 0.484114 43.0841C0.595134 40.329 0.737291 26.8155 3.09283 27.1334L3.10211 27.1324Z" fill="var(--fill-0, #B09284)"/>
<path id="Vector_28" opacity="0.68" d="M2.9603 28.1727C5.16501 28.4693 1.91185 40.6463 1.31234 43.201C1.04849 44.4645 0.867911 45.2231 0.632513 45.1923C0.406222 45.1604 0.42166 44.3773 0.511171 43.0904C0.625487 40.4709 0.769725 27.8793 2.96533 28.177L2.9603 28.1727Z" fill="var(--fill-0, #B69889)"/>
<path id="Vector_29" opacity="0.71" d="M2.81987 29.2131C4.86456 29.4895 1.85902 40.7787 1.29395 43.2032C1.0458 44.4357 0.859324 45.1805 0.633033 45.1485C0.416023 45.1156 0.42816 44.3474 0.520446 43.0894C0.633895 40.6107 0.779264 28.9313 2.81484 29.2088L2.81987 29.2131Z" fill="var(--fill-0, #BC9D8E)"/>
<path id="Vector_30" opacity="0.73" d="M2.68058 30.263C4.56524 30.5192 1.80733 40.9205 1.28579 43.2138C1.0484 44.411 0.861836 45.1558 0.644825 45.1229C0.432759 45.0942 0.450021 44.3302 0.545863 43.1106C0.658445 40.7728 0.805976 30.0153 2.68561 30.2673L2.68058 30.263Z" fill="var(--fill-0, #C1A293)"/>
<path id="Vector_31" opacity="0.76" d="M2.53894 31.3037C4.25846 31.5354 1.75833 41.0574 1.27028 43.2108C1.04355 44.3729 0.85612 45.1081 0.653334 45.0784C0.450548 45.0485 0.468673 44.2942 0.56304 43.1087C0.678918 40.9064 0.828534 31.0708 2.54311 31.2983L2.53894 31.3037Z" fill="var(--fill-0, #C7A898)"/>
<path id="Vector_32" opacity="0.78" d="M2.39947 32.3436C3.95896 32.5553 1.70646 41.1894 1.25284 43.2126C1.03678 44.3394 0.853511 45.0694 0.659919 45.0385C0.471358 45.0119 0.480293 44.2587 0.574053 43.1169C0.68915 41.0554 0.839981 32.1321 2.39947 32.3436Z" fill="var(--fill-0, #CDAD9D)"/>
<path id="Vector_33" opacity="0.8" d="M2.25957 33.3844C3.65904 33.5757 1.65416 41.322 1.24417 43.2139C1.03878 44.3056 0.854551 45.0259 0.666076 44.9993C0.486709 44.9716 0.496512 44.2279 0.593828 43.1246C0.703027 41.1997 0.865136 33.1972 2.25957 33.3844Z" fill="var(--fill-0, #D2B3A2)"/>
<path id="Vector_34" opacity="0.83" d="M2.11585 34.4299C3.35529 34.6011 1.60308 41.4637 1.2224 43.2212C1.02768 44.2776 0.847702 44.9927 0.668334 44.965C0.494084 44.9416 0.504843 44.2075 0.604762 43.133C0.717343 41.3436 0.881529 34.263 2.11082 34.4256L2.11585 34.4299Z" fill="var(--fill-0, #D8B8A7)"/>
<path id="Vector_35" opacity="0.85" d="M1.98046 35.4746C3.05484 35.6213 1.55529 41.6003 1.21823 43.2266C1.03921 44.2521 0.853256 44.9532 0.688199 44.9288C0.523056 44.9043 0.534763 44.1798 0.638324 43.1437C0.749952 41.4951 0.911191 35.3321 1.98965 35.4735L1.98046 35.4746Z" fill="var(--fill-0, #DDBEAC)"/>
<path id="Vector_36" opacity="0.88" d="M1.84003 36.5149C2.75847 36.6361 1.4983 41.738 1.19976 43.2287C1.03149 44.2189 0.849701 44.9147 0.689588 44.8945C0.533726 44.869 0.546302 44.1541 0.648389 43.1522C0.763312 41.6391 0.926629 36.398 1.83587 36.5203L1.84003 36.5149Z" fill="var(--fill-0, #E3C3B0)"/>
<path id="Vector_37" opacity="0.9" d="M1.69597 37.5606C2.45437 37.6616 1.44687 41.8799 1.18181 43.2308C1.02421 44.1859 0.841546 44.872 0.690627 44.8508C0.548989 44.8284 0.557398 44.1188 0.65801 43.151C0.772153 41.7788 0.941722 37.4542 1.69094 37.5563L1.69597 37.5606Z" fill="var(--fill-0, #E9C8B5)"/>
<path id="Vector_38" opacity="0.93" d="M1.55407 38.6011C2.14733 38.6776 1.39248 42.0124 1.17114 43.2321C1.02412 44.1519 0.845616 44.8327 0.703978 44.8104C0.571534 44.7869 0.571624 44.088 0.68091 43.1629C0.794186 41.9316 0.964965 38.5192 1.55407 38.6011Z" fill="var(--fill-0, #EECEBA)"/>
<path id="Vector_39" opacity="0.95" d="M1.41937 39.6452C1.85261 39.7015 1.34539 42.1484 1.15839 43.2379C1.02212 44.1225 0.842668 44.7937 0.715341 44.7746C0.587928 44.7555 0.593044 44.0608 0.700856 43.1699C0.817427 42.074 0.986126 39.5889 1.41937 39.6452Z" fill="var(--fill-0, #F4D3BF)"/>
<path id="Vector_40" opacity="0.98" d="M1.27895 40.6861C1.55208 40.7223 1.2976 42.2855 1.1492 43.2395C1.02352 44.0889 0.848308 44.7548 0.725925 44.7399C0.607793 44.7196 0.613777 44.0346 0.725145 43.1821C0.840935 42.2271 1.01588 40.6585 1.28398 40.6904L1.27895 40.6861Z" fill="var(--fill-0, #F9D9C4)"/>
<path id="Vector_41" d="M1.13549 41.7318C1.24868 41.7478 1.24174 42.4232 1.12768 43.2469C1.01779 44.0653 0.8366 44.7174 0.728528 44.7057C0.62462 44.6887 0.626437 44.009 0.73633 43.1905C0.851253 42.3764 1.02742 41.7201 1.13549 41.7318Z" fill="var(--fill-0, #FFDEC9)"/>
</g>
</svg>
