<svg preserveAspectRatio="none" width="100%" height="100%" overflow="visible" style="display: block;" viewBox="0 0 332.347 34.3599" fill="none" xmlns="http://www.w3.org/2000/svg">
<g id="Group">
<path id="Vector" d="M112.01 21.7789C112.526 18.533 110.853 16.2508 108.447 15.6929C108.451 16.0987 108.428 16.5298 108.36 16.9607C107.734 20.8912 104.238 26.47 101.588 29.0313C100.476 30.1216 99.4573 30.629 98.4961 30.629C96.7342 30.629 94.1214 28.0677 94.8193 23.6807C95.6789 18.2793 101.185 12.295 107.912 12.295C112.398 12.295 116.624 15.6421 115.608 22.0323C114.264 30.4766 105.733 33.0379 104.634 33.0379C104.543 33.0379 104.506 32.9874 104.449 32.9112C103.933 31.6939 101.747 29.6145 101.747 29.6145C105.662 29.3101 111.118 27.3829 112.01 21.7789ZM98.1912 23.6299C97.8967 25.481 98.7974 26.2925 99.1633 26.2925C100.262 26.2925 104.274 20.2066 104.794 16.9356C104.851 16.5804 104.876 16.2762 104.852 15.9971C101.428 17.2398 98.6269 20.8912 98.1912 23.6299Z" fill="var(--fill-0, #001F66)"/>
<g id="Group_2">
<path id="Vector_2" d="M125.344 19.2901H131.499L131.895 16.805H129.721C128.989 18.0982 128.195 19.0618 128.103 19.0618C128.081 19.0618 128.039 19.0364 127.997 19.011C127.6 18.6307 125.041 18.1744 125.041 18.1744C128.372 14.9285 129.42 10.6429 129.42 10.6429C129.42 10.6429 131.808 11.0232 132.325 11.2261C132.496 11.3023 132.594 11.4036 132.578 11.5052C132.554 11.6573 132.373 11.784 131.976 11.8348C131.827 12.3418 131.581 13.0267 131.254 13.7874H132.375L132.686 11.8348C132.686 11.8348 132.881 10.4654 132.908 10.0091C136.683 10.0091 136.784 10.2371 136.752 10.44C136.724 10.6175 136.467 10.795 136.043 10.8711C135.976 11.1502 135.803 12.0884 135.803 12.0884L135.533 13.7874H140.59L140.11 16.805H135.053L134.657 19.2901H140.813L140.333 22.3077H136.076C135.67 24.7166 134.989 28.8501 134.969 28.9769C134.909 29.3572 134.875 29.7122 135.631 29.7122C135.791 29.7122 135.955 29.6868 136.073 29.6617C137.044 29.4585 137.068 28.0132 137.553 25.2493C137.553 25.2493 139.228 27.3792 139.908 27.709C140.01 27.7852 140.048 27.8357 140.028 27.9625C140.024 27.9878 140.02 28.0132 140.016 28.0386C139.172 31.6141 138.295 32.9581 134.725 32.9581C131.956 32.9581 131.483 31.6141 131.786 29.7122C131.79 29.6868 131.794 29.6617 131.798 29.6363C132.002 28.4952 132.647 24.5899 133.01 22.3077H131.935C131.191 26.6946 129.52 31.1578 124.253 33.3384C124.153 33.3892 124.103 33.4146 124.057 33.4146C124.012 33.4146 123.97 33.3892 123.936 33.313C123.53 32.7044 122.089 31.6902 121.513 31.2845C121.313 31.5381 121.135 31.7916 120.935 32.0452C121.013 32.2735 121.053 32.451 121.029 32.6031C121.009 32.73 120.924 32.8313 120.787 32.8313C120.718 32.8313 120.634 32.7806 120.551 32.73C119.766 32.1973 118.044 30.6504 118.044 30.6504C120.058 28.9261 123.231 23.6517 123.778 22.6626C123.778 22.6626 124.977 24.6153 125.409 24.9197C125.493 24.9703 125.507 25.021 125.499 25.0718C125.483 25.1731 123.656 28.3177 121.722 30.9803C126.83 29.5093 128.311 26.2383 128.96 22.3077H124.864L125.344 19.2901ZM121.953 16.2979C121.953 16.2979 124.318 17.5403 125.252 18.8589L123.064 21.826C122.197 20.2283 119.734 18.8843 119.734 18.8843L121.953 16.2979ZM124.456 10.4908C124.456 10.4908 126.608 12.063 127.431 13.5084L124.933 16.1204C124.211 14.472 122.018 12.7222 122.018 12.7222L124.456 10.4908Z" fill="var(--fill-0, #001F66)"/>
<path id="Vector_3" d="M148.953 26.6692L148.711 26.8975C148.657 26.9483 148.63 26.9737 148.584 26.9737C148.561 26.9737 148.519 26.9483 148.478 26.9229C148.319 26.7708 147.708 26.441 147.157 26.1622C146.31 27.8865 145.173 30.1434 143.941 31.9944C144.064 32.2227 144.078 32.4256 144.058 32.5523C144.038 32.6792 143.957 32.7552 143.842 32.7552C143.774 32.7552 143.705 32.7552 143.622 32.7044C142.775 32.2735 140.792 30.9295 140.792 30.9295C142.693 29.053 145.501 23.1951 145.964 22.1556C145.964 22.1556 147.232 23.6771 147.819 24.1587C150.219 21.8765 151.286 19.3406 151.286 19.3406C151.286 19.3406 153.411 19.6451 154.203 19.848C154.378 19.8987 154.457 19.9747 154.441 20.0762C154.421 20.2029 154.145 20.355 153.638 20.3804C153.514 20.5833 153.324 20.9129 153.049 21.344H155.063C155.976 20.355 156.495 19.3914 156.495 19.3914C156.495 19.3914 158.96 19.721 159.489 19.848C159.71 19.8987 159.808 20.0001 159.792 20.1014C159.772 20.2283 159.546 20.355 159.065 20.355H158.996C158.734 20.71 158.456 21.0145 158.13 21.344H162.912L162.569 23.4996H157.832L157.683 24.4378H161.985L161.682 26.3396H157.38L157.227 27.3033H161.529L161.226 29.2051H156.924L156.751 30.2955H162.083L161.732 32.5018H150.931L150.765 33.5413H147.791L148.953 26.6692ZM144.981 15.9681C144.981 15.9681 147.269 17.2615 148.458 18.7068L146.125 21.5723C145.054 19.8226 142.617 18.4532 142.617 18.4532L144.981 15.9681ZM147.035 10.3895C147.035 10.3895 149.204 11.8602 150.173 13.5337L147.558 16.0189C146.698 14.0916 144.514 12.5701 144.514 12.5701L147.035 10.3895ZM149.45 16.9317H153.797L153.93 16.0948H150.201L150.527 14.0408H154.257L154.39 13.2042H150.134L150.505 10.8711H157.347L155.975 19.493H153.39L153.446 19.138H149.098L149.45 16.9317ZM153.799 30.2955L153.973 29.2051H151.455L151.282 30.2955H153.799ZM154.275 27.3033L154.429 26.3396H151.934L151.781 27.3033H154.275ZM154.731 24.4378L154.88 23.4996H152.386L152.237 24.4378H154.731ZM156.818 16.9317H160.983L161.116 16.0948H157.454L157.781 14.0408H161.443L161.576 13.2042H157.457L157.828 10.8711H164.67L163.225 19.9493H160.502L160.632 19.138H156.467L156.818 16.9317Z" fill="var(--fill-0, #001F66)"/>
<path id="Vector_4" d="M166.775 28.419C166.985 27.1004 167.322 25.2745 167.669 23.525C166.458 26.3904 165.957 26.9483 165.911 26.9483C165.888 26.9483 165.869 26.9229 165.832 26.8721C165.472 26.1114 164.008 24.8182 164.008 24.8182C165.701 23.0938 167.242 20.0254 168.029 18.0982H166.129L166.65 14.827H168.961L169.437 11.8348C169.437 11.8348 169.608 10.6175 169.643 10.1104C169.643 10.1104 171.931 10.1104 172.845 10.2625C173.135 10.3133 173.252 10.44 173.228 10.5921C173.2 10.7698 172.961 10.9725 172.56 11.0486C172.45 11.4544 172.337 12.1644 172.337 12.1644L171.913 14.827H172.028L173.348 13.4324C173.446 13.5337 173.54 13.6605 173.639 13.762C174.6 12.4688 175.57 10.5416 175.71 10.2371C175.71 10.2371 177.149 10.9725 177.698 11.4036C177.8 11.4798 177.853 11.5811 177.837 11.6827C177.817 11.8094 177.636 11.9363 177.224 11.9363C176.524 13.0267 175.64 14.2691 174.788 15.3089C174.935 15.5369 175.063 15.74 175.172 15.9173C176.017 14.7762 176.647 13.8379 176.907 13.3563C176.907 13.3563 177.554 13.8887 178.016 14.2945C178.114 13.5337 178.243 12.7222 178.377 11.8855C178.47 11.3023 178.547 10.6683 178.594 10.085C178.594 10.085 181.503 10.2117 181.861 10.2625C182.132 10.2879 182.314 10.44 182.29 10.5921C182.261 10.7698 182.027 10.9473 181.457 11.074C181.283 11.8855 181.139 12.6463 180.999 13.3816L181.384 12.9759C181.52 13.128 181.633 13.2801 181.769 13.4324C182.744 12.1897 183.751 10.4654 183.856 10.2371C183.856 10.2371 185.233 11.074 185.764 11.4798C185.866 11.556 185.919 11.6573 185.902 11.7586C185.882 11.8855 185.752 11.9869 185.454 11.9869H185.271C184.641 12.9251 183.746 14.0916 182.91 15.0298C183.038 15.2327 183.166 15.4356 183.275 15.6131C184.251 14.3707 185.038 13.3055 185.325 12.7984C185.325 12.7984 186.685 13.8887 186.881 14.0916C186.994 14.2439 187.066 14.3707 187.045 14.4974C187.025 14.6241 186.895 14.7256 186.643 14.7256C186.574 14.7256 186.483 14.7256 186.395 14.7002C186.009 15.2581 184.344 17.2361 182.716 18.9859C183.277 18.9097 183.77 18.8335 184.148 18.7576C184.059 18.4532 183.947 18.149 183.836 17.8445L185.509 17.1092C185.509 17.1092 186.486 19.1631 186.516 20.9891L184.651 21.9273C184.617 21.4202 184.579 20.9383 184.518 20.4566C184.163 20.5325 183.716 20.6087 183.201 20.6849C183.408 20.9637 183.716 21.4708 183.948 22.0286H186.213L185.81 24.5645H182.743C184.028 25.5535 184.41 25.8831 184.37 26.1368C184.349 26.2635 184.219 26.365 183.99 26.365C183.875 26.365 183.742 26.3396 183.59 26.2889C182.878 27.0242 182.104 27.8611 181.197 28.6727C181.445 29.129 181.942 29.8897 182.399 29.8897C182.971 29.8897 183.34 28.7234 183.602 27.075C183.619 26.9737 183.631 26.8975 183.643 26.8213C183.643 26.8213 184.914 28.9007 185.615 29.3826C185.676 29.4334 185.74 29.4585 185.724 29.5601C185.631 30.1434 184.415 33.1863 182.104 33.1863C180.799 33.1863 179.519 32.1719 178.736 30.625C176.173 32.3497 173.733 33.1609 173.618 33.1609C173.572 33.1609 173.531 33.1355 173.493 33.0848C173.312 32.7806 172.604 32.1973 172.063 31.7154C171.751 32.096 171.42 32.451 171.07 32.7806C171.016 32.8313 170.962 32.8821 170.916 32.8821C170.871 32.8821 170.852 32.8567 170.81 32.8313C170.48 32.6031 169.774 32.2989 169.188 32.096L168.982 33.3892H165.985L166.775 28.419ZM169.39 30.8279C171.551 28.7486 172.215 26.1622 172.515 24.5645H170.89L171.209 22.5613H171.186C171.071 22.5613 170.856 21.4708 170.751 20.837C170.442 23.4996 169.979 27.1258 169.749 28.5711L169.39 30.8279ZM172.234 19.5689C172.762 18.9859 173.27 18.3772 173.783 17.7432C173.561 17.4136 173.29 16.9571 172.932 16.4751L172.674 18.0982H171.507C171.625 18.504 171.815 19.0364 172.051 19.5689H172.234ZM177.38 22.0286C177.375 21.7752 177.397 21.4961 177.391 21.2427L176.05 21.9019C176.061 21.5469 176.064 21.2427 176.066 20.9383C175.264 21.0904 174.248 21.2935 173.102 21.4456L173.216 21.5977C173.216 21.5977 172.703 21.8006 172.186 22.0286H177.38ZM174.952 24.9197C175.472 25.6802 176.385 26.8467 177.531 27.5569C177.531 27.5569 175.882 28.5711 175.228 29.2305C175.201 29.2559 175.174 29.2813 175.128 29.2813C175.105 29.2813 175.082 29.2813 175.063 29.2559C174.75 28.9261 174.433 28.4695 174.144 27.9878C173.816 28.9007 173.369 29.8389 172.762 30.7771C174.854 30.1434 176.574 29.2559 177.936 28.3177C177.67 27.2525 177.502 26.0101 177.434 24.5645H175.009L174.952 24.9197ZM175.837 19.2139C175.776 18.8843 175.709 18.5801 175.606 18.2249C175.293 18.6053 174.977 19.011 174.642 19.3914C175.089 19.3155 175.486 19.2647 175.837 19.2139ZM177.203 17.3882C177.203 17.3882 177.395 17.7686 177.56 18.4532C177.641 17.5149 177.734 16.5008 177.88 15.4356C177.506 15.9173 176.739 16.8555 175.86 17.9207L177.203 17.3882ZM181.774 22.0286C181.534 21.5215 181.304 21.2427 181.304 21.2427L182.188 20.8624C181.532 20.9637 180.829 21.0652 180.103 21.1666C180.101 21.4708 180.079 21.7498 180.081 22.0286H181.774ZM180.181 24.5645C180.24 25.1985 180.311 25.7564 180.413 26.2635C181.068 25.6043 181.549 25.021 181.851 24.5645H180.181ZM181.826 17.3882C181.555 16.9317 181.157 16.2725 180.644 15.6131C180.442 16.8812 180.302 18.0477 180.22 19.138C180.767 18.5801 181.298 17.9715 181.826 17.3882Z" fill="var(--fill-0, #001F66)"/>
<path id="Vector_5" d="M198.881 17.0586C194.844 21.7244 191.321 23.7278 191.207 23.7278C191.138 23.7278 191.097 23.7024 191.036 23.6517C190.376 22.7642 188.095 21.5723 188.095 21.5723C193.621 18.4786 196.753 14.9031 199.315 10.5921C200.296 10.8965 202.382 11.4544 202.811 11.6319C203.092 11.7332 203.183 11.8855 203.162 12.0123C203.134 12.1897 202.831 12.3672 202.407 12.4434C202.106 12.8997 201.809 13.3309 201.488 13.762L206.187 13.7112C206.371 13.7112 206.513 13.5337 206.696 13.5337C206.879 13.5337 209.165 15.1314 209.076 15.6893C209.048 15.8668 208.89 15.9935 208.485 16.0948C203.838 23.7278 199.061 30.1688 190.709 32.7552C190.659 32.7806 190.613 32.7806 190.59 32.7806C190.521 32.7806 190.503 32.7552 190.446 32.6792C189.743 31.4874 187.39 29.7376 187.39 29.7376C195.932 27.6836 200.108 22.8655 203.855 17.0079L198.881 17.0586Z" fill="var(--fill-0, #001F66)"/>
<path id="Vector_6" d="M225.905 11.1753C226.175 11.2007 226.27 11.3277 226.25 11.4544C226.217 11.6573 225.929 11.8855 225.547 11.9869C225.394 12.5193 225.287 13.3309 225.204 13.7112C225.056 14.4974 224.869 15.3848 224.716 16.3484C224.582 17.1854 224.46 18.0982 224.361 19.011C224.319 19.4168 224.259 19.7972 224.194 20.2029C223.242 26.1876 220.565 30.9295 213.109 33.4905C213.037 33.5159 212.991 33.5159 212.945 33.5159C212.854 33.5159 212.816 33.4654 212.759 33.3892C211.973 32.1465 209.632 30.3209 209.632 30.3209C217.488 28.6978 219.614 25.4014 220.53 19.6451C220.582 19.3155 220.616 18.9605 220.672 18.6053C220.803 17.6417 221.491 13.4576 221.791 10.9981C221.791 10.9981 224.918 11.0486 225.905 11.1753ZM212.239 15.2327C212.239 15.2327 212.255 15.1314 212.283 14.9539C212.388 14.2945 212.628 12.6463 212.759 11.0994C214.078 11.1502 216.13 11.2007 216.85 11.2769C217.098 11.3023 217.238 11.429 217.214 11.5811C217.189 11.7332 216.947 11.9615 216.465 12.1136C216.299 12.7222 216.091 13.8887 216.091 13.8887L214.344 24.8689H210.706L212.239 15.2327Z" fill="var(--fill-0, #001F66)"/>
<path id="Vector_7" d="M227.414 19.6705H245.354L244.725 23.6263H226.784L227.414 19.6705Z" fill="var(--fill-0, #001F66)"/>
<path id="Vector_8" d="M245.802 26.6438H264.726L264.089 30.6504H245.164L245.802 26.6438ZM249.614 14.6241H264.74L264.114 18.5547H248.988L249.614 14.6241Z" fill="var(--fill-0, #001F66)"/>
<path id="Vector_9" d="M286.847 19.6451C286.889 19.6705 286.881 19.721 286.872 19.7718C286.864 19.8226 286.86 19.848 286.806 19.8987C281.253 26.0355 277.016 29.0782 269.768 31.9185C269.775 32.0198 269.755 32.1465 269.739 32.2481C269.694 32.5271 269.597 32.7044 269.414 32.7044C268.888 32.7044 266.642 28.6978 266.675 28.4952C266.687 28.419 266.737 28.3936 266.878 28.3682C272.952 27.1509 279.019 23.8292 286.078 15.1314C286.078 15.1314 286.452 18.5293 286.847 19.6451ZM271.773 11.9869C273.616 13.2042 275.866 14.8777 276.96 16.7796L273.944 20.2029C273.89 20.2537 273.832 20.3296 273.763 20.3296C273.718 20.3296 273.68 20.2791 273.623 20.2029C272.492 17.8194 270.637 16.2471 268.777 14.8523L271.773 11.9869Z" fill="var(--fill-0, #001F66)"/>
<path id="Vector_10" d="M298.884 17.0586C294.847 21.7244 291.324 23.7278 291.21 23.7278C291.141 23.7278 291.099 23.7024 291.039 23.6517C290.379 22.7642 288.098 21.5723 288.098 21.5723C293.624 18.4786 296.756 14.9031 299.318 10.5921C300.299 10.8965 302.385 11.4544 302.814 11.6319C303.095 11.7332 303.185 11.8855 303.165 12.0123C303.137 12.1897 302.834 12.3672 302.41 12.4434C302.109 12.8997 301.811 13.3309 301.491 13.762C303.829 13.7366 306.121 13.7112 306.121 13.7112C306.167 13.7112 306.217 13.6858 306.263 13.6858C305.997 12.6209 305.399 11.3528 304.856 10.5921L306.711 10.0091C307.238 10.719 308.182 12.2659 308.363 13.4324L307.291 13.8379C307.496 13.9903 309.144 15.2835 309.079 15.6893C309.051 15.8668 308.893 15.9935 308.488 16.0948C303.841 23.7278 299.064 30.1688 290.712 32.7552C290.662 32.7806 290.616 32.7806 290.593 32.7806C290.524 32.7806 290.506 32.7552 290.449 32.6792C289.746 31.4874 287.393 29.7376 287.393 29.7376C295.935 27.6836 300.111 22.8655 303.858 17.0079L298.884 17.0586ZM309.738 9.24834C310.236 9.85674 311.217 11.4544 311.449 12.4434L309.394 13.2801C309.208 12.2911 308.478 10.6937 307.848 9.90752L309.738 9.24834Z" fill="var(--fill-0, #001F66)"/>
<path id="Vector_11" d="M312.764 18.7068C312.157 16.6275 311.743 15.0552 311.776 14.8523C311.788 14.7762 311.86 14.751 312.112 14.751C316.274 14.6241 324.016 12.418 329.886 11.9107C330.074 11.8855 330.239 11.7081 330.399 11.7081C330.765 11.7081 331.396 15.0806 331.347 15.3848C331.319 15.5626 331.242 15.6131 331.128 15.6131C331.014 15.6131 330.907 15.5626 330.778 15.5118C329.015 15.6639 327.94 15.9429 327.133 16.2725C325.055 17.1092 320.656 20.7354 320.156 23.8799C319.591 27.43 323.223 28.1907 327.409 28.3428C327.409 28.3428 325.102 30.9041 324.266 32.2735C324.209 32.3497 324.132 32.4002 324.04 32.4002H323.995C318.652 31.462 316.004 28.1148 316.641 24.1082C317.033 21.6482 318.677 18.9351 321.716 16.3738C318.901 16.9571 315.583 18.2503 312.764 18.7068ZM327.675 17.4642C328.203 18.1744 329.151 19.6959 329.381 20.837L327.263 21.9273C327.116 20.837 326.363 19.2393 325.723 18.3772L327.675 17.4642ZM330.6 16.1963C331.103 16.7796 332.115 18.3265 332.347 19.3155L330.262 20.482C330.08 19.4676 329.319 17.9207 328.662 17.16L330.6 16.1963Z" fill="var(--fill-0, #001F66)"/>
</g>
<path id="Vector_12" d="M47.7716 12.5274C48.8263 12.4421 52.1959 12.4717 53.7744 13.3059C56.7454 14.8298 58.2003 18.1893 58.2003 21.8535C58.2003 24.828 57.2717 29.4354 52.7528 31.9024C50.4626 33.172 47.9245 33.5349 45.3865 33.5349C41.4247 33.5349 36.0264 32.3562 36.4644 26.8597C36.7471 23.3118 39.4439 21.4394 43.0651 21.4394C44.2103 21.4394 45.7814 21.6093 47.4318 22.9054C49.4889 24.3246 49.7424 26.6641 49.6803 27.1719C52.3423 26.2287 53.1076 23.0217 53.1076 21.7883C53.1076 20.4459 52.0458 16.8898 46.6866 17.1733C44.5847 17.2845 41.0224 17.7684 37.0297 22.0491C35.0798 24.1532 34.5738 24.6048 33.4232 24.6263C32.1854 24.6495 31.0871 23.5479 31.0871 21.48C31.0871 20.0652 32.9239 18.2999 34.936 16.6312C38.2784 13.874 38.7322 12.9289 43.6844 8.46672C43.7771 8.3577 44.4469 7.82715 44.6948 7.53701C43.2708 7.57324 42.3283 7.88609 39.2022 8.17659C38.2738 8.24903 37.7476 8.28526 37.4379 8.28526C35.9215 8.28526 34.6835 7.63218 34.6835 5.23793C34.6835 2.95235 35.9833 2.19061 37.5927 2.19061C41.5854 2.19061 43.7319 2.08159 48.6532 1.86425C49.2412 1.82768 49.9529 1.82767 50.2317 1.82767C52.2125 1.82767 53.4196 2.4083 53.4196 4.51241C53.4196 5.67332 52.8088 6.72519 51.509 7.59596C49.0754 9.4217 47.5863 10.9768 45.1413 13.0447C45.6364 12.8633 46.7168 12.6127 47.7716 12.5274ZM43.2714 25.826C41.9281 25.5996 41.1198 25.9841 41.1198 26.9639C41.1198 27.7981 41.7035 28.4922 43.9937 28.4922C44.4579 28.4922 45.6027 28.5379 46.0981 28.4288C46.129 28.1749 45.1277 26.1389 43.2714 25.826ZM78.9349 12.5274C79.9896 12.4421 83.3592 12.4717 84.9377 13.3059C87.9087 14.8298 89.3636 18.1893 89.3636 21.8535C89.3636 24.828 88.435 29.4354 83.9161 31.9024C81.6259 33.172 79.0878 33.5349 76.5498 33.5349C72.5881 33.5349 67.1897 32.3562 67.6277 26.8597C67.9104 23.3118 70.6072 21.4394 74.2284 21.4394C75.3736 21.4394 76.9448 21.6093 78.5951 22.9054C80.6522 24.3246 80.9057 26.6641 80.8436 27.1719C83.5056 26.2287 84.2709 23.0217 84.2709 21.7883C84.2709 20.4459 83.2091 16.8898 77.8499 17.1733C75.748 17.2845 72.1857 17.7684 68.1931 22.0491C66.2431 24.1532 65.7371 24.6048 64.5865 24.6263C63.3487 24.6495 62.2504 23.5479 62.2504 21.48C62.2504 20.0652 64.0872 18.2999 66.0993 16.6312C69.4418 13.874 69.8955 12.9289 74.8477 8.46672C74.9404 8.3577 75.6102 7.82715 75.8581 7.53701C74.4341 7.57324 73.4916 7.88609 70.3655 8.17659C69.4371 8.24903 68.9109 8.28526 68.6012 8.28526C67.0848 8.28526 65.8469 7.63218 65.8469 5.23793C65.8469 2.95235 67.1466 2.19061 68.7561 2.19061C72.7487 2.19061 74.8952 2.08159 79.8165 1.86425C80.4045 1.82768 81.1162 1.82767 81.395 1.82767C83.3759 1.82767 84.5829 2.4083 84.5829 4.51241C84.5829 5.67332 83.9721 6.72519 82.6723 7.59596C80.2388 9.4217 78.7496 10.9768 76.3046 13.0447C76.7997 12.8633 77.8801 12.6127 78.9349 12.5274ZM74.4347 25.826C73.0914 25.5996 72.2831 25.9841 72.2831 26.9639C72.2831 27.7981 72.8668 28.4922 75.157 28.4922C75.6212 28.4922 76.766 28.5379 77.2614 28.4288C77.2923 28.1749 76.291 26.1389 74.4347 25.826ZM27.5632 21.6729C27.4504 19.7617 27.3876 16.7834 24.4131 14.5044C23.611 13.9 22.9022 13.2973 21.6988 12.8599C21.6996 12.839 21.7037 12.8186 21.7037 12.7976C21.7037 11.4721 20.64 10.4038 18.9966 10.3975C17.7813 10.3928 16.9054 11.1635 16.6616 12.2013C15.1274 12.212 12.803 12.5594 12.3298 12.6191C12.3298 12.4368 12.3898 10.0629 12.3898 9.85023C14.8234 9.78954 20.1652 8.99797 21.8779 8.75463C23.23 8.54194 23.7709 7.63048 23.7709 6.38437C23.7709 3.86209 21.7879 3.86209 21.1267 3.86209C20.5258 3.86209 18.7317 4.49132 16.3692 4.71889C14.3931 4.90924 13.8922 4.89671 12.6601 4.92735C12.7204 3.52922 13.0816 0 10.2272 0C7.85359 0 7.7933 3.49888 7.7633 4.98803H4.42737C3.19559 4.98803 1.24263 4.98803 1.24263 7.44962C1.24263 9.94125 3.13559 9.94126 4.06707 9.94126H7.28182C7.28182 10.306 7.22182 13.9265 7.22182 14.3522C2.86882 17.4628 0 20.974 0 26.5656C0 30.6074 1.93293 32.9945 4.84738 32.9945C6.35784 32.9945 7.92017 32.8452 8.97302 32.2041C9.45791 32.7065 10.1339 33.0194 10.8829 33.0194C12.3576 33.0194 13.5531 31.8103 13.5531 30.3188C13.5531 29.8573 13.5503 29.3011 13.5031 28.7529C15.4567 26.6537 18.9628 21.0121 20.1943 17.9749C21.2349 18.3446 22.6329 20.3358 22.6131 22.64C22.585 25.9113 20.4804 27.5169 18.4223 28.5568C17.1253 29.2123 16.116 29.7047 16.116 31.7712C16.116 33.1084 16.9232 34.3599 18.8161 34.3599C23.0526 34.3599 28.0132 29.2965 27.5632 21.6729ZM5.82202 27.6182C4.56024 27.6182 4.52826 26.0924 4.52826 25.4847C4.52826 22.9321 7.13329 21.0723 7.61388 20.6772C7.67418 22.1967 7.59101 24.5786 7.97065 26.8785C7.24947 27.3342 6.24291 27.6182 5.82202 27.6182ZM12.3607 22.5891C12.2707 21.8901 12.0941 19.8704 12.0941 17.8041C12.5747 17.6825 13.191 17.3206 15.216 17.0645C14.8254 18.0066 13.2622 21.2823 12.3607 22.5891Z" fill="var(--fill-0, #001F66)"/>
</g>
</svg>
