<svg preserveAspectRatio="none" width="100%" height="100%" overflow="visible" style="display: block;" viewBox="0 0 34.7509 29.0927" fill="none" xmlns="http://www.w3.org/2000/svg">
<g id="Group" style="mix-blend-mode:screen" opacity="0.2">
<path id="Vector" opacity="0.02" d="M0.109059 0.211808C2.19555 -2.51114 28.6298 21.8374 32.8415 26.3508C34.3406 27.9623 34.8825 28.8359 34.7246 29.0387C34.5667 29.2415 33.636 28.8888 31.7961 27.715C26.638 24.428 -1.98238 2.93042 0.109059 0.211808Z" fill="var(--fill-0, #1F0505)"/>
<path id="Vector_2" opacity="0.05" d="M0.891319 0.863449C2.93297 -1.79116 28.7157 21.9538 32.8388 26.3659C34.3167 27.9507 34.8527 28.8104 34.699 29.0079C34.5452 29.2054 33.6196 28.8569 31.8091 27.6991C26.7645 24.4814 -1.1512 3.50851 0.890452 0.853906L0.891319 0.863449Z" fill="var(--fill-0, #240B0A)"/>
<path id="Vector_3" opacity="0.07" d="M1.67349 1.51509C3.66536 -1.07542 28.8014 22.0702 32.8317 26.3863C34.2887 27.9445 34.8238 28.7946 34.67 28.992C34.5163 29.1895 33.604 28.8346 31.828 27.697C26.8968 24.5486 -0.31412 4.10039 1.67349 1.51509Z" fill="var(--fill-0, #2A100F)"/>
<path id="Vector_4" opacity="0.1" d="M2.45489 2.16673C4.39679 -0.359771 28.8863 22.1865 32.8281 26.4013C34.264 27.9328 34.7931 28.7691 34.6444 28.9708C34.4948 29.1629 33.5876 28.8123 31.841 27.6907C27.0232 24.6116 0.517145 4.68793 2.45489 2.16673Z" fill="var(--fill-0, #2F1614)"/>
<path id="Vector_5" opacity="0.12" d="M3.24044 2.81272C5.1284 0.355614 28.9712 22.3025 32.8245 26.416C34.2394 27.9209 34.7676 28.7475 34.618 28.9397C34.4683 29.1318 33.5754 28.7844 31.8532 27.6745C27.1489 24.6647 1.34755 5.26558 3.23541 2.80847L3.24044 2.81272Z" fill="var(--fill-0, #351B19)"/>
<path id="Vector_6" opacity="0.15" d="M4.02106 3.46428C5.85905 1.07118 29.0552 22.4188 32.8201 26.431C34.2087 27.9048 34.737 28.7315 34.5916 28.9183C34.4461 29.1051 33.5623 28.7567 31.8745 27.667C27.2837 24.7265 2.18714 5.85209 4.02106 3.46428Z" fill="var(--fill-0, #3B201D)"/>
<path id="Vector_7" opacity="0.17" d="M4.79907 4.11149C6.58728 1.7824 29.1368 22.5307 32.809 26.4469C34.1766 27.8942 34.6988 28.707 34.5575 28.8884C34.4121 29.0751 33.5376 28.7256 31.8791 27.652C27.4017 24.7808 3.00583 6.43624 4.79404 4.10724L4.79907 4.11149Z" fill="var(--fill-0, #402622)"/>
<path id="Vector_8" opacity="0.2" d="M5.58558 4.7581C7.32391 2.49311 29.2269 22.642 32.8106 26.4569C34.157 27.8774 34.6784 28.6806 34.5371 28.8621C34.3958 29.0436 33.5263 28.6983 31.9065 27.6395C27.5426 24.8376 3.8514 7.01771 5.59477 4.75697L5.58558 4.7581Z" fill="var(--fill-0, #462B27)"/>
<path id="Vector_9" opacity="0.22" d="M6.36688 5.4093C8.05119 3.2137 29.3117 22.758 32.8027 26.4768C34.128 27.8707 34.6435 28.66 34.5072 28.8458C34.366 29.0273 33.5098 28.6756 31.9153 27.6381C27.6648 24.9055 4.67842 7.61029 6.36775 5.41893L6.36688 5.4093Z" fill="var(--fill-0, #4B312C)"/>
<path id="Vector_10" opacity="0.24" d="M7.1475 6.0612C8.78193 3.92961 29.3917 22.8799 32.7983 26.4921C34.1026 27.8594 34.6172 28.639 34.48 28.8152C34.3429 28.9914 33.4918 28.6439 31.9308 27.6171C27.7938 24.9539 5.5122 8.18317 7.15166 6.05591L7.1475 6.0612Z" fill="var(--fill-0, #513631)"/>
<path id="Vector_11" opacity="0.27" d="M7.93054 6.71258C9.5151 4.64508 29.4782 22.996 32.7922 26.5122C34.0703 27.8485 34.5891 28.6229 34.4519 28.7991C34.3148 28.9751 33.4821 28.6256 31.9464 27.6202C27.9227 25.0262 6.34598 8.78016 7.93557 6.71683L7.93054 6.71258Z" fill="var(--fill-0, #573C36)"/>
<path id="Vector_12" opacity="0.29" d="M8.71532 7.35867C10.2501 5.35518 29.5666 23.1068 32.792 26.5218C34.0491 27.8314 34.5618 28.5919 34.4297 28.7723C34.2968 28.943 33.4692 28.5978 31.9669 27.603C28.0568 25.0783 7.18982 9.36111 8.72034 7.36292L8.71532 7.35867Z" fill="var(--fill-0, #5C413B)"/>
<path id="Vector_13" opacity="0.32" d="M9.49662 8.0103C10.9824 6.08045 29.6514 23.2231 32.7792 26.5378C34.0152 27.8208 34.5228 28.577 34.394 28.7424C34.261 28.9132 33.4426 28.5669 31.9699 27.5881C28.1731 25.1327 8.01094 9.94015 9.49159 8.00597L9.49662 8.0103Z" fill="var(--fill-0, #624640)"/>
<path id="Vector_14" opacity="0.34" d="M10.273 8.6576C11.7089 6.79185 29.7313 23.3352 32.7705 26.5486C33.9854 27.8048 34.4922 28.5515 34.3634 28.7169C34.2346 28.8824 33.4254 28.535 31.9829 27.5817C28.2996 25.1957 8.84212 10.5277 10.273 8.6576Z" fill="var(--fill-0, #684C45)"/>
<path id="Vector_15" opacity="0.37" d="M11.0611 9.30387C12.4472 7.50204 29.823 23.4461 32.7737 26.5581C33.9674 27.7877 34.4683 28.5206 34.3395 28.686C34.2107 28.8515 33.4107 28.503 32.0017 27.5604C28.4319 25.2435 9.67929 11.1002 11.0561 9.29953L11.0611 9.30387Z" fill="var(--fill-0, #6D514A)"/>
<path id="Vector_16" opacity="0.39" d="M11.8425 9.95533C13.1788 8.2176 29.9037 23.5676 32.766 26.5783C33.9336 27.7771 34.4386 28.5045 34.314 28.6646C34.1893 28.8247 33.3985 28.4751 32.0148 27.5539C28.5584 25.3064 10.5105 11.6877 11.8425 9.95533Z" fill="var(--fill-0, #73574E)"/>
<path id="Vector_17" opacity="0.41" d="M12.6241 10.6067C13.9062 8.93845 29.9888 23.6838 32.7625 26.5931C33.909 27.7652 34.4081 28.4788 34.2885 28.6432C34.1638 28.8033 33.3873 28.4569 32.0372 27.5464C28.6942 25.3681 11.3511 12.274 12.6333 10.6057L12.6241 10.6067Z" fill="var(--fill-0, #785C53)"/>
<path id="Vector_18" opacity="0.44" d="M13.4045 11.2584C14.6368 9.65419 30.0678 23.7959 32.7538 26.6136C33.8792 27.759 34.3774 28.463 34.2527 28.6231C34.1322 28.7778 33.3607 28.4357 32.04 27.5412C28.8105 25.4323 12.1681 12.8681 13.4004 11.2638L13.4045 11.2584Z" fill="var(--fill-0, #7E6158)"/>
<path id="Vector_19" opacity="0.46" d="M14.192 11.9045C15.3745 10.3643 30.1588 23.9067 32.7564 26.6231C33.8607 27.7418 34.3538 28.4415 34.2375 28.5909C34.117 28.7456 33.3588 28.3971 32.0674 27.5186C28.9514 25.4789 13.0138 13.4394 14.1962 11.8991L14.192 11.9045Z" fill="var(--fill-0, #84675D)"/>
<path id="Vector_20" opacity="0.49" d="M14.9683 12.5517C16.1009 11.0755 30.2386 24.0186 32.7434 26.6389C33.8267 27.731 34.3139 28.4169 34.1976 28.5663C34.0812 28.7157 33.3281 28.3715 32.0713 27.5131C29.0687 25.5429 13.8357 14.0279 14.9683 12.5517Z" fill="var(--fill-0, #896C62)"/>
<path id="Vector_21" opacity="0.51" d="M15.7497 13.2034C16.8282 11.7965 30.3235 24.135 32.7398 26.654C33.7969 27.7151 34.2883 28.3957 34.172 28.5451C34.0556 28.6946 33.3158 28.3439 32.0842 27.5069C29.195 25.6058 14.667 14.6155 15.7455 13.2087L15.7497 13.2034Z" fill="var(--fill-0, #8F7267)"/>
<path id="Vector_22" opacity="0.54" d="M16.5364 13.8495C17.565 12.5067 30.4095 24.2511 32.7373 26.6689C33.7733 27.7033 34.2588 28.37 34.1516 28.5183C34.0394 28.6625 33.3047 28.316 32.1066 27.4897C29.3309 25.658 15.5076 15.1923 16.5364 13.8495Z" fill="var(--fill-0, #94776C)"/>
<path id="Vector_23" opacity="0.56" d="M17.3178 14.5009C18.2966 13.2222 30.4945 24.3674 32.7338 26.6838C33.7487 27.6915 34.2333 28.3486 34.1211 28.4926C34.0089 28.6368 33.2834 28.2893 32.1197 27.4832C29.4575 25.7208 16.339 15.7797 17.3178 14.5009Z" fill="var(--fill-0, #9A7D71)"/>
<path id="Vector_24" opacity="0.59" d="M18.0985 15.1527C19.0274 13.938 30.5786 24.4837 32.7253 26.7042C33.7191 27.6853 34.2028 28.3328 34.0947 28.4715C33.9867 28.6102 33.2754 28.266 32.1361 27.4716C29.5873 25.7785 17.1736 16.362 18.0985 15.1527Z" fill="var(--fill-0, #A08276)"/>
<path id="Vector_25" opacity="0.61" d="M18.8799 15.8042C19.7599 14.6632 30.6636 24.6 32.7167 26.7148C33.6844 27.6651 34.163 28.3082 34.0591 28.4416C33.9552 28.575 33.249 28.235 32.1392 27.4567C29.7038 25.8328 17.9948 16.941 18.8748 15.8L18.8799 15.8042Z" fill="var(--fill-0, #A5877B)"/>
<path id="Vector_26" opacity="0.63" d="M19.6657 16.4505C20.4958 15.3734 30.753 24.711 32.7133 26.7298C33.66 27.6534 34.1377 28.2869 34.0338 28.4203C33.9299 28.5538 33.2371 28.2074 32.1616 27.4492C29.8397 25.8947 18.8355 17.5275 19.6657 16.4505Z" fill="var(--fill-0, #AB8D7F)"/>
<path id="Vector_27" opacity="0.66" d="M20.4412 17.0976C21.2216 16.0847 30.828 24.8282 32.704 26.7404C33.6295 27.6373 34.1063 28.2612 34.0066 28.3893C33.9068 28.5174 33.219 28.1753 32.173 27.4332C29.9697 25.9522 19.6651 18.1053 20.4412 17.0976Z" fill="var(--fill-0, #B09284)"/>
<path id="Vector_28" opacity="0.68" d="M21.2239 17.7493C21.9542 16.8004 30.914 24.9446 32.7016 26.7554C33.6059 27.6256 34.0768 28.2357 33.9771 28.3638C33.8773 28.4919 33.1988 28.1486 32.1914 27.4215C30.1014 26.0099 20.5017 18.6875 21.2279 17.7439L21.2239 17.7493Z" fill="var(--fill-0, #B69889)"/>
<path id="Vector_29" opacity="0.71" d="M22.0097 18.3956C22.686 17.516 31.0034 25.0555 32.6983 26.7704C33.5816 27.614 34.0515 28.2145 33.9518 28.3426C33.8563 28.4653 33.1868 28.121 32.2047 27.4151C30.2281 26.0727 21.3332 19.2751 22.0097 18.3956Z" fill="var(--fill-0, #BC9D8E)"/>
<path id="Vector_30" opacity="0.73" d="M22.7912 19.047C23.4228 18.2357 31.0885 25.1717 32.6948 26.7853C33.552 27.5979 34.021 28.1888 33.9255 28.3115C33.8299 28.4343 33.1748 28.0931 32.217 27.399C30.3539 26.126 22.1596 19.8582 22.7862 19.0427L22.7912 19.047Z" fill="var(--fill-0, #C1A293)"/>
<path id="Vector_31" opacity="0.76" d="M23.5731 19.6985C24.1547 18.9514 31.1738 25.288 32.6875 26.8056C33.5236 27.5915 33.9876 28.1781 33.8962 28.2956C33.8047 28.4129 33.1547 28.0761 32.2354 27.3969C30.4858 26.1931 22.9964 20.45 23.5731 19.6985Z" fill="var(--fill-0, #C7A898)"/>
<path id="Vector_32" opacity="0.78" d="M24.355 20.3503C24.8868 19.6672 31.2592 25.4044 32.6844 26.8207C33.4994 27.58 33.9625 28.1571 33.8711 28.2745C33.7797 28.3918 33.1429 28.0486 32.249 27.3908C30.6129 26.2563 23.8282 21.0377 24.355 20.3503Z" fill="var(--fill-0, #CDAD9D)"/>
<path id="Vector_33" opacity="0.8" d="M25.1359 20.9921C25.6138 20.3783 31.3396 25.5162 32.6762 26.8312C33.4701 27.5638 33.9273 28.127 33.84 28.239C33.7528 28.3511 33.1211 28.0121 32.2607 27.3649C30.7381 26.2997 24.6631 21.6101 25.1359 20.9921Z" fill="var(--fill-0, #D2B3A2)"/>
<path id="Vector_34" opacity="0.83" d="M25.9172 21.6436C26.3453 21.0939 31.4245 25.6326 32.6726 26.8461C33.4454 27.5522 33.9017 28.1057 33.8144 28.2178C33.7272 28.3298 33.1089 27.9845 32.2787 27.3627C30.8695 26.3669 25.4994 22.2018 25.9223 21.6479L25.9172 21.6436Z" fill="var(--fill-0, #D8B8A7)"/>
<path id="Vector_35" opacity="0.85" d="M26.6997 22.2953C27.0778 21.8096 31.5105 25.7489 32.6659 26.8665C33.4126 27.5416 33.868 28.0855 33.7807 28.1976C33.6976 28.3043 33.0843 27.9632 32.2877 27.3522C30.992 26.4256 26.3266 22.7852 26.6997 22.2953Z" fill="var(--fill-0, #DDBEAC)"/>
<path id="Vector_36" opacity="0.88" d="M27.4865 22.9413C27.8147 22.5196 31.6008 25.8596 32.6677 26.876C33.3933 27.5243 33.8478 28.0587 33.7647 28.1654C33.6816 28.2721 33.0775 27.9299 32.3104 27.3349C31.128 26.4776 27.1674 23.3618 27.4865 22.9413Z" fill="var(--fill-0, #E3C3B0)"/>
<path id="Vector_37" opacity="0.9" d="M28.2665 23.5931C28.5408 23.2408 31.6844 25.9761 32.6586 26.8965C33.3632 27.5182 33.8125 28.0482 33.7336 28.1496C33.6547 28.251 33.0649 27.912 32.323 27.3384C31.254 26.5504 27.9983 23.9592 28.2675 23.6027L28.2665 23.5931Z" fill="var(--fill-0, #E9C8B5)"/>
<path id="Vector_38" opacity="0.93" d="M29.0505 24.2445C29.2749 23.9563 31.7678 26.0976 32.6525 26.907C33.3359 27.5021 33.7795 28.0183 33.7046 28.1144C33.6257 28.2158 33.0451 27.8757 32.3367 27.3127C31.3813 26.594 28.8303 24.5274 29.0497 24.2349L29.0505 24.2445Z" fill="var(--fill-0, #EECEBA)"/>
<path id="Vector_39" opacity="0.95" d="M29.8318 24.8961C30.0063 24.672 31.8525 26.2139 32.6446 26.9273C33.3111 27.4904 33.7496 28.0023 33.6748 28.0984C33.6 28.1944 33.0286 27.8533 32.3455 27.3117C31.5035 26.6623 29.6572 25.1203 29.8226 24.8972L29.8318 24.8961Z" fill="var(--fill-0, #F4D3BF)"/>
<path id="Vector_40" opacity="0.98" d="M30.612 25.538C30.7325 25.3833 31.9363 26.3205 32.6399 26.9327C33.2761 27.4701 33.7228 27.9714 33.648 28.0675C33.5732 28.1636 33.011 27.8213 32.3665 27.2945C31.638 26.7144 30.4966 25.6971 30.612 25.538Z" fill="var(--fill-0, #F9D9C4)"/>
<path id="Vector_41" d="M31.3926 26.1896C31.4632 26.0988 32.0203 26.4368 32.6355 26.9475C33.2505 27.4583 33.6914 27.9458 33.6207 28.0365C33.5501 28.1272 32.9929 27.7892 32.3778 27.2784C31.7669 26.7624 31.3219 26.2803 31.3967 26.1842L31.3926 26.1896Z" fill="var(--fill-0, #FFDEC9)"/>
</g>
</svg>
