<svg width="332" height="113" viewBox="0 0 332 113" fill="none" xmlns="http://www.w3.org/2000/svg">
<rect width="332" height="113" rx="4" fill="url(#paint0_linear_176_29671)"/>
<g filter="url(#filter0_d_176_29671)">
<path d="M11.6709 41.2588L12.1777 38.0586L13.0195 34.9189L14.1797 31.8955L15.6514 29.0068L17.4199 26.2832L19.4678 23.7539L21.7529 21.4688L24.2822 19.4209L27.0059 17.6523L29.8945 16.1807L32.918 15.0205L36.0576 14.1787L39.2578 13.6719L42.5 13.5029L45.7412 13.6719L48.9414 14.1787L52.0811 15.0205L55.1045 16.1807L57.9932 17.6523L60.7168 19.4209L63.2461 21.4688L65.5312 23.7539L67.5791 26.2832L69.3477 29.0068L70.8193 31.8955L71.9795 34.9189L72.8213 38.0586L73.3281 41.2588L73.4971 44.5L73.3281 47.7422L72.8213 50.9424L71.9795 54.082L70.8193 57.1055L69.3477 59.9941L67.5791 62.7178L65.5312 65.2471L63.2461 67.5322L60.7168 69.5801L57.9932 71.3486L55.1045 72.8203L52.0811 73.9805L48.9414 74.8223L45.7412 75.3291L42.5 75.498L39.2578 75.3291L36.0576 74.8223L32.918 73.9805L29.8945 72.8203L27.0059 71.3486L24.2822 69.5801L21.7529 67.5322L19.4678 65.2471L17.4199 62.7178L15.6514 59.9941L14.1797 57.1055L13.0195 54.082L12.1777 50.9424L11.6709 47.7422L11.502 44.5L11.6709 41.2588Z" fill="url(#paint1_linear_176_29671)" stroke="#D1AE3B" stroke-width="3"/>
<path d="M28.616 30.886H39.088L39.928 29.906C39.928 29.906 40.0167 29.9667 40.194 30.088C40.3713 30.2093 40.5767 30.3633 40.81 30.55C41.0527 30.7273 41.2767 30.9 41.482 31.068C41.4447 31.208 41.3093 31.278 41.076 31.278H28.742L28.616 30.886ZM28.728 36.668H38.864L39.732 35.604C39.732 35.604 39.7833 35.646 39.886 35.73C39.998 35.8047 40.138 35.9073 40.306 36.038C40.474 36.1593 40.6467 36.2947 40.824 36.444C41.0013 36.584 41.1693 36.7193 41.328 36.85C41.3093 36.9247 41.2627 36.9807 41.188 37.018C41.1227 37.0553 41.0387 37.074 40.936 37.074H28.84L28.728 36.668ZM29.386 33.266H38.374L39.228 32.244C39.228 32.244 39.3167 32.3093 39.494 32.44C39.6713 32.5707 39.8767 32.7293 40.11 32.916C40.3527 33.0933 40.572 33.266 40.768 33.434C40.74 33.5833 40.614 33.658 40.39 33.658H29.498L29.386 33.266ZM30.086 34.918H37.912L38.71 33.952C38.71 33.952 38.794 34.0127 38.962 34.134C39.13 34.2553 39.3307 34.4047 39.564 34.582C39.7973 34.7593 40.0073 34.9273 40.194 35.086C40.1567 35.2353 40.0307 35.31 39.816 35.31H30.198L30.086 34.918ZM30.212 28.506C30.7907 28.5993 31.2433 28.744 31.57 28.94C31.906 29.1267 32.1347 29.332 32.256 29.556C32.3867 29.78 32.438 29.9947 32.41 30.2C32.382 30.396 32.298 30.564 32.158 30.704C32.0273 30.8347 31.8593 30.9047 31.654 30.914C31.458 30.914 31.248 30.83 31.024 30.662C31.024 30.41 30.9773 30.158 30.884 29.906C30.7907 29.654 30.674 29.4113 30.534 29.178C30.394 28.9447 30.2447 28.7487 30.086 28.59L30.212 28.506ZM32.004 31.096C32.564 31.1893 32.998 31.3293 33.306 31.516C33.614 31.7027 33.824 31.9033 33.936 32.118C34.048 32.3233 34.0853 32.524 34.048 32.72C34.0107 32.9067 33.9173 33.0607 33.768 33.182C33.628 33.3033 33.4553 33.364 33.25 33.364C33.054 33.3547 32.8487 33.2613 32.634 33.084C32.6247 32.86 32.5827 32.6313 32.508 32.398C32.4333 32.1647 32.34 31.9407 32.228 31.726C32.1253 31.5113 32.0087 31.3247 31.878 31.166L32.004 31.096ZM38.262 28.408L40.236 29.024C40.208 29.108 40.1473 29.1733 40.054 29.22C39.97 29.2573 39.8487 29.2713 39.69 29.262C39.4287 29.5327 39.0973 29.8313 38.696 30.158C38.304 30.4753 37.9027 30.76 37.492 31.012H37.282C37.4033 30.7693 37.5247 30.4987 37.646 30.2C37.7673 29.892 37.8793 29.584 37.982 29.276C38.094 28.9587 38.1873 28.6693 38.262 28.408ZM36.568 31.068L38.584 31.614C38.528 31.8007 38.3507 31.8847 38.052 31.866C37.8 32.1273 37.4733 32.4073 37.072 32.706C36.68 32.9953 36.2927 33.252 35.91 33.476H35.7C35.868 33.14 36.0313 32.7433 36.19 32.286C36.3487 31.8287 36.4747 31.4227 36.568 31.068ZM33.082 28.114L34.958 28.268C34.9487 28.3613 34.9113 28.4407 34.846 28.506C34.7807 28.562 34.6733 28.5993 34.524 28.618V31.012H33.082V28.114ZM35.49 28.114L37.38 28.268C37.3707 28.3613 37.3333 28.4407 37.268 28.506C37.212 28.562 37.1047 28.604 36.946 28.632V31.012H35.49V28.114ZM33.278 36.682H35.238V36.906C34.5753 37.802 33.67 38.586 32.522 39.258C31.374 39.9207 30.0907 40.4527 28.672 40.854L28.574 40.672C29.246 40.3453 29.876 39.9673 30.464 39.538C31.0613 39.1087 31.598 38.6467 32.074 38.152C32.5593 37.6573 32.9607 37.1673 33.278 36.682ZM35.91 36.682C36.1993 37.0087 36.5587 37.3167 36.988 37.606C37.4267 37.8953 37.9027 38.1613 38.416 38.404C38.9293 38.6373 39.4567 38.838 39.998 39.006C40.5487 39.1647 41.0853 39.2953 41.608 39.398L41.594 39.552C41.3047 39.6173 41.0527 39.7667 40.838 40C40.6327 40.2333 40.488 40.532 40.404 40.896C39.7227 40.6253 39.088 40.294 38.5 39.902C37.9213 39.5007 37.3987 39.0387 36.932 38.516C36.4653 37.9933 36.0687 37.4147 35.742 36.78L35.91 36.682ZM34.132 33.462H35.77V40.868C35.77 40.9147 35.6533 40.9893 35.42 41.092C35.1867 41.204 34.8553 41.26 34.426 41.26H34.132V33.462ZM48.174 29.052H49.77V33.742H48.174V29.052ZM52.178 28.982H52.038L52.794 28.142L54.39 29.346C54.3527 29.402 54.2827 29.4627 54.18 29.528C54.0867 29.584 53.97 29.626 53.83 29.654V34.204C53.83 34.2413 53.7507 34.2927 53.592 34.358C53.4333 34.4233 53.2467 34.484 53.032 34.54C52.8267 34.5867 52.6353 34.61 52.458 34.61H52.178V28.982ZM45.178 31.25H53.158V31.656H45.178V31.25ZM45.178 33.616H53.158V34.022H45.178V33.616ZM44.268 28.982V28.296L46.004 28.982H52.976V29.374H45.892V34.246C45.892 34.302 45.822 34.372 45.682 34.456C45.5513 34.54 45.3787 34.6147 45.164 34.68C44.9587 34.7453 44.744 34.778 44.52 34.778H44.268V28.982ZM47.026 33.672H48.944V33.896C48.3373 34.8107 47.4833 35.562 46.382 36.15C45.2807 36.738 43.988 37.1953 42.504 37.522L42.406 37.326C43.4793 36.9247 44.408 36.4113 45.192 35.786C45.9853 35.1513 46.5967 34.4467 47.026 33.672ZM50.12 33.658C50.4653 34.106 50.932 34.484 51.52 34.792C52.1173 35.1 52.7707 35.3473 53.48 35.534C54.1893 35.7207 54.8893 35.856 55.58 35.94L55.566 36.094C55.2673 36.178 55.0153 36.3507 54.81 36.612C54.614 36.864 54.4787 37.1907 54.404 37.592C53.732 37.34 53.1113 37.0413 52.542 36.696C51.9727 36.3413 51.4687 35.926 51.03 35.45C50.5913 34.9647 50.2367 34.4 49.966 33.756L50.12 33.658ZM50.176 35.52L52.122 35.688C52.1127 35.7533 52.0847 35.8093 52.038 35.856C51.9913 35.9027 51.912 35.9353 51.8 35.954V40.812C51.8 40.8493 51.73 40.9007 51.59 40.966C51.45 41.0407 51.2773 41.106 51.072 41.162C50.876 41.218 50.6847 41.246 50.498 41.246H50.176V35.52ZM46.242 35.548L48.314 35.744C48.3047 35.8373 48.2673 35.9167 48.202 35.982C48.1367 36.0473 48.02 36.0893 47.852 36.108V37.256C47.8427 37.6573 47.7727 38.0587 47.642 38.46C47.5207 38.852 47.2827 39.23 46.928 39.594C46.5827 39.9487 46.088 40.2707 45.444 40.56C44.8 40.8493 43.9647 41.0873 42.938 41.274L42.84 41.12C43.5587 40.8773 44.142 40.602 44.59 40.294C45.0473 39.9953 45.3927 39.678 45.626 39.342C45.8687 39.006 46.032 38.6607 46.116 38.306C46.2 37.942 46.242 37.5827 46.242 37.228V35.548ZM24.43 46.564H31.542V46.97H24.43V46.564ZM23.996 51.24H27.132V51.646H23.996V51.24ZM23.996 52.892H27.132V53.298H23.996V52.892ZM24.43 48.16H31.542V48.552H24.43V48.16ZM30.744 45.024H30.604L31.36 44.198L32.956 45.388C32.9187 45.444 32.8533 45.5047 32.76 45.57C32.6667 45.626 32.5453 45.668 32.396 45.696V48.692C32.396 48.72 32.3167 48.7667 32.158 48.832C31.9993 48.888 31.8127 48.9393 31.598 48.986C31.3927 49.0327 31.2013 49.056 31.024 49.056H30.744V45.024ZM23.618 45.024V44.338L25.326 45.024H31.458V45.416H25.228V48.846C25.228 48.8927 25.158 48.958 25.018 49.042C24.878 49.1167 24.7007 49.1867 24.486 49.252C24.2807 49.3173 24.066 49.35 23.842 49.35H23.618V45.024ZM21.462 49.63H32.102L32.998 48.426C32.998 48.426 33.054 48.4727 33.166 48.566C33.278 48.65 33.418 48.762 33.586 48.902C33.754 49.042 33.9267 49.1913 34.104 49.35C34.2907 49.5087 34.4587 49.658 34.608 49.798C34.5707 49.9473 34.44 50.022 34.216 50.022H21.574L21.462 49.63ZM28.252 51.226H33.04V51.618H28.378L28.252 51.226ZM26.446 49.63H28.014V56.896C28.014 56.9333 27.902 57.0033 27.678 57.106C27.454 57.218 27.1367 57.274 26.726 57.274H26.446V49.63ZM23.156 49.63H24.71V55.244L23.156 55.538V49.63ZM21.434 55.02C21.7607 55.0013 22.204 54.964 22.764 54.908C23.3333 54.852 23.9773 54.7867 24.696 54.712C25.4147 54.628 26.1473 54.544 26.894 54.46L26.922 54.642C26.4553 54.8567 25.872 55.1133 25.172 55.412C24.472 55.7013 23.6227 56.0327 22.624 56.406C22.5307 56.5927 22.4 56.7047 22.232 56.742L21.434 55.02ZM31.766 51.226H31.612L32.508 50.33L34.062 51.618C34.0153 51.6927 33.9547 51.744 33.88 51.772C33.8053 51.8 33.6887 51.8233 33.53 51.842C33.1567 52.9433 32.55 53.9513 31.71 54.866C30.8793 55.7807 29.7593 56.4993 28.35 57.022L28.252 56.854C28.9053 56.4153 29.4653 55.8973 29.932 55.3C30.408 54.7027 30.7953 54.054 31.094 53.354C31.402 52.654 31.626 51.9447 31.766 51.226ZM29.218 51.268C29.4233 51.912 29.7033 52.4673 30.058 52.934C30.422 53.4007 30.8467 53.7973 31.332 54.124C31.8267 54.4413 32.3587 54.7073 32.928 54.922C33.5067 55.1273 34.118 55.2953 34.762 55.426L34.748 55.58C34.412 55.6547 34.1273 55.818 33.894 56.07C33.67 56.322 33.5067 56.6487 33.404 57.05C32.62 56.7047 31.9387 56.2987 31.36 55.832C30.7907 55.356 30.31 54.7587 29.918 54.04C29.5353 53.3213 29.2413 52.43 29.036 51.366L29.218 51.268ZM35.532 49.742H45.99L46.886 48.58C46.886 48.58 46.9373 48.6267 47.04 48.72C47.152 48.804 47.292 48.916 47.46 49.056C47.6373 49.1867 47.8147 49.3313 47.992 49.49C48.1787 49.6393 48.3513 49.7793 48.51 49.91C48.4727 50.0593 48.3373 50.134 48.104 50.134H35.658L35.532 49.742ZM43.806 49.742H45.626V49.966C45.43 50.89 45.1733 51.7113 44.856 52.43C44.548 53.1487 44.1467 53.7787 43.652 54.32C43.1667 54.852 42.5553 55.314 41.818 55.706C41.09 56.0887 40.208 56.4013 39.172 56.644C38.136 56.896 36.9087 57.0873 35.49 57.218L35.434 57.008C36.7873 56.7187 37.954 56.378 38.934 55.986C39.914 55.5847 40.7353 55.104 41.398 54.544C42.0607 53.9747 42.5833 53.298 42.966 52.514C43.358 51.73 43.638 50.806 43.806 49.742ZM39.046 52.962C40.53 53.0553 41.7853 53.214 42.812 53.438C43.848 53.662 44.6973 53.9233 45.36 54.222C46.032 54.5207 46.5407 54.8287 46.886 55.146C47.2407 55.4633 47.4647 55.762 47.558 56.042C47.6607 56.3313 47.6653 56.5787 47.572 56.784C47.488 56.9893 47.334 57.1247 47.11 57.19C46.8953 57.2647 46.6433 57.2367 46.354 57.106C45.9807 56.7233 45.4347 56.2893 44.716 55.804C44.0067 55.3187 43.1667 54.8427 42.196 54.376C41.2347 53.9 40.1753 53.4847 39.018 53.13L39.046 52.962ZM40.446 47.068L42.602 47.474C42.5833 47.5673 42.532 47.6467 42.448 47.712C42.364 47.7773 42.2193 47.81 42.014 47.81C41.9113 48.09 41.776 48.44 41.608 48.86C41.4493 49.28 41.2673 49.7373 41.062 50.232C40.866 50.7173 40.656 51.212 40.432 51.716C40.2173 52.2107 40.0073 52.6867 39.802 53.144C39.5967 53.592 39.41 53.984 39.242 54.32C39.046 54.404 38.7847 54.4413 38.458 54.432C38.1407 54.4227 37.814 54.348 37.478 54.208C37.6647 53.8627 37.87 53.4473 38.094 52.962C38.3273 52.4767 38.5607 51.9587 38.794 51.408C39.0367 50.8573 39.2653 50.3113 39.48 49.77C39.704 49.2193 39.9 48.7153 40.068 48.258C40.236 47.7913 40.362 47.3947 40.446 47.068ZM37.282 46.312H47.082V46.718H37.282V46.312ZM41.132 44.1L43.33 44.268C43.3207 44.3613 43.2787 44.4453 43.204 44.52C43.1387 44.5853 43.0127 44.6367 42.826 44.674V46.466H41.132V44.1ZM37.212 45.276H37.394C37.646 45.8453 37.7813 46.3587 37.8 46.816C37.8187 47.2733 37.758 47.6607 37.618 47.978C37.4873 48.286 37.31 48.5193 37.086 48.678C36.9367 48.79 36.764 48.8507 36.568 48.86C36.3813 48.8693 36.2087 48.832 36.05 48.748C35.8913 48.6547 35.7747 48.5193 35.7 48.342C35.6067 48.09 35.6207 47.8613 35.742 47.656C35.8633 47.4507 36.036 47.292 36.26 47.18C36.4187 47.0773 36.5727 46.9327 36.722 46.746C36.8807 46.55 37.0067 46.326 37.1 46.074C37.2027 45.822 37.24 45.556 37.212 45.276ZM46.34 46.312H46.172L47.04 45.458L48.524 46.872C48.4307 46.9747 48.2487 47.0307 47.978 47.04C47.7913 47.208 47.5673 47.3947 47.306 47.6C47.054 47.8053 46.788 48.0013 46.508 48.188C46.228 48.3747 45.962 48.5333 45.71 48.664L45.584 48.566C45.6773 48.3607 45.7753 48.1227 45.878 47.852C45.9807 47.572 46.074 47.2967 46.158 47.026C46.242 46.746 46.3027 46.508 46.34 46.312ZM54.446 45.052H59.752V45.444H54.572L54.446 45.052ZM58.842 48.902H60.956V49.294H58.744L58.842 48.902ZM55.692 45.052H57.274C57.2647 45.9947 57.246 46.9187 57.218 47.824C57.1993 48.72 57.134 49.5973 57.022 50.456C56.9193 51.3053 56.7467 52.122 56.504 52.906C56.2707 53.69 55.9393 54.432 55.51 55.132C55.09 55.832 54.544 56.4853 53.872 57.092L53.676 56.896C54.2173 56.0467 54.628 55.1553 54.908 54.222C55.1973 53.2887 55.3933 52.3227 55.496 51.324C55.608 50.316 55.6687 49.2893 55.678 48.244C55.6873 47.1893 55.692 46.1253 55.692 45.052ZM59.038 45.052H58.898L59.542 44.268L61.082 45.458C61.0353 45.514 60.9607 45.5653 60.858 45.612C60.7647 45.6587 60.6433 45.6913 60.494 45.71C60.4287 46.0367 60.3447 46.438 60.242 46.914C60.1393 47.39 60.032 47.8753 59.92 48.37C59.808 48.8647 59.7007 49.3127 59.598 49.714C59.234 49.9007 58.73 49.924 58.086 49.784C58.2167 49.2707 58.338 48.7247 58.45 48.146C58.5713 47.5673 58.6833 47.0073 58.786 46.466C58.898 45.9153 58.982 45.444 59.038 45.052ZM60.452 48.902H60.284L61.11 48.062L62.538 49.322C62.482 49.3967 62.412 49.448 62.328 49.476C62.2533 49.504 62.132 49.5273 61.964 49.546C61.768 50.3767 61.5067 51.1793 61.18 51.954C60.8533 52.7193 60.4333 53.4333 59.92 54.096C59.416 54.7587 58.7907 55.3607 58.044 55.902C57.2973 56.434 56.4013 56.882 55.356 57.246L55.244 57.078C56.308 56.49 57.19 55.776 57.89 54.936C58.5993 54.0867 59.1593 53.1533 59.57 52.136C59.9807 51.1093 60.2747 50.0313 60.452 48.902ZM57.106 46.382C57.2087 47.754 57.4 48.9533 57.68 49.98C57.9693 50.9973 58.352 51.8747 58.828 52.612C59.3133 53.3493 59.892 53.9793 60.564 54.502C61.236 55.0247 62.0013 55.4727 62.86 55.846L62.818 56C62.454 56.028 62.1273 56.1493 61.838 56.364C61.5487 56.588 61.32 56.8913 61.152 57.274C60.4147 56.7793 59.7847 56.224 59.262 55.608C58.7393 54.9827 58.31 54.2547 57.974 53.424C57.6473 52.5933 57.3953 51.6087 57.218 50.47C57.0407 49.3313 56.924 47.9967 56.868 46.466L57.106 46.382ZM51.548 50.568L53.046 50.442V56.84C53.046 56.8773 52.934 56.9567 52.71 57.078C52.4953 57.1993 52.1967 57.26 51.814 57.26H51.548V50.568ZM51.366 44.1L53.41 44.772C53.382 44.856 53.3213 44.926 53.228 44.982C53.1347 45.038 53.0133 45.066 52.864 45.066C52.5467 45.486 52.2013 45.9013 51.828 46.312C51.4547 46.7133 51.0907 47.0587 50.736 47.348L50.54 47.236C50.6707 46.8533 50.8107 46.3727 50.96 45.794C51.1093 45.2153 51.2447 44.6507 51.366 44.1ZM52.962 45.822L54.908 46.522C54.8707 46.606 54.8053 46.6713 54.712 46.718C54.628 46.7553 54.5067 46.7693 54.348 46.76C54.0867 47.1427 53.7647 47.5767 53.382 48.062C52.9993 48.5473 52.5933 49.0373 52.164 49.532C51.7347 50.0173 51.31 50.47 50.89 50.89H50.666C50.9367 50.4047 51.212 49.8633 51.492 49.266C51.772 48.6687 52.038 48.0713 52.29 47.474C52.5513 46.8673 52.7753 46.3167 52.962 45.822ZM49.406 50.26C49.686 50.2507 50.064 50.2367 50.54 50.218C51.0253 50.1993 51.5713 50.176 52.178 50.148C52.794 50.1107 53.424 50.078 54.068 50.05V50.246C53.6573 50.3953 53.144 50.5727 52.528 50.778C51.9213 50.9833 51.1933 51.212 50.344 51.464C50.3067 51.5573 50.2507 51.632 50.176 51.688C50.1013 51.7347 50.0313 51.7673 49.966 51.786L49.406 50.26ZM49.518 46.48C50.0687 46.5827 50.498 46.7273 50.806 46.914C51.1233 47.0913 51.3473 47.2873 51.478 47.502C51.6087 47.7073 51.6647 47.908 51.646 48.104C51.6367 48.3 51.5713 48.4633 51.45 48.594C51.3287 48.7153 51.1747 48.7853 50.988 48.804C50.8107 48.8133 50.624 48.7433 50.428 48.594C50.372 48.2393 50.2367 47.8753 50.022 47.502C49.8167 47.1287 49.602 46.816 49.378 46.564L49.518 46.48ZM53.13 48.958C53.6527 49.1727 54.054 49.406 54.334 49.658C54.6233 49.9007 54.8147 50.148 54.908 50.4C55.0107 50.6427 55.0387 50.8667 54.992 51.072C54.9453 51.268 54.852 51.4267 54.712 51.548C54.5813 51.6693 54.418 51.7253 54.222 51.716C54.0353 51.6973 53.844 51.5993 53.648 51.422C53.648 51.1513 53.6153 50.876 53.55 50.596C53.4847 50.3067 53.4007 50.0267 53.298 49.756C53.1953 49.4853 53.088 49.2427 52.976 49.028L53.13 48.958ZM53.312 52.038C53.788 52.262 54.1473 52.5 54.39 52.752C54.642 53.004 54.81 53.2513 54.894 53.494C54.978 53.7367 54.992 53.956 54.936 54.152C54.88 54.3387 54.7867 54.488 54.656 54.6C54.5253 54.7027 54.3667 54.7493 54.18 54.74C54.0027 54.7213 53.83 54.6233 53.662 54.446C53.6713 54.1847 53.648 53.914 53.592 53.634C53.5453 53.354 53.48 53.0833 53.396 52.822C53.3213 52.5513 53.242 52.3087 53.158 52.094L53.312 52.038ZM50.064 52.234L51.842 52.598C51.8233 52.6913 51.772 52.7707 51.688 52.836C51.6133 52.892 51.5013 52.92 51.352 52.92C51.156 53.5827 50.9087 54.1987 50.61 54.768C50.3207 55.328 49.98 55.7993 49.588 56.182L49.378 56.07C49.5647 55.5567 49.7187 54.9593 49.84 54.278C49.9613 53.5967 50.036 52.9153 50.064 52.234Z" fill="#82631A"/>
</g>
<path d="M91.7 39.634L95.236 41.012C95.1667 41.168 95.0453 41.2893 94.872 41.376C94.716 41.4627 94.4907 41.4887 94.196 41.454C93.4507 42.702 92.61 43.8373 91.674 44.86C90.738 45.8653 89.7673 46.706 88.762 47.382L88.424 47.174C89.0133 46.2553 89.6027 45.12 90.192 43.768C90.7987 42.416 91.3013 41.038 91.7 39.634ZM92.064 44.73L95.574 45.9C95.522 46.056 95.4093 46.186 95.236 46.29C95.0627 46.3767 94.8373 46.4113 94.56 46.394C93.8147 48.0407 92.9393 49.5313 91.934 50.866C90.9287 52.1833 89.8367 53.2753 88.658 54.142L88.32 53.934C88.8227 53.1887 89.308 52.322 89.776 51.334C90.244 50.346 90.6687 49.2887 91.05 48.162C91.4487 47.018 91.7867 45.874 92.064 44.73ZM95.34 39.868C96.3453 40.3013 97.1253 40.7867 97.68 41.324C98.2347 41.844 98.6073 42.364 98.798 42.884C98.9887 43.404 99.0407 43.872 98.954 44.288C98.8847 44.704 98.72 45.0333 98.46 45.276C98.2 45.5187 97.8793 45.64 97.498 45.64C97.134 45.6227 96.77 45.432 96.406 45.068C96.4233 44.5133 96.3627 43.9327 96.224 43.326C96.1027 42.7193 95.938 42.13 95.73 41.558C95.522 40.9687 95.2967 40.4487 95.054 39.998L95.34 39.868ZM90.686 50.736L92.038 48.942L94.04 49.696C93.988 49.8173 93.9013 49.9213 93.78 50.008C93.6587 50.0773 93.4767 50.138 93.234 50.19V62.54C93.234 62.6267 93.1473 62.774 92.974 62.982C92.8007 63.2073 92.5493 63.398 92.22 63.554C91.908 63.7273 91.5527 63.814 91.154 63.814H90.686V50.736ZM94.378 46.42H101.684L103.01 44.418C103.01 44.418 103.149 44.548 103.426 44.808C103.703 45.068 104.024 45.38 104.388 45.744C104.769 46.0907 105.099 46.4287 105.376 46.758C105.324 47.018 105.099 47.148 104.7 47.148H94.586L94.378 46.42ZM100.124 52.686H101.788L103.01 50.71C103.01 50.71 103.14 50.84 103.4 51.1C103.66 51.36 103.963 51.672 104.31 52.036C104.657 52.3827 104.951 52.712 105.194 53.024C105.125 53.3013 104.899 53.44 104.518 53.44H100.124V52.686ZM96.666 54.844C97.03 56.3693 97.472 57.548 97.992 58.38C98.512 59.1947 99.1447 59.758 99.89 60.07C100.635 60.382 101.511 60.538 102.516 60.538C102.759 60.538 103.062 60.538 103.426 60.538C103.807 60.538 104.197 60.538 104.596 60.538C104.995 60.5207 105.333 60.512 105.61 60.512V60.85C105.246 60.902 104.977 61.162 104.804 61.63C104.648 62.098 104.579 62.6353 104.596 63.242C104.423 63.242 104.189 63.242 103.894 63.242C103.617 63.242 103.339 63.242 103.062 63.242C102.785 63.242 102.551 63.242 102.36 63.242C101.233 63.242 100.254 63.008 99.422 62.54C98.6073 62.072 97.94 61.24 97.42 60.044C96.9173 58.8307 96.5793 57.132 96.406 54.948L96.666 54.844ZM84.03 51.204L86.708 50.996V63.034C86.708 63.1207 86.5087 63.268 86.11 63.476C85.7113 63.7013 85.174 63.814 84.498 63.814H84.03V51.204ZM84.108 39.4L87.592 40.544C87.5227 40.7 87.41 40.83 87.254 40.934C87.098 41.038 86.8813 41.09 86.604 41.09C86.1013 41.6967 85.5467 42.3033 84.94 42.91C84.3507 43.5167 83.7787 44.0367 83.224 44.47L82.86 44.288C83.068 43.6813 83.2847 42.936 83.51 42.052C83.7353 41.1507 83.9347 40.2667 84.108 39.4ZM86.552 42.806L89.854 44.028C89.802 44.1667 89.6893 44.2793 89.516 44.366C89.3427 44.4353 89.1173 44.4613 88.84 44.444C88.4067 45.12 87.8867 45.8653 87.28 46.68C86.6733 47.4947 86.006 48.3007 85.278 49.098C84.5673 49.878 83.8393 50.606 83.094 51.282H82.626C83.1287 50.4847 83.6227 49.592 84.108 48.604C84.6107 47.616 85.07 46.6193 85.486 45.614C85.902 44.5913 86.2573 43.6553 86.552 42.806ZM80.65 50.502C81.1007 50.4847 81.7333 50.4673 82.548 50.45C83.3627 50.4153 84.2813 50.372 85.304 50.32C86.3267 50.268 87.3667 50.2073 88.424 50.138V50.502C87.748 50.7793 86.8987 51.1087 85.876 51.49C84.8707 51.8713 83.6747 52.3047 82.288 52.79C82.2013 52.9633 82.0887 53.0933 81.95 53.18C81.8287 53.2493 81.6987 53.3013 81.56 53.336L80.65 50.502ZM81.118 43.17C82.0887 43.43 82.8427 43.7507 83.38 44.132C83.9173 44.496 84.29 44.8773 84.498 45.276C84.706 45.6747 84.784 46.056 84.732 46.42C84.68 46.7667 84.5413 47.0527 84.316 47.278C84.0907 47.486 83.8133 47.5987 83.484 47.616C83.1547 47.616 82.8167 47.4687 82.47 47.174C82.4353 46.498 82.2533 45.8133 81.924 45.12C81.5947 44.4093 81.2393 43.8113 80.858 43.326L81.118 43.17ZM86.708 47.876C87.7653 48.292 88.5367 48.7687 89.022 49.306C89.5073 49.826 89.7847 50.3287 89.854 50.814C89.9233 51.282 89.8453 51.6807 89.62 52.01C89.412 52.3393 89.126 52.53 88.762 52.582C88.398 52.634 88.0167 52.4693 87.618 52.088C87.618 51.412 87.488 50.7013 87.228 49.956C86.9853 49.1933 86.7167 48.5433 86.422 48.006L86.708 47.876ZM87.15 53.778C88.1207 54.3847 88.8227 55.0087 89.256 55.65C89.6893 56.2913 89.9233 56.8893 89.958 57.444C89.9927 57.9813 89.8973 58.4233 89.672 58.77C89.4467 59.1167 89.152 59.3073 88.788 59.342C88.424 59.3767 88.06 59.2033 87.696 58.822C87.7307 58.2673 87.7047 57.704 87.618 57.132C87.5313 56.5427 87.4187 55.9707 87.28 55.416C87.1413 54.844 86.9853 54.3327 86.812 53.882L87.15 53.778ZM81.768 53.96L84.94 54.584C84.888 54.7573 84.784 54.9047 84.628 55.026C84.4893 55.13 84.2813 55.1907 84.004 55.208C83.6747 56.456 83.2673 57.6433 82.782 58.77C82.2967 59.8793 81.7073 60.824 81.014 61.604L80.598 61.396C80.9273 60.3907 81.196 59.2293 81.404 57.912C81.612 56.5773 81.7333 55.26 81.768 53.96ZM101.086 39.66L104.778 40.7C104.726 40.856 104.622 40.986 104.466 41.09C104.31 41.1767 104.085 41.2113 103.79 41.194C103.357 42.026 102.785 42.962 102.074 44.002C101.381 45.042 100.635 45.9867 99.838 46.836H99.448C99.6907 46.1427 99.916 45.38 100.124 44.548C100.332 43.6987 100.514 42.8493 100.67 42C100.843 41.1507 100.982 40.3707 101.086 39.66ZM94.82 50.684L98.07 50.97C98.0527 51.126 97.9747 51.2647 97.836 51.386C97.7147 51.5073 97.524 51.5853 97.264 51.62C97.2293 52.7987 97.1773 53.9513 97.108 55.078C97.0387 56.1873 96.8913 57.262 96.666 58.302C96.458 59.342 96.12 60.3213 95.652 61.24C95.2013 62.1587 94.5513 62.9993 93.702 63.762L93.39 63.398C93.7887 62.5487 94.092 61.6387 94.3 60.668C94.508 59.6973 94.638 58.6747 94.69 57.6C94.7593 56.5253 94.794 55.4073 94.794 54.246C94.8113 53.0847 94.82 51.8973 94.82 50.684ZM98.538 46.472H101.268V62.306L98.538 60.798V46.472ZM107.378 41.428H116.764L118.246 39.582C118.246 39.582 118.402 39.7033 118.714 39.946C119.026 40.1713 119.399 40.4487 119.832 40.778C120.265 41.1073 120.647 41.428 120.976 41.74C120.907 42.0173 120.673 42.156 120.274 42.156H107.586L107.378 41.428ZM106.832 46.472H117.57L119 44.444C119 44.444 119.147 44.574 119.442 44.834C119.754 45.094 120.109 45.406 120.508 45.77C120.924 46.134 121.279 46.472 121.574 46.784C121.522 47.0613 121.297 47.2 120.898 47.2H107.04L106.832 46.472ZM121.548 41.012L125.188 41.35C125.171 41.506 125.101 41.6447 124.98 41.766C124.859 41.87 124.642 41.948 124.33 42V50.138C124.33 50.2073 124.209 50.3027 123.966 50.424C123.741 50.528 123.446 50.6233 123.082 50.71C122.735 50.7793 122.389 50.814 122.042 50.814H121.548V41.012ZM114.71 41.428H117.57V53.518C117.553 53.5873 117.336 53.7173 116.92 53.908C116.504 54.0813 115.941 54.168 115.23 54.168H114.71V41.428ZM126.982 39.868L130.752 40.206C130.735 40.3967 130.657 40.5527 130.518 40.674C130.379 40.778 130.163 40.856 129.868 40.908V51.282C129.868 51.958 129.79 52.53 129.634 52.998C129.478 53.4487 129.149 53.8127 128.646 54.09C128.143 54.3673 127.363 54.558 126.306 54.662C126.271 54.2113 126.219 53.83 126.15 53.518C126.081 53.1887 125.968 52.9113 125.812 52.686C125.639 52.478 125.413 52.296 125.136 52.14C124.859 51.984 124.451 51.854 123.914 51.75V51.386C123.914 51.386 124.018 51.3947 124.226 51.412C124.451 51.4293 124.72 51.4467 125.032 51.464C125.344 51.4813 125.639 51.4987 125.916 51.516C126.211 51.5333 126.419 51.542 126.54 51.542C126.713 51.542 126.826 51.516 126.878 51.464C126.947 51.3947 126.982 51.2907 126.982 51.152V39.868ZM117.388 52.92L121.444 53.258C121.427 53.4487 121.349 53.6047 121.21 53.726C121.089 53.8473 120.855 53.934 120.508 53.986V62.696H117.388V52.92ZM109.172 56.768H124.434L126.02 54.688C126.02 54.688 126.124 54.766 126.332 54.922C126.54 55.078 126.791 55.2773 127.086 55.52C127.381 55.7627 127.693 56.0227 128.022 56.3C128.369 56.5773 128.689 56.8373 128.984 57.08C128.915 57.3573 128.663 57.496 128.23 57.496H109.38L109.172 56.768ZM106.806 62.28H126.514L128.152 60.148C128.152 60.148 128.256 60.226 128.464 60.382C128.672 60.538 128.932 60.746 129.244 61.006C129.573 61.2487 129.903 61.5087 130.232 61.786C130.579 62.0633 130.899 62.332 131.194 62.592C131.125 62.8693 130.873 63.008 130.44 63.008H107.04L106.806 62.28ZM109.9 41.428H112.682V45.666C112.682 46.4113 112.621 47.2 112.5 48.032C112.379 48.864 112.127 49.6873 111.746 50.502C111.365 51.3167 110.784 52.0967 110.004 52.842C109.241 53.57 108.201 54.22 106.884 54.792L106.65 54.532C107.638 53.6653 108.357 52.738 108.808 51.75C109.259 50.762 109.553 49.7567 109.692 48.734C109.831 47.694 109.9 46.6713 109.9 45.666V41.428Z" fill="white"/>
<path d="M272.704 41.792V40.44L276.006 41.792H291.762V42.52H275.772V62.592C275.772 62.7307 275.651 62.8867 275.408 63.06C275.165 63.2333 274.845 63.3893 274.446 63.528C274.065 63.6667 273.657 63.736 273.224 63.736H272.704V41.792ZM290.306 41.792H290.046L291.45 40.128L294.466 42.494C294.397 42.598 294.267 42.702 294.076 42.806C293.903 42.91 293.686 42.988 293.426 43.04V60.07C293.426 60.746 293.322 61.3267 293.114 61.812C292.923 62.3147 292.516 62.7133 291.892 63.008C291.268 63.3027 290.315 63.5107 289.032 63.632C288.963 63.164 288.867 62.7567 288.746 62.41C288.642 62.0633 288.46 61.786 288.2 61.578C287.923 61.3527 287.567 61.1533 287.134 60.98C286.718 60.8067 286.094 60.6593 285.262 60.538V60.2C285.262 60.2 285.444 60.2087 285.808 60.226C286.189 60.2433 286.64 60.2693 287.16 60.304C287.697 60.3387 288.2 60.3647 288.668 60.382C289.136 60.3993 289.457 60.408 289.63 60.408C289.89 60.408 290.063 60.356 290.15 60.252C290.254 60.148 290.306 59.992 290.306 59.784V41.792ZM274.316 51.204H291.632V51.932H274.316V51.204ZM281.388 41.792H284.43V51.776H281.388V41.792ZM303.02 50.814C302.067 50.814 301.139 51.0047 300.238 51.386C299.337 51.75 298.496 52.3307 297.716 53.128L297.274 52.738C297.95 51.7673 298.661 50.996 299.406 50.424C300.169 49.8347 300.949 49.4187 301.746 49.176C302.543 48.916 303.341 48.786 304.138 48.786C304.953 48.786 305.811 48.942 306.712 49.254C307.631 49.5487 308.584 49.9733 309.572 50.528C310.248 50.892 310.881 51.2127 311.47 51.49C312.077 51.7673 312.666 51.984 313.238 52.14C313.81 52.296 314.391 52.374 314.98 52.374C315.951 52.374 316.878 52.1833 317.762 51.802C318.663 51.4033 319.513 50.8053 320.31 50.008L320.726 50.398C320.067 51.3687 319.357 52.1487 318.594 52.738C317.849 53.3273 317.077 53.752 316.28 54.012C315.483 54.272 314.677 54.402 313.862 54.402C313.047 54.402 312.181 54.2547 311.262 53.96C310.361 53.648 309.416 53.2147 308.428 52.66C307.769 52.296 307.137 51.9753 306.53 51.698C305.923 51.4207 305.334 51.204 304.762 51.048C304.19 50.892 303.609 50.814 303.02 50.814Z" fill="white"/>
<g filter="url(#filter1_d_176_29671)">
<path d="M150.023 64.22V53.756V52.748V31.34H149.159L150.839 30.908L144.599 40.556L137.447 51.596L137.975 49.484V50.396H162.119V55.388H135.623V51.356L151.511 27.02H156.887V64.22H150.023ZM167.174 72.572L166.646 71.228C168.406 70.364 169.782 69.404 170.774 68.348C171.798 67.324 172.518 65.884 172.934 64.028L173.558 65.852L170.102 64.076C169.046 63.532 168.294 62.908 167.846 62.204C167.43 61.5 167.222 60.796 167.222 60.092C167.222 58.876 167.638 57.852 168.47 57.02C169.334 56.156 170.39 55.724 171.638 55.724C172.374 55.724 173.03 55.82 173.606 56.012C174.182 56.204 174.742 56.556 175.286 57.068C175.542 57.772 175.718 58.412 175.814 58.988C175.942 59.564 176.006 60.236 176.006 61.004C176.006 63.916 175.206 66.38 173.606 68.396C172.038 70.444 169.894 71.836 167.174 72.572ZM193.71 64.316C189.838 64.316 186.958 63.532 185.07 61.964C183.214 60.364 182.286 58.364 182.286 55.964C182.286 53.756 183.054 51.884 184.59 50.348C186.158 48.812 188.414 47.596 191.358 46.7V46.412L191.934 46.988C190.75 48.204 189.902 49.436 189.39 50.684C188.878 51.9 188.622 53.356 188.622 55.052C188.622 57.644 189.118 59.564 190.11 60.812C191.134 62.028 192.542 62.636 194.334 62.636C196.094 62.636 197.422 62.14 198.318 61.148C199.246 60.124 199.71 58.716 199.71 56.924C199.71 55.74 199.454 54.62 198.942 53.564C198.462 52.508 197.614 51.484 196.398 50.492C195.214 49.5 193.534 48.54 191.358 47.612C188.574 46.428 186.478 44.908 185.07 43.052C183.694 41.164 183.006 39.02 183.006 36.62C183.006 34.636 183.518 32.908 184.542 31.436C185.566 29.964 186.958 28.828 188.718 28.028C190.478 27.228 192.478 26.828 194.718 26.828C197.182 26.828 199.198 27.212 200.766 27.98C202.366 28.748 203.55 29.772 204.318 31.052C205.086 32.3 205.47 33.66 205.47 35.132C205.47 36.828 204.814 38.428 203.502 39.932C202.222 41.404 200.062 42.7 197.022 43.82V43.964L196.638 43.58C197.63 42.268 198.334 40.94 198.75 39.596C199.166 38.22 199.374 36.652 199.374 34.892C199.374 33.004 198.942 31.468 198.078 30.284C197.246 29.1 196.062 28.508 194.526 28.508C193.662 28.508 192.846 28.732 192.078 29.18C191.31 29.628 190.686 30.268 190.206 31.1C189.726 31.9 189.486 32.86 189.486 33.98C189.486 34.972 189.678 35.98 190.062 37.004C190.478 37.996 191.246 38.988 192.366 39.98C193.518 40.972 195.182 41.948 197.358 42.908C200.558 44.316 202.91 45.932 204.414 47.756C205.918 49.548 206.67 51.644 206.67 54.044C206.67 56.092 206.174 57.9 205.182 59.468C204.19 61.004 202.734 62.204 200.814 63.068C198.894 63.9 196.526 64.316 193.71 64.316ZM223.868 64.316C221.66 64.316 219.596 63.66 217.676 62.348C215.756 61.036 214.204 58.988 213.02 56.204C211.836 53.42 211.244 49.852 211.244 45.5C211.244 41.148 211.836 37.612 213.02 34.892C214.204 32.14 215.756 30.108 217.676 28.796C219.596 27.484 221.66 26.828 223.868 26.828C226.076 26.828 228.14 27.484 230.06 28.796C232.012 30.108 233.58 32.14 234.764 34.892C235.948 37.612 236.54 41.148 236.54 45.5C236.54 49.852 235.948 53.42 234.764 56.204C233.58 58.988 232.012 61.036 230.06 62.348C228.14 63.66 226.076 64.316 223.868 64.316ZM223.868 62.636C224.572 62.636 225.244 62.38 225.884 61.868C226.524 61.324 227.084 60.412 227.564 59.132C228.076 57.82 228.476 56.06 228.764 53.852C229.052 51.644 229.196 48.86 229.196 45.5C229.196 42.172 229.052 39.404 228.764 37.196C228.476 34.988 228.076 33.26 227.564 32.012C227.084 30.732 226.524 29.836 225.884 29.324C225.244 28.78 224.572 28.508 223.868 28.508C223.164 28.508 222.492 28.78 221.852 29.324C221.212 29.836 220.636 30.732 220.124 32.012C219.644 33.26 219.26 34.988 218.972 37.196C218.716 39.372 218.588 42.14 218.588 45.5C218.588 48.86 218.716 51.66 218.972 53.9C219.26 56.108 219.644 57.852 220.124 59.132C220.636 60.412 221.212 61.324 221.852 61.868C222.492 62.38 223.164 62.636 223.868 62.636ZM253.258 64.316C251.05 64.316 248.986 63.66 247.066 62.348C245.146 61.036 243.594 58.988 242.41 56.204C241.226 53.42 240.634 49.852 240.634 45.5C240.634 41.148 241.226 37.612 242.41 34.892C243.594 32.14 245.146 30.108 247.066 28.796C248.986 27.484 251.05 26.828 253.258 26.828C255.466 26.828 257.53 27.484 259.45 28.796C261.402 30.108 262.97 32.14 264.154 34.892C265.338 37.612 265.93 41.148 265.93 45.5C265.93 49.852 265.338 53.42 264.154 56.204C262.97 58.988 261.402 61.036 259.45 62.348C257.53 63.66 255.466 64.316 253.258 64.316ZM253.258 62.636C253.962 62.636 254.634 62.38 255.274 61.868C255.914 61.324 256.474 60.412 256.954 59.132C257.466 57.82 257.866 56.06 258.154 53.852C258.442 51.644 258.586 48.86 258.586 45.5C258.586 42.172 258.442 39.404 258.154 37.196C257.866 34.988 257.466 33.26 256.954 32.012C256.474 30.732 255.914 29.836 255.274 29.324C254.634 28.78 253.962 28.508 253.258 28.508C252.554 28.508 251.882 28.78 251.242 29.324C250.602 29.836 250.026 30.732 249.514 32.012C249.034 33.26 248.65 34.988 248.362 37.196C248.106 39.372 247.978 42.14 247.978 45.5C247.978 48.86 248.106 51.66 248.362 53.9C248.65 56.108 249.034 57.852 249.514 59.132C250.026 60.412 250.602 61.324 251.242 61.868C251.882 62.38 252.554 62.636 253.258 62.636Z" fill="#FFE600"/>
</g>
<path d="M12.535 90.234H19.568V91.742H12.535V90.234ZM19.048 90.234H20.686C20.686 90.234 20.686 90.2773 20.686 90.364C20.686 90.442 20.686 90.5373 20.686 90.65C20.686 90.754 20.6817 90.8407 20.673 90.91C20.6383 91.8893 20.5993 92.7343 20.556 93.445C20.5127 94.147 20.4607 94.732 20.4 95.2C20.348 95.668 20.283 96.0407 20.205 96.318C20.127 96.5953 20.0317 96.8033 19.919 96.942C19.7457 97.15 19.5637 97.2973 19.373 97.384C19.191 97.4707 18.9743 97.5313 18.723 97.566C18.5063 97.6007 18.2203 97.618 17.865 97.618C17.5097 97.6267 17.137 97.6223 16.747 97.605C16.7383 97.371 16.6863 97.1023 16.591 96.799C16.4957 96.5043 16.3787 96.2487 16.24 96.032C16.604 96.058 16.942 96.0753 17.254 96.084C17.566 96.0927 17.8 96.097 17.956 96.097C18.0773 96.097 18.177 96.0883 18.255 96.071C18.333 96.045 18.411 95.993 18.489 95.915C18.593 95.8023 18.6753 95.5553 18.736 95.174C18.8053 94.784 18.866 94.212 18.918 93.458C18.97 92.6953 19.0133 91.7117 19.048 90.507V90.234ZM13.991 85.619L15.681 86.113C15.3603 86.867 14.9747 87.595 14.524 88.297C14.082 88.999 13.601 89.6447 13.081 90.234C12.5697 90.8233 12.0367 91.3347 11.482 91.768C11.3867 91.6553 11.2567 91.521 11.092 91.365C10.9273 91.2003 10.7583 91.04 10.585 90.884C10.4203 90.728 10.273 90.6023 10.143 90.507C10.6803 90.143 11.1917 89.7097 11.677 89.207C12.171 88.6957 12.6173 88.1367 13.016 87.53C13.4147 86.9147 13.7397 86.2777 13.991 85.619ZM18.944 85.593C19.152 86.009 19.4033 86.4337 19.698 86.867C19.9927 87.3003 20.3133 87.725 20.66 88.141C21.0153 88.5483 21.375 88.934 21.739 89.298C22.1117 89.662 22.4757 89.9783 22.831 90.247C22.6923 90.351 22.5363 90.4897 22.363 90.663C22.1983 90.8277 22.038 90.9967 21.882 91.17C21.7347 91.3433 21.609 91.5037 21.505 91.651C21.141 91.313 20.7727 90.936 20.4 90.52C20.0273 90.0953 19.659 89.649 19.295 89.181C18.9397 88.7043 18.6017 88.2147 18.281 87.712C17.9603 87.2007 17.67 86.698 17.41 86.204L18.944 85.593ZM14.849 90.676H16.552C16.4913 91.404 16.3917 92.1147 16.253 92.808C16.1143 93.5013 15.8847 94.1557 15.564 94.771C15.252 95.3863 14.797 95.9497 14.199 96.461C13.6097 96.9637 12.8297 97.3927 11.859 97.748C11.7983 97.6007 11.7117 97.4403 11.599 97.267C11.4863 97.0937 11.365 96.9203 11.235 96.747C11.105 96.5823 10.975 96.4393 10.845 96.318C11.7203 96.0407 12.4137 95.6983 12.925 95.291C13.4363 94.875 13.822 94.4243 14.082 93.939C14.342 93.445 14.5197 92.9207 14.615 92.366C14.719 91.8113 14.797 91.248 14.849 90.676ZM24.846 88.804H28.46V89.948H24.846V88.804ZM24.846 90.923H28.46V92.028H24.846V90.923ZM24.846 93.107H28.46V94.251H24.846V93.107ZM30.488 91.625H35.376V92.938H30.488V91.625ZM25.496 86.659H27.55V87.842H25.496V86.659ZM29.5 86.113H34.336V87.4H29.5V86.113ZM29.513 94.121H35.636V95.46H29.513V94.121ZM31.931 90.455H33.413V97.618H31.931V90.455ZM26.263 89.402H27.29V93.536H26.263V89.402ZM33.92 86.113H35.298C35.298 86.113 35.2937 86.178 35.285 86.308C35.285 86.4293 35.2807 86.5333 35.272 86.62C35.2547 87.3047 35.2287 87.8723 35.194 88.323C35.1593 88.7737 35.1117 89.129 35.051 89.389C34.9903 89.649 34.9123 89.8353 34.817 89.948C34.713 90.078 34.596 90.1733 34.466 90.234C34.336 90.2947 34.1887 90.3423 34.024 90.377C33.8767 90.3943 33.686 90.4073 33.452 90.416C33.218 90.416 32.9667 90.4117 32.698 90.403C32.6893 90.2037 32.6547 89.987 32.594 89.753C32.5333 89.5103 32.451 89.3067 32.347 89.142C32.555 89.1593 32.7413 89.1723 32.906 89.181C33.0707 89.1897 33.1963 89.194 33.283 89.194C33.361 89.194 33.426 89.1897 33.478 89.181C33.5387 89.1637 33.5907 89.1247 33.634 89.064C33.686 89.0033 33.7293 88.8777 33.764 88.687C33.7987 88.4877 33.829 88.1973 33.855 87.816C33.881 87.4347 33.9027 86.932 33.92 86.308V86.113ZM30.215 90.546L31.489 90.806C31.3763 91.3953 31.216 91.9717 31.008 92.535C30.8087 93.0983 30.5833 93.5707 30.332 93.952C30.2453 93.8913 30.1327 93.822 29.994 93.744C29.8553 93.666 29.7123 93.5923 29.565 93.523C29.4177 93.4537 29.292 93.3973 29.188 93.354C29.4393 93.0073 29.6517 92.5827 29.825 92.08C29.9983 91.5773 30.1283 91.066 30.215 90.546ZM25.184 85.437L26.575 85.749C26.4103 86.3383 26.2153 86.919 25.99 87.491C25.7647 88.063 25.5133 88.596 25.236 89.09C24.9673 89.584 24.677 90.0173 24.365 90.39C24.287 90.312 24.1787 90.2167 24.04 90.104C23.9013 89.9827 23.7627 89.8657 23.624 89.753C23.4853 89.6317 23.3597 89.5407 23.247 89.48C23.689 88.9947 24.079 88.3967 24.417 87.686C24.755 86.9667 25.0107 86.217 25.184 85.437ZM24.274 88.804H25.522V92.249C25.522 92.665 25.5047 93.1113 25.47 93.588C25.444 94.0647 25.392 94.55 25.314 95.044C25.2447 95.5293 25.1363 96.0017 24.989 96.461C24.8417 96.9117 24.6467 97.3233 24.404 97.696C24.3347 97.618 24.2307 97.5313 24.092 97.436C23.962 97.3493 23.8233 97.2627 23.676 97.176C23.5373 97.098 23.416 97.0373 23.312 96.994C23.6067 96.5433 23.8233 96.045 23.962 95.499C24.1007 94.9443 24.1873 94.3853 24.222 93.822C24.2567 93.25 24.274 92.7213 24.274 92.236V88.804ZM28.031 88.804H29.318V96.162C29.318 96.474 29.2833 96.7297 29.214 96.929C29.1447 97.1283 29.0103 97.2843 28.811 97.397C28.6117 97.5097 28.3733 97.579 28.096 97.605C27.8187 97.6397 27.4763 97.657 27.069 97.657C27.0517 97.4663 26.9953 97.241 26.9 96.981C26.8133 96.721 26.7223 96.5043 26.627 96.331C26.887 96.3397 27.1297 96.3483 27.355 96.357C27.5803 96.357 27.7363 96.357 27.823 96.357C27.901 96.357 27.953 96.344 27.979 96.318C28.0137 96.2833 28.031 96.2227 28.031 96.136V88.804ZM31.073 86.542H32.464C32.412 87.1747 32.308 87.7597 32.152 88.297C32.0047 88.8257 31.7577 89.298 31.411 89.714C31.0643 90.13 30.5703 90.481 29.929 90.767C29.851 90.6023 29.7297 90.4117 29.565 90.195C29.409 89.9783 29.2573 89.8137 29.11 89.701C29.63 89.4843 30.02 89.22 30.28 88.908C30.5487 88.596 30.735 88.2407 30.839 87.842C30.9517 87.4433 31.0297 87.01 31.073 86.542ZM27.173 86.659H27.472L27.667 86.607L28.564 87.153C28.4167 87.569 28.2303 88.011 28.005 88.479C27.7797 88.9383 27.5673 89.3327 27.368 89.662C27.238 89.5667 27.0777 89.4627 26.887 89.35C26.705 89.2373 26.5447 89.1463 26.406 89.077C26.51 88.869 26.6097 88.6393 26.705 88.388C26.809 88.128 26.9 87.868 26.978 87.608C27.0647 87.3393 27.1297 87.1053 27.173 86.906V86.659ZM40.147 90.754H48.61V92.236H40.147V90.754ZM41.681 87.439H48.051V88.908H41.681V87.439ZM43.657 85.45H45.217V91.534H43.657V85.45ZM41.46 85.632L43.02 85.918C42.916 86.5333 42.773 87.14 42.591 87.738C42.4177 88.336 42.2183 88.895 41.993 89.415C41.7677 89.9263 41.5163 90.3727 41.239 90.754C41.135 90.6673 41.0007 90.572 40.836 90.468C40.6713 90.3553 40.5023 90.247 40.329 90.143C40.1643 90.0303 40.0127 89.948 39.874 89.896C40.2727 89.3933 40.602 88.765 40.862 88.011C41.1307 87.2483 41.33 86.4553 41.46 85.632ZM44.788 91.729H46.309V95.668C46.309 95.876 46.322 96.006 46.348 96.058C46.3827 96.11 46.4563 96.136 46.569 96.136C46.595 96.136 46.634 96.136 46.686 96.136C46.738 96.136 46.7943 96.136 46.855 96.136C46.9157 96.136 46.972 96.136 47.024 96.136C47.0847 96.136 47.1323 96.136 47.167 96.136C47.2537 96.136 47.3187 96.0927 47.362 96.006C47.4053 95.9193 47.4357 95.746 47.453 95.486C47.4703 95.2173 47.4833 94.8187 47.492 94.29C47.596 94.368 47.726 94.4503 47.882 94.537C48.0467 94.615 48.2113 94.6843 48.376 94.745C48.5493 94.8057 48.701 94.8577 48.831 94.901C48.7963 95.577 48.7227 96.1057 48.61 96.487C48.506 96.8683 48.35 97.1327 48.142 97.28C47.9427 97.436 47.6697 97.514 47.323 97.514C47.2623 97.514 47.1843 97.514 47.089 97.514C46.9937 97.514 46.894 97.514 46.79 97.514C46.6947 97.514 46.6037 97.514 46.517 97.514C46.4303 97.514 46.3567 97.514 46.296 97.514C45.8887 97.514 45.5723 97.4577 45.347 97.345C45.1303 97.2323 44.983 97.0417 44.905 96.773C44.827 96.5043 44.788 96.1403 44.788 95.681V91.729ZM42.136 92.002H43.696C43.644 92.652 43.566 93.2587 43.462 93.822C43.358 94.3767 43.189 94.8923 42.955 95.369C42.7297 95.8457 42.409 96.2747 41.993 96.656C41.577 97.0373 41.031 97.371 40.355 97.657C40.2943 97.527 40.212 97.384 40.108 97.228C40.0127 97.072 39.9043 96.916 39.783 96.76C39.6617 96.6127 39.5403 96.4913 39.419 96.396C39.9997 96.1793 40.4633 95.9237 40.81 95.629C41.1567 95.3343 41.4167 95.005 41.59 94.641C41.772 94.2683 41.8977 93.861 41.967 93.419C42.045 92.977 42.1013 92.5047 42.136 92.002ZM36.975 86.659L37.898 85.58C38.158 85.71 38.431 85.8617 38.717 86.035C39.0117 86.1997 39.2847 86.373 39.536 86.555C39.796 86.737 40.004 86.9103 40.16 87.075L39.172 88.271C39.0333 88.0977 38.8383 87.9157 38.587 87.725C38.3443 87.5257 38.08 87.335 37.794 87.153C37.508 86.9623 37.235 86.7977 36.975 86.659ZM36.364 90.169L37.222 89.038C37.4907 89.1507 37.7767 89.285 38.08 89.441C38.3833 89.597 38.6693 89.7617 38.938 89.935C39.2153 90.1083 39.4363 90.273 39.601 90.429L38.691 91.677C38.535 91.521 38.327 91.352 38.067 91.17C37.807 90.988 37.5253 90.8103 37.222 90.637C36.9273 90.455 36.6413 90.299 36.364 90.169ZM36.715 96.604C36.923 96.2573 37.144 95.8587 37.378 95.408C37.6207 94.9573 37.8677 94.4763 38.119 93.965C38.3703 93.4537 38.6 92.9423 38.808 92.431L39.965 93.328C39.783 93.796 39.588 94.2727 39.38 94.758C39.172 95.2347 38.9597 95.7113 38.743 96.188C38.5263 96.656 38.3097 97.111 38.093 97.553L36.715 96.604ZM55.305 86.568H58.685V87.894H55.305V86.568ZM53.888 93.328H60.037V94.706H53.888V93.328ZM53.004 91.079H61.688V92.47H53.004V91.079ZM54.057 88.869H60.687V95.187H59.166V90.247H54.057V88.869ZM56.202 89.649H57.723V95.941C57.723 96.331 57.6753 96.6343 57.58 96.851C57.4933 97.0677 57.3157 97.2367 57.047 97.358C56.7957 97.4707 56.4837 97.54 56.111 97.566C55.7383 97.6007 55.2963 97.6137 54.785 97.605C54.7503 97.397 54.6853 97.15 54.59 96.864C54.5033 96.578 54.408 96.3353 54.304 96.136C54.642 96.1447 54.967 96.1533 55.279 96.162C55.5997 96.162 55.8163 96.162 55.929 96.162C56.033 96.1533 56.1023 96.1317 56.137 96.097C56.1803 96.0623 56.202 96.0017 56.202 95.915V89.649ZM55.175 85.437L56.657 85.879C56.4143 86.425 56.124 86.9623 55.786 87.491C55.448 88.0197 55.0883 88.5137 54.707 88.973C54.3343 89.4323 53.9617 89.831 53.589 90.169C53.5023 90.0737 53.381 89.961 53.225 89.831C53.0777 89.701 52.926 89.5753 52.77 89.454C52.614 89.324 52.4797 89.22 52.367 89.142C52.7397 88.8473 53.0993 88.505 53.446 88.115C53.8013 87.7163 54.1263 87.2873 54.421 86.828C54.7243 86.3687 54.9757 85.905 55.175 85.437ZM58.048 86.568H58.399L58.659 86.503L59.712 87.205C59.556 87.4823 59.3783 87.7813 59.179 88.102C58.9797 88.414 58.7673 88.7173 58.542 89.012C58.3253 89.3067 58.1217 89.571 57.931 89.805C57.7923 89.6837 57.6147 89.558 57.398 89.428C57.19 89.2893 57.008 89.1767 56.852 89.09C57.008 88.8733 57.164 88.6307 57.32 88.362C57.476 88.0933 57.619 87.829 57.749 87.569C57.879 87.3003 57.9787 87.062 58.048 86.854V86.568ZM50.157 86.75L50.924 85.593C51.1753 85.697 51.444 85.827 51.73 85.983C52.0247 86.1303 52.2977 86.2863 52.549 86.451C52.809 86.6157 53.0213 86.776 53.186 86.932L52.354 88.206C52.2067 88.05 52.0073 87.8853 51.756 87.712C51.5047 87.53 51.2403 87.3567 50.963 87.192C50.6857 87.0187 50.417 86.8713 50.157 86.75ZM49.455 90.351L50.196 89.168C50.4473 89.2633 50.716 89.3847 51.002 89.532C51.288 89.6793 51.561 89.8353 51.821 90C52.081 90.156 52.2933 90.3077 52.458 90.455L51.665 91.755C51.5177 91.599 51.3183 91.4387 51.067 91.274C50.8157 91.1007 50.547 90.9317 50.261 90.767C49.975 90.6023 49.7063 90.4637 49.455 90.351ZM49.871 96.461C50.079 96.1317 50.313 95.746 50.573 95.304C50.833 94.8533 51.093 94.3767 51.353 93.874C51.6217 93.3627 51.873 92.8557 52.107 92.353L53.147 93.393C52.939 93.8437 52.718 94.3073 52.484 94.784C52.25 95.2607 52.0117 95.7287 51.769 96.188C51.535 96.6473 51.2967 97.0893 51.054 97.514L49.871 96.461ZM63.066 96.5V94.94H65.146V88.869H63.391V87.673C63.8763 87.5863 64.2923 87.4823 64.639 87.361C64.9943 87.231 65.3237 87.0663 65.627 86.867H67.044V94.94H68.851V96.5H63.066ZM73.503 96.682C72.8876 96.682 72.3373 96.5737 71.852 96.357C71.3666 96.1403 70.981 95.837 70.695 95.447C70.4176 95.057 70.279 94.6107 70.279 94.108C70.279 93.692 70.3526 93.328 70.5 93.016C70.656 92.6953 70.8596 92.418 71.111 92.184C71.3623 91.95 71.6353 91.755 71.93 91.599V91.534C71.566 91.274 71.2626 90.9577 71.02 90.585C70.7773 90.2037 70.656 89.7617 70.656 89.259C70.656 88.739 70.7816 88.2883 71.033 87.907C71.2843 87.5257 71.6266 87.231 72.06 87.023C72.502 86.815 73.0003 86.711 73.555 86.711C74.127 86.711 74.621 86.8193 75.037 87.036C75.453 87.244 75.7736 87.5387 75.999 87.92C76.233 88.3013 76.35 88.752 76.35 89.272C76.35 89.584 76.2893 89.8787 76.168 90.156C76.0553 90.4333 75.9036 90.6847 75.713 90.91C75.531 91.1267 75.3316 91.313 75.115 91.469V91.534C75.4183 91.69 75.6913 91.885 75.934 92.119C76.1766 92.353 76.3716 92.6347 76.519 92.964C76.6663 93.2847 76.74 93.666 76.74 94.108C76.74 94.5933 76.6013 95.031 76.324 95.421C76.0553 95.811 75.6783 96.1187 75.193 96.344C74.7076 96.5693 74.1443 96.682 73.503 96.682ZM74.101 91.001C74.335 90.7497 74.5083 90.4897 74.621 90.221C74.7336 89.9523 74.79 89.675 74.79 89.389C74.79 89.129 74.738 88.8993 74.634 88.7C74.5386 88.492 74.3956 88.3317 74.205 88.219C74.0143 88.1063 73.7846 88.05 73.516 88.05C73.1866 88.05 72.9093 88.154 72.684 88.362C72.4586 88.57 72.346 88.869 72.346 89.259C72.346 89.5537 72.4196 89.8093 72.567 90.026C72.723 90.234 72.9353 90.416 73.204 90.572C73.4726 90.7193 73.7716 90.8623 74.101 91.001ZM73.542 95.33C73.8193 95.33 74.062 95.2823 74.27 95.187C74.4866 95.083 74.6556 94.9357 74.777 94.745C74.8983 94.5457 74.959 94.3117 74.959 94.043C74.959 93.7917 74.9026 93.575 74.79 93.393C74.686 93.2023 74.5386 93.0377 74.348 92.899C74.1573 92.7517 73.932 92.6173 73.672 92.496C73.412 92.3747 73.126 92.2447 72.814 92.106C72.554 92.3227 72.3416 92.587 72.177 92.899C72.0123 93.2023 71.93 93.536 71.93 93.9C71.93 94.186 71.9993 94.4373 72.138 94.654C72.2853 94.862 72.4803 95.0267 72.723 95.148C72.9656 95.2693 73.2386 95.33 73.542 95.33ZM78.4279 99.282L78.0249 98.242C78.5276 98.0427 78.9133 97.7827 79.1819 97.462C79.4593 97.1413 79.5979 96.7903 79.5979 96.409L79.5329 95.044L80.2089 96.175C80.1049 96.2703 79.9879 96.3397 79.8579 96.383C79.7366 96.4263 79.6066 96.448 79.4679 96.448C79.1559 96.448 78.8786 96.3527 78.6359 96.162C78.3933 95.9627 78.2719 95.681 78.2719 95.317C78.2719 94.979 78.3933 94.706 78.6359 94.498C78.8786 94.29 79.1733 94.186 79.5199 94.186C79.9533 94.186 80.2869 94.355 80.5209 94.693C80.7636 95.0223 80.8849 95.4817 80.8849 96.071C80.8849 96.8337 80.6726 97.4923 80.2479 98.047C79.8233 98.6017 79.2166 99.0133 78.4279 99.282ZM85.3985 96.682C84.7831 96.682 84.2328 96.5737 83.7475 96.357C83.2621 96.1403 82.8765 95.837 82.5905 95.447C82.3131 95.057 82.1745 94.6107 82.1745 94.108C82.1745 93.692 82.2481 93.328 82.3955 93.016C82.5515 92.6953 82.7551 92.418 83.0065 92.184C83.2578 91.95 83.5308 91.755 83.8255 91.599V91.534C83.4615 91.274 83.1581 90.9577 82.9155 90.585C82.6728 90.2037 82.5515 89.7617 82.5515 89.259C82.5515 88.739 82.6771 88.2883 82.9285 87.907C83.1798 87.5257 83.5221 87.231 83.9555 87.023C84.3975 86.815 84.8958 86.711 85.4505 86.711C86.0225 86.711 86.5165 86.8193 86.9325 87.036C87.3485 87.244 87.6691 87.5387 87.8945 87.92C88.1285 88.3013 88.2455 88.752 88.2455 89.272C88.2455 89.584 88.1848 89.8787 88.0635 90.156C87.9508 90.4333 87.7991 90.6847 87.6085 90.91C87.4265 91.1267 87.2271 91.313 87.0105 91.469V91.534C87.3138 91.69 87.5868 91.885 87.8295 92.119C88.0721 92.353 88.2671 92.6347 88.4145 92.964C88.5618 93.2847 88.6355 93.666 88.6355 94.108C88.6355 94.5933 88.4968 95.031 88.2195 95.421C87.9508 95.811 87.5738 96.1187 87.0885 96.344C86.6031 96.5693 86.0398 96.682 85.3985 96.682ZM85.9965 91.001C86.2305 90.7497 86.4038 90.4897 86.5165 90.221C86.6291 89.9523 86.6855 89.675 86.6855 89.389C86.6855 89.129 86.6335 88.8993 86.5295 88.7C86.4341 88.492 86.2911 88.3317 86.1005 88.219C85.9098 88.1063 85.6801 88.05 85.4115 88.05C85.0821 88.05 84.8048 88.154 84.5795 88.362C84.3541 88.57 84.2415 88.869 84.2415 89.259C84.2415 89.5537 84.3151 89.8093 84.4625 90.026C84.6185 90.234 84.8308 90.416 85.0995 90.572C85.3681 90.7193 85.6671 90.8623 85.9965 91.001ZM85.4375 95.33C85.7148 95.33 85.9575 95.2823 86.1655 95.187C86.3821 95.083 86.5511 94.9357 86.6725 94.745C86.7938 94.5457 86.8545 94.3117 86.8545 94.043C86.8545 93.7917 86.7981 93.575 86.6855 93.393C86.5815 93.2023 86.4341 93.0377 86.2435 92.899C86.0528 92.7517 85.8275 92.6173 85.5675 92.496C85.3075 92.3747 85.0215 92.2447 84.7095 92.106C84.4495 92.3227 84.2371 92.587 84.0725 92.899C83.9078 93.2023 83.8255 93.536 83.8255 93.9C83.8255 94.186 83.8948 94.4373 84.0335 94.654C84.1808 94.862 84.3758 95.0267 84.6185 95.148C84.8611 95.2693 85.1341 95.33 85.4375 95.33ZM93.0664 96.682C92.4164 96.682 91.8444 96.4957 91.3504 96.123C90.8651 95.7417 90.4838 95.1783 90.2064 94.433C89.9378 93.679 89.8034 92.7473 89.8034 91.638C89.8034 90.5373 89.9378 89.623 90.2064 88.895C90.4838 88.1583 90.8651 87.608 91.3504 87.244C91.8444 86.88 92.4164 86.698 93.0664 86.698C93.7251 86.698 94.2971 86.8843 94.7824 87.257C95.2678 87.621 95.6448 88.167 95.9134 88.895C96.1908 89.623 96.3294 90.5373 96.3294 91.638C96.3294 92.7473 96.1908 93.679 95.9134 94.433C95.6448 95.1783 95.2678 95.7417 94.7824 96.123C94.2971 96.4957 93.7251 96.682 93.0664 96.682ZM93.0664 95.187C93.3524 95.187 93.6038 95.0787 93.8204 94.862C94.0371 94.6453 94.2061 94.2813 94.3274 93.77C94.4488 93.25 94.5094 92.5393 94.5094 91.638C94.5094 90.7453 94.4488 90.0477 94.3274 89.545C94.2061 89.0337 94.0371 88.6783 93.8204 88.479C93.6038 88.271 93.3524 88.167 93.0664 88.167C92.7978 88.167 92.5508 88.271 92.3254 88.479C92.1088 88.6783 91.9354 89.0337 91.8054 89.545C91.6754 90.0477 91.6104 90.7453 91.6104 91.638C91.6104 92.5393 91.6754 93.25 91.8054 93.77C91.9354 94.2813 92.1088 94.6453 92.3254 94.862C92.5508 95.0787 92.7978 95.187 93.0664 95.187ZM100.734 96.682C100.084 96.682 99.5124 96.4957 99.0184 96.123C98.5331 95.7417 98.1517 95.1783 97.8744 94.433C97.6057 93.679 97.4714 92.7473 97.4714 91.638C97.4714 90.5373 97.6057 89.623 97.8744 88.895C98.1517 88.1583 98.5331 87.608 99.0184 87.244C99.5124 86.88 100.084 86.698 100.734 86.698C101.393 86.698 101.965 86.8843 102.45 87.257C102.936 87.621 103.313 88.167 103.581 88.895C103.859 89.623 103.997 90.5373 103.997 91.638C103.997 92.7473 103.859 93.679 103.581 94.433C103.313 95.1783 102.936 95.7417 102.45 96.123C101.965 96.4957 101.393 96.682 100.734 96.682ZM100.734 95.187C101.02 95.187 101.272 95.0787 101.488 94.862C101.705 94.6453 101.874 94.2813 101.995 93.77C102.117 93.25 102.177 92.5393 102.177 91.638C102.177 90.7453 102.117 90.0477 101.995 89.545C101.874 89.0337 101.705 88.6783 101.488 88.479C101.272 88.271 101.02 88.167 100.734 88.167C100.466 88.167 100.219 88.271 99.9934 88.479C99.7767 88.6783 99.6034 89.0337 99.4734 89.545C99.3434 90.0477 99.2784 90.7453 99.2784 91.638C99.2784 92.5393 99.3434 93.25 99.4734 93.77C99.6034 94.2813 99.7767 94.6453 99.9934 94.862C100.219 95.0787 100.466 95.187 100.734 95.187ZM105.607 86.282H115.799V87.829H107.167V97.657H105.607V86.282ZM115.058 86.282H116.631V95.837C116.631 96.253 116.579 96.578 116.475 96.812C116.371 97.0547 116.185 97.241 115.916 97.371C115.648 97.501 115.31 97.579 114.902 97.605C114.504 97.6397 114.014 97.657 113.433 97.657C113.407 97.5097 113.364 97.3407 113.303 97.15C113.243 96.9593 113.173 96.7687 113.095 96.578C113.017 96.396 112.939 96.2357 112.861 96.097C113.113 96.1143 113.364 96.1273 113.615 96.136C113.875 96.136 114.105 96.136 114.304 96.136C114.504 96.136 114.642 96.136 114.72 96.136C114.842 96.1273 114.928 96.1013 114.98 96.058C115.032 96.006 115.058 95.9237 115.058 95.811V86.282ZM106.452 91.118H115.825V92.652H106.452V91.118ZM110.248 87.127H111.808V91.885H110.248V87.127ZM123.482 92.119C123.196 91.8243 122.915 91.5947 122.637 91.43C122.36 91.2653 121.996 91.183 121.545 91.183C121.129 91.183 120.739 91.3303 120.375 91.625C120.02 91.911 119.721 92.2837 119.478 92.743L118.048 91.963C118.49 91.157 119.015 90.559 119.621 90.169C120.228 89.7703 120.882 89.571 121.584 89.571C122.208 89.571 122.763 89.688 123.248 89.922C123.742 90.156 124.21 90.5157 124.652 91.001C124.938 91.2957 125.22 91.5253 125.497 91.69C125.783 91.8547 126.147 91.937 126.589 91.937C127.005 91.937 127.391 91.794 127.746 91.508C128.11 91.2133 128.414 90.8363 128.656 90.377L130.086 91.157C129.644 91.963 129.12 92.5653 128.513 92.964C127.907 93.354 127.252 93.549 126.55 93.549C125.935 93.549 125.38 93.432 124.886 93.198C124.392 92.964 123.924 92.6043 123.482 92.119ZM130.749 98.853L133.986 86.022H135.247L132.023 98.853H130.749Z" fill="white"/>
<rect width="54" height="20" transform="translate(140 81)" fill="#FF568F"/>
<path d="M147.576 85.914H149.094C149.079 86.222 149.054 86.618 149.017 87.102C148.98 87.586 148.911 88.125 148.808 88.719C148.713 89.3057 148.566 89.9217 148.368 90.567C148.17 91.2123 147.899 91.8577 147.554 92.503C147.217 93.141 146.784 93.7533 146.256 94.34C145.735 94.9193 145.101 95.4363 144.353 95.891C144.236 95.7223 144.074 95.5427 143.869 95.352C143.671 95.1613 143.462 94.989 143.242 94.835C143.975 94.4243 144.591 93.955 145.09 93.427C145.589 92.899 145.996 92.3453 146.311 91.766C146.626 91.1793 146.868 90.5927 147.037 90.006C147.206 89.412 147.327 88.851 147.4 88.323C147.473 87.795 147.517 87.322 147.532 86.904C147.547 86.486 147.561 86.156 147.576 85.914ZM149.039 86.211C149.046 86.3503 149.061 86.5703 149.083 86.871C149.105 87.1717 149.149 87.531 149.215 87.949C149.281 88.367 149.38 88.8217 149.512 89.313C149.651 89.797 149.835 90.2957 150.062 90.809C150.289 91.3223 150.572 91.8247 150.909 92.316C151.246 92.8073 151.653 93.262 152.13 93.68C152.614 94.098 153.179 94.461 153.824 94.769C153.611 94.923 153.413 95.1027 153.23 95.308C153.054 95.5133 152.911 95.7077 152.801 95.891C152.126 95.5537 151.536 95.154 151.03 94.692C150.531 94.2227 150.102 93.7167 149.743 93.174C149.391 92.624 149.098 92.0667 148.863 91.502C148.628 90.9373 148.438 90.3837 148.291 89.841C148.152 89.291 148.045 88.7813 147.972 88.312C147.899 87.8427 147.847 87.4357 147.818 87.091C147.796 86.7463 147.778 86.497 147.763 86.343L149.039 86.211ZM156.739 86.717H164.241V87.806H156.739V86.717ZM156.86 88.334H163.24V89.401H156.86V88.334ZM155.551 89.951H161.898V91.051H155.551V89.951ZM156.607 85.606L157.993 85.903C157.729 86.7903 157.373 87.6117 156.926 88.367C156.479 89.1223 155.987 89.7457 155.452 90.237C155.371 90.1563 155.254 90.0647 155.1 89.962C154.953 89.852 154.803 89.7457 154.649 89.643C154.495 89.533 154.363 89.4487 154.253 89.39C154.796 88.972 155.269 88.4293 155.672 87.762C156.083 87.0873 156.394 86.3687 156.607 85.606ZM159.324 91.106L160.611 91.524C160.244 92.2133 159.797 92.8513 159.269 93.438C158.748 94.0173 158.176 94.5343 157.553 94.989C156.93 95.4437 156.281 95.8323 155.606 96.155C155.54 96.067 155.448 95.957 155.331 95.825C155.221 95.693 155.1 95.5647 154.968 95.44C154.843 95.3153 154.733 95.2127 154.638 95.132C155.313 94.8607 155.947 94.527 156.541 94.131C157.142 93.735 157.678 93.2803 158.147 92.767C158.624 92.2537 159.016 91.7 159.324 91.106ZM161.469 89.951H162.822C162.822 90.611 162.829 91.2307 162.844 91.81C162.859 92.382 162.892 92.8843 162.943 93.317C163.002 93.7423 163.082 94.0797 163.185 94.329C163.288 94.571 163.42 94.692 163.581 94.692C163.669 94.6847 163.728 94.5453 163.757 94.274C163.786 94.0027 163.805 93.647 163.812 93.207C163.937 93.3537 164.076 93.504 164.23 93.658C164.391 93.8047 164.538 93.9293 164.67 94.032C164.641 94.4867 164.586 94.8607 164.505 95.154C164.432 95.4473 164.314 95.66 164.153 95.792C163.992 95.9313 163.772 96.001 163.493 96.001C163.031 96.001 162.664 95.8433 162.393 95.528C162.129 95.22 161.931 94.791 161.799 94.241C161.667 93.6837 161.579 93.0383 161.535 92.305C161.491 91.5717 161.469 90.787 161.469 89.951ZM155.573 92.327L156.508 91.458C156.911 91.6707 157.329 91.909 157.762 92.173C158.202 92.4297 158.635 92.701 159.06 92.987C159.493 93.273 159.892 93.559 160.259 93.845C160.626 94.1237 160.934 94.3913 161.183 94.648L160.127 95.649C159.9 95.3997 159.61 95.1283 159.258 94.835C158.913 94.5417 158.532 94.2483 158.114 93.955C157.703 93.6543 157.278 93.3647 156.838 93.086C156.398 92.8073 155.976 92.5543 155.573 92.327ZM166.001 95V86.849H167.662L170.027 91.194L170.852 92.954H170.907C170.863 92.5287 170.815 92.063 170.764 91.557C170.713 91.051 170.687 90.567 170.687 90.105V86.849H172.227V95H170.566L168.223 90.644L167.398 88.895H167.343C167.38 89.335 167.424 89.8007 167.475 90.292C167.526 90.7833 167.552 91.2637 167.552 91.733V95H166.001ZM176.682 95.154C176.169 95.154 175.685 95.0257 175.23 94.769C174.783 94.5123 174.42 94.1457 174.141 93.669C173.863 93.185 173.723 92.602 173.723 91.92C173.723 91.238 173.863 90.6587 174.141 90.182C174.42 89.698 174.783 89.3277 175.23 89.071C175.685 88.8143 176.169 88.686 176.682 88.686C177.071 88.686 177.441 88.7593 177.793 88.906C178.145 89.0527 178.461 89.2653 178.739 89.544C179.018 89.8153 179.238 90.1527 179.399 90.556C179.561 90.952 179.641 91.4067 179.641 91.92C179.641 92.602 179.502 93.185 179.223 93.669C178.945 94.1457 178.578 94.5123 178.123 94.769C177.676 95.0257 177.196 95.154 176.682 95.154ZM176.682 93.834C176.961 93.834 177.196 93.757 177.386 93.603C177.584 93.4417 177.731 93.218 177.826 92.932C177.929 92.646 177.98 92.3087 177.98 91.92C177.98 91.5313 177.929 91.194 177.826 90.908C177.731 90.622 177.584 90.402 177.386 90.248C177.196 90.0867 176.961 90.006 176.682 90.006C176.404 90.006 176.165 90.0867 175.967 90.248C175.777 90.402 175.63 90.622 175.527 90.908C175.432 91.194 175.384 91.5313 175.384 91.92C175.384 92.3087 175.432 92.646 175.527 92.932C175.63 93.218 175.777 93.4417 175.967 93.603C176.165 93.757 176.404 93.834 176.682 93.834ZM181.735 95.154C181.442 95.154 181.2 95.0513 181.009 94.846C180.819 94.6407 180.723 94.3913 180.723 94.098C180.723 93.79 180.819 93.537 181.009 93.339C181.2 93.141 181.442 93.042 181.735 93.042C182.021 93.042 182.26 93.141 182.45 93.339C182.641 93.537 182.736 93.79 182.736 94.098C182.736 94.3913 182.641 94.6407 182.45 94.846C182.26 95.0513 182.021 95.154 181.735 95.154ZM184.422 95V93.68H186.182V88.763H184.697V87.751C185.107 87.6703 185.459 87.575 185.753 87.465C186.053 87.355 186.332 87.223 186.589 87.069H187.788V93.68H189.317V95H184.422Z" fill="white"/>
<path d="M206.866 86.828C206.987 87.0013 207.122 87.205 207.269 87.439C207.416 87.673 207.555 87.907 207.685 88.141C207.824 88.375 207.945 88.5917 208.049 88.791L206.918 89.298C206.797 89.0207 206.675 88.7737 206.554 88.557C206.441 88.3403 206.324 88.1323 206.203 87.933C206.082 87.725 205.939 87.5083 205.774 87.283L206.866 86.828ZM208.569 86.113C208.699 86.2863 208.838 86.4857 208.985 86.711C209.141 86.9363 209.288 87.166 209.427 87.4C209.574 87.6253 209.696 87.8377 209.791 88.037L208.699 88.57C208.56 88.2927 208.426 88.05 208.296 87.842C208.175 87.6253 208.049 87.4217 207.919 87.231C207.798 87.0317 207.655 86.828 207.49 86.62L208.569 86.113ZM201.679 95.447C201.679 95.2737 201.679 95.0007 201.679 94.628C201.679 94.2467 201.679 93.809 201.679 93.315C201.679 92.8123 201.679 92.2923 201.679 91.755C201.679 91.209 201.679 90.6847 201.679 90.182C201.679 89.6707 201.679 89.22 201.679 88.83C201.679 88.44 201.679 88.154 201.679 87.972C201.679 87.738 201.666 87.4737 201.64 87.179C201.623 86.8843 201.592 86.6243 201.549 86.399H203.577C203.551 86.6243 203.525 86.8757 203.499 87.153C203.473 87.4303 203.46 87.7033 203.46 87.972C203.46 88.206 203.46 88.531 203.46 88.947C203.46 89.363 203.46 89.8267 203.46 90.338C203.46 90.8407 203.46 91.3563 203.46 91.885C203.46 92.4137 203.46 92.9207 203.46 93.406C203.46 93.8827 203.46 94.303 203.46 94.667C203.46 95.0223 203.46 95.2823 203.46 95.447C203.46 95.5597 203.464 95.7287 203.473 95.954C203.49 96.1707 203.508 96.396 203.525 96.63C203.551 96.864 203.573 97.072 203.59 97.254H201.549C201.592 97.0027 201.623 96.7037 201.64 96.357C201.666 96.0017 201.679 95.6983 201.679 95.447ZM203.083 89.766C203.516 89.8787 203.997 90.026 204.526 90.208C205.063 90.3813 205.605 90.572 206.151 90.78C206.697 90.9793 207.213 91.1787 207.698 91.378C208.183 91.5687 208.582 91.742 208.894 91.898L208.166 93.705C207.793 93.5057 207.386 93.3107 206.944 93.12C206.502 92.9293 206.051 92.743 205.592 92.561C205.141 92.3703 204.699 92.197 204.266 92.041C203.833 91.885 203.438 91.7507 203.083 91.638V89.766ZM213.899 86.529C214.081 86.555 214.298 86.5723 214.549 86.581C214.8 86.5897 215.034 86.594 215.251 86.594C215.416 86.594 215.667 86.594 216.005 86.594C216.352 86.594 216.733 86.594 217.149 86.594C217.574 86.594 217.994 86.594 218.41 86.594C218.826 86.594 219.199 86.594 219.528 86.594C219.857 86.594 220.1 86.594 220.256 86.594C220.455 86.594 220.694 86.5897 220.971 86.581C221.248 86.5723 221.478 86.555 221.66 86.529V88.206C221.487 88.1887 221.261 88.18 220.984 88.18C220.715 88.1713 220.464 88.167 220.23 88.167C220.091 88.167 219.853 88.167 219.515 88.167C219.186 88.167 218.809 88.167 218.384 88.167C217.968 88.167 217.548 88.167 217.123 88.167C216.707 88.167 216.33 88.167 215.992 88.167C215.654 88.167 215.407 88.167 215.251 88.167C215.043 88.167 214.813 88.1713 214.562 88.18C214.319 88.1887 214.098 88.1973 213.899 88.206V86.529ZM222.752 90.299C222.709 90.3857 222.661 90.481 222.609 90.585C222.566 90.689 222.531 90.7757 222.505 90.845C222.306 91.469 222.054 92.093 221.751 92.717C221.456 93.3323 221.066 93.9087 220.581 94.446C219.931 95.174 219.203 95.7677 218.397 96.227C217.591 96.6777 216.772 97.02 215.94 97.254L214.653 95.785C215.632 95.577 216.503 95.2737 217.266 94.875C218.029 94.4763 218.657 94.0213 219.151 93.51C219.498 93.1547 219.775 92.782 219.983 92.392C220.2 91.9933 220.369 91.6163 220.49 91.261C220.395 91.261 220.23 91.261 219.996 91.261C219.762 91.261 219.48 91.261 219.151 91.261C218.83 91.261 218.484 91.261 218.111 91.261C217.738 91.261 217.357 91.261 216.967 91.261C216.577 91.261 216.204 91.261 215.849 91.261C215.494 91.261 215.173 91.261 214.887 91.261C214.61 91.261 214.384 91.261 214.211 91.261C214.055 91.261 213.834 91.2653 213.548 91.274C213.262 91.2827 212.98 91.3 212.703 91.326V89.636C212.98 89.6533 213.249 89.6707 213.509 89.688C213.778 89.7053 214.012 89.714 214.211 89.714C214.341 89.714 214.536 89.714 214.796 89.714C215.065 89.714 215.372 89.714 215.719 89.714C216.066 89.714 216.434 89.714 216.824 89.714C217.223 89.714 217.617 89.714 218.007 89.714C218.406 89.714 218.783 89.714 219.138 89.714C219.493 89.714 219.801 89.714 220.061 89.714C220.321 89.714 220.516 89.714 220.646 89.714C220.854 89.714 221.04 89.701 221.205 89.675C221.378 89.649 221.508 89.6187 221.595 89.584L222.752 90.299ZM230.821 86.698C230.735 86.8887 230.644 87.1053 230.548 87.348C230.453 87.582 230.358 87.8463 230.262 88.141C230.184 88.3837 230.085 88.6957 229.963 89.077C229.842 89.4497 229.708 89.8613 229.56 90.312C229.413 90.754 229.257 91.2133 229.092 91.69C228.936 92.158 228.785 92.613 228.637 93.055C228.49 93.497 228.351 93.9 228.221 94.264C228.091 94.6193 227.979 94.9097 227.883 95.135L225.959 95.2C226.081 94.9227 226.215 94.5847 226.362 94.186C226.51 93.7873 226.666 93.354 226.83 92.886C226.995 92.4093 227.155 91.924 227.311 91.43C227.476 90.936 227.628 90.4593 227.766 90C227.914 89.5407 228.044 89.116 228.156 88.726C228.278 88.336 228.373 88.0197 228.442 87.777C228.529 87.439 228.594 87.1617 228.637 86.945C228.689 86.7197 228.728 86.4943 228.754 86.269L230.821 86.698ZM233.148 90.897C233.382 91.2437 233.634 91.651 233.902 92.119C234.171 92.587 234.435 93.0767 234.695 93.588C234.964 94.0907 235.211 94.576 235.436 95.044C235.662 95.512 235.848 95.9323 235.995 96.305L234.24 97.085C234.093 96.6863 233.911 96.2357 233.694 95.733C233.486 95.2303 233.257 94.719 233.005 94.199C232.763 93.679 232.511 93.1893 232.251 92.73C232 92.262 231.757 91.872 231.523 91.56L233.148 90.897ZM225.842 94.628C226.137 94.6107 226.492 94.589 226.908 94.563C227.333 94.5283 227.788 94.4893 228.273 94.446C228.759 94.394 229.253 94.342 229.755 94.29C230.267 94.238 230.765 94.186 231.25 94.134C231.744 94.0733 232.204 94.017 232.628 93.965C233.053 93.913 233.413 93.8653 233.707 93.822L234.097 95.486C233.777 95.5293 233.391 95.577 232.94 95.629C232.498 95.681 232.022 95.7373 231.51 95.798C230.999 95.85 230.479 95.9063 229.95 95.967C229.422 96.0277 228.906 96.084 228.403 96.136C227.901 96.188 227.437 96.2357 227.012 96.279C226.588 96.3137 226.228 96.3483 225.933 96.383C225.769 96.4003 225.574 96.4263 225.348 96.461C225.132 96.487 224.919 96.513 224.711 96.539L224.412 94.641C224.629 94.641 224.867 94.641 225.127 94.641C225.396 94.641 225.634 94.6367 225.842 94.628ZM245.888 86.308L246.915 85.45C247.115 85.58 247.323 85.7317 247.539 85.905C247.765 86.0783 247.973 86.2517 248.163 86.425C248.363 86.5983 248.523 86.7543 248.644 86.893L247.539 87.842C247.435 87.686 247.288 87.5213 247.097 87.348C246.915 87.166 246.716 86.984 246.499 86.802C246.291 86.62 246.088 86.4553 245.888 86.308ZM237.269 87.673H248.969V89.194H237.269V87.673ZM237.763 90.676H243.392V92.184H237.763V90.676ZM239.726 91.534H241.286V95.941H239.726V91.534ZM237.269 95.733C237.789 95.6463 238.4 95.5467 239.102 95.434C239.813 95.3127 240.563 95.1827 241.351 95.044C242.149 94.9053 242.942 94.7623 243.73 94.615L243.834 96.006C243.124 96.162 242.404 96.318 241.676 96.474C240.948 96.6213 240.246 96.7643 239.57 96.903C238.894 97.0503 238.27 97.1847 237.698 97.306L237.269 95.733ZM243.665 85.502H245.342C245.316 86.5767 245.329 87.6253 245.381 88.648C245.442 89.6707 245.537 90.6283 245.667 91.521C245.797 92.4137 245.953 93.198 246.135 93.874C246.317 94.55 246.517 95.0787 246.733 95.46C246.959 95.8413 247.197 96.032 247.448 96.032C247.596 96.032 247.704 95.8457 247.773 95.473C247.851 95.1003 247.908 94.5023 247.942 93.679C248.124 93.861 248.341 94.0387 248.592 94.212C248.852 94.3853 249.091 94.511 249.307 94.589C249.238 95.4123 249.121 96.0493 248.956 96.5C248.8 96.942 248.588 97.2453 248.319 97.41C248.059 97.5833 247.721 97.67 247.305 97.67C246.837 97.67 246.421 97.5097 246.057 97.189C245.693 96.8683 245.377 96.4263 245.108 95.863C244.84 95.291 244.614 94.6193 244.432 93.848C244.25 93.0767 244.103 92.2403 243.99 91.339C243.878 90.429 243.795 89.48 243.743 88.492C243.691 87.504 243.665 86.5073 243.665 85.502ZM253.111 96.5V95.395C253.986 94.615 254.731 93.8913 255.347 93.224C255.971 92.5567 256.447 91.937 256.777 91.365C257.106 90.7843 257.271 90.247 257.271 89.753C257.271 89.441 257.214 89.168 257.102 88.934C256.989 88.7 256.824 88.5223 256.608 88.401C256.4 88.271 256.14 88.206 255.828 88.206C255.481 88.206 255.16 88.3057 254.866 88.505C254.58 88.6957 254.315 88.9253 254.073 89.194L253.007 88.167C253.457 87.6817 253.917 87.3177 254.385 87.075C254.861 86.8237 255.425 86.698 256.075 86.698C256.681 86.698 257.21 86.8237 257.661 87.075C258.12 87.3177 258.475 87.66 258.727 88.102C258.978 88.544 259.104 89.064 259.104 89.662C259.104 90.2427 258.956 90.8363 258.662 91.443C258.376 92.041 257.99 92.639 257.505 93.237C257.019 93.835 256.482 94.4243 255.893 95.005C256.144 94.9703 256.413 94.9443 256.699 94.927C256.993 94.901 257.253 94.888 257.479 94.888H259.559V96.5H253.111ZM264.055 96.682C263.439 96.682 262.889 96.5737 262.404 96.357C261.918 96.1403 261.533 95.837 261.247 95.447C260.969 95.057 260.831 94.6107 260.831 94.108C260.831 93.692 260.904 93.328 261.052 93.016C261.208 92.6953 261.411 92.418 261.663 92.184C261.914 91.95 262.187 91.755 262.482 91.599V91.534C262.118 91.274 261.814 90.9577 261.572 90.585C261.329 90.2037 261.208 89.7617 261.208 89.259C261.208 88.739 261.333 88.2883 261.585 87.907C261.836 87.5257 262.178 87.231 262.612 87.023C263.054 86.815 263.552 86.711 264.107 86.711C264.679 86.711 265.173 86.8193 265.589 87.036C266.005 87.244 266.325 87.5387 266.551 87.92C266.785 88.3013 266.902 88.752 266.902 89.272C266.902 89.584 266.841 89.8787 266.72 90.156C266.607 90.4333 266.455 90.6847 266.265 90.91C266.083 91.1267 265.883 91.313 265.667 91.469V91.534C265.97 91.69 266.243 91.885 266.486 92.119C266.728 92.353 266.923 92.6347 267.071 92.964C267.218 93.2847 267.292 93.666 267.292 94.108C267.292 94.5933 267.153 95.031 266.876 95.421C266.607 95.811 266.23 96.1187 265.745 96.344C265.259 96.5693 264.696 96.682 264.055 96.682ZM264.653 91.001C264.887 90.7497 265.06 90.4897 265.173 90.221C265.285 89.9523 265.342 89.675 265.342 89.389C265.342 89.129 265.29 88.8993 265.186 88.7C265.09 88.492 264.947 88.3317 264.757 88.219C264.566 88.1063 264.336 88.05 264.068 88.05C263.738 88.05 263.461 88.154 263.236 88.362C263.01 88.57 262.898 88.869 262.898 89.259C262.898 89.5537 262.971 89.8093 263.119 90.026C263.275 90.234 263.487 90.416 263.756 90.572C264.024 90.7193 264.323 90.8623 264.653 91.001ZM264.094 95.33C264.371 95.33 264.614 95.2823 264.822 95.187C265.038 95.083 265.207 94.9357 265.329 94.745C265.45 94.5457 265.511 94.3117 265.511 94.043C265.511 93.7917 265.454 93.575 265.342 93.393C265.238 93.2023 265.09 93.0377 264.9 92.899C264.709 92.7517 264.484 92.6173 264.224 92.496C263.964 92.3747 263.678 92.2447 263.366 92.106C263.106 92.3227 262.893 92.587 262.729 92.899C262.564 93.2023 262.482 93.536 262.482 93.9C262.482 94.186 262.551 94.4373 262.69 94.654C262.837 94.862 263.032 95.0267 263.275 95.148C263.517 95.2693 263.79 95.33 264.094 95.33ZM268.98 99.282L268.577 98.242C269.079 98.0427 269.465 97.7827 269.734 97.462C270.011 97.1413 270.15 96.7903 270.15 96.409L270.085 95.044L270.761 96.175C270.657 96.2703 270.54 96.3397 270.41 96.383C270.288 96.4263 270.158 96.448 270.02 96.448C269.708 96.448 269.43 96.3527 269.188 96.162C268.945 95.9627 268.824 95.681 268.824 95.317C268.824 94.979 268.945 94.706 269.188 94.498C269.43 94.29 269.725 94.186 270.072 94.186C270.505 94.186 270.839 94.355 271.073 94.693C271.315 95.0223 271.437 95.4817 271.437 96.071C271.437 96.8337 271.224 97.4923 270.8 98.047C270.375 98.6017 269.768 99.0133 268.98 99.282ZM275.95 96.682C275.335 96.682 274.785 96.5737 274.299 96.357C273.814 96.1403 273.428 95.837 273.142 95.447C272.865 95.057 272.726 94.6107 272.726 94.108C272.726 93.692 272.8 93.328 272.947 93.016C273.103 92.6953 273.307 92.418 273.558 92.184C273.81 91.95 274.083 91.755 274.377 91.599V91.534C274.013 91.274 273.71 90.9577 273.467 90.585C273.225 90.2037 273.103 89.7617 273.103 89.259C273.103 88.739 273.229 88.2883 273.48 87.907C273.732 87.5257 274.074 87.231 274.507 87.023C274.949 86.815 275.448 86.711 276.002 86.711C276.574 86.711 277.068 86.8193 277.484 87.036C277.9 87.244 278.221 87.5387 278.446 87.92C278.68 88.3013 278.797 88.752 278.797 89.272C278.797 89.584 278.737 89.8787 278.615 90.156C278.503 90.4333 278.351 90.6847 278.16 90.91C277.978 91.1267 277.779 91.313 277.562 91.469V91.534C277.866 91.69 278.139 91.885 278.381 92.119C278.624 92.353 278.819 92.6347 278.966 92.964C279.114 93.2847 279.187 93.666 279.187 94.108C279.187 94.5933 279.049 95.031 278.771 95.421C278.503 95.811 278.126 96.1187 277.64 96.344C277.155 96.5693 276.592 96.682 275.95 96.682ZM276.548 91.001C276.782 90.7497 276.956 90.4897 277.068 90.221C277.181 89.9523 277.237 89.675 277.237 89.389C277.237 89.129 277.185 88.8993 277.081 88.7C276.986 88.492 276.843 88.3317 276.652 88.219C276.462 88.1063 276.232 88.05 275.963 88.05C275.634 88.05 275.357 88.154 275.131 88.362C274.906 88.57 274.793 88.869 274.793 89.259C274.793 89.5537 274.867 89.8093 275.014 90.026C275.17 90.234 275.383 90.416 275.651 90.572C275.92 90.7193 276.219 90.8623 276.548 91.001ZM275.989 95.33C276.267 95.33 276.509 95.2823 276.717 95.187C276.934 95.083 277.103 94.9357 277.224 94.745C277.346 94.5457 277.406 94.3117 277.406 94.043C277.406 93.7917 277.35 93.575 277.237 93.393C277.133 93.2023 276.986 93.0377 276.795 92.899C276.605 92.7517 276.379 92.6173 276.119 92.496C275.859 92.3747 275.573 92.2447 275.261 92.106C275.001 92.3227 274.789 92.587 274.624 92.899C274.46 93.2023 274.377 93.536 274.377 93.9C274.377 94.186 274.447 94.4373 274.585 94.654C274.733 94.862 274.928 95.0267 275.17 95.148C275.413 95.2693 275.686 95.33 275.989 95.33ZM283.618 96.682C282.968 96.682 282.396 96.4957 281.902 96.123C281.417 95.7417 281.036 95.1783 280.758 94.433C280.49 93.679 280.355 92.7473 280.355 91.638C280.355 90.5373 280.49 89.623 280.758 88.895C281.036 88.1583 281.417 87.608 281.902 87.244C282.396 86.88 282.968 86.698 283.618 86.698C284.277 86.698 284.849 86.8843 285.334 87.257C285.82 87.621 286.197 88.167 286.465 88.895C286.743 89.623 286.881 90.5373 286.881 91.638C286.881 92.7473 286.743 93.679 286.465 94.433C286.197 95.1783 285.82 95.7417 285.334 96.123C284.849 96.4957 284.277 96.682 283.618 96.682ZM283.618 95.187C283.904 95.187 284.156 95.0787 284.372 94.862C284.589 94.6453 284.758 94.2813 284.879 93.77C285.001 93.25 285.061 92.5393 285.061 91.638C285.061 90.7453 285.001 90.0477 284.879 89.545C284.758 89.0337 284.589 88.6783 284.372 88.479C284.156 88.271 283.904 88.167 283.618 88.167C283.35 88.167 283.103 88.271 282.877 88.479C282.661 88.6783 282.487 89.0337 282.357 89.545C282.227 90.0477 282.162 90.7453 282.162 91.638C282.162 92.5393 282.227 93.25 282.357 93.77C282.487 94.2813 282.661 94.6453 282.877 94.862C283.103 95.0787 283.35 95.187 283.618 95.187ZM291.286 96.682C290.636 96.682 290.064 96.4957 289.57 96.123C289.085 95.7417 288.704 95.1783 288.426 94.433C288.158 93.679 288.023 92.7473 288.023 91.638C288.023 90.5373 288.158 89.623 288.426 88.895C288.704 88.1583 289.085 87.608 289.57 87.244C290.064 86.88 290.636 86.698 291.286 86.698C291.945 86.698 292.517 86.8843 293.002 87.257C293.488 87.621 293.865 88.167 294.133 88.895C294.411 89.623 294.549 90.5373 294.549 91.638C294.549 92.7473 294.411 93.679 294.133 94.433C293.865 95.1783 293.488 95.7417 293.002 96.123C292.517 96.4957 291.945 96.682 291.286 96.682ZM291.286 95.187C291.572 95.187 291.824 95.0787 292.04 94.862C292.257 94.6453 292.426 94.2813 292.547 93.77C292.669 93.25 292.729 92.5393 292.729 91.638C292.729 90.7453 292.669 90.0477 292.547 89.545C292.426 89.0337 292.257 88.6783 292.04 88.479C291.824 88.271 291.572 88.167 291.286 88.167C291.018 88.167 290.771 88.271 290.545 88.479C290.329 88.6783 290.155 89.0337 290.025 89.545C289.895 90.0477 289.83 90.7453 289.83 91.638C289.83 92.5393 289.895 93.25 290.025 93.77C290.155 94.2813 290.329 94.6453 290.545 94.862C290.771 95.0787 291.018 95.187 291.286 95.187ZM296.159 86.282H306.351V87.829H297.719V97.657H296.159V86.282ZM305.61 86.282H307.183V95.837C307.183 96.253 307.131 96.578 307.027 96.812C306.923 97.0547 306.737 97.241 306.468 97.371C306.199 97.501 305.861 97.579 305.454 97.605C305.055 97.6397 304.566 97.657 303.985 97.657C303.959 97.5097 303.916 97.3407 303.855 97.15C303.794 96.9593 303.725 96.7687 303.647 96.578C303.569 96.396 303.491 96.2357 303.413 96.097C303.664 96.1143 303.916 96.1273 304.167 96.136C304.427 96.136 304.657 96.136 304.856 96.136C305.055 96.136 305.194 96.136 305.272 96.136C305.393 96.1273 305.48 96.1013 305.532 96.058C305.584 96.006 305.61 95.9237 305.61 95.811V86.282ZM297.004 91.118H306.377V92.652H297.004V91.118ZM300.8 87.127H302.36V91.885H300.8V87.127ZM314.034 92.119C313.748 91.8243 313.466 91.5947 313.189 91.43C312.912 91.2653 312.548 91.183 312.097 91.183C311.681 91.183 311.291 91.3303 310.927 91.625C310.572 91.911 310.273 92.2837 310.03 92.743L308.6 91.963C309.042 91.157 309.566 90.559 310.173 90.169C310.78 89.7703 311.434 89.571 312.136 89.571C312.76 89.571 313.315 89.688 313.8 89.922C314.294 90.156 314.762 90.5157 315.204 91.001C315.49 91.2957 315.772 91.5253 316.049 91.69C316.335 91.8547 316.699 91.937 317.141 91.937C317.557 91.937 317.943 91.794 318.298 91.508C318.662 91.2133 318.965 90.8363 319.208 90.377L320.638 91.157C320.196 91.963 319.672 92.5653 319.065 92.964C318.458 93.354 317.804 93.549 317.102 93.549C316.487 93.549 315.932 93.432 315.438 93.198C314.944 92.964 314.476 92.6043 314.034 92.119Z" fill="white"/>
<defs>
<filter id="filter0_d_176_29671" x="2" y="9" width="81" height="81" filterUnits="userSpaceOnUse" color-interpolation-filters="sRGB">
<feFlood flood-opacity="0" result="BackgroundImageFix"/>
<feColorMatrix in="SourceAlpha" type="matrix" values="0 0 0 0 0 0 0 0 0 0 0 0 0 0 0 0 0 0 127 0" result="hardAlpha"/>
<feOffset dy="5"/>
<feGaussianBlur stdDeviation="4"/>
<feComposite in2="hardAlpha" operator="out"/>
<feColorMatrix type="matrix" values="0 0 0 0 0 0 0 0 0 0 0 0 0 0 0 0 0 0 0.6 0"/>
<feBlend mode="normal" in2="BackgroundImageFix" result="effect1_dropShadow_176_29671"/>
<feBlend mode="normal" in="SourceGraphic" in2="effect1_dropShadow_176_29671" result="shape"/>
</filter>
<filter id="filter1_d_176_29671" x="130.623" y="26.8279" width="140.307" height="55.7441" filterUnits="userSpaceOnUse" color-interpolation-filters="sRGB">
<feFlood flood-opacity="0" result="BackgroundImageFix"/>
<feColorMatrix in="SourceAlpha" type="matrix" values="0 0 0 0 0 0 0 0 0 0 0 0 0 0 0 0 0 0 127 0" result="hardAlpha"/>
<feOffset dy="5"/>
<feGaussianBlur stdDeviation="2.5"/>
<feComposite in2="hardAlpha" operator="out"/>
<feColorMatrix type="matrix" values="0 0 0 0 0 0 0 0 0 0 0 0 0 0 0 0 0 0 0.6 0"/>
<feBlend mode="normal" in2="BackgroundImageFix" result="effect1_dropShadow_176_29671"/>
<feBlend mode="normal" in="SourceGraphic" in2="effect1_dropShadow_176_29671" result="shape"/>
</filter>
<linearGradient id="paint0_linear_176_29671" x1="0" y1="56.5" x2="332" y2="56.5" gradientUnits="userSpaceOnUse">
<stop stop-color="#00B9F5"/>
<stop offset="0.497921" stop-color="#0032C7"/>
<stop offset="1" stop-color="#00B9F5"/>
</linearGradient>
<linearGradient id="paint1_linear_176_29671" x1="10" y1="44.5" x2="75" y2="44.5" gradientUnits="userSpaceOnUse">
<stop stop-color="#FFFDDE"/>
<stop offset="0.501795" stop-color="white"/>
<stop offset="1" stop-color="#FFFDF0"/>
</linearGradient>
</defs>
</svg>
