<svg preserveAspectRatio="none" width="100%" height="100%" overflow="visible" style="display: block;" viewBox="0 0 264.918 101" fill="none" xmlns="http://www.w3.org/2000/svg">
<g id="Group 110" filter="url(#filter0_d_171_4244)">
<path id="Vector" d="M3.14742 74.3088C16.6257 68.5476 27.7585 60.1065 36.0752 50.3721C36.1864 50.2412 36.3863 50.2642 36.4696 50.4166C40.3462 57.5255 44.9717 64.3667 50.3112 70.8039C50.426 70.9416 50.3385 71.1502 50.1375 71.2139C35.1962 75.9778 19.2108 77.2847 3.29106 74.8031C2.98767 74.7554 2.89143 74.4181 3.14742 74.3088Z" fill="var(--fill-0, white)"/>
<g id="Frame">
<path id="Vector_2" d="M246.038 3H32.7972C24.0272 3 16.9178 9.66946 16.9178 17.8967V83.1033C16.9178 91.3305 24.0272 98 32.7972 98H246.038C254.808 98 261.918 91.3305 261.918 83.1033V17.8967C261.918 9.66946 254.808 3 246.038 3Z" fill="var(--fill-0, white)"/>
</g>
</g>
<defs>
<filter id="filter0_d_171_4244" x="7.45058e-08" y="0" width="264.918" height="101" filterUnits="userSpaceOnUse" color-interpolation-filters="sRGB">
<feFlood flood-opacity="0" result="BackgroundImageFix"/>
<feColorMatrix in="SourceAlpha" type="matrix" values="0 0 0 0 0 0 0 0 0 0 0 0 0 0 0 0 0 0 127 0" result="hardAlpha"/>
<feOffset/>
<feGaussianBlur stdDeviation="1.5"/>
<feComposite in2="hardAlpha" operator="out"/>
<feColorMatrix type="matrix" values="0 0 0 0 0.627451 0 0 0 0 0.752941 0 0 0 0 0.831373 0 0 0 0.4 0"/>
<feBlend mode="normal" in2="BackgroundImageFix" result="effect1_dropShadow_171_4244"/>
<feBlend mode="normal" in="SourceGraphic" in2="effect1_dropShadow_171_4244" result="shape"/>
</filter>
</defs>
</svg>
