<svg preserveAspectRatio="none" width="100%" height="100%" overflow="visible" style="display: block;" viewBox="0 0 88.38 16.938" fill="none" xmlns="http://www.w3.org/2000/svg">
<path id="Vector" d="M5.832 1.53C6.048 1.434 6.288 1.332 6.552 1.224C6.828 1.104 7.092 1.044 7.344 1.044C7.596 1.044 7.872 1.098 8.172 1.206C8.472 1.314 8.76 1.446 9.036 1.602C9.312 1.758 9.534 1.926 9.702 2.106C9.882 2.274 9.972 2.436 9.972 2.592C9.972 2.772 9.924 2.916 9.828 3.024C9.744 3.12 9.648 3.228 9.54 3.348C9.432 3.468 9.342 3.654 9.27 3.906C9.222 4.098 9.162 4.332 9.09 4.608C9.03 4.884 8.952 5.19 8.856 5.526C8.772 5.85 8.67 6.204 8.55 6.588C8.406 7.044 8.214 7.596 7.974 8.244C7.734 8.88 7.41 9.564 7.002 10.296C6.606 11.016 6.102 11.742 5.49 12.474C4.89 13.194 4.158 13.89 3.294 14.562C2.43 15.222 1.41 15.81 0.234001 16.326L0 16.002C1.044 15.234 1.926 14.442 2.646 13.626C3.378 12.81 3.99 11.994 4.482 11.178C4.974 10.35 5.382 9.54 5.706 8.748C6.03 7.956 6.294 7.2 6.498 6.48C6.594 6.216 6.678 5.922 6.75 5.598C6.834 5.262 6.912 4.932 6.984 4.608C7.056 4.272 7.116 3.966 7.164 3.69C7.212 3.402 7.236 3.174 7.236 3.006C7.236 2.814 7.218 2.67 7.182 2.574C7.146 2.466 7.068 2.376 6.948 2.304C6.792 2.196 6.612 2.1 6.408 2.016C6.216 1.932 6.024 1.86 5.832 1.8V1.53ZM6.624 12.762L6.786 12.492C7.134 12.612 7.458 12.72 7.758 12.816C8.07 12.912 8.34 12.99 8.568 13.05C8.808 13.098 9 13.128 9.144 13.14C9.372 13.164 9.546 13.158 9.666 13.122C9.786 13.074 9.9 12.978 10.008 12.834C10.224 12.558 10.416 12.21 10.584 11.79C10.752 11.358 10.902 10.896 11.034 10.404C11.178 9.9 11.298 9.402 11.394 8.91C11.49 8.418 11.562 7.968 11.61 7.56C11.658 7.152 11.682 6.834 11.682 6.606C11.682 6.45 11.616 6.372 11.484 6.372C11.232 6.372 10.926 6.39 10.566 6.426C10.218 6.462 9.852 6.51 9.468 6.57C9.096 6.618 8.724 6.672 8.352 6.732C7.992 6.792 7.65 6.846 7.326 6.894C7.122 6.93 6.882 6.972 6.606 7.02C6.33 7.068 6.042 7.122 5.742 7.182C5.454 7.242 5.172 7.302 4.896 7.362C4.632 7.422 4.41 7.482 4.23 7.542C3.954 7.626 3.714 7.728 3.51 7.848C3.318 7.956 3.114 8.01 2.898 8.01C2.706 8.01 2.49 7.914 2.25 7.722C2.022 7.53 1.806 7.308 1.602 7.056C1.41 6.792 1.278 6.558 1.206 6.354C1.122 6.138 1.08 5.922 1.08 5.706C1.092 5.478 1.116 5.238 1.152 4.986L1.404 4.914C1.608 5.19 1.806 5.43 1.998 5.634C2.202 5.826 2.454 5.922 2.754 5.922C2.898 5.922 3.144 5.91 3.492 5.886C3.84 5.85 4.26 5.808 4.752 5.76C5.256 5.712 5.79 5.658 6.354 5.598C6.93 5.526 7.5 5.46 8.064 5.4C8.64 5.328 9.186 5.262 9.702 5.202C10.23 5.13 10.686 5.07 11.07 5.022C11.238 4.998 11.382 4.944 11.502 4.86C11.634 4.764 11.754 4.674 11.862 4.59C11.982 4.494 12.102 4.446 12.222 4.446C12.366 4.446 12.552 4.512 12.78 4.644C13.02 4.776 13.254 4.938 13.482 5.13C13.722 5.322 13.926 5.52 14.094 5.724C14.262 5.928 14.346 6.108 14.346 6.264C14.346 6.42 14.286 6.546 14.166 6.642C14.058 6.726 13.944 6.822 13.824 6.93C13.704 7.038 13.626 7.206 13.59 7.434C13.53 7.83 13.452 8.286 13.356 8.802C13.272 9.306 13.158 9.84 13.014 10.404C12.882 10.968 12.72 11.526 12.528 12.078C12.336 12.63 12.12 13.152 11.88 13.644C11.712 13.968 11.484 14.286 11.196 14.598C10.908 14.898 10.596 15.144 10.26 15.336C9.924 15.516 9.576 15.606 9.216 15.606C8.94 15.606 8.742 15.54 8.622 15.408C8.514 15.288 8.418 15.078 8.334 14.778C8.286 14.574 8.196 14.382 8.064 14.202C7.944 14.022 7.77 13.818 7.542 13.59C7.314 13.362 7.008 13.086 6.624 12.762ZM30.654 4.284C30.486 4.032 30.282 3.75 30.042 3.438C29.802 3.126 29.472 2.79 29.052 2.43L29.232 2.178C29.736 2.322 30.192 2.484 30.6 2.664C31.008 2.832 31.35 3.048 31.626 3.312C31.818 3.48 31.95 3.648 32.022 3.816C32.106 3.984 32.142 4.152 32.13 4.32C32.13 4.5 32.064 4.656 31.932 4.788C31.812 4.92 31.656 4.986 31.464 4.986C31.308 4.974 31.17 4.908 31.05 4.788C30.93 4.668 30.798 4.5 30.654 4.284ZM32.31 2.79C32.142 2.586 31.944 2.352 31.716 2.088C31.5 1.812 31.158 1.494 30.69 1.134L30.852 0.882C31.356 0.99 31.806 1.122 32.202 1.278C32.61 1.422 32.94 1.59 33.192 1.782C33.42 1.962 33.576 2.142 33.66 2.322C33.756 2.502 33.804 2.7 33.804 2.916C33.804 3.108 33.75 3.264 33.642 3.384C33.534 3.492 33.39 3.546 33.21 3.546C33.03 3.534 32.88 3.462 32.76 3.33C32.64 3.198 32.49 3.018 32.31 2.79ZM19.242 2.556C19.458 2.448 19.722 2.328 20.034 2.196C20.358 2.064 20.652 2.004 20.916 2.016C21.18 2.016 21.45 2.076 21.726 2.196C22.002 2.304 22.26 2.448 22.5 2.628C22.74 2.796 22.932 2.976 23.076 3.168C23.22 3.36 23.292 3.534 23.292 3.69C23.292 3.846 23.256 3.978 23.184 4.086C23.112 4.194 23.034 4.308 22.95 4.428C22.878 4.548 22.824 4.698 22.788 4.878C22.74 5.166 22.692 5.55 22.644 6.03C22.608 6.51 22.572 7.032 22.536 7.596C22.5 8.16 22.47 8.724 22.446 9.288C22.422 9.852 22.404 10.374 22.392 10.854C22.38 11.322 22.38 11.706 22.392 12.006C22.404 12.498 22.458 12.87 22.554 13.122C22.65 13.362 22.854 13.524 23.166 13.608C23.49 13.68 23.976 13.716 24.624 13.716C25.5 13.716 26.262 13.662 26.91 13.554C27.57 13.434 28.104 13.32 28.512 13.212C28.92 13.104 29.184 13.05 29.304 13.05C29.976 13.05 30.486 13.134 30.834 13.302C31.194 13.47 31.374 13.728 31.374 14.076C31.374 14.388 31.29 14.622 31.122 14.778C30.954 14.934 30.744 15.054 30.492 15.138C30.18 15.246 29.754 15.336 29.214 15.408C28.674 15.492 28.056 15.552 27.36 15.588C26.664 15.636 25.914 15.66 25.11 15.66C24.114 15.66 23.322 15.606 22.734 15.498C22.158 15.402 21.72 15.228 21.42 14.976C21.132 14.724 20.94 14.37 20.844 13.914C20.748 13.458 20.694 12.894 20.682 12.222C20.67 11.79 20.664 11.292 20.664 10.728C20.676 10.164 20.688 9.576 20.7 8.964C20.712 8.352 20.718 7.752 20.718 7.164C20.73 6.564 20.736 6.018 20.736 5.526C20.736 5.022 20.73 4.602 20.718 4.266C20.718 3.918 20.7 3.696 20.664 3.6C20.592 3.396 20.43 3.234 20.178 3.114C19.938 2.994 19.626 2.88 19.242 2.772V2.556ZM27.702 4.266L27.882 4.086C28.194 4.146 28.464 4.218 28.692 4.302C28.92 4.386 29.154 4.512 29.394 4.68C29.79 4.956 30.09 5.268 30.294 5.616C30.51 5.952 30.618 6.228 30.618 6.444C30.618 6.672 30.504 6.834 30.276 6.93C30.048 7.014 29.766 7.14 29.43 7.308C28.854 7.56 28.182 7.836 27.414 8.136C26.658 8.424 25.818 8.724 24.894 9.036C23.97 9.336 22.968 9.636 21.888 9.936L21.672 9.27C22.464 8.934 23.25 8.574 24.03 8.19C24.81 7.794 25.524 7.392 26.172 6.984C26.832 6.576 27.36 6.186 27.756 5.814C27.9 5.682 27.99 5.562 28.026 5.454C28.074 5.346 28.074 5.196 28.026 5.004C27.99 4.86 27.936 4.722 27.864 4.59C27.792 4.446 27.738 4.338 27.702 4.266ZM43.056 3.114C43.248 3.294 43.446 3.516 43.65 3.78C43.854 4.044 44.022 4.326 44.154 4.626C44.298 4.914 44.37 5.214 44.37 5.526C44.37 5.982 44.322 6.492 44.226 7.056C44.13 7.62 43.98 8.178 43.776 8.73C43.608 9.186 43.398 9.672 43.146 10.188C42.906 10.692 42.618 11.19 42.282 11.682C41.958 12.162 41.61 12.6 41.238 12.996C40.866 13.392 40.47 13.71 40.05 13.95C39.63 14.178 39.198 14.292 38.754 14.292C38.394 14.292 38.046 14.166 37.71 13.914C37.386 13.662 37.092 13.32 36.828 12.888C36.576 12.456 36.372 11.97 36.216 11.43C36.06 10.89 35.982 10.326 35.982 9.738C35.982 9.174 36.072 8.58 36.252 7.956C36.444 7.32 36.738 6.696 37.134 6.084C37.53 5.46 38.028 4.896 38.628 4.392C39.36 3.756 40.182 3.276 41.094 2.952C42.006 2.628 43.008 2.466 44.1 2.466C45.144 2.466 46.092 2.634 46.944 2.97C47.808 3.306 48.552 3.774 49.176 4.374C49.812 4.974 50.304 5.676 50.652 6.48C51 7.284 51.174 8.154 51.174 9.09C51.174 9.942 51.018 10.752 50.706 11.52C50.394 12.276 49.902 12.954 49.23 13.554C48.558 14.154 47.688 14.64 46.62 15.012C45.564 15.384 44.274 15.6 42.75 15.66L42.678 15.318C44.202 14.958 45.42 14.454 46.332 13.806C47.256 13.158 47.922 12.39 48.33 11.502C48.738 10.614 48.942 9.654 48.942 8.622C48.942 7.518 48.726 6.564 48.294 5.76C47.862 4.944 47.262 4.314 46.494 3.87C45.738 3.414 44.874 3.186 43.902 3.186C43.086 3.186 42.252 3.378 41.4 3.762C40.56 4.134 39.828 4.65 39.204 5.31C38.688 5.886 38.286 6.486 37.998 7.11C37.722 7.734 37.584 8.418 37.584 9.162C37.584 9.63 37.644 10.074 37.764 10.494C37.896 10.914 38.064 11.256 38.268 11.52C38.472 11.784 38.7 11.916 38.952 11.916C39.204 11.916 39.48 11.784 39.78 11.52C40.092 11.244 40.398 10.908 40.698 10.512C41.01 10.116 41.286 9.708 41.526 9.288C41.778 8.868 41.976 8.502 42.12 8.19C42.36 7.674 42.552 7.122 42.696 6.534C42.852 5.946 42.93 5.418 42.93 4.95C42.93 4.626 42.858 4.314 42.714 4.014C42.582 3.714 42.426 3.462 42.246 3.258L43.056 3.114ZM66.564 2.466H68.796C68.388 4.122 67.584 5.484 66.384 6.552C65.196 7.608 63.6 8.412 61.596 8.964L61.488 8.73C63.012 8.022 64.182 7.14 64.998 6.084C65.826 5.016 66.348 3.81 66.564 2.466ZM63.864 2.934C64.164 3.774 64.578 4.506 65.106 5.13C65.634 5.742 66.318 6.252 67.158 6.66C67.998 7.056 69.006 7.35 70.182 7.542L70.146 7.74C69.786 7.872 69.51 8.082 69.318 8.37C69.138 8.646 69.018 9.012 68.958 9.468C67.89 9.12 67.014 8.658 66.33 8.082C65.646 7.494 65.1 6.798 64.692 5.994C64.284 5.178 63.942 4.266 63.666 3.258L63.864 2.934ZM55.512 3.042H60.192V3.564H55.512V3.042ZM53.136 4.896H61.236L61.992 3.924C61.992 3.924 62.07 3.99 62.226 4.122C62.382 4.242 62.568 4.398 62.784 4.59C63 4.77 63.198 4.944 63.378 5.112C63.342 5.304 63.192 5.4 62.928 5.4H53.28L53.136 4.896ZM56.466 3.042C56.418 3.306 56.358 3.648 56.286 4.068C56.214 4.476 56.13 4.92 56.034 5.4C55.95 5.88 55.86 6.354 55.764 6.822C55.68 7.278 55.59 7.692 55.494 8.064C55.29 8.172 55.062 8.232 54.81 8.244C54.57 8.256 54.24 8.208 53.82 8.1C53.964 7.5 54.108 6.846 54.252 6.138C54.408 5.418 54.552 4.722 54.684 4.05C54.816 3.366 54.918 2.796 54.99 2.34L56.772 3.042H56.466ZM57.348 3.042H58.806C58.758 3.414 58.698 3.852 58.626 4.356C58.554 4.848 58.476 5.334 58.392 5.814C58.308 6.294 58.23 6.708 58.158 7.056H56.718C56.802 6.696 56.88 6.276 56.952 5.796C57.036 5.304 57.114 4.812 57.186 4.32C57.258 3.828 57.312 3.402 57.348 3.042ZM63.738 0.0900002L66.132 0.864C66.096 0.972 66.018 1.062 65.898 1.134C65.79 1.194 65.64 1.218 65.448 1.206C65.064 1.902 64.62 2.52 64.116 3.06C63.612 3.588 63.072 4.02 62.496 4.356L62.262 4.194C62.574 3.69 62.862 3.078 63.126 2.358C63.39 1.626 63.594 0.87 63.738 0.0900002ZM53.496 12.132C54.132 12.144 54.948 12.15 55.944 12.15C56.952 12.15 58.092 12.15 59.364 12.15C60.636 12.138 61.998 12.12 63.45 12.096C64.902 12.072 66.402 12.054 67.95 12.042V12.384C66.546 12.588 64.788 12.798 62.676 13.014C60.576 13.218 58.008 13.458 54.972 13.734C54.828 13.938 54.66 14.052 54.468 14.076L53.496 12.132ZM60.408 12.708H62.496V16.542C62.496 16.578 62.34 16.65 62.028 16.758C61.728 16.878 61.314 16.938 60.786 16.938H60.408V12.708ZM64.746 10.818C65.646 10.806 66.39 10.884 66.978 11.052C67.578 11.22 68.04 11.436 68.364 11.7C68.688 11.964 68.898 12.24 68.994 12.528C69.09 12.804 69.096 13.062 69.012 13.302C68.928 13.53 68.772 13.692 68.544 13.788C68.316 13.884 68.04 13.878 67.716 13.77C67.524 13.422 67.254 13.074 66.906 12.726C66.558 12.378 66.18 12.054 65.772 11.754C65.364 11.442 64.974 11.19 64.602 10.998L64.746 10.818ZM55.728 9.576C56.544 9.456 57.222 9.438 57.762 9.522C58.314 9.606 58.746 9.75 59.058 9.954C59.37 10.158 59.58 10.386 59.688 10.638C59.796 10.89 59.814 11.13 59.742 11.358C59.682 11.574 59.55 11.742 59.346 11.862C59.142 11.97 58.878 11.994 58.554 11.934C58.35 11.67 58.074 11.4 57.726 11.124C57.39 10.848 57.036 10.59 56.664 10.35C56.292 10.098 55.938 9.894 55.602 9.738L55.728 9.576ZM57.906 13.536L59.868 14.958C59.808 15.042 59.73 15.096 59.634 15.12C59.538 15.132 59.388 15.114 59.184 15.066C58.74 15.306 58.206 15.534 57.582 15.75C56.958 15.966 56.292 16.152 55.584 16.308C54.888 16.476 54.192 16.608 53.496 16.704L53.352 16.47C53.916 16.23 54.486 15.942 55.062 15.606C55.65 15.27 56.19 14.922 56.682 14.562C57.186 14.202 57.594 13.86 57.906 13.536ZM63.504 8.838L65.574 10.008C65.514 10.092 65.43 10.152 65.322 10.188C65.226 10.212 65.082 10.206 64.89 10.17C64.434 10.458 63.882 10.77 63.234 11.106C62.586 11.442 61.896 11.772 61.164 12.096C60.444 12.408 59.742 12.678 59.058 12.906L58.878 12.69C59.43 12.33 59.994 11.922 60.57 11.466C61.158 10.998 61.71 10.53 62.226 10.062C62.742 9.594 63.168 9.186 63.504 8.838ZM63.342 13.95C64.422 13.866 65.316 13.896 66.024 14.04C66.732 14.172 67.284 14.364 67.68 14.616C68.076 14.856 68.34 15.12 68.472 15.408C68.604 15.696 68.628 15.954 68.544 16.182C68.472 16.422 68.328 16.596 68.112 16.704C67.896 16.824 67.626 16.836 67.302 16.74C67.098 16.5 66.798 16.224 66.402 15.912C66.018 15.612 65.562 15.312 65.034 15.012C64.506 14.7 63.918 14.424 63.27 14.184L63.342 13.95ZM55.242 0L57.618 0.774C57.582 0.87 57.51 0.954001 57.402 1.026C57.294 1.098 57.138 1.134 56.934 1.134C56.442 1.782 55.89 2.34 55.278 2.808C54.678 3.264 54.084 3.624 53.496 3.888L53.28 3.69C53.652 3.27 54.012 2.736 54.36 2.088C54.72 1.44 55.014 0.744 55.242 0ZM55.206 1.656H59.958L60.894 0.468C60.894 0.468 60.99 0.546 61.182 0.702C61.374 0.846 61.602 1.032 61.866 1.26C62.142 1.488 62.382 1.698 62.586 1.89C62.538 2.082 62.376 2.178 62.1 2.178H55.206V1.656ZM54.972 6.732H60.984L61.704 5.742C61.704 5.742 61.782 5.808 61.938 5.94C62.094 6.072 62.274 6.228 62.478 6.408C62.694 6.588 62.886 6.768 63.054 6.948C63.018 7.14 62.862 7.236 62.586 7.236H54.972V6.732ZM63.684 2.466H67.266L68.256 1.188C68.256 1.188 68.358 1.272 68.562 1.44C68.766 1.596 69.012 1.794 69.3 2.034C69.588 2.262 69.846 2.478 70.074 2.682C70.026 2.874 69.858 2.97 69.57 2.97H63.684V2.466ZM59.832 8.208L61.992 9.468C61.908 9.6 61.722 9.63 61.434 9.558C61.206 9.666 60.924 9.792 60.588 9.936C60.252 10.08 59.898 10.224 59.526 10.368C59.166 10.5 58.83 10.62 58.518 10.728L58.338 10.512C58.518 10.296 58.698 10.05 58.878 9.774C59.07 9.486 59.25 9.204 59.418 8.928C59.586 8.652 59.724 8.412 59.832 8.208ZM59.742 3.042H59.562L60.39 2.214L61.956 3.492C61.836 3.648 61.602 3.75 61.254 3.798C61.206 4.854 61.134 5.712 61.038 6.372C60.942 7.02 60.816 7.53 60.66 7.902C60.504 8.262 60.312 8.532 60.084 8.712C59.844 8.892 59.574 9.006 59.274 9.054C58.986 9.09 58.656 9.108 58.284 9.108C58.284 8.76 58.206 8.502 58.05 8.334C57.954 8.226 57.822 8.142 57.654 8.082C57.486 8.01 57.288 7.95 57.06 7.902L57.078 7.632C57.282 7.644 57.528 7.662 57.816 7.686C58.104 7.698 58.32 7.704 58.464 7.704C58.692 7.704 58.86 7.656 58.968 7.56C59.148 7.416 59.304 6.99 59.436 6.282C59.568 5.562 59.67 4.482 59.742 3.042ZM78.282 2.52H85.266L86.292 1.206C86.292 1.206 86.4 1.296 86.616 1.476C86.832 1.644 87.084 1.848 87.372 2.088C87.672 2.316 87.936 2.532 88.164 2.736C88.116 2.928 87.954 3.024 87.678 3.024H78.426L78.282 2.52ZM81.72 7.236H86.13V7.74H81.72V7.236ZM81.72 9.666H86.13V10.17H81.72V9.666ZM81.72 12.15H86.13V12.672H81.72V12.15ZM78.228 4.536L80.622 4.77C80.61 4.866 80.562 4.956 80.478 5.04C80.394 5.112 80.256 5.16 80.064 5.184V16.344C80.064 16.404 79.986 16.476 79.83 16.56C79.674 16.656 79.482 16.74 79.254 16.812C79.026 16.884 78.804 16.92 78.588 16.92H78.228V4.536ZM78.804 15.066H85.32L86.382 13.662C86.382 13.662 86.448 13.716 86.58 13.824C86.724 13.932 86.898 14.07 87.102 14.238C87.306 14.406 87.522 14.586 87.75 14.778C87.978 14.958 88.188 15.132 88.38 15.3C88.332 15.492 88.164 15.588 87.876 15.588H78.804V15.066ZM81.036 4.878V4.086L82.962 4.878H86.418V5.382H82.872V13.302C82.872 13.362 82.8 13.446 82.656 13.554C82.512 13.65 82.32 13.74 82.08 13.824C81.852 13.896 81.6 13.932 81.324 13.932H81.036V4.878ZM85.266 4.878H85.086L86.004 3.906L87.858 5.328C87.81 5.388 87.726 5.454 87.606 5.526C87.498 5.586 87.366 5.628 87.21 5.652V13.05C87.21 13.086 87.114 13.146 86.922 13.23C86.742 13.314 86.526 13.392 86.274 13.464C86.034 13.536 85.8 13.572 85.572 13.572H85.266V4.878ZM82.494 0.0540009L85.212 0.324001C85.2 0.480001 85.134 0.606 85.014 0.702C84.906 0.786 84.75 0.84 84.546 0.864C84.474 1.284 84.384 1.758 84.276 2.286C84.168 2.802 84.06 3.312 83.952 3.816C83.844 4.32 83.748 4.758 83.664 5.13H82.188C82.224 4.722 82.26 4.224 82.296 3.636C82.332 3.048 82.368 2.442 82.404 1.818C82.452 1.182 82.482 0.594001 82.494 0.0540009ZM71.37 1.566H76.05L77.148 0.216C77.148 0.216 77.214 0.264001 77.346 0.360001C77.478 0.456001 77.646 0.588001 77.85 0.756001C78.066 0.912001 78.288 1.08 78.516 1.26C78.756 1.44 78.966 1.614 79.146 1.782C79.11 1.974 78.948 2.07 78.66 2.07H71.514L71.37 1.566ZM73.638 1.566H75.69V1.836C75.39 3.564 74.88 5.16 74.16 6.624C73.44 8.088 72.498 9.396 71.334 10.548L71.1 10.35C71.568 9.546 71.964 8.664 72.288 7.704C72.624 6.732 72.9 5.724 73.116 4.68C73.344 3.624 73.518 2.586 73.638 1.566ZM75.978 5.004H75.78L76.752 3.96L78.534 5.508C78.474 5.604 78.39 5.67 78.282 5.706C78.186 5.742 78.036 5.778 77.832 5.814C77.712 6.882 77.526 7.944 77.274 9C77.022 10.044 76.662 11.046 76.194 12.006C75.738 12.966 75.126 13.86 74.358 14.688C73.59 15.504 72.618 16.218 71.442 16.83L71.262 16.614C72.114 15.93 72.822 15.15 73.386 14.274C73.962 13.398 74.424 12.456 74.772 11.448C75.132 10.44 75.402 9.39 75.582 8.298C75.774 7.206 75.906 6.108 75.978 5.004ZM73.71 5.004H77.346V5.508H73.584L73.71 5.004ZM72.702 7.47C73.482 7.554 74.094 7.71 74.538 7.938C74.982 8.166 75.294 8.424 75.474 8.712C75.666 8.988 75.744 9.258 75.708 9.522C75.684 9.786 75.582 10.008 75.402 10.188C75.222 10.356 75 10.452 74.736 10.476C74.472 10.488 74.19 10.386 73.89 10.17C73.866 9.858 73.788 9.546 73.656 9.234C73.524 8.91 73.356 8.604 73.152 8.316C72.96 8.028 72.756 7.782 72.54 7.578L72.702 7.47Z" fill="var(--fill-0, #001F66)"/>
</svg>
