<svg preserveAspectRatio="none" width="100%" height="100%" overflow="visible" style="display: block;" viewBox="0 0 54.0041 54.004" fill="none" xmlns="http://www.w3.org/2000/svg">
<path id="Vector" d="M1.64102 24.3353L2.05794 21.7026L2.75044 19.1198L3.70487 16.6326L4.91556 14.2562L6.37041 12.0157L8.0551 9.93494L9.93493 8.05512L12.0156 6.37042L14.2563 4.91553L16.6326 3.70486L19.1198 2.75047L21.7026 2.05796L24.3352 1.64102L27.0024 1.50204L29.6688 1.64102L32.3014 2.05796L34.8843 2.75047L37.3715 3.70486L39.7478 4.91553L41.9884 6.37042L44.0691 8.05512L45.9489 9.93494L47.6336 12.0157L49.0886 14.2562L50.2992 16.6326L51.2536 19.1198L51.9461 21.7026L52.363 24.3353L52.502 27.0016L52.363 29.6688L51.9461 32.3014L51.2536 34.8842L50.2992 37.3715L49.0886 39.7478L47.6336 41.9884L45.9489 44.0691L44.0691 45.9489L41.9884 47.6336L39.7478 49.0885L37.3715 50.2992L34.8843 51.2536L32.3014 51.9461L29.6688 52.363L27.0024 52.502L24.3352 52.363L21.7026 51.9461L19.1198 51.2536L16.6326 50.2992L14.2563 49.0885L12.0156 47.6336L9.93493 45.9489L8.0551 44.0691L6.37041 41.9884L4.91556 39.7478L3.70487 37.3715L2.75044 34.8842L2.05794 32.3014L1.64102 29.6688L1.50204 27.0016L1.64102 24.3353Z" fill="url(#paint0_linear_121_1058)" stroke="var(--stroke-0, #D1AE3B)" stroke-width="3"/>
<defs>
<linearGradient id="paint0_linear_121_1058" x1="0.266464" y1="27.0016" x2="53.7384" y2="27.0016" gradientUnits="userSpaceOnUse">
<stop stop-color="#FFFDDE"/>
<stop offset="0.501795" stop-color="white"/>
<stop offset="1" stop-color="#FFFDF0"/>
</linearGradient>
</defs>
</svg>
