<svg preserveAspectRatio="none" width="100%" height="100%" overflow="visible" style="display: block;" viewBox="0 0 35.0796 24.6927" fill="none" xmlns="http://www.w3.org/2000/svg">
<path id="Vector" d="M6.08173 2.34733H14.9494L15.6607 1.51747C15.6607 1.51747 15.7359 1.56887 15.886 1.67158C16.0361 1.7743 16.2101 1.90471 16.4076 2.06281C16.6131 2.21294 16.8028 2.35919 16.9767 2.50145C16.9451 2.62 16.8304 2.67928 16.6329 2.67928H6.18842L6.08173 2.34733ZM6.17657 7.24354H14.7597L15.4948 6.34254C15.4948 6.34254 15.5382 6.37811 15.6252 6.44924C15.72 6.51249 15.8386 6.59938 15.9808 6.71005C16.1231 6.81277 16.2693 6.92743 16.4195 7.05385C16.5696 7.17241 16.7119 7.28698 16.8463 7.39766C16.8304 7.46091 16.791 7.50833 16.7277 7.53992C16.6724 7.5715 16.6013 7.58734 16.5143 7.58734H6.27141L6.17657 7.24354ZM6.73376 4.36272H14.3448L15.068 3.49729C15.068 3.49729 15.1431 3.55259 15.2932 3.66326C15.4434 3.77394 15.6173 3.90824 15.8149 4.06634C16.0204 4.21648 16.2061 4.36272 16.3721 4.50498C16.3483 4.63141 16.2416 4.69467 16.052 4.69467H6.82861L6.73376 4.36272ZM7.32653 5.76164H13.9536L14.6293 4.94363C14.6293 4.94363 14.7005 4.99503 14.8427 5.09774C14.985 5.20046 15.1549 5.32697 15.3525 5.47711C15.5501 5.62725 15.7279 5.76951 15.886 5.9039C15.8544 6.03033 15.7477 6.09358 15.5659 6.09358H7.42137L7.32653 5.76164ZM7.43322 0.331946C7.92327 0.410953 8.30653 0.533485 8.58318 0.699458C8.8677 0.857556 9.06137 1.0314 9.16408 1.22109C9.27476 1.41077 9.3182 1.59258 9.29449 1.76643C9.27078 1.9324 9.19965 2.07466 9.0811 2.19322C8.97042 2.30389 8.82816 2.36317 8.65431 2.37104C8.48834 2.37104 8.31051 2.29991 8.12082 2.15765C8.12082 1.94426 8.08128 1.73086 8.00227 1.51747C7.92327 1.30407 7.82444 1.09855 7.70589 0.900996C7.58734 0.703437 7.46091 0.537465 7.32653 0.403077L7.43322 0.331946ZM8.95069 2.52516C9.4249 2.60417 9.79241 2.72272 10.0532 2.88082C10.314 3.03892 10.4919 3.20878 10.5867 3.39059C10.6816 3.56444 10.7131 3.73439 10.6816 3.90037C10.65 4.05846 10.5709 4.18887 10.4444 4.29159C10.3259 4.3943 10.1797 4.44571 10.0058 4.44571C9.83983 4.43783 9.66598 4.35874 9.48418 4.2086C9.4763 4.01892 9.44073 3.82526 9.37748 3.6277C9.31422 3.43014 9.23522 3.24045 9.14037 3.05865C9.05341 2.87684 8.95467 2.71882 8.84399 2.58444L8.95069 2.52516ZM14.25 0.24896L15.9216 0.770589C15.8978 0.84172 15.8464 0.897016 15.7674 0.936561C15.6963 0.968147 15.5936 0.980002 15.4592 0.972127C15.2379 1.20136 14.9573 1.45421 14.6175 1.73086C14.2855 1.99955 13.9457 2.24064 13.5979 2.45403H13.4201C13.5228 2.24851 13.6256 2.01937 13.7283 1.76643C13.8311 1.50561 13.9259 1.2448 14.0129 0.983982C14.1077 0.715292 14.1867 0.470229 14.25 0.24896ZM12.8155 2.50145L14.5226 2.9638C14.4752 3.1219 14.3251 3.19303 14.0721 3.1772C13.8587 3.39847 13.5821 3.63557 13.2423 3.88851C12.9103 4.13349 12.5824 4.35086 12.2583 4.54055H12.0805C12.2227 4.25602 12.361 3.9201 12.4954 3.53285C12.6298 3.14561 12.7365 2.80181 12.8155 2.50145ZM9.86354 0L11.4521 0.130407C11.4443 0.209413 11.4126 0.27665 11.3573 0.331946C11.302 0.379367 11.2111 0.410952 11.0846 0.426788V2.45403H9.86354V0ZM11.9026 0L13.5031 0.130407C13.4952 0.209413 13.4635 0.27665 13.4083 0.331946C13.3608 0.379367 13.27 0.414932 13.1356 0.438643V2.45403H11.9026V0ZM10.0295 7.25539H11.6892V7.44508C11.1281 8.20381 10.3615 8.8677 9.38933 9.43675C8.4172 9.99793 7.33051 10.4484 6.12915 10.7882L6.04616 10.6341C6.61521 10.3575 7.1487 10.0374 7.64662 9.67386C8.15241 9.31033 8.60689 8.9191 9.00997 8.50019C9.42092 8.08128 9.76082 7.66635 10.0295 7.25539ZM12.2583 7.25539C12.5033 7.53204 12.8076 7.79286 13.1711 8.03784C13.5426 8.28282 13.9457 8.50807 14.3804 8.71358C14.815 8.91114 15.2616 9.0811 15.72 9.22336C16.1864 9.35775 16.6407 9.46834 17.0834 9.55531L17.0715 9.68571C16.8265 9.74101 16.6131 9.86752 16.4313 10.0651C16.2575 10.2626 16.135 10.5156 16.0638 10.8238C15.4869 10.5946 14.9494 10.314 14.4515 9.98209C13.9615 9.64227 13.5189 9.25105 13.1237 8.80843C12.7285 8.3658 12.3927 7.87584 12.116 7.33838L12.2583 7.25539ZM10.7527 4.52869H12.1397V10.8001C12.1397 10.8396 12.0409 10.9028 11.8434 10.9898C11.6458 11.0846 11.3652 11.132 11.0016 11.132H10.7527V4.52869ZM22.6435 0.794299H23.995V4.7658H22.6435V0.794299ZM26.0341 0.735024H25.9155L26.5557 0.0237103L27.9072 1.04326C27.8756 1.09068 27.8163 1.14208 27.7294 1.19738C27.6504 1.2448 27.5515 1.28036 27.433 1.30407V5.15702C27.433 5.18861 27.3658 5.23213 27.2314 5.28743C27.097 5.34272 26.939 5.39412 26.7572 5.44155C26.5834 5.48109 26.4213 5.50082 26.2712 5.50082H26.0341V0.735024ZM20.1065 2.65557H26.8639V2.99937H20.1065V2.65557ZM20.1065 4.6591H26.8639V5.0029H20.1065V4.6591ZM19.3359 0.735024V0.154117L20.8059 0.735024H26.7098V1.06697H20.7111V5.19259C20.7111 5.24001 20.6518 5.29928 20.5332 5.37041C20.4226 5.44154 20.2764 5.5048 20.0946 5.5601C19.9207 5.61539 19.7389 5.64308 19.5493 5.64308H19.3359V0.735024ZM21.6713 4.70652H23.2955V4.8962C22.7818 5.67077 22.0586 6.30698 21.126 6.80489C20.1934 7.30281 19.0988 7.69006 17.8421 7.96671L17.7591 7.80073C18.668 7.46091 19.4544 7.02616 20.1183 6.49666C20.7901 5.95919 21.3078 5.36254 21.6713 4.70652ZM24.2913 4.69467C24.5837 5.07403 24.9789 5.39412 25.4769 5.65494C25.9827 5.91575 26.536 6.12517 27.1366 6.28327C27.7372 6.44136 28.33 6.55594 28.9149 6.62707L28.903 6.75747C28.6501 6.82861 28.4367 6.97485 28.2628 7.19612C28.0969 7.40951 27.9823 7.68616 27.919 8.02598C27.35 7.81259 26.8244 7.55965 26.3423 7.26725C25.8602 6.96689 25.4334 6.61521 25.0619 6.21213C24.6904 5.80118 24.3902 5.32299 24.1609 4.77765L24.2913 4.69467ZM24.3388 6.27141L25.9866 6.41367C25.9788 6.46897 25.9551 6.51639 25.9155 6.55594C25.876 6.59548 25.8088 6.62309 25.714 6.63892V10.7527C25.714 10.7843 25.6547 10.8278 25.5361 10.8831C25.4176 10.9463 25.2713 11.0016 25.0975 11.0491C24.9315 11.0965 24.7695 11.1202 24.6114 11.1202H24.3388V6.27141ZM21.0074 6.29512L22.762 6.46109C22.7541 6.5401 22.7225 6.60734 22.6672 6.66263C22.6119 6.71793 22.5131 6.75349 22.3708 6.76933V7.74146C22.3629 8.08128 22.3036 8.42118 22.193 8.76101C22.0903 9.09295 21.8887 9.41304 21.5884 9.72128C21.296 10.0216 20.877 10.2943 20.3317 10.5393C19.7864 10.7843 19.079 10.9858 18.2096 11.1439L18.1266 11.0135C18.7352 10.808 19.2292 10.5749 19.6085 10.314C19.9958 10.0611 20.2883 9.79241 20.4858 9.50788C20.6913 9.22336 20.8296 8.93096 20.9008 8.6306C20.9719 8.32236 21.0074 8.01811 21.0074 7.71775V6.29512ZM2.53702 15.6235H8.55947V15.9673H2.53702V15.6235ZM2.16951 19.5831H4.82507V19.9269H2.16951V19.5831ZM2.16951 20.982H4.82507V21.3258H2.16951V20.982ZM2.53702 16.975H8.55947V17.3069H2.53702V16.975ZM7.88372 14.3194H7.76517L8.40535 13.62L9.75684 14.6276C9.72526 14.6751 9.66988 14.7265 9.59087 14.7818C9.51187 14.8292 9.40906 14.8647 9.28264 14.8885V17.4255C9.28264 17.4492 9.21549 17.4887 9.0811 17.544C8.94671 17.5915 8.7887 17.6349 8.60689 17.6744C8.43304 17.714 8.27096 17.7337 8.12082 17.7337H7.88372V14.3194ZM1.84941 14.3194V13.7385L3.29575 14.3194H8.48834V14.6514H3.21276V17.5559C3.21276 17.5954 3.15349 17.6507 3.03494 17.7219C2.91638 17.7851 2.76625 17.8444 2.58444 17.8997C2.41059 17.955 2.22878 17.9827 2.0391 17.9827H1.84941V14.3194ZM0.0237103 18.2198H9.03368L9.79241 17.2002C9.79241 17.2002 9.83983 17.2398 9.93467 17.3188C10.0295 17.3899 10.1481 17.4848 10.2903 17.6033C10.4326 17.7219 10.5788 17.8483 10.729 17.9827C10.8871 18.1171 11.0293 18.2435 11.1558 18.362C11.1242 18.4885 11.0135 18.5517 10.8238 18.5517H0.118552L0.0237103 18.2198ZM5.77349 19.5713H9.82798V19.9032H5.88019L5.77349 19.5713ZM4.24417 18.2198H5.57195V24.3726C5.57195 24.4042 5.47711 24.4635 5.28743 24.5505C5.09774 24.6453 4.82905 24.6927 4.48127 24.6927H4.24417V18.2198ZM1.45819 18.2198H2.77412V22.9737L1.45819 23.2227V18.2198ZM0 22.784C0.27665 22.7682 0.652037 22.7366 1.12625 22.6892C1.60833 22.6418 2.15367 22.5865 2.76227 22.5232C3.37086 22.4521 3.99123 22.381 4.62353 22.3098L4.64725 22.4639C4.25204 22.6458 3.75811 22.863 3.16534 23.116C2.57258 23.361 1.85339 23.6416 1.00769 23.9577C0.928687 24.1158 0.81801 24.2106 0.675748 24.2422L0 22.784ZM8.74915 19.5713H8.61874L9.37748 18.8125L10.6934 19.9032C10.6539 19.9665 10.6025 20.0099 10.5393 20.0336C10.476 20.0573 10.3773 20.0771 10.2429 20.0929C9.9268 21.0255 9.41304 21.8791 8.70173 22.6536C7.99829 23.4282 7.04988 24.0367 5.85648 24.4793L5.77349 24.3371C6.32671 23.9656 6.80091 23.5269 7.19612 23.0211C7.59919 22.5153 7.92716 21.966 8.1801 21.3733C8.44092 20.7805 8.6306 20.1799 8.74915 19.5713ZM6.5915 19.6068C6.76535 20.1522 7.00245 20.6224 7.30282 21.0176C7.61105 21.4128 7.97069 21.7487 8.38164 22.0253C8.80055 22.294 9.25105 22.5192 9.73313 22.701C10.2232 22.8749 10.7408 23.0172 11.2862 23.1278L11.2743 23.2582C10.9898 23.3215 10.7487 23.4598 10.5511 23.6732C10.3615 23.8866 10.2232 24.1632 10.1362 24.503C9.47232 24.2106 8.89539 23.8668 8.40535 23.4716C7.92327 23.0686 7.51621 22.5628 7.18426 21.9542C6.86019 21.3456 6.61123 20.5908 6.43738 19.6898L6.5915 19.6068ZM11.9382 18.3146H20.7941L21.5528 17.3306C21.5528 17.3306 21.5962 17.3702 21.6832 17.4492C21.778 17.5203 21.8966 17.6152 22.0389 17.7337C22.189 17.8444 22.3392 17.9668 22.4894 18.1012C22.6474 18.2277 22.7936 18.3462 22.928 18.4569C22.8964 18.5833 22.7818 18.6466 22.5842 18.6466H12.0449L11.9382 18.3146ZM18.9446 18.3146H20.4858V18.5043C20.3198 19.2867 20.1025 19.9822 19.8338 20.5908C19.573 21.1994 19.2331 21.7329 18.8142 22.1913C18.4033 22.6418 17.8855 23.033 17.2612 23.3649C16.6447 23.689 15.8978 23.9537 15.0206 24.1592C14.1433 24.3726 13.104 24.5346 11.9026 24.6453L11.8552 24.4675C13.0012 24.2225 13.9892 23.934 14.819 23.602C15.6489 23.2622 16.3444 22.8552 16.9055 22.381C17.4667 21.8989 17.9093 21.3258 18.2333 20.662C18.5653 19.9981 18.8024 19.2156 18.9446 18.3146ZM14.9139 21.0413C16.1705 21.1203 17.2335 21.2547 18.1029 21.4444C18.9802 21.6341 19.6994 21.8553 20.2606 22.1083C20.8296 22.3612 21.2604 22.622 21.5528 22.8907C21.8531 23.1594 22.0428 23.4124 22.1218 23.6495C22.2088 23.8944 22.2127 24.1039 22.1337 24.2778C22.0626 24.4516 21.9322 24.5663 21.7425 24.6216C21.5607 24.6848 21.3473 24.6611 21.1023 24.5505C20.7862 24.2264 20.3238 23.8589 19.7152 23.4479C19.1146 23.037 18.4033 22.6339 17.5813 22.2387C16.7673 21.8356 15.8702 21.4839 14.8902 21.1836L14.9139 21.0413ZM16.0994 16.0503L17.9251 16.3941C17.9093 16.4731 17.8658 16.5403 17.7947 16.5956C17.7236 16.6509 17.601 16.6786 17.4272 16.6786C17.3402 16.9157 17.2256 17.2121 17.0834 17.5677C16.949 17.9234 16.7949 18.3106 16.621 18.7295C16.455 19.1405 16.2772 19.5594 16.0875 19.9862C15.9057 20.4051 15.7279 20.8082 15.554 21.1954C15.3802 21.5748 15.2221 21.9067 15.0798 22.1913C14.9139 22.2624 14.6926 22.294 14.4159 22.2861C14.1473 22.2782 13.8706 22.215 13.5861 22.0964C13.7442 21.804 13.918 21.4523 14.1077 21.0413C14.3053 20.6304 14.5029 20.1917 14.7005 19.7254C14.906 19.2591 15.0996 18.7967 15.2814 18.3383C15.4711 17.872 15.637 17.4452 15.7793 17.058C15.9216 16.6628 16.0283 16.3269 16.0994 16.0503ZM13.4201 15.4101H21.7188V15.7539H13.4201V15.4101ZM16.6803 13.537L18.5416 13.6792C18.5337 13.7582 18.4981 13.8294 18.4349 13.8926C18.3796 13.9479 18.2729 13.9914 18.1148 14.023V15.5405H16.6803V13.537ZM13.3608 14.5328H13.515C13.7283 15.0149 13.8429 15.4496 13.8588 15.8369C13.8746 16.2241 13.8232 16.5522 13.7046 16.8209C13.594 17.0817 13.4438 17.2792 13.2541 17.4136C13.1277 17.5085 12.9815 17.5599 12.8155 17.5677C12.6574 17.5756 12.5112 17.544 12.3768 17.4729C12.2425 17.3939 12.1437 17.2792 12.0805 17.1291C12.0015 16.9157 12.0133 16.722 12.116 16.5482C12.2188 16.3743 12.365 16.24 12.5547 16.1451C12.6891 16.0581 12.8195 15.9357 12.9459 15.7776C13.0803 15.6116 13.187 15.4219 13.266 15.2086C13.353 14.9952 13.3845 14.7699 13.3608 14.5328ZM21.0904 15.4101H20.9482L21.6832 14.6869L22.9398 15.8843C22.8608 15.9713 22.7067 16.0187 22.4775 16.0266C22.3194 16.1688 22.1297 16.3269 21.9084 16.5008C21.6951 16.6746 21.4698 16.8406 21.2327 16.9987C20.9956 17.1568 20.7703 17.2911 20.5569 17.4018L20.4503 17.3188C20.5293 17.1449 20.6122 16.9434 20.6992 16.7142C20.7862 16.4771 20.8652 16.2439 20.9363 16.0147C21.0074 15.7776 21.0588 15.5761 21.0904 15.4101ZM27.9546 14.3431H32.4477V14.6751H28.0613L27.9546 14.3431ZM31.6771 17.6033H33.4673V17.9352H31.5942L31.6771 17.6033ZM29.0097 14.3431H30.3494C30.3415 15.1414 30.3256 15.9238 30.3019 16.6905C30.2861 17.4492 30.2308 18.1921 30.136 18.9192C30.049 19.6384 29.9028 20.33 29.6973 20.9939C29.4998 21.6578 29.2191 22.2861 28.8556 22.8789C28.4999 23.4716 28.0376 24.0249 27.4685 24.5386L27.3026 24.3726C27.7609 23.6534 28.1087 22.8986 28.3458 22.1083C28.5908 21.318 28.7568 20.5 28.8437 19.6543C28.9386 18.8007 28.99 17.9313 28.9979 17.0461C29.0057 16.153 29.0097 15.252 29.0097 14.3431ZM31.8431 14.3431H31.7246L32.2699 13.6792L33.574 14.6869C33.5344 14.7343 33.4713 14.7778 33.3843 14.8173C33.3053 14.8569 33.2025 14.8845 33.0761 14.9003C33.0208 15.177 32.9496 15.5168 32.8627 15.9199C32.7757 16.3229 32.6848 16.7339 32.59 17.1528C32.4952 17.5717 32.4043 17.9511 32.3173 18.2909C32.0091 18.449 31.5823 18.4687 31.037 18.3502C31.1476 17.9155 31.2504 17.4532 31.3452 16.9631C31.4479 16.4731 31.5428 15.9989 31.6297 15.5405C31.7246 15.0742 31.7957 14.6751 31.8431 14.3431ZM33.0405 17.6033H32.8982L33.5977 16.892L34.8069 17.959C34.7595 18.0222 34.7002 18.0657 34.6291 18.0894C34.5658 18.1131 34.4631 18.1328 34.3209 18.1486C34.1549 18.8521 33.9336 19.5317 33.657 20.1877C33.3803 20.8358 33.0247 21.4404 32.59 22.0016C32.1632 22.5628 31.6337 23.0725 31.0014 23.5309C30.3691 23.9814 29.6104 24.3608 28.7252 24.669L28.6304 24.5268C29.5313 24.0288 30.2782 23.4242 30.871 22.7129C31.4716 21.9937 31.9458 21.2033 32.2936 20.3419C32.6414 19.4725 32.8904 18.5596 33.0405 17.6033ZM30.2071 15.4694C30.2941 16.6312 30.4561 17.6467 30.6932 18.5162C30.9381 19.3776 31.2622 20.1206 31.6653 20.7449C32.0762 21.3693 32.5663 21.9028 33.1353 22.3454C33.7044 22.788 34.3524 23.1674 35.0796 23.4835L35.044 23.6139C34.7358 23.6376 34.4591 23.7403 34.2142 23.9221C33.9692 24.1118 33.7755 24.3687 33.6333 24.6927C33.0089 24.2738 32.4754 23.8036 32.0328 23.282C31.5902 22.7525 31.2266 22.136 30.9421 21.4325C30.6655 20.7291 30.4521 19.8953 30.3019 18.9311C30.1518 17.9668 30.053 16.8367 30.0056 15.5405L30.2071 15.4694ZM25.5006 19.0141L26.7691 18.9074V24.3252C26.7691 24.3568 26.6742 24.424 26.4846 24.5268C26.3027 24.6295 26.0499 24.6809 25.7258 24.6809H25.5006V19.0141ZM25.3465 13.537L27.0773 14.106C27.0536 14.1771 27.0022 14.2364 26.9232 14.2838C26.8442 14.3313 26.7414 14.355 26.615 14.355C26.3463 14.7106 26.0538 15.0623 25.7377 15.4101C25.4216 15.7499 25.1133 16.0424 24.813 16.2874L24.647 16.1925C24.7577 15.8685 24.8762 15.4615 25.0027 14.9714C25.1291 14.4814 25.2437 14.0033 25.3465 13.537ZM26.698 14.9952L28.3458 15.5879C28.3142 15.659 28.2589 15.7143 28.1799 15.7539C28.1087 15.7855 28.006 15.7973 27.8716 15.7895C27.6504 16.1135 27.3777 16.481 27.0536 16.892C26.7295 17.3029 26.3857 17.7179 26.0222 18.1368C25.6587 18.5477 25.299 18.9311 24.9434 19.2867H24.7537C24.9829 18.8758 25.2161 18.4173 25.4532 17.9115C25.6903 17.4057 25.9155 16.8999 26.1289 16.3941C26.3502 15.8803 26.5399 15.4141 26.698 14.9952ZM23.6867 18.7533C23.9238 18.7454 24.2439 18.7335 24.647 18.7177C25.058 18.7019 25.5203 18.6821 26.0341 18.6584C26.5557 18.6268 27.0892 18.5991 27.6345 18.5754V18.7414C27.2867 18.8678 26.8521 19.0181 26.3304 19.1919C25.8167 19.3658 25.2002 19.5594 24.481 19.7728C24.4494 19.8518 24.402 19.9151 24.3388 19.9625C24.2755 20.002 24.2162 20.0296 24.1609 20.0455L23.6867 18.7533ZM23.7816 15.5524C24.2479 15.6393 24.6114 15.7618 24.8722 15.9199C25.1409 16.07 25.3306 16.236 25.4413 16.4178C25.552 16.5916 25.5994 16.7616 25.5836 16.9276C25.5757 17.0935 25.5203 17.2318 25.4176 17.3425C25.3149 17.4452 25.1845 17.5045 25.0264 17.5203C24.8762 17.5282 24.7181 17.4689 24.5522 17.3425C24.5047 17.0421 24.3902 16.7339 24.2084 16.4178C24.0345 16.1017 23.8527 15.8369 23.663 15.6235L23.7816 15.5524ZM26.8402 17.6507C27.2828 17.8325 27.6227 18.0301 27.8598 18.2435C28.1047 18.449 28.2668 18.6584 28.3458 18.8718C28.4328 19.0773 28.4565 19.267 28.417 19.4409C28.3774 19.6068 28.2984 19.7412 28.1799 19.8439C28.0692 19.9467 27.9309 19.9941 27.7649 19.9862C27.6068 19.9704 27.4448 19.8874 27.2789 19.7372C27.2789 19.508 27.2512 19.2749 27.1959 19.0378C27.1406 18.7928 27.0694 18.5557 26.9825 18.3265C26.8955 18.0972 26.8047 17.8918 26.7098 17.71L26.8402 17.6507ZM26.9943 20.2589C27.3974 20.4486 27.7017 20.6501 27.9072 20.8635C28.1206 21.0769 28.2628 21.2863 28.334 21.4918C28.4051 21.6973 28.417 21.883 28.3695 22.049C28.3221 22.2071 28.2431 22.3335 28.1324 22.4284C28.0218 22.5153 27.8875 22.5548 27.7294 22.5469C27.5792 22.5311 27.433 22.4481 27.2907 22.298C27.2986 22.0767 27.2789 21.8475 27.2314 21.6104C27.1919 21.3733 27.1366 21.144 27.0655 20.9228C27.0022 20.6935 26.9351 20.4881 26.8639 20.3063L26.9943 20.2589ZM24.2439 20.4248L25.7495 20.7331C25.7337 20.8121 25.6903 20.8793 25.6191 20.9346C25.5559 20.982 25.461 21.0058 25.3346 21.0058C25.1686 21.5669 24.9592 22.0886 24.7063 22.5706C24.4613 23.0449 24.1728 23.4439 23.8408 23.768L23.663 23.6732C23.8211 23.2385 23.9515 22.7326 24.0542 22.1557C24.157 21.5788 24.2202 21.0018 24.2439 20.4248Z" fill="var(--fill-0, #82631A)"/>
</svg>
