<svg preserveAspectRatio="none" width="100%" height="100%" overflow="visible" style="display: block;" viewBox="0 0 167.23 72.558" fill="none" xmlns="http://www.w3.org/2000/svg">
<path id="Vector" d="M5.68399 1.19H12.95V2.324H5.68399V1.19ZM5.39 5.376H13.188V6.538H5.39V5.376ZM8.79199 0.0140038H10.108C10.061 0.751304 9.97699 1.4093 9.85599 1.988C9.73499 2.5573 9.52899 3.0613 9.23999 3.5C8.95999 3.9387 8.56299 4.312 8.04999 4.62C7.53699 4.9187 6.85999 5.1707 6.01999 5.376C5.96399 5.2267 5.866 5.054 5.726 4.858C5.595 4.6527 5.46899 4.4893 5.34799 4.368C6.08499 4.2093 6.673 4.0087 7.112 3.766C7.551 3.5233 7.887 3.2293 8.12 2.884C8.353 2.5387 8.51199 2.128 8.59599 1.652C8.68899 1.176 8.75499 0.630004 8.79199 0.0140038ZM8.38599 3.43L9.17 2.548C9.599 2.6973 10.047 2.8793 10.514 3.094C10.981 3.3087 11.424 3.528 11.844 3.752C12.273 3.976 12.637 4.1907 12.936 4.396L12.152 5.362C11.863 5.1473 11.503 4.9233 11.074 4.69C10.654 4.4567 10.206 4.228 9.73 4.004C9.263 3.78 8.81499 3.5887 8.38599 3.43ZM10.948 5.88H12.208V11.676C12.208 12.012 12.166 12.2687 12.082 12.446C11.998 12.6233 11.835 12.754 11.592 12.838C11.349 12.922 11.041 12.9733 10.668 12.992C10.295 13.02 9.842 13.034 9.31 13.034C9.282 12.866 9.23099 12.6747 9.15599 12.46C9.08099 12.2453 9.002 12.054 8.918 11.886C9.17 11.8953 9.41699 11.9 9.65999 11.9C9.90299 11.9093 10.113 11.914 10.29 11.914C10.467 11.914 10.593 11.914 10.668 11.914C10.78 11.9047 10.855 11.8813 10.892 11.844C10.929 11.816 10.948 11.7553 10.948 11.662V5.88ZM6.67799 7.336H9.89799V10.78H6.67799V9.786H8.806V8.33H6.67799V7.336ZM6.21599 7.336H7.29399V11.578H6.21599V7.336ZM2.35199 0L3.5 0.420002C3.323 0.774702 3.13099 1.1433 2.92599 1.526C2.72999 1.8993 2.52899 2.2587 2.32399 2.604C2.12799 2.9493 1.94099 3.2527 1.76399 3.514L0.867996 3.136C1.045 2.8653 1.22299 2.548 1.39999 2.184C1.58699 1.8107 1.76399 1.4327 1.93199 1.05C2.09999 0.667303 2.23999 0.3173 2.35199 0ZM3.92 1.624L5.01199 2.128C4.68499 2.6507 4.321 3.2013 3.92 3.78C3.528 4.3587 3.131 4.9187 2.73 5.46C2.329 5.992 1.95099 6.4633 1.59599 6.874L0.811996 6.426C1.073 6.118 1.349 5.768 1.638 5.376C1.927 4.9747 2.207 4.5593 2.478 4.13C2.758 3.6913 3.01899 3.2573 3.26199 2.828C3.51399 2.3987 3.733 1.9973 3.92 1.624ZM0.153992 3.08L0.825989 2.198C1.06899 2.422 1.31599 2.6693 1.56799 2.94C1.81999 3.2107 2.05299 3.4767 2.26799 3.738C2.48299 3.9993 2.646 4.2373 2.758 4.452L2.04399 5.46C1.93199 5.2267 1.77299 4.9747 1.56799 4.704C1.36299 4.424 1.13399 4.144 0.881989 3.864C0.629989 3.5747 0.386992 3.3133 0.153992 3.08ZM3.40199 4.9L4.35399 4.508C4.54099 4.816 4.72299 5.152 4.89999 5.516C5.07699 5.8707 5.231 6.216 5.362 6.552C5.502 6.8787 5.605 7.1773 5.67 7.448L4.63399 7.91C4.58699 7.6393 4.499 7.3313 4.368 6.986C4.247 6.6407 4.10199 6.286 3.93399 5.922C3.76599 5.558 3.58899 5.2173 3.40199 4.9ZM0.0559998 6.174C0.672 6.1367 1.39999 6.0993 2.23999 6.062C3.07999 6.0153 3.94299 5.964 4.82999 5.908L4.84399 7C4.01299 7.0653 3.19199 7.126 2.37999 7.182C1.56799 7.238 0.844991 7.2893 0.209991 7.336L0.0559998 6.174ZM3.78 8.344L4.73199 8.05C4.90899 8.4513 5.063 8.8853 5.194 9.352C5.334 9.8187 5.42299 10.2247 5.45999 10.57L4.46599 10.892C4.42899 10.5467 4.34499 10.136 4.21399 9.66C4.09299 9.184 3.948 8.7453 3.78 8.344ZM0.797989 8.106L1.89 8.288C1.806 8.9507 1.685 9.604 1.526 10.248C1.377 10.892 1.195 11.438 0.979996 11.886C0.904996 11.8393 0.806989 11.788 0.685989 11.732C0.564989 11.6667 0.438999 11.606 0.307999 11.55C0.186999 11.4847 0.084 11.438 0 11.41C0.215 10.9807 0.382998 10.472 0.503998 9.884C0.634998 9.296 0.732989 8.7033 0.797989 8.106ZM2.31 6.734H3.45799V12.992H2.31V6.734ZM15.876 4.816H26.824V5.74H15.876V4.816ZM15.274 4.816H16.506V7.224C16.506 7.6533 16.483 8.1247 16.436 8.638C16.399 9.142 16.329 9.6553 16.226 10.178C16.133 10.7007 15.988 11.2093 15.792 11.704C15.596 12.1987 15.349 12.6467 15.05 13.048C14.985 12.964 14.891 12.866 14.77 12.754C14.649 12.642 14.523 12.5347 14.392 12.432C14.271 12.3387 14.163 12.2687 14.07 12.222C14.434 11.7273 14.7 11.186 14.868 10.598C15.036 10.01 15.143 9.422 15.19 8.834C15.246 8.246 15.274 7.7047 15.274 7.21V4.816ZM20.23 4.032H21.35V5.348H20.23V4.032ZM18.578 5.558H19.768V8.54H18.578V5.558ZM21.924 5.558H23.114V8.54H21.924V5.558ZM17.934 9.73H21.252V10.626H17.934V9.73ZM16.058 11.83C16.73 11.774 17.537 11.7087 18.48 11.634C19.423 11.5593 20.384 11.4753 21.364 11.382V12.32C20.44 12.4133 19.516 12.502 18.592 12.586C17.668 12.6793 16.856 12.7633 16.156 12.838L16.058 11.83ZM25.956 9.198L26.782 9.982C26.399 10.1033 25.979 10.22 25.522 10.332C25.065 10.444 24.598 10.5467 24.122 10.64C23.655 10.724 23.203 10.7987 22.764 10.864C22.745 10.7613 22.703 10.6353 22.638 10.486C22.573 10.3367 22.512 10.206 22.456 10.094C22.867 10.0193 23.291 9.9353 23.73 9.842C24.169 9.7393 24.584 9.6367 24.976 9.534C25.368 9.422 25.695 9.31 25.956 9.198ZM21.798 8.862H23.03V11.438C23.03 11.6247 23.072 11.746 23.156 11.802C23.24 11.8487 23.422 11.872 23.702 11.872C23.758 11.872 23.87 11.872 24.038 11.872C24.215 11.872 24.407 11.872 24.612 11.872C24.827 11.872 25.023 11.872 25.2 11.872C25.387 11.872 25.522 11.872 25.606 11.872C25.755 11.872 25.867 11.844 25.942 11.788C26.026 11.7227 26.087 11.6013 26.124 11.424C26.161 11.2373 26.185 10.962 26.194 10.598C26.334 10.682 26.507 10.766 26.712 10.85C26.917 10.9247 27.099 10.9807 27.258 11.018C27.221 11.5033 27.146 11.8767 27.034 12.138C26.931 12.3993 26.777 12.5813 26.572 12.684C26.367 12.796 26.087 12.852 25.732 12.852C25.667 12.852 25.559 12.852 25.41 12.852C25.27 12.852 25.107 12.852 24.92 12.852C24.733 12.852 24.542 12.852 24.346 12.852C24.159 12.852 23.991 12.852 23.842 12.852C23.702 12.852 23.604 12.852 23.548 12.852C23.081 12.852 22.722 12.81 22.47 12.726C22.218 12.6513 22.041 12.5113 21.938 12.306C21.845 12.1007 21.798 11.816 21.798 11.452V8.862ZM15.904 6.384H26.446V8.932H15.904V8.078H25.2V7.252H15.904V6.384ZM17.248 8.862H18.48V12.18L17.248 12.292V8.862ZM14.798 0.448002H20.468V1.344H14.798V0.448002ZM21.098 0.448002H26.852V1.344H21.098V0.448002ZM15.204 1.89H20.23V4.438H19.054V2.66H16.352V4.466H15.204V1.89ZM21.392 1.89H26.502V4.438H25.312V2.66H22.526V4.466H21.392V1.89ZM16.744 3.29L17.388 2.744C17.603 2.9027 17.817 3.0893 18.032 3.304C18.256 3.5093 18.424 3.696 18.536 3.864L17.864 4.48C17.752 4.3027 17.589 4.1067 17.374 3.892C17.169 3.668 16.959 3.4673 16.744 3.29ZM22.932 3.304L23.576 2.73C23.8 2.8793 24.029 3.0613 24.262 3.276C24.495 3.4907 24.673 3.6867 24.794 3.864L24.136 4.48C24.015 4.3027 23.837 4.1067 23.604 3.892C23.38 3.668 23.156 3.472 22.932 3.304ZM34.034 2.212C34.445 2.2773 34.907 2.324 35.42 2.352C35.943 2.38 36.479 2.3893 37.03 2.38C37.581 2.3707 38.108 2.352 38.612 2.324C39.116 2.296 39.55 2.2587 39.914 2.212V3.64C39.513 3.6773 39.06 3.71 38.556 3.738C38.052 3.7567 37.529 3.766 36.988 3.766C36.456 3.766 35.933 3.7567 35.42 3.738C34.907 3.71 34.449 3.6773 34.048 3.64L34.034 2.212ZM34.832 8.036C34.776 8.2787 34.729 8.498 34.692 8.694C34.664 8.89 34.65 9.086 34.65 9.282C34.65 9.4407 34.683 9.59 34.748 9.73C34.823 9.87 34.939 9.9913 35.098 10.094C35.266 10.1967 35.49 10.2807 35.77 10.346C36.059 10.402 36.414 10.43 36.834 10.43C37.469 10.43 38.061 10.402 38.612 10.346C39.172 10.2807 39.741 10.1827 40.32 10.052L40.348 11.55C39.909 11.634 39.396 11.704 38.808 11.76C38.229 11.8067 37.562 11.83 36.806 11.83C35.621 11.83 34.743 11.6387 34.174 11.256C33.614 10.864 33.334 10.3273 33.334 9.646C33.334 9.394 33.353 9.1327 33.39 8.862C33.427 8.582 33.488 8.2693 33.572 7.924L34.832 8.036ZM31.598 1.204C31.57 1.288 31.533 1.4 31.486 1.54C31.449 1.6707 31.411 1.806 31.374 1.946C31.346 2.0767 31.323 2.184 31.304 2.268C31.257 2.5013 31.201 2.786 31.136 3.122C31.08 3.4487 31.019 3.808 30.954 4.2C30.898 4.5827 30.842 4.9747 30.786 5.376C30.739 5.768 30.697 6.1507 30.66 6.524C30.632 6.8973 30.618 7.238 30.618 7.546C30.618 7.7887 30.623 8.036 30.632 8.288C30.651 8.5307 30.674 8.7827 30.702 9.044C30.786 8.8573 30.87 8.6613 30.954 8.456C31.038 8.2413 31.122 8.0313 31.206 7.826C31.29 7.6207 31.369 7.434 31.444 7.266L32.144 7.826C32.023 8.1713 31.892 8.554 31.752 8.974C31.612 9.394 31.486 9.7953 31.374 10.178C31.271 10.5513 31.197 10.8547 31.15 11.088C31.131 11.1813 31.113 11.2933 31.094 11.424C31.075 11.5453 31.071 11.648 31.08 11.732C31.08 11.7973 31.08 11.8767 31.08 11.97C31.089 12.0727 31.099 12.166 31.108 12.25L29.834 12.334C29.694 11.8487 29.573 11.2093 29.47 10.416C29.367 9.6227 29.316 8.7547 29.316 7.812C29.316 7.2893 29.339 6.762 29.386 6.23C29.433 5.6887 29.489 5.166 29.554 4.662C29.619 4.158 29.685 3.696 29.75 3.276C29.825 2.856 29.881 2.506 29.918 2.226C29.946 2.0487 29.969 1.8573 29.988 1.652C30.016 1.4467 30.035 1.2507 30.044 1.064L31.598 1.204ZM42.98 2.842C43.26 2.87 43.554 2.8933 43.862 2.912C44.179 2.9213 44.478 2.926 44.758 2.926C45.299 2.926 45.85 2.9027 46.41 2.856C46.979 2.8 47.539 2.7207 48.09 2.618C48.65 2.506 49.182 2.3707 49.686 2.212L49.728 3.5C49.299 3.6213 48.809 3.7333 48.258 3.836C47.707 3.9387 47.133 4.0227 46.536 4.088C45.939 4.1533 45.346 4.186 44.758 4.186C44.497 4.186 44.221 4.1813 43.932 4.172C43.643 4.1627 43.358 4.1533 43.078 4.144L42.98 2.842ZM48.146 0.630001C48.09 0.863301 48.015 1.1573 47.922 1.512C47.838 1.8667 47.74 2.24 47.628 2.632C47.525 3.024 47.418 3.402 47.306 3.766C47.082 4.438 46.802 5.152 46.466 5.908C46.13 6.6547 45.766 7.3827 45.374 8.092C44.982 8.8013 44.585 9.422 44.184 9.954L42.84 9.268C43.157 8.8853 43.47 8.4607 43.778 7.994C44.086 7.518 44.375 7.028 44.646 6.524C44.926 6.0107 45.178 5.516 45.402 5.04C45.626 4.5547 45.808 4.1113 45.948 3.71C46.107 3.2433 46.251 2.716 46.382 2.128C46.513 1.54 46.587 0.989302 46.606 0.476002L48.146 0.630001ZM51.436 4.97C51.427 5.2593 51.422 5.5347 51.422 5.796C51.422 6.0573 51.427 6.328 51.436 6.608C51.445 6.8227 51.455 7.1027 51.464 7.448C51.483 7.784 51.501 8.1433 51.52 8.526C51.539 8.9087 51.553 9.2727 51.562 9.618C51.581 9.9633 51.59 10.2433 51.59 10.458C51.59 10.85 51.501 11.2093 51.324 11.536C51.156 11.8627 50.885 12.124 50.512 12.32C50.139 12.516 49.644 12.614 49.028 12.614C48.487 12.614 47.992 12.5347 47.544 12.376C47.105 12.2173 46.751 11.9793 46.48 11.662C46.219 11.3447 46.088 10.9433 46.088 10.458C46.088 10.0193 46.209 9.632 46.452 9.296C46.704 8.96 47.049 8.6987 47.488 8.512C47.927 8.316 48.435 8.218 49.014 8.218C49.817 8.218 50.554 8.3347 51.226 8.568C51.898 8.792 52.5 9.0767 53.032 9.422C53.573 9.758 54.04 10.0987 54.432 10.444L53.69 11.634C53.419 11.3913 53.121 11.1393 52.794 10.878C52.467 10.6073 52.103 10.36 51.702 10.136C51.31 9.9027 50.881 9.7113 50.414 9.562C49.957 9.4127 49.467 9.338 48.944 9.338C48.477 9.338 48.099 9.4313 47.81 9.618C47.53 9.8047 47.39 10.0427 47.39 10.332C47.39 10.6307 47.511 10.8733 47.754 11.06C48.006 11.2467 48.37 11.34 48.846 11.34C49.201 11.34 49.481 11.284 49.686 11.172C49.901 11.0507 50.05 10.8873 50.134 10.682C50.218 10.4767 50.26 10.248 50.26 9.996C50.26 9.7533 50.251 9.4267 50.232 9.016C50.223 8.6053 50.204 8.162 50.176 7.686C50.157 7.21 50.134 6.734 50.106 6.258C50.087 5.7727 50.073 5.3433 50.064 4.97H51.436ZM54.068 5.502C53.807 5.2873 53.48 5.0587 53.088 4.816C52.696 4.564 52.295 4.326 51.884 4.102C51.473 3.8687 51.109 3.682 50.792 3.542L51.506 2.464C51.758 2.576 52.043 2.7113 52.36 2.87C52.677 3.0287 52.995 3.1967 53.312 3.374C53.629 3.5513 53.923 3.7287 54.194 3.906C54.465 4.074 54.689 4.2187 54.866 4.34L54.068 5.502ZM57.848 6.076C58.053 6.0387 58.277 5.9873 58.52 5.922C58.772 5.8567 59.01 5.7913 59.234 5.726C59.477 5.642 59.789 5.5393 60.172 5.418C60.564 5.2967 60.993 5.1753 61.46 5.054C61.927 4.9233 62.393 4.816 62.86 4.732C63.336 4.648 63.784 4.606 64.204 4.606C64.904 4.606 65.52 4.7367 66.052 4.998C66.584 5.2593 66.999 5.6327 67.298 6.118C67.597 6.6033 67.746 7.1773 67.746 7.84C67.746 8.5027 67.597 9.0907 67.298 9.604C67.009 10.1173 66.579 10.5607 66.01 10.934C65.45 11.3073 64.769 11.6013 63.966 11.816C63.173 12.04 62.267 12.1847 61.25 12.25L60.662 10.892C61.437 10.864 62.165 10.7893 62.846 10.668C63.527 10.5467 64.125 10.3647 64.638 10.122C65.161 9.8793 65.567 9.5667 65.856 9.184C66.155 8.8013 66.304 8.3487 66.304 7.826C66.304 7.4433 66.211 7.1073 66.024 6.818C65.837 6.5287 65.581 6.3 65.254 6.132C64.927 5.964 64.54 5.88 64.092 5.88C63.756 5.88 63.378 5.922 62.958 6.006C62.538 6.09 62.104 6.202 61.656 6.342C61.217 6.4727 60.788 6.6173 60.368 6.776C59.957 6.9253 59.584 7.0653 59.248 7.196C58.912 7.3267 58.641 7.4387 58.436 7.532L57.848 6.076ZM76.09 0.728001C76.043 0.896001 75.992 1.106 75.936 1.358C75.889 1.6007 75.852 1.792 75.824 1.932C75.759 2.2587 75.679 2.6507 75.586 3.108C75.502 3.556 75.399 4.0273 75.278 4.522C75.166 5.0167 75.049 5.4973 74.928 5.964C74.807 6.4587 74.657 6.9953 74.48 7.574C74.303 8.1527 74.111 8.7407 73.906 9.338C73.71 9.926 73.509 10.486 73.304 11.018C73.108 11.5407 72.912 12.0027 72.716 12.404L71.19 11.886C71.395 11.5313 71.61 11.102 71.834 10.598C72.058 10.0847 72.277 9.5387 72.492 8.96C72.707 8.372 72.907 7.7887 73.094 7.21C73.281 6.6313 73.439 6.0993 73.57 5.614C73.654 5.2873 73.738 4.9467 73.822 4.592C73.906 4.228 73.985 3.878 74.06 3.542C74.135 3.206 74.195 2.8933 74.242 2.604C74.289 2.3053 74.326 2.058 74.354 1.862C74.391 1.638 74.41 1.4093 74.41 1.176C74.419 0.942703 74.419 0.751301 74.41 0.602001L76.09 0.728001ZM72.786 2.968C73.327 2.968 73.901 2.94 74.508 2.884C75.115 2.828 75.731 2.7487 76.356 2.646C76.991 2.5433 77.602 2.4173 78.19 2.268V3.654C77.611 3.7847 77 3.8967 76.356 3.99C75.712 4.0833 75.082 4.158 74.466 4.214C73.85 4.2607 73.285 4.284 72.772 4.284C72.455 4.284 72.161 4.2793 71.89 4.27C71.629 4.2607 71.367 4.2467 71.106 4.228L71.078 2.856C71.423 2.8933 71.727 2.9213 71.988 2.94C72.259 2.9587 72.525 2.968 72.786 2.968ZM77.196 4.984C77.579 4.9467 77.999 4.9187 78.456 4.9C78.913 4.872 79.366 4.858 79.814 4.858C80.225 4.858 80.635 4.8673 81.046 4.886C81.466 4.8953 81.872 4.9233 82.264 4.97L82.222 6.314C81.867 6.2673 81.485 6.2253 81.074 6.188C80.673 6.1507 80.262 6.132 79.842 6.132C79.385 6.132 78.937 6.146 78.498 6.174C78.069 6.1927 77.635 6.23 77.196 6.286V4.984ZM77.686 8.442C77.639 8.6567 77.597 8.8713 77.56 9.086C77.523 9.2913 77.504 9.4827 77.504 9.66C77.504 9.8187 77.532 9.9727 77.588 10.122C77.653 10.262 77.761 10.388 77.91 10.5C78.069 10.612 78.288 10.7007 78.568 10.766C78.857 10.8313 79.226 10.864 79.674 10.864C80.131 10.864 80.598 10.8407 81.074 10.794C81.55 10.738 82.017 10.668 82.474 10.584L82.432 11.998C82.04 12.0447 81.611 12.0867 81.144 12.124C80.687 12.1707 80.192 12.194 79.66 12.194C78.521 12.194 77.649 12.012 77.042 11.648C76.445 11.284 76.146 10.7567 76.146 10.066C76.146 9.7673 76.169 9.4733 76.216 9.184C76.263 8.8853 76.319 8.596 76.384 8.316L77.686 8.442ZM95.214 3.542C95.037 3.654 94.845 3.766 94.64 3.878C94.444 3.9807 94.234 4.088 94.01 4.2C93.777 4.3213 93.497 4.466 93.17 4.634C92.843 4.7927 92.489 4.97 92.106 5.166C91.723 5.3527 91.341 5.5533 90.958 5.768C90.585 5.9827 90.23 6.1973 89.894 6.412C89.278 6.8227 88.788 7.2473 88.424 7.686C88.06 8.1247 87.878 8.6053 87.878 9.128C87.878 9.6693 88.139 10.094 88.662 10.402C89.185 10.71 89.969 10.864 91.014 10.864C91.518 10.864 92.045 10.8453 92.596 10.808C93.147 10.7613 93.679 10.7007 94.192 10.626C94.715 10.5513 95.163 10.4627 95.536 10.36L95.522 11.956C95.158 12.012 94.743 12.068 94.276 12.124C93.809 12.18 93.305 12.222 92.764 12.25C92.232 12.278 91.667 12.292 91.07 12.292C90.398 12.292 89.773 12.2407 89.194 12.138C88.625 12.0353 88.13 11.8673 87.71 11.634C87.29 11.4007 86.963 11.0927 86.73 10.71C86.497 10.318 86.38 9.842 86.38 9.282C86.38 8.7407 86.497 8.2413 86.73 7.784C86.973 7.3267 87.304 6.8973 87.724 6.496C88.144 6.0947 88.629 5.712 89.18 5.348C89.525 5.1147 89.894 4.886 90.286 4.662C90.678 4.438 91.061 4.2233 91.434 4.018C91.817 3.8127 92.171 3.626 92.498 3.458C92.825 3.29 93.1 3.1407 93.324 3.01C93.548 2.8793 93.749 2.758 93.926 2.646C94.113 2.534 94.285 2.408 94.444 2.268L95.214 3.542ZM88.144 0.812C88.368 1.4093 88.606 1.9973 88.858 2.576C89.11 3.1453 89.362 3.6773 89.614 4.172C89.875 4.6667 90.113 5.1053 90.328 5.488L89.096 6.216C88.853 5.8147 88.601 5.3527 88.34 4.83C88.079 4.298 87.813 3.738 87.542 3.15C87.271 2.562 87.01 1.974 86.758 1.386L88.144 0.812ZM101.696 8.484H103.04V11.032C103.04 11.2373 103.091 11.368 103.194 11.424C103.297 11.48 103.535 11.508 103.908 11.508C104.001 11.508 104.151 11.508 104.356 11.508C104.571 11.508 104.804 11.508 105.056 11.508C105.317 11.508 105.56 11.508 105.784 11.508C106.017 11.508 106.19 11.508 106.302 11.508C106.517 11.508 106.675 11.4707 106.778 11.396C106.89 11.312 106.969 11.1487 107.016 10.906C107.072 10.654 107.109 10.2807 107.128 9.786C107.231 9.8513 107.352 9.9167 107.492 9.982C107.632 10.0473 107.777 10.108 107.926 10.164C108.085 10.2107 108.22 10.248 108.332 10.276C108.285 10.9293 108.197 11.4333 108.066 11.788C107.935 12.1333 107.739 12.3713 107.478 12.502C107.226 12.642 106.867 12.712 106.4 12.712C106.325 12.712 106.199 12.712 106.022 12.712C105.845 12.712 105.644 12.712 105.42 12.712C105.196 12.712 104.972 12.712 104.748 12.712C104.524 12.712 104.323 12.712 104.146 12.712C103.969 12.712 103.847 12.712 103.782 12.712C103.231 12.712 102.802 12.6607 102.494 12.558C102.195 12.4553 101.985 12.2827 101.864 12.04C101.752 11.8067 101.696 11.4753 101.696 11.046V8.484ZM103.04 7.994L103.908 7.168C104.253 7.336 104.608 7.532 104.972 7.756C105.345 7.98 105.691 8.2133 106.008 8.456C106.335 8.6893 106.605 8.9133 106.82 9.128L105.882 10.038C105.686 9.8327 105.429 9.6087 105.112 9.366C104.804 9.114 104.468 8.8713 104.104 8.638C103.74 8.3953 103.385 8.1807 103.04 7.994ZM108.01 8.638L109.186 8.148C109.457 8.5027 109.718 8.8853 109.97 9.296C110.231 9.6973 110.465 10.0987 110.67 10.5C110.875 10.892 111.025 11.2513 111.118 11.578L109.83 12.138C109.746 11.8207 109.606 11.4613 109.41 11.06C109.223 10.6587 109.009 10.248 108.766 9.828C108.523 9.3987 108.271 9.002 108.01 8.638ZM99.82 8.274L101.01 8.708C100.898 9.0907 100.767 9.4967 100.618 9.926C100.469 10.3553 100.301 10.7707 100.114 11.172C99.927 11.5733 99.722 11.928 99.498 12.236L98.308 11.592C98.532 11.3027 98.737 10.976 98.924 10.612C99.12 10.2387 99.293 9.8513 99.442 9.45C99.591 9.0393 99.717 8.6473 99.82 8.274ZM100.94 4.368V5.922H108.318V4.368H100.94ZM100.94 1.764V3.276H108.318V1.764H100.94ZM99.68 0.602001H109.62V7.07H99.68V0.602001ZM104.02 1.106H105.308V6.58H104.02V1.106ZM113.848 6.076C114.053 6.0387 114.277 5.9873 114.52 5.922C114.772 5.8567 115.01 5.7913 115.234 5.726C115.477 5.642 115.789 5.5393 116.172 5.418C116.564 5.2967 116.993 5.1753 117.46 5.054C117.927 4.9233 118.393 4.816 118.86 4.732C119.336 4.648 119.784 4.606 120.204 4.606C120.904 4.606 121.52 4.7367 122.052 4.998C122.584 5.2593 122.999 5.6327 123.298 6.118C123.597 6.6033 123.746 7.1773 123.746 7.84C123.746 8.5027 123.597 9.0907 123.298 9.604C123.009 10.1173 122.579 10.5607 122.01 10.934C121.45 11.3073 120.769 11.6013 119.966 11.816C119.173 12.04 118.267 12.1847 117.25 12.25L116.662 10.892C117.437 10.864 118.165 10.7893 118.846 10.668C119.527 10.5467 120.125 10.3647 120.638 10.122C121.161 9.8793 121.567 9.5667 121.856 9.184C122.155 8.8013 122.304 8.3487 122.304 7.826C122.304 7.4433 122.211 7.1073 122.024 6.818C121.837 6.5287 121.581 6.3 121.254 6.132C120.927 5.964 120.54 5.88 120.092 5.88C119.756 5.88 119.378 5.922 118.958 6.006C118.538 6.09 118.104 6.202 117.656 6.342C117.217 6.4727 116.788 6.6173 116.368 6.776C115.957 6.9253 115.584 7.0653 115.248 7.196C114.912 7.3267 114.641 7.4387 114.436 7.532L113.848 6.076ZM126.115 2.366C126.385 2.3567 126.637 2.3473 126.871 2.338C127.104 2.3193 127.286 2.3053 127.417 2.296C127.669 2.2773 128.005 2.2493 128.425 2.212C128.854 2.1653 129.339 2.1187 129.881 2.072C130.422 2.016 131.001 1.9647 131.617 1.918C132.233 1.862 132.863 1.806 133.507 1.75C134.011 1.7033 134.496 1.666 134.963 1.638C135.429 1.6007 135.868 1.5727 136.279 1.554C136.689 1.526 137.053 1.5073 137.371 1.498V2.912C137.119 2.912 136.825 2.9167 136.489 2.926C136.162 2.9353 135.835 2.954 135.509 2.982C135.182 3.01 134.897 3.0567 134.655 3.122C134.188 3.262 133.763 3.4813 133.381 3.78C132.998 4.0787 132.671 4.424 132.401 4.816C132.13 5.208 131.92 5.6233 131.771 6.062C131.621 6.4913 131.547 6.916 131.547 7.336C131.547 7.84 131.635 8.2833 131.813 8.666C131.99 9.0487 132.233 9.3753 132.541 9.646C132.849 9.9073 133.199 10.1267 133.591 10.304C133.992 10.472 134.417 10.598 134.865 10.682C135.322 10.766 135.784 10.8173 136.251 10.836L135.733 12.32C135.182 12.3013 134.636 12.222 134.095 12.082C133.563 11.942 133.054 11.7507 132.569 11.508C132.093 11.256 131.668 10.948 131.295 10.584C130.931 10.2107 130.641 9.7813 130.427 9.296C130.221 8.8107 130.119 8.2553 130.119 7.63C130.119 6.93 130.235 6.2813 130.469 5.684C130.711 5.0867 131.015 4.5687 131.379 4.13C131.752 3.682 132.125 3.332 132.499 3.08C132.219 3.1173 131.873 3.1593 131.463 3.206C131.052 3.2433 130.609 3.29 130.133 3.346C129.666 3.3927 129.195 3.4487 128.719 3.514C128.243 3.57 127.79 3.6307 127.361 3.696C126.941 3.7613 126.577 3.8313 126.269 3.906L126.115 2.366ZM142.355 1.946C142.327 2.0767 142.303 2.2353 142.285 2.422C142.266 2.6087 142.247 2.7953 142.229 2.982C142.219 3.1687 142.215 3.3273 142.215 3.458C142.215 3.7473 142.215 4.0693 142.215 4.424C142.224 4.7787 142.233 5.1427 142.243 5.516C142.252 5.88 142.275 6.244 142.313 6.608C142.387 7.3453 142.499 7.9893 142.649 8.54C142.798 9.0907 142.989 9.52 143.223 9.828C143.456 10.136 143.727 10.29 144.035 10.29C144.212 10.29 144.38 10.206 144.539 10.038C144.697 9.87 144.847 9.646 144.987 9.366C145.127 9.086 145.253 8.7827 145.365 8.456C145.486 8.12 145.589 7.798 145.673 7.49L146.779 8.792C146.48 9.5853 146.181 10.22 145.883 10.696C145.593 11.1627 145.295 11.4987 144.987 11.704C144.679 11.9093 144.352 12.012 144.007 12.012C143.54 12.012 143.092 11.8533 142.663 11.536C142.243 11.2093 141.879 10.6773 141.571 9.94C141.263 9.2027 141.043 8.218 140.913 6.986C140.866 6.5753 140.829 6.132 140.801 5.656C140.782 5.18 140.768 4.7273 140.759 4.298C140.759 3.8687 140.759 3.514 140.759 3.234C140.759 3.0567 140.749 2.842 140.731 2.59C140.721 2.3287 140.693 2.1047 140.647 1.918L142.355 1.946ZM149.523 2.296C149.775 2.6227 150.017 3.0053 150.251 3.444C150.493 3.8733 150.713 4.34 150.909 4.844C151.105 5.348 151.277 5.8613 151.427 6.384C151.585 6.9067 151.716 7.4247 151.819 7.938C151.921 8.4513 151.991 8.9367 152.029 9.394L150.587 9.954C150.531 9.3473 150.437 8.7127 150.307 8.05C150.176 7.3873 150.008 6.734 149.803 6.09C149.597 5.4367 149.355 4.8253 149.075 4.256C148.804 3.6773 148.491 3.178 148.137 2.758L149.523 2.296ZM156.229 1.344C156.406 1.3627 156.593 1.3767 156.789 1.386C156.994 1.3953 157.181 1.4 157.349 1.4C157.489 1.4 157.713 1.4 158.021 1.4C158.338 1.3907 158.693 1.3813 159.085 1.372C159.486 1.3627 159.883 1.3533 160.275 1.344C160.667 1.3253 161.017 1.3067 161.325 1.288C161.642 1.2693 161.875 1.2553 162.025 1.246C162.277 1.2273 162.468 1.2087 162.599 1.19C162.739 1.1713 162.846 1.148 162.921 1.12L163.691 2.128C163.551 2.2213 163.406 2.3147 163.257 2.408C163.107 2.5013 162.958 2.6087 162.809 2.73C162.631 2.8607 162.398 3.0427 162.109 3.276C161.829 3.5 161.525 3.752 161.199 4.032C160.872 4.3027 160.55 4.5687 160.233 4.83C159.915 5.0913 159.631 5.3247 159.379 5.53C159.659 5.4367 159.939 5.376 160.219 5.348C160.499 5.3107 160.779 5.292 161.059 5.292C161.833 5.292 162.529 5.4413 163.145 5.74C163.761 6.0387 164.246 6.44 164.601 6.944C164.955 7.448 165.133 8.0313 165.133 8.694C165.133 9.4313 164.937 10.0893 164.545 10.668C164.162 11.2467 163.602 11.6993 162.865 12.026C162.137 12.3527 161.25 12.516 160.205 12.516C159.561 12.516 158.996 12.4273 158.511 12.25C158.025 12.0727 157.647 11.8253 157.377 11.508C157.115 11.1813 156.985 10.808 156.985 10.388C156.985 10.0427 157.078 9.7207 157.265 9.422C157.461 9.114 157.731 8.8713 158.077 8.694C158.431 8.5073 158.837 8.414 159.295 8.414C159.929 8.414 160.457 8.5447 160.877 8.806C161.306 9.058 161.633 9.394 161.857 9.814C162.09 10.234 162.216 10.6913 162.235 11.186L160.961 11.368C160.933 10.808 160.769 10.3507 160.471 9.996C160.181 9.6413 159.789 9.464 159.295 9.464C158.996 9.464 158.749 9.5433 158.553 9.702C158.366 9.8607 158.273 10.0473 158.273 10.262C158.273 10.57 158.427 10.8127 158.735 10.99C159.052 11.1673 159.458 11.256 159.953 11.256C160.746 11.256 161.423 11.158 161.983 10.962C162.543 10.7567 162.967 10.4627 163.257 10.08C163.546 9.688 163.691 9.2167 163.691 8.666C163.691 8.2273 163.56 7.8353 163.299 7.49C163.037 7.1447 162.678 6.8787 162.221 6.692C161.763 6.496 161.241 6.398 160.653 6.398C160.093 6.398 159.579 6.4633 159.113 6.594C158.655 6.7153 158.226 6.8973 157.825 7.14C157.423 7.3733 157.027 7.6673 156.635 8.022C156.252 8.3673 155.855 8.764 155.445 9.212L154.423 8.176C154.703 7.952 155.011 7.7 155.347 7.42C155.683 7.14 156.019 6.86 156.355 6.58C156.7 6.2907 157.022 6.02 157.321 5.768C157.629 5.5067 157.885 5.292 158.091 5.124C158.287 4.9653 158.525 4.774 158.805 4.55C159.085 4.3167 159.374 4.074 159.673 3.822C159.971 3.57 160.256 3.332 160.527 3.108C160.797 2.8747 161.021 2.6787 161.199 2.52C161.049 2.5293 160.844 2.5387 160.583 2.548C160.321 2.5573 160.032 2.5713 159.715 2.59C159.407 2.5993 159.094 2.6133 158.777 2.632C158.459 2.6413 158.17 2.6553 157.909 2.674C157.647 2.6833 157.447 2.6927 157.307 2.702C157.139 2.7113 156.961 2.7253 156.775 2.744C156.597 2.7533 156.429 2.7673 156.271 2.786L156.229 1.344ZM5.59999 25.334C6.03899 25.5953 6.50999 25.8893 7.01399 26.216C7.51799 26.5333 8.022 26.8693 8.526 27.224C9.03 27.5693 9.50599 27.9053 9.95399 28.232C10.411 28.5587 10.803 28.862 11.13 29.142L10.094 30.374C9.77699 30.0847 9.394 29.7627 8.946 29.408C8.507 29.0533 8.03099 28.6893 7.51799 28.316C7.01399 27.9427 6.51 27.588 6.006 27.252C5.511 26.9067 5.05399 26.5987 4.63399 26.328L5.59999 25.334ZM12.082 22.856C12.017 22.968 11.947 23.108 11.872 23.276C11.807 23.4347 11.751 23.584 11.704 23.724C11.564 24.172 11.373 24.6667 11.13 25.208C10.897 25.7493 10.612 26.3 10.276 26.86C9.949 27.4107 9.581 27.9427 9.17 28.456C8.526 29.2493 7.73299 30.01 6.78999 30.738C5.85699 31.4567 4.72699 32.068 3.40199 32.572L2.12799 31.452C3.04299 31.172 3.855 30.8313 4.564 30.43C5.283 30.0287 5.91699 29.5947 6.46799 29.128C7.01899 28.652 7.49899 28.1713 7.90999 27.686C8.25499 27.2753 8.573 26.8273 8.862 26.342C9.161 25.8567 9.41699 25.3713 9.63199 24.886C9.85599 24.4007 10.015 23.962 10.108 23.57H5.11L5.642 22.31H9.89799C10.094 22.31 10.285 22.296 10.472 22.268C10.659 22.24 10.817 22.2027 10.948 22.156L12.082 22.856ZM7.40599 20.784C7.26599 20.9893 7.12599 21.2133 6.98599 21.456C6.85499 21.6987 6.75299 21.89 6.67799 22.03C6.37899 22.5527 5.997 23.1267 5.53 23.752C5.073 24.3773 4.545 24.9933 3.948 25.6C3.351 26.1973 2.69699 26.7433 1.98799 27.238L0.797989 26.314C1.60999 25.81 2.30499 25.2687 2.88399 24.69C3.47199 24.1113 3.96199 23.5467 4.35399 22.996C4.74599 22.4453 5.054 21.96 5.278 21.54C5.362 21.4 5.455 21.2087 5.558 20.966C5.67 20.714 5.754 20.4853 5.81 20.28L7.40599 20.784ZM23.086 20.742C23.058 20.9473 23.035 21.162 23.016 21.386C23.007 21.6007 23.007 21.8107 23.016 22.016C23.016 22.3333 23.021 22.7113 23.03 23.15C23.039 23.5887 23.049 24.074 23.058 24.606C23.067 25.1287 23.077 25.6747 23.086 26.244C23.105 26.804 23.119 27.3687 23.128 27.938C23.137 28.498 23.142 29.044 23.142 29.576C23.151 30.108 23.161 30.598 23.17 31.046C23.17 31.4473 23.053 31.7553 22.82 31.97C22.587 32.194 22.232 32.306 21.756 32.306C21.373 32.306 20.981 32.2967 20.58 32.278C20.188 32.2593 19.805 32.2407 19.432 32.222L19.32 30.78C19.647 30.8267 19.983 30.864 20.328 30.892C20.683 30.92 20.986 30.934 21.238 30.934C21.434 30.934 21.569 30.8873 21.644 30.794C21.719 30.7007 21.756 30.5607 21.756 30.374C21.756 30.038 21.751 29.646 21.742 29.198C21.742 28.75 21.737 28.2693 21.728 27.756C21.728 27.2333 21.723 26.706 21.714 26.174C21.714 25.6327 21.709 25.1053 21.7 24.592C21.691 24.0787 21.677 23.6027 21.658 23.164C21.649 22.716 21.635 22.3333 21.616 22.016C21.607 21.736 21.588 21.4933 21.56 21.288C21.541 21.0827 21.518 20.9007 21.49 20.742H23.086ZM15.372 23.136C15.568 23.164 15.792 23.1873 16.044 23.206C16.305 23.2247 16.548 23.234 16.772 23.234C16.893 23.234 17.117 23.234 17.444 23.234C17.78 23.234 18.181 23.234 18.648 23.234C19.115 23.234 19.614 23.234 20.146 23.234C20.687 23.234 21.224 23.234 21.756 23.234C22.288 23.234 22.783 23.234 23.24 23.234C23.697 23.234 24.085 23.234 24.402 23.234C24.729 23.234 24.939 23.234 25.032 23.234C25.237 23.234 25.471 23.2247 25.732 23.206C25.993 23.178 26.194 23.1547 26.334 23.136V24.606C26.147 24.5967 25.937 24.592 25.704 24.592C25.48 24.5827 25.279 24.578 25.102 24.578C25.009 24.578 24.803 24.578 24.486 24.578C24.169 24.578 23.777 24.578 23.31 24.578C22.843 24.578 22.339 24.578 21.798 24.578C21.257 24.578 20.711 24.578 20.16 24.578C19.619 24.578 19.11 24.578 18.634 24.578C18.167 24.578 17.771 24.578 17.444 24.578C17.117 24.578 16.903 24.578 16.8 24.578C16.557 24.578 16.315 24.5827 16.072 24.592C15.829 24.592 15.596 24.6013 15.372 24.62V23.136ZM14.756 29.73C15.493 29.3753 16.198 28.974 16.87 28.526C17.542 28.078 18.158 27.6113 18.718 27.126C19.287 26.6313 19.787 26.1413 20.216 25.656C20.645 25.1707 20.991 24.718 21.252 24.298H21.966L21.98 25.488C21.709 25.908 21.35 26.3607 20.902 26.846C20.463 27.3313 19.969 27.8213 19.418 28.316C18.867 28.8013 18.279 29.268 17.654 29.716C17.038 30.1547 16.408 30.542 15.764 30.878L14.756 29.73ZM34.916 31.508C34.944 31.3867 34.967 31.2513 34.986 31.102C35.005 30.9433 35.014 30.7847 35.014 30.626C35.014 30.5233 35.014 30.318 35.014 30.01C35.014 29.6927 35.014 29.31 35.014 28.862C35.014 28.4047 35.014 27.9147 35.014 27.392C35.014 26.86 35.014 26.328 35.014 25.796C35.014 25.2547 35.014 24.7507 35.014 24.284C35.014 23.8173 35.014 23.4113 35.014 23.066C35.014 22.7207 35.014 22.478 35.014 22.338C35.014 22.0487 35 21.8013 34.972 21.596C34.944 21.3907 34.93 21.2647 34.93 21.218H36.554C36.554 21.2647 36.54 21.3907 36.512 21.596C36.493 21.8013 36.484 22.0487 36.484 22.338C36.484 22.478 36.484 22.7113 36.484 23.038C36.484 23.3647 36.484 23.752 36.484 24.2C36.484 24.6387 36.484 25.11 36.484 25.614C36.484 26.1087 36.484 26.6033 36.484 27.098C36.484 27.5833 36.484 28.036 36.484 28.456C36.484 28.876 36.484 29.2307 36.484 29.52C36.484 29.8093 36.484 29.996 36.484 30.08C36.895 29.8933 37.329 29.646 37.786 29.338C38.243 29.0207 38.691 28.652 39.13 28.232C39.569 27.812 39.956 27.3547 40.292 26.86L41.146 28.064C40.745 28.596 40.273 29.1047 39.732 29.59C39.2 30.0753 38.64 30.5187 38.052 30.92C37.473 31.3213 36.913 31.6573 36.372 31.928C36.241 31.9933 36.134 32.054 36.05 32.11C35.966 32.1753 35.896 32.2313 35.84 32.278L34.916 31.508ZM28.462 31.382C29.069 30.962 29.573 30.4533 29.974 29.856C30.375 29.2493 30.679 28.624 30.884 27.98C30.987 27.672 31.066 27.2847 31.122 26.818C31.178 26.3513 31.215 25.8567 31.234 25.334C31.262 24.802 31.276 24.2793 31.276 23.766C31.285 23.2527 31.29 22.7953 31.29 22.394C31.29 22.1513 31.281 21.9413 31.262 21.764C31.243 21.5867 31.215 21.4187 31.178 21.26H32.802C32.802 21.2973 32.793 21.3767 32.774 21.498C32.765 21.61 32.755 21.7453 32.746 21.904C32.737 22.0533 32.732 22.212 32.732 22.38C32.732 22.7813 32.727 23.2527 32.718 23.794C32.709 24.326 32.685 24.8767 32.648 25.446C32.62 26.0153 32.578 26.5567 32.522 27.07C32.475 27.5833 32.401 28.0127 32.298 28.358C32.093 29.1233 31.775 29.842 31.346 30.514C30.917 31.186 30.403 31.774 29.806 32.278L28.462 31.382ZM45.416 32.67C45.127 32.3153 44.805 31.9513 44.45 31.578C44.105 31.2047 43.75 30.8453 43.386 30.5C43.031 30.1547 42.691 29.8467 42.364 29.576L43.512 28.568C43.848 28.8387 44.203 29.156 44.576 29.52C44.949 29.8747 45.313 30.2433 45.668 30.626C46.032 30.9993 46.345 31.3447 46.606 31.662L45.416 32.67ZM62.006 20.014H63.378V22.128H62.006V20.014ZM56.756 21.316H68.656V24.158H67.284V22.478H58.058V24.158H56.756V21.316ZM57.96 23.892H67.55V24.97H57.96V23.892ZM56.588 28.274H68.908V29.422H56.588V28.274ZM58.184 26.048H67.326V27.14H58.184V26.048ZM63.476 28.526C63.905 29.478 64.587 30.2293 65.52 30.78C66.463 31.3307 67.648 31.6947 69.076 31.872C68.945 32.0027 68.801 32.1847 68.642 32.418C68.493 32.6513 68.371 32.8567 68.278 33.034C67.261 32.8567 66.365 32.586 65.59 32.222C64.815 31.8673 64.157 31.4053 63.616 30.836C63.075 30.2667 62.631 29.5853 62.286 28.792L63.476 28.526ZM61.978 22.884H63.322V26.552C63.322 27.028 63.275 27.5087 63.182 27.994C63.098 28.4793 62.935 28.9553 62.692 29.422C62.449 29.8887 62.099 30.3367 61.642 30.766C61.185 31.1953 60.592 31.5967 59.864 31.97C59.145 32.3433 58.259 32.684 57.204 32.992C57.157 32.8987 57.087 32.7867 56.994 32.656C56.901 32.5253 56.798 32.3947 56.686 32.264C56.583 32.1333 56.485 32.0213 56.392 31.928C57.409 31.6667 58.254 31.3773 58.926 31.06C59.607 30.7333 60.149 30.3927 60.55 30.038C60.961 29.674 61.269 29.296 61.474 28.904C61.679 28.512 61.815 28.1153 61.88 27.714C61.945 27.3127 61.978 26.916 61.978 26.524V22.884ZM75.236 23.402C75.637 23.4393 76.034 23.472 76.426 23.5C76.827 23.5187 77.238 23.528 77.658 23.528C78.498 23.528 79.338 23.4907 80.178 23.416C81.018 23.3413 81.797 23.234 82.516 23.094V24.452C81.769 24.5733 80.976 24.662 80.136 24.718C79.305 24.774 78.475 24.8067 77.644 24.816C77.233 24.816 76.832 24.8067 76.44 24.788C76.057 24.7693 75.661 24.746 75.25 24.718L75.236 23.402ZM80.318 20.952C80.299 21.092 80.281 21.2367 80.262 21.386C80.253 21.5353 80.243 21.68 80.234 21.82C80.225 21.9787 80.215 22.1887 80.206 22.45C80.206 22.7113 80.201 22.996 80.192 23.304C80.192 23.6027 80.192 23.9013 80.192 24.2C80.192 24.788 80.201 25.3527 80.22 25.894C80.248 26.4353 80.276 26.9487 80.304 27.434C80.332 27.9193 80.355 28.3767 80.374 28.806C80.393 29.226 80.402 29.6087 80.402 29.954C80.402 30.2713 80.36 30.5747 80.276 30.864C80.192 31.1533 80.052 31.41 79.856 31.634C79.66 31.858 79.394 32.0307 79.058 32.152C78.731 32.2827 78.325 32.348 77.84 32.348C76.888 32.348 76.151 32.1613 75.628 31.788C75.105 31.4147 74.844 30.892 74.844 30.22C74.844 29.7907 74.961 29.408 75.194 29.072C75.437 28.736 75.777 28.47 76.216 28.274C76.664 28.078 77.201 27.98 77.826 27.98C78.451 27.98 79.021 28.05 79.534 28.19C80.047 28.3207 80.523 28.5027 80.962 28.736C81.401 28.96 81.793 29.2073 82.138 29.478C82.493 29.7487 82.815 30.01 83.104 30.262L82.348 31.438C81.844 30.9527 81.34 30.5327 80.836 30.178C80.341 29.8233 79.837 29.548 79.324 29.352C78.811 29.156 78.274 29.058 77.714 29.058C77.238 29.058 76.851 29.1513 76.552 29.338C76.263 29.5247 76.118 29.7673 76.118 30.066C76.118 30.3927 76.263 30.64 76.552 30.808C76.841 30.9667 77.21 31.046 77.658 31.046C78.003 31.046 78.274 30.99 78.47 30.878C78.666 30.766 78.806 30.6027 78.89 30.388C78.974 30.1733 79.016 29.9213 79.016 29.632C79.016 29.3893 79.007 29.0627 78.988 28.652C78.969 28.232 78.946 27.7747 78.918 27.28C78.89 26.776 78.867 26.2627 78.848 25.74C78.829 25.208 78.82 24.6993 78.82 24.214C78.82 23.71 78.82 23.248 78.82 22.828C78.82 22.3987 78.82 22.072 78.82 21.848C78.82 21.7267 78.811 21.582 78.792 21.414C78.783 21.2367 78.764 21.0827 78.736 20.952H80.318ZM73.444 21.078C73.416 21.1527 73.383 21.26 73.346 21.4C73.309 21.54 73.271 21.68 73.234 21.82C73.206 21.96 73.183 22.072 73.164 22.156C73.117 22.38 73.061 22.6693 72.996 23.024C72.94 23.3693 72.879 23.752 72.814 24.172C72.758 24.5827 72.702 25.0027 72.646 25.432C72.599 25.8613 72.557 26.272 72.52 26.664C72.492 27.056 72.478 27.4013 72.478 27.7C72.478 27.9427 72.487 28.19 72.506 28.442C72.525 28.6847 72.553 28.9367 72.59 29.198C72.655 29.002 72.73 28.8013 72.814 28.596C72.898 28.3813 72.982 28.1713 73.066 27.966C73.159 27.7607 73.243 27.574 73.318 27.406L74.018 27.952C73.897 28.3067 73.766 28.6893 73.626 29.1C73.486 29.5013 73.36 29.884 73.248 30.248C73.145 30.612 73.066 30.9153 73.01 31.158C72.991 31.2513 72.973 31.3633 72.954 31.494C72.945 31.6153 72.94 31.718 72.94 31.802C72.949 31.8673 72.954 31.9467 72.954 32.04C72.963 32.1427 72.973 32.236 72.982 32.32L71.736 32.418C71.587 31.9233 71.456 31.298 71.344 30.542C71.241 29.7767 71.19 28.918 71.19 27.966C71.19 27.4433 71.213 26.902 71.26 26.342C71.307 25.7727 71.363 25.2173 71.428 24.676C71.503 24.1347 71.573 23.64 71.638 23.192C71.703 22.744 71.759 22.38 71.806 22.1C71.825 21.9227 71.843 21.7313 71.862 21.526C71.89 21.3207 71.909 21.1247 71.918 20.938L73.444 21.078ZM84.196 27.392H91.168V28.484H84.196V27.392ZM84.308 22.478H91.112V23.542H84.308V22.478ZM86.772 26.272L88.004 26.538C87.78 27.0047 87.537 27.4947 87.276 28.008C87.015 28.5213 86.758 29.016 86.506 29.492C86.254 29.968 86.016 30.3927 85.792 30.766L84.63 30.388C84.845 30.0333 85.078 29.6227 85.33 29.156C85.591 28.68 85.843 28.19 86.086 27.686C86.338 27.182 86.567 26.7107 86.772 26.272ZM88.816 28.092L90.048 28.232C89.917 28.932 89.726 29.5433 89.474 30.066C89.222 30.5887 88.886 31.0367 88.466 31.41C88.046 31.7833 87.533 32.096 86.926 32.348C86.329 32.6093 85.619 32.8287 84.798 33.006C84.761 32.8193 84.686 32.6233 84.574 32.418C84.471 32.2127 84.359 32.04 84.238 31.9C85.199 31.7507 85.988 31.5313 86.604 31.242C87.229 30.9433 87.715 30.5373 88.06 30.024C88.415 29.5107 88.667 28.8667 88.816 28.092ZM89.74 20.224L90.874 20.686C90.659 21.0033 90.44 21.3207 90.216 21.638C90.001 21.9553 89.801 22.2307 89.614 22.464L88.732 22.058C88.909 21.806 89.091 21.5073 89.278 21.162C89.474 20.8073 89.628 20.4947 89.74 20.224ZM87.108 19.986H88.34V26.454H87.108V19.986ZM84.756 20.686L85.736 20.28C85.932 20.56 86.109 20.868 86.268 21.204C86.436 21.5307 86.553 21.8153 86.618 22.058L85.596 22.52C85.54 22.268 85.433 21.974 85.274 21.638C85.115 21.2927 84.943 20.9753 84.756 20.686ZM87.15 22.982L88.018 23.5C87.785 23.8827 87.491 24.27 87.136 24.662C86.791 25.0447 86.413 25.3993 86.002 25.726C85.601 26.0527 85.199 26.328 84.798 26.552C84.723 26.4027 84.621 26.23 84.49 26.034C84.359 25.838 84.229 25.6793 84.098 25.558C84.49 25.3993 84.877 25.1847 85.26 24.914C85.652 24.6433 86.011 24.34 86.338 24.004C86.674 23.668 86.945 23.3273 87.15 22.982ZM88.214 23.43C88.335 23.4953 88.513 23.6027 88.746 23.752C88.989 23.892 89.245 24.046 89.516 24.214C89.796 24.3727 90.048 24.5267 90.272 24.676C90.505 24.816 90.669 24.9233 90.762 24.998L90.048 25.922C89.927 25.81 89.759 25.6653 89.544 25.488C89.329 25.3107 89.096 25.1287 88.844 24.942C88.601 24.746 88.363 24.564 88.13 24.396C87.906 24.2187 87.719 24.0787 87.57 23.976L88.214 23.43ZM92.148 22.562H97.202V23.78H92.148V22.562ZM92.4 19.986L93.744 20.182C93.595 21.1153 93.403 22.016 93.17 22.884C92.937 23.752 92.657 24.5547 92.33 25.292C92.003 26.0293 91.63 26.678 91.21 27.238C91.145 27.154 91.047 27.056 90.916 26.944C90.785 26.832 90.65 26.72 90.51 26.608C90.37 26.4867 90.249 26.3933 90.146 26.328C90.547 25.8333 90.893 25.2547 91.182 24.592C91.471 23.92 91.719 23.192 91.924 22.408C92.129 21.624 92.288 20.8167 92.4 19.986ZM95.074 23.29L96.418 23.416C96.203 25.0213 95.877 26.4353 95.438 27.658C95.009 28.8807 94.416 29.9353 93.66 30.822C92.913 31.6993 91.952 32.4367 90.776 33.034C90.739 32.9313 90.673 32.8007 90.58 32.642C90.487 32.4927 90.389 32.3433 90.286 32.194C90.183 32.0447 90.09 31.928 90.006 31.844C91.089 31.34 91.971 30.7007 92.652 29.926C93.343 29.142 93.875 28.1993 94.248 27.098C94.631 25.9967 94.906 24.7273 95.074 23.29ZM92.876 23.584C93.072 24.8253 93.352 25.992 93.716 27.084C94.089 28.1667 94.57 29.1187 95.158 29.94C95.755 30.752 96.488 31.3867 97.356 31.844C97.253 31.928 97.141 32.0353 97.02 32.166C96.899 32.306 96.787 32.446 96.684 32.586C96.581 32.726 96.493 32.8567 96.418 32.978C95.494 32.4367 94.724 31.718 94.108 30.822C93.492 29.9167 92.988 28.8713 92.596 27.686C92.213 26.4913 91.905 25.1893 91.672 23.78L92.876 23.584ZM85.638 30.29L86.352 29.38C86.903 29.5947 87.453 29.8373 88.004 30.108C88.555 30.3693 89.063 30.6447 89.53 30.934C90.006 31.214 90.407 31.48 90.734 31.732L89.824 32.684C89.516 32.4227 89.138 32.1473 88.69 31.858C88.242 31.5687 87.757 31.2887 87.234 31.018C86.711 30.7473 86.179 30.5047 85.638 30.29ZM98.574 20.728H110.852V22.03H98.574V20.728ZM101.038 27.378H108.626V28.582H101.038V27.378ZM101.066 30.892H108.5V32.124H101.066V30.892ZM103.922 21.19L105.504 21.526C105.411 21.8993 105.313 22.2773 105.21 22.66C105.107 23.0427 105.009 23.4067 104.916 23.752C104.823 24.0973 104.729 24.4053 104.636 24.676L103.376 24.354C103.451 24.0647 103.525 23.738 103.6 23.374C103.675 23.0007 103.74 22.6273 103.796 22.254C103.852 21.8713 103.894 21.5167 103.922 21.19ZM100.072 23.906H109.522V33.006H108.122V25.138H101.416V33.006H100.072V23.906ZM112.56 21.008H124.866V22.31H112.56V21.008ZM116.984 24.914H122.738V26.202H116.984V24.914ZM122.276 24.914H123.648C123.648 24.914 123.648 24.956 123.648 25.04C123.648 25.1147 123.643 25.2033 123.634 25.306C123.634 25.3993 123.629 25.474 123.62 25.53C123.573 26.65 123.517 27.602 123.452 28.386C123.387 29.17 123.312 29.8233 123.228 30.346C123.153 30.8687 123.065 31.284 122.962 31.592C122.859 31.9 122.743 32.1287 122.612 32.278C122.425 32.4833 122.225 32.6233 122.01 32.698C121.805 32.782 121.557 32.838 121.268 32.866C121.007 32.894 120.647 32.9033 120.19 32.894C119.742 32.8847 119.28 32.8707 118.804 32.852C118.795 32.656 118.748 32.432 118.664 32.18C118.58 31.9373 118.473 31.7273 118.342 31.55C118.846 31.5873 119.322 31.6107 119.77 31.62C120.218 31.6293 120.54 31.634 120.736 31.634C120.904 31.6433 121.035 31.6387 121.128 31.62C121.231 31.592 121.324 31.5407 121.408 31.466C121.557 31.326 121.683 31.0273 121.786 30.57C121.889 30.1033 121.977 29.4313 122.052 28.554C122.136 27.6673 122.211 26.5333 122.276 25.152V24.914ZM116.13 22.086H117.516C117.488 22.8793 117.446 23.6913 117.39 24.522C117.334 25.3433 117.222 26.16 117.054 26.972C116.895 27.7747 116.657 28.5493 116.34 29.296C116.032 30.0333 115.612 30.7193 115.08 31.354C114.548 31.9793 113.871 32.53 113.05 33.006C112.947 32.8287 112.803 32.6373 112.616 32.432C112.439 32.236 112.261 32.0727 112.084 31.942C112.859 31.5313 113.493 31.0413 113.988 30.472C114.483 29.9027 114.87 29.282 115.15 28.61C115.43 27.938 115.635 27.238 115.766 26.51C115.906 25.7727 115.995 25.0307 116.032 24.284C116.079 23.5373 116.111 22.8047 116.13 22.086ZM130.48 20.784H138.768V32.866H137.494V21.946H131.698V32.978H130.48V20.784ZM132.174 23.85H137.088V24.844H132.174V23.85ZM131.124 30.99H138.152V32.152H131.124V30.99ZM134.078 22.324H135.128V26.79H134.078V22.324ZM133.644 27.182V29.058H135.604V27.182H133.644ZM132.664 26.244H136.626V29.996H132.664V26.244ZM128.898 20.056L130.116 20.42C129.845 21.2133 129.523 22.0113 129.15 22.814C128.786 23.6073 128.38 24.3587 127.932 25.068C127.493 25.768 127.036 26.3887 126.56 26.93C126.523 26.8273 126.467 26.6873 126.392 26.51C126.317 26.3327 126.233 26.1553 126.14 25.978C126.056 25.7913 125.977 25.642 125.902 25.53C126.313 25.082 126.705 24.564 127.078 23.976C127.451 23.388 127.792 22.7627 128.1 22.1C128.408 21.428 128.674 20.7467 128.898 20.056ZM127.736 23.654L128.982 22.408L128.996 22.422V33.006H127.736V23.654ZM147.77 22.24C147.677 22.9587 147.555 23.7193 147.406 24.522C147.266 25.3153 147.075 26.104 146.832 26.888C146.552 27.84 146.235 28.6473 145.88 29.31C145.535 29.9633 145.157 30.4627 144.746 30.808C144.335 31.1533 143.901 31.326 143.444 31.326C142.977 31.326 142.543 31.1673 142.142 30.85C141.741 30.5233 141.414 30.0707 141.162 29.492C140.91 28.904 140.784 28.2227 140.784 27.448C140.784 26.664 140.943 25.922 141.26 25.222C141.587 24.522 142.035 23.9013 142.604 23.36C143.173 22.8187 143.836 22.394 144.592 22.086C145.348 21.778 146.165 21.624 147.042 21.624C147.882 21.624 148.638 21.7593 149.31 22.03C149.991 22.3007 150.57 22.6787 151.046 23.164C151.531 23.64 151.9 24.2 152.152 24.844C152.404 25.488 152.53 26.174 152.53 26.902C152.53 27.882 152.325 28.7547 151.914 29.52C151.513 30.276 150.92 30.8967 150.136 31.382C149.352 31.858 148.391 32.18 147.252 32.348L146.426 31.032C146.669 31.004 146.893 30.976 147.098 30.948C147.303 30.9107 147.495 30.8733 147.672 30.836C148.12 30.7333 148.545 30.5747 148.946 30.36C149.357 30.1453 149.721 29.8747 150.038 29.548C150.355 29.212 150.603 28.82 150.78 28.372C150.967 27.924 151.06 27.42 151.06 26.86C151.06 26.3 150.971 25.782 150.794 25.306C150.617 24.8207 150.355 24.4007 150.01 24.046C149.665 23.6913 149.24 23.416 148.736 23.22C148.232 23.0147 147.663 22.912 147.028 22.912C146.263 22.912 145.581 23.0473 144.984 23.318C144.387 23.5887 143.878 23.948 143.458 24.396C143.047 24.8347 142.735 25.3107 142.52 25.824C142.305 26.3373 142.198 26.832 142.198 27.308C142.198 27.84 142.263 28.2833 142.394 28.638C142.525 28.9833 142.688 29.24 142.884 29.408C143.08 29.576 143.281 29.66 143.486 29.66C143.691 29.66 143.901 29.5573 144.116 29.352C144.331 29.1373 144.545 28.8013 144.76 28.344C144.984 27.8867 145.203 27.3033 145.418 26.594C145.633 25.922 145.81 25.208 145.95 24.452C146.099 23.6867 146.207 22.94 146.272 22.212L147.77 22.24ZM154.476 21.484H158.83V22.646H154.476V21.484ZM154.392 27.154H160.398V28.288H154.392V27.154ZM156.884 25.712H158.088V32.964H156.884V25.712ZM157.976 28.582C158.097 28.6567 158.275 28.7827 158.508 28.96C158.741 29.128 158.989 29.3147 159.25 29.52C159.521 29.716 159.768 29.9027 159.992 30.08C160.216 30.2573 160.375 30.3833 160.468 30.458L159.726 31.494C159.605 31.3447 159.437 31.1673 159.222 30.962C159.017 30.7473 158.793 30.5327 158.55 30.318C158.307 30.094 158.074 29.884 157.85 29.688C157.635 29.492 157.453 29.3333 157.304 29.212L157.976 28.582ZM156.94 27.616L157.864 28.162C157.64 28.666 157.355 29.1793 157.01 29.702C156.674 30.2153 156.305 30.7007 155.904 31.158C155.512 31.6153 155.115 32.0073 154.714 32.334C154.639 32.1753 154.532 31.9887 154.392 31.774C154.261 31.5593 154.131 31.3867 154 31.256C154.373 31.004 154.747 30.682 155.12 30.29C155.493 29.8887 155.839 29.4593 156.156 29.002C156.483 28.5353 156.744 28.0733 156.94 27.616ZM156.198 19.986H157.304V21.148C157.304 21.568 157.276 22.0067 157.22 22.464C157.173 22.9213 157.071 23.3833 156.912 23.85C156.763 24.3167 156.525 24.774 156.198 25.222C155.881 25.6607 155.456 26.0713 154.924 26.454C154.831 26.3327 154.695 26.1927 154.518 26.034C154.341 25.866 154.177 25.74 154.028 25.656C154.523 25.32 154.915 24.9607 155.204 24.578C155.493 24.1953 155.708 23.808 155.848 23.416C155.997 23.0147 156.091 22.618 156.128 22.226C156.175 21.834 156.198 21.4653 156.198 21.12V19.986ZM161.448 25.096H166.894V26.23H161.448V25.096ZM161.448 27.952H166.922V29.086H161.448V27.952ZM161.504 31.13H167.23V32.334H161.504V31.13ZM161.98 19.944L163.17 20.252C162.983 20.7933 162.759 21.33 162.498 21.862C162.237 22.3847 161.957 22.8747 161.658 23.332C161.359 23.7893 161.051 24.1907 160.734 24.536C160.659 24.4613 160.557 24.382 160.426 24.298C160.295 24.2047 160.165 24.116 160.034 24.032C159.903 23.9387 159.787 23.8687 159.684 23.822C160.169 23.346 160.613 22.7673 161.014 22.086C161.415 21.3953 161.737 20.6813 161.98 19.944ZM164.808 20.042L166.124 20.364C165.928 20.8307 165.718 21.302 165.494 21.778C165.279 22.2447 165.074 22.646 164.878 22.982L163.786 22.674C163.917 22.4313 164.043 22.1607 164.164 21.862C164.295 21.554 164.416 21.2413 164.528 20.924C164.64 20.6067 164.733 20.3127 164.808 20.042ZM162.232 22.226H167.062V23.43H162.232V32.964H161.028V22.73L161.504 22.226H162.232ZM163.912 22.786H165.13V31.494H163.912V22.786ZM158.242 21.484H159.334V24.69C159.334 24.9233 159.348 25.054 159.376 25.082C159.395 25.1007 159.413 25.1147 159.432 25.124C159.46 25.1333 159.488 25.138 159.516 25.138C159.544 25.138 159.581 25.138 159.628 25.138C159.684 25.138 159.726 25.138 159.754 25.138C159.829 25.138 159.889 25.1287 159.936 25.11C159.955 25.0913 159.973 25.0727 159.992 25.054C160.02 25.026 160.039 24.9887 160.048 24.942C160.067 24.8953 160.081 24.8207 160.09 24.718C160.099 24.606 160.109 24.48 160.118 24.34C160.211 24.4147 160.328 24.4893 160.468 24.564C160.617 24.6387 160.757 24.6993 160.888 24.746C160.879 24.9233 160.86 25.096 160.832 25.264C160.804 25.432 160.771 25.5533 160.734 25.628C160.65 25.7867 160.529 25.9033 160.37 25.978C160.295 26.006 160.207 26.0293 160.104 26.048C160.001 26.0667 159.903 26.076 159.81 26.076C159.726 26.076 159.628 26.076 159.516 26.076C159.404 26.076 159.306 26.076 159.222 26.076C159.091 26.076 158.956 26.0573 158.816 26.02C158.685 25.9827 158.573 25.922 158.48 25.838C158.387 25.7353 158.321 25.6047 158.284 25.446C158.256 25.2873 158.242 25.0213 158.242 24.648V21.484ZM3.10799 47.112H10.318V48.078H3.10799V47.112ZM6.10399 45.726H7.252V50.962H6.10399V45.726ZM8.87599 44.872L9.702 45.642C9.189 45.7727 8.596 45.8893 7.924 45.992C7.252 46.0947 6.557 46.174 5.838 46.23C5.129 46.286 4.443 46.328 3.78 46.356C3.761 46.244 3.724 46.1087 3.668 45.95C3.612 45.7913 3.556 45.656 3.5 45.544C3.976 45.516 4.466 45.4833 4.97 45.446C5.474 45.4087 5.96399 45.362 6.43999 45.306C6.92499 45.2407 7.373 45.1753 7.784 45.11C8.204 45.0353 8.56799 44.956 8.87599 44.872ZM5.96399 47.588L6.832 47.938C6.589 48.33 6.286 48.7127 5.922 49.086C5.558 49.45 5.17099 49.7907 4.75999 50.108C4.34899 50.416 3.939 50.668 3.528 50.864C3.444 50.7333 3.32699 50.584 3.17799 50.416C3.03799 50.248 2.907 50.1173 2.786 50.024C3.187 49.856 3.58899 49.646 3.98999 49.394C4.39099 49.142 4.765 48.862 5.11 48.554C5.455 48.2367 5.73999 47.9147 5.96399 47.588ZM0.503998 40.854H12.908V42.03H0.503998V40.854ZM1.974 51.326H11.48V52.474H1.974V51.326ZM3.70999 40H5.01199V43.052H3.70999V40ZM8.34399 40H9.65999V43.052H8.34399V40ZM1.31599 43.486H12.166V53.006H10.864V44.606H2.57599V53.006H1.31599V43.486ZM7.448 47.7C7.672 47.9987 7.95199 48.2973 8.28799 48.596C8.63299 48.8947 8.99699 49.1653 9.37999 49.408C9.77199 49.6507 10.15 49.8467 10.514 49.996C10.402 50.0987 10.271 50.234 10.122 50.402C9.97299 50.5607 9.851 50.7053 9.758 50.836C9.394 50.6493 9.011 50.4067 8.61 50.108C8.218 49.8093 7.84499 49.4827 7.48999 49.128C7.14499 48.764 6.85499 48.4093 6.62199 48.064L7.448 47.7ZM19.838 40.91C19.801 41.05 19.763 41.2087 19.726 41.386C19.698 41.5633 19.665 41.7267 19.628 41.876C19.6 42.0627 19.558 42.296 19.502 42.576C19.446 42.8467 19.39 43.1313 19.334 43.43C19.287 43.7193 19.231 43.9993 19.166 44.27C19.073 44.662 18.956 45.1147 18.816 45.628C18.676 46.1413 18.513 46.692 18.326 47.28C18.149 47.8587 17.943 48.4513 17.71 49.058C17.486 49.6553 17.239 50.2433 16.968 50.822C16.707 51.3913 16.422 51.923 16.114 52.418L14.672 51.844C14.999 51.4147 15.302 50.9293 15.582 50.388C15.862 49.8467 16.119 49.2913 16.352 48.722C16.585 48.1433 16.795 47.574 16.982 47.014C17.169 46.454 17.327 45.936 17.458 45.46C17.589 44.9747 17.691 44.5593 17.766 44.214C17.897 43.6167 17.999 43.0193 18.074 42.422C18.158 41.8247 18.2 41.2647 18.2 40.742L19.838 40.91ZM24.654 42.436C24.869 42.7253 25.097 43.0893 25.34 43.528C25.592 43.9573 25.835 44.4147 26.068 44.9C26.301 45.3853 26.516 45.8567 26.712 46.314C26.908 46.762 27.062 47.1493 27.174 47.476L25.788 48.134C25.685 47.7607 25.545 47.3407 25.368 46.874C25.2 46.4073 25.004 45.936 24.78 45.46C24.565 44.9747 24.332 44.5173 24.08 44.088C23.837 43.6587 23.595 43.2993 23.352 43.01L24.654 42.436ZM14.518 43.892C14.751 43.9013 14.975 43.906 15.19 43.906C15.405 43.906 15.633 43.9013 15.876 43.892C16.091 43.8827 16.361 43.8687 16.688 43.85C17.024 43.822 17.379 43.794 17.752 43.766C18.135 43.7287 18.513 43.696 18.886 43.668C19.259 43.6307 19.605 43.6027 19.922 43.584C20.249 43.5653 20.51 43.556 20.706 43.556C21.154 43.556 21.555 43.6307 21.91 43.78C22.274 43.92 22.559 44.172 22.764 44.536C22.979 44.9 23.086 45.4087 23.086 46.062C23.086 46.6127 23.058 47.21 23.002 47.854C22.955 48.4887 22.871 49.1 22.75 49.688C22.638 50.2667 22.484 50.752 22.288 51.144C22.064 51.6293 21.77 51.956 21.406 52.124C21.042 52.292 20.617 52.376 20.132 52.376C19.861 52.376 19.572 52.353 19.264 52.306C18.965 52.269 18.699 52.222 18.466 52.166L18.228 50.71C18.424 50.766 18.629 50.8173 18.844 50.864C19.059 50.9013 19.264 50.934 19.46 50.962C19.656 50.9807 19.819 50.99 19.95 50.99C20.193 50.99 20.412 50.948 20.608 50.864C20.804 50.7707 20.967 50.5933 21.098 50.332C21.238 50.0333 21.35 49.6553 21.434 49.198C21.527 48.7407 21.597 48.2507 21.644 47.728C21.691 47.2053 21.714 46.7013 21.714 46.216C21.714 45.8053 21.658 45.502 21.546 45.306C21.434 45.11 21.271 44.9793 21.056 44.914C20.841 44.8393 20.585 44.802 20.286 44.802C20.062 44.802 19.754 44.8207 19.362 44.858C18.979 44.886 18.569 44.9233 18.13 44.97C17.701 45.0167 17.295 45.0633 16.912 45.11C16.539 45.1473 16.249 45.18 16.044 45.208C15.867 45.2267 15.638 45.2547 15.358 45.292C15.087 45.3293 14.854 45.3667 14.658 45.404L14.518 43.892ZM24.626 40.434C24.747 40.602 24.878 40.8027 25.018 41.036C25.158 41.2693 25.293 41.5027 25.424 41.736C25.555 41.9693 25.667 42.1793 25.76 42.366L24.836 42.758C24.752 42.5713 24.645 42.3613 24.514 42.128C24.383 41.8947 24.248 41.6613 24.108 41.428C23.977 41.1947 23.847 40.9893 23.716 40.812L24.626 40.434ZM26.222 39.846C26.343 40.0233 26.479 40.2287 26.628 40.462C26.777 40.6953 26.917 40.9287 27.048 41.162C27.188 41.386 27.3 41.582 27.384 41.75L26.474 42.156C26.325 41.8573 26.143 41.526 25.928 41.162C25.723 40.798 25.517 40.4853 25.312 40.224L26.222 39.846ZM36.582 39.986L37.758 40.28C37.506 40.98 37.175 41.652 36.764 42.296C36.363 42.94 35.924 43.4813 35.448 43.92C35.392 43.8453 35.308 43.7567 35.196 43.654C35.084 43.542 34.972 43.4347 34.86 43.332C34.748 43.2293 34.645 43.1453 34.552 43.08C35 42.6973 35.401 42.2353 35.756 41.694C36.111 41.1527 36.386 40.5833 36.582 39.986ZM39.018 41.736L40.236 41.862C40.031 42.7767 39.704 43.57 39.256 44.242C38.817 44.914 38.276 45.4833 37.632 45.95C36.988 46.4073 36.246 46.7947 35.406 47.112C35.369 47.028 35.299 46.9253 35.196 46.804C35.103 46.6827 35.005 46.5613 34.902 46.44C34.799 46.3187 34.711 46.2253 34.636 46.16C35.821 45.796 36.783 45.2593 37.52 44.55C38.267 43.8407 38.766 42.9027 39.018 41.736ZM36.344 41.344H41.048V42.366H35.826L36.344 41.344ZM30.058 39.958L31.164 40.238C30.94 40.742 30.646 41.232 30.282 41.708C29.927 42.1747 29.563 42.5713 29.19 42.898C29.125 42.8327 29.031 42.758 28.91 42.674C28.798 42.59 28.681 42.5107 28.56 42.436C28.439 42.3613 28.331 42.296 28.238 42.24C28.611 41.9507 28.957 41.61 29.274 41.218C29.601 40.8167 29.862 40.3967 30.058 39.958ZM29.96 40.84H35.028V41.708H29.54L29.96 40.84ZM36.75 42.142C37.114 43.1407 37.683 43.9947 38.458 44.704C39.242 45.404 40.217 45.8987 41.384 46.188C41.263 46.3093 41.123 46.4773 40.964 46.692C40.815 46.8973 40.698 47.084 40.614 47.252C39.382 46.8787 38.365 46.2767 37.562 45.446C36.759 44.6153 36.148 43.5933 35.728 42.38L36.75 42.142ZM34.006 50.052H35.322V53.006H34.006V50.052ZM33.628 46.412L34.734 46.93C34.37 47.2287 33.983 47.518 33.572 47.798C33.161 48.0687 32.788 48.3067 32.452 48.512L31.598 48.036C31.822 47.8867 32.06 47.7187 32.312 47.532C32.564 47.3453 32.807 47.154 33.04 46.958C33.273 46.7527 33.469 46.5707 33.628 46.412ZM36.33 46.944L37.436 47.56C36.96 47.8867 36.442 48.218 35.882 48.554C35.322 48.8807 34.762 49.1933 34.202 49.492C33.642 49.7813 33.115 50.0333 32.62 50.248L31.836 49.702C32.321 49.4687 32.839 49.1933 33.39 48.876C33.941 48.5587 34.473 48.232 34.986 47.896C35.509 47.5507 35.957 47.2333 36.33 46.944ZM29.918 48.134L30.814 47.42C31.15 47.56 31.5 47.728 31.864 47.924C32.237 48.12 32.592 48.316 32.928 48.512C33.273 48.708 33.558 48.8993 33.782 49.086L32.83 49.856C32.625 49.688 32.359 49.5013 32.032 49.296C31.705 49.0813 31.355 48.8713 30.982 48.666C30.618 48.4607 30.263 48.2833 29.918 48.134ZM36.806 48.792L37.716 48.176C38.099 48.3627 38.495 48.5773 38.906 48.82C39.326 49.0627 39.723 49.3147 40.096 49.576C40.479 49.828 40.791 50.066 41.034 50.29L40.082 50.976C39.858 50.752 39.564 50.5093 39.2 50.248C38.836 49.9867 38.444 49.73 38.024 49.478C37.604 49.2167 37.198 48.988 36.806 48.792ZM36.498 51.256L37.436 50.57C37.819 50.6913 38.225 50.8407 38.654 51.018C39.083 51.186 39.494 51.3633 39.886 51.55C40.287 51.7273 40.619 51.9 40.88 52.068L39.872 52.838C39.629 52.679 39.317 52.502 38.934 52.306C38.551 52.119 38.145 51.933 37.716 51.746C37.287 51.5593 36.881 51.396 36.498 51.256ZM28.574 49.548C29.246 49.548 30.002 49.5433 30.842 49.534C31.691 49.5247 32.597 49.5153 33.558 49.506C34.519 49.4873 35.509 49.4733 36.526 49.464C37.553 49.4453 38.57 49.422 39.578 49.394L39.522 50.332C38.533 50.36 37.539 50.388 36.54 50.416C35.541 50.444 34.566 50.472 33.614 50.5C32.671 50.5187 31.775 50.5373 30.926 50.556C30.077 50.5747 29.316 50.5933 28.644 50.612L28.574 49.548ZM31.71 50.626L32.872 51.088C32.564 51.3213 32.205 51.55 31.794 51.774C31.383 51.989 30.963 52.189 30.534 52.376C30.105 52.572 29.689 52.735 29.288 52.866C29.223 52.791 29.129 52.698 29.008 52.586C28.896 52.474 28.779 52.362 28.658 52.25C28.537 52.138 28.429 52.049 28.336 51.984C28.933 51.825 29.54 51.6293 30.156 51.396C30.781 51.1533 31.299 50.8967 31.71 50.626ZM29.526 42.282H30.562C30.506 42.7393 30.431 43.2293 30.338 43.752C30.245 44.2653 30.151 44.7647 30.058 45.25C29.974 45.7353 29.89 46.1647 29.806 46.538L28.77 46.426C28.854 46.0527 28.943 45.628 29.036 45.152C29.139 44.676 29.232 44.1907 29.316 43.696C29.4 43.192 29.47 42.7207 29.526 42.282ZM31.542 42.562H32.452C32.415 42.8887 32.373 43.234 32.326 43.598C32.279 43.962 32.233 44.3167 32.186 44.662C32.149 44.998 32.102 45.3013 32.046 45.572L31.136 45.544C31.183 45.2733 31.234 44.97 31.29 44.634C31.346 44.2887 31.393 43.9387 31.43 43.584C31.477 43.22 31.514 42.8793 31.542 42.562ZM29.904 42.282H33.908V43.01H29.904V42.282ZM28.322 43.696H35.266V44.438H28.322V43.696ZM29.47 45.194H35.252V45.936H29.47V45.194ZM33.572 42.282H34.552C34.552 42.282 34.547 42.3333 34.538 42.436C34.538 42.5387 34.533 42.6273 34.524 42.702C34.468 43.598 34.407 44.326 34.342 44.886C34.277 45.4367 34.202 45.8613 34.118 46.16C34.043 46.4587 33.95 46.6687 33.838 46.79C33.735 46.9113 33.619 47 33.488 47.056C33.367 47.1027 33.222 47.1307 33.054 47.14C32.914 47.1493 32.732 47.154 32.508 47.154C32.284 47.154 32.051 47.1447 31.808 47.126C31.799 47.014 31.771 46.8787 31.724 46.72C31.687 46.552 31.635 46.4167 31.57 46.314C31.803 46.342 32.013 46.3607 32.2 46.37C32.396 46.37 32.541 46.37 32.634 46.37C32.718 46.37 32.788 46.3607 32.844 46.342C32.9 46.3233 32.956 46.286 33.012 46.23C33.087 46.1367 33.157 45.9593 33.222 45.698C33.287 45.4273 33.348 45.0307 33.404 44.508C33.469 43.9853 33.525 43.2947 33.572 42.436V42.282ZM47.824 41.4H55.034V42.548H47.824V41.4ZM48.146 51.13H55.216V52.292H48.146V51.13ZM47.432 44.564H48.622V52.992H47.432V44.564ZM50.666 46.412V47.364H53.256V46.412H50.666ZM50.666 48.302V49.268H53.256V48.302H50.666ZM50.666 44.536V45.474H53.256V44.536H50.666ZM49.504 43.542H54.46V50.248H49.504V43.542ZM51.044 40L52.402 40.084C52.365 40.4947 52.313 40.9333 52.248 41.4C52.192 41.8573 52.131 42.3007 52.066 42.73C52.001 43.1593 51.94 43.542 51.884 43.878H50.652C50.717 43.5327 50.773 43.1407 50.82 42.702C50.867 42.254 50.909 41.7967 50.946 41.33C50.983 40.854 51.016 40.4107 51.044 40ZM42.462 40.616H47.46V41.834H42.462V40.616ZM44.184 43.64H46.648V44.83H44.184V43.64ZM43.26 47.042L43.918 46.09C44.17 46.23 44.431 46.3933 44.702 46.58C44.973 46.7667 45.225 46.958 45.458 47.154C45.701 47.35 45.887 47.532 46.018 47.7L45.346 48.764C45.206 48.596 45.019 48.4093 44.786 48.204C44.562 47.9893 44.315 47.784 44.044 47.588C43.783 47.3827 43.521 47.2007 43.26 47.042ZM44.114 41.008L45.374 41.204C45.234 42.1093 45.057 42.9867 44.842 43.836C44.627 44.6853 44.371 45.474 44.072 46.202C43.773 46.9207 43.428 47.5553 43.036 48.106C42.971 48.022 42.877 47.924 42.756 47.812C42.644 47.7 42.523 47.588 42.392 47.476C42.271 47.364 42.163 47.2753 42.07 47.21C42.434 46.7247 42.747 46.1553 43.008 45.502C43.279 44.8487 43.503 44.1393 43.68 43.374C43.867 42.6087 44.011 41.82 44.114 41.008ZM46.214 43.64H46.452L46.676 43.598L47.432 43.822C47.189 46.0993 46.723 48.0127 46.032 49.562C45.341 51.102 44.483 52.269 43.456 53.062C43.4 52.969 43.316 52.861 43.204 52.74C43.092 52.619 42.975 52.502 42.854 52.39C42.742 52.278 42.639 52.194 42.546 52.138C43.535 51.41 44.343 50.36 44.968 48.988C45.593 47.6067 46.009 45.9127 46.214 43.906V43.64ZM60.662 40.826C60.625 41.078 60.592 41.3487 60.564 41.638C60.536 41.918 60.517 42.184 60.508 42.436C60.489 42.8187 60.471 43.2947 60.452 43.864C60.433 44.424 60.415 45.0213 60.396 45.656C60.377 46.2813 60.363 46.902 60.354 47.518C60.345 48.1247 60.34 48.6707 60.34 49.156C60.34 49.6507 60.429 50.0427 60.606 50.332C60.793 50.6213 61.049 50.8313 61.376 50.962C61.703 51.0833 62.067 51.144 62.468 51.144C63.084 51.144 63.639 51.0647 64.134 50.906C64.629 50.7473 65.072 50.5327 65.464 50.262C65.865 49.9913 66.225 49.6833 66.542 49.338C66.859 48.9927 67.144 48.6333 67.396 48.26L68.39 49.478C68.157 49.814 67.863 50.164 67.508 50.528C67.153 50.892 66.729 51.2327 66.234 51.55C65.749 51.867 65.189 52.124 64.554 52.32C63.929 52.516 63.224 52.614 62.44 52.614C61.731 52.614 61.11 52.507 60.578 52.292C60.046 52.077 59.631 51.732 59.332 51.256C59.033 50.78 58.884 50.1547 58.884 49.38C58.884 48.9787 58.889 48.526 58.898 48.022C58.907 47.518 58.917 47 58.926 46.468C58.945 45.9267 58.959 45.3993 58.968 44.886C58.987 44.3727 59.001 43.9013 59.01 43.472C59.019 43.0427 59.024 42.6973 59.024 42.436C59.024 42.1373 59.01 41.8527 58.982 41.582C58.963 41.302 58.926 41.0453 58.87 40.812L60.662 40.826ZM70.388 42.366C70.659 42.3567 70.911 42.3473 71.144 42.338C71.378 42.3193 71.56 42.3053 71.69 42.296C71.942 42.2773 72.278 42.2493 72.698 42.212C73.128 42.1653 73.613 42.1187 74.154 42.072C74.696 42.016 75.274 41.9647 75.89 41.918C76.506 41.862 77.136 41.806 77.78 41.75C78.284 41.7033 78.77 41.666 79.236 41.638C79.703 41.6007 80.142 41.5727 80.552 41.554C80.963 41.526 81.327 41.5073 81.644 41.498V42.912C81.392 42.912 81.098 42.9167 80.762 42.926C80.436 42.9353 80.109 42.954 79.782 42.982C79.456 43.01 79.171 43.0567 78.928 43.122C78.462 43.262 78.037 43.4813 77.654 43.78C77.272 44.0787 76.945 44.424 76.674 44.816C76.404 45.208 76.194 45.6233 76.044 46.062C75.895 46.4913 75.82 46.916 75.82 47.336C75.82 47.84 75.909 48.2833 76.086 48.666C76.264 49.0487 76.506 49.3753 76.814 49.646C77.122 49.9073 77.472 50.1267 77.864 50.304C78.266 50.472 78.69 50.598 79.138 50.682C79.596 50.766 80.058 50.8173 80.524 50.836L80.006 52.32C79.456 52.301 78.91 52.222 78.368 52.082C77.836 51.942 77.328 51.7507 76.842 51.508C76.366 51.256 75.942 50.948 75.568 50.584C75.204 50.2107 74.915 49.7813 74.7 49.296C74.495 48.8107 74.392 48.2553 74.392 47.63C74.392 46.93 74.509 46.2813 74.742 45.684C74.985 45.0867 75.288 44.5687 75.652 44.13C76.026 43.682 76.399 43.332 76.772 43.08C76.492 43.1173 76.147 43.1593 75.736 43.206C75.326 43.2433 74.882 43.29 74.406 43.346C73.94 43.3927 73.468 43.4487 72.992 43.514C72.516 43.57 72.064 43.6307 71.634 43.696C71.214 43.7613 70.85 43.8313 70.542 43.906L70.388 42.366ZM86.628 41.946C86.6 42.0767 86.577 42.2353 86.558 42.422C86.54 42.6087 86.521 42.7953 86.502 42.982C86.493 43.1687 86.488 43.3273 86.488 43.458C86.488 43.7473 86.488 44.0693 86.488 44.424C86.498 44.7787 86.507 45.1427 86.516 45.516C86.526 45.88 86.549 46.244 86.586 46.608C86.661 47.3453 86.773 47.9893 86.922 48.54C87.072 49.0907 87.263 49.52 87.496 49.828C87.73 50.136 88 50.29 88.308 50.29C88.486 50.29 88.654 50.206 88.812 50.038C88.971 49.87 89.12 49.646 89.26 49.366C89.4 49.086 89.526 48.7827 89.638 48.456C89.76 48.12 89.862 47.798 89.946 47.49L91.052 48.792C90.754 49.5853 90.455 50.22 90.156 50.696C89.867 51.1627 89.568 51.4987 89.26 51.704C88.952 51.909 88.626 52.012 88.28 52.012C87.814 52.012 87.366 51.853 86.936 51.536C86.516 51.2093 86.152 50.6773 85.844 49.94C85.536 49.2027 85.317 48.218 85.186 46.986C85.14 46.5753 85.102 46.132 85.074 45.656C85.056 45.18 85.042 44.7273 85.032 44.298C85.032 43.8687 85.032 43.514 85.032 43.234C85.032 43.0567 85.023 42.842 85.004 42.59C84.995 42.3287 84.967 42.1047 84.92 41.918L86.628 41.946ZM93.796 42.296C94.048 42.6227 94.291 43.0053 94.524 43.444C94.767 43.8733 94.986 44.34 95.182 44.844C95.378 45.348 95.551 45.8613 95.7 46.384C95.859 46.9067 95.99 47.4247 96.092 47.938C96.195 48.4513 96.265 48.9367 96.302 49.394L94.86 49.954C94.804 49.3473 94.711 48.7127 94.58 48.05C94.45 47.3873 94.282 46.734 94.076 46.09C93.871 45.4367 93.628 44.8253 93.348 44.256C93.078 43.6773 92.765 43.178 92.41 42.758L93.796 42.296ZM100.502 41.344C100.68 41.3627 100.866 41.3767 101.062 41.386C101.268 41.3953 101.454 41.4 101.622 41.4C101.762 41.4 101.986 41.4 102.294 41.4C102.612 41.3907 102.966 41.3813 103.358 41.372C103.76 41.3627 104.156 41.3533 104.548 41.344C104.94 41.3253 105.29 41.3067 105.598 41.288C105.916 41.2693 106.149 41.2553 106.298 41.246C106.55 41.2273 106.742 41.2087 106.872 41.19C107.012 41.1713 107.12 41.148 107.194 41.12L107.964 42.128C107.824 42.2213 107.68 42.3147 107.53 42.408C107.381 42.5013 107.232 42.6087 107.082 42.73C106.905 42.8607 106.672 43.0427 106.382 43.276C106.102 43.5 105.799 43.752 105.472 44.032C105.146 44.3027 104.824 44.5687 104.506 44.83C104.189 45.0913 103.904 45.3247 103.652 45.53C103.932 45.4367 104.212 45.376 104.492 45.348C104.772 45.3107 105.052 45.292 105.332 45.292C106.107 45.292 106.802 45.4413 107.418 45.74C108.034 46.0387 108.52 46.44 108.874 46.944C109.229 47.448 109.406 48.0313 109.406 48.694C109.406 49.4313 109.21 50.0893 108.818 50.668C108.436 51.2467 107.876 51.6993 107.138 52.026C106.41 52.353 105.524 52.516 104.478 52.516C103.834 52.516 103.27 52.427 102.784 52.25C102.299 52.073 101.921 51.825 101.65 51.508C101.389 51.1813 101.258 50.808 101.258 50.388C101.258 50.0427 101.352 49.7207 101.538 49.422C101.734 49.114 102.005 48.8713 102.35 48.694C102.705 48.5073 103.111 48.414 103.568 48.414C104.203 48.414 104.73 48.5447 105.15 48.806C105.58 49.058 105.906 49.394 106.13 49.814C106.364 50.234 106.49 50.6913 106.508 51.186L105.234 51.368C105.206 50.808 105.043 50.3507 104.744 49.996C104.455 49.6413 104.063 49.464 103.568 49.464C103.27 49.464 103.022 49.5433 102.826 49.702C102.64 49.8607 102.546 50.0473 102.546 50.262C102.546 50.57 102.7 50.8127 103.008 50.99C103.326 51.1673 103.732 51.256 104.226 51.256C105.02 51.256 105.696 51.158 106.256 50.962C106.816 50.7567 107.241 50.4627 107.53 50.08C107.82 49.688 107.964 49.2167 107.964 48.666C107.964 48.2273 107.834 47.8353 107.572 47.49C107.311 47.1447 106.952 46.8787 106.494 46.692C106.037 46.496 105.514 46.398 104.926 46.398C104.366 46.398 103.853 46.4633 103.386 46.594C102.929 46.7153 102.5 46.8973 102.098 47.14C101.697 47.3733 101.3 47.6673 100.908 48.022C100.526 48.3673 100.129 48.764 99.718 49.212L98.696 48.176C98.976 47.952 99.284 47.7 99.62 47.42C99.956 47.14 100.292 46.86 100.628 46.58C100.974 46.2907 101.296 46.02 101.594 45.768C101.902 45.5067 102.159 45.292 102.364 45.124C102.56 44.9653 102.798 44.774 103.078 44.55C103.358 44.3167 103.648 44.074 103.946 43.822C104.245 43.57 104.53 43.332 104.8 43.108C105.071 42.8747 105.295 42.6787 105.472 42.52C105.323 42.5293 105.118 42.5387 104.856 42.548C104.595 42.5573 104.306 42.5713 103.988 42.59C103.68 42.5993 103.368 42.6133 103.05 42.632C102.733 42.6413 102.444 42.6553 102.182 42.674C101.921 42.6833 101.72 42.6927 101.58 42.702C101.412 42.7113 101.235 42.7253 101.048 42.744C100.871 42.7533 100.703 42.7673 100.544 42.786L100.502 41.344ZM114.46 41.834C114.974 41.8993 115.548 41.946 116.182 41.974C116.826 42.002 117.503 42.016 118.212 42.016C118.67 42.016 119.132 42.0067 119.598 41.988C120.065 41.9693 120.513 41.946 120.942 41.918C121.381 41.8807 121.773 41.848 122.118 41.82V43.276C121.801 43.304 121.418 43.332 120.97 43.36C120.532 43.388 120.074 43.4113 119.598 43.43C119.122 43.4393 118.665 43.444 118.226 43.444C117.508 43.444 116.84 43.43 116.224 43.402C115.608 43.3647 115.02 43.3273 114.46 43.29V41.834ZM115.3 47.602C115.216 47.8633 115.151 48.12 115.104 48.372C115.058 48.624 115.034 48.8713 115.034 49.114C115.034 49.6087 115.286 50.0147 115.79 50.332C116.304 50.6493 117.092 50.808 118.156 50.808C118.8 50.808 119.416 50.7847 120.004 50.738C120.602 50.6913 121.157 50.626 121.67 50.542C122.184 50.458 122.627 50.36 123 50.248L123.014 51.788C122.65 51.881 122.216 51.965 121.712 52.04C121.218 52.115 120.672 52.171 120.074 52.208C119.486 52.255 118.866 52.278 118.212 52.278C117.214 52.278 116.369 52.166 115.678 51.942C114.988 51.7273 114.465 51.41 114.11 50.99C113.756 50.57 113.578 50.0567 113.578 49.45C113.578 49.0673 113.611 48.7127 113.676 48.386C113.742 48.05 113.802 47.7467 113.858 47.476L115.3 47.602ZM136.79 43.542C136.613 43.654 136.422 43.766 136.216 43.878C136.02 43.9807 135.81 44.088 135.586 44.2C135.353 44.3213 135.073 44.466 134.746 44.634C134.42 44.7927 134.065 44.97 133.682 45.166C133.3 45.3527 132.917 45.5533 132.534 45.768C132.161 45.9827 131.806 46.1973 131.47 46.412C130.854 46.8227 130.364 47.2473 130 47.686C129.636 48.1247 129.454 48.6053 129.454 49.128C129.454 49.6693 129.716 50.094 130.238 50.402C130.761 50.71 131.545 50.864 132.59 50.864C133.094 50.864 133.622 50.8453 134.172 50.808C134.723 50.7613 135.255 50.7007 135.768 50.626C136.291 50.5513 136.739 50.4627 137.112 50.36L137.098 51.956C136.734 52.012 136.319 52.068 135.852 52.124C135.386 52.18 134.882 52.222 134.34 52.25C133.808 52.278 133.244 52.292 132.646 52.292C131.974 52.292 131.349 52.241 130.77 52.138C130.201 52.035 129.706 51.867 129.286 51.634C128.866 51.4007 128.54 51.0927 128.306 50.71C128.073 50.318 127.956 49.842 127.956 49.282C127.956 48.7407 128.073 48.2413 128.306 47.784C128.549 47.3267 128.88 46.8973 129.3 46.496C129.72 46.0947 130.206 45.712 130.756 45.348C131.102 45.1147 131.47 44.886 131.862 44.662C132.254 44.438 132.637 44.2233 133.01 44.018C133.393 43.8127 133.748 43.626 134.074 43.458C134.401 43.29 134.676 43.1407 134.9 43.01C135.124 42.8793 135.325 42.758 135.502 42.646C135.689 42.534 135.862 42.408 136.02 42.268L136.79 43.542ZM129.72 40.812C129.944 41.4093 130.182 41.9973 130.434 42.576C130.686 43.1453 130.938 43.6773 131.19 44.172C131.452 44.6667 131.69 45.1053 131.904 45.488L130.672 46.216C130.43 45.8147 130.178 45.3527 129.916 44.83C129.655 44.298 129.389 43.738 129.118 43.15C128.848 42.562 128.586 41.974 128.334 41.386L129.72 40.812ZM6.062 60.714C6.015 60.929 5.97299 61.125 5.93599 61.302C5.90799 61.479 5.87999 61.652 5.85199 61.82C5.82399 62.053 5.782 62.361 5.726 62.744C5.679 63.117 5.623 63.537 5.558 64.004C5.493 64.471 5.43199 64.951 5.37599 65.446C5.31999 65.941 5.26399 66.426 5.20799 66.902C5.15199 67.369 5.11 67.798 5.082 68.19C5.054 68.573 5.03999 68.885 5.03999 69.128C5.03999 69.763 5.222 70.257 5.586 70.612C5.959 70.967 6.524 71.144 7.28 71.144C7.961 71.144 8.545 71.051 9.03 70.864C9.525 70.677 9.90299 70.416 10.164 70.08C10.425 69.744 10.556 69.357 10.556 68.918C10.556 68.442 10.43 67.966 10.178 67.49C9.93499 67.014 9.56699 66.557 9.07199 66.118L10.626 65.796C11.093 66.347 11.443 66.883 11.676 67.406C11.909 67.919 12.026 68.479 12.026 69.086C12.026 69.777 11.825 70.383 11.424 70.906C11.032 71.429 10.481 71.835 9.77199 72.124C9.06299 72.413 8.223 72.558 7.252 72.558C6.571 72.558 5.959 72.451 5.418 72.236C4.877 72.021 4.44699 71.681 4.12999 71.214C3.82199 70.747 3.668 70.127 3.668 69.352C3.668 69.063 3.69099 68.675 3.73799 68.19C3.78499 67.705 3.84099 67.173 3.90599 66.594C3.98099 66.015 4.05499 65.427 4.12999 64.83C4.21399 64.223 4.284 63.654 4.34 63.122C4.405 62.581 4.452 62.119 4.48 61.736C4.508 61.456 4.52199 61.237 4.52199 61.078C4.52199 60.919 4.51299 60.77 4.49399 60.63L6.062 60.714ZM1.35799 62.52C1.75899 62.651 2.20299 62.758 2.68799 62.842C3.17299 62.926 3.668 62.991 4.172 63.038C4.676 63.075 5.147 63.094 5.586 63.094C6.127 63.094 6.636 63.08 7.112 63.052C7.588 63.015 8.01699 62.968 8.39999 62.912L8.35799 64.228C7.91899 64.265 7.485 64.298 7.056 64.326C6.627 64.354 6.12299 64.368 5.54399 64.368C5.11499 64.368 4.648 64.345 4.144 64.298C3.649 64.251 3.15499 64.186 2.65999 64.102C2.16499 64.009 1.70799 63.911 1.28799 63.808L1.35799 62.52ZM1.036 66.006C1.512 66.165 2.002 66.291 2.506 66.384C3.01 66.477 3.509 66.543 4.004 66.58C4.508 66.608 4.98399 66.622 5.43199 66.622C5.88899 66.622 6.36099 66.608 6.84599 66.58C7.34099 66.552 7.82599 66.51 8.30199 66.454L8.25999 67.77C7.83099 67.817 7.401 67.854 6.972 67.882C6.543 67.901 6.099 67.91 5.642 67.91C4.802 67.91 3.97099 67.863 3.14999 67.77C2.32899 67.667 1.60099 67.527 0.965988 67.35L1.036 66.006ZM20.706 64.872C21.005 64.872 21.275 64.947 21.518 65.096C21.761 65.245 21.957 65.441 22.106 65.684C22.255 65.917 22.33 66.188 22.33 66.496C22.33 66.785 22.255 67.056 22.106 67.308C21.957 67.551 21.761 67.747 21.518 67.896C21.285 68.045 21.014 68.12 20.706 68.12C20.417 68.12 20.146 68.05 19.894 67.91C19.651 67.761 19.455 67.565 19.306 67.322C19.157 67.07 19.082 66.795 19.082 66.496C19.082 66.197 19.152 65.927 19.292 65.684C19.441 65.441 19.637 65.245 19.88 65.096C20.132 64.947 20.407 64.872 20.706 64.872ZM34.706 64.872C35.005 64.872 35.275 64.947 35.518 65.096C35.761 65.245 35.957 65.441 36.106 65.684C36.255 65.917 36.33 66.188 36.33 66.496C36.33 66.785 36.255 67.056 36.106 67.308C35.957 67.551 35.761 67.747 35.518 67.896C35.285 68.045 35.014 68.12 34.706 68.12C34.417 68.12 34.146 68.05 33.894 67.91C33.651 67.761 33.455 67.565 33.306 67.322C33.157 67.07 33.082 66.795 33.082 66.496C33.082 66.197 33.152 65.927 33.292 65.684C33.441 65.441 33.637 65.245 33.88 65.096C34.132 64.947 34.407 64.872 34.706 64.872ZM48.706 64.872C49.005 64.872 49.275 64.947 49.518 65.096C49.761 65.245 49.957 65.441 50.106 65.684C50.255 65.917 50.33 66.188 50.33 66.496C50.33 66.785 50.255 67.056 50.106 67.308C49.957 67.551 49.761 67.747 49.518 67.896C49.285 68.045 49.014 68.12 48.706 68.12C48.417 68.12 48.146 68.05 47.894 67.91C47.651 67.761 47.455 67.565 47.306 67.322C47.157 67.07 47.082 66.795 47.082 66.496C47.082 66.197 47.152 65.927 47.292 65.684C47.441 65.441 47.637 65.245 47.88 65.096C48.132 64.947 48.407 64.872 48.706 64.872Z" fill="var(--fill-0, black)"/>
</svg>
