<svg preserveAspectRatio="none" width="100%" height="100%" overflow="visible" style="display: block;" viewBox="0 0 166.404 73.09" fill="none" xmlns="http://www.w3.org/2000/svg">
<path id="Vector" d="M4.116 5.76801H13.258V7.042H4.116V5.76801ZM5.79599 2.24001H12.684V3.5H5.79599V2.24001ZM8.092 0.0139999H9.40799V6.44H8.092V0.0139999ZM5.76799 0.209999L7.09799 0.462006C6.97699 1.10601 6.81799 1.7453 6.62199 2.38C6.43499 3.0053 6.221 3.5887 5.978 4.13C5.735 4.662 5.46899 5.1333 5.17999 5.544C5.09599 5.4693 4.98399 5.39 4.84399 5.306C4.70399 5.2127 4.55899 5.124 4.40999 5.04C4.26099 4.9467 4.12999 4.872 4.01799 4.816C4.44699 4.2747 4.80699 3.5933 5.09599 2.772C5.39499 1.9507 5.61899 1.0967 5.76799 0.209999ZM9.31 6.58H10.598V11.172C10.598 11.3773 10.621 11.5127 10.668 11.578C10.715 11.634 10.813 11.662 10.962 11.662C10.999 11.662 11.06 11.662 11.144 11.662C11.228 11.662 11.317 11.662 11.41 11.662C11.513 11.662 11.611 11.662 11.704 11.662C11.797 11.662 11.863 11.662 11.9 11.662C12.012 11.662 12.096 11.6153 12.152 11.522C12.208 11.4193 12.245 11.2233 12.264 10.934C12.292 10.6353 12.311 10.192 12.32 9.604C12.413 9.6693 12.525 9.7393 12.656 9.814C12.796 9.8793 12.941 9.94 13.09 9.996C13.239 10.0427 13.37 10.0847 13.482 10.122C13.445 10.8313 13.375 11.3867 13.272 11.788C13.179 12.18 13.034 12.4507 12.838 12.6C12.642 12.7587 12.371 12.838 12.026 12.838C11.97 12.838 11.881 12.838 11.76 12.838C11.639 12.838 11.513 12.838 11.382 12.838C11.251 12.838 11.125 12.838 11.004 12.838C10.892 12.838 10.808 12.838 10.752 12.838C10.36 12.838 10.061 12.7867 9.85599 12.684C9.65099 12.5907 9.506 12.4227 9.422 12.18C9.347 11.9373 9.31 11.606 9.31 11.186V6.58ZM6.45399 6.79H7.784C7.737 7.5367 7.65799 8.2273 7.54599 8.862C7.43399 9.4873 7.252 10.0613 7 10.584C6.757 11.0973 6.41199 11.5547 5.96399 11.956C5.52499 12.3667 4.947 12.7167 4.228 13.006C4.181 12.9033 4.11099 12.782 4.01799 12.642C3.93399 12.5113 3.836 12.3807 3.724 12.25C3.621 12.1287 3.519 12.0307 3.416 11.956C4.06 11.7227 4.57299 11.438 4.95599 11.102C5.33899 10.766 5.633 10.3833 5.838 9.954C6.043 9.5247 6.18799 9.0487 6.27199 8.526C6.35599 7.994 6.41699 7.4153 6.45399 6.79ZM0.895996 1.064L1.67999 0.167999C1.96899 0.298699 2.26799 0.457305 2.57599 0.644005C2.88399 0.830705 3.173 1.022 3.444 1.218C3.715 1.414 3.93399 1.6007 4.10199 1.778L3.26199 2.786C3.10299 2.6087 2.89299 2.41731 2.63199 2.21201C2.37099 2.00671 2.086 1.8013 1.778 1.596C1.47 1.3907 1.176 1.2133 0.895996 1.064ZM0.237991 4.844L0.965988 3.892C1.25499 4.0227 1.55899 4.1767 1.87599 4.354C2.20299 4.522 2.51099 4.6993 2.79999 4.886C3.08899 5.0727 3.323 5.2453 3.5 5.404L2.73 6.468C2.553 6.3 2.32399 6.118 2.04399 5.922C1.76399 5.726 1.46499 5.5347 1.14799 5.348C0.839995 5.1613 0.536991 4.9933 0.237991 4.844ZM0.62999 12.04C0.84499 11.676 1.08299 11.2467 1.34399 10.752C1.60499 10.248 1.871 9.7207 2.142 9.17C2.413 8.61 2.65999 8.06401 2.88399 7.53201L3.864 8.288C3.659 8.792 3.43899 9.31 3.20599 9.842C2.97299 10.3647 2.73499 10.8873 2.49199 11.41C2.25899 11.9233 2.02499 12.404 1.79199 12.852L0.62999 12.04ZM22.596 1.358H23.856V9.198H22.596V1.358ZM25.438 0.279999H26.726V11.354C26.726 11.7553 26.675 12.0587 26.572 12.264C26.479 12.4787 26.311 12.6373 26.068 12.74C25.825 12.852 25.508 12.922 25.116 12.95C24.724 12.9873 24.225 13.006 23.618 13.006C23.609 12.8753 23.576 12.7307 23.52 12.572C23.473 12.4133 23.422 12.25 23.366 12.082C23.31 11.9233 23.249 11.7833 23.184 11.662C23.613 11.6807 24.005 11.69 24.36 11.69C24.724 11.69 24.971 11.69 25.102 11.69C25.223 11.6807 25.307 11.6527 25.354 11.606C25.41 11.5593 25.438 11.4753 25.438 11.354V0.279999ZM14.392 1.274H22.134V2.436H14.392V1.274ZM16.072 6.958H20.454V8.022H16.072V6.958ZM16.072 9.072H20.454V10.164H16.072V9.072ZM17.528 0.112H18.83V1.96H17.528V0.112ZM19.978 6.146H21.252V12.978H19.978V6.146ZM20.048 1.932L21.28 2.28201C20.86 3.00071 20.309 3.626 19.628 4.158C18.956 4.6807 18.195 5.124 17.346 5.488C16.506 5.8427 15.624 6.1367 14.7 6.37C14.653 6.2767 14.588 6.1647 14.504 6.034C14.429 5.894 14.345 5.754 14.252 5.614C14.168 5.474 14.084 5.362 14 5.278C14.887 5.1007 15.727 4.8673 16.52 4.578C17.313 4.2793 18.013 3.9153 18.62 3.486C19.236 3.0473 19.712 2.5293 20.048 1.932ZM16.394 1.89C16.805 2.4313 17.239 2.884 17.696 3.248C18.163 3.6027 18.648 3.8967 19.152 4.13C19.656 4.3633 20.174 4.5547 20.706 4.704C21.238 4.844 21.779 4.9653 22.33 5.068C22.19 5.208 22.05 5.3853 21.91 5.6C21.779 5.8147 21.681 6.02 21.616 6.216C21.037 6.0853 20.463 5.92671 19.894 5.74001C19.334 5.55331 18.788 5.3153 18.256 5.026C17.724 4.7367 17.211 4.3727 16.716 3.934C16.231 3.486 15.764 2.94001 15.316 2.29601L16.394 1.89ZM15.54 6.132H16.814V8.302C16.814 8.666 16.795 9.058 16.758 9.478C16.721 9.8887 16.646 10.3087 16.534 10.738C16.422 11.1673 16.259 11.5827 16.044 11.984C15.839 12.3853 15.563 12.754 15.218 13.09C15.134 13.0153 15.027 12.936 14.896 12.852C14.775 12.768 14.649 12.684 14.518 12.6C14.387 12.516 14.271 12.4507 14.168 12.404C14.476 12.1053 14.719 11.7833 14.896 11.438C15.083 11.0833 15.218 10.724 15.302 10.36C15.395 9.9867 15.456 9.62271 15.484 9.26801C15.521 8.91331 15.54 8.5867 15.54 8.288V6.132ZM35.35 2.94C35.182 2.7533 34.977 2.54801 34.734 2.32401C34.491 2.09071 34.244 1.862 33.992 1.638C33.74 1.414 33.516 1.232 33.32 1.092L34.342 0.363998C34.501 0.485298 34.706 0.653304 34.958 0.868004C35.219 1.0827 35.481 1.3067 35.742 1.54C36.003 1.7733 36.213 1.9787 36.372 2.156L35.35 2.94ZM31.178 1.596C31.225 1.68 31.276 1.7873 31.332 1.918C31.397 2.0393 31.463 2.16531 31.528 2.29601C31.593 2.41731 31.649 2.52 31.696 2.604C31.976 3.1267 32.27 3.7147 32.578 4.368C32.895 5.0213 33.189 5.656 33.46 6.272C33.637 6.6827 33.824 7.1493 34.02 7.672C34.225 8.1947 34.426 8.73601 34.622 9.29601C34.818 9.84671 35 10.3787 35.168 10.892C35.345 11.4053 35.495 11.858 35.616 12.25L34.09 12.642C33.95 12.0727 33.782 11.452 33.586 10.78C33.39 10.108 33.175 9.436 32.942 8.764C32.709 8.092 32.461 7.462 32.2 6.874C31.995 6.4073 31.794 5.9547 31.598 5.516C31.402 5.0773 31.211 4.6667 31.024 4.284C30.847 3.9013 30.669 3.5607 30.492 3.262C30.399 3.1127 30.282 2.9307 30.142 2.716C30.002 2.5013 29.871 2.3193 29.75 2.17L31.178 1.596ZM28.462 5.698C28.695 5.642 28.933 5.572 29.176 5.488C29.419 5.404 29.601 5.334 29.722 5.278C30.161 5.11 30.632 4.914 31.136 4.69C31.649 4.4567 32.172 4.22331 32.704 3.99001C33.245 3.74731 33.787 3.5233 34.328 3.318C34.879 3.1127 35.411 2.9493 35.924 2.828C36.447 2.6973 36.937 2.632 37.394 2.632C38.075 2.632 38.659 2.7533 39.144 2.996C39.629 3.2387 40.003 3.57001 40.264 3.99001C40.535 4.41001 40.67 4.8813 40.67 5.404C40.67 5.992 40.539 6.51 40.278 6.958C40.026 7.406 39.653 7.7607 39.158 8.022C38.663 8.274 38.057 8.4 37.338 8.4C36.946 8.4 36.559 8.358 36.176 8.274C35.803 8.19 35.481 8.1013 35.21 8.008L35.252 6.608C35.541 6.7387 35.854 6.8507 36.19 6.944C36.535 7.0373 36.876 7.084 37.212 7.084C37.651 7.084 38.019 7.0093 38.318 6.86C38.617 6.7107 38.841 6.5053 38.99 6.244C39.149 5.9827 39.228 5.684 39.228 5.348C39.228 5.0867 39.158 4.8487 39.018 4.634C38.878 4.41 38.668 4.23271 38.388 4.10201C38.108 3.96201 37.763 3.892 37.352 3.892C36.885 3.892 36.363 3.976 35.784 4.144C35.205 4.312 34.599 4.5313 33.964 4.802C33.339 5.0633 32.723 5.3433 32.116 5.642C31.509 5.9407 30.945 6.2207 30.422 6.482C29.909 6.7433 29.479 6.9533 29.134 7.112L28.462 5.698ZM42.546 8.12H55.006V9.28201H42.546V8.12ZM44.002 0.532005H52.416V1.596H44.002V0.532005ZM42.77 3.416H53.928V4.48H42.77V3.416ZM48.076 7.322H49.42V13.006H48.076V7.322ZM47.586 8.596L48.678 9.086C48.249 9.618 47.731 10.1267 47.124 10.612C46.517 11.088 45.869 11.5127 45.178 11.886C44.497 12.2687 43.811 12.5767 43.12 12.81C43.055 12.698 42.971 12.572 42.868 12.432C42.765 12.3013 42.658 12.1707 42.546 12.04C42.443 11.9093 42.341 11.7973 42.238 11.704C42.91 11.5173 43.587 11.2653 44.268 10.948C44.949 10.6307 45.579 10.2713 46.158 9.87C46.737 9.4687 47.213 9.044 47.586 8.596ZM49.924 8.638C50.297 9.0767 50.773 9.492 51.352 9.884C51.94 10.2667 52.579 10.6073 53.27 10.906C53.961 11.2047 54.647 11.4473 55.328 11.634C55.235 11.718 55.132 11.8253 55.02 11.956C54.908 12.096 54.801 12.2313 54.698 12.362C54.595 12.502 54.511 12.628 54.446 12.74C53.746 12.516 53.046 12.222 52.346 11.858C51.655 11.5033 51.002 11.0927 50.386 10.626C49.779 10.1593 49.261 9.6647 48.832 9.142L49.924 8.638ZM48.398 4.00401H49.742V6.216C49.742 6.524 49.7 6.7573 49.616 6.916C49.532 7.0747 49.364 7.1913 49.112 7.266C48.869 7.3407 48.566 7.3873 48.202 7.406C47.838 7.4247 47.409 7.434 46.914 7.434C46.886 7.2567 46.83 7.0747 46.746 6.888C46.671 6.692 46.592 6.5193 46.508 6.37C46.741 6.3793 46.97 6.3887 47.194 6.398C47.418 6.398 47.614 6.398 47.782 6.398C47.959 6.3887 48.076 6.384 48.132 6.384C48.235 6.3747 48.305 6.356 48.342 6.328C48.379 6.3 48.398 6.2487 48.398 6.174V4.00401ZM53.424 3.416H53.676L53.914 3.36L54.936 3.696C54.6 4.2187 54.227 4.7367 53.816 5.25C53.415 5.754 53.027 6.188 52.654 6.552L51.464 6.104C51.688 5.8987 51.917 5.6607 52.15 5.39C52.393 5.11 52.626 4.8207 52.85 4.522C53.074 4.214 53.265 3.9153 53.424 3.626V3.416ZM47.558 3.64L48.608 4.116C48.3 4.4707 47.941 4.8207 47.53 5.166C47.129 5.502 46.695 5.8193 46.228 6.118C45.761 6.4167 45.281 6.6873 44.786 6.93C44.301 7.1633 43.82 7.35931 43.344 7.51801C43.251 7.36871 43.125 7.196 42.966 7C42.807 6.7947 42.658 6.6267 42.518 6.496C43.134 6.3187 43.764 6.08531 44.408 5.79601C45.052 5.50671 45.649 5.1753 46.2 4.802C46.751 4.4287 47.203 4.0413 47.558 3.64ZM45.808 2.702L46.55 1.946C47.082 2.0393 47.637 2.16531 48.216 2.32401C48.795 2.47331 49.35 2.6367 49.882 2.814C50.423 2.9913 50.881 3.164 51.254 3.332L50.512 4.158C50.148 3.9807 49.7 3.7987 49.168 3.612C48.636 3.416 48.076 3.2387 47.488 3.08C46.909 2.912 46.349 2.786 45.808 2.702ZM51.884 0.532005H52.22L52.486 0.476006L53.34 1.148C52.976 1.428 52.565 1.708 52.108 1.988C51.651 2.268 51.17 2.5247 50.666 2.758C50.171 2.9913 49.672 3.1967 49.168 3.374C49.084 3.2527 48.972 3.1127 48.832 2.954C48.701 2.7953 48.585 2.674 48.482 2.59C48.902 2.45 49.331 2.2773 49.77 2.072C50.209 1.8667 50.615 1.652 50.988 1.428C51.361 1.204 51.66 0.989304 51.884 0.784004V0.532005ZM63.798 2.576H68.152V3.766H63.798V2.576ZM63.798 0L65.086 0.181999C64.965 1.0127 64.811 1.82 64.624 2.604C64.437 3.3787 64.213 4.0973 63.952 4.76C63.691 5.4227 63.387 6.0013 63.042 6.496C62.967 6.4307 62.86 6.3513 62.72 6.258C62.589 6.1553 62.454 6.0573 62.314 5.964C62.174 5.8613 62.053 5.78671 61.95 5.74001C62.286 5.29201 62.575 4.7647 62.818 4.158C63.061 3.5513 63.261 2.8933 63.42 2.184C63.579 1.4747 63.705 0.7467 63.798 0ZM65.66 3.164H66.304V6.02C66.304 6.2627 66.327 6.566 66.374 6.93C66.43 7.294 66.523 7.6953 66.654 8.134C66.785 8.5727 66.967 9.0207 67.2 9.478C67.443 9.926 67.746 10.36 68.11 10.78C68.483 11.1907 68.936 11.5547 69.468 11.872C69.384 11.9653 69.291 12.082 69.188 12.222C69.085 12.362 68.987 12.502 68.894 12.642C68.801 12.7913 68.721 12.9173 68.656 13.02C68.161 12.712 67.737 12.348 67.382 11.928C67.027 11.508 66.729 11.074 66.486 10.626C66.243 10.1687 66.052 9.73931 65.912 9.33801C65.781 8.92731 65.693 8.582 65.646 8.302C65.599 8.5913 65.501 8.94131 65.352 9.35201C65.203 9.75331 64.993 10.178 64.722 10.626C64.461 11.074 64.129 11.5033 63.728 11.914C63.327 12.334 62.851 12.7027 62.3 13.02C62.253 12.9267 62.183 12.81 62.09 12.67C61.997 12.53 61.899 12.3947 61.796 12.264C61.703 12.1333 61.619 12.0213 61.544 11.928C62.123 11.6013 62.613 11.2327 63.014 10.822C63.425 10.402 63.756 9.968 64.008 9.52C64.269 9.0627 64.47 8.6147 64.61 8.176C64.759 7.728 64.862 7.322 64.918 6.958C64.974 6.5847 65.002 6.272 65.002 6.02V3.164H65.66ZM67.872 2.576H68.068L68.264 2.52L69.146 2.744C69.062 3.192 68.969 3.654 68.866 4.13C68.763 4.606 68.661 5.0633 68.558 5.502C68.455 5.9313 68.353 6.3093 68.25 6.636L67.186 6.356C67.261 6.0573 67.34 5.7073 67.424 5.306C67.508 4.8953 67.587 4.47071 67.662 4.03201C67.746 3.58401 67.816 3.164 67.872 2.772V2.576ZM56.476 1.442H62.524V2.59H56.476V1.442ZM56.28 9.464H62.706V10.64H56.28V9.464ZM58.87 0H60.116V4.00401H58.87V0ZM58.996 3.97601H59.99V7.966H60.116V12.992H58.87V7.966H58.996V3.97601ZM57.764 6.454V7.56001H61.236V6.454H57.764ZM57.764 4.48V5.558H61.236V4.48H57.764ZM56.728 3.514H62.314V8.526H56.728V3.514ZM78.596 1.358H79.856V9.198H78.596V1.358ZM81.438 0.279999H82.726V11.354C82.726 11.7553 82.675 12.0587 82.572 12.264C82.479 12.4787 82.311 12.6373 82.068 12.74C81.825 12.852 81.508 12.922 81.116 12.95C80.724 12.9873 80.225 13.006 79.618 13.006C79.609 12.8753 79.576 12.7307 79.52 12.572C79.473 12.4133 79.422 12.25 79.366 12.082C79.31 11.9233 79.249 11.7833 79.184 11.662C79.613 11.6807 80.005 11.69 80.36 11.69C80.724 11.69 80.971 11.69 81.102 11.69C81.223 11.6807 81.307 11.6527 81.354 11.606C81.41 11.5593 81.438 11.4753 81.438 11.354V0.279999ZM70.392 1.274H78.134V2.436H70.392V1.274ZM72.072 6.958H76.454V8.022H72.072V6.958ZM72.072 9.072H76.454V10.164H72.072V9.072ZM73.528 0.112H74.83V1.96H73.528V0.112ZM75.978 6.146H77.252V12.978H75.978V6.146ZM76.048 1.932L77.28 2.28201C76.86 3.00071 76.309 3.626 75.628 4.158C74.956 4.6807 74.195 5.124 73.346 5.488C72.506 5.8427 71.624 6.1367 70.7 6.37C70.653 6.2767 70.588 6.1647 70.504 6.034C70.429 5.894 70.345 5.754 70.252 5.614C70.168 5.474 70.084 5.362 70 5.278C70.887 5.1007 71.727 4.8673 72.52 4.578C73.313 4.2793 74.013 3.9153 74.62 3.486C75.236 3.0473 75.712 2.5293 76.048 1.932ZM72.394 1.89C72.805 2.4313 73.239 2.884 73.696 3.248C74.163 3.6027 74.648 3.8967 75.152 4.13C75.656 4.3633 76.174 4.5547 76.706 4.704C77.238 4.844 77.779 4.9653 78.33 5.068C78.19 5.208 78.05 5.3853 77.91 5.6C77.779 5.8147 77.681 6.02 77.616 6.216C77.037 6.0853 76.463 5.92671 75.894 5.74001C75.334 5.55331 74.788 5.3153 74.256 5.026C73.724 4.7367 73.211 4.3727 72.716 3.934C72.231 3.486 71.764 2.94001 71.316 2.29601L72.394 1.89ZM71.54 6.132H72.814V8.302C72.814 8.666 72.795 9.058 72.758 9.478C72.721 9.8887 72.646 10.3087 72.534 10.738C72.422 11.1673 72.259 11.5827 72.044 11.984C71.839 12.3853 71.563 12.754 71.218 13.09C71.134 13.0153 71.027 12.936 70.896 12.852C70.775 12.768 70.649 12.684 70.518 12.6C70.387 12.516 70.271 12.4507 70.168 12.404C70.476 12.1053 70.719 11.7833 70.896 11.438C71.083 11.0833 71.218 10.724 71.302 10.36C71.395 9.9867 71.456 9.62271 71.484 9.26801C71.521 8.91331 71.54 8.5867 71.54 8.288V6.132ZM90.37 0.686005C90.314 0.956705 90.235 1.288 90.132 1.68C90.039 2.0627 89.899 2.4967 89.712 2.982C89.553 3.374 89.357 3.7753 89.124 4.186C88.9 4.5967 88.667 4.97 88.424 5.306C88.583 5.2127 88.765 5.138 88.97 5.082C89.185 5.0167 89.399 4.97 89.614 4.942C89.838 4.9047 90.039 4.886 90.216 4.886C90.776 4.886 91.247 5.0493 91.63 5.376C92.013 5.6933 92.204 6.1553 92.204 6.762C92.204 6.9487 92.204 7.1773 92.204 7.448C92.204 7.7187 92.209 8.0033 92.218 8.302C92.227 8.6007 92.232 8.8947 92.232 9.184C92.241 9.4733 92.246 9.7253 92.246 9.94H90.916C90.925 9.7627 90.935 9.55731 90.944 9.32401C90.953 9.08131 90.958 8.8293 90.958 8.568C90.967 8.3067 90.972 8.0547 90.972 7.812C90.972 7.5693 90.972 7.3547 90.972 7.168C90.963 6.748 90.837 6.4447 90.594 6.258C90.351 6.0713 90.067 5.978 89.74 5.978C89.32 5.978 88.9 6.076 88.48 6.272C88.069 6.468 87.715 6.706 87.416 6.986C87.22 7.182 87.015 7.406 86.8 7.658C86.595 7.91 86.375 8.1853 86.142 8.484L84.938 7.58801C85.582 6.98131 86.128 6.40271 86.576 5.85201C87.024 5.3013 87.393 4.7787 87.682 4.284C87.981 3.78 88.214 3.304 88.382 2.856C88.531 2.4733 88.653 2.086 88.746 1.694C88.839 1.2927 88.895 0.919305 88.914 0.574005L90.37 0.686005ZM85.358 2.1C85.731 2.156 86.142 2.19801 86.59 2.22601C87.038 2.24471 87.43 2.25401 87.766 2.25401C88.391 2.25401 89.068 2.24001 89.796 2.21201C90.524 2.18401 91.257 2.1373 91.994 2.072C92.741 2.0067 93.445 1.9133 94.108 1.792V3.094C93.613 3.1593 93.086 3.22 92.526 3.276C91.966 3.332 91.397 3.3787 90.818 3.416C90.239 3.444 89.684 3.4673 89.152 3.486C88.62 3.4953 88.135 3.5 87.696 3.5C87.5 3.5 87.267 3.5 86.996 3.5C86.735 3.4907 86.459 3.4767 86.17 3.458C85.89 3.4393 85.619 3.4253 85.358 3.416V2.1ZM96.236 5.74001C96.105 5.78671 95.951 5.838 95.774 5.894C95.606 5.95 95.438 6.0107 95.27 6.076C95.102 6.1413 94.948 6.202 94.808 6.258C94.332 6.4447 93.777 6.6687 93.142 6.93C92.517 7.1913 91.873 7.4947 91.21 7.84C90.762 8.0733 90.375 8.3067 90.048 8.54C89.721 8.7733 89.465 9.01601 89.278 9.26801C89.101 9.52001 89.012 9.7953 89.012 10.094C89.012 10.3367 89.068 10.5327 89.18 10.682C89.292 10.8313 89.446 10.948 89.642 11.032C89.847 11.1067 90.09 11.1627 90.37 11.2C90.659 11.228 90.981 11.242 91.336 11.242C91.896 11.242 92.531 11.2093 93.24 11.144C93.949 11.0787 94.612 10.99 95.228 10.878L95.186 12.292C94.85 12.3293 94.458 12.3667 94.01 12.404C93.562 12.4507 93.1 12.4833 92.624 12.502C92.157 12.53 91.714 12.544 91.294 12.544C90.594 12.544 89.964 12.4787 89.404 12.348C88.844 12.2173 88.401 11.9933 88.074 11.676C87.747 11.3493 87.584 10.8967 87.584 10.318C87.584 9.8607 87.687 9.45 87.892 9.086C88.107 8.7127 88.382 8.3767 88.718 8.078C89.063 7.7793 89.446 7.504 89.866 7.252C90.286 7 90.701 6.7713 91.112 6.566C91.551 6.3327 91.957 6.132 92.33 5.964C92.713 5.7867 93.067 5.628 93.394 5.488C93.73 5.348 94.043 5.208 94.332 5.068C94.575 4.9653 94.803 4.8673 95.018 4.774C95.233 4.6713 95.447 4.564 95.662 4.452L96.236 5.74001ZM101.948 3.304H103.348V10.738C103.348 10.9713 103.367 11.144 103.404 11.256C103.451 11.368 103.539 11.4473 103.67 11.494C103.801 11.5313 103.992 11.55 104.244 11.55C104.337 11.55 104.491 11.55 104.706 11.55C104.93 11.55 105.173 11.55 105.434 11.55C105.705 11.55 105.952 11.55 106.176 11.55C106.409 11.55 106.582 11.55 106.694 11.55C106.955 11.55 107.151 11.4847 107.282 11.354C107.413 11.2233 107.506 10.9713 107.562 10.598C107.627 10.2247 107.674 9.688 107.702 8.988C107.814 9.0627 107.945 9.14201 108.094 9.22601C108.253 9.30071 108.411 9.366 108.57 9.422C108.738 9.478 108.883 9.5247 109.004 9.562C108.939 10.402 108.836 11.0647 108.696 11.55C108.565 12.026 108.351 12.362 108.052 12.558C107.753 12.7633 107.333 12.866 106.792 12.866C106.717 12.866 106.587 12.866 106.4 12.866C106.223 12.866 106.017 12.866 105.784 12.866C105.56 12.866 105.331 12.866 105.098 12.866C104.865 12.866 104.659 12.866 104.482 12.866C104.305 12.866 104.179 12.866 104.104 12.866C103.544 12.866 103.105 12.8053 102.788 12.684C102.48 12.5627 102.261 12.3433 102.13 12.026C102.009 11.718 101.948 11.284 101.948 10.724V3.304ZM102.032 0.980003L102.9 0.0279999C103.292 0.28 103.703 0.560004 104.132 0.868004C104.561 1.176 104.972 1.4747 105.364 1.764C105.765 2.0533 106.097 2.31 106.358 2.534L105.476 3.612C105.215 3.3693 104.888 3.094 104.496 2.786C104.104 2.478 103.693 2.1653 103.264 1.848C102.835 1.5213 102.424 1.232 102.032 0.980003ZM99.694 4.04601L100.954 4.368C100.861 4.9 100.739 5.4647 100.59 6.062C100.45 6.65 100.282 7.2147 100.086 7.756C99.89 8.2973 99.671 8.7733 99.428 9.184L98.14 8.694C98.401 8.2927 98.63 7.8307 98.826 7.308C99.031 6.7853 99.209 6.244 99.358 5.684C99.507 5.1147 99.619 4.56871 99.694 4.04601ZM107.968 5.292L109.158 4.732C109.475 5.18 109.779 5.6653 110.068 6.188C110.367 6.7107 110.628 7.224 110.852 7.728C111.085 8.232 111.267 8.6847 111.398 9.086L110.11 9.716C109.998 9.3147 109.83 8.8573 109.606 8.344C109.382 7.8307 109.125 7.308 108.836 6.776C108.556 6.244 108.267 5.7493 107.968 5.292ZM108.682 0.840004L110.012 1.372C109.433 2.464 108.771 3.5327 108.024 4.578C107.287 5.614 106.456 6.60331 105.532 7.54601C104.617 8.47931 103.619 9.3473 102.536 10.15C101.453 10.9433 100.287 11.6433 99.036 12.25C98.971 12.138 98.887 12.0167 98.784 11.886C98.681 11.7647 98.574 11.6433 98.462 11.522C98.359 11.3913 98.261 11.284 98.168 11.2C99.363 10.6493 100.487 9.99131 101.542 9.22601C102.606 8.46071 103.586 7.6253 104.482 6.72C105.378 5.8053 106.181 4.8487 106.89 3.85C107.599 2.8513 108.197 1.848 108.682 0.840004ZM112.378 7.63H125.16V8.722H112.378V7.63ZM112.672 0.574005H124.81V1.736H112.672V0.574005ZM117.152 6.216L118.454 6.566C118.146 7.0513 117.81 7.5647 117.446 8.106C117.091 8.638 116.737 9.156 116.382 9.66C116.037 10.1547 115.715 10.5933 115.416 10.976L114.142 10.556C114.441 10.1827 114.767 9.74871 115.122 9.25401C115.486 8.75001 115.845 8.232 116.2 7.7C116.555 7.168 116.872 6.6733 117.152 6.216ZM121.282 8.036L122.57 8.372C122.243 9.1653 121.809 9.8373 121.268 10.388C120.727 10.9387 120.069 11.3913 119.294 11.746C118.529 12.0913 117.633 12.362 116.606 12.558C115.579 12.7633 114.413 12.9127 113.106 13.006C113.069 12.8193 112.999 12.6187 112.896 12.404C112.803 12.1893 112.705 12.0073 112.602 11.858C114.226 11.7833 115.617 11.62 116.774 11.368C117.931 11.1067 118.879 10.71 119.616 10.178C120.353 9.646 120.909 8.932 121.282 8.036ZM114.996 10.542L115.668 9.576C116.788 9.7907 117.903 10.0333 119.014 10.304C120.134 10.5653 121.184 10.8407 122.164 11.13C123.153 11.4193 124.003 11.6993 124.712 11.97L123.914 13.048C123.223 12.7587 122.402 12.4647 121.45 12.166C120.507 11.8673 119.485 11.578 118.384 11.298C117.283 11.018 116.153 10.766 114.996 10.542ZM116.438 1.008H117.698V5.866H116.438V1.008ZM119.672 1.008H120.918V5.866H119.672V1.008ZM114.59 3.808V5.46H122.976V3.808H114.59ZM113.358 2.744H124.292V6.51H113.358V2.744ZM130.774 2.31001L131.978 1.722C132.286 2.058 132.585 2.4267 132.874 2.828C133.163 3.2293 133.425 3.62601 133.658 4.01801C133.891 4.41001 134.073 4.7647 134.204 5.082L132.916 5.78201C132.804 5.45531 132.631 5.0913 132.398 4.69C132.174 4.2793 131.922 3.8687 131.642 3.458C131.362 3.038 131.073 2.65531 130.774 2.31001ZM126.196 10.066C126.681 9.8887 127.237 9.674 127.862 9.422C128.487 9.17 129.15 8.8993 129.85 8.61C130.559 8.3113 131.259 8.0127 131.95 7.714L132.258 9.016C131.614 9.296 130.961 9.5853 130.298 9.884C129.645 10.1733 129.005 10.4533 128.38 10.724C127.764 10.9853 127.195 11.228 126.672 11.452L126.196 10.066ZM134.512 8.484L135.534 7.57401C135.861 7.90071 136.206 8.2553 136.57 8.638C136.943 9.0113 137.307 9.394 137.662 9.786C138.017 10.178 138.348 10.556 138.656 10.92C138.964 11.284 139.216 11.6153 139.412 11.914L138.292 12.978C138.096 12.6793 137.853 12.3433 137.564 11.97C137.275 11.5967 136.957 11.2093 136.612 10.808C136.267 10.3973 135.912 9.996 135.548 9.604C135.193 9.2027 134.848 8.8293 134.512 8.484ZM136.444 0.770004L137.9 0.910004C137.723 2.5153 137.471 3.9527 137.144 5.222C136.827 6.4913 136.397 7.6207 135.856 8.61C135.315 9.59 134.629 10.444 133.798 11.172C132.977 11.9 131.969 12.5207 130.774 13.034C130.718 12.9407 130.625 12.8193 130.494 12.67C130.363 12.53 130.228 12.3853 130.088 12.236C129.957 12.0867 129.836 11.9653 129.724 11.872C130.891 11.4427 131.871 10.9013 132.664 10.248C133.457 9.5947 134.106 8.8153 134.61 7.91C135.123 7.0047 135.52 5.964 135.8 4.788C136.089 3.6027 136.304 2.2633 136.444 0.770004ZM127.848 0.812004L129.234 0.756004L129.514 9.954L128.128 9.996L127.848 0.812004ZM146.356 4.396H152.138V5.72601H146.356V4.396ZM140.434 11.004H153.104V12.334H140.434V11.004ZM145.6 0.209999H147.014V11.718H145.6V0.209999ZM160.09 2.22601C160.501 2.29131 160.963 2.338 161.476 2.366C161.999 2.394 162.535 2.4033 163.086 2.394C163.637 2.3847 164.164 2.36601 164.668 2.33801C165.172 2.31001 165.606 2.27271 165.97 2.22601V3.654C165.569 3.6913 165.116 3.724 164.612 3.752C164.108 3.7707 163.585 3.78 163.044 3.78C162.512 3.78 161.989 3.7707 161.476 3.752C160.963 3.724 160.505 3.6913 160.104 3.654L160.09 2.22601ZM160.888 8.05C160.832 8.2927 160.785 8.512 160.748 8.708C160.72 8.904 160.706 9.10001 160.706 9.29601C160.706 9.45471 160.739 9.604 160.804 9.744C160.879 9.884 160.995 10.0053 161.154 10.108C161.322 10.2107 161.546 10.2947 161.826 10.36C162.115 10.416 162.47 10.444 162.89 10.444C163.525 10.444 164.117 10.416 164.668 10.36C165.228 10.2947 165.797 10.1967 166.376 10.066L166.404 11.564C165.965 11.648 165.452 11.718 164.864 11.774C164.285 11.8207 163.618 11.844 162.862 11.844C161.677 11.844 160.799 11.6527 160.23 11.27C159.67 10.878 159.39 10.3413 159.39 9.66C159.39 9.408 159.409 9.1467 159.446 8.876C159.483 8.596 159.544 8.2833 159.628 7.938L160.888 8.05ZM157.654 1.218C157.626 1.302 157.589 1.414 157.542 1.554C157.505 1.6847 157.467 1.82 157.43 1.96C157.402 2.0907 157.379 2.19801 157.36 2.28201C157.313 2.51531 157.257 2.8 157.192 3.136C157.136 3.4627 157.075 3.822 157.01 4.214C156.954 4.5967 156.898 4.9887 156.842 5.39C156.795 5.782 156.753 6.1647 156.716 6.538C156.688 6.9113 156.674 7.25201 156.674 7.56001C156.674 7.80271 156.679 8.05 156.688 8.302C156.707 8.5447 156.73 8.7967 156.758 9.058C156.842 8.8713 156.926 8.6753 157.01 8.47C157.094 8.2553 157.178 8.0453 157.262 7.84C157.346 7.6347 157.425 7.448 157.5 7.28L158.2 7.84C158.079 8.1853 157.948 8.568 157.808 8.988C157.668 9.408 157.542 9.8093 157.43 10.192C157.327 10.5653 157.253 10.8687 157.206 11.102C157.187 11.1953 157.169 11.3073 157.15 11.438C157.131 11.5593 157.127 11.662 157.136 11.746C157.136 11.8113 157.136 11.8907 157.136 11.984C157.145 12.0867 157.155 12.18 157.164 12.264L155.89 12.348C155.75 11.8627 155.629 11.2233 155.526 10.43C155.423 9.6367 155.372 8.7687 155.372 7.826C155.372 7.3033 155.395 6.776 155.442 6.244C155.489 5.7027 155.545 5.18 155.61 4.676C155.675 4.172 155.741 3.71 155.806 3.29C155.881 2.87 155.937 2.52001 155.974 2.24001C156.002 2.06271 156.025 1.8713 156.044 1.666C156.072 1.4607 156.091 1.2647 156.1 1.078L157.654 1.218ZM4.32599 21.484H13.272V22.702H4.32599V21.484ZM5.894 24.998V26.776H11.578V24.998H5.894ZM4.67599 23.892H12.852V27.882H4.67599V23.892ZM5.754 28.106C6.183 28.8153 6.767 29.4267 7.504 29.94C8.241 30.444 9.11399 30.855 10.122 31.172C11.13 31.48 12.236 31.699 13.44 31.83C13.356 31.923 13.263 32.04 13.16 32.18C13.057 32.32 12.959 32.46 12.866 32.6C12.782 32.749 12.712 32.889 12.656 33.02C11.415 32.843 10.281 32.558 9.254 32.166C8.237 31.783 7.34099 31.284 6.56599 30.668C5.80099 30.052 5.16599 29.3147 4.66199 28.456L5.754 28.106ZM8.04999 20.084H9.366V26.356C9.366 26.916 9.33299 27.462 9.26799 27.994C9.20299 28.526 9.077 29.044 8.89 29.548C8.703 30.043 8.43299 30.509 8.07799 30.948C7.73299 31.377 7.27499 31.769 6.70599 32.124C6.13699 32.479 5.432 32.782 4.592 33.034C4.536 32.931 4.461 32.81 4.368 32.67C4.275 32.539 4.17699 32.404 4.07399 32.264C3.97099 32.133 3.873 32.021 3.78 31.928C4.583 31.741 5.24499 31.503 5.76799 31.214C6.29099 30.915 6.70599 30.584 7.01399 30.22C7.32199 29.856 7.551 29.464 7.7 29.044C7.849 28.624 7.943 28.19 7.98 27.742C8.027 27.2847 8.04999 26.8227 8.04999 26.356V20.084ZM3.51399 19.972L4.74599 20.378C4.42899 21.162 4.05499 21.946 3.62599 22.73C3.20599 23.5047 2.749 24.2373 2.254 24.928C1.759 25.6093 1.24599 26.2113 0.713989 26.734C0.676989 26.622 0.615998 26.482 0.531998 26.314C0.447998 26.146 0.358991 25.978 0.265991 25.81C0.172991 25.642 0.084 25.502 0 25.39C0.467 24.9513 0.914994 24.4473 1.34399 23.878C1.78299 23.2993 2.189 22.6787 2.562 22.016C2.935 21.344 3.25299 20.6627 3.51399 19.972ZM2.086 23.738L3.34599 22.478L3.36 22.492V33.062H2.086V23.738ZM23.632 27.21C23.632 26.846 23.539 26.524 23.352 26.244C23.175 25.964 22.918 25.7447 22.582 25.586C22.246 25.418 21.849 25.334 21.392 25.334C20.86 25.334 20.356 25.376 19.88 25.46C19.413 25.544 18.989 25.642 18.606 25.754C18.223 25.866 17.901 25.9593 17.64 26.034C17.435 26.09 17.22 26.16 16.996 26.244C16.772 26.328 16.571 26.4073 16.394 26.482L15.96 24.886C16.175 24.8673 16.403 24.8393 16.646 24.802C16.898 24.7553 17.131 24.7087 17.346 24.662C17.691 24.578 18.083 24.4893 18.522 24.396C18.97 24.2933 19.451 24.2047 19.964 24.13C20.487 24.046 21.019 24.004 21.56 24.004C22.26 24.004 22.881 24.13 23.422 24.382C23.963 24.634 24.388 25.0027 24.696 25.488C25.004 25.9733 25.158 26.566 25.158 27.266C25.158 28.022 24.995 28.6987 24.668 29.296C24.351 29.893 23.898 30.416 23.31 30.864C22.731 31.303 22.045 31.667 21.252 31.956C20.459 32.245 19.595 32.46 18.662 32.6L17.864 31.242C18.723 31.139 19.502 30.981 20.202 30.766C20.911 30.551 21.523 30.281 22.036 29.954C22.549 29.6273 22.941 29.2353 23.212 28.778C23.492 28.3207 23.632 27.798 23.632 27.21ZM17.906 20.714C18.307 20.798 18.779 20.882 19.32 20.966C19.871 21.0407 20.44 21.106 21.028 21.162C21.616 21.218 22.171 21.2647 22.694 21.302C23.217 21.3393 23.655 21.358 24.01 21.358L23.786 22.716C23.394 22.688 22.932 22.6553 22.4 22.618C21.868 22.5713 21.313 22.52 20.734 22.464C20.165 22.3987 19.614 22.3333 19.082 22.268C18.559 22.1933 18.097 22.1233 17.696 22.058L17.906 20.714ZM39.27 23.556C39.093 23.668 38.901 23.78 38.696 23.892C38.5 23.9947 38.29 24.102 38.066 24.214C37.833 24.3353 37.553 24.48 37.226 24.648C36.899 24.8067 36.545 24.984 36.162 25.18C35.779 25.3667 35.397 25.5673 35.014 25.782C34.641 25.9967 34.286 26.2113 33.95 26.426C33.334 26.8367 32.844 27.2613 32.48 27.7C32.116 28.1387 31.934 28.6193 31.934 29.142C31.934 29.6833 32.195 30.108 32.718 30.416C33.241 30.724 34.025 30.878 35.07 30.878C35.574 30.878 36.101 30.859 36.652 30.822C37.203 30.775 37.735 30.715 38.248 30.64C38.771 30.565 39.219 30.477 39.592 30.374L39.578 31.97C39.214 32.026 38.799 32.082 38.332 32.138C37.865 32.194 37.361 32.236 36.82 32.264C36.288 32.292 35.723 32.306 35.126 32.306C34.454 32.306 33.829 32.255 33.25 32.152C32.681 32.049 32.186 31.881 31.766 31.648C31.346 31.415 31.019 31.107 30.786 30.724C30.553 30.332 30.436 29.856 30.436 29.296C30.436 28.7547 30.553 28.2553 30.786 27.798C31.029 27.3407 31.36 26.9113 31.78 26.51C32.2 26.1087 32.685 25.726 33.236 25.362C33.581 25.1287 33.95 24.9 34.342 24.676C34.734 24.452 35.117 24.2373 35.49 24.032C35.873 23.8267 36.227 23.64 36.554 23.472C36.881 23.304 37.156 23.1547 37.38 23.024C37.604 22.8933 37.805 22.772 37.982 22.66C38.169 22.548 38.341 22.422 38.5 22.282L39.27 23.556ZM32.2 20.826C32.424 21.4233 32.662 22.0113 32.914 22.59C33.166 23.1593 33.418 23.6913 33.67 24.186C33.931 24.6807 34.169 25.1193 34.384 25.502L33.152 26.23C32.909 25.8287 32.657 25.3667 32.396 24.844C32.135 24.312 31.869 23.752 31.598 23.164C31.327 22.576 31.066 21.988 30.814 21.4L32.2 20.826ZM46.382 21.554H54.978V24.032H53.732V22.66H47.586V24.032H46.382V21.554ZM49.938 20.014H51.282V22.198H49.938V20.014ZM47.586 28.498H53.788V32.978H52.542V29.576H48.79V33.02H47.586V28.498ZM48.146 31.368H53.074V32.474H48.146V31.368ZM48.65 23.206L49.868 23.584C49.523 24.1533 49.093 24.6947 48.58 25.208C48.076 25.7213 47.567 26.1507 47.054 26.496C46.989 26.4213 46.895 26.328 46.774 26.216C46.662 26.0947 46.545 25.978 46.424 25.866C46.312 25.754 46.205 25.6653 46.102 25.6C46.606 25.3107 47.087 24.956 47.544 24.536C48.001 24.116 48.37 23.6727 48.65 23.206ZM51.366 23.836L52.276 23.178C52.593 23.4113 52.92 23.668 53.256 23.948C53.601 24.228 53.919 24.508 54.208 24.788C54.507 25.068 54.749 25.3247 54.936 25.558L53.956 26.3C53.788 26.0667 53.559 25.81 53.27 25.53C52.981 25.2407 52.668 24.9467 52.332 24.648C52.005 24.3493 51.683 24.0787 51.366 23.836ZM50.568 26.272C50.288 26.6827 49.933 27.1167 49.504 27.574C49.075 28.022 48.603 28.4513 48.09 28.862C47.577 29.2633 47.045 29.6133 46.494 29.912C46.419 29.7533 46.317 29.5713 46.186 29.366C46.055 29.1607 45.929 28.9833 45.808 28.834C46.368 28.554 46.909 28.2087 47.432 27.798C47.955 27.378 48.431 26.9347 48.86 26.468C49.299 25.992 49.649 25.5347 49.91 25.096H51.128C51.492 25.5813 51.903 26.048 52.36 26.496C52.827 26.944 53.317 27.35 53.83 27.714C54.353 28.078 54.875 28.3767 55.398 28.61C55.267 28.7593 55.132 28.946 54.992 29.17C54.861 29.3847 54.745 29.5853 54.642 29.772C54.147 29.5013 53.648 29.1747 53.144 28.792C52.64 28.4093 52.164 27.9987 51.716 27.56C51.268 27.1213 50.885 26.692 50.568 26.272ZM42.938 21.078L43.68 20.098C43.969 20.21 44.268 20.35 44.576 20.518C44.893 20.6767 45.192 20.8447 45.472 21.022C45.752 21.19 45.981 21.3533 46.158 21.512L45.388 22.604C45.22 22.436 44.996 22.2633 44.716 22.086C44.445 21.8993 44.156 21.7173 43.848 21.54C43.54 21.3533 43.237 21.1993 42.938 21.078ZM42.224 24.872L42.952 23.864C43.241 23.9667 43.545 24.0973 43.862 24.256C44.179 24.4053 44.478 24.564 44.758 24.732C45.038 24.8907 45.267 25.0447 45.444 25.194L44.688 26.3C44.511 26.1507 44.282 25.9873 44.002 25.81C43.731 25.6327 43.442 25.4647 43.134 25.306C42.826 25.138 42.523 24.9933 42.224 24.872ZM42.546 32.054C42.751 31.69 42.98 31.256 43.232 30.752C43.484 30.248 43.741 29.7207 44.002 29.17C44.263 28.61 44.501 28.0547 44.716 27.504L45.794 28.26C45.598 28.7547 45.383 29.268 45.15 29.8C44.926 30.332 44.693 30.855 44.45 31.368C44.207 31.881 43.974 32.362 43.75 32.81L42.546 32.054ZM66.528 20.826C66.509 20.9567 66.495 21.0967 66.486 21.246C66.477 21.3953 66.467 21.5493 66.458 21.708C66.458 21.82 66.458 22.002 66.458 22.254C66.458 22.4967 66.458 22.772 66.458 23.08C66.467 23.388 66.472 23.7053 66.472 24.032C66.481 24.3493 66.486 24.6433 66.486 24.914C66.486 25.1847 66.486 25.404 66.486 25.572C66.486 26.384 66.463 27.1307 66.416 27.812C66.369 28.4933 66.253 29.128 66.066 29.716C65.879 30.304 65.581 30.85 65.17 31.354C64.769 31.849 64.209 32.315 63.49 32.754L62.202 31.746C62.445 31.643 62.706 31.503 62.986 31.326C63.266 31.139 63.499 30.953 63.686 30.766C64.013 30.458 64.269 30.136 64.456 29.8C64.652 29.4547 64.797 29.0767 64.89 28.666C64.993 28.246 65.058 27.784 65.086 27.28C65.123 26.7667 65.142 26.1927 65.142 25.558C65.142 25.3153 65.137 25.012 65.128 24.648C65.128 24.284 65.119 23.9107 65.1 23.528C65.091 23.136 65.081 22.7767 65.072 22.45C65.063 22.1233 65.053 21.876 65.044 21.708C65.035 21.54 65.011 21.3767 64.974 21.218C64.946 21.0593 64.923 20.9287 64.904 20.826H66.528ZM61.236 23.64C61.451 23.668 61.679 23.696 61.922 23.724C62.165 23.752 62.412 23.7707 62.664 23.78C62.925 23.7893 63.182 23.794 63.434 23.794C64.022 23.794 64.629 23.78 65.254 23.752C65.889 23.724 66.5 23.682 67.088 23.626C67.685 23.5607 68.217 23.4813 68.684 23.388L68.67 24.816C68.231 24.8813 67.723 24.9373 67.144 24.984C66.565 25.0307 65.959 25.068 65.324 25.096C64.689 25.1147 64.064 25.124 63.448 25.124C63.243 25.124 63.005 25.1193 62.734 25.11C62.473 25.1007 62.211 25.0913 61.95 25.082C61.689 25.0727 61.451 25.0633 61.236 25.054V23.64ZM59.486 21.036C59.449 21.1853 59.402 21.358 59.346 21.554C59.29 21.7407 59.243 21.904 59.206 22.044C59.103 22.5013 59.001 23.0193 58.898 23.598C58.805 24.1767 58.725 24.7787 58.66 25.404C58.604 26.0293 58.581 26.6453 58.59 27.252C58.609 27.8587 58.674 28.4187 58.786 28.932C58.879 28.6707 58.991 28.3627 59.122 28.008C59.253 27.6533 59.379 27.322 59.5 27.014L60.228 27.476C60.107 27.8213 59.985 28.1993 59.864 28.61C59.743 29.0207 59.631 29.4127 59.528 29.786C59.425 30.15 59.346 30.453 59.29 30.696C59.271 30.808 59.253 30.929 59.234 31.06C59.225 31.181 59.22 31.279 59.22 31.354C59.22 31.429 59.225 31.513 59.234 31.606C59.243 31.699 59.253 31.788 59.262 31.872L58.044 32.012C57.951 31.723 57.839 31.34 57.708 30.864C57.587 30.379 57.484 29.847 57.4 29.268C57.316 28.6893 57.274 28.1107 57.274 27.532C57.274 26.7667 57.302 26.0293 57.358 25.32C57.423 24.6107 57.493 23.9667 57.568 23.388C57.652 22.8 57.722 22.3147 57.778 21.932C57.806 21.7547 57.825 21.5727 57.834 21.386C57.843 21.1993 57.848 21.0313 57.848 20.882L59.486 21.036ZM75.712 22.366L82.586 21.792L82.684 22.856L75.796 23.458L75.712 22.366ZM76.076 24.494L82.404 23.892L82.516 24.928L76.188 25.544L76.076 24.494ZM75.712 26.678L83.006 25.936L83.118 27L75.838 27.77L75.712 26.678ZM77.77 19.944H79.072C79.072 20.9613 79.1 21.9553 79.156 22.926C79.221 23.8967 79.315 24.8207 79.436 25.698C79.557 26.566 79.702 27.3687 79.87 28.106C80.038 28.834 80.229 29.464 80.444 29.996C80.659 30.528 80.887 30.943 81.13 31.242C81.382 31.531 81.639 31.676 81.9 31.676C82.068 31.676 82.189 31.555 82.264 31.312C82.348 31.06 82.413 30.607 82.46 29.954C82.581 30.103 82.731 30.243 82.908 30.374C83.095 30.495 83.263 30.589 83.412 30.654C83.337 31.251 83.235 31.713 83.104 32.04C82.983 32.376 82.815 32.609 82.6 32.74C82.385 32.88 82.11 32.95 81.774 32.95C81.298 32.95 80.869 32.782 80.486 32.446C80.113 32.11 79.777 31.639 79.478 31.032C79.189 30.425 78.937 29.7113 78.722 28.89C78.517 28.0687 78.344 27.1773 78.204 26.216C78.064 25.2453 77.957 24.228 77.882 23.164C77.817 22.1 77.779 21.0267 77.77 19.944ZM79.688 20.602L80.43 19.846C80.775 19.986 81.135 20.168 81.508 20.392C81.891 20.616 82.185 20.8307 82.39 21.036L81.62 21.876C81.424 21.6613 81.139 21.4373 80.766 21.204C80.402 20.9613 80.043 20.7607 79.688 20.602ZM81.802 27.154L82.754 27.826C82.278 28.554 81.667 29.2447 80.92 29.898C80.183 30.551 79.366 31.135 78.47 31.648C77.574 32.161 76.655 32.563 75.712 32.852C75.637 32.693 75.535 32.507 75.404 32.292C75.273 32.077 75.133 31.895 74.984 31.746C75.684 31.569 76.37 31.326 77.042 31.018C77.723 30.71 78.363 30.355 78.96 29.954C79.567 29.5527 80.113 29.114 80.598 28.638C81.083 28.1527 81.485 27.658 81.802 27.154ZM70.434 20.672H75.866V21.876H70.434V20.672ZM72.184 23.514H74.732V24.704H72.184V23.514ZM71.218 26.902L71.89 25.964C72.179 26.132 72.473 26.328 72.772 26.552C73.08 26.7667 73.365 26.986 73.626 27.21C73.887 27.434 74.093 27.6393 74.242 27.826L73.528 28.89C73.379 28.694 73.173 28.4793 72.912 28.246C72.66 28.0033 72.385 27.7653 72.086 27.532C71.787 27.2987 71.498 27.0887 71.218 26.902ZM72.198 21.036L73.458 21.232C73.309 22.1373 73.117 23.0147 72.884 23.864C72.66 24.704 72.389 25.488 72.072 26.216C71.764 26.9347 71.409 27.5693 71.008 28.12C70.943 28.036 70.849 27.9427 70.728 27.84C70.607 27.728 70.481 27.6207 70.35 27.518C70.219 27.406 70.107 27.322 70.014 27.266C70.397 26.7713 70.728 26.1973 71.008 25.544C71.288 24.8907 71.526 24.1813 71.722 23.416C71.918 22.6413 72.077 21.848 72.198 21.036ZM74.368 23.514H74.606L74.816 23.472L75.586 23.696C75.325 26.0013 74.844 27.9333 74.144 29.492C73.444 31.041 72.576 32.217 71.54 33.02C71.475 32.927 71.386 32.819 71.274 32.698C71.171 32.577 71.059 32.46 70.938 32.348C70.817 32.245 70.709 32.166 70.616 32.11C71.633 31.373 72.459 30.309 73.094 28.918C73.738 27.5273 74.163 25.8147 74.368 23.78V23.514ZM85.904 26.09C86.109 26.0527 86.333 26.0013 86.576 25.936C86.828 25.8707 87.066 25.8053 87.29 25.74C87.533 25.656 87.845 25.5533 88.228 25.432C88.62 25.3107 89.049 25.1893 89.516 25.068C89.983 24.9373 90.449 24.83 90.916 24.746C91.392 24.662 91.84 24.62 92.26 24.62C92.96 24.62 93.576 24.7507 94.108 25.012C94.64 25.2733 95.055 25.6467 95.354 26.132C95.653 26.6173 95.802 27.1913 95.802 27.854C95.802 28.5167 95.653 29.1047 95.354 29.618C95.065 30.131 94.635 30.575 94.066 30.948C93.506 31.321 92.825 31.615 92.022 31.83C91.229 32.054 90.323 32.199 89.306 32.264L88.718 30.906C89.493 30.878 90.221 30.803 90.902 30.682C91.583 30.561 92.181 30.379 92.694 30.136C93.217 29.893 93.623 29.5807 93.912 29.198C94.211 28.8153 94.36 28.3627 94.36 27.84C94.36 27.4573 94.267 27.1213 94.08 26.832C93.893 26.5427 93.637 26.314 93.31 26.146C92.983 25.978 92.596 25.894 92.148 25.894C91.812 25.894 91.434 25.936 91.014 26.02C90.594 26.104 90.16 26.216 89.712 26.356C89.273 26.4867 88.844 26.6313 88.424 26.79C88.013 26.9393 87.64 27.0793 87.304 27.21C86.968 27.3407 86.697 27.4527 86.492 27.546L85.904 26.09ZM104.146 20.742C104.099 20.91 104.048 21.12 103.992 21.372C103.945 21.6147 103.908 21.806 103.88 21.946C103.815 22.2727 103.735 22.6647 103.642 23.122C103.558 23.57 103.455 24.0413 103.334 24.536C103.222 25.0307 103.105 25.5113 102.984 25.978C102.863 26.4727 102.713 27.0093 102.536 27.588C102.359 28.1667 102.167 28.7547 101.962 29.352C101.766 29.94 101.565 30.5 101.36 31.032C101.164 31.555 100.968 32.017 100.772 32.418L99.246 31.9C99.451 31.545 99.666 31.116 99.89 30.612C100.114 30.099 100.333 29.5527 100.548 28.974C100.763 28.386 100.963 27.8027 101.15 27.224C101.337 26.6453 101.495 26.1133 101.626 25.628C101.71 25.3013 101.794 24.9607 101.878 24.606C101.962 24.242 102.041 23.892 102.116 23.556C102.191 23.22 102.251 22.9073 102.298 22.618C102.345 22.3193 102.382 22.072 102.41 21.876C102.447 21.652 102.466 21.4233 102.466 21.19C102.475 20.9567 102.475 20.7653 102.466 20.616L104.146 20.742ZM100.842 22.982C101.383 22.982 101.957 22.954 102.564 22.898C103.171 22.842 103.787 22.7627 104.412 22.66C105.047 22.5573 105.658 22.4313 106.246 22.282V23.668C105.667 23.7987 105.056 23.9107 104.412 24.004C103.768 24.0973 103.138 24.172 102.522 24.228C101.906 24.2747 101.341 24.298 100.828 24.298C100.511 24.298 100.217 24.2933 99.946 24.284C99.685 24.2747 99.423 24.2607 99.162 24.242L99.134 22.87C99.479 22.9073 99.783 22.9353 100.044 22.954C100.315 22.9727 100.581 22.982 100.842 22.982ZM105.252 24.998C105.635 24.9607 106.055 24.9327 106.512 24.914C106.969 24.886 107.422 24.872 107.87 24.872C108.281 24.872 108.691 24.8813 109.102 24.9C109.522 24.9093 109.928 24.9373 110.32 24.984L110.278 26.328C109.923 26.2813 109.541 26.2393 109.13 26.202C108.729 26.1647 108.318 26.146 107.898 26.146C107.441 26.146 106.993 26.16 106.554 26.188C106.125 26.2067 105.691 26.244 105.252 26.3V24.998ZM105.742 28.456C105.695 28.6707 105.653 28.8853 105.616 29.1C105.579 29.3053 105.56 29.4967 105.56 29.674C105.56 29.833 105.588 29.987 105.644 30.136C105.709 30.276 105.817 30.402 105.966 30.514C106.125 30.626 106.344 30.715 106.624 30.78C106.913 30.845 107.282 30.878 107.73 30.878C108.187 30.878 108.654 30.855 109.13 30.808C109.606 30.752 110.073 30.682 110.53 30.598L110.488 32.012C110.096 32.059 109.667 32.101 109.2 32.138C108.743 32.185 108.248 32.208 107.716 32.208C106.577 32.208 105.705 32.026 105.098 31.662C104.501 31.298 104.202 30.771 104.202 30.08C104.202 29.7813 104.225 29.4873 104.272 29.198C104.319 28.8993 104.375 28.61 104.44 28.33L105.742 28.456ZM119.014 20.728C119.005 20.8867 118.991 21.0827 118.972 21.316C118.963 21.54 118.953 21.736 118.944 21.904C118.897 23.3227 118.771 24.5687 118.566 25.642C118.361 26.706 118.071 27.6487 117.698 28.47C117.334 29.282 116.877 30.001 116.326 30.626C115.785 31.242 115.15 31.807 114.422 32.32L113.134 31.27C113.386 31.139 113.657 30.971 113.946 30.766C114.235 30.561 114.501 30.337 114.744 30.094C115.192 29.674 115.584 29.2027 115.92 28.68C116.256 28.1573 116.536 27.574 116.76 26.93C116.993 26.2767 117.171 25.5393 117.292 24.718C117.413 23.8873 117.474 22.9587 117.474 21.932C117.474 21.8293 117.469 21.7033 117.46 21.554C117.46 21.4047 117.451 21.2553 117.432 21.106C117.413 20.9567 117.395 20.8307 117.376 20.728H119.014ZM123.844 23.668C123.825 23.7893 123.807 23.9153 123.788 24.046C123.769 24.1767 123.755 24.2887 123.746 24.382C123.737 24.662 123.723 25.0307 123.704 25.488C123.685 25.9453 123.653 26.4447 123.606 26.986C123.569 27.5273 123.517 28.064 123.452 28.596C123.387 29.128 123.312 29.6227 123.228 30.08C123.144 30.528 123.037 30.892 122.906 31.172C122.766 31.499 122.565 31.737 122.304 31.886C122.052 32.045 121.711 32.124 121.282 32.124C120.909 32.124 120.521 32.115 120.12 32.096C119.728 32.077 119.355 32.054 119 32.026L118.832 30.556C119.196 30.603 119.551 30.645 119.896 30.682C120.251 30.71 120.573 30.724 120.862 30.724C121.077 30.724 121.245 30.691 121.366 30.626C121.487 30.551 121.585 30.425 121.66 30.248C121.753 30.052 121.837 29.7813 121.912 29.436C121.987 29.0813 122.047 28.694 122.094 28.274C122.15 27.8447 122.192 27.406 122.22 26.958C122.257 26.5007 122.281 26.0713 122.29 25.67C122.309 25.2593 122.318 24.9 122.318 24.592H115.178C114.917 24.592 114.632 24.5967 114.324 24.606C114.025 24.6153 113.741 24.6293 113.47 24.648V23.192C113.741 23.2107 114.025 23.2293 114.324 23.248C114.623 23.2667 114.907 23.276 115.178 23.276H121.898C122.085 23.276 122.257 23.2713 122.416 23.262C122.575 23.2433 122.724 23.22 122.864 23.192L123.844 23.668ZM137.172 22.408C137.116 22.4733 137.046 22.5807 136.962 22.73C136.878 22.8793 136.813 23.0147 136.766 23.136C136.57 23.584 136.327 24.0833 136.038 24.634C135.758 25.1847 135.436 25.7353 135.072 26.286C134.717 26.8273 134.344 27.322 133.952 27.77C133.439 28.358 132.869 28.932 132.244 29.492C131.628 30.052 130.975 30.57 130.284 31.046C129.593 31.513 128.879 31.919 128.142 32.264L127.008 31.074C127.764 30.775 128.492 30.407 129.192 29.968C129.901 29.5293 130.559 29.0487 131.166 28.526C131.773 28.0033 132.305 27.4853 132.762 26.972C133.079 26.6173 133.387 26.2253 133.686 25.796C133.985 25.3573 134.251 24.9187 134.484 24.48C134.717 24.0413 134.885 23.64 134.988 23.276C134.904 23.276 134.731 23.276 134.47 23.276C134.209 23.276 133.896 23.276 133.532 23.276C133.177 23.276 132.804 23.276 132.412 23.276C132.029 23.276 131.656 23.276 131.292 23.276C130.937 23.276 130.629 23.276 130.368 23.276C130.107 23.276 129.934 23.276 129.85 23.276C129.673 23.276 129.477 23.2853 129.262 23.304C129.057 23.3133 128.865 23.3273 128.688 23.346C128.52 23.3553 128.399 23.36 128.324 23.36V21.778C128.417 21.7873 128.557 21.8013 128.744 21.82C128.931 21.8293 129.127 21.8433 129.332 21.862C129.537 21.8713 129.71 21.876 129.85 21.876C129.953 21.876 130.135 21.876 130.396 21.876C130.667 21.876 130.979 21.876 131.334 21.876C131.698 21.876 132.076 21.876 132.468 21.876C132.86 21.876 133.233 21.876 133.588 21.876C133.943 21.876 134.251 21.876 134.512 21.876C134.773 21.876 134.951 21.876 135.044 21.876C135.305 21.876 135.543 21.862 135.758 21.834C135.973 21.806 136.141 21.7733 136.262 21.736L137.172 22.408ZM134.134 26.846C134.507 27.154 134.899 27.4993 135.31 27.882C135.721 28.2647 136.122 28.6613 136.514 29.072C136.906 29.4733 137.27 29.861 137.606 30.234C137.951 30.607 138.241 30.939 138.474 31.228L137.242 32.32C136.897 31.853 136.5 31.363 136.052 30.85C135.604 30.337 135.128 29.8233 134.624 29.31C134.12 28.7873 133.616 28.302 133.112 27.854L134.134 26.846ZM145.894 20.924C145.857 21.064 145.819 21.2227 145.782 21.4C145.754 21.5773 145.721 21.7407 145.684 21.89C145.656 22.0767 145.614 22.31 145.558 22.59C145.502 22.8607 145.446 23.1453 145.39 23.444C145.343 23.7333 145.287 24.0133 145.222 24.284C145.129 24.676 145.012 25.1287 144.872 25.642C144.732 26.1553 144.569 26.706 144.382 27.294C144.205 27.8727 143.999 28.4653 143.766 29.072C143.542 29.6693 143.295 30.257 143.024 30.836C142.763 31.405 142.478 31.937 142.17 32.432L140.728 31.858C141.055 31.429 141.358 30.943 141.638 30.402C141.918 29.861 142.175 29.3053 142.408 28.736C142.641 28.1573 142.851 27.588 143.038 27.028C143.225 26.468 143.383 25.95 143.514 25.474C143.645 24.9887 143.747 24.5733 143.822 24.228C143.953 23.6307 144.055 23.0333 144.13 22.436C144.214 21.8387 144.256 21.2787 144.256 20.756L145.894 20.924ZM150.71 22.45C150.925 22.7393 151.153 23.1033 151.396 23.542C151.648 23.9713 151.891 24.4287 152.124 24.914C152.357 25.3993 152.572 25.8707 152.768 26.328C152.964 26.776 153.118 27.1633 153.23 27.49L151.844 28.148C151.741 27.7747 151.601 27.3547 151.424 26.888C151.256 26.4213 151.06 25.95 150.836 25.474C150.621 24.9887 150.388 24.5313 150.136 24.102C149.893 23.6727 149.651 23.3133 149.408 23.024L150.71 22.45ZM140.574 23.906C140.807 23.9153 141.031 23.92 141.246 23.92C141.461 23.92 141.689 23.9153 141.932 23.906C142.147 23.8967 142.417 23.8827 142.744 23.864C143.08 23.836 143.435 23.808 143.808 23.78C144.191 23.7427 144.569 23.71 144.942 23.682C145.315 23.6447 145.661 23.6167 145.978 23.598C146.305 23.5793 146.566 23.57 146.762 23.57C147.21 23.57 147.611 23.6447 147.966 23.794C148.33 23.934 148.615 24.186 148.82 24.55C149.035 24.914 149.142 25.4227 149.142 26.076C149.142 26.6267 149.114 27.224 149.058 27.868C149.011 28.5027 148.927 29.114 148.806 29.702C148.694 30.281 148.54 30.766 148.344 31.158C148.12 31.643 147.826 31.97 147.462 32.138C147.098 32.306 146.673 32.39 146.188 32.39C145.917 32.39 145.628 32.367 145.32 32.32C145.021 32.283 144.755 32.236 144.522 32.18L144.284 30.724C144.48 30.78 144.685 30.831 144.9 30.878C145.115 30.915 145.32 30.948 145.516 30.976C145.712 30.995 145.875 31.004 146.006 31.004C146.249 31.004 146.468 30.962 146.664 30.878C146.86 30.785 147.023 30.607 147.154 30.346C147.294 30.047 147.406 29.6693 147.49 29.212C147.583 28.7547 147.653 28.2647 147.7 27.742C147.747 27.2193 147.77 26.7153 147.77 26.23C147.77 25.8193 147.714 25.516 147.602 25.32C147.49 25.124 147.327 24.9933 147.112 24.928C146.897 24.8533 146.641 24.816 146.342 24.816C146.118 24.816 145.81 24.8347 145.418 24.872C145.035 24.9 144.625 24.9373 144.186 24.984C143.757 25.0307 143.351 25.0773 142.968 25.124C142.595 25.1613 142.305 25.194 142.1 25.222C141.923 25.2407 141.694 25.2687 141.414 25.306C141.143 25.3433 140.91 25.3807 140.714 25.418L140.574 23.906ZM150.682 20.448C150.803 20.616 150.934 20.8167 151.074 21.05C151.214 21.2833 151.349 21.5167 151.48 21.75C151.611 21.9833 151.723 22.1933 151.816 22.38L150.892 22.772C150.808 22.5853 150.701 22.3753 150.57 22.142C150.439 21.9087 150.304 21.6753 150.164 21.442C150.033 21.2087 149.903 21.0033 149.772 20.826L150.682 20.448ZM152.278 19.86C152.399 20.0373 152.535 20.2427 152.684 20.476C152.833 20.7093 152.973 20.9427 153.104 21.176C153.244 21.4 153.356 21.596 153.44 21.764L152.53 22.17C152.381 21.8713 152.199 21.54 151.984 21.176C151.779 20.812 151.573 20.4993 151.368 20.238L152.278 19.86ZM4.116 45.768H13.258V47.042H4.116V45.768ZM5.79599 42.24H12.684V43.5H5.79599V42.24ZM8.092 40.014H9.40799V46.44H8.092V40.014ZM5.76799 40.21L7.09799 40.462C6.97699 41.106 6.81799 41.745 6.62199 42.38C6.43499 43.005 6.221 43.589 5.978 44.13C5.735 44.662 5.46899 45.133 5.17999 45.544C5.09599 45.469 4.98399 45.39 4.84399 45.306C4.70399 45.213 4.55899 45.124 4.40999 45.04C4.26099 44.947 4.12999 44.872 4.01799 44.816C4.44699 44.275 4.80699 43.593 5.09599 42.772C5.39499 41.951 5.61899 41.097 5.76799 40.21ZM9.31 46.58H10.598V51.172C10.598 51.377 10.621 51.513 10.668 51.578C10.715 51.634 10.813 51.662 10.962 51.662C10.999 51.662 11.06 51.662 11.144 51.662C11.228 51.662 11.317 51.662 11.41 51.662C11.513 51.662 11.611 51.662 11.704 51.662C11.797 51.662 11.863 51.662 11.9 51.662C12.012 51.662 12.096 51.615 12.152 51.522C12.208 51.419 12.245 51.223 12.264 50.934C12.292 50.635 12.311 50.192 12.32 49.604C12.413 49.669 12.525 49.739 12.656 49.814C12.796 49.879 12.941 49.94 13.09 49.996C13.239 50.043 13.37 50.085 13.482 50.122C13.445 50.831 13.375 51.387 13.272 51.788C13.179 52.18 13.034 52.451 12.838 52.6C12.642 52.759 12.371 52.838 12.026 52.838C11.97 52.838 11.881 52.838 11.76 52.838C11.639 52.838 11.513 52.838 11.382 52.838C11.251 52.838 11.125 52.838 11.004 52.838C10.892 52.838 10.808 52.838 10.752 52.838C10.36 52.838 10.061 52.787 9.85599 52.684C9.65099 52.591 9.506 52.423 9.422 52.18C9.347 51.937 9.31 51.606 9.31 51.186V46.58ZM6.45399 46.79H7.784C7.737 47.537 7.65799 48.227 7.54599 48.862C7.43399 49.487 7.252 50.061 7 50.584C6.757 51.097 6.41199 51.555 5.96399 51.956C5.52499 52.367 4.947 52.717 4.228 53.006C4.181 52.903 4.11099 52.782 4.01799 52.642C3.93399 52.511 3.836 52.381 3.724 52.25C3.621 52.129 3.519 52.031 3.416 51.956C4.06 51.723 4.57299 51.438 4.95599 51.102C5.33899 50.766 5.633 50.383 5.838 49.954C6.043 49.525 6.18799 49.049 6.27199 48.526C6.35599 47.994 6.41699 47.415 6.45399 46.79ZM0.895996 41.064L1.67999 40.168C1.96899 40.299 2.26799 40.457 2.57599 40.644C2.88399 40.831 3.173 41.022 3.444 41.218C3.715 41.414 3.93399 41.601 4.10199 41.778L3.26199 42.786C3.10299 42.609 2.89299 42.417 2.63199 42.212C2.37099 42.007 2.086 41.801 1.778 41.596C1.47 41.391 1.176 41.213 0.895996 41.064ZM0.237991 44.844L0.965988 43.892C1.25499 44.023 1.55899 44.177 1.87599 44.354C2.20299 44.522 2.51099 44.699 2.79999 44.886C3.08899 45.073 3.323 45.245 3.5 45.404L2.73 46.468C2.553 46.3 2.32399 46.118 2.04399 45.922C1.76399 45.726 1.46499 45.535 1.14799 45.348C0.839995 45.161 0.536991 44.993 0.237991 44.844ZM0.62999 52.04C0.84499 51.676 1.08299 51.247 1.34399 50.752C1.60499 50.248 1.871 49.721 2.142 49.17C2.413 48.61 2.65999 48.064 2.88399 47.532L3.864 48.288C3.659 48.792 3.43899 49.31 3.20599 49.842C2.97299 50.365 2.73499 50.887 2.49199 51.41C2.25899 51.923 2.02499 52.404 1.79199 52.852L0.62999 52.04ZM18.592 42.254H21.56V43.164H18.592V42.254ZM18.368 40.56H22.218V44.9H18.34V43.962H20.986V41.512H18.368V40.56ZM23.002 42.254H26.012V43.164H23.002V42.254ZM19.754 48.05H26.39V48.974H19.754V48.05ZM19.754 49.744H26.39V50.682H19.754V49.744ZM19.656 51.494H27.16V52.572H19.656V51.494ZM22.764 40.56H26.712V44.9H22.75V43.962H25.466V41.512H22.764V40.56ZM19.894 44.76L21.154 45.152C20.939 45.591 20.683 46.043 20.384 46.51C20.085 46.977 19.763 47.42 19.418 47.84C19.073 48.251 18.718 48.619 18.354 48.946C18.233 48.825 18.083 48.685 17.906 48.526C17.729 48.367 17.57 48.241 17.43 48.148C17.766 47.859 18.093 47.523 18.41 47.14C18.727 46.757 19.017 46.361 19.278 45.95C19.539 45.539 19.745 45.143 19.894 44.76ZM20.23 46.216H26.81V47.252H20.23V53.02H19.054V47.028L19.824 46.216H20.23ZM23.044 44.886L24.374 45.25C24.178 45.586 23.982 45.922 23.786 46.258C23.59 46.585 23.413 46.865 23.254 47.098L22.218 46.776C22.367 46.515 22.521 46.207 22.68 45.852C22.839 45.488 22.96 45.166 23.044 44.886ZM22.33 46.902H23.562V51.872H22.33V46.902ZM14.938 41.078L15.68 40.098C15.951 40.21 16.235 40.345 16.534 40.504C16.833 40.663 17.117 40.826 17.388 40.994C17.659 41.162 17.878 41.325 18.046 41.484L17.262 42.576C17.103 42.417 16.893 42.249 16.632 42.072C16.38 41.885 16.105 41.703 15.806 41.526C15.507 41.349 15.218 41.199 14.938 41.078ZM14.224 44.872L14.952 43.878C15.232 43.971 15.526 44.093 15.834 44.242C16.142 44.382 16.431 44.536 16.702 44.704C16.973 44.863 17.197 45.017 17.374 45.166L16.618 46.258C16.45 46.109 16.231 45.95 15.96 45.782C15.689 45.614 15.405 45.451 15.106 45.292C14.807 45.133 14.513 44.993 14.224 44.872ZM14.56 52.054C14.775 51.69 15.008 51.261 15.26 50.766C15.512 50.271 15.764 49.749 16.016 49.198C16.277 48.647 16.515 48.106 16.73 47.574L17.78 48.372C17.584 48.857 17.369 49.361 17.136 49.884C16.912 50.407 16.683 50.92 16.45 51.424C16.217 51.919 15.983 52.39 15.75 52.838L14.56 52.054ZM34.384 45.586V46.468H39.746V45.586H34.384ZM34.384 43.836V44.718H39.746V43.836H34.384ZM33.306 42.926H40.866V47.392H33.306V42.926ZM32.816 41.134H41.272V42.184H32.816V41.134ZM34.51 49.8H39.634V50.724H34.51V49.8ZM34.51 51.606H39.606V52.6H34.51V51.606ZM35.336 40.014H36.498V43.388H35.336V40.014ZM35.49 43.36H36.47V46.944H35.49V43.36ZM37.576 40.014H38.738V43.388H37.576V40.014ZM37.59 43.36H38.57V46.944H37.59V43.36ZM33.852 47.938H40.32V53.006H39.018V48.946H35.098V53.048H33.852V47.938ZM28.448 42.996H32.872V44.228H28.448V42.996ZM30.212 40.014H31.416V52.992H30.212V40.014ZM30.184 43.78L30.954 44.046C30.851 44.597 30.725 45.171 30.576 45.768C30.436 46.365 30.268 46.953 30.072 47.532C29.885 48.111 29.68 48.652 29.456 49.156C29.232 49.651 28.999 50.075 28.756 50.43C28.691 50.253 28.593 50.052 28.462 49.828C28.341 49.604 28.229 49.413 28.126 49.254C28.35 48.946 28.565 48.577 28.77 48.148C28.985 47.719 29.181 47.261 29.358 46.776C29.545 46.281 29.708 45.777 29.848 45.264C29.988 44.751 30.1 44.256 30.184 43.78ZM31.332 45.026C31.407 45.119 31.523 45.287 31.682 45.53C31.841 45.763 32.009 46.02 32.186 46.3C32.373 46.58 32.541 46.841 32.69 47.084C32.839 47.317 32.947 47.485 33.012 47.588L32.34 48.54C32.265 48.353 32.158 48.125 32.018 47.854C31.887 47.574 31.743 47.285 31.584 46.986C31.425 46.687 31.276 46.412 31.136 46.16C30.996 45.899 30.884 45.698 30.8 45.558L31.332 45.026ZM48.09 42.226C48.501 42.291 48.963 42.338 49.476 42.366C49.999 42.394 50.535 42.403 51.086 42.394C51.637 42.385 52.164 42.366 52.668 42.338C53.172 42.31 53.606 42.273 53.97 42.226V43.654C53.569 43.691 53.116 43.724 52.612 43.752C52.108 43.771 51.585 43.78 51.044 43.78C50.512 43.78 49.989 43.771 49.476 43.752C48.963 43.724 48.505 43.691 48.104 43.654L48.09 42.226ZM48.888 48.05C48.832 48.293 48.785 48.512 48.748 48.708C48.72 48.904 48.706 49.1 48.706 49.296C48.706 49.455 48.739 49.604 48.804 49.744C48.879 49.884 48.995 50.005 49.154 50.108C49.322 50.211 49.546 50.295 49.826 50.36C50.115 50.416 50.47 50.444 50.89 50.444C51.525 50.444 52.117 50.416 52.668 50.36C53.228 50.295 53.797 50.197 54.376 50.066L54.404 51.564C53.965 51.648 53.452 51.718 52.864 51.774C52.285 51.821 51.618 51.844 50.862 51.844C49.677 51.844 48.799 51.653 48.23 51.27C47.67 50.878 47.39 50.341 47.39 49.66C47.39 49.408 47.409 49.147 47.446 48.876C47.483 48.596 47.544 48.283 47.628 47.938L48.888 48.05ZM45.654 41.218C45.626 41.302 45.589 41.414 45.542 41.554C45.505 41.685 45.467 41.82 45.43 41.96C45.402 42.091 45.379 42.198 45.36 42.282C45.313 42.515 45.257 42.8 45.192 43.136C45.136 43.463 45.075 43.822 45.01 44.214C44.954 44.597 44.898 44.989 44.842 45.39C44.795 45.782 44.753 46.165 44.716 46.538C44.688 46.911 44.674 47.252 44.674 47.56C44.674 47.803 44.679 48.05 44.688 48.302C44.707 48.545 44.73 48.797 44.758 49.058C44.842 48.871 44.926 48.675 45.01 48.47C45.094 48.255 45.178 48.045 45.262 47.84C45.346 47.635 45.425 47.448 45.5 47.28L46.2 47.84C46.079 48.185 45.948 48.568 45.808 48.988C45.668 49.408 45.542 49.809 45.43 50.192C45.327 50.565 45.253 50.869 45.206 51.102C45.187 51.195 45.169 51.307 45.15 51.438C45.131 51.559 45.127 51.662 45.136 51.746C45.136 51.811 45.136 51.891 45.136 51.984C45.145 52.087 45.155 52.18 45.164 52.264L43.89 52.348C43.75 51.863 43.629 51.223 43.526 50.43C43.423 49.637 43.372 48.769 43.372 47.826C43.372 47.303 43.395 46.776 43.442 46.244C43.489 45.703 43.545 45.18 43.61 44.676C43.675 44.172 43.741 43.71 43.806 43.29C43.881 42.87 43.937 42.52 43.974 42.24C44.002 42.063 44.025 41.871 44.044 41.666C44.072 41.461 44.091 41.265 44.1 41.078L45.654 41.218ZM60.62 43.094H69.202V44.424H60.62V43.094ZM66.164 40.168H67.536V51.312C67.536 51.769 67.471 52.105 67.34 52.32C67.209 52.544 66.995 52.707 66.696 52.81C66.397 52.913 65.991 52.973 65.478 52.992C64.965 53.02 64.325 53.029 63.56 53.02C63.541 52.899 63.499 52.759 63.434 52.6C63.378 52.441 63.313 52.283 63.238 52.124C63.173 51.965 63.107 51.825 63.042 51.704C63.425 51.723 63.798 51.737 64.162 51.746C64.526 51.746 64.843 51.746 65.114 51.746C65.394 51.737 65.59 51.732 65.702 51.732C65.87 51.723 65.987 51.69 66.052 51.634C66.127 51.569 66.164 51.461 66.164 51.312V40.168ZM61.404 46.244L62.552 45.698C62.785 46.053 63.028 46.435 63.28 46.846C63.541 47.247 63.789 47.644 64.022 48.036C64.255 48.419 64.442 48.75 64.582 49.03L63.336 49.688C63.205 49.399 63.033 49.058 62.818 48.666C62.603 48.265 62.37 47.854 62.118 47.434C61.866 47.005 61.628 46.608 61.404 46.244ZM58.254 43.948L59.57 42.618L59.584 42.646V52.978H58.254V43.948ZM59.71 40.098L61.012 40.504C60.704 41.316 60.335 42.119 59.906 42.912C59.486 43.705 59.029 44.452 58.534 45.152C58.039 45.852 57.531 46.468 57.008 47C56.971 46.897 56.901 46.762 56.798 46.594C56.705 46.417 56.602 46.244 56.49 46.076C56.387 45.899 56.294 45.759 56.21 45.656C56.677 45.208 57.129 44.69 57.568 44.102C58.007 43.505 58.408 42.865 58.772 42.184C59.136 41.503 59.449 40.807 59.71 40.098ZM71.274 41.456H82.306V42.506H71.274V41.456ZM71.932 43.318H81.634V44.312H71.932V43.318ZM74.2 48.568H80.808V49.352H74.2V48.568ZM74.2 50.038H80.808V50.836H74.2V50.038ZM74.186 51.55H80.934V52.516H74.186V51.55ZM70.63 45.124H82.894V46.188H70.63V45.124ZM76.062 42.198H77.42V45.964H76.062V42.198ZM73.024 40.378L74.186 39.986C74.391 40.201 74.583 40.439 74.76 40.7C74.937 40.961 75.073 41.199 75.166 41.414L73.948 41.89C73.864 41.675 73.733 41.428 73.556 41.148C73.379 40.859 73.201 40.602 73.024 40.378ZM79.212 39.972L80.626 40.364C80.421 40.635 80.215 40.896 80.01 41.148C79.805 41.4 79.618 41.615 79.45 41.792L78.344 41.414C78.484 41.209 78.638 40.971 78.806 40.7C78.974 40.429 79.109 40.187 79.212 39.972ZM73.682 45.614L74.998 45.922C74.587 47.051 74.046 48.083 73.374 49.016C72.702 49.94 71.955 50.71 71.134 51.326C71.069 51.233 70.975 51.125 70.854 51.004C70.733 50.883 70.607 50.761 70.476 50.64C70.355 50.509 70.243 50.411 70.14 50.346C70.943 49.814 71.647 49.137 72.254 48.316C72.87 47.495 73.346 46.594 73.682 45.614ZM73.486 46.902H81.634V52.964H80.262V47.868H74.802V52.992H73.486V46.902ZM88.718 40.84C88.681 41.092 88.648 41.363 88.62 41.652C88.592 41.932 88.573 42.198 88.564 42.45C88.545 42.833 88.527 43.309 88.508 43.878C88.489 44.438 88.471 45.035 88.452 45.67C88.433 46.295 88.419 46.916 88.41 47.532C88.401 48.139 88.396 48.685 88.396 49.17C88.396 49.665 88.485 50.057 88.662 50.346C88.849 50.635 89.105 50.845 89.432 50.976C89.759 51.097 90.123 51.158 90.524 51.158C91.14 51.158 91.695 51.079 92.19 50.92C92.685 50.761 93.128 50.547 93.52 50.276C93.921 50.005 94.281 49.697 94.598 49.352C94.915 49.007 95.2 48.647 95.452 48.274L96.446 49.492C96.213 49.828 95.919 50.178 95.564 50.542C95.209 50.906 94.785 51.247 94.29 51.564C93.805 51.881 93.245 52.138 92.61 52.334C91.985 52.53 91.28 52.628 90.496 52.628C89.787 52.628 89.166 52.521 88.634 52.306C88.102 52.091 87.687 51.746 87.388 51.27C87.089 50.794 86.94 50.169 86.94 49.394C86.94 48.993 86.945 48.54 86.954 48.036C86.963 47.532 86.973 47.014 86.982 46.482C87.001 45.941 87.015 45.413 87.024 44.9C87.043 44.387 87.057 43.915 87.066 43.486C87.075 43.057 87.08 42.711 87.08 42.45C87.08 42.151 87.066 41.867 87.038 41.596C87.019 41.316 86.982 41.059 86.926 40.826L88.718 40.84ZM7.32199 60.518H10.724V61.778H7.32199V60.518ZM6.776 60.518H8.10599V66.356C8.10599 66.879 8.08699 67.439 8.04999 68.036C8.01299 68.633 7.943 69.24 7.84 69.856C7.737 70.463 7.58299 71.041 7.37799 71.592C7.17299 72.143 6.90199 72.642 6.56599 73.09C6.49099 73.006 6.38399 72.913 6.24399 72.81C6.11299 72.717 5.97299 72.623 5.82399 72.53C5.68399 72.437 5.56299 72.362 5.45999 72.306C5.87099 71.765 6.165 71.158 6.342 70.486C6.529 69.805 6.64499 69.109 6.69199 68.4C6.74799 67.681 6.776 67 6.776 66.356V60.518ZM10.066 60.518H11.382V70.752C11.382 71.172 11.405 71.405 11.452 71.452C11.517 71.499 11.583 71.522 11.648 71.522C11.685 71.522 11.732 71.522 11.788 71.522C11.844 71.522 11.891 71.522 11.928 71.522C12.04 71.522 12.119 71.494 12.166 71.438C12.222 71.391 12.255 71.228 12.264 70.948C12.283 70.789 12.297 70.547 12.306 70.22C12.315 69.893 12.32 69.515 12.32 69.086C12.46 69.207 12.623 69.319 12.81 69.422C13.006 69.525 13.193 69.609 13.37 69.674C13.37 69.917 13.361 70.178 13.342 70.458C13.333 70.729 13.319 70.981 13.3 71.214C13.281 71.438 13.258 71.615 13.23 71.746C13.165 72.129 13.02 72.395 12.796 72.544C12.703 72.619 12.586 72.675 12.446 72.712C12.306 72.749 12.161 72.768 12.012 72.768C11.909 72.768 11.783 72.768 11.634 72.768C11.494 72.768 11.373 72.768 11.27 72.768C11.13 72.768 10.976 72.74 10.808 72.684C10.649 72.637 10.514 72.558 10.402 72.446C10.318 72.362 10.253 72.259 10.206 72.138C10.159 72.026 10.122 71.863 10.094 71.648C10.075 71.424 10.066 71.111 10.066 70.71V60.518ZM1.694 60.518H4.81599V61.75H1.694V60.518ZM1.694 63.752H4.85799V64.97H1.694V63.752ZM1.67999 67.056H4.82999V68.316H1.67999V67.056ZM1.16199 60.518H2.394V65.572C2.394 66.132 2.37999 66.739 2.35199 67.392C2.32399 68.036 2.26799 68.694 2.18399 69.366C2.10899 70.029 1.99699 70.677 1.84799 71.312C1.70799 71.947 1.51699 72.521 1.27399 73.034C1.18999 72.969 1.083 72.894 0.951996 72.81C0.820996 72.726 0.68599 72.647 0.54599 72.572C0.40599 72.497 0.279999 72.446 0.167999 72.418C0.410999 71.923 0.596997 71.391 0.727997 70.822C0.858997 70.243 0.956988 69.651 1.02199 69.044C1.08699 68.428 1.12499 67.826 1.13399 67.238C1.15299 66.641 1.16199 66.085 1.16199 65.572V60.518ZM4.18599 60.518H5.43199V71.396C5.43199 71.713 5.39499 71.97 5.31999 72.166C5.24499 72.362 5.10999 72.516 4.91399 72.628C4.71799 72.731 4.46599 72.796 4.15799 72.824C3.85899 72.861 3.48099 72.88 3.02399 72.88C3.01499 72.759 2.98699 72.619 2.93999 72.46C2.90299 72.311 2.861 72.157 2.814 71.998C2.767 71.849 2.711 71.718 2.646 71.606C2.945 71.615 3.21499 71.625 3.45799 71.634C3.70099 71.634 3.864 71.634 3.948 71.634C4.032 71.625 4.09299 71.601 4.12999 71.564C4.16699 71.527 4.18599 71.466 4.18599 71.382V60.518ZM18.34 70.542C18.34 70.393 18.34 70.122 18.34 69.73C18.34 69.329 18.34 68.857 18.34 68.316C18.34 67.765 18.34 67.196 18.34 66.608C18.34 66.011 18.34 65.432 18.34 64.872C18.34 64.312 18.34 63.817 18.34 63.388C18.34 62.959 18.34 62.646 18.34 62.45C18.34 62.226 18.331 61.969 18.312 61.68C18.293 61.381 18.261 61.115 18.214 60.882H19.936C19.917 61.106 19.894 61.363 19.866 61.652C19.847 61.941 19.838 62.207 19.838 62.45C19.838 62.767 19.838 63.169 19.838 63.654C19.838 64.13 19.838 64.648 19.838 65.208C19.838 65.768 19.838 66.333 19.838 66.902C19.838 67.471 19.838 68.008 19.838 68.512C19.838 69.007 19.838 69.436 19.838 69.8C19.838 70.164 19.838 70.411 19.838 70.542C19.838 70.691 19.843 70.873 19.852 71.088C19.861 71.303 19.875 71.522 19.894 71.746C19.913 71.961 19.931 72.157 19.95 72.334H18.228C18.265 72.091 18.293 71.802 18.312 71.466C18.331 71.121 18.34 70.813 18.34 70.542ZM19.516 64.536C19.973 64.667 20.487 64.83 21.056 65.026C21.625 65.213 22.199 65.418 22.778 65.642C23.357 65.857 23.907 66.071 24.43 66.286C24.953 66.501 25.396 66.697 25.76 66.874L25.13 68.4C24.738 68.185 24.295 67.971 23.8 67.756C23.315 67.532 22.815 67.317 22.302 67.112C21.789 66.907 21.289 66.72 20.804 66.552C20.328 66.384 19.899 66.239 19.516 66.118V64.536ZM30.954 61.274C31.141 61.293 31.351 61.311 31.584 61.33C31.827 61.339 32.065 61.344 32.298 61.344C32.447 61.344 32.704 61.344 33.068 61.344C33.441 61.344 33.857 61.344 34.314 61.344C34.781 61.344 35.243 61.344 35.7 61.344C36.167 61.344 36.582 61.344 36.946 61.344C37.319 61.344 37.585 61.344 37.744 61.344C37.968 61.344 38.206 61.339 38.458 61.33C38.719 61.311 38.939 61.293 39.116 61.274V62.716C38.939 62.697 38.724 62.688 38.472 62.688C38.22 62.679 37.973 62.674 37.73 62.674C37.571 62.674 37.31 62.674 36.946 62.674C36.582 62.674 36.167 62.674 35.7 62.674C35.243 62.674 34.781 62.674 34.314 62.674C33.857 62.674 33.446 62.674 33.082 62.674C32.718 62.674 32.457 62.674 32.298 62.674C32.074 62.674 31.841 62.679 31.598 62.688C31.365 62.688 31.15 62.697 30.954 62.716V61.274ZM40.222 65.124C40.175 65.199 40.129 65.283 40.082 65.376C40.045 65.469 40.017 65.549 39.998 65.614C39.802 66.295 39.541 66.977 39.214 67.658C38.887 68.339 38.463 68.965 37.94 69.534C37.221 70.337 36.428 70.971 35.56 71.438C34.701 71.905 33.824 72.264 32.928 72.516L31.836 71.256C32.853 71.041 33.782 70.719 34.622 70.29C35.462 69.851 36.167 69.333 36.736 68.736C37.137 68.316 37.464 67.859 37.716 67.364C37.977 66.869 38.169 66.393 38.29 65.936C38.197 65.936 38.015 65.936 37.744 65.936C37.473 65.936 37.142 65.936 36.75 65.936C36.367 65.936 35.957 65.936 35.518 65.936C35.079 65.936 34.631 65.936 34.174 65.936C33.726 65.936 33.301 65.936 32.9 65.936C32.499 65.936 32.144 65.936 31.836 65.936C31.537 65.936 31.313 65.936 31.164 65.936C30.996 65.936 30.772 65.941 30.492 65.95C30.221 65.959 29.951 65.973 29.68 65.992V64.536C29.96 64.564 30.226 64.587 30.478 64.606C30.73 64.625 30.959 64.634 31.164 64.634C31.276 64.634 31.477 64.634 31.766 64.634C32.055 64.634 32.396 64.634 32.788 64.634C33.18 64.634 33.6 64.634 34.048 64.634C34.505 64.634 34.963 64.634 35.42 64.634C35.877 64.634 36.302 64.634 36.694 64.634C37.095 64.634 37.441 64.634 37.73 64.634C38.019 64.634 38.22 64.634 38.332 64.634C38.528 64.634 38.701 64.625 38.85 64.606C39.009 64.578 39.135 64.545 39.228 64.508L40.222 65.124ZM52.36 60.126C52.481 60.294 52.607 60.49 52.738 60.714C52.878 60.938 53.009 61.162 53.13 61.386C53.261 61.601 53.373 61.797 53.466 61.974L52.514 62.38C52.421 62.184 52.313 61.979 52.192 61.764C52.071 61.54 51.94 61.321 51.8 61.106C51.669 60.882 51.543 60.681 51.422 60.504L52.36 60.126ZM54.236 59.762C54.348 59.921 54.474 60.112 54.614 60.336C54.754 60.56 54.889 60.789 55.02 61.022C55.16 61.246 55.277 61.442 55.37 61.61L54.418 62.03C54.269 61.741 54.091 61.419 53.886 61.064C53.681 60.7 53.48 60.397 53.284 60.154L54.236 59.762ZM53.704 62.702C53.648 62.814 53.601 62.94 53.564 63.08C53.527 63.22 53.489 63.365 53.452 63.514C53.377 63.869 53.279 64.265 53.158 64.704C53.037 65.143 52.887 65.595 52.71 66.062C52.542 66.529 52.346 66.986 52.122 67.434C51.898 67.873 51.641 68.279 51.352 68.652C50.932 69.193 50.451 69.707 49.91 70.192C49.369 70.668 48.757 71.097 48.076 71.48C47.404 71.853 46.643 72.175 45.794 72.446L44.59 71.13C45.514 70.897 46.307 70.617 46.97 70.29C47.642 69.963 48.23 69.59 48.734 69.17C49.238 68.741 49.681 68.283 50.064 67.798C50.391 67.387 50.671 66.93 50.904 66.426C51.137 65.922 51.333 65.418 51.492 64.914C51.651 64.401 51.758 63.929 51.814 63.5C51.674 63.5 51.431 63.5 51.086 63.5C50.741 63.5 50.335 63.5 49.868 63.5C49.401 63.5 48.911 63.5 48.398 63.5C47.894 63.5 47.404 63.5 46.928 63.5C46.461 63.5 46.051 63.5 45.696 63.5C45.341 63.5 45.085 63.5 44.926 63.5C44.637 63.5 44.357 63.505 44.086 63.514C43.825 63.523 43.601 63.537 43.414 63.556V61.988C43.554 61.997 43.713 62.011 43.89 62.03C44.067 62.049 44.249 62.063 44.436 62.072C44.623 62.081 44.791 62.086 44.94 62.086C45.071 62.086 45.276 62.086 45.556 62.086C45.836 62.086 46.167 62.086 46.55 62.086C46.933 62.086 47.339 62.086 47.768 62.086C48.197 62.086 48.622 62.086 49.042 62.086C49.471 62.086 49.868 62.086 50.232 62.086C50.605 62.086 50.923 62.086 51.184 62.086C51.445 62.086 51.623 62.086 51.716 62.086C51.847 62.086 51.991 62.081 52.15 62.072C52.309 62.063 52.467 62.039 52.626 62.002L53.704 62.702ZM62.972 71.522C63 71.401 63.023 71.265 63.042 71.116C63.061 70.957 63.07 70.799 63.07 70.64C63.07 70.537 63.07 70.332 63.07 70.024C63.07 69.707 63.07 69.324 63.07 68.876C63.07 68.419 63.07 67.929 63.07 67.406C63.07 66.874 63.07 66.342 63.07 65.81C63.07 65.269 63.07 64.765 63.07 64.298C63.07 63.831 63.07 63.425 63.07 63.08C63.07 62.735 63.07 62.492 63.07 62.352C63.07 62.063 63.056 61.815 63.028 61.61C63 61.405 62.986 61.279 62.986 61.232H64.61C64.61 61.279 64.596 61.405 64.568 61.61C64.549 61.815 64.54 62.063 64.54 62.352C64.54 62.492 64.54 62.725 64.54 63.052C64.54 63.379 64.54 63.766 64.54 64.214C64.54 64.653 64.54 65.124 64.54 65.628C64.54 66.123 64.54 66.617 64.54 67.112C64.54 67.597 64.54 68.05 64.54 68.47C64.54 68.89 64.54 69.245 64.54 69.534C64.54 69.823 64.54 70.01 64.54 70.094C64.951 69.907 65.385 69.66 65.842 69.352C66.299 69.035 66.747 68.666 67.186 68.246C67.625 67.826 68.012 67.369 68.348 66.874L69.202 68.078C68.801 68.61 68.329 69.119 67.788 69.604C67.256 70.089 66.696 70.533 66.108 70.934C65.529 71.335 64.969 71.671 64.428 71.942C64.297 72.007 64.19 72.068 64.106 72.124C64.022 72.189 63.952 72.245 63.896 72.292L62.972 71.522ZM56.518 71.396C57.125 70.976 57.629 70.467 58.03 69.87C58.431 69.263 58.735 68.638 58.94 67.994C59.043 67.686 59.122 67.299 59.178 66.832C59.234 66.365 59.271 65.871 59.29 65.348C59.318 64.816 59.332 64.293 59.332 63.78C59.341 63.267 59.346 62.809 59.346 62.408C59.346 62.165 59.337 61.955 59.318 61.778C59.299 61.601 59.271 61.433 59.234 61.274H60.858C60.858 61.311 60.849 61.391 60.83 61.512C60.821 61.624 60.811 61.759 60.802 61.918C60.793 62.067 60.788 62.226 60.788 62.394C60.788 62.795 60.783 63.267 60.774 63.808C60.765 64.34 60.741 64.891 60.704 65.46C60.676 66.029 60.634 66.571 60.578 67.084C60.531 67.597 60.457 68.027 60.354 68.372C60.149 69.137 59.831 69.856 59.402 70.528C58.973 71.2 58.459 71.788 57.862 72.292L56.518 71.396ZM77.826 62.254C77.733 62.973 77.611 63.733 77.462 64.536C77.322 65.329 77.131 66.118 76.888 66.902C76.608 67.854 76.291 68.661 75.936 69.324C75.591 69.977 75.213 70.477 74.802 70.822C74.391 71.167 73.957 71.34 73.5 71.34C73.033 71.34 72.599 71.181 72.198 70.864C71.797 70.537 71.47 70.085 71.218 69.506C70.966 68.918 70.84 68.237 70.84 67.462C70.84 66.678 70.999 65.936 71.316 65.236C71.643 64.536 72.091 63.915 72.66 63.374C73.229 62.833 73.892 62.408 74.648 62.1C75.404 61.792 76.221 61.638 77.098 61.638C77.938 61.638 78.694 61.773 79.366 62.044C80.047 62.315 80.626 62.693 81.102 63.178C81.587 63.654 81.956 64.214 82.208 64.858C82.46 65.502 82.586 66.188 82.586 66.916C82.586 67.896 82.381 68.769 81.97 69.534C81.569 70.29 80.976 70.911 80.192 71.396C79.408 71.872 78.447 72.194 77.308 72.362L76.482 71.046C76.725 71.018 76.949 70.99 77.154 70.962C77.359 70.925 77.551 70.887 77.728 70.85C78.176 70.747 78.601 70.589 79.002 70.374C79.413 70.159 79.777 69.889 80.094 69.562C80.411 69.226 80.659 68.834 80.836 68.386C81.023 67.938 81.116 67.434 81.116 66.874C81.116 66.314 81.027 65.796 80.85 65.32C80.673 64.835 80.411 64.415 80.066 64.06C79.721 63.705 79.296 63.43 78.792 63.234C78.288 63.029 77.719 62.926 77.084 62.926C76.319 62.926 75.637 63.061 75.04 63.332C74.443 63.603 73.934 63.962 73.514 64.41C73.103 64.849 72.791 65.325 72.576 65.838C72.361 66.351 72.254 66.846 72.254 67.322C72.254 67.854 72.319 68.297 72.45 68.652C72.581 68.997 72.744 69.254 72.94 69.422C73.136 69.59 73.337 69.674 73.542 69.674C73.747 69.674 73.957 69.571 74.172 69.366C74.387 69.151 74.601 68.815 74.816 68.358C75.04 67.901 75.259 67.317 75.474 66.608C75.689 65.936 75.866 65.222 76.006 64.466C76.155 63.701 76.263 62.954 76.328 62.226L77.826 62.254ZM86.254 60.714H97.02V61.932H86.254V60.714ZM85.47 60.714H86.786V64.83C86.786 65.418 86.767 66.062 86.73 66.762C86.702 67.462 86.637 68.181 86.534 68.918C86.431 69.655 86.282 70.374 86.086 71.074C85.899 71.765 85.647 72.399 85.33 72.978C85.246 72.903 85.134 72.824 84.994 72.74C84.854 72.656 84.709 72.572 84.56 72.488C84.411 72.413 84.28 72.357 84.168 72.32C84.467 71.769 84.705 71.177 84.882 70.542C85.059 69.898 85.19 69.245 85.274 68.582C85.358 67.91 85.409 67.252 85.428 66.608C85.456 65.964 85.47 65.367 85.47 64.816V60.714ZM89.194 66.174V67.266H94.57V66.174H89.194ZM89.194 64.144V65.208H94.57V64.144H89.194ZM87.906 63.122H95.928V68.274H87.906V63.122ZM91.224 67.672H92.512V71.662C92.512 71.979 92.47 72.227 92.386 72.404C92.311 72.591 92.157 72.731 91.924 72.824C91.691 72.917 91.392 72.973 91.028 72.992C90.664 73.011 90.225 73.02 89.712 73.02C89.684 72.843 89.628 72.642 89.544 72.418C89.469 72.203 89.395 72.012 89.32 71.844C89.684 71.853 90.02 71.858 90.328 71.858C90.645 71.858 90.855 71.858 90.958 71.858C91.07 71.858 91.14 71.844 91.168 71.816C91.205 71.779 91.224 71.718 91.224 71.634V67.672ZM91.042 61.75L92.61 61.89C92.507 62.245 92.4 62.59 92.288 62.926C92.185 63.262 92.087 63.547 91.994 63.78L90.664 63.626C90.711 63.449 90.757 63.248 90.804 63.024C90.86 62.8 90.907 62.576 90.944 62.352C90.991 62.128 91.023 61.927 91.042 61.75ZM93.492 69.464L94.514 68.82C94.85 69.091 95.191 69.389 95.536 69.716C95.891 70.043 96.222 70.369 96.53 70.696C96.838 71.023 97.081 71.326 97.258 71.606L96.18 72.32C96.012 72.049 95.779 71.746 95.48 71.41C95.181 71.074 94.859 70.733 94.514 70.388C94.169 70.043 93.828 69.735 93.492 69.464ZM88.872 68.876L90.146 69.24C89.801 69.837 89.371 70.421 88.858 70.99C88.354 71.55 87.85 72.021 87.346 72.404C87.271 72.329 87.169 72.241 87.038 72.138C86.907 72.045 86.767 71.947 86.618 71.844C86.478 71.751 86.357 71.676 86.254 71.62C86.767 71.293 87.257 70.887 87.724 70.402C88.191 69.907 88.573 69.399 88.872 68.876ZM100.842 64.424H108.682V65.614H100.842V64.424ZM104.104 62.38H105.35C105.313 63.397 105.247 64.331 105.154 65.18C105.061 66.029 104.883 66.795 104.622 67.476C104.37 68.157 103.987 68.759 103.474 69.282C102.961 69.795 102.27 70.229 101.402 70.584C101.327 70.425 101.211 70.243 101.052 70.038C100.903 69.833 100.763 69.674 100.632 69.562C101.416 69.254 102.037 68.881 102.494 68.442C102.951 67.994 103.287 67.476 103.502 66.888C103.726 66.291 103.875 65.619 103.95 64.872C104.025 64.125 104.076 63.295 104.104 62.38ZM105.406 65.124C105.63 66.197 106.013 67.107 106.554 67.854C107.095 68.601 107.856 69.142 108.836 69.478C108.743 69.553 108.645 69.655 108.542 69.786C108.439 69.907 108.341 70.038 108.248 70.178C108.155 70.309 108.08 70.435 108.024 70.556C107.324 70.257 106.731 69.865 106.246 69.38C105.761 68.885 105.364 68.297 105.056 67.616C104.757 66.935 104.519 66.16 104.342 65.292L105.406 65.124ZM98.854 60.644H110.712V72.992H109.34V61.918H100.17V72.992H98.854V60.644ZM99.638 71.116H109.872V72.39H99.638V71.116ZM118.09 62.226C118.501 62.291 118.963 62.338 119.476 62.366C119.999 62.394 120.535 62.403 121.086 62.394C121.637 62.385 122.164 62.366 122.668 62.338C123.172 62.31 123.606 62.273 123.97 62.226V63.654C123.569 63.691 123.116 63.724 122.612 63.752C122.108 63.771 121.585 63.78 121.044 63.78C120.512 63.78 119.989 63.771 119.476 63.752C118.963 63.724 118.505 63.691 118.104 63.654L118.09 62.226ZM118.888 68.05C118.832 68.293 118.785 68.512 118.748 68.708C118.72 68.904 118.706 69.1 118.706 69.296C118.706 69.455 118.739 69.604 118.804 69.744C118.879 69.884 118.995 70.005 119.154 70.108C119.322 70.211 119.546 70.295 119.826 70.36C120.115 70.416 120.47 70.444 120.89 70.444C121.525 70.444 122.117 70.416 122.668 70.36C123.228 70.295 123.797 70.197 124.376 70.066L124.404 71.564C123.965 71.648 123.452 71.718 122.864 71.774C122.285 71.821 121.618 71.844 120.862 71.844C119.677 71.844 118.799 71.653 118.23 71.27C117.67 70.878 117.39 70.341 117.39 69.66C117.39 69.408 117.409 69.147 117.446 68.876C117.483 68.596 117.544 68.283 117.628 67.938L118.888 68.05ZM115.654 61.218C115.626 61.302 115.589 61.414 115.542 61.554C115.505 61.685 115.467 61.82 115.43 61.96C115.402 62.091 115.379 62.198 115.36 62.282C115.313 62.515 115.257 62.8 115.192 63.136C115.136 63.463 115.075 63.822 115.01 64.214C114.954 64.597 114.898 64.989 114.842 65.39C114.795 65.782 114.753 66.165 114.716 66.538C114.688 66.911 114.674 67.252 114.674 67.56C114.674 67.803 114.679 68.05 114.688 68.302C114.707 68.545 114.73 68.797 114.758 69.058C114.842 68.871 114.926 68.675 115.01 68.47C115.094 68.255 115.178 68.045 115.262 67.84C115.346 67.635 115.425 67.448 115.5 67.28L116.2 67.84C116.079 68.185 115.948 68.568 115.808 68.988C115.668 69.408 115.542 69.809 115.43 70.192C115.327 70.565 115.253 70.869 115.206 71.102C115.187 71.195 115.169 71.307 115.15 71.438C115.131 71.559 115.127 71.662 115.136 71.746C115.136 71.811 115.136 71.891 115.136 71.984C115.145 72.087 115.155 72.18 115.164 72.264L113.89 72.348C113.75 71.863 113.629 71.223 113.526 70.43C113.423 69.637 113.372 68.769 113.372 67.826C113.372 67.303 113.395 66.776 113.442 66.244C113.489 65.703 113.545 65.18 113.61 64.676C113.675 64.172 113.741 63.71 113.806 63.29C113.881 62.87 113.937 62.52 113.974 62.24C114.002 62.063 114.025 61.871 114.044 61.666C114.072 61.461 114.091 61.265 114.1 61.078L115.654 61.218ZM132.118 60.728C132.071 60.943 132.029 61.139 131.992 61.316C131.964 61.493 131.936 61.666 131.908 61.834C131.88 62.067 131.838 62.375 131.782 62.758C131.735 63.131 131.679 63.551 131.614 64.018C131.549 64.485 131.488 64.965 131.432 65.46C131.376 65.955 131.32 66.44 131.264 66.916C131.208 67.383 131.166 67.812 131.138 68.204C131.11 68.587 131.096 68.899 131.096 69.142C131.096 69.777 131.278 70.271 131.642 70.626C132.015 70.981 132.58 71.158 133.336 71.158C134.017 71.158 134.601 71.065 135.086 70.878C135.581 70.691 135.959 70.43 136.22 70.094C136.481 69.758 136.612 69.371 136.612 68.932C136.612 68.456 136.486 67.98 136.234 67.504C135.991 67.028 135.623 66.571 135.128 66.132L136.682 65.81C137.149 66.361 137.499 66.897 137.732 67.42C137.965 67.933 138.082 68.493 138.082 69.1C138.082 69.791 137.881 70.397 137.48 70.92C137.088 71.443 136.537 71.849 135.828 72.138C135.119 72.427 134.279 72.572 133.308 72.572C132.627 72.572 132.015 72.465 131.474 72.25C130.933 72.035 130.503 71.695 130.186 71.228C129.878 70.761 129.724 70.141 129.724 69.366C129.724 69.077 129.747 68.689 129.794 68.204C129.841 67.719 129.897 67.187 129.962 66.608C130.037 66.029 130.111 65.441 130.186 64.844C130.27 64.237 130.34 63.668 130.396 63.136C130.461 62.595 130.508 62.133 130.536 61.75C130.564 61.47 130.578 61.251 130.578 61.092C130.578 60.933 130.569 60.784 130.55 60.644L132.118 60.728ZM127.414 62.534C127.815 62.665 128.259 62.772 128.744 62.856C129.229 62.94 129.724 63.005 130.228 63.052C130.732 63.089 131.203 63.108 131.642 63.108C132.183 63.108 132.692 63.094 133.168 63.066C133.644 63.029 134.073 62.982 134.456 62.926L134.414 64.242C133.975 64.279 133.541 64.312 133.112 64.34C132.683 64.368 132.179 64.382 131.6 64.382C131.171 64.382 130.704 64.359 130.2 64.312C129.705 64.265 129.211 64.2 128.716 64.116C128.221 64.023 127.764 63.925 127.344 63.822L127.414 62.534ZM127.092 66.02C127.568 66.179 128.058 66.305 128.562 66.398C129.066 66.491 129.565 66.557 130.06 66.594C130.564 66.622 131.04 66.636 131.488 66.636C131.945 66.636 132.417 66.622 132.902 66.594C133.397 66.566 133.882 66.524 134.358 66.468L134.316 67.784C133.887 67.831 133.457 67.868 133.028 67.896C132.599 67.915 132.155 67.924 131.698 67.924C130.858 67.924 130.027 67.877 129.206 67.784C128.385 67.681 127.657 67.541 127.022 67.364L127.092 66.02Z" fill="var(--fill-0, black)"/>
</svg>
