<svg preserveAspectRatio="none" width="100%" height="100%" overflow="visible" style="display: block;" viewBox="0 0 115.215 16.974" fill="none" xmlns="http://www.w3.org/2000/svg">
<path id="Vector" d="M12.906 5.31H14.364V15.39H12.906V5.31ZM10.494 0.63L11.826 0.216C12.114 0.78 12.366 1.404 12.582 2.088C12.798 2.772 12.942 3.366 13.014 3.87L11.592 4.338C11.556 4.002 11.478 3.624 11.358 3.204C11.25 2.772 11.124 2.334 10.98 1.89C10.836 1.446 10.674 1.026 10.494 0.63ZM11.592 10.98C11.784 11.856 12.012 12.57 12.276 13.122C12.552 13.662 12.858 14.076 13.194 14.364C13.542 14.652 13.908 14.85 14.292 14.958C14.688 15.054 15.09 15.102 15.498 15.102C15.606 15.102 15.774 15.102 16.002 15.102C16.23 15.102 16.464 15.102 16.704 15.102C16.944 15.102 17.13 15.102 17.262 15.102C17.202 15.21 17.136 15.354 17.064 15.534C17.004 15.714 16.95 15.894 16.902 16.074C16.866 16.266 16.836 16.434 16.812 16.578H16.398H15.372C14.82 16.578 14.298 16.506 13.806 16.362C13.314 16.218 12.858 15.96 12.438 15.588C12.018 15.216 11.646 14.694 11.322 14.022C10.998 13.338 10.722 12.456 10.494 11.376L11.592 10.98ZM13.554 9.018H16.758V10.494H13.554V9.018ZM10.098 4.41H16.956V5.922H10.098V4.41ZM14.922 0.072L16.578 0.396C16.374 1.068 16.152 1.758 15.912 2.466C15.684 3.162 15.468 3.762 15.264 4.266L13.896 3.942C14.028 3.582 14.16 3.18 14.292 2.736C14.424 2.28 14.544 1.818 14.652 1.35C14.772 0.882 14.862 0.456 14.922 0.072ZM10.368 8.064H11.664V9.9C11.664 10.584 11.628 11.322 11.556 12.114C11.496 12.906 11.346 13.698 11.106 14.49C10.878 15.282 10.518 16.038 10.026 16.758C9.906 16.602 9.732 16.434 9.504 16.254C9.276 16.074 9.066 15.924 8.874 15.804C9.318 15.168 9.642 14.502 9.846 13.806C10.062 13.098 10.2 12.408 10.26 11.736C10.332 11.052 10.368 10.428 10.368 9.864V8.064ZM8.136 0.072L9.558 0.522C9.318 1.014 9.048 1.512 8.748 2.016C8.448 2.52 8.13 3 7.794 3.456C7.47 3.912 7.14 4.314 6.804 4.662C6.732 4.566 6.63 4.452 6.498 4.32C6.366 4.188 6.228 4.056 6.084 3.924C5.952 3.78 5.832 3.666 5.724 3.582C6.192 3.126 6.636 2.586 7.056 1.962C7.488 1.338 7.848 0.708 8.136 0.072ZM8.658 3.726L10.026 4.122C9.786 4.722 9.492 5.322 9.144 5.922C8.796 6.522 8.424 7.086 8.028 7.614C7.632 8.13 7.224 8.592 6.804 9C6.756 8.892 6.678 8.76 6.57 8.604C6.462 8.448 6.348 8.292 6.228 8.136C6.108 7.968 6 7.836 5.904 7.74C6.456 7.248 6.972 6.648 7.452 5.94C7.944 5.22 8.346 4.482 8.658 3.726ZM2.736 0.072L4.212 0.558C4.02 1.002 3.804 1.47 3.564 1.962C3.336 2.442 3.108 2.904 2.88 3.348C2.664 3.78 2.454 4.17 2.25 4.518L1.098 4.068C1.302 3.708 1.506 3.294 1.71 2.826C1.914 2.358 2.106 1.884 2.286 1.404C2.466 0.912 2.616 0.468 2.736 0.072ZM4.626 2.232L6.012 2.844C5.628 3.504 5.202 4.206 4.734 4.95C4.266 5.694 3.792 6.414 3.312 7.11C2.844 7.794 2.4 8.388 1.98 8.892L0.972 8.37C1.284 7.962 1.608 7.506 1.944 7.002C2.28 6.498 2.61 5.97 2.934 5.418C3.27 4.854 3.582 4.302 3.87 3.762C4.158 3.21 4.41 2.7 4.626 2.232ZM0.288002 3.96L1.062 2.754C1.362 3.03 1.674 3.342 1.998 3.69C2.322 4.026 2.616 4.362 2.88 4.698C3.144 5.022 3.348 5.322 3.492 5.598L2.664 6.984C2.52 6.696 2.316 6.372 2.052 6.012C1.8 5.652 1.518 5.298 1.206 4.95C0.894001 4.59 0.588002 4.26 0.288002 3.96ZM3.942 6.39L5.13 5.94C5.358 6.336 5.574 6.756 5.778 7.2C5.982 7.644 6.162 8.076 6.318 8.496C6.486 8.916 6.6 9.294 6.66 9.63L5.4 10.152C5.34 9.816 5.232 9.432 5.076 9C4.932 8.568 4.764 8.124 4.572 7.668C4.38 7.212 4.17 6.786 3.942 6.39ZM0.144001 7.992C0.864001 7.98 1.71 7.968 2.682 7.956C3.666 7.932 4.68 7.914 5.724 7.902L5.688 9.162C4.764 9.234 3.852 9.3 2.952 9.36C2.052 9.42 1.224 9.468 0.467999 9.504L0.144001 7.992ZM4.482 10.8L5.67 10.458C5.886 11.01 6.09 11.616 6.282 12.276C6.474 12.924 6.612 13.488 6.696 13.968L5.436 14.364C5.364 13.872 5.238 13.296 5.058 12.636C4.89 11.964 4.698 11.352 4.482 10.8ZM0.972 10.476L2.322 10.692C2.214 11.544 2.07 12.384 1.89 13.212C1.71 14.04 1.488 14.736 1.224 15.3C1.092 15.216 0.894001 15.114 0.630001 14.994C0.378001 14.874 0.168 14.784 0 14.724C0.276 14.172 0.486001 13.518 0.630001 12.762C0.786001 12.006 0.9 11.244 0.972 10.476ZM2.718 8.712H4.158V16.758H2.718V8.712ZM7.452 6.84L8.64 5.634L8.892 5.724V16.74H7.452V6.84ZM20.142 0.738H28.314V2.25H20.142V0.738ZM19.53 4.464H28.692V5.976H19.53V4.464ZM19.26 14.58H35.55V16.146H19.26V14.58ZM21.114 11.106H33.696V12.654H21.114V11.106ZM25.218 1.35H26.802V9.666H25.218V1.35ZM26.586 9.342H28.332V15.696H26.586V9.342ZM29.664 1.08H31.23V7.146H29.664V1.08ZM32.994 0.198H34.614V8.118C34.614 8.55 34.56 8.88 34.452 9.108C34.356 9.336 34.152 9.516 33.84 9.648C33.552 9.756 33.18 9.828 32.724 9.864C32.268 9.9 31.722 9.918 31.086 9.918C31.05 9.69 30.978 9.432 30.87 9.144C30.774 8.856 30.666 8.604 30.546 8.388C31.014 8.4 31.446 8.412 31.842 8.424C32.238 8.424 32.502 8.418 32.634 8.406C32.778 8.394 32.874 8.37 32.922 8.334C32.97 8.286 32.994 8.202 32.994 8.082V0.198ZM21.726 1.368H23.292V4.5C23.292 5.136 23.22 5.802 23.076 6.498C22.932 7.182 22.65 7.842 22.23 8.478C21.81 9.114 21.198 9.666 20.394 10.134C20.322 10.026 20.214 9.894 20.07 9.738C19.938 9.582 19.8 9.432 19.656 9.288C19.512 9.144 19.386 9.03 19.278 8.946C20.01 8.526 20.544 8.07 20.88 7.578C21.228 7.074 21.456 6.552 21.564 6.012C21.672 5.472 21.726 4.95 21.726 4.446V1.368ZM44.946 0.54H46.872C46.848 1.032 46.806 1.668 46.746 2.448C46.686 3.228 46.572 4.104 46.404 5.076C46.248 6.036 46.008 7.038 45.684 8.082C45.36 9.126 44.916 10.17 44.352 11.214C43.788 12.246 43.074 13.23 42.21 14.166C41.346 15.09 40.296 15.906 39.06 16.614C38.904 16.386 38.7 16.152 38.448 15.912C38.196 15.672 37.926 15.456 37.638 15.264C38.862 14.616 39.888 13.866 40.716 13.014C41.544 12.15 42.222 11.238 42.75 10.278C43.278 9.306 43.686 8.334 43.974 7.362C44.274 6.378 44.49 5.442 44.622 4.554C44.754 3.666 44.838 2.874 44.874 2.178C44.91 1.482 44.934 0.936 44.946 0.54ZM46.8 0.954C46.812 1.17 46.836 1.53 46.872 2.034C46.92 2.526 46.998 3.12 47.106 3.816C47.226 4.512 47.4 5.268 47.628 6.084C47.856 6.9 48.156 7.74 48.528 8.604C48.9 9.456 49.368 10.296 49.932 11.124C50.496 11.94 51.168 12.696 51.948 13.392C52.74 14.076 53.67 14.664 54.738 15.156C54.474 15.36 54.222 15.594 53.982 15.858C53.754 16.122 53.568 16.368 53.424 16.596C52.332 16.068 51.372 15.426 50.544 14.67C49.728 13.914 49.026 13.092 48.438 12.204C47.862 11.316 47.376 10.41 46.98 9.486C46.596 8.562 46.284 7.656 46.044 6.768C45.816 5.88 45.642 5.058 45.522 4.302C45.402 3.534 45.318 2.874 45.27 2.322C45.222 1.77 45.186 1.368 45.162 1.116L46.8 0.954ZM60.246 1.89H72.558V3.312H60.246V1.89ZM60.444 4.5H70.884V5.886H60.444V4.5ZM58.356 7.092H68.994V8.55H58.356V7.092ZM60.282 0L62.082 0.378C61.638 1.794 61.056 3.108 60.336 4.32C59.628 5.532 58.842 6.54 57.978 7.344C57.87 7.236 57.72 7.116 57.528 6.984C57.336 6.84 57.138 6.702 56.934 6.57C56.742 6.438 56.568 6.33 56.412 6.246C57.3 5.538 58.074 4.638 58.734 3.546C59.406 2.442 59.922 1.26 60.282 0ZM64.962 8.766L66.6 9.306C65.976 10.434 65.226 11.478 64.35 12.438C63.474 13.398 62.514 14.256 61.47 15.012C60.426 15.768 59.346 16.422 58.23 16.974C58.134 16.854 58.014 16.71 57.87 16.542C57.726 16.374 57.57 16.206 57.402 16.038C57.234 15.882 57.084 15.75 56.952 15.642C58.092 15.174 59.166 14.598 60.174 13.914C61.182 13.23 62.094 12.456 62.91 11.592C63.738 10.716 64.422 9.774 64.962 8.766ZM68.4 7.092H70.146C70.146 8.232 70.164 9.288 70.2 10.26C70.236 11.22 70.308 12.066 70.416 12.798C70.524 13.518 70.674 14.082 70.866 14.49C71.058 14.898 71.31 15.102 71.622 15.102C71.778 15.09 71.88 14.856 71.928 14.4C71.988 13.944 72.024 13.338 72.036 12.582C72.204 12.774 72.396 12.966 72.612 13.158C72.828 13.35 73.02 13.506 73.188 13.626C73.152 14.37 73.074 14.976 72.954 15.444C72.846 15.912 72.678 16.248 72.45 16.452C72.222 16.668 71.904 16.776 71.496 16.776C70.812 16.776 70.266 16.53 69.858 16.038C69.45 15.558 69.144 14.886 68.94 14.022C68.736 13.146 68.598 12.12 68.526 10.944C68.454 9.768 68.412 8.484 68.4 7.092ZM58.608 10.548L59.832 9.432C60.504 9.792 61.206 10.194 61.938 10.638C62.67 11.082 63.384 11.55 64.08 12.042C64.776 12.534 65.424 13.02 66.024 13.5C66.636 13.98 67.14 14.436 67.536 14.868L66.186 16.146C65.802 15.726 65.322 15.27 64.746 14.778C64.17 14.286 63.54 13.788 62.856 13.284C62.172 12.78 61.464 12.294 60.732 11.826C60 11.346 59.292 10.92 58.608 10.548ZM76.32 15.246V1.98H78.462L82.854 9.774L84.24 12.564H84.33C84.27 11.892 84.204 11.172 84.132 10.404C84.072 9.636 84.042 8.892 84.042 8.172V1.98H86.04V15.246H83.898L79.506 7.434L78.12 4.662H78.048C78.096 5.346 78.15 6.06 78.21 6.804C78.27 7.548 78.3 8.286 78.3 9.018V15.246H76.32ZM94.057 15.498C93.241 15.498 92.473 15.294 91.753 14.886C91.045 14.466 90.469 13.872 90.025 13.104C89.593 12.324 89.377 11.388 89.377 10.296C89.377 9.192 89.593 8.256 90.025 7.488C90.469 6.708 91.045 6.114 91.753 5.706C92.473 5.298 93.241 5.094 94.057 5.094C94.657 5.094 95.239 5.214 95.803 5.454C96.367 5.682 96.865 6.018 97.297 6.462C97.729 6.906 98.071 7.452 98.323 8.1C98.575 8.736 98.701 9.468 98.701 10.296C98.701 11.388 98.479 12.324 98.035 13.104C97.603 13.872 97.033 14.466 96.325 14.886C95.629 15.294 94.873 15.498 94.057 15.498ZM94.057 13.77C94.573 13.77 95.017 13.626 95.389 13.338C95.773 13.05 96.067 12.648 96.271 12.132C96.475 11.604 96.577 10.992 96.577 10.296C96.577 9.6 96.475 8.994 96.271 8.478C96.067 7.95 95.773 7.542 95.389 7.254C95.017 6.954 94.573 6.804 94.057 6.804C93.529 6.804 93.073 6.954 92.689 7.254C92.317 7.542 92.029 7.95 91.825 8.478C91.621 8.994 91.519 9.6 91.519 10.296C91.519 10.992 91.621 11.604 91.825 12.132C92.029 12.648 92.317 13.05 92.689 13.338C93.073 13.626 93.529 13.77 94.057 13.77ZM102.708 15.498C102.324 15.498 101.994 15.36 101.718 15.084C101.454 14.796 101.322 14.442 101.322 14.022C101.322 13.59 101.454 13.242 101.718 12.978C101.994 12.702 102.324 12.564 102.708 12.564C103.104 12.564 103.434 12.702 103.698 12.978C103.974 13.242 104.112 13.59 104.112 14.022C104.112 14.442 103.974 14.796 103.698 15.084C103.434 15.36 103.104 15.498 102.708 15.498ZM107.637 15.246V13.536H110.553V4.68H108.177V3.366C108.801 3.246 109.341 3.108 109.797 2.952C110.265 2.784 110.691 2.586 111.075 2.358H112.641V13.536H115.215V15.246H107.637Z" fill="var(--fill-0, #462B27)"/>
</svg>
